<?xml version="1.0" encoding="UTF-8" standalone="no"?>
<!-- Created with Inkscape (http://www.inkscape.org/) -->

<svg
   width="210mm"
   height="297mm"
   viewBox="0 0 210 297"
   version="1.1"
   id="svg1"
   xml:space="preserve"
   inkscape:version="1.4.3 (0d15f75, 2025-12-25)"
   sodipodi:docname="piano_cover.svg"
   xmlns:inkscape="http://www.inkscape.org/namespaces/inkscape"
   xmlns:sodipodi="http://sodipodi.sourceforge.net/DTD/sodipodi-0.dtd"
   xmlns="http://www.w3.org/2000/svg"
   xmlns:svg="http://www.w3.org/2000/svg"><sodipodi:namedview
     id="namedview1"
     pagecolor="#ffffff"
     bordercolor="#000000"
     borderopacity="0.25"
     inkscape:showpageshadow="2"
     inkscape:pageopacity="0.0"
     inkscape:pagecheckerboard="0"
     inkscape:deskcolor="#d1d1d1"
     inkscape:document-units="mm"
     showguides="true"
     inkscape:zoom="126.53566"
     inkscape:cx="791.74123"
     inkscape:cy="1124.9951"
     inkscape:window-width="1800"
     inkscape:window-height="1097"
     inkscape:window-x="0"
     inkscape:window-y="44"
     inkscape:window-maximized="0"
     inkscape:current-layer="layer1"><sodipodi:guide
       position="120.05929,71.52167"
       orientation="0,-1"
       id="guide2"
       inkscape:locked="false" /><sodipodi:guide
       position="134.19612,25.193095"
       orientation="0,-1"
       id="guide3"
       inkscape:locked="false" /><sodipodi:guide
       position="142.0259,12.748735"
       orientation="1,0"
       id="guide4"
       inkscape:locked="false" /><sodipodi:guide
       position="149.72172,39.512385"
       orientation="1,0"
       id="guide5"
       inkscape:locked="false" /><sodipodi:guide
       position="175.81859,55.015195"
       orientation="1,0"
       id="guide6"
       inkscape:locked="false" /></sodipodi:namedview><defs
     id="defs1" /><g
     inkscape:label="Layer 1"
     id="layer1"
     inkscape:groupmode="layer"><rect
       style="display:inline;fill:#000000;stroke-width:0.529167"
       id="rect6"
       width="210"
       height="71.521683"
       x="3.5527137e-15"
       y="225.47832"
       ry="0"
       inkscape:label="fondo" /><g
       id="g6"
       inkscape:label="teclado"
       transform="translate(5.0241755,6.1035156e-5)"><path
         id="rect1-1"
         style="fill:#ffffff;stroke-width:0.315587"
         d="m 183.23487,271.80684 5.50521,-1e-5 v -46.32858 l 13.17538,2e-5 v 46.32857 0 25.1931 h -18.68064 z"
         sodipodi:nodetypes="ccccccccc"
         inkscape:label="tecla-derecha" /><path
         id="rect1"
         style="fill:#ffffff;stroke-width:0.315587"
         d="m 162.64321,271.80684 5.50521,-1e-5 v -46.32858 h 7.67017 v 46.32858 l 5.50521,1e-5 v 25.1931 h -18.68064 z"
         sodipodi:nodetypes="ccccccccc"
         inkscape:label="tecla-central" /><path
         id="rect1-1-1"
         style="fill:#ffffff;stroke-width:0.315587"
         d="m 160.65372,271.80684 -5.50521,-1e-5 v -46.32858 l -13.17538,2e-5 v 46.32857 0 25.1931 h 18.68064 z"
         sodipodi:nodetypes="ccccccccc"
         inkscape:label="tecla-izquierda" /><path
         id="rect1-1-6"
         style="fill:#ffffff;stroke-width:0.315587"
         d="m 121.3815,271.80684 5.50521,-1e-5 v -46.32858 l 13.17538,2e-5 v 46.32857 0 25.1931 h -18.68064 z"
         sodipodi:nodetypes="ccccccccc"
         inkscape:label="tecla-derecha" /><path
         id="rect1-3"
         style="fill:#ffffff;stroke-width:0.315587"
         d="m 100.78984,271.80684 5.50521,-1e-5 v -46.32858 h 7.67017 v 46.32858 l 5.50521,1e-5 v 25.1931 h -18.68064 z"
         sodipodi:nodetypes="ccccccccc"
         inkscape:label="tecla-central" /><path
         id="rect1-1-1-6"
         style="fill:#ffffff;stroke-width:0.315587"
         d="m 78.130259,271.80684 -5.50521,-1e-5 v -46.32858 l -13.17538,2e-5 v 46.32857 0 25.1931 h 18.68064 z"
         sodipodi:nodetypes="ccccccccc"
         inkscape:label="tecla-izquierda" /><path
         id="rect1-3-4"
         style="fill:#ffffff;stroke-width:0.315587"
         d="m 80.119756,271.80684 5.50521,-1e-5 v -46.32858 h 7.67017 v 46.32858 l 5.505204,1e-5 v 25.1931 H 80.119706 Z"
         sodipodi:nodetypes="ccccccccc"
         inkscape:label="tecla-central" /><path
         id="rect1-1-2"
         style="fill:#ffffff;stroke-width:0.315587"
         d="m 39.297931,271.80684 5.50521,-1e-5 v -46.32858 l 13.17538,2e-5 v 46.32857 0 25.1931 h -18.68064 z"
         sodipodi:nodetypes="ccccccccc"
         inkscape:label="tecla-derecha" /><path
         id="rect1-5"
         style="fill:#ffffff;stroke-width:0.315587"
         d="m 18.70627,271.80684 5.50521,-1e-5 v -46.32858 h 7.67017 v 46.32858 l 5.505211,1e-5 v 25.1931 H 18.70622 Z"
         sodipodi:nodetypes="ccccccccc"
         inkscape:label="tecla-central" /><path
         id="rect1-1-1-1"
         style="fill:#ffffff;stroke-width:0.315587"
         d="m 16.71678,271.80684 -5.50521,-1e-5 v -46.32858 l -13.175381,2e-5 v 46.32857 0 25.1931 H 16.71683 Z"
         sodipodi:nodetypes="ccccccccc"
         inkscape:label="tecla-izquierda" /></g><path
       id="rect7"
       style="display:inline;fill:#000000;fill-opacity:1;stroke-width:0.529167"
       d="m 0,0 h 72.009572 c 59.235038,41.357555 -3.07807,114.27942 88.306238,132.51285 26.88808,5.36483 49.88596,16.62633 49.68419,49.294 v 43.67147 l -210,0 z"
       sodipodi:nodetypes="ccccccc"
       inkscape:label="piano_shape" /></g></svg>
