<?xml version="1.0" encoding="UTF-8" standalone="no"?>
<!-- Generator: Adobe Illustrator 25.2.0, SVG Export Plug-In . SVG Version: 6.00 Build 0)  -->

<svg
   version="1.1"
   id="Layer_1"
   x="0px"
   y="0px"
   viewBox="0 0 1000 1000"
   style="enable-background:new 0 0 1000 1000;"
   xml:space="preserve"
   sodipodi:docname="Evanescence Logo Vector.svg"
   inkscape:version="1.4.3 (0d15f75, 2025-12-25)"
   xmlns:inkscape="http://www.inkscape.org/namespaces/inkscape"
   xmlns:sodipodi="http://sodipodi.sourceforge.net/DTD/sodipodi-0.dtd"
   xmlns="http://www.w3.org/2000/svg"
   xmlns:svg="http://www.w3.org/2000/svg"><defs
   id="defs105" /><sodipodi:namedview
   id="namedview105"
   pagecolor="#ffffff"
   bordercolor="#000000"
   borderopacity="0.25"
   inkscape:showpageshadow="2"
   inkscape:pageopacity="0.0"
   inkscape:pagecheckerboard="0"
   inkscape:deskcolor="#d1d1d1"
   inkscape:zoom="0.85341419"
   inkscape:cx="494.4844"
   inkscape:cy="494.4844"
   inkscape:window-width="1800"
   inkscape:window-height="1097"
   inkscape:window-x="0"
   inkscape:window-y="44"
   inkscape:window-maximized="0"
   inkscape:current-layer="Layer_1" />


<g
   id="g105">
	
	<path
   style="fill-rule:evenodd;clip-rule:evenodd;"
   d="M306.565,463.348l-1.824-4.409l-22.193-0.151v25.537l10.032-0.304   l6.689,4.256h-16.874v25.386c7.753,0,15.505,0,23.258,0c3.952-1.824,6.08-1.824,10.337-4.56   c-3.193,3.952-5.017,3.041-10.185,10.337c-5.016,7.753-9.121,19.762,4.713,29.186c0,0-10.185-4.408-11.553-15.201   c-0.608-4.104-0.304-7.601,2.888-13.985h-28.882c0,0,4.865-3.192,4.865-7.904v-50.316c0,0-1.824-6.385-5.776-6.84h35.267   L306.565,463.348L306.565,463.348z"
   id="path92" />
	<path
   style="fill-rule:evenodd;clip-rule:evenodd;"
   d="M703.923,477.789l-1.368-3.496l-18.849-0.152v20.218l12.161-0.152   l3.496,3.344h-15.81v20.065c6.081,0,12.009,0,17.938,0c3.04-1.52,4.712-1.52,8.057-3.648c-2.432,3.192-3.952,2.432-7.904,8.208   c-3.801,6.081-6.993,15.657,3.648,23.106c0,0-7.904-3.496-8.968-12.01c-0.304-3.192-0.152-6.079,2.28-11.096H676.41   c0,0,3.8-2.584,3.8-6.232v-39.827c0,0-1.52-5.016-4.56-5.472h29.034L703.923,477.789L703.923,477.789z"
   id="path93" />
	<path
   style="fill-rule:evenodd;clip-rule:evenodd;"
   d="M301.853,468.06c0,0,11.097-0.76,16.722,13.074   c5.624,13.681,15.352,32.835,15.352,32.835l15.962-30.403c0,0,1.824-6.08-4.865-5.928l11.249,0.152l-23.106,44.995l-22.194-47.276   C310.974,475.508,305.805,468.972,301.853,468.06L301.853,468.06z"
   id="path94" />
	<path
   style="fill-rule:evenodd;clip-rule:evenodd;"
   d="M372.843,469.884l24.778,53.508c0,0,3.496,6.385,8.817,7.448   c0,0-9.121,0-12.921-7.448c-3.801-7.449-12.465-24.626-12.465-24.626h-9.577v-3.041l8.513,0.152l-8.057-17.785l-0.456,0.76v-6.537   L372.843,469.884L372.843,469.884z M371.474,498.766h-10.032l-8.057,15.049c0,0,0.151,1.672,1.064,2.584   c1.216,1.216,3.04,1.976,3.04,1.976h-10.032l24.018-46.059v6.537l-8.36,16.873h8.36V498.766L371.474,498.766z"
   id="path95" />
	<path
   style="fill-rule:evenodd;clip-rule:evenodd;"
   d="M394.884,478.701c0,0,8.513-2.736,11.705,0.456   c3.192,3.193,28.882,32.682,28.882,32.682v-31.314l-6.081-2.129l11.402-0.607v47.731l-35.723-39.979v28.274   c0,0-1.065,3.496,4.409,7.449c0,0-8.513-6.537-8.665-11.553c-0.304-5.016,0-29.186,0-29.186L394.884,478.701L394.884,478.701z"
   id="path96" />
	<path
   style="fill-rule:evenodd;clip-rule:evenodd;"
   d="M478.338,515.943c-6.385,0-17.177,0-17.177,0v-17.329h16.721   c0,0-4.104-3.648-5.776-3.648c-1.52,0-10.337,0-10.337,0v-13.529h15.201c0,0,2.129,1.368,2.432,3.952l0.304-7.6l-27.666-0.152   l6.537,3.8v32.379c0,0-0.913,3.648-7.601,5.32l29.642-0.152c0,0,4.257-0.152,8.969-6.081   C489.587,512.903,485.179,516.399,478.338,515.943L478.338,515.943z"
   id="path97" />
	<path
   style="fill-rule:evenodd;clip-rule:evenodd;"
   d="M551,510.015c-3.193,7.145-10.033,9.729-17.634,8.969   c-7.752-0.76-13.832-4.865-17.633-12.921c-3.8-8.057-0.152-24.929,13.073-28.273c13.225-3.496,20.218,4.408,20.218,4.408   l-3.8,5.777c0.304-2.736-0.76-5.016-2.888-6.537c-2.736-1.976-6.993-2.736-11.705-1.216c-8.209,2.585-12.161,9.577-12.465,17.026   c-0.152,8.36,4.864,17.329,14.897,19.913C533.062,517.159,543.855,520.504,551,510.015L551,510.015z"
   id="path98" />
	<path
   style="fill-rule:evenodd;clip-rule:evenodd;"
   d="M506.916,464.715l0.608-3.344c0,0-6.384-2.584-12.465,1.216   c-6.08,3.8-15.96,18.546-2.432,29.49c12.769,10.185,18.85,16.873,14.289,25.993c-3.8,7.601-16.721,15.81-16.721,15.81   s21.282-8.817,20.825-24.626c-0.304-8.969-7.904-12.465-14.593-18.849c-1.976-1.976-10.641-8.817-6.84-18.85   C493.387,461.676,503.724,463.499,506.916,464.715L506.916,464.715z"
   id="path99" />
	<path
   style="fill-rule:evenodd;clip-rule:evenodd;"
   d="M580.642,477.789l-1.368-3.496l-18.85-0.152v20.218l12.01-0.152l3.648,3.344   h-15.809v20.065c5.928,0,11.857,0,17.937,0c3.04-1.52,4.561-1.52,7.905-3.648c-2.432,3.192-3.952,2.432-7.905,8.208   c-3.8,6.081-6.84,15.657,3.648,23.106c0,0-7.752-3.496-8.817-12.01c-0.456-3.192-0.151-6.079,2.28-11.096h-22.346   c0,0,3.801-2.584,3.801-6.232v-39.827c0,0-1.521-5.016-4.56-5.472h29.034L580.642,477.789L580.642,477.789z"
   id="path100" />
	<path
   style="fill-rule:evenodd;clip-rule:evenodd;"
   d="M584.138,478.701c0,0,8.513-2.736,11.705,0.456   c3.192,3.193,28.882,32.682,28.882,32.682v-31.314l-6.081-2.129l11.401-0.607v47.731l-35.874-39.979v28.274   c0,0-1.064,3.496,4.56,7.449c0,0-8.512-6.537-8.665-11.553c-0.304-5.016,0-29.186,0-29.186L584.138,478.701L584.138,478.701z"
   id="path101" />
	<path
   style="fill-rule:evenodd;clip-rule:evenodd;"
   d="M673.217,510.015c-3.192,7.145-10.032,9.729-17.633,8.969   c-7.753-0.76-13.833-4.865-17.633-12.921c-3.648-8.057-0.152-24.929,13.073-28.273c13.225-3.496,20.218,4.408,20.218,4.408   l-3.801,5.777c0.76-6.232-6.08-10.337-14.593-7.753c-4.257,1.368-8.209,3.952-10.033,7.297c-4.104,7.752-4.56,25.385,12.465,29.642   C655.279,517.159,666.073,520.504,673.217,510.015L673.217,510.015z"
   id="path102" />
	<polygon
   style="fill-rule:evenodd;clip-rule:evenodd;"
   points="447.784,471.708 448.544,545.89 449.608,471.708 592.651,470.34    449.456,469.276 448.544,428.689 447.632,469.276 350.193,470.036 447.784,471.708  "
   id="polygon102" />
	<path
   style="fill-rule:evenodd;clip-rule:evenodd;"
   d="M684.618,442.066c20.218,0,37.547,13.985,43.324,33.138   c-6.08-15.657-21.585-27.514-40.587-29.034c-14.593-1.368-28.274,3.8-37.547,12.768   C658.168,448.602,670.633,442.066,684.618,442.066L684.618,442.066z M726.421,506.975c-6.689,17.177-22.954,29.186-41.804,29.186   c-18.545,0-34.507-11.705-41.499-28.274c7.296,12.617,21.129,21.738,37.546,23.106   C700.731,532.817,718.668,522.632,726.421,506.975L726.421,506.975z"
   id="path103" />
	<path
   style="fill-rule:evenodd;clip-rule:evenodd;"
   d="M388.043,539.81c0,0-12.161-8.969-24.474-5.777   c-11.553,3.192-20.978,19.002-3.496,30.25c18.241,11.248,66.581-7.296,74.638-11.401c8.056-4.104,40.13-15.049,54.115-12.009   c18.546,3.952,19.913,24.321,8.36,27.666c7.753-5.473,6.233-15.657-0.456-21.282c-4.56-3.649-12.465-5.776-27.361-1.976   c-27.211,6.841-49.404,19.305-66.733,23.258c-17.178,3.8-34.963,4.56-46.516-3.345c-11.401-7.752-12.465-21.13-3.193-29.794   C362.962,526.128,380.899,529.168,388.043,539.81L388.043,539.81z"
   id="path104" />
	<path
   style="fill-rule:evenodd;clip-rule:evenodd;"
   d="M365.698,551.514c0,0,7.904,6.84,25.994,2.28   c14.897-4.408,31.618-14.745,46.515-19.153c14.897-4.257,24.626-5.473,36.026,0.912c6.081,3.496,9.577,8.512,10.793,13.985   c1.064,4.712,0.456,9.729-1.673,14.137c-3.8,7.904-19.001,8.665-23.865,5.168c10.032,1.52,26.145-0.912,23.865-18.546   c-1.215-9.88-16.265-18.089-32.834-14.289c-16.57,3.952-29.49,11.705-45.756,17.482   C402.181,554.402,371.171,565.651,365.698,551.514L365.698,551.514z"
   id="path105" />
</g>
</svg>
