<svg width="2977.2" height="4208.4" xmlns="http://www.w3.org/2000/svg" version="1.2" baseProfile="tiny"><path fill="#fff" fill-rule="evenodd" d="M0 0h2977.2v4208.4H0V0"/><path class="StaffLines" fill="none" stroke="#000" stroke-width="2.75" stroke-linejoin="bevel" d="M176.232 316.732H2835.47M176.232 341.732H2835.47M176.232 366.733H2835.47M176.232 391.733H2835.47M176.232 416.733H2835.47M176.232 714.314H2835.47M176.232 739.314H2835.47M176.232 764.314H2835.47M176.232 789.314H2835.47M176.232 814.314H2835.47M176.232 1189.31H2835.47M176.232 1214.31H2835.47M176.232 1239.31H2835.47M176.232 1264.31H2835.47M176.232 1289.31H2835.47M176.232 1451.81H2835.47M176.232 1476.81H2835.47M176.232 1501.81H2835.47M176.232 1526.81H2835.47M176.232 1551.81H2835.47M176.232 1926.81H2835.47M176.232 1951.81H2835.47M176.232 1976.81H2835.47M176.232 2001.81H2835.47M176.232 2026.81H2835.47M176.232 2189.31H2835.47M176.232 2214.31H2835.47M176.232 2239.31H2835.47M176.232 2264.31H2835.47M176.232 2289.31H2835.47"/><path class="MeasureNumber" d="M160.592 238.42h-1.157c-2.203 1.641-6.437 3.031-9.328 3.031l-.468 1.766h2.75c2.437 0 2.718.078 2.718.797 0 .359 0 .359-.39 1.797l-4.282 16c-.531 2-.562 2.125-.921 2.484-.407.391-1.25.516-3.36.562h-1.719l-.203 1.875h14.797l.235-1.875h-2.157c-2.593 0-3.156-.203-3.156-1.078 0-.281.156-1.203.359-1.968l6.282-23.391m21.265 20.031l-1.031 1.844c-1.609 2.766-1.922 3-3.969 3.031h-9.265c.953-1.265 2.718-2.75 5.906-5 5.281-3.625 5.641-3.875 6.766-4.75 3.203-2.484 4.515-4.844 4.515-8 0-4.203-3.109-7-7.719-7-5.109 0-9.546 3.766-9.546 8.125 0 2.235 1.187 3.672 3.109 3.672 1.437 0 2.562-1.078 2.562-2.562 0-1.032-.515-1.719-1.843-2.438-.953-.484-1.11-.672-1.11-1.156 0-1.719 2.953-3.641 5.672-3.641 2.797 0 4.688 1.875 4.688 4.688 0 2.984-1.328 5.187-4.922 8.312-10.641 9.235-12.25 10.922-12.61 13.156h17.157l3.093-7.718-1.453-.563m11.157-5.109c.687-3.531 1.484-5.719 3-8.406 1.812-3.157 3.968-4.766 6.359-4.766 1.25 0 2 .484 2 1.25 0 .281-.078.437-.359.953-.36.688-.516 1.156-.516 1.766 0 1.281.953 2.156 2.312 2.156 1.641 0 2.766-1.203 2.766-3 0-2.719-2.562-4.719-6.125-4.719-3.75 0-7.109 2-9.828 5.844-2.797 3.953-4.484 9.031-4.484 13.469 0 5.89 2.921 9.437 7.796 9.437 3 0 5.688-1.187 7.61-3.312 1.75-2 2.828-4.875 2.828-7.516 0-4.078-2.75-6.922-6.75-6.922-2.797 0-4.969 1.203-6.609 3.766m5.328-1.453c2.484 0 3.843 1.718 3.843 4.843 0 5.079-2.687 8.954-6.25 8.954-2.562 0-4.078-1.875-4.078-5.079 0-5 2.766-8.718 6.485-8.718M162.092 1111h-1.157c-2.203 1.64-6.437 3.03-9.328 3.03l-.468 1.77h2.75c2.437 0 2.718.08 2.718.8 0 .35 0 .35-.39 1.79l-4.282 16c-.531 2-.562 2.13-.921 2.49-.407.39-1.25.51-3.36.56h-1.719l-.203 1.87h14.797l.235-1.87h-2.157c-2.593 0-3.156-.2-3.156-1.08 0-.28.156-1.2.359-1.97l6.282-23.39m17.468 13.75c1.891-.59 2.641-.92 3.61-1.56 1.875-1.24 3.031-3.44 3.031-5.67 0-3.8-3.031-6.36-7.516-6.36-4.359 0-8.046 2.72-8.046 6 0 1.64 1 2.76 2.531 2.76 1.312 0 2.281-.97 2.281-2.28 0-.69-.203-1.17-.844-1.79-.406-.38-.562-.65-.562-.93 0-.97 2-1.97 3.875-1.97 2.687 0 4.281 1.49 4.281 3.97 0 3.55-2.516 6.91-5.203 6.91-.109 0-.469-.03-.906-.08-1.172-.08-1.172-.08-1.407-.08-.875 0-1.359.41-1.359 1.13 0 .64.438 1.03 1.156 1.03.203 0 .485-.03.797-.08a8.727 8.727 0 011.531-.15c1.875 0 3.157 1.68 3.157 4.15 0 1.92-.438 3.77-1.328 5.28-1.188 2.16-3.032 3.21-5.641 3.21-2.234 0-4.156-1.13-4.156-2.41 0-.44.172-.59.797-.88 1.171-.51 1.64-1.23 1.64-2.31 0-1.4-1.109-2.48-2.547-2.48-1.718 0-2.843 1.36-2.843 3.44 0 3.87 2.953 6.31 7.75 6.31 6.046 0 10.64-4.03 10.64-9.39 0-1.44-.437-2.69-1.281-3.69-.875-1.03-1.672-1.52-3.438-2.08m27-13.75h-1.156c-2.203 1.64-6.437 3.03-9.328 3.03l-.469 1.77h2.75c2.438 0 2.719.08 2.719.8 0 .35 0 .35-.391 1.79l-4.281 16c-.531 2-.562 2.13-.922 2.49-.406.39-1.25.51-3.359.56h-1.719l-.203 1.87h14.797l.234-1.87h-2.156c-2.594 0-3.156-.2-3.156-1.08 0-.28.156-1.2.359-1.97l6.281-23.39M160.592 1848.5h-1.157c-2.203 1.64-6.437 3.03-9.328 3.03l-.468 1.77h2.75c2.437 0 2.718.08 2.718.8 0 .35 0 .35-.39 1.79l-4.282 16c-.531 2-.562 2.13-.921 2.49-.407.39-1.25.51-3.36.56h-1.719l-.203 1.87h14.797l.235-1.87h-2.157c-2.593 0-3.156-.2-3.156-1.08 0-.28.156-1.2.359-1.97l6.282-23.39m17.468 13.75c1.891-.59 2.641-.92 3.61-1.56 1.875-1.24 3.031-3.44 3.031-5.67 0-3.8-3.031-6.36-7.516-6.36-4.359 0-8.046 2.72-8.046 6 0 1.64 1 2.76 2.531 2.76 1.312 0 2.281-.97 2.281-2.28 0-.69-.203-1.17-.844-1.79-.406-.38-.562-.65-.562-.93 0-.97 2-1.97 3.875-1.97 2.687 0 4.281 1.49 4.281 3.97 0 3.55-2.516 6.91-5.203 6.91-.109 0-.469-.03-.906-.08-1.172-.08-1.172-.08-1.407-.08-.875 0-1.359.41-1.359 1.13 0 .64.438 1.03 1.156 1.03.203 0 .485-.03.797-.08a8.727 8.727 0 011.531-.15c1.875 0 3.157 1.68 3.157 4.15 0 1.92-.438 3.77-1.328 5.28-1.188 2.16-3.032 3.21-5.641 3.21-2.234 0-4.156-1.13-4.156-2.41 0-.44.172-.59.797-.88 1.171-.51 1.64-1.23 1.64-2.31 0-1.4-1.109-2.48-2.547-2.48-1.718 0-2.843 1.36-2.843 3.44 0 3.87 2.953 6.31 7.75 6.31 6.046 0 10.64-4.03 10.64-9.39 0-1.44-.437-2.69-1.281-3.69-.875-1.03-1.672-1.52-3.438-2.08m13.125-.75c-1.25.75-1.609 1.24-1.609 2.03 0 .77.641 1.33 1.438 1.33 1.046 0 1.64-.76 1.765-2.25 1.235-1 2.563-1.44 4.156-1.44 2.969 0 4.61 1.85 4.61 5.16 0 5.2-3.36 9.44-7.485 9.44-2.359 0-4.281-1.11-4.281-2.44 0-.23.047-.31.235-.44 1.046-.48 1.046-.48 1.328-.67.64-.48 1-1.2 1-2.05 0-1.28-1-2.23-2.407-2.23-1.75 0-3.078 1.47-3.078 3.39 0 3.53 3.047 6.08 7.328 6.08 6.469 0 11.719-5.16 11.719-11.55 0-4.05-3.078-6.89-7.437-6.89-1.735 0-3.125.36-5.047 1.33l2.234-7.56c2.125.43 3.813.64 5.25.64 2.641 0 5-.85 6.313-2.24.687-.79 1.078-1.48 1.078-2 0-.25-.125-.48-.281-.48-.11 0-.204.04-.438.15-1.312.64-3 1-4.562 1-2.391 0-5.235-.39-8.188-1.15l-3.641 12.84"/><path class="TieSegment" stroke="#000" stroke-width="1.75" stroke-linecap="round" stroke-linejoin="round" fill-rule="evenodd" d="M2690.64 435.483c28.97 18.513 115.86 18.513 144.83 0-28.97 25.513-115.86 25.513-144.83 0M400.334 1308.06c9.025 6.5 36.098 6.5 45.122 0-9.024 13.5-36.097 13.5-45.122 0M2646.57 1308.06c37.78 25.22 151.12 25.22 188.9 0-37.78 32.22-151.12 32.22-188.9 0M400.334 2045.56c9.025 6.5 36.098 6.5 45.122 0-9.024 13.5-36.097 13.5-45.122 0M1440.62 2045.56c48.18 29 192.74 29 240.93 0-48.19 36-192.75 36-240.93 0"/><path class="BarLine" stroke="#000" stroke-width="4.5" stroke-linejoin="bevel" d="M178.482 712.939v102.75M889.118 712.939v102.75M1497.92 712.939v102.75M2041.8 712.939v102.75M2390.08 712.939v102.75M2782.91 712.939v102.75M178.482 1450.44v102.75M1235.38 1450.44v102.75M1770.91 1450.44v102.75M2254.63 1450.44v102.75M2782.91 1450.44v102.75M178.482 2187.94v102.75M1326.7 2187.94v102.75M1923.1 2187.94v102.75M2467.7 2187.94v102.75M2811.09 2187.94v102.75"/><path class="BarLine" stroke="#000" stroke-width="13.75" stroke-linejoin="bevel" d="M2828.59 2187.94v102.75"/><path class="BarLine" stroke="#000" stroke-width="4.5" stroke-linejoin="bevel" d="M178.482 315.357v398.957M889.118 315.357v398.957M1497.92 315.357v398.957M2041.8 315.357v398.957M2390.08 315.357v398.957M2782.91 315.357v398.957M178.482 1187.94v263.87M1235.38 1187.94v263.87M1770.91 1187.94v263.87M2254.63 1187.94v263.87M2782.91 1187.94v263.87M178.482 1925.44v263.87M1326.7 1925.44v263.87M1923.1 1925.44v263.87M2467.7 1925.44v263.87M2811.09 1925.44v263.87"/><path class="BarLine" stroke="#000" stroke-width="13.75" stroke-linejoin="bevel" d="M2828.59 1925.44v263.87"/><path class="LedgerLine" stroke="#000" stroke-width="4" stroke-linejoin="bevel" d="M375.029 839.314h49.993M649.889 864.314h49.992M649.889 839.314h49.992M1553.3 839.314h50M2074.05 839.314h50M2422.33 839.314h49.99M425.334 1576.81h49.992M1319.43 1576.81h49.99M1803.16 1576.81h49.99M2286.88 1576.81h50M425.334 2314.31h49.992M1410.75 2314.31h49.99M1955.35 2314.31h49.99M2499.95 2314.31h50"/><path class="Stem" stroke="#000" stroke-width="2.75" stroke-linejoin="bevel" d="M414.897 848.614v-128.05M505.897 798.614v-91.558M625.434 761.114v-71.8M689.756 861.114v-121.8M754.078 811.114v-87.425M818.401 773.614v-65.55M952.485 811.114v-128.05M1024.94 761.114v-96.8M1097.4 723.614v-78.05M1151.93 792.674v65.39M1260.8 755.174v87.916M1424.59 742.674v77.89M1593.17 836.114v-121.8M1741.51 786.114v-93.799M1803.89 748.614v-65.55M1836.53 730.174v102.89M1898.92 755.174v91.618M1978.54 792.674v71.64M2113.92 836.114v-121.8M2163.43 786.114v-87.425M2212.94 748.614v-65.55M2232.7 730.174v102.89M2282.21 755.174v93.515M2331.72 792.674v71.64M2462.2 836.114v-121.8M2515.85 786.114v-87.425M2569.5 748.614v-65.55M2593.41 730.174v102.89M2670.9 755.174v96.354M2724.55 792.674v71.64M465.201 1573.61v-121.8M550.028 1523.61v-87.42M634.854 1486.11v-65.55M689.938 1467.67v84.14M958.822 1442.67v84.14M1359.3 1573.61v-121.8M1432.71 1523.61v-87.42M1506.12 1486.11v-65.55M1549.79 1467.67v102.89M1623.21 1492.67v93.52M1696.62 1530.17v71.64M1843.02 1573.61v-121.8M1916.44 1523.61v-87.42M1989.85 1486.11v-65.55M2033.52 1467.67v102.89M2106.93 1492.67v93.52M2180.35 1530.17v71.64M2326.75 1573.61v-121.8M2404.36 1523.61v-87.42M2481.96 1486.11v-65.55M2529.82 1467.67v102.89M2626.83 1492.67v95.26M2704.43 1530.17v71.64M465.201 2311.11v-121.8M561.096 2261.11v-87.42M656.991 2223.61v-65.55M723.144 2205.17v84.14M1014.17 2180.17v84.14M1450.61 2311.11v-121.8M1534.17 2261.11v-87.42M1617.73 2223.61v-65.55M1671.55 2205.17v102.89M1755.11 2230.17v93.52M1838.67 2267.67v71.64M1995.22 2311.11v-121.8M2078.78 2261.11v-87.42M2162.34 2223.61v-65.55M2216.15 2205.17v102.89M2299.71 2230.17v93.52M2383.27 2267.67v71.64M2539.82 2311.11v-159.3M385.154 345.092v71.641M476.154 345.092v71.641M555.49 345.092v81.016M1067.66 307.592v146.641M1151.93 320.092v121.641M1260.8 320.092v121.641M1379.3 307.592v134.141M1563.43 320.092v134.141M1672.77 332.592v112.266M2331.72 370.093v84.14M2432.46 370.093v74.765M2623.15 363.532v-71.8M2661.9 413.533v-96.801M2700.64 413.533v-84.301M465.201 1286.11v-84.3M605.112 1242.67v84.14M689.938 1230.17v77.89M774.765 1242.67v71.15M873.996 1255.17v65.39"/><path class="Stem" stroke="#000" stroke-width="1.93" stroke-linejoin="bevel" d="M838.289 1224.57v-66.51M865.409 1237.07v-72.76"/><path class="Stem" stroke="#000" stroke-width="2.75" stroke-linejoin="bevel" d="M988.565 1236.11v-71.8M1073.39 1248.61v-70.41M1126.41 1261.11v-74.23M1179.42 1286.11v-90.55M1359.3 1286.11v-84.3M2180.35 1242.67v84.14M2297.01 1242.67v74.77M2559.57 1236.11v-71.8M2608.07 1286.11v-96.8M2656.57 1286.11v-84.3M465.201 2023.61v-84.3M627.249 1980.17v84.14M723.144 1967.67v77.89M819.039 1980.17v71.54M918.27 1992.67v65.39"/><path class="Stem" stroke="#000" stroke-width="1.93" stroke-linejoin="bevel" d="M882.563 1962.07v-66.51M909.683 1974.57v-72.76"/><path class="Stem" stroke="#000" stroke-width="2.75" stroke-linejoin="bevel" d="M1043.91 1973.61v-71.8M1139.8 1986.11v-70.41M1199.74 1998.61v-74.23M1259.67 2023.61v-90.55M1450.61 2023.61v-84.3M1701.29 2023.61v-84.3"/><path class="Note" d="M415.279 843.72c-1.797-3.313-5.593-5.109-10.203-5.109-3.39 0-7.094 1-10.703 2.906-6.594 3.5-10.594 9.39-10.594 14.5 0 1.39.297 2.797 1 4.094 1.797 3.296 5.594 5 10.203 5 3.391 0 7.094-.891 10.704-2.797 6.593-3.5 10.593-9.407 10.593-14.5 0-1.407-.297-2.797-1-4.094M506.279 793.72c-1.796-3.313-5.593-5.11-10.203-5.11-3.39 0-7.093 1-10.703 2.907-6.594 3.5-10.594 9.39-10.594 14.5 0 1.39.297 2.797 1 4.093 1.797 3.297 5.594 5 10.204 5 3.39 0 7.093-.89 10.703-2.796 6.593-3.5 10.593-9.407 10.593-14.5 0-1.407-.296-2.797-1-4.094M625.817 756.22c-1.797-3.313-5.594-5.11-10.203-5.11-3.391 0-7.094 1-10.704 2.907-6.593 3.5-10.593 9.39-10.593 14.5 0 1.39.297 2.797 1 4.093 1.797 3.297 5.593 5 10.203 5 3.39 0 7.094-.89 10.703-2.796 6.594-3.5 10.594-9.407 10.594-14.5 0-1.407-.297-2.797-1-4.094M690.139 856.22c-1.797-3.313-5.594-5.109-10.203-5.109-3.391 0-7.094 1-10.703 2.906-6.594 3.5-10.594 9.39-10.594 14.5 0 1.39.297 2.797 1 4.094 1.797 3.296 5.594 5 10.203 5 3.391 0 7.094-.891 10.703-2.797 6.594-3.5 10.594-9.407 10.594-14.5 0-1.407-.297-2.797-1-4.094M754.461 806.22c-1.797-3.313-5.594-5.11-10.203-5.11-3.391 0-7.094 1-10.703 2.907-6.594 3.5-10.594 9.39-10.594 14.5 0 1.39.297 2.797 1 4.093 1.797 3.297 5.594 5 10.203 5 3.391 0 7.094-.89 10.703-2.796 6.594-3.5 10.594-9.407 10.594-14.5 0-1.407-.297-2.797-1-4.094M818.783 768.72c-1.796-3.313-5.593-5.11-10.203-5.11-3.39 0-7.093 1-10.703 2.907-6.594 3.5-10.594 9.39-10.594 14.5 0 1.39.297 2.797 1 4.093 1.797 3.297 5.594 5 10.204 5 3.39 0 7.093-.89 10.703-2.796 6.593-3.5 10.593-9.407 10.593-14.5 0-1.407-.296-2.797-1-4.094M952.868 806.22c-1.797-3.313-5.594-5.11-10.203-5.11-3.391 0-7.094 1-10.704 2.907-6.593 3.5-10.593 9.39-10.593 14.5 0 1.39.297 2.797 1 4.093 1.797 3.297 5.593 5 10.203 5 3.39 0 7.094-.89 10.703-2.796 6.594-3.5 10.594-9.407 10.594-14.5 0-1.407-.297-2.797-1-4.094M1025.33 756.22c-1.8-3.313-5.6-5.11-10.21-5.11-3.39 0-7.09 1-10.7 2.907-6.593 3.5-10.593 9.39-10.593 14.5 0 1.39.297 2.797 1 4.093 1.797 3.297 5.593 5 10.203 5 3.39 0 7.09-.89 10.7-2.796 6.6-3.5 10.6-9.407 10.6-14.5 0-1.407-.3-2.797-1-4.094M1097.79 718.72c-1.8-3.313-5.6-5.11-10.21-5.11-3.39 0-7.09 1-10.7 2.907-6.59 3.5-10.59 9.39-10.59 14.5 0 1.39.29 2.797 1 4.093 1.79 3.297 5.59 5 10.2 5 3.39 0 7.09-.89 10.7-2.796 6.6-3.5 10.6-9.407 10.6-14.5 0-1.407-.3-2.797-1-4.094M1182.05 781.22c-1.79-3.313-5.59-5.11-10.2-5.11-3.39 0-7.09 1-10.7 2.907-6.6 3.5-10.6 9.39-10.6 14.5 0 1.39.3 2.797 1 4.093 1.8 3.297 5.6 5 10.21 5 3.39 0 7.09-.89 10.7-2.796 6.59-3.5 10.59-9.407 10.59-14.5 0-1.407-.29-2.797-1-4.094M1290.93 743.72c-1.8-3.313-5.6-5.11-10.21-5.11-3.39 0-7.09 1-10.7 2.907-6.59 3.5-10.59 9.39-10.59 14.5 0 1.39.29 2.797 1 4.093 1.79 3.297 5.59 5 10.2 5 3.39 0 7.09-.89 10.7-2.796 6.6-3.5 10.6-9.407 10.6-14.5 0-1.407-.3-2.797-1-4.094M1454.72 731.22c-1.8-3.313-5.6-5.11-10.21-5.11-3.39 0-7.09 1-10.7 2.907-6.59 3.5-10.59 9.39-10.59 14.5 0 1.39.29 2.797 1 4.093 1.79 3.297 5.59 5 10.2 5 3.39 0 7.09-.89 10.7-2.796 6.6-3.5 10.6-9.407 10.6-14.5 0-1.407-.3-2.797-1-4.094M1593.55 831.22c-1.79-3.313-5.59-5.109-10.2-5.109-3.39 0-7.09 1-10.7 2.906-6.6 3.5-10.6 9.39-10.6 14.5 0 1.39.3 2.797 1 4.094 1.8 3.296 5.6 5 10.21 5 3.39 0 7.09-.891 10.7-2.797 6.59-3.5 10.59-9.407 10.59-14.5 0-1.407-.29-2.797-1-4.094M1741.89 781.22c-1.8-3.313-5.6-5.11-10.2-5.11-3.4 0-7.1 1-10.71 2.907-6.59 3.5-10.59 9.39-10.59 14.5 0 1.39.3 2.797 1 4.093 1.8 3.297 5.59 5 10.2 5 3.39 0 7.1-.89 10.7-2.796 6.6-3.5 10.6-9.407 10.6-14.5 0-1.407-.3-2.797-1-4.094M1804.27 743.72c-1.79-3.313-5.59-5.11-10.2-5.11-3.39 0-7.09 1-10.7 2.907-6.6 3.5-10.6 9.39-10.6 14.5 0 1.39.3 2.797 1 4.093 1.8 3.297 5.6 5 10.21 5 3.39 0 7.09-.89 10.7-2.796 6.59-3.5 10.59-9.407 10.59-14.5 0-1.407-.29-2.797-1-4.094M1866.66 718.72c-1.8-3.313-5.59-5.11-10.2-5.11-3.39 0-7.1 1-10.71 2.907-6.59 3.5-10.59 9.39-10.59 14.5 0 1.39.3 2.797 1 4.093 1.8 3.297 5.59 5 10.2 5 3.39 0 7.1-.89 10.71-2.796 6.59-3.5 10.59-9.407 10.59-14.5 0-1.407-.3-2.797-1-4.094M1929.05 743.72c-1.8-3.313-5.6-5.11-10.21-5.11-3.39 0-7.09 1-10.7 2.907-6.59 3.5-10.59 9.39-10.59 14.5 0 1.39.29 2.797 1 4.093 1.79 3.297 5.59 5 10.2 5 3.39 0 7.09-.89 10.7-2.796 6.6-3.5 10.6-9.407 10.6-14.5 0-1.407-.3-2.797-1-4.094M2008.67 781.22c-1.8-3.313-5.59-5.11-10.2-5.11-3.39 0-7.1 1-10.71 2.907-6.59 3.5-10.59 9.39-10.59 14.5 0 1.39.3 2.797 1 4.093 1.8 3.297 5.59 5 10.2 5 3.39 0 7.1-.89 10.71-2.796 6.59-3.5 10.59-9.407 10.59-14.5 0-1.407-.3-2.797-1-4.094M2114.3 831.22c-1.79-3.313-5.59-5.109-10.2-5.109-3.39 0-7.09 1-10.7 2.906-6.6 3.5-10.6 9.39-10.6 14.5 0 1.39.3 2.797 1 4.094 1.8 3.296 5.6 5 10.21 5 3.39 0 7.09-.891 10.7-2.797 6.59-3.5 10.59-9.407 10.59-14.5 0-1.407-.29-2.797-1-4.094M2163.81 781.22c-1.8-3.313-5.59-5.11-10.2-5.11-3.39 0-7.1 1-10.7 2.907-6.6 3.5-10.6 9.39-10.6 14.5 0 1.39.3 2.797 1 4.093 1.8 3.297 5.6 5 10.2 5 3.4 0 7.1-.89 10.71-2.796 6.59-3.5 10.59-9.407 10.59-14.5 0-1.407-.3-2.797-1-4.094M2213.32 743.72c-1.8-3.313-5.59-5.11-10.2-5.11-3.39 0-7.1 1-10.71 2.907-6.59 3.5-10.59 9.39-10.59 14.5 0 1.39.3 2.797 1 4.093 1.8 3.297 5.59 5 10.2 5 3.39 0 7.1-.89 10.71-2.796 6.59-3.5 10.59-9.407 10.59-14.5 0-1.407-.3-2.797-1-4.094M2262.83 718.72c-1.8-3.313-5.6-5.11-10.21-5.11-3.39 0-7.09 1-10.7 2.907-6.59 3.5-10.59 9.39-10.59 14.5 0 1.39.29 2.797 1 4.093 1.79 3.297 5.59 5 10.2 5 3.39 0 7.09-.89 10.7-2.796 6.6-3.5 10.6-9.407 10.6-14.5 0-1.407-.3-2.797-1-4.094M2312.33 743.72c-1.79-3.313-5.59-5.11-10.2-5.11-3.39 0-7.09 1-10.7 2.907-6.6 3.5-10.6 9.39-10.6 14.5 0 1.39.3 2.797 1 4.093 1.8 3.297 5.6 5 10.21 5 3.39 0 7.09-.89 10.7-2.796 6.59-3.5 10.59-9.407 10.59-14.5 0-1.407-.29-2.797-1-4.094M2361.84 781.22c-1.8-3.313-5.59-5.11-10.2-5.11-3.39 0-7.1 1-10.71 2.907-6.59 3.5-10.59 9.39-10.59 14.5 0 1.39.3 2.797 1 4.093 1.8 3.297 5.59 5 10.2 5 3.39 0 7.1-.89 10.71-2.796 6.59-3.5 10.59-9.407 10.59-14.5 0-1.407-.3-2.797-1-4.094M2462.58 831.22c-1.79-3.313-5.59-5.109-10.2-5.109-3.39 0-7.09 1-10.7 2.906-6.6 3.5-10.6 9.39-10.6 14.5 0 1.39.3 2.797 1 4.094 1.8 3.296 5.6 5 10.21 5 3.39 0 7.09-.891 10.7-2.797 6.59-3.5 10.59-9.407 10.59-14.5 0-1.407-.29-2.797-1-4.094M2516.23 781.22c-1.79-3.313-5.59-5.11-10.2-5.11-3.39 0-7.09 1-10.7 2.907-6.6 3.5-10.6 9.39-10.6 14.5 0 1.39.3 2.797 1 4.093 1.8 3.297 5.6 5 10.21 5 3.39 0 7.09-.89 10.7-2.796 6.59-3.5 10.59-9.407 10.59-14.5 0-1.407-.29-2.797-1-4.094M2569.88 743.72c-1.79-3.313-5.59-5.11-10.2-5.11-3.39 0-7.09 1-10.7 2.907-6.6 3.5-10.6 9.39-10.6 14.5 0 1.39.3 2.797 1 4.093 1.8 3.297 5.6 5 10.21 5 3.39 0 7.09-.89 10.7-2.796 6.59-3.5 10.59-9.407 10.59-14.5 0-1.407-.29-2.797-1-4.094M2623.54 718.72c-1.8-3.313-5.6-5.11-10.21-5.11-3.39 0-7.09 1-10.7 2.907-6.59 3.5-10.59 9.39-10.59 14.5 0 1.39.29 2.797 1 4.093 1.79 3.297 5.59 5 10.2 5 3.39 0 7.09-.89 10.7-2.796 6.6-3.5 10.6-9.407 10.6-14.5 0-1.407-.3-2.797-1-4.094M2701.02 743.72c-1.8-3.313-5.59-5.11-10.2-5.11-3.39 0-7.1 1-10.71 2.907-6.59 3.5-10.59 9.39-10.59 14.5 0 1.39.3 2.797 1 4.093 1.8 3.297 5.59 5 10.2 5 3.39 0 7.1-.89 10.71-2.796 6.59-3.5 10.59-9.407 10.59-14.5 0-1.407-.3-2.797-1-4.094M2754.67 781.22c-1.8-3.313-5.59-5.11-10.2-5.11-3.39 0-7.1 1-10.7 2.907-6.6 3.5-10.6 9.39-10.6 14.5 0 1.39.3 2.797 1 4.093 1.8 3.297 5.6 5 10.2 5 3.4 0 7.1-.89 10.71-2.796 6.59-3.5 10.59-9.407 10.59-14.5 0-1.407-.3-2.797-1-4.094M465.584 1568.72c-1.797-3.31-5.594-5.11-10.203-5.11-3.391 0-7.094 1-10.703 2.91-6.594 3.5-10.594 9.39-10.594 14.5 0 1.39.297 2.79 1 4.09 1.797 3.3 5.594 5 10.203 5 3.391 0 7.094-.89 10.703-2.8 6.594-3.5 10.594-9.4 10.594-14.5 0-1.4-.297-2.79-1-4.09M550.411 1518.72c-1.797-3.31-5.594-5.11-10.204-5.11-3.39 0-7.093 1-10.703 2.91-6.593 3.5-10.593 9.39-10.593 14.5 0 1.39.296 2.79 1 4.09 1.796 3.3 5.593 5 10.203 5 3.39 0 7.093-.89 10.703-2.8 6.594-3.5 10.594-9.4 10.594-14.5 0-1.4-.297-2.79-1-4.09M635.237 1481.22c-1.797-3.31-5.594-5.11-10.203-5.11-3.391 0-7.094 1-10.703 2.91-6.594 3.5-10.594 9.39-10.594 14.5 0 1.39.297 2.79 1 4.09 1.797 3.3 5.594 5 10.203 5 3.391 0 7.094-.89 10.703-2.8 6.594-3.5 10.594-9.4 10.594-14.5 0-1.4-.297-2.79-1-4.09M720.063 1456.22c-1.797-3.31-5.593-5.11-10.203-5.11-3.39 0-7.094 1-10.703 2.91-6.594 3.5-10.594 9.39-10.594 14.5 0 1.39.297 2.79 1 4.09 1.797 3.3 5.594 5 10.203 5 3.391 0 7.094-.89 10.704-2.8 6.593-3.5 10.593-9.4 10.593-14.5 0-1.4-.297-2.79-1-4.09M988.947 1431.22c-1.796-3.31-5.593-5.11-10.203-5.11-3.39 0-7.093 1-10.703 2.91-6.594 3.5-10.594 9.39-10.594 14.5 0 1.39.297 2.79 1 4.09 1.797 3.3 5.594 5 10.204 5 3.39 0 7.093-.89 10.703-2.8 6.593-3.5 10.593-9.4 10.593-14.5 0-1.4-.296-2.79-1-4.09M1359.68 1568.72c-1.8-3.31-5.59-5.11-10.2-5.11-3.39 0-7.1 1-10.71 2.91-6.59 3.5-10.59 9.39-10.59 14.5 0 1.39.3 2.79 1 4.09 1.8 3.3 5.59 5 10.2 5 3.39 0 7.1-.89 10.71-2.8 6.59-3.5 10.59-9.4 10.59-14.5 0-1.4-.3-2.79-1-4.09M1433.09 1518.72c-1.79-3.31-5.59-5.11-10.2-5.11-3.39 0-7.09 1-10.7 2.91-6.6 3.5-10.6 9.39-10.6 14.5 0 1.39.3 2.79 1 4.09 1.8 3.3 5.6 5 10.21 5 3.39 0 7.09-.89 10.7-2.8 6.59-3.5 10.59-9.4 10.59-14.5 0-1.4-.29-2.79-1-4.09M1506.51 1481.22c-1.8-3.31-5.6-5.11-10.21-5.11-3.39 0-7.09 1-10.7 2.91-6.59 3.5-10.59 9.39-10.59 14.5 0 1.39.29 2.79 1 4.09 1.79 3.3 5.59 5 10.2 5 3.39 0 7.09-.89 10.7-2.8 6.6-3.5 10.6-9.4 10.6-14.5 0-1.4-.3-2.79-1-4.09M1579.92 1456.22c-1.8-3.31-5.6-5.11-10.2-5.11-3.4 0-7.1 1-10.71 2.91-6.59 3.5-10.59 9.39-10.59 14.5 0 1.39.3 2.79 1 4.09 1.8 3.3 5.59 5 10.2 5 3.39 0 7.1-.89 10.7-2.8 6.6-3.5 10.6-9.4 10.6-14.5 0-1.4-.3-2.79-1-4.09M1653.33 1481.22c-1.8-3.31-5.59-5.11-10.2-5.11-3.39 0-7.1 1-10.7 2.91-6.6 3.5-10.6 9.39-10.6 14.5 0 1.39.3 2.79 1 4.09 1.8 3.3 5.6 5 10.2 5 3.4 0 7.1-.89 10.71-2.8 6.59-3.5 10.59-9.4 10.59-14.5 0-1.4-.3-2.79-1-4.09M1726.74 1518.72c-1.79-3.31-5.59-5.11-10.2-5.11-3.39 0-7.09 1-10.7 2.91-6.6 3.5-10.6 9.39-10.6 14.5 0 1.39.3 2.79 1 4.09 1.8 3.3 5.6 5 10.21 5 3.39 0 7.09-.89 10.7-2.8 6.59-3.5 10.59-9.4 10.59-14.5 0-1.4-.29-2.79-1-4.09M1843.41 1568.72c-1.8-3.31-5.6-5.11-10.21-5.11-3.39 0-7.09 1-10.7 2.91-6.59 3.5-10.59 9.39-10.59 14.5 0 1.39.29 2.79 1 4.09 1.79 3.3 5.59 5 10.2 5 3.39 0 7.09-.89 10.7-2.8 6.6-3.5 10.6-9.4 10.6-14.5 0-1.4-.3-2.79-1-4.09M1916.82 1518.72c-1.8-3.31-5.59-5.11-10.2-5.11-3.39 0-7.1 1-10.71 2.91-6.59 3.5-10.59 9.39-10.59 14.5 0 1.39.3 2.79 1 4.09 1.8 3.3 5.59 5 10.2 5 3.39 0 7.1-.89 10.71-2.8 6.59-3.5 10.59-9.4 10.59-14.5 0-1.4-.3-2.79-1-4.09M1990.23 1481.22c-1.79-3.31-5.59-5.11-10.2-5.11-3.39 0-7.09 1-10.7 2.91-6.6 3.5-10.6 9.39-10.6 14.5 0 1.39.3 2.79 1 4.09 1.8 3.3 5.6 5 10.21 5 3.39 0 7.09-.89 10.7-2.8 6.59-3.5 10.59-9.4 10.59-14.5 0-1.4-.29-2.79-1-4.09M2063.65 1456.22c-1.8-3.31-5.6-5.11-10.21-5.11-3.39 0-7.09 1-10.7 2.91-6.59 3.5-10.59 9.39-10.59 14.5 0 1.39.29 2.79 1 4.09 1.79 3.3 5.59 5 10.2 5 3.39 0 7.09-.89 10.7-2.8 6.6-3.5 10.6-9.4 10.6-14.5 0-1.4-.3-2.79-1-4.09M2137.06 1481.22c-1.8-3.31-5.6-5.11-10.21-5.11-3.39 0-7.09 1-10.7 2.91-6.59 3.5-10.59 9.39-10.59 14.5 0 1.39.29 2.79 1 4.09 1.79 3.3 5.59 5 10.2 5 3.39 0 7.09-.89 10.7-2.8 6.6-3.5 10.6-9.4 10.6-14.5 0-1.4-.3-2.79-1-4.09M2210.47 1518.72c-1.8-3.31-5.59-5.11-10.2-5.11-3.39 0-7.1 1-10.71 2.91-6.59 3.5-10.59 9.39-10.59 14.5 0 1.39.3 2.79 1 4.09 1.8 3.3 5.59 5 10.2 5 3.39 0 7.1-.89 10.71-2.8 6.59-3.5 10.59-9.4 10.59-14.5 0-1.4-.3-2.79-1-4.09M2327.13 1568.72c-1.79-3.31-5.59-5.11-10.2-5.11-3.39 0-7.09 1-10.7 2.91-6.6 3.5-10.6 9.39-10.6 14.5 0 1.39.3 2.79 1 4.09 1.8 3.3 5.6 5 10.21 5 3.39 0 7.09-.89 10.7-2.8 6.59-3.5 10.59-9.4 10.59-14.5 0-1.4-.29-2.79-1-4.09M2404.74 1518.72c-1.8-3.31-5.6-5.11-10.2-5.11-3.4 0-7.1 1-10.71 2.91-6.59 3.5-10.59 9.39-10.59 14.5 0 1.39.3 2.79 1 4.09 1.8 3.3 5.59 5 10.2 5 3.39 0 7.1-.89 10.7-2.8 6.6-3.5 10.6-9.4 10.6-14.5 0-1.4-.3-2.79-1-4.09M2482.34 1481.22c-1.79-3.31-5.59-5.11-10.2-5.11-3.39 0-7.09 1-10.7 2.91-6.6 3.5-10.6 9.39-10.6 14.5 0 1.39.3 2.79 1 4.09 1.8 3.3 5.6 5 10.21 5 3.39 0 7.09-.89 10.7-2.8 6.59-3.5 10.59-9.4 10.59-14.5 0-1.4-.29-2.79-1-4.09M2559.95 1456.22c-1.8-3.31-5.6-5.11-10.21-5.11-3.39 0-7.09 1-10.7 2.91-6.59 3.5-10.59 9.39-10.59 14.5 0 1.39.29 2.79 1 4.09 1.79 3.3 5.59 5 10.2 5 3.39 0 7.09-.89 10.7-2.8 6.6-3.5 10.6-9.4 10.6-14.5 0-1.4-.3-2.79-1-4.09M2656.95 1481.22c-1.79-3.31-5.59-5.11-10.2-5.11-3.39 0-7.09 1-10.7 2.91-6.6 3.5-10.6 9.39-10.6 14.5 0 1.39.3 2.79 1 4.09 1.8 3.3 5.6 5 10.21 5 3.39 0 7.09-.89 10.7-2.8 6.59-3.5 10.59-9.4 10.59-14.5 0-1.4-.29-2.79-1-4.09M2734.56 1518.72c-1.8-3.31-5.59-5.11-10.2-5.11-3.39 0-7.1 1-10.71 2.91-6.59 3.5-10.59 9.39-10.59 14.5 0 1.39.3 2.79 1 4.09 1.8 3.3 5.59 5 10.2 5 3.39 0 7.1-.89 10.71-2.8 6.59-3.5 10.59-9.4 10.59-14.5 0-1.4-.3-2.79-1-4.09M465.584 2306.22c-1.797-3.31-5.594-5.11-10.203-5.11-3.391 0-7.094 1-10.703 2.91-6.594 3.5-10.594 9.39-10.594 14.5 0 1.39.297 2.79 1 4.09 1.797 3.3 5.594 5 10.203 5 3.391 0 7.094-.89 10.703-2.8 6.594-3.5 10.594-9.4 10.594-14.5 0-1.4-.297-2.79-1-4.09M561.479 2256.22c-1.797-3.31-5.594-5.11-10.203-5.11-3.391 0-7.094 1-10.703 2.91-6.594 3.5-10.594 9.39-10.594 14.5 0 1.39.297 2.79 1 4.09 1.797 3.3 5.594 5 10.203 5 3.391 0 7.094-.89 10.703-2.8 6.594-3.5 10.594-9.4 10.594-14.5 0-1.4-.297-2.79-1-4.09M657.374 2218.72c-1.797-3.31-5.594-5.11-10.203-5.11-3.391 0-7.094 1-10.703 2.91-6.594 3.5-10.594 9.39-10.594 14.5 0 1.39.297 2.79 1 4.09 1.797 3.3 5.594 5 10.203 5 3.391 0 7.094-.89 10.703-2.8 6.594-3.5 10.594-9.4 10.594-14.5 0-1.4-.297-2.79-1-4.09M753.269 2193.72c-1.797-3.31-5.594-5.11-10.203-5.11-3.391 0-7.094 1-10.703 2.91-6.594 3.5-10.594 9.39-10.594 14.5 0 1.39.297 2.79 1 4.09 1.797 3.3 5.594 5 10.203 5 3.391 0 7.094-.89 10.703-2.8 6.594-3.5 10.594-9.4 10.594-14.5 0-1.4-.297-2.79-1-4.09M1044.29 2168.72c-1.8-3.31-5.59-5.11-10.2-5.11-3.39 0-7.1 1-10.71 2.91-6.59 3.5-10.59 9.39-10.59 14.5 0 1.39.3 2.79 1 4.09 1.8 3.3 5.59 5 10.2 5 3.39 0 7.1-.89 10.71-2.8 6.59-3.5 10.59-9.4 10.59-14.5 0-1.4-.3-2.79-1-4.09M1451 2306.22c-1.8-3.31-5.6-5.11-10.21-5.11-3.39 0-7.09 1-10.7 2.91-6.59 3.5-10.59 9.39-10.59 14.5 0 1.39.29 2.79 1 4.09 1.79 3.3 5.59 5 10.2 5 3.39 0 7.09-.89 10.7-2.8 6.6-3.5 10.6-9.4 10.6-14.5 0-1.4-.3-2.79-1-4.09M1534.56 2256.22c-1.8-3.31-5.6-5.11-10.21-5.11-3.39 0-7.09 1-10.7 2.91-6.59 3.5-10.59 9.39-10.59 14.5 0 1.39.29 2.79 1 4.09 1.79 3.3 5.59 5 10.2 5 3.39 0 7.09-.89 10.7-2.8 6.6-3.5 10.6-9.4 10.6-14.5 0-1.4-.3-2.79-1-4.09M1618.11 2218.72c-1.79-3.31-5.59-5.11-10.2-5.11-3.39 0-7.09 1-10.7 2.91-6.6 3.5-10.6 9.39-10.6 14.5 0 1.39.3 2.79 1 4.09 1.8 3.3 5.6 5 10.21 5 3.39 0 7.09-.89 10.7-2.8 6.59-3.5 10.59-9.4 10.59-14.5 0-1.4-.29-2.79-1-4.09M1701.67 2193.72c-1.79-3.31-5.59-5.11-10.2-5.11-3.39 0-7.09 1-10.7 2.91-6.6 3.5-10.6 9.39-10.6 14.5 0 1.39.3 2.79 1 4.09 1.8 3.3 5.6 5 10.21 5 3.39 0 7.09-.89 10.7-2.8 6.59-3.5 10.59-9.4 10.59-14.5 0-1.4-.29-2.79-1-4.09M1785.23 2218.72c-1.79-3.31-5.59-5.11-10.2-5.11-3.39 0-7.09 1-10.7 2.91-6.6 3.5-10.6 9.39-10.6 14.5 0 1.39.3 2.79 1 4.09 1.8 3.3 5.6 5 10.21 5 3.39 0 7.09-.89 10.7-2.8 6.59-3.5 10.59-9.4 10.59-14.5 0-1.4-.29-2.79-1-4.09M1868.79 2256.22c-1.8-3.31-5.59-5.11-10.2-5.11-3.39 0-7.1 1-10.71 2.91-6.59 3.5-10.59 9.39-10.59 14.5 0 1.39.3 2.79 1 4.09 1.8 3.3 5.59 5 10.2 5 3.39 0 7.1-.89 10.71-2.8 6.59-3.5 10.59-9.4 10.59-14.5 0-1.4-.3-2.79-1-4.09M1995.6 2306.22c-1.8-3.31-5.59-5.11-10.2-5.11-3.39 0-7.1 1-10.71 2.91-6.59 3.5-10.59 9.39-10.59 14.5 0 1.39.3 2.79 1 4.09 1.8 3.3 5.59 5 10.2 5 3.39 0 7.1-.89 10.71-2.8 6.59-3.5 10.59-9.4 10.59-14.5 0-1.4-.3-2.79-1-4.09M2079.16 2256.22c-1.8-3.31-5.59-5.11-10.2-5.11-3.39 0-7.1 1-10.71 2.91-6.59 3.5-10.59 9.39-10.59 14.5 0 1.39.3 2.79 1 4.09 1.8 3.3 5.59 5 10.2 5 3.39 0 7.1-.89 10.71-2.8 6.59-3.5 10.59-9.4 10.59-14.5 0-1.4-.3-2.79-1-4.09M2162.72 2218.72c-1.8-3.31-5.6-5.11-10.21-5.11-3.39 0-7.09 1-10.7 2.91-6.59 3.5-10.59 9.39-10.59 14.5 0 1.39.29 2.79 1 4.09 1.79 3.3 5.59 5 10.2 5 3.39 0 7.09-.89 10.7-2.8 6.6-3.5 10.6-9.4 10.6-14.5 0-1.4-.3-2.79-1-4.09M2246.28 2193.72c-1.8-3.31-5.6-5.11-10.21-5.11-3.39 0-7.09 1-10.7 2.91-6.59 3.5-10.59 9.39-10.59 14.5 0 1.39.29 2.79 1 4.09 1.79 3.3 5.59 5 10.2 5 3.39 0 7.09-.89 10.7-2.8 6.6-3.5 10.6-9.4 10.6-14.5 0-1.4-.3-2.79-1-4.09M2329.84 2218.72c-1.8-3.31-5.6-5.11-10.21-5.11-3.39 0-7.09 1-10.7 2.91-6.59 3.5-10.59 9.39-10.59 14.5 0 1.39.29 2.79 1 4.09 1.79 3.3 5.59 5 10.2 5 3.39 0 7.09-.89 10.7-2.8 6.6-3.5 10.6-9.4 10.6-14.5 0-1.4-.3-2.79-1-4.09M2413.39 2256.22c-1.79-3.31-5.59-5.11-10.2-5.11-3.39 0-7.09 1-10.7 2.91-6.6 3.5-10.6 9.39-10.6 14.5 0 1.39.3 2.79 1 4.09 1.8 3.3 5.6 5 10.21 5 3.39 0 7.09-.89 10.7-2.8 6.59-3.5 10.59-9.4 10.59-14.5 0-1.4-.29-2.79-1-4.09M2540.2 2306.17c-1.79-3.29-5.59-5.09-10.2-5.09-3.39 0-7.09 1-10.7 2.89-6.6 3.5-10.6 9.41-10.6 14.5 0 1.41.3 2.81 1 4.11 1.8 3.31 5.6 5.02 10.21 5.02 3.39 0 7.09-.91 10.7-2.8 6.59-3.52 10.59-9.42 10.59-14.53 0-1.39-.29-2.8-1-4.1m-4.29 6.8c-1.71 1.7-5.11 3.8-8.71 5.81-3.59 2-7.2 3.5-9.59 4-.5.11-1 .21-1.5.21-1.61 0-2.81-.6-3.5-1.91-.31-.5-.5-1.09-.5-1.7 0-1.1.69-2.41 1.8-3.5 1.7-1.71 5-3.8 8.59-5.8 3.61-2 7.2-3.5 9.61-4 .5-.11 1-.2 1.5-.2 1.59 0 2.89.59 3.59 1.89.3.5.41 1.11.41 1.7 0 1.11-.61 2.3-1.7 3.5M2540.2 2256.17c-1.79-3.29-5.59-5.09-10.2-5.09-3.39 0-7.09 1-10.7 2.89-6.6 3.5-10.6 9.41-10.6 14.5 0 1.41.3 2.81 1 4.11 1.8 3.31 5.6 5.02 10.21 5.02 3.39 0 7.09-.91 10.7-2.8 6.59-3.52 10.59-9.42 10.59-14.53 0-1.39-.29-2.8-1-4.1m-4.29 6.8c-1.71 1.7-5.11 3.8-8.71 5.81-3.59 2-7.2 3.5-9.59 4-.5.11-1 .21-1.5.21-1.61 0-2.81-.6-3.5-1.91-.31-.5-.5-1.09-.5-1.7 0-1.1.69-2.41 1.8-3.5 1.7-1.71 5-3.8 8.59-5.8 3.61-2 7.2-3.5 9.61-4 .5-.11 1-.2 1.5-.2 1.59 0 2.89.59 3.59 1.89.3.5.41 1.11.41 1.7 0 1.11-.61 2.3-1.7 3.5M2540.2 2218.67c-1.79-3.29-5.59-5.09-10.2-5.09-3.39 0-7.09 1-10.7 2.89-6.6 3.5-10.6 9.41-10.6 14.5 0 1.41.3 2.81 1 4.11 1.8 3.31 5.6 5.02 10.21 5.02 3.39 0 7.09-.91 10.7-2.8 6.59-3.52 10.59-9.42 10.59-14.53 0-1.39-.29-2.8-1-4.1m-4.29 6.8c-1.71 1.7-5.11 3.8-8.71 5.81-3.59 2-7.2 3.5-9.59 4-.5.11-1 .21-1.5.21-1.61 0-2.81-.6-3.5-1.91-.31-.5-.5-1.09-.5-1.7 0-1.1.69-2.41 1.8-3.5 1.7-1.71 5-3.8 8.59-5.8 3.61-2 7.2-3.5 9.61-4 .5-.11 1-.2 1.5-.2 1.59 0 2.89.59 3.59 1.89.3.5.41 1.11.41 1.7 0 1.11-.61 2.3-1.7 3.5M415.279 333.639c-1.797-3.313-5.593-5.11-10.203-5.11-3.39 0-7.094 1-10.703 2.907-6.594 3.5-10.594 9.39-10.594 14.5 0 1.39.297 2.796 1 4.093 1.797 3.297 5.594 5 10.203 5 3.391 0 7.094-.89 10.704-2.797 6.593-3.5 10.593-9.406 10.593-14.5 0-1.406-.297-2.796-1-4.093M506.279 333.639c-1.796-3.313-5.593-5.11-10.203-5.11-3.39 0-7.093 1-10.703 2.907-6.594 3.5-10.594 9.39-10.594 14.5 0 1.39.297 2.796 1 4.093 1.797 3.297 5.594 5 10.204 5 3.39 0 7.093-.89 10.703-2.797 6.593-3.5 10.593-9.406 10.593-14.5 0-1.406-.296-2.796-1-4.093M585.615 333.592c-1.797-3.297-5.593-5.094-10.203-5.094-3.39 0-7.094 1-10.703 2.891-6.594 3.5-10.594 9.406-10.594 14.5 0 1.406.297 2.812 1 4.109 1.797 3.313 5.594 5.016 10.203 5.016 3.391 0 7.094-.907 10.704-2.797 6.593-3.516 10.593-9.422 10.593-14.531 0-1.391-.297-2.797-1-4.094m-4.297 6.797c-1.703 1.703-5.109 3.797-8.703 5.812-3.593 2-7.203 3.5-9.593 4-.5.11-1 .203-1.5.203-1.61 0-2.813-.593-3.5-1.906-.313-.5-.5-1.094-.5-1.703 0-1.094.687-2.406 1.796-3.5 1.704-1.703 5-3.797 8.594-5.797 3.61-2 7.203-3.5 9.61-4 .5-.109 1-.203 1.5-.203 1.593 0 2.89.594 3.593 1.891.297.5.407 1.109.407 1.703 0 1.109-.61 2.297-1.704 3.5M1097.79 358.639c-1.8-3.313-5.6-5.11-10.21-5.11-3.39 0-7.09 1-10.7 2.907-6.59 3.5-10.59 9.39-10.59 14.5 0 1.39.29 2.797 1 4.093 1.79 3.297 5.59 5 10.2 5 3.39 0 7.09-.89 10.7-2.796 6.6-3.5 10.6-9.407 10.6-14.5 0-1.407-.3-2.797-1-4.094M1097.79 296.139c-1.8-3.313-5.6-5.11-10.21-5.11-3.39 0-7.09 1-10.7 2.907-6.59 3.5-10.59 9.39-10.59 14.5 0 1.39.29 2.796 1 4.093 1.79 3.297 5.59 5 10.2 5 3.39 0 7.09-.89 10.7-2.797 6.6-3.5 10.6-9.406 10.6-14.5 0-1.406-.3-2.796-1-4.093M1182.05 358.639c-1.79-3.313-5.59-5.11-10.2-5.11-3.39 0-7.09 1-10.7 2.907-6.6 3.5-10.6 9.39-10.6 14.5 0 1.39.3 2.797 1 4.093 1.8 3.297 5.6 5 10.21 5 3.39 0 7.09-.89 10.7-2.796 6.59-3.5 10.59-9.407 10.59-14.5 0-1.407-.29-2.797-1-4.094M1182.05 308.639c-1.79-3.313-5.59-5.11-10.2-5.11-3.39 0-7.09 1-10.7 2.907-6.6 3.5-10.6 9.39-10.6 14.5 0 1.39.3 2.796 1 4.093 1.8 3.297 5.6 5 10.21 5 3.39 0 7.09-.89 10.7-2.797 6.59-3.5 10.59-9.406 10.59-14.5 0-1.406-.29-2.796-1-4.093M1290.93 358.639c-1.8-3.313-5.6-5.11-10.21-5.11-3.39 0-7.09 1-10.7 2.907-6.59 3.5-10.59 9.39-10.59 14.5 0 1.39.29 2.797 1 4.093 1.79 3.297 5.59 5 10.2 5 3.39 0 7.09-.89 10.7-2.796 6.6-3.5 10.6-9.407 10.6-14.5 0-1.407-.3-2.797-1-4.094M1290.93 308.639c-1.8-3.313-5.6-5.11-10.21-5.11-3.39 0-7.09 1-10.7 2.907-6.59 3.5-10.59 9.39-10.59 14.5 0 1.39.29 2.796 1 4.093 1.79 3.297 5.59 5 10.2 5 3.39 0 7.09-.89 10.7-2.797 6.6-3.5 10.6-9.406 10.6-14.5 0-1.406-.3-2.796-1-4.093M1409.43 358.639c-1.8-3.313-5.6-5.11-10.21-5.11-3.39 0-7.09 1-10.7 2.907-6.59 3.5-10.59 9.39-10.59 14.5 0 1.39.29 2.797 1 4.093 1.79 3.297 5.59 5 10.2 5 3.39 0 7.09-.89 10.7-2.796 6.6-3.5 10.6-9.407 10.6-14.5 0-1.407-.3-2.797-1-4.094M1409.43 296.139c-1.8-3.313-5.6-5.11-10.21-5.11-3.39 0-7.09 1-10.7 2.907-6.59 3.5-10.59 9.39-10.59 14.5 0 1.39.29 2.796 1 4.093 1.79 3.297 5.59 5 10.2 5 3.39 0 7.09-.89 10.7-2.797 6.6-3.5 10.6-9.406 10.6-14.5 0-1.406-.3-2.796-1-4.093M1593.55 358.639c-1.79-3.313-5.59-5.11-10.2-5.11-3.39 0-7.09 1-10.7 2.907-6.6 3.5-10.6 9.39-10.6 14.5 0 1.39.3 2.797 1 4.093 1.8 3.297 5.6 5 10.21 5 3.39 0 7.09-.89 10.7-2.796 6.59-3.5 10.59-9.407 10.59-14.5 0-1.407-.29-2.797-1-4.094M1593.55 308.639c-1.79-3.313-5.59-5.11-10.2-5.11-3.39 0-7.09 1-10.7 2.907-6.6 3.5-10.6 9.39-10.6 14.5 0 1.39.3 2.796 1 4.093 1.8 3.297 5.6 5 10.21 5 3.39 0 7.09-.89 10.7-2.797 6.59-3.5 10.59-9.406 10.59-14.5 0-1.406-.29-2.796-1-4.093M1702.9 358.592c-1.8-3.297-5.6-5.094-10.21-5.094-3.39 0-7.09 1-10.7 2.891-6.59 3.5-10.59 9.406-10.59 14.5 0 1.406.29 2.812 1 4.109 1.79 3.313 5.59 5.016 10.2 5.016 3.39 0 7.09-.906 10.7-2.797 6.6-3.516 10.6-9.422 10.6-14.531 0-1.391-.3-2.797-1-4.094m-4.3 6.797c-1.7 1.703-5.11 3.797-8.7 5.812-3.6 2-7.21 3.5-9.6 4-.5.11-1 .203-1.5.203-1.61 0-2.81-.593-3.5-1.906-.31-.5-.5-1.094-.5-1.703 0-1.094.69-2.406 1.8-3.5 1.7-1.703 5-3.797 8.59-5.797 3.61-2 7.21-3.5 9.61-4 .5-.109 1-.203 1.5-.203 1.6 0 2.89.594 3.6 1.891.29.5.4 1.109.4 1.703 0 1.109-.61 2.297-1.7 3.5M1702.9 321.092c-1.8-3.297-5.6-5.094-10.21-5.094-3.39 0-7.09 1-10.7 2.891-6.59 3.5-10.59 9.406-10.59 14.5 0 1.406.29 2.812 1 4.109 1.79 3.313 5.59 5.016 10.2 5.016 3.39 0 7.09-.907 10.7-2.797 6.6-3.516 10.6-9.422 10.6-14.531 0-1.391-.3-2.797-1-4.094m-4.3 6.797c-1.7 1.703-5.11 3.797-8.7 5.812-3.6 2-7.21 3.5-9.6 4-.5.11-1 .203-1.5.203-1.61 0-2.81-.593-3.5-1.906-.31-.5-.5-1.094-.5-1.703 0-1.094.69-2.406 1.8-3.5 1.7-1.703 5-3.797 8.59-5.797 3.61-2 7.21-3.5 9.61-4 .5-.109 1-.203 1.5-.203 1.6 0 2.89.594 3.6 1.891.29.5.4 1.109.4 1.703 0 1.109-.61 2.297-1.7 3.5M2361.84 358.639c-1.8-3.313-5.59-5.11-10.2-5.11-3.39 0-7.1 1-10.71 2.907-6.59 3.5-10.59 9.39-10.59 14.5 0 1.39.3 2.797 1 4.093 1.8 3.297 5.59 5 10.2 5 3.39 0 7.1-.89 10.71-2.796 6.59-3.5 10.59-9.407 10.59-14.5 0-1.407-.3-2.797-1-4.094M2462.58 358.639c-1.79-3.313-5.59-5.11-10.2-5.11-3.39 0-7.09 1-10.7 2.907-6.6 3.5-10.6 9.39-10.6 14.5 0 1.39.3 2.797 1 4.093 1.8 3.297 5.6 5 10.21 5 3.39 0 7.09-.89 10.7-2.796 6.59-3.5 10.59-9.407 10.59-14.5 0-1.407-.29-2.797-1-4.094M2623.54 358.639c-1.8-3.313-5.6-5.11-10.21-5.11-3.39 0-7.09 1-10.7 2.907-6.59 3.5-10.59 9.39-10.59 14.5 0 1.39.29 2.797 1 4.093 1.79 3.297 5.59 5 10.2 5 3.39 0 7.09-.89 10.7-2.796 6.6-3.5 10.6-9.407 10.6-14.5 0-1.407-.3-2.797-1-4.094M2662.28 408.639c-1.8-3.313-5.6-5.11-10.21-5.11-3.39 0-7.09 1-10.7 2.907-6.59 3.5-10.59 9.39-10.59 14.5 0 1.39.29 2.797 1 4.093 1.79 3.297 5.59 5 10.2 5 3.39 0 7.09-.89 10.7-2.796 6.6-3.5 10.6-9.407 10.6-14.5 0-1.407-.3-2.797-1-4.094M2701.02 408.639c-1.8-3.313-5.59-5.11-10.2-5.11-3.39 0-7.1 1-10.71 2.907-6.59 3.5-10.59 9.39-10.59 14.5 0 1.39.3 2.797 1 4.093 1.8 3.297 5.59 5 10.2 5 3.39 0 7.1-.89 10.71-2.796 6.59-3.5 10.59-9.407 10.59-14.5 0-1.407-.3-2.797-1-4.094M465.584 1281.22c-1.797-3.31-5.594-5.11-10.203-5.11-3.391 0-7.094 1-10.703 2.91-6.594 3.5-10.594 9.39-10.594 14.5 0 1.39.297 2.79 1 4.09 1.797 3.3 5.594 5 10.203 5 3.391 0 7.094-.89 10.703-2.8 6.594-3.5 10.594-9.4 10.594-14.5 0-1.4-.297-2.79-1-4.09M635.237 1231.22c-1.797-3.31-5.594-5.11-10.203-5.11-3.391 0-7.094 1-10.703 2.91-6.594 3.5-10.594 9.39-10.594 14.5 0 1.39.297 2.79 1 4.09 1.797 3.3 5.594 5 10.203 5 3.391 0 7.094-.89 10.703-2.8 6.594-3.5 10.594-9.4 10.594-14.5 0-1.4-.297-2.79-1-4.09M720.063 1218.72c-1.797-3.31-5.593-5.11-10.203-5.11-3.39 0-7.094 1-10.703 2.91-6.594 3.5-10.594 9.39-10.594 14.5 0 1.39.297 2.79 1 4.09 1.797 3.3 5.594 5 10.203 5 3.391 0 7.094-.89 10.704-2.8 6.593-3.5 10.593-9.4 10.593-14.5 0-1.4-.297-2.79-1-4.09M804.89 1231.22c-1.797-3.31-5.594-5.11-10.203-5.11-3.391 0-7.094 1-10.704 2.91-6.593 3.5-10.593 9.39-10.593 14.5 0 1.39.297 2.79 1 4.09 1.797 3.3 5.593 5 10.203 5 3.39 0 7.094-.89 10.703-2.8 6.594-3.5 10.594-9.4 10.594-14.5 0-1.4-.297-2.79-1-4.09M904.121 1243.72c-1.797-3.31-5.594-5.11-10.203-5.11-3.391 0-7.094 1-10.703 2.91-6.594 3.5-10.594 9.39-10.594 14.5 0 1.39.297 2.79 1 4.09 1.797 3.3 5.594 5 10.203 5 3.391 0 7.094-.89 10.703-2.8 6.594-3.5 10.594-9.4 10.594-14.5 0-1.4-.297-2.79-1-4.09M838.557 1221.144c-1.258-2.318-3.916-3.576-7.142-3.576-2.374 0-4.966.7-7.492 2.034-4.616 2.45-7.416 6.574-7.416 10.15 0 .974.208 1.958.7 2.866 1.258 2.308 3.916 3.5 7.142 3.5 2.374 0 4.966-.624 7.492-1.958 4.616-2.45 7.416-6.584 7.416-10.15 0-.984-.208-1.958-.7-2.866M865.677 1233.644c-1.258-2.318-3.916-3.576-7.142-3.576-2.374 0-4.966.7-7.492 2.034-4.616 2.45-7.416 6.574-7.416 10.15 0 .974.208 1.958.7 2.866 1.258 2.308 3.916 3.5 7.142 3.5 2.374 0 4.966-.624 7.492-1.958 4.616-2.45 7.416-6.584 7.416-10.15 0-.984-.208-1.958-.7-2.866M988.947 1231.22c-1.796-3.31-5.593-5.11-10.203-5.11-3.39 0-7.093 1-10.703 2.91-6.594 3.5-10.594 9.39-10.594 14.5 0 1.39.297 2.79 1 4.09 1.797 3.3 5.594 5 10.204 5 3.39 0 7.093-.89 10.703-2.8 6.593-3.5 10.593-9.4 10.593-14.5 0-1.4-.296-2.79-1-4.09M1073.77 1243.72c-1.79-3.31-5.59-5.11-10.2-5.11-3.39 0-7.09 1-10.7 2.91-6.6 3.5-10.6 9.39-10.6 14.5 0 1.39.3 2.79 1 4.09 1.8 3.3 5.6 5 10.21 5 3.39 0 7.09-.89 10.7-2.8 6.59-3.5 10.59-9.4 10.59-14.5 0-1.4-.29-2.79-1-4.09M1126.79 1256.22c-1.8-3.31-5.59-5.11-10.2-5.11-3.39 0-7.1 1-10.71 2.91-6.59 3.5-10.59 9.39-10.59 14.5 0 1.39.3 2.79 1 4.09 1.8 3.3 5.59 5 10.2 5 3.39 0 7.1-.89 10.71-2.8 6.59-3.5 10.59-9.4 10.59-14.5 0-1.4-.3-2.79-1-4.09M1179.81 1281.22c-1.8-3.31-5.6-5.11-10.21-5.11-3.39 0-7.09 1-10.7 2.91-6.59 3.5-10.59 9.39-10.59 14.5 0 1.39.29 2.79 1 4.09 1.79 3.3 5.59 5 10.2 5 3.39 0 7.09-.89 10.7-2.8 6.6-3.5 10.6-9.4 10.6-14.5 0-1.4-.3-2.79-1-4.09M1359.68 1281.17c-1.8-3.29-5.59-5.09-10.2-5.09-3.39 0-7.1 1-10.71 2.89-6.59 3.5-10.59 9.41-10.59 14.5 0 1.41.3 2.81 1 4.11 1.8 3.31 5.59 5.02 10.2 5.02 3.39 0 7.1-.91 10.71-2.8 6.59-3.52 10.59-9.42 10.59-14.53 0-1.39-.3-2.8-1-4.1m-4.3 6.8c-1.7 1.7-5.11 3.8-8.7 5.81-3.59 2-7.2 3.5-9.59 4-.5.11-1 .21-1.5.21-1.61 0-2.82-.6-3.5-1.91-.32-.5-.5-1.09-.5-1.7 0-1.1.68-2.41 1.79-3.5 1.71-1.71 5-3.8 8.6-5.8 3.61-2 7.2-3.5 9.61-4 .5-.11 1-.2 1.5-.2 1.59 0 2.89.59 3.59 1.89.3.5.41 1.11.41 1.7 0 1.11-.61 2.3-1.71 3.5M2210.47 1231.22c-1.8-3.31-5.59-5.11-10.2-5.11-3.39 0-7.1 1-10.71 2.91-6.59 3.5-10.59 9.39-10.59 14.5 0 1.39.3 2.79 1 4.09 1.8 3.3 5.59 5 10.2 5 3.39 0 7.1-.89 10.71-2.8 6.59-3.5 10.59-9.4 10.59-14.5 0-1.4-.3-2.79-1-4.09M2327.13 1231.22c-1.79-3.31-5.59-5.11-10.2-5.11-3.39 0-7.09 1-10.7 2.91-6.6 3.5-10.6 9.39-10.6 14.5 0 1.39.3 2.79 1 4.09 1.8 3.3 5.6 5 10.21 5 3.39 0 7.09-.89 10.7-2.8 6.59-3.5 10.59-9.4 10.59-14.5 0-1.4-.29-2.79-1-4.09M2559.95 1231.22c-1.8-3.31-5.6-5.11-10.21-5.11-3.39 0-7.09 1-10.7 2.91-6.59 3.5-10.59 9.39-10.59 14.5 0 1.39.29 2.79 1 4.09 1.79 3.3 5.59 5 10.2 5 3.39 0 7.09-.89 10.7-2.8 6.6-3.5 10.6-9.4 10.6-14.5 0-1.4-.3-2.79-1-4.09M2608.45 1281.22c-1.8-3.31-5.59-5.11-10.2-5.11-3.39 0-7.1 1-10.71 2.91-6.59 3.5-10.59 9.39-10.59 14.5 0 1.39.3 2.79 1 4.09 1.8 3.3 5.59 5 10.2 5 3.39 0 7.1-.89 10.71-2.8 6.59-3.5 10.59-9.4 10.59-14.5 0-1.4-.3-2.79-1-4.09M2656.95 1281.22c-1.79-3.31-5.59-5.11-10.2-5.11-3.39 0-7.09 1-10.7 2.91-6.6 3.5-10.6 9.39-10.6 14.5 0 1.39.3 2.79 1 4.09 1.8 3.3 5.6 5 10.21 5 3.39 0 7.09-.89 10.7-2.8 6.59-3.5 10.59-9.4 10.59-14.5 0-1.4-.29-2.79-1-4.09M465.584 2018.72c-1.797-3.31-5.594-5.11-10.203-5.11-3.391 0-7.094 1-10.703 2.91-6.594 3.5-10.594 9.39-10.594 14.5 0 1.39.297 2.79 1 4.09 1.797 3.3 5.594 5 10.203 5 3.391 0 7.094-.89 10.703-2.8 6.594-3.5 10.594-9.4 10.594-14.5 0-1.4-.297-2.79-1-4.09M657.374 1968.72c-1.797-3.31-5.594-5.11-10.203-5.11-3.391 0-7.094 1-10.703 2.91-6.594 3.5-10.594 9.39-10.594 14.5 0 1.39.297 2.79 1 4.09 1.797 3.3 5.594 5 10.203 5 3.391 0 7.094-.89 10.703-2.8 6.594-3.5 10.594-9.4 10.594-14.5 0-1.4-.297-2.79-1-4.09M753.269 1956.22c-1.797-3.31-5.594-5.11-10.203-5.11-3.391 0-7.094 1-10.703 2.91-6.594 3.5-10.594 9.39-10.594 14.5 0 1.39.297 2.79 1 4.09 1.797 3.3 5.594 5 10.203 5 3.391 0 7.094-.89 10.703-2.8 6.594-3.5 10.594-9.4 10.594-14.5 0-1.4-.297-2.79-1-4.09M849.164 1968.72c-1.797-3.31-5.594-5.11-10.203-5.11-3.391 0-7.094 1-10.703 2.91-6.594 3.5-10.594 9.39-10.594 14.5 0 1.39.297 2.79 1 4.09 1.797 3.3 5.594 5 10.203 5 3.391 0 7.094-.89 10.703-2.8 6.594-3.5 10.594-9.4 10.594-14.5 0-1.4-.297-2.79-1-4.09M948.395 1981.22c-1.796-3.31-5.593-5.11-10.203-5.11-3.39 0-7.093 1-10.703 2.91-6.594 3.5-10.594 9.39-10.594 14.5 0 1.39.297 2.79 1 4.09 1.797 3.3 5.594 5 10.204 5 3.39 0 7.093-.89 10.703-2.8 6.593-3.5 10.593-9.4 10.593-14.5 0-1.4-.296-2.79-1-4.09M882.831 1958.644c-1.258-2.318-3.916-3.576-7.142-3.576-2.374 0-4.966.7-7.492 2.034-4.616 2.45-7.416 6.574-7.416 10.15 0 .974.208 1.958.7 2.866 1.258 2.308 3.916 3.5 7.142 3.5 2.374 0 4.966-.624 7.492-1.958 4.616-2.45 7.416-6.584 7.416-10.15 0-.984-.208-1.958-.7-2.866M909.951 1971.144c-1.258-2.318-3.916-3.576-7.142-3.576-2.374 0-4.966.7-7.492 2.034-4.616 2.45-7.416 6.574-7.416 10.15 0 .974.208 1.958.7 2.866 1.258 2.308 3.916 3.5 7.142 3.5 2.374 0 4.966-.624 7.492-1.958 4.616-2.45 7.416-6.584 7.416-10.15 0-.984-.208-1.958-.7-2.866M1044.29 1968.72c-1.8-3.31-5.59-5.11-10.2-5.11-3.39 0-7.1 1-10.71 2.91-6.59 3.5-10.59 9.39-10.59 14.5 0 1.39.3 2.79 1 4.09 1.8 3.3 5.59 5 10.2 5 3.39 0 7.1-.89 10.71-2.8 6.59-3.5 10.59-9.4 10.59-14.5 0-1.4-.3-2.79-1-4.09M1140.19 1981.22c-1.8-3.31-5.6-5.11-10.21-5.11-3.39 0-7.09 1-10.7 2.91-6.59 3.5-10.59 9.39-10.59 14.5 0 1.39.29 2.79 1 4.09 1.79 3.3 5.59 5 10.2 5 3.39 0 7.09-.89 10.7-2.8 6.6-3.5 10.6-9.4 10.6-14.5 0-1.4-.3-2.79-1-4.09M1200.12 1993.72c-1.8-3.31-5.59-5.11-10.2-5.11-3.39 0-7.1 1-10.71 2.91-6.59 3.5-10.59 9.39-10.59 14.5 0 1.39.3 2.79 1 4.09 1.8 3.3 5.59 5 10.2 5 3.39 0 7.1-.89 10.71-2.8 6.59-3.5 10.59-9.4 10.59-14.5 0-1.4-.3-2.79-1-4.09M1260.05 2018.72c-1.79-3.31-5.59-5.11-10.2-5.11-3.39 0-7.09 1-10.7 2.91-6.6 3.5-10.6 9.39-10.6 14.5 0 1.39.3 2.79 1 4.09 1.8 3.3 5.6 5 10.21 5 3.39 0 7.09-.89 10.7-2.8 6.59-3.5 10.59-9.4 10.59-14.5 0-1.4-.29-2.79-1-4.09M1451 2018.72c-1.8-3.31-5.6-5.11-10.21-5.11-3.39 0-7.09 1-10.7 2.91-6.59 3.5-10.59 9.39-10.59 14.5 0 1.39.29 2.79 1 4.09 1.79 3.3 5.59 5 10.2 5 3.39 0 7.09-.89 10.7-2.8 6.6-3.5 10.6-9.4 10.6-14.5 0-1.4-.3-2.79-1-4.09M1701.67 2018.72c-1.79-3.31-5.59-5.11-10.2-5.11-3.39 0-7.09 1-10.7 2.91-6.6 3.5-10.6 9.39-10.6 14.5 0 1.39.3 2.79 1 4.09 1.8 3.3 5.6 5 10.21 5 3.39 0 7.09-.89 10.7-2.8 6.59-3.5 10.59-9.4 10.59-14.5 0-1.4-.29-2.79-1-4.09"/><path class="Clef" d="M222.139 714.22c-7.61 0-13.704 4.39-13.813 4.39-5.797 4.297-8.094 9.407-9 12.907-.5 1.797-.687 3.593-.687 5.297 0 2.406.39 4.593 1.296 6.5 1.204 2.703 3.5 4.593 6.5 5.593 1.204.407 2.5.61 3.797.61 2.203 0 4.5-.61 6.407-1.703 3.093-1.704 5-5.297 5-9.204 0-3.5-1.813-6.703-4.813-8.593-2.094-1.407-4.094-1.797-5.797-1.797-1.203 0-2.297.187-3.203.5-1 .39-2.687 1.39-3.5 2.094.313-1.907 1.5-4.797 2.609-6.407 1.094-1.593 3.297-3.593 5-4.5 2.5-1.39 5.704-2 9.204-2 10.203 0 15.203 8.203 15.203 25 0 9.313-3.5 18.203-6.5 24.11-3.313 6.593-7.703 12.906-11.61 16.406-10.406 9.5-20.203 14-20.297 14 0 0-1.5.891-1.109 2.391.313 1 1.203 1.203 1.813 1.203.093 0 .39-.094.5-.094.093 0 11.5-4.703 20.593-11.813 5.11-3.687 9.703-7.687 13.703-12a74.119 74.119 0 009.204-12.296c4.39-7.5 6.89-15.297 6.89-22 0-8.297-2.187-15.204-6.297-20.094-4.703-5.61-11.797-8.5-21.093-8.5m31.39 12.687c0 2.813 2.203 5 4.813 5 2.593 0 4.797-2.187 4.797-5 0-2.797-2.204-5.093-4.797-5.093-2.61 0-4.813 2.296-4.813 5.093m0 24.703c0 2.797 2.203 5.11 4.813 5.11 2.593 0 4.797-2.313 4.797-5.11 0-2.796-2.204-5.093-4.797-5.093-2.61 0-4.813 2.297-4.813 5.093M222.139 1451.72c-7.61 0-13.704 4.39-13.813 4.39-5.797 4.3-8.094 9.41-9 12.91-.5 1.79-.687 3.59-.687 5.29 0 2.41.39 4.6 1.296 6.5 1.204 2.71 3.5 4.6 6.5 5.6 1.204.4 2.5.61 3.797.61 2.203 0 4.5-.61 6.407-1.71 3.093-1.7 5-5.29 5-9.2 0-3.5-1.813-6.7-4.813-8.59-2.094-1.41-4.094-1.8-5.797-1.8-1.203 0-2.297.19-3.203.5-1 .39-2.687 1.39-3.5 2.09.313-1.9 1.5-4.79 2.609-6.4 1.094-1.6 3.297-3.6 5-4.5 2.5-1.39 5.704-2 9.204-2 10.203 0 15.203 8.2 15.203 25 0 9.31-3.5 18.2-6.5 24.11-3.313 6.59-7.703 12.9-11.61 16.4-10.406 9.5-20.203 14-20.297 14 0 0-1.5.89-1.109 2.39.313 1 1.203 1.21 1.813 1.21.093 0 .39-.1.5-.1.093 0 11.5-4.7 20.593-11.81 5.11-3.69 9.703-7.69 13.703-12 3.594-3.89 6.704-8.09 9.204-12.3 4.39-7.5 6.89-15.29 6.89-22 0-8.29-2.187-15.2-6.297-20.09-4.703-5.61-11.797-8.5-21.093-8.5m31.39 12.69c0 2.81 2.203 5 4.813 5 2.593 0 4.797-2.19 4.797-5 0-2.8-2.204-5.1-4.797-5.1-2.61 0-4.813 2.3-4.813 5.1m0 24.7c0 2.8 2.203 5.11 4.813 5.11 2.593 0 4.797-2.31 4.797-5.11 0-2.8-2.204-5.09-4.797-5.09-2.61 0-4.813 2.29-4.813 5.09M222.139 2189.22c-7.61 0-13.704 4.39-13.813 4.39-5.797 4.3-8.094 9.41-9 12.91-.5 1.79-.687 3.59-.687 5.29 0 2.41.39 4.6 1.296 6.5 1.204 2.71 3.5 4.6 6.5 5.6 1.204.4 2.5.61 3.797.61 2.203 0 4.5-.61 6.407-1.71 3.093-1.7 5-5.29 5-9.2 0-3.5-1.813-6.7-4.813-8.59-2.094-1.41-4.094-1.8-5.797-1.8-1.203 0-2.297.19-3.203.5-1 .39-2.687 1.39-3.5 2.09.313-1.9 1.5-4.79 2.609-6.4 1.094-1.6 3.297-3.6 5-4.5 2.5-1.39 5.704-2 9.204-2 10.203 0 15.203 8.2 15.203 25 0 9.31-3.5 18.2-6.5 24.11-3.313 6.59-7.703 12.9-11.61 16.4-10.406 9.5-20.203 14-20.297 14 0 0-1.5.89-1.109 2.39.313 1 1.203 1.21 1.813 1.21.093 0 .39-.1.5-.1.093 0 11.5-4.7 20.593-11.81 5.11-3.69 9.703-7.69 13.703-12 3.594-3.89 6.704-8.09 9.204-12.3 4.39-7.5 6.89-15.29 6.89-22 0-8.29-2.187-15.2-6.297-20.09-4.703-5.61-11.797-8.5-21.093-8.5m31.39 12.69c0 2.81 2.203 5 4.813 5 2.593 0 4.797-2.19 4.797-5 0-2.8-2.204-5.1-4.797-5.1-2.61 0-4.813 2.3-4.813 5.1m0 24.7c0 2.8 2.203 5.11 4.813 5.11 2.593 0 4.797-2.31 4.797-5.11 0-2.8-2.204-5.09-4.797-5.09-2.61 0-4.813 2.29-4.813 5.09M260.092 385.811c-1.235-5.422-3.875-9.25-4.657-10.282-3.187-4.281-7.203-7.125-11.89-8.484-3.11-.875-6.11-1-8.531-.812a2371.362 2371.362 0 01-2.954-17.344c5.454-6.172 9.079-11.969 11.36-16.266 3.469-6.578 4.609-11.156 4.672-11.359 1.718-5.219 2.078-12.922.968-21.125-1-7.547-3.093-14.266-5.453-17.516-1.015-1.422-2.078-2.156-3.109-2.156-1.219 0-3.734 1.234-6.625 4.016-2.297 2.187-5.563 6.078-8.125 12.093-3 7.063-3.219 16.547-2.859 23.266.375 7.281 1.484 12.969 1.5 13.016.015.093.281 1.593.718 4.156-.218.234-.468.453-.718.703-1.032 1-2.219 2.125-3.61 3.516-.859.859-1.812 1.765-2.812 2.734-8.438 8.141-21.235 20.469-21.235 39.625 0 4.703.907 9.125 2.688 13.141 1.578 3.593 3.875 6.875 6.812 9.75 7.735 7.562 18.328 10.765 25.375 10.609 2.953-.078 5.594-.313 7.985-.766 1.828 9.61 2.968 16.641 3 21.985.047 6.515-1.61 10.5-5.5 13.265-2.438 1.735-5.25 2.688-8.344 2.828-2.594.125-4.859-.343-6.281-.75h-.016s-.281-.093-.297-.281c-.015-.187.344-.234.344-.234h.031c1.922-.438 5.485-1.672 7.844-4.969 1.797-2.531 2.672-7.156.828-11.094-1.109-2.39-3.609-5.343-9.234-5.797-2.5-.203-4.766.313-6.766 1.516-1.812 1.078-3.312 2.719-4.359 4.719-2.453 4.703-2 10.437 1.125 14.281 2.968 3.625 7.578 5.938 13.015 6.516.86.093 1.703.125 2.547.125 4.438 0 8.828-1.203 12.406-3.407 3.657-2.578 5.782-6.562 6.454-12.187.562-4.641.171-10.563-1.219-18.641-.36-2.093-.906-5.125-1.563-8.875 5.75-1.922 9.907-5.5 13.672-11.359 3.297-5.734 4.235-11.844 2.813-18.156m-34.219 26.218c-4.641-1.218-9.078-3.718-12.828-7.234-1.313-1.219-3.188-3.391-4.656-6.781-1.36-3.172-2.032-6.61-1.969-10.188.062-4.703 1.375-9.531 3.875-14.312 2.922-5.578 7.484-11.11 13.547-16.438a89.8 89.8 0 004.109-3.843c.766 4.265 1.594 8.953 2.469 13.828-3.844 1.265-8.594 4.422-11.703 10.078-3.547 6.562-3.407 12.094-2.672 15.578.937 4.453 3.469 8.219 6.922 10.312.937.563 5.062 2.688 6.906 2.11.375-.11.641-.344.781-.672.516-1.172-.515-1.813-2.062-2.766a27.29 27.29 0 01-2-1.328c-3.328-2.484-4.782-6.937-3.703-11.328a12.537 12.537 0 013.703-6.266c1.656-1.546 3.703-2.64 6.078-3.281 2.047 11.25 4.109 22.406 5.75 30.766.125.687.265 1.359.39 2.031-4.375.938-8.718.844-12.937-.266m11.328-33.203c10.344-.468 14.609 6.969 15.5 11.797.469 2.547.469 6.985-1.078 11.203-1.172 3.172-3.625 7.25-8.766 9.313a35.31 35.31 0 00-.218-1.281c-1.547-8.782-3.485-19.782-5.438-31.032m-7.328-70.953c1.781-5.734 4.516-8.984 6.516-10.719 1.75-1.515 3.39-2.234 4.312-2.234.141 0 .266.031.359.063.469.14 1 .703 1.469 1.578 2.313 4.281 1.563 11 .219 15.437-1.625 5.406-4.547 11.016-13.344 20.625-.172-1.109-.328-2.156-.484-3.14-1.25-8.282-.922-15.563.953-21.61M260.092 1258.39c-1.235-5.42-3.875-9.25-4.657-10.28-3.187-4.28-7.203-7.12-11.89-8.48-3.11-.88-6.11-1-8.531-.82-1.047-6.01-2.047-11.89-2.954-17.34 5.454-6.17 9.079-11.97 11.36-16.27 3.469-6.57 4.609-11.15 4.672-11.35 1.718-5.22 2.078-12.93.968-21.13-1-7.55-3.093-14.27-5.453-17.52-1.015-1.42-2.078-2.15-3.109-2.15-1.219 0-3.734 1.23-6.625 4.01-2.297 2.19-5.563 6.08-8.125 12.1-3 7.06-3.219 16.54-2.859 23.26.375 7.28 1.484 12.97 1.5 13.02.015.09.281 1.59.718 4.16-.218.23-.468.45-.718.7-1.032 1-2.219 2.12-3.61 3.51-.859.86-1.812 1.77-2.812 2.74-8.438 8.14-21.235 20.47-21.235 39.62 0 4.71.907 9.13 2.688 13.14 1.578 3.6 3.875 6.88 6.812 9.75 7.735 7.57 18.328 10.77 25.375 10.61 2.953-.07 5.594-.31 7.985-.76 1.828 9.61 2.968 16.64 3 21.98.047 6.52-1.61 10.5-5.5 13.27-2.438 1.73-5.25 2.69-8.344 2.83-2.594.12-4.859-.35-6.281-.75h-.016s-.281-.1-.297-.29c-.015-.18.344-.23.344-.23h.031c1.922-.44 5.485-1.67 7.844-4.97 1.797-2.53 2.672-7.15.828-11.09-1.109-2.39-3.609-5.35-9.234-5.8-2.5-.2-4.766.31-6.766 1.52-1.812 1.07-3.312 2.72-4.359 4.72-2.453 4.7-2 10.43 1.125 14.28 2.968 3.62 7.578 5.93 13.015 6.51.86.1 1.703.13 2.547.13 4.438 0 8.828-1.21 12.406-3.41 3.657-2.58 5.782-6.56 6.454-12.19.562-4.64.171-10.56-1.219-18.64-.36-2.09-.906-5.12-1.563-8.87 5.75-1.92 9.907-5.5 13.672-11.36 3.297-5.74 4.235-11.85 2.813-18.16m-34.219 26.22c-4.641-1.22-9.078-3.72-12.828-7.23-1.313-1.22-3.188-3.39-4.656-6.78-1.36-3.18-2.032-6.61-1.969-10.19.062-4.71 1.375-9.53 3.875-14.31 2.922-5.58 7.484-11.11 13.547-16.44a84.62 84.62 0 004.109-3.85c.766 4.27 1.594 8.96 2.469 13.83-3.844 1.27-8.594 4.42-11.703 10.08-3.547 6.56-3.407 12.09-2.672 15.58.937 4.45 3.469 8.22 6.922 10.31.937.56 5.062 2.69 6.906 2.11.375-.11.641-.34.781-.67.516-1.17-.515-1.81-2.062-2.77a23.46 23.46 0 01-2-1.33c-3.328-2.48-4.782-6.93-3.703-11.32a12.536 12.536 0 013.703-6.27c1.656-1.55 3.703-2.64 6.078-3.28 2.047 11.25 4.109 22.41 5.75 30.77.125.68.265 1.35.39 2.03-4.375.93-8.718.84-12.937-.27m11.328-33.2c10.344-.47 14.609 6.97 15.5 11.79.469 2.55.469 6.99-1.078 11.21-1.172 3.17-3.625 7.25-8.766 9.31-.062-.42-.14-.86-.218-1.28-1.547-8.78-3.485-19.78-5.438-31.03m-7.328-70.96c1.781-5.73 4.516-8.98 6.516-10.71 1.75-1.52 3.39-2.24 4.312-2.24.141 0 .266.03.359.06.469.14 1 .71 1.469 1.58 2.313 4.28 1.563 11 .219 15.44-1.625 5.41-4.547 11.02-13.344 20.62-.172-1.1-.328-2.15-.484-3.14-1.25-8.28-.922-15.56.953-21.61M260.092 1995.89c-1.235-5.42-3.875-9.25-4.657-10.28-3.187-4.28-7.203-7.12-11.89-8.48-3.11-.88-6.11-1-8.531-.82-1.047-6.01-2.047-11.89-2.954-17.34 5.454-6.17 9.079-11.97 11.36-16.27 3.469-6.57 4.609-11.15 4.672-11.35 1.718-5.22 2.078-12.93.968-21.13-1-7.55-3.093-14.27-5.453-17.52-1.015-1.42-2.078-2.15-3.109-2.15-1.219 0-3.734 1.23-6.625 4.01-2.297 2.19-5.563 6.08-8.125 12.1-3 7.06-3.219 16.54-2.859 23.26.375 7.28 1.484 12.97 1.5 13.02.015.09.281 1.59.718 4.16-.218.23-.468.45-.718.7-1.032 1-2.219 2.12-3.61 3.51-.859.86-1.812 1.77-2.812 2.74-8.438 8.14-21.235 20.47-21.235 39.62 0 4.71.907 9.13 2.688 13.14 1.578 3.6 3.875 6.88 6.812 9.75 7.735 7.57 18.328 10.77 25.375 10.61 2.953-.07 5.594-.31 7.985-.76 1.828 9.61 2.968 16.64 3 21.98.047 6.52-1.61 10.5-5.5 13.27-2.438 1.73-5.25 2.69-8.344 2.83-2.594.12-4.859-.35-6.281-.75h-.016s-.281-.1-.297-.29c-.015-.18.344-.23.344-.23h.031c1.922-.44 5.485-1.67 7.844-4.97 1.797-2.53 2.672-7.15.828-11.09-1.109-2.39-3.609-5.35-9.234-5.8-2.5-.2-4.766.31-6.766 1.52-1.812 1.07-3.312 2.72-4.359 4.72-2.453 4.7-2 10.43 1.125 14.28 2.968 3.62 7.578 5.93 13.015 6.51.86.1 1.703.13 2.547.13 4.438 0 8.828-1.21 12.406-3.41 3.657-2.58 5.782-6.56 6.454-12.19.562-4.64.171-10.56-1.219-18.64-.36-2.09-.906-5.12-1.563-8.87 5.75-1.92 9.907-5.5 13.672-11.36 3.297-5.74 4.235-11.85 2.813-18.16m-34.219 26.22c-4.641-1.22-9.078-3.72-12.828-7.23-1.313-1.22-3.188-3.39-4.656-6.78-1.36-3.18-2.032-6.61-1.969-10.19.062-4.71 1.375-9.53 3.875-14.31 2.922-5.58 7.484-11.11 13.547-16.44a84.62 84.62 0 004.109-3.85c.766 4.27 1.594 8.96 2.469 13.83-3.844 1.27-8.594 4.42-11.703 10.08-3.547 6.56-3.407 12.09-2.672 15.58.937 4.45 3.469 8.22 6.922 10.31.937.56 5.062 2.69 6.906 2.11.375-.11.641-.34.781-.67.516-1.17-.515-1.81-2.062-2.77a23.46 23.46 0 01-2-1.33c-3.328-2.48-4.782-6.93-3.703-11.32a12.536 12.536 0 013.703-6.27c1.656-1.55 3.703-2.64 6.078-3.28 2.047 11.25 4.109 22.41 5.75 30.77.125.68.265 1.35.39 2.03-4.375.93-8.718.84-12.937-.27m11.328-33.2c10.344-.47 14.609 6.97 15.5 11.79.469 2.55.469 6.99-1.078 11.21-1.172 3.17-3.625 7.25-8.766 9.31-.062-.42-.14-.86-.218-1.28-1.547-8.78-3.485-19.78-5.438-31.03m-7.328-70.96c1.781-5.73 4.516-8.98 6.516-10.71 1.75-1.52 3.39-2.24 4.312-2.24.141 0 .266.03.359.06.469.14 1 .71 1.469 1.58 2.313 4.28 1.563 11 .219 15.44-1.625 5.41-4.547 11.02-13.344 20.62-.172-1.1-.328-2.15-.484-3.14-1.25-8.28-.922-15.56.953-21.61"/><path class="KeySig" d="M311.428 728.72c.609-.11 1.109-.813 1.109-1.406v-5.907c0-.797-.609-1.39-1.406-1.39h-.203l-3.297.703v-14.906h-2.797v15.5l-8.906 1.796v-14.093h-2.797v14.703l-3.906.797c-.594.093-1.094.797-1.094 1.39v6-.187c0 .797.594 1.39 1.406 1.39h.297l3.297-.703v16.5l-3.906.813c-.594.094-1.094.797-1.094 1.39v5.797c0 .813.594 1.407 1.406 1.407h.297l3.297-.704v14.907h2.797v-15.5l8.906-1.797v14.094h2.797V754.61l3.797-.703c.609-.093 1.109-.797 1.109-1.39v-5.907c0-.796-.609-1.39-1.406-1.39h-.203l-3.297.687v-16.5l3.797-.687m-15.5 19.687v-16.593l8.906-1.797v16.5l-8.906 1.89M311.428 1466.22c.609-.11 1.109-.81 1.109-1.41v-5.9c0-.8-.609-1.39-1.406-1.39h-.203l-3.297.7v-14.91h-2.797v15.5l-8.906 1.8v-14.09h-2.797v14.7l-3.906.8c-.594.09-1.094.79-1.094 1.39v6-.19c0 .8.594 1.39 1.406 1.39h.297l3.297-.7v16.5l-3.906.81c-.594.09-1.094.8-1.094 1.39v5.8c0 .81.594 1.4 1.406 1.4h.297l3.297-.7v14.91h2.797v-15.5l8.906-1.8v14.09h2.797v-14.7l3.797-.7c.609-.1 1.109-.8 1.109-1.39v-5.91c0-.8-.609-1.39-1.406-1.39h-.203l-3.297.69v-16.5l3.797-.69m-15.5 19.69v-16.6l8.906-1.79v16.5l-8.906 1.89M311.428 2203.72c.609-.11 1.109-.81 1.109-1.41v-5.9c0-.8-.609-1.39-1.406-1.39h-.203l-3.297.7v-14.91h-2.797v15.5l-8.906 1.8v-14.09h-2.797v14.7l-3.906.8c-.594.09-1.094.79-1.094 1.39v6-.19c0 .8.594 1.39 1.406 1.39h.297l3.297-.7v16.5l-3.906.81c-.594.09-1.094.8-1.094 1.39v5.8c0 .81.594 1.4 1.406 1.4h.297l3.297-.7v14.91h2.797v-15.5l8.906-1.8v14.09h2.797v-14.7l3.797-.7c.609-.1 1.109-.8 1.109-1.39v-5.91c0-.8-.609-1.39-1.406-1.39h-.203l-3.297.69v-16.5l3.797-.69m-15.5 19.69v-16.6l8.906-1.79v16.5l-8.906 1.89M311.428 306.139c.609-.11 1.109-.813 1.109-1.407v-5.906c0-.797-.609-1.39-1.406-1.39h-.203l-3.297.703v-14.907h-2.797v15.5l-8.906 1.797v-14.093h-2.797v14.703l-3.906.797c-.594.093-1.094.796-1.094 1.39v6-.187c0 .797.594 1.39 1.406 1.39h.297l3.297-.703v16.5l-3.906.813c-.594.093-1.094.797-1.094 1.39v5.797c0 .813.594 1.406 1.406 1.406h.297l3.297-.703v14.907h2.797v-15.5l8.906-1.797v14.093h2.797v-14.703l3.797-.703c.609-.094 1.109-.797 1.109-1.39v-5.907c0-.797-.609-1.39-1.406-1.39h-.203l-3.297.687v-16.5l3.797-.687m-15.5 19.687v-16.594l8.906-1.796v16.5l-8.906 1.89M311.428 1178.72c.609-.11 1.109-.81 1.109-1.41v-5.9c0-.8-.609-1.39-1.406-1.39h-.203l-3.297.7v-14.91h-2.797v15.5l-8.906 1.8v-14.09h-2.797v14.7l-3.906.8c-.594.09-1.094.79-1.094 1.39v6-.19c0 .8.594 1.39 1.406 1.39h.297l3.297-.7v16.5l-3.906.81c-.594.09-1.094.8-1.094 1.39v5.8c0 .81.594 1.4 1.406 1.4h.297l3.297-.7v14.91h2.797v-15.5l8.906-1.8v14.09h2.797v-14.7l3.797-.7c.609-.1 1.109-.8 1.109-1.39v-5.91c0-.8-.609-1.39-1.406-1.39h-.203l-3.297.69v-16.5l3.797-.69m-15.5 19.69v-16.6l8.906-1.79v16.5l-8.906 1.89M311.428 1916.22c.609-.11 1.109-.81 1.109-1.41v-5.9c0-.8-.609-1.39-1.406-1.39h-.203l-3.297.7v-14.91h-2.797v15.5l-8.906 1.8v-14.09h-2.797v14.7l-3.906.8c-.594.09-1.094.79-1.094 1.39v6-.19c0 .8.594 1.39 1.406 1.39h.297l3.297-.7v16.5l-3.906.81c-.594.09-1.094.8-1.094 1.39v5.8c0 .81.594 1.4 1.406 1.4h.297l3.297-.7v14.91h2.797v-15.5l8.906-1.8v14.09h2.797v-14.7l3.797-.7c.609-.1 1.109-.8 1.109-1.39v-5.91c0-.8-.609-1.39-1.406-1.39h-.203l-3.297.69v-16.5l3.797-.69m-15.5 19.69v-16.6l8.906-1.79v16.5l-8.906 1.89"/><path class="TimeSig" d="M2811.97 744.517c6.09 0 8.3-1.797 9.7-3.297.3 2.094.5 3.687.5 5.297 0 1.593-.2 3-.5 4.797-.61 3.703-3.11 8.296-8.5 8.296-2.5 0-4-.796-5-1.89 2.1-.906 3.8-3.61 3.8-5.906 0-3.594-2.8-6.407-6.41-6.407-3.59 0-6.5 2.813-6.5 6.407V752.11c0 .907.21 2.407.61 3.204 1.3 3.593 5.5 8.906 15.5 8.906 9 0 15.5-8.61 17.5-13.203 1-2.407 2.5-7.297 2.5-12.907 0-6.093-1.7-13-7.59-18.203-5.81-4.39-9.52-4.593-13.02-4.593s-16.59 4.093-16.59 15.703c0 9.797 7.7 13.5 14 13.5m3.7-25.11c3.3 0 6 4.61 6 10.203 0 5.61-2.7 10.11-6 10.11s-6.11-4.5-6.11-10.11c0-5.593 2.81-10.203 6.11-10.203M2828.55 787.079c3.34-2.5 5.64-5.687 5.64-9.703 0-7.234-7.89-13.094-17.61-13.094-9.74 0-17.63 5.86-17.63 13.094 0 4.016 1 7.609 5.74 10.563-4.57 2.671-7.02 6.343-7.02 11.109 0 8.078 8.45 14.625 18.91 14.625 10.44 0 18.89-6.547 18.89-14.625 0-4.766-1.74-9.328-6.92-11.969m-11.99 20.985c-6.36 0-11.89-3.485-11.89-9.063 0-6.703 5.17-8.312 5.17-8.312 6.8 2.265 16.55 5.703 16.55 11.156 0 2.734-3.47 6.219-9.83 6.219m6.39-23.735c-6.81-2.109-14.29-5.406-14.29-9.953 0-3.937 3.61-5.484 7.9-5.484 6.16 0 10.41 2.89 10.41 7.484 0 4.797-2.22 7.078-4.02 7.953M351.834 1482.02c6.094 0 8.297-1.8 9.703-3.3.297 2.09.5 3.69.5 5.3 0 1.59-.203 3-.5 4.79-.609 3.71-3.109 8.3-8.5 8.3-2.5 0-4-.8-5-1.89 2.094-.91 3.797-3.61 3.797-5.91 0-3.59-2.797-6.4-6.406-6.4-3.594 0-6.5 2.81-6.5 6.4v.3c0 .91.203 2.41.609 3.2 1.297 3.6 5.5 8.91 15.5 8.91 9 0 15.5-8.61 17.5-13.2 1-2.41 2.5-7.3 2.5-12.91 0-6.09-1.703-13-7.594-18.2-5.812-4.39-9.515-4.6-13.015-4.6s-16.594 4.1-16.594 15.71c0 9.79 7.703 13.5 14 13.5m3.703-25.11c3.297 0 6 4.61 6 10.2 0 5.61-2.703 10.11-6 10.11s-6.109-4.5-6.109-10.11c0-5.59 2.812-10.2 6.109-10.2M368.412 1524.58c3.344-2.5 5.641-5.69 5.641-9.7 0-7.24-7.891-13.1-17.61-13.1-9.734 0-17.625 5.86-17.625 13.1 0 4.01 1 7.61 5.735 10.56-4.563 2.67-7.016 6.34-7.016 11.11 0 8.08 8.453 14.62 18.906 14.62 10.438 0 18.891-6.54 18.891-14.62 0-4.77-1.734-9.33-6.922-11.97m-11.984 20.98c-6.36 0-11.891-3.48-11.891-9.06 0-6.7 5.172-8.31 5.172-8.31 6.797 2.26 16.547 5.7 16.547 11.16 0 2.73-3.469 6.21-9.828 6.21m6.39-23.73c-6.812-2.11-14.296-5.41-14.296-9.95 0-3.94 3.609-5.49 7.906-5.49 6.156 0 10.406 2.89 10.406 7.49 0 4.79-2.219 7.07-4.016 7.95M1275.13 1472.52c-6.11 0-8.29 1.79-9.7 3.29-.3-2.09-.5-3.7-.5-5.29 0-1.61.2-3 .5-4.8.59-3.7 3.09-8.31 8.5-8.31 2.5 0 4 .81 5 1.9-2.09.91-3.8 3.6-3.8 5.91 0 3.59 2.8 6.39 6.41 6.39 3.59 0 6.5-2.8 6.5-6.39v-.31c0-.89-.2-2.39-.61-3.19-1.3-3.61-5.5-8.91-15.5-8.91-9 0-15.5 8.6-17.5 13.21-1 2.39-2.5 7.29-2.5 12.89 0 6.11 1.7 13 7.59 18.2 5.82 4.41 9.5 4.61 13 4.61 3.52 0 16.61-4.11 16.61-15.7 0-9.8-7.7-13.5-14-13.5m-3.7 25c-3.3 0-6-4.5-6-10.11 0-5.6 2.7-10.19 6-10.19s6.11 4.59 6.11 10.19c0 5.61-2.81 10.11-6.11 10.11M1282.51 1524.58c3.34-2.5 5.64-5.69 5.64-9.7 0-7.24-7.89-13.1-17.61-13.1-9.73 0-17.63 5.86-17.63 13.1 0 4.01 1 7.61 5.74 10.56-4.56 2.67-7.02 6.34-7.02 11.11 0 8.08 8.46 14.62 18.91 14.62 10.44 0 18.89-6.54 18.89-14.62 0-4.77-1.73-9.33-6.92-11.97m-11.99 20.98c-6.36 0-11.89-3.48-11.89-9.06 0-6.7 5.18-8.31 5.18-8.31 6.79 2.26 16.54 5.7 16.54 11.16 0 2.73-3.47 6.21-9.83 6.21m6.39-23.73c-6.81-2.11-14.29-5.41-14.29-9.95 0-3.94 3.61-5.49 7.9-5.49 6.16 0 10.41 2.89 10.41 7.49 0 4.79-2.22 7.07-4.02 7.95M2811.97 1482.02c6.09 0 8.3-1.8 9.7-3.3.3 2.09.5 3.69.5 5.3 0 1.59-.2 3-.5 4.79-.61 3.71-3.11 8.3-8.5 8.3-2.5 0-4-.8-5-1.89 2.1-.91 3.8-3.61 3.8-5.91 0-3.59-2.8-6.4-6.41-6.4-3.59 0-6.5 2.81-6.5 6.4v.3c0 .91.21 2.41.61 3.2 1.3 3.6 5.5 8.91 15.5 8.91 9 0 15.5-8.61 17.5-13.2 1-2.41 2.5-7.3 2.5-12.91 0-6.09-1.7-13-7.59-18.2-5.81-4.39-9.52-4.6-13.02-4.6s-16.59 4.1-16.59 15.71c0 9.79 7.7 13.5 14 13.5m3.7-25.11c3.3 0 6 4.61 6 10.2 0 5.61-2.7 10.11-6 10.11s-6.11-4.5-6.11-10.11c0-5.59 2.81-10.2 6.11-10.2M2828.55 1524.58c3.34-2.5 5.64-5.69 5.64-9.7 0-7.24-7.89-13.1-17.61-13.1-9.74 0-17.63 5.86-17.63 13.1 0 4.01 1 7.61 5.74 10.56-4.57 2.67-7.02 6.34-7.02 11.11 0 8.08 8.45 14.62 18.91 14.62 10.44 0 18.89-6.54 18.89-14.62 0-4.77-1.74-9.33-6.92-11.97m-11.99 20.98c-6.36 0-11.89-3.48-11.89-9.06 0-6.7 5.17-8.31 5.17-8.31 6.8 2.26 16.55 5.7 16.55 11.16 0 2.73-3.47 6.21-9.83 6.21m6.39-23.73c-6.81-2.11-14.29-5.41-14.29-9.95 0-3.94 3.61-5.49 7.9-5.49 6.16 0 10.41 2.89 10.41 7.49 0 4.79-2.22 7.07-4.02 7.95M351.834 2219.52c6.094 0 8.297-1.8 9.703-3.3.297 2.09.5 3.69.5 5.3 0 1.59-.203 3-.5 4.79-.609 3.71-3.109 8.3-8.5 8.3-2.5 0-4-.8-5-1.89 2.094-.91 3.797-3.61 3.797-5.91 0-3.59-2.797-6.4-6.406-6.4-3.594 0-6.5 2.81-6.5 6.4v.3c0 .91.203 2.41.609 3.2 1.297 3.6 5.5 8.91 15.5 8.91 9 0 15.5-8.61 17.5-13.2 1-2.41 2.5-7.3 2.5-12.91 0-6.09-1.703-13-7.594-18.2-5.812-4.39-9.515-4.6-13.015-4.6s-16.594 4.1-16.594 15.71c0 9.79 7.703 13.5 14 13.5m3.703-25.11c3.297 0 6 4.61 6 10.2 0 5.61-2.703 10.11-6 10.11s-6.109-4.5-6.109-10.11c0-5.59 2.812-10.2 6.109-10.2M368.412 2262.08c3.344-2.5 5.641-5.69 5.641-9.7 0-7.24-7.891-13.1-17.61-13.1-9.734 0-17.625 5.86-17.625 13.1 0 4.01 1 7.61 5.735 10.56-4.563 2.67-7.016 6.34-7.016 11.11 0 8.08 8.453 14.62 18.906 14.62 10.438 0 18.891-6.54 18.891-14.62 0-4.77-1.734-9.33-6.922-11.97m-11.984 20.98c-6.36 0-11.891-3.48-11.891-9.06 0-6.7 5.172-8.31 5.172-8.31 6.797 2.27 16.547 5.7 16.547 11.16 0 2.73-3.469 6.21-9.828 6.21m6.39-23.73c-6.812-2.11-14.296-5.41-14.296-9.95 0-3.94 3.609-5.49 7.906-5.49 6.156 0 10.406 2.89 10.406 7.49 0 4.79-2.219 7.08-4.016 7.95M1366.45 2210.02c-6.11 0-8.3 1.79-9.7 3.29-.3-2.09-.5-3.7-.5-5.29 0-1.61.2-3 .5-4.8.59-3.7 3.09-8.31 8.5-8.31 2.5 0 4 .81 5 1.9-2.1.91-3.8 3.6-3.8 5.91 0 3.59 2.8 6.39 6.41 6.39 3.59 0 6.5-2.8 6.5-6.39v-.31c0-.89-.21-2.39-.61-3.19-1.3-3.61-5.5-8.91-15.5-8.91-9 0-15.5 8.6-17.5 13.21-1 2.39-2.5 7.29-2.5 12.89 0 6.11 1.7 13 7.59 18.2 5.81 4.41 9.5 4.61 13 4.61 3.52 0 16.61-4.11 16.61-15.7 0-9.8-7.7-13.5-14-13.5m-3.7 25c-3.3 0-6-4.5-6-10.11 0-5.6 2.7-10.19 6-10.19 3.29 0 6.11 4.59 6.11 10.19 0 5.61-2.82 10.11-6.11 10.11M1373.82 2262.08c3.35-2.5 5.64-5.69 5.64-9.7 0-7.24-7.89-13.1-17.6-13.1-9.74 0-17.63 5.86-17.63 13.1 0 4.01 1 7.61 5.73 10.56-4.56 2.67-7.01 6.34-7.01 11.11 0 8.08 8.45 14.62 18.91 14.62 10.43 0 18.89-6.54 18.89-14.62 0-4.77-1.74-9.33-6.93-11.97m-11.98 20.98c-6.36 0-11.89-3.48-11.89-9.06 0-6.7 5.17-8.31 5.17-8.31 6.8 2.27 16.55 5.7 16.55 11.16 0 2.73-3.47 6.21-9.83 6.21m6.39-23.73c-6.81-2.11-14.3-5.41-14.3-9.95 0-3.94 3.61-5.49 7.91-5.49 6.16 0 10.41 2.89 10.41 7.49 0 4.79-2.22 7.08-4.02 7.95M2811.97 346.936c6.09 0 8.3-1.797 9.7-3.297.3 2.093.5 3.687.5 5.297 0 1.593-.2 3-.5 4.796-.61 3.704-3.11 8.297-8.5 8.297-2.5 0-4-.797-5-1.89 2.1-.907 3.8-3.61 3.8-5.907 0-3.593-2.8-6.406-6.41-6.406-3.59 0-6.5 2.813-6.5 6.406v.297c0 .907.21 2.407.61 3.203 1.3 3.594 5.5 8.907 15.5 8.907 9 0 15.5-8.61 17.5-13.203 1-2.407 2.5-7.297 2.5-12.907 0-6.093-1.7-13-7.59-18.203-5.81-4.39-9.52-4.594-13.02-4.594s-16.59 4.094-16.59 15.704c0 9.796 7.7 13.5 14 13.5m3.7-25.11c3.3 0 6 4.61 6 10.203 0 5.61-2.7 10.11-6 10.11s-6.11-4.5-6.11-10.11c0-5.593 2.81-10.203 6.11-10.203M2828.55 389.498c3.34-2.5 5.64-5.687 5.64-9.703 0-7.234-7.89-13.094-17.61-13.094-9.74 0-17.63 5.86-17.63 13.094 0 4.016 1 7.609 5.74 10.563-4.57 2.671-7.02 6.343-7.02 11.109 0 8.078 8.45 14.625 18.91 14.625 10.44 0 18.89-6.547 18.89-14.625 0-4.766-1.74-9.328-6.92-11.969m-11.99 20.985c-6.36 0-11.89-3.485-11.89-9.063 0-6.703 5.17-8.312 5.17-8.312 6.8 2.265 16.55 5.703 16.55 11.156 0 2.734-3.47 6.219-9.83 6.219m6.39-23.735c-6.81-2.109-14.29-5.406-14.29-9.953 0-3.937 3.61-5.484 7.9-5.484 6.16 0 10.41 2.89 10.41 7.484 0 4.797-2.22 7.078-4.02 7.953M351.834 1219.52c6.094 0 8.297-1.8 9.703-3.3.297 2.09.5 3.69.5 5.3 0 1.59-.203 3-.5 4.79-.609 3.71-3.109 8.3-8.5 8.3-2.5 0-4-.8-5-1.89 2.094-.91 3.797-3.61 3.797-5.91 0-3.59-2.797-6.4-6.406-6.4-3.594 0-6.5 2.81-6.5 6.4v.3c0 .91.203 2.41.609 3.2 1.297 3.6 5.5 8.91 15.5 8.91 9 0 15.5-8.61 17.5-13.2 1-2.41 2.5-7.3 2.5-12.91 0-6.09-1.703-13-7.594-18.2-5.812-4.39-9.515-4.6-13.015-4.6s-16.594 4.1-16.594 15.71c0 9.79 7.703 13.5 14 13.5m3.703-25.11c3.297 0 6 4.61 6 10.2 0 5.61-2.703 10.11-6 10.11s-6.109-4.5-6.109-10.11c0-5.59 2.812-10.2 6.109-10.2M368.412 1262.08c3.344-2.5 5.641-5.69 5.641-9.7 0-7.24-7.891-13.1-17.61-13.1-9.734 0-17.625 5.86-17.625 13.1 0 4.01 1 7.61 5.735 10.56-4.563 2.67-7.016 6.34-7.016 11.11 0 8.08 8.453 14.62 18.906 14.62 10.438 0 18.891-6.54 18.891-14.62 0-4.77-1.734-9.33-6.922-11.97m-11.984 20.98c-6.36 0-11.891-3.48-11.891-9.06 0-6.7 5.172-8.31 5.172-8.31 6.797 2.26 16.547 5.7 16.547 11.16 0 2.73-3.469 6.21-9.828 6.21m6.39-23.73c-6.812-2.11-14.296-5.41-14.296-9.95 0-3.94 3.609-5.49 7.906-5.49 6.156 0 10.406 2.89 10.406 7.49 0 4.79-2.219 7.07-4.016 7.95M1275.13 1210.02c-6.11 0-8.29 1.79-9.7 3.29-.3-2.09-.5-3.7-.5-5.29 0-1.61.2-3 .5-4.8.59-3.7 3.09-8.31 8.5-8.31 2.5 0 4 .81 5 1.9-2.09.91-3.8 3.6-3.8 5.91 0 3.59 2.8 6.39 6.41 6.39 3.59 0 6.5-2.8 6.5-6.39v-.31c0-.89-.2-2.39-.61-3.19-1.3-3.61-5.5-8.91-15.5-8.91-9 0-15.5 8.6-17.5 13.21-1 2.39-2.5 7.29-2.5 12.89 0 6.11 1.7 13 7.59 18.2 5.82 4.41 9.5 4.61 13 4.61 3.52 0 16.61-4.11 16.61-15.7 0-9.8-7.7-13.5-14-13.5m-3.7 25c-3.3 0-6-4.5-6-10.11 0-5.6 2.7-10.19 6-10.19s6.11 4.59 6.11 10.19c0 5.61-2.81 10.11-6.11 10.11M1282.51 1262.08c3.34-2.5 5.64-5.69 5.64-9.7 0-7.24-7.89-13.1-17.61-13.1-9.73 0-17.63 5.86-17.63 13.1 0 4.01 1 7.61 5.74 10.56-4.56 2.67-7.02 6.34-7.02 11.11 0 8.08 8.46 14.62 18.91 14.62 10.44 0 18.89-6.54 18.89-14.62 0-4.77-1.73-9.33-6.92-11.97m-11.99 20.98c-6.36 0-11.89-3.48-11.89-9.06 0-6.7 5.18-8.31 5.18-8.31 6.79 2.26 16.54 5.7 16.54 11.16 0 2.73-3.47 6.21-9.83 6.21m6.39-23.73c-6.81-2.11-14.29-5.41-14.29-9.95 0-3.94 3.61-5.49 7.9-5.49 6.16 0 10.41 2.89 10.41 7.49 0 4.79-2.22 7.07-4.02 7.95M2811.97 1219.52c6.09 0 8.3-1.8 9.7-3.3.3 2.09.5 3.69.5 5.3 0 1.59-.2 3-.5 4.79-.61 3.71-3.11 8.3-8.5 8.3-2.5 0-4-.8-5-1.89 2.1-.91 3.8-3.61 3.8-5.91 0-3.59-2.8-6.4-6.41-6.4-3.59 0-6.5 2.81-6.5 6.4v.3c0 .91.21 2.41.61 3.2 1.3 3.6 5.5 8.91 15.5 8.91 9 0 15.5-8.61 17.5-13.2 1-2.41 2.5-7.3 2.5-12.91 0-6.09-1.7-13-7.59-18.2-5.81-4.39-9.52-4.6-13.02-4.6s-16.59 4.1-16.59 15.71c0 9.79 7.7 13.5 14 13.5m3.7-25.11c3.3 0 6 4.61 6 10.2 0 5.61-2.7 10.11-6 10.11s-6.11-4.5-6.11-10.11c0-5.59 2.81-10.2 6.11-10.2M2828.55 1262.08c3.34-2.5 5.64-5.69 5.64-9.7 0-7.24-7.89-13.1-17.61-13.1-9.74 0-17.63 5.86-17.63 13.1 0 4.01 1 7.61 5.74 10.56-4.57 2.67-7.02 6.34-7.02 11.11 0 8.08 8.45 14.62 18.91 14.62 10.44 0 18.89-6.54 18.89-14.62 0-4.77-1.74-9.33-6.92-11.97m-11.99 20.98c-6.36 0-11.89-3.48-11.89-9.06 0-6.7 5.17-8.31 5.17-8.31 6.8 2.26 16.55 5.7 16.55 11.16 0 2.73-3.47 6.21-9.83 6.21m6.39-23.73c-6.81-2.11-14.29-5.41-14.29-9.95 0-3.94 3.61-5.49 7.9-5.49 6.16 0 10.41 2.89 10.41 7.49 0 4.79-2.22 7.07-4.02 7.95M351.834 1957.02c6.094 0 8.297-1.8 9.703-3.3.297 2.09.5 3.69.5 5.3 0 1.59-.203 3-.5 4.79-.609 3.71-3.109 8.3-8.5 8.3-2.5 0-4-.8-5-1.89 2.094-.91 3.797-3.61 3.797-5.91 0-3.59-2.797-6.4-6.406-6.4-3.594 0-6.5 2.81-6.5 6.4v.3c0 .91.203 2.41.609 3.2 1.297 3.6 5.5 8.91 15.5 8.91 9 0 15.5-8.61 17.5-13.2 1-2.41 2.5-7.3 2.5-12.91 0-6.09-1.703-13-7.594-18.2-5.812-4.39-9.515-4.6-13.015-4.6s-16.594 4.1-16.594 15.71c0 9.79 7.703 13.5 14 13.5m3.703-25.11c3.297 0 6 4.61 6 10.2 0 5.61-2.703 10.11-6 10.11s-6.109-4.5-6.109-10.11c0-5.59 2.812-10.2 6.109-10.2M368.412 1999.58c3.344-2.5 5.641-5.69 5.641-9.7 0-7.24-7.891-13.1-17.61-13.1-9.734 0-17.625 5.86-17.625 13.1 0 4.01 1 7.61 5.735 10.56-4.563 2.67-7.016 6.34-7.016 11.11 0 8.08 8.453 14.62 18.906 14.62 10.438 0 18.891-6.54 18.891-14.62 0-4.77-1.734-9.33-6.922-11.97m-11.984 20.98c-6.36 0-11.891-3.48-11.891-9.06 0-6.7 5.172-8.31 5.172-8.31 6.797 2.26 16.547 5.7 16.547 11.16 0 2.73-3.469 6.21-9.828 6.21m6.39-23.73c-6.812-2.11-14.296-5.41-14.296-9.95 0-3.94 3.609-5.49 7.906-5.49 6.156 0 10.406 2.89 10.406 7.49 0 4.79-2.219 7.07-4.016 7.95M1366.45 1947.52c-6.11 0-8.3 1.79-9.7 3.29-.3-2.09-.5-3.7-.5-5.29 0-1.61.2-3 .5-4.8.59-3.7 3.09-8.31 8.5-8.31 2.5 0 4 .81 5 1.9-2.1.91-3.8 3.6-3.8 5.91 0 3.59 2.8 6.39 6.41 6.39 3.59 0 6.5-2.8 6.5-6.39v-.31c0-.89-.21-2.39-.61-3.19-1.3-3.61-5.5-8.91-15.5-8.91-9 0-15.5 8.6-17.5 13.21-1 2.39-2.5 7.29-2.5 12.89 0 6.11 1.7 13 7.59 18.2 5.81 4.41 9.5 4.61 13 4.61 3.52 0 16.61-4.11 16.61-15.7 0-9.8-7.7-13.5-14-13.5m-3.7 25c-3.3 0-6-4.5-6-10.11 0-5.6 2.7-10.19 6-10.19 3.29 0 6.11 4.59 6.11 10.19 0 5.61-2.82 10.11-6.11 10.11M1373.82 1999.58c3.35-2.5 5.64-5.69 5.64-9.7 0-7.24-7.89-13.1-17.6-13.1-9.74 0-17.63 5.86-17.63 13.1 0 4.01 1 7.61 5.73 10.56-4.56 2.67-7.01 6.34-7.01 11.11 0 8.08 8.45 14.62 18.91 14.62 10.43 0 18.89-6.54 18.89-14.62 0-4.77-1.74-9.33-6.93-11.97m-11.98 20.98c-6.36 0-11.89-3.48-11.89-9.06 0-6.7 5.17-8.31 5.17-8.31 6.8 2.26 16.55 5.7 16.55 11.16 0 2.73-3.47 6.21-9.83 6.21m6.39-23.73c-6.81-2.11-14.3-5.41-14.3-9.95 0-3.94 3.61-5.49 7.91-5.49 6.16 0 10.41 2.89 10.41 7.49 0 4.79-2.22 7.07-4.02 7.95"/><path class="Rest" d="M860.954 346.467c-.75-.266-1.422.094-1.735.719-.297.609-3.125 6.047-7.437 9.453-1.344 1.062-2.907 1.75-4.469 2.14a7.136 7.136 0 001.641-4.796c-.141-3.938-3.438-7.016-7.375-6.875-3.938.14-7.032 3.437-6.891 7.375a7.132 7.132 0 004.734 6.468c1.563.688 3.469 1.047 5.516.985 2.844-.11 5.922-1.047 8.562-3.125 1.235-.969 2.391-2.203 3.422-3.5v.015l-4.5 15.907s0 .015-.015.015v.016c-.469.953-3.719 7.125-7.735 10.297-1.343 1.078-2.906 1.765-4.468 2.14a7.063 7.063 0 001.64-4.781c-.14-3.953-3.437-7.031-7.375-6.891-3.937.141-7.031 3.438-6.89 7.391.109 3 2.062 5.5 4.734 6.469 1.562.672 3.469 1.047 5.516.969a14.644 14.644 0 008.562-3.11c1.219-.969 2.375-2.187 3.406-3.5l-10.203 36.469 2.672.75 18.672-66.203.875-3.125c.203-.735-.109-1.422-.859-1.672M944.571 383.639l-.203-.313a6.177 6.177 0 01-.594-.687l-11.5-14.203c-.313-.297-.203-1.11 0-1.5l10.187-15.407c.11-.203.204-.5.204-.703v-.89c0-.297-.094-.61-.297-.797l-16.203-21.906s-.797-1.204-1.797-.297c-1 .797-.203 2.093-.203 2.093l7.609 10.407c.391.593.391 1.797 0 2.39l-10.109 15.407c-.094.203-.204.593-.204.796v.907c0 .297.11.593.313.797l11.187 13.906c-.39-.11-1.296-.313-2.5-.313-1.687 0-3.89.407-5.687 2-2.203 2-3.406 4.813-3.406 7.313 0 1.39.297 2.797 1.093 3.89 2.11 3.204 9.61 12.704 9.61 12.704s.89 1.109 1.797.406c.906-.703.703-1.61.406-2.11-.313-.5-3.5-6.296-3.5-6.296s-.703-1.407-.703-3.204c0-1.296.39-2.89 1.703-4.203 1.187-1.187 2.594-1.593 3.891-1.593 1.296 0 2.406.406 3.203.906l3.906 2.5s1.187.594 1.797-.313c.5-.797.297-1.187 0-1.687M1970.01 346.467c-.75-.266-1.43.094-1.74.719-.3.609-3.12 6.047-7.44 9.453-1.34 1.062-2.9 1.75-4.47 2.14a7.143 7.143 0 001.65-4.796c-.15-3.938-3.44-7.016-7.38-6.875-3.94.14-7.03 3.437-6.89 7.375a7.133 7.133 0 004.73 6.468c1.57.688 3.47 1.047 5.52.985 2.84-.11 5.92-1.047 8.56-3.125 1.24-.969 2.39-2.203 3.42-3.5v.015l-4.5 15.907s0 .015-.01.015v.016c-.47.953-3.72 7.125-7.74 10.297-1.34 1.078-2.9 1.765-4.46 2.14a7.118 7.118 0 001.64-4.781c-.14-3.953-3.44-7.031-7.38-6.891a7.142 7.142 0 00-6.89 7.391c.11 3 2.06 5.5 4.73 6.469 1.57.672 3.47 1.047 5.52.969a14.644 14.644 0 008.56-3.11c1.22-.969 2.38-2.187 3.41-3.5l-10.2 36.469 2.67.75 18.67-66.203.87-3.125c.21-.735-.1-1.422-.85-1.672M2003.9 346.467c-.75-.281-1.42.062-1.75.672-.32.609-3.51 6.531-7.93 9.797-1.39 1.015-2.99 1.656-4.55 1.984a7.09 7.09 0 001.8-4.734c0-3.953-3.21-7.157-7.14-7.157a7.155 7.155 0 00-7.16 7.157c0 3 1.87 5.593 4.51 6.64 1.54.719 3.44 1.172 5.49 1.172 2.84 0 5.95-.828 8.67-2.828 1.27-.922 2.45-2.125 3.53-3.375l-11.39 35.625 2.64.859 14.08-44.093c.23-.735-.06-1.422-.8-1.719M2082.8 354.936v10.797c0 1.406 0 1.406 1.41 1.406h29.7c1.39 0 1.39 0 1.39-1.406v-10.797c0-1.407 0-1.407-1.39-1.407h-29.7c-1.41 0-1.41 0-1.41 1.407M2307.57 346.467c-.75-.281-1.42.062-1.75.672-.33.609-3.52 6.531-7.94 9.797-1.39 1.015-2.98 1.656-4.55 1.984a7.041 7.041 0 001.8-4.734c0-3.953-3.2-7.157-7.14-7.157a7.161 7.161 0 00-7.16 7.157c0 3 1.88 5.593 4.52 6.64 1.53.719 3.44 1.172 5.48 1.172 2.85 0 5.96-.828 8.67-2.828 1.27-.922 2.46-2.125 3.54-3.375l-11.39 35.625 2.64.859 14.07-44.093c.24-.735-.06-1.422-.79-1.719M1811.91 1227.52v10.79c0 1.41 0 1.41 1.4 1.41h29.71c1.39 0 1.39 0 1.39-1.41v-10.79c0-1.41 0-1.41-1.39-1.41h-29.71c-1.4 0-1.4 0-1.4 1.41M2132.29 1219.05c-.75-.28-1.42.06-1.75.67-.33.61-3.51 6.53-7.94 9.8-1.39 1.01-2.98 1.65-4.54 1.98a7.075 7.075 0 001.79-4.73c0-3.96-3.2-7.16-7.14-7.16a7.15 7.15 0 00-7.15 7.16c0 3 1.87 5.59 4.51 6.64 1.53.72 3.44 1.17 5.49 1.17 2.84 0 5.95-.83 8.67-2.83 1.27-.92 2.45-2.12 3.53-3.37l-11.39 35.62 2.64.86 14.08-44.09c.23-.74-.06-1.42-.8-1.72M2210.27 1951.31h-29.71c-.81 0-1.4.6-1.4 1.41v10.8c0 .79.59 1.39 1.4 1.39h29.71c.79 0 1.39-.6 1.39-1.39v-10.8c0-.81-.6-1.41-1.39-1.41M2654.26 1951.31h-29.7c-.81 0-1.41.6-1.41 1.41v10.8c0 .79.6 1.39 1.41 1.39h29.7c.8 0 1.39-.6 1.39-1.39v-10.8c0-.81-.59-1.41-1.39-1.41"/><path class="Dynamic" d="M2503 2409.62h23.48v-2.14h-7.92l6.11-16.78.26.72s1.11 2.42 4.63 3.3c.66.17 1.31.22 1.98.22 5.72 0 11.6-5.94 13.74-14.35.61-2.31.83-4.23.83-5.89 0-6.98-4.35-8.79-5.94-9.18-.44-.11-.94-.16-1.38-.16-3.23 0-6.54 2.69-8.29 4.45l-.28.33-.16-.39c0-.05-2.2-3.91-5.89-4.45-.39-.05-.77-.11-1.16-.11-3.47 0-7.09 2.42-10.06 11l1.87.93c.44-1.37 1.6-4.67 2.8-6.32.61-.94 1.77-1.82 2.75-1.97.5-.13.88 0 1.22.22.38.26.55.81.55 1.59 0 2.53-1.82 7.03-2.32 8.08l-10.39 28.76H2503v2.14m26.34-18.25c-.22 0-.55-.06-.77-.12-1.54-.59-1.98-2.41-1.98-4.45 0-3.24 1.2-7.03 1.27-7.32.98-3.95 3.9-8.36 6.65-9.89.71-.43 1.42-.61 2.03-.61.27 0 .55 0 .83.11.44.11.77.5.99.94.32.61.43 1.42.43 2.36 0 2.81-1.09 6.61-1.7 8.47-1.31 4.08-3.91 8.97-6.55 10.23-.32.16-.87.28-1.2.28"/><path class="Beam" fill-rule="evenodd" d="M413.522 714.653l213.287-31.658v12.637L413.522 727.29v-12.637M688.381 733.55l131.395-31.918v12.863l-131.395 31.918V733.55M951.11 677.319l147.67-38.211v12.911l-147.67 38.212v-12.912M1150.55 851.755l275.42-37.878v12.617l-275.42 37.878v-12.617M1591.8 708.403l213.47-31.658v12.637L1591.8 721.04v-12.637M1835.16 826.664l144.76 31.855v12.799l-144.76-31.855v-12.799M2112.55 708.628l101.76-32.118v13.107l-101.76 32.118v-13.107M2231.33 826.51l101.76 32.118v13.107l-101.76-32.117V826.51M2460.82 708.605l110.06-32.051v13.019l-110.06 32.051v-13.019M2592.04 826.639l133.88 31.905v12.85l-133.88-31.905v-12.85M463.826 1445.97l172.403-31.76v12.71l-172.403 31.76v-12.71M1357.92 1446.01l149.58-31.84v12.78l-149.58 31.84v-12.78M1548.42 1564.17l149.57 31.84v12.78l-149.57-31.84v-12.78M1841.65 1446.01l149.57-31.84v12.78l-149.57 31.84v-12.78M2032.15 1564.17l149.57 31.84v12.78l-149.57-31.84v-12.78M2325.38 1445.99l157.96-31.8v12.75l-157.96 31.8v-12.75M2528.45 1564.21l177.36 31.75v12.7l-177.36-31.75v-12.7M463.826 2183.43l194.54-31.7v12.67l-194.54 31.69v-12.66M1449.24 2183.47l169.87-31.76v12.71l-169.87 31.77v-12.72M1670.17 2301.71l169.87 31.76v12.72l-169.87-31.77v-12.71M1993.84 2183.47l169.87-31.76v12.71l-169.87 31.77v-12.72M2214.78 2301.71l169.86 31.76v12.72l-169.86-31.77v-12.71M383.779 410.483h93.75v12.5h-93.75v-12.5M477.529 391.733h-33v12.5h33v-12.5M1150.55 435.483h230.13v12.5h-230.13v-12.5M1259.43 416.733h33v12.5h-33v-12.5M2621.78 282.903l41.49 26.775v14.109l-41.49-26.774v-14.11M2621.78 301.653l41.49 26.775v14.109l-41.49-26.774v-14.11M688.563 1301.8l186.808 12.69v12.53l-186.808-12.69v-12.53M837.327 1153.13l29.044 6.69v8.98l-29.044-6.69v-8.98M837.327 1166.26l29.044 6.69v8.98l-29.044-6.7v-8.97M987.19 1157.53l193.61 31.7v12.67l-193.61-31.7v-12.67M1072.02 1190.17l55.76 9.13v12.67l-55.76-9.13v-12.67M2558.19 1155.87l51.25 26.41v14.07l-51.25-26.42v-14.06M2558.19 1174.62l51.25 26.41v14.07l-51.25-26.42v-14.06M721.769 2039.3l197.876 12.68v12.52l-197.876-12.67v-12.53M881.601 1890.63l29.044 6.69v8.98l-29.044-6.69v-8.98M881.601 1903.76l29.044 6.69v8.98l-29.044-6.69v-8.98M1042.53 1895.1l218.52 31.65v12.63l-218.52-31.65v-12.63M1138.43 1927.74l62.68 9.08v12.63l-62.68-9.08v-12.63"/><path class="Hook" d="M1068.79 454.639c0-.203.9-3.61 1-3.906.09-.407 1.9-6.094 5.59-11.797 2.7-4.203 12.2-16.5 11.91-16.5 0 0 7.4-9.5 7.9-22.407v-2.296c0-6.11-.79-14.704-4.31-23.407-.39-1-.8-2-1.89-1.593-1.11.39-.8 1.593-.5 2.687 1.8 7.016 2.8 14.203 2.8 21.406 0 8.407-3 12.61-4.8 15.703-6.61 11.094-15.2 16.5-19.41 17.907-.5.203-.79.593-.79 1.093v22.61c0 .687.59 1.297 1.29 1.297.5 0 1.11-.407 1.21-.797M1562.01 454.998c0 .688.31 1.25 1.47 1.25 1.15 0 1.37-.515 1.48-1.25 0 0 1.56-10.625 5.38-16.172 3.82-5.547 10.03-8.687 14.85-14.859 3.52-4.469 4.77-9.828 4.86-15.047.1-4.969-.87-9.781-1.95-13.609.34-2.11.53-4.547.53-7.391 0-5.672-2.58-11.078-4.42-13.937-.47-.75-.98-1.813-2.03-1.266-1.05.547-.58 1.766-.25 2.703 1.47 4.031 2.14 9.094 2.22 11.594.14 3.984-.17 7.875-4.17 13.859-5.99 8.938-13.91 13.906-16.5 14.86-.68.234-1.47.718-1.47.953v38.312m23.5-51.469c.34 4.813.4 9.625-5.24 16.485-3.79 4.594-9.9 9.14-14.39 9.5l-.11.422c.07-.344.13-.641.19-.875.66-2.547 2.5-6.032 6.41-9.969 4.92-4.938 7.89-8.094 10.59-11.609.8-1.032 1.94-2.797 2.55-3.954M2332.84 454.639c0-.203.91-3.61 1-3.906.09-.407 1.91-6.094 5.59-11.797 2.71-4.203 12.21-16.5 11.91-16.5 0 0 7.41-9.5 7.91-22.407v-2.296c0-6.11-.8-14.704-4.32-23.407-.39-1-.79-2-1.89-1.593-1.11.39-.79 1.593-.5 2.687 1.8 7.016 2.8 14.203 2.8 21.406 0 8.407-3 12.61-4.8 15.703-6.61 11.094-15.2 16.5-19.4 17.907-.5.203-.8.593-.8 1.093v22.61c0 .687.59 1.297 1.3 1.297.5 0 1.11-.407 1.2-.797M606.237 1327.22c0-.2.906-3.61 1-3.91.094-.4 1.906-6.09 5.594-11.79 2.703-4.21 12.203-16.5 11.906-16.5 0 0 7.406-9.5 7.906-22.41v-2.3c0-6.11-.797-14.7-4.312-23.4-.391-1-.797-2-1.891-1.6-1.109.39-.797 1.6-.5 2.69 1.797 7.02 2.797 14.2 2.797 21.41 0 8.4-3 12.61-4.797 15.7-6.609 11.09-15.203 16.5-19.406 17.91-.5.2-.797.59-.797 1.09v22.61c0 .69.594 1.3 1.297 1.3.5 0 1.109-.41 1.203-.8M2181.47 1327.22c0-.2.91-3.61 1-3.91.09-.4 1.91-6.09 5.59-11.79 2.71-4.21 12.21-16.5 11.91-16.5 0 0 7.41-9.5 7.91-22.41v-2.3c0-6.11-.8-14.7-4.32-23.4-.39-1-.79-2-1.89-1.6-1.11.39-.79 1.6-.5 2.69 1.8 7.02 2.8 14.2 2.8 21.41 0 8.4-3 12.61-4.8 15.7-6.61 11.09-15.2 16.5-19.4 17.91-.5.2-.8.59-.8 1.09v22.61c0 .69.59 1.3 1.3 1.3.5 0 1.11-.41 1.2-.8M628.374 2064.72c0-.2.906-3.61 1-3.91.094-.4 1.906-6.09 5.594-11.79 2.703-4.21 12.203-16.5 11.906-16.5 0 0 7.406-9.5 7.906-22.41v-2.3c0-6.1-.797-14.7-4.312-23.4-.391-1-.797-2-1.891-1.6-1.109.4-.797 1.6-.5 2.69 1.797 7.02 2.797 14.21 2.797 21.41 0 8.4-3 12.61-4.797 15.7-6.609 11.1-15.203 16.5-19.406 17.91-.5.2-.797.59-.797 1.09v22.61c0 .69.594 1.3 1.297 1.3.5 0 1.109-.41 1.203-.8"/><path class="Lyrics" d="M380.385 510.154l-4.906-12.843a2.403 2.403 0 01-.204-1.047c0-.906.454-1.156 2.094-1.156h1.203v-1.797h-11.203v1.797h.86c1.593.046 2.25.453 2.64 1.843l.406 1.313-4.406 11.64-4.844-12.546c-.093-.344-.203-.797-.203-1.094 0-.86.547-1.156 2.047-1.156h.906v-1.797h-11v1.797h.907c1.39.046 2.047.656 2.593 2.453l7.5 19.797h1.75l5.954-15.797 6.093 15.797h1.563l7-18.454c1.094-2.953 1.844-3.75 3.687-3.796h.36v-1.797h-9.453v1.797h.843c1.75 0 2.453.5 2.453 1.843 0 .5-.14 1.157-.39 1.813l-4.25 11.39m21.531-30.406l-9.25.563v2.14h2.406c1.891.047 2.141.36 2.141 2.5v27.907c-.047.703-.094 1-.297 1.25-.344.453-1.297.656-3.453.703h-.203v1.797h12.656v-1.797h-.203c-3.344-.11-3.797-.36-3.797-2.157V505.264c0-2.453.344-4.703.906-5.86 1.094-2.25 3.297-3.796 5.438-3.796 1.312 0 2.812.75 3.5 1.75.812 1.093 1.156 2.593 1.156 5.046v10.454c-.047.703-.094 1-.297 1.25-.359.453-1.359.656-3.5.703h-.203v1.797h12.656v-1.797h-.203c-3.297-.11-3.75-.36-3.75-2.157v-10.046c0-3.594-.156-4.5-1.047-6.204-1.25-2.453-3.75-3.843-6.75-3.843-3.25 0-5.656 1.453-7.906 4.797v-17.61m33.141 12.813c-6.141 0-10.891 5.453-10.891 12.453 0 6.844 4.797 12.344 10.797 12.344 6 0 10.797-5.5 10.797-12.407 0-6.843-4.797-12.39-10.703-12.39m0 2.14c3.5 0 5.453 3.657 5.453 10.25 0 6.657-1.953 10.25-5.547 10.25-3.594 0-5.547-3.593-5.547-10.187 0-6.813 1.891-10.313 5.641-10.313M486.885 510.154l-4.906-12.843a2.403 2.403 0 01-.204-1.047c0-.906.454-1.156 2.094-1.156h1.203v-1.797h-11.203v1.797h.86c1.593.046 2.25.453 2.64 1.843l.406 1.313-4.406 11.64-4.844-12.546c-.093-.344-.203-.797-.203-1.094 0-.86.547-1.156 2.047-1.156h.906v-1.797h-11v1.797h.907c1.39.046 2.047.656 2.593 2.453l7.5 19.797h1.75l5.954-15.797 6.093 15.797h1.563l7-18.454c1.094-2.953 1.844-3.75 3.687-3.796h.36v-1.797h-9.453v1.797h.843c1.75 0 2.453.5 2.453 1.843 0 .5-.14 1.157-.39 1.813l-4.25 11.39m33.437-4.796c.047-7.5-4.203-12.797-10.297-12.797-6.406 0-11.203 5.547-11.203 13.047 0 7.046 4.547 11.75 11.297 11.75 4.797 0 8.156-2.344 10.203-7.094l-1.75-.953c-2.047 3.843-4.156 5.343-7.5 5.343-2.547 0-4.406-1.046-5.703-3.296-.89-1.5-1.297-3.25-1.25-6h16.203m-16.156-2.157c0-1.547.203-2.64.703-4.047 1.047-3 2.656-4.453 5.11-4.453 3 0 5 2.657 5 6.703 0 1.407-.454 1.797-2.063 1.797h-8.75M555.619 500.514c0-3.156-.547-4.75-2-5.953-1.64-1.36-4.094-2-7.297-2-5.64 0-9.75 2.64-9.75 6.297 0 1.843 1.157 3.046 2.907 3.046 1.593 0 2.703-1.046 2.703-2.546 0-.657-.25-1.344-.75-2.047-.313-.36-.36-.453-.36-.703 0-1 2-1.907 4.407-1.907 1.593 0 3.343.5 4.14 1.25.953.813 1.313 2 1.313 4.25v1.953c-5.203.907-6.86 1.297-9.313 2.25-4.344 1.61-6.39 3.907-6.39 7.11 0 3.594 2.796 5.844 7.25 5.844 3.453 0 6.546-1.407 8.703-3.954.797 2.547 2.047 3.547 4.39 3.547 2.25 0 4.61-1.437 4.61-2.89 0-.36-.203-.61-.5-.61-.203 0-.407.063-.75.203-.703.297-1 .36-1.407.36-1.406 0-1.906-.906-1.906-3.453v-10.047m-4.687 6.094c0 3-.157 3.703-1 5-1.25 1.843-3.5 3.093-5.703 3.093-2.297 0-3.954-1.64-3.954-3.89 0-2.11 1.047-3.61 3.25-4.657 1.547-.703 3.5-1.203 7.407-1.843v2.297m19.797-13.297l-8.86.547v2.156h2.047c1.906.047 2.156.344 2.156 2.5V512.811c-.047.75-.093 1.047-.297 1.297-.359.453-1.359.656-3.5.703h-.203v1.797h13.344v-1.797h-.891c-3.359-.11-3.796-.36-3.796-2.157v-2.703c.046-8.39 3.046-14.797 6.937-15-.687.813-.891 1.313-.891 2.25 0 1.61 1.141 2.75 2.75 2.75 1.844 0 3.047-1.343 3.047-3.343 0-2.454-1.703-4.047-4.343-4.047-3.157 0-5.86 2.5-7.5 6.953v-6.203m35.234 12.047c.047-7.5-4.203-12.797-10.297-12.797-6.406 0-11.203 5.547-11.203 13.047 0 7.046 4.547 11.75 11.297 11.75 4.797 0 8.156-2.344 10.203-7.094l-1.75-.953c-2.047 3.843-4.156 5.343-7.5 5.343-2.547 0-4.406-1.046-5.703-3.296-.891-1.5-1.297-3.25-1.25-6h16.203m-16.156-2.157c0-1.547.203-2.64.703-4.047 1.047-3 2.656-4.453 5.109-4.453 3 0 5 2.657 5 6.703 0 1.407-.453 1.797-2.062 1.797h-8.75m24.328 7.86c-1.75 0-3.141 1.39-3.141 3.093 0 1.75 1.391 3.157 3.094 3.157a3.148 3.148 0 003.156-3.157c0-1.703-1.406-3.093-3.109-3.093M1061.55 480.498h-10.3v2.36h1.25c2.85.093 3.8.453 4.6 1.64v21.266c0 6.797-.96 8.25-5.8 8.5v2.344h14.25v-2.344c-4.8-.25-5.75-1.703-5.75-8.5v-18.563l22.3 30.11h2.11v-25.953c0-6.797.95-8.25 5.79-8.5v-2.36h-14.25v2.36c4.8.25 5.75 1.64 5.75 8.5v15.703l-19.95-26.563m40.83 12.063c-6.14 0-10.89 5.453-10.89 12.453 0 6.844 4.79 12.344 10.79 12.344 6 0 10.8-5.5 10.8-12.407 0-6.843-4.8-12.39-10.7-12.39m0 2.14c3.5 0 5.45 3.657 5.45 10.25 0 6.657-1.95 10.25-5.55 10.25-3.59 0-5.54-3.593-5.54-10.187 0-6.813 1.89-10.313 5.64-10.313m16.03 31.11c4.5-3.11 6.56-6.157 6.56-9.657 0-3-1.66-4.953-4.11-4.953-1.84 0-3.25 1.313-3.25 3 0 1.813 1.36 2.953 3.45 2.953.25 0 .6 0 .75-.046h.16c.25 0 .34.156.34.453 0 2.093-1.7 4.453-5.04 6.797l1.14 1.453M1148.8 493.311l-8.66.547v2.156h1.82c1.89.047 2.14.344 2.14 2.5V512.811c-.05.75-.1 1.047-.3 1.297-.34.453-1.3.656-3.45.703h-.21v1.797h12.66v-1.797h-.2c-3.35-.11-3.8-.36-3.8-2.157V505.264c0-2.453.34-4.703.91-5.86 1.04-2.25 3.29-3.796 5.43-3.796 1.32 0 2.82.703 3.57 1.75.75 1.093 1.09 2.593 1.09 5v10.453c-.05.75-.09 1.047-.3 1.297-.36.453-1.36.656-3.5.703h-.2v1.797h12.66v-1.797h-.21c-3.29-.11-3.75-.36-3.75-2.157v-10.046c0-3.594-.15-4.5-1.04-6.204-1.25-2.39-3.75-3.843-6.75-3.843-3.25 0-5.71 1.5-7.91 4.797v-4.047m33.14-.75c-6.14 0-10.89 5.453-10.89 12.453 0 6.844 4.8 12.344 10.8 12.344 6 0 10.79-5.5 10.79-12.407 0-6.843-4.79-12.39-10.7-12.39m0 2.14c3.5 0 5.45 3.657 5.45 10.25 0 6.657-1.95 10.25-5.54 10.25-3.6 0-5.55-3.593-5.55-10.187 0-6.813 1.89-10.313 5.64-10.313M1222.88 493.311v-9.907h-2.05c-.5 6.5-2.7 9.797-6.75 10.11v1.937h4.09v12.75c0 3.5.1 4.75.6 5.907.81 2.093 2.81 3.25 5.7 3.25 4.5 0 7.41-3.407 7.41-8.704 0-.296 0-.64-.05-1.14h-2.11c-.14 4.5-1.45 6.797-3.89 6.797-1.16 0-2.16-.61-2.5-1.453-.31-.704-.45-1.954-.45-3.75v-13.657h7.34v-2.14h-7.34m19.68-13.563l-9.25.563v2.14h2.41c1.89.047 2.14.36 2.14 2.5v27.907c-.05.703-.09 1-.3 1.25-.34.453-1.29.656-3.45.703h-.2v1.797h12.65v-1.797h-.2c-3.34-.11-3.8-.36-3.8-2.157V505.264c0-2.453.35-4.703.91-5.86 1.09-2.25 3.3-3.796 5.44-3.796 1.31 0 2.81.75 3.5 1.75.81 1.093 1.15 2.593 1.15 5.046v10.454c-.04.703-.09 1-.29 1.25-.36.453-1.36.656-3.5.703h-.21v1.797h12.66v-1.797h-.2c-3.3-.11-3.75-.36-3.75-2.157v-10.046c0-3.594-.16-4.5-1.05-6.204-1.25-2.453-3.75-3.843-6.75-3.843-3.25 0-5.66 1.453-7.91 4.797v-17.61m30.85 13.563l-9.39.547v2.156h2.54c1.9.047 2.15.344 2.15 2.5V512.811c-.05.75-.1 1.047-.3 1.297-.35.453-1.3.656-3.45.703h-.35v1.797h12.95v-1.797h-.35c-3.35-.11-3.8-.36-3.8-2.157v-19.343m-2.35-12.453c-1.6 0-2.9 1.296-2.9 2.89 0 1.61 1.3 2.906 2.86 2.906 1.64 0 2.94-1.296 2.94-2.906 0-1.594-1.3-2.89-2.9-2.89m17.79 12.453l-8.66.547v2.156h1.81c1.89.047 2.14.344 2.14 2.5V512.811c-.04.75-.09 1.047-.29 1.297-.35.453-1.3.656-3.46.703h-.2v1.797h12.66v-1.797h-.21c-3.34-.11-3.79-.36-3.79-2.157V505.264c0-2.453.34-4.703.9-5.86 1.05-2.25 3.3-3.796 5.44-3.796 1.31 0 2.81.703 3.56 1.75.75 1.093 1.1 2.593 1.1 5v10.453c-.05.75-.1 1.047-.3 1.297-.36.453-1.36.656-3.5.703h-.2v1.797h12.65v-1.797h-.2c-3.3-.11-3.75-.36-3.75-2.157v-10.046c0-3.594-.16-4.5-1.05-6.204-1.25-2.39-3.75-3.843-6.75-3.843-3.25 0-5.7 1.5-7.9 4.797v-4.047m30.18 19.593c-2.75-.046-2.89-.093-3.5-.453-.34-.187-.59-.75-.59-1.297 0-1.5 1.34-2.14 4.7-2.25 4.69-.093 5.44-.203 7.14-.953 3-1.343 4.66-3.937 4.66-7.25 0-2-.45-3.25-1.8-4.89.85-.907 1.3-1.203 1.69-1.203.25 0 .41.156.5.703.2 1.203 1 1.843 2.25 1.843 1.31 0 2.27-1.046 2.27-2.39 0-1.703-1.36-2.906-3.32-2.906-1.59 0-2.5.5-4.79 2.593-2.1-1.39-3.71-1.89-6.21-1.89-5.95 0-9.84 3.297-9.84 8.297 0 2.953 1.59 5.453 4.2 6.703-3.36.75-4.75 2.25-4.75 5 0 2.203 1 3.5 3.35 4.297-3.1 1.156-4.6 2.703-4.6 4.75 0 1.5 1 2.906 2.6 3.75 1.95 1 4.34 1.406 7.95 1.406 8.34 0 12.5-2.656 12.5-7.906 0-2.5-1.16-4.5-2.95-5.25-1.35-.5-2.96-.704-6.35-.704h-5.11m2.96-18.203c3.09 0 4.84 2.157 4.84 6.063 0 3.89-1.89 6.25-5.05 6.25-3.09 0-5.04-2.36-5.04-6.11 0-3.953 1.9-6.203 5.25-6.203m-.46 22.5c4.16 0 4.46 0 5.16.11 2.05.203 3.25 1.297 3.25 2.89 0 2.86-3.25 4.5-8.8 4.5-4.25 0-6.61-1.25-6.61-3.5 0-1.64.91-2.75 3.3-4h3.7M1372.92 505.358c.05-7.5-4.2-12.797-10.29-12.797-6.41 0-11.21 5.547-11.21 13.047 0 7.046 4.55 11.75 11.3 11.75 4.8 0 8.16-2.344 10.2-7.094l-1.75-.953c-2.04 3.843-4.15 5.343-7.5 5.343-2.54 0-4.4-1.046-5.7-3.296-.89-1.5-1.3-3.25-1.25-6h16.2m-16.15-2.157c0-1.547.2-2.64.7-4.047 1.05-3 2.66-4.453 5.11-4.453 3 0 5 2.657 5 6.703 0 1.407-.45 1.797-2.06 1.797h-8.75m26.89-23.453l-9.25.563v2.14h2.45c1.85.047 2.1.36 2.1 2.5v27.86c-.05.75-.1 1.047-.3 1.297-.36.453-1.3.656-3.45.703h-.35v1.797h12.94v-1.797h-.34c-3.35-.11-3.8-.36-3.8-2.157v-32.906m25.03 13.016h-1.75l-1.45 1.797c-1.8-1.407-3.6-2-6.1-2-4.4 0-7.29 2.843-7.29 7.25 0 1.953.64 3.593 1.75 4.593 1.14 1.047 2.29 1.547 5.29 2.25l2.64.61c3.96.937 5.36 1.937 5.36 3.937 0 2.36-2.04 4-4.95 4-4.25 0-7.25-2.687-8.45-7.687h-2v9.437h1.75l1.75-2.047c2.04 1.657 4.29 2.454 6.86 2.454 4.89 0 8.14-3.047 8.14-7.704 0-2.203-.71-3.89-2.1-5.046-1.2-1.047-2.2-1.454-5.25-2.094l-2.5-.563c-2.75-.593-2.75-.593-3.65-1.093-1.1-.5-1.75-1.547-1.75-2.657 0-2.047 1.9-3.437 4.65-3.437 1.89 0 3.46.64 4.85 2 1.11 1.094 1.65 2.094 2.45 4.39h1.75v-8.39m26.89 12.594c.05-7.5-4.2-12.797-10.3-12.797-6.4 0-11.2 5.547-11.2 13.047 0 7.046 4.55 11.75 11.3 11.75 4.79 0 8.15-2.344 10.2-7.094l-1.75-.953c-2.05 3.843-4.16 5.343-7.5 5.343-2.55 0-4.41-1.046-5.7-3.296-.89-1.5-1.3-3.25-1.25-6h16.2m-16.16-2.157c0-1.547.21-2.64.71-4.047 1.04-3 2.65-4.453 5.11-4.453 3 0 5 2.657 5 6.703 0 1.407-.46 1.797-2.07 1.797h-8.75M1542.35 493.311l-8.89.547v2.156h2.04c1.89.047 2.14.344 2.14 2.5V512.811c-.04.75-.09 1.047-.29 1.297-.35.453-1.3.656-3.46.703h-.18v1.797h12.59v-1.797h-.2c-3.3-.11-3.75-.36-3.75-2.203v-9.25c0-4.454 2.45-7.75 5.7-7.75 2.84 0 4.3 2.046 4.3 6.093v11.157c-.05.656-.1 1-.35 1.25-.29.453-1.29.656-3.45.703h-.2v1.797H1561v-1.797h-.2c-3.3-.11-3.75-.36-3.75-2.157v-8.843c0-5 2.25-8.203 5.75-8.203 2.86 0 4.25 2.156 4.25 6.656V512.811c-.05.703-.09 1.047-.34 1.297-.3.453-1.3.656-3.46.703h-.2v1.797h12.66v-1.797h-.21c-3.29-.11-3.75-.36-3.75-2.203v-11.344c0-3.11-.29-4.156-1.59-5.86-1.45-1.843-3.5-2.843-5.91-2.843-3.25 0-5.65 1.547-7.79 5-.86-3-3.57-5-6.91-5-3.05 0-5.25 1.453-7.2 4.593v-3.843m56.98 7.203c0-3.156-.55-4.75-2-5.953-1.64-1.36-4.09-2-7.3-2-5.64 0-9.75 2.64-9.75 6.297 0 1.843 1.16 3.046 2.91 3.046 1.59 0 2.7-1.046 2.7-2.546 0-.657-.25-1.344-.75-2.047-.31-.36-.36-.453-.36-.703 0-1 2-1.907 4.41-1.907 1.59 0 3.34.5 4.14 1.25.95.813 1.31 2 1.31 4.25v1.953c-5.2.907-6.86 1.297-9.31 2.25-4.34 1.61-6.39 3.907-6.39 7.11 0 3.594 2.8 5.844 7.25 5.844 3.45 0 6.55-1.407 8.7-3.954.8 2.547 2.05 3.547 4.39 3.547 2.25 0 4.61-1.437 4.61-2.89 0-.36-.2-.61-.5-.61-.2 0-.4.063-.75.203-.7.297-1 .36-1.4.36-1.41 0-1.91-.906-1.91-3.453v-10.047m-4.69 6.094c0 3-.15 3.703-1 5-1.25 1.843-3.5 3.093-5.7 3.093-2.3 0-3.95-1.64-3.95-3.89 0-2.11 1.04-3.61 3.25-4.657 1.54-.703 3.5-1.203 7.4-1.843v2.297m18.3-13.297v-9.907h-2.05c-.5 6.5-2.7 9.797-6.75 10.11v1.937h4.1v12.75c0 3.5.09 4.75.59 5.907.81 2.093 2.81 3.25 5.7 3.25 4.5 0 7.41-3.407 7.41-8.704 0-.296 0-.64-.05-1.14h-2.11c-.14 4.5-1.45 6.797-3.89 6.797-1.15 0-2.15-.61-2.5-1.453-.31-.704-.45-1.954-.45-3.75v-13.657h7.34v-2.14h-7.34M1652.38 493.311v-9.907h-2.05c-.5 6.5-2.7 9.797-6.75 10.11v1.937h4.1v12.75c0 3.5.09 4.75.59 5.907.81 2.093 2.81 3.25 5.7 3.25 4.5 0 7.41-3.407 7.41-8.704 0-.296 0-.64-.05-1.14h-2.11c-.14 4.5-1.45 6.797-3.89 6.797-1.15 0-2.15-.61-2.5-1.453-.31-.704-.45-1.954-.45-3.75v-13.657h7.34v-2.14h-7.34m33.33 12.047c.04-7.5-4.21-12.797-10.3-12.797-6.41 0-11.2 5.547-11.2 13.047 0 7.046 4.54 11.75 11.29 11.75 4.8 0 8.16-2.344 10.21-7.094l-1.75-.953c-2.05 3.843-4.16 5.343-7.5 5.343-2.55 0-4.41-1.046-5.71-3.296-.89-1.5-1.29-3.25-1.25-6h16.21m-16.16-2.157c0-1.547.2-2.64.7-4.047 1.05-3 2.66-4.453 5.11-4.453 3 0 5 2.657 5 6.703 0 1.407-.45 1.797-2.06 1.797h-8.75m27.8-9.89l-8.86.547v2.156h2.04c1.91.047 2.16.344 2.16 2.5V512.811c-.05.75-.09 1.047-.3 1.297-.36.453-1.36.656-3.5.703h-.2v1.797h13.34v-1.797h-.89c-3.36-.11-3.79-.36-3.79-2.157v-2.703c.04-8.39 3.04-14.797 6.93-15-.68.813-.89 1.313-.89 2.25 0 1.61 1.14 2.75 2.75 2.75 1.85 0 3.05-1.343 3.05-3.343 0-2.454-1.7-4.047-4.34-4.047-3.16 0-5.86 2.5-7.5 6.953v-6.203m31.62-.547h-1.75l-1.45 1.797c-1.8-1.407-3.59-2-6.09-2-4.41 0-7.3 2.843-7.3 7.25 0 1.953.64 3.593 1.75 4.593 1.14 1.047 2.3 1.547 5.3 2.25l2.64.61c3.95.937 5.36 1.937 5.36 3.937 0 2.36-2.05 4-4.96 4-4.25 0-7.25-2.687-8.45-7.687h-2v9.437h1.75l1.75-2.047c2.05 1.657 4.3 2.454 6.86 2.454 4.89 0 8.14-3.047 8.14-7.704 0-2.203-.7-3.89-2.09-5.046-1.21-1.047-2.21-1.454-5.25-2.094l-2.5-.563c-2.75-.593-2.75-.593-3.66-1.093-1.09-.5-1.75-1.547-1.75-2.657 0-2.047 1.91-3.437 4.66-3.437 1.89 0 3.45.64 4.84 2 1.11 1.094 1.66 2.094 2.45 4.39h1.75v-8.39m10.33 18.297c-1.75 0-3.14 1.39-3.14 3.093 0 1.75 1.39 3.157 3.09 3.157 1.75 0 3.16-1.407 3.16-3.157 0-1.703-1.41-3.093-3.11-3.093"/><path class="HairpinSegment" fill="none" stroke="#000" stroke-width="3" stroke-linecap="square" stroke-linejoin="bevel" d="M1419.5 2395.19l1020-15M1419.5 2365.19l1020 15"/><path class="PedalSegment" fill="none" stroke="#000" stroke-width="2.75" stroke-linecap="square" stroke-linejoin="bevel" d="M400.025 884.314l12 30M412.025 914.314h379.504M791.529 914.314l12-30M937.614 884.314l12 30M949.614 914.314h477.846M1427.46 914.314l12-30M1578.3 884.314l12 30M1590.3 914.314h391.12M1981.42 914.314l12-30M2099.05 884.314l12 30M2111.05 914.314h223.54M2334.59 914.314l12-30M2447.33 884.314l12 30M2459.33 914.314h268.09M2727.42 914.314l12-30M450.33 1621.81l12 30M462.33 1651.81h499.364M961.694 1651.81l12-30M1344.43 1621.81l12 30M1356.43 1651.81h343.06M1699.49 1651.81l12-30M1828.15 1621.81l12 30M1840.15 1651.81h343.07M2183.22 1651.81l12-30M2311.88 1621.81l12 30M2323.88 1651.81h383.42M2707.3 1651.81l12-30M450.33 2428.56l12 30M462.33 2458.56h554.71M1017.04 2458.56l12-30M1435.74 2428.56l12 30M1447.74 2458.56h393.8M1841.54 2458.56l12-30M1980.35 2428.56l12 30M1992.35 2458.56h393.79M2386.14 2458.56l12-30M2524.95 2428.56l12 30M2536.95 2458.56h239.4M2776.35 2458.56v-30"/><path class="LyricsLineSegment" fill="none" stroke="#000" stroke-width="3.75" stroke-linejoin="bevel" d="M1624.55 502.5h16.88M1195.05 502.5h16.87"/><path class="NoteDot" d="M729.806 1464.31c0 2.77 2.234 5 5 5 2.765 0 5-2.23 5-5 0-2.76-2.235-5-5-5-2.766 0-5 2.24-5 5M998.69 1439.31c0 2.77 2.23 5 5 5s5-2.23 5-5c0-2.76-2.23-5-5-5s-5 2.24-5 5M763.011 2201.81c0 2.77 2.235 5 5 5 2.766 0 5-2.23 5-5 0-2.76-2.234-5-5-5-2.765 0-5 2.24-5 5M1054.03 2176.81c0 2.77 2.24 5 5 5 2.77 0 5-2.23 5-5 0-2.76-2.23-5-5-5-2.76 0-5 2.24-5 5M2549.95 2301.81c0 2.77 2.23 5 5 5 2.76 0 5-2.23 5-5 0-2.76-2.24-5-5-5-2.77 0-5 2.24-5 5M2549.95 2251.81c0 2.77 2.23 5 5 5 2.76 0 5-2.23 5-5 0-2.76-2.24-5-5-5-2.77 0-5 2.24-5 5M2549.95 2226.81c0 2.77 2.23 5 5 5 2.76 0 5-2.23 5-5 0-2.76-2.24-5-5-5-2.77 0-5 2.24-5 5M1419.17 354.232c0 2.766 2.23 5 5 5s5-2.234 5-5c0-2.765-2.23-5-5-5s-5 2.235-5 5M1419.17 304.232c0 2.766 2.23 5 5 5s5-2.234 5-5c0-2.765-2.23-5-5-5s-5 2.235-5 5M2472.32 354.232c0 2.766 2.24 5 5 5 2.77 0 5-2.234 5-5 0-2.765-2.23-5-5-5-2.76 0-5 2.235-5 5M1369.42 1276.81c0 2.77 2.24 5 5 5 2.77 0 5-2.23 5-5 0-2.76-2.23-5-5-5-2.76 0-5 2.24-5 5M2336.88 1226.81c0 2.77 2.23 5 5 5 2.76 0 5-2.23 5-5 0-2.76-2.24-5-5-5-2.77 0-5 2.24-5 5M1460.74 2014.31c0 2.77 2.23 5 5 5 2.76 0 5-2.23 5-5 0-2.76-2.24-5-5-5-2.77 0-5 2.24-5 5M1711.42 2014.31c0 2.77 2.23 5 5 5 2.76 0 5-2.23 5-5 0-2.76-2.24-5-5-5-2.77 0-5 2.24-5 5"/><path class="Page" d="M2835.41 3969.33v.63l-8.47 26.15h-2.61l7.92-23.87h-8.67c-1.1 0-1.93.2-2.5.6-.57.4-1.29 1.28-2.14 2.65l-.69-.31 2.36-5.85h14.8"/><path class="Bracket" d="M146.946 565.524c6.4-9.408 19.144-28.845 19.144-64.686 0-45.327-14.273-91.197-14.273-119.264 0-30.321 12.97-59.088 13.367-59.865.397-.856.34-1.944-.057-2.333-.396-.31-1.132 0-1.642.7-.453.777-19.881 27.756-19.881 68.262 0 44.083 12.688 74.793 12.688 132.015 0 10.884-3.399 28.455-12.348 43.538-.623.777-.68 2.177-.113 3.11v.077l.113.156c8.95 15.083 12.348 32.576 12.348 43.46 0 57.3-12.688 88.01-12.688 132.015 0 40.506 19.428 67.64 19.88 68.34.51.7 1.134 1.088 1.643.7.51-.467.51-1.322.057-2.333-.51-1.01-13.367-29.544-13.367-59.865 0-28.067 14.273-74.093 14.273-119.342 0-36.308-12.744-55.356-19.144-64.685M146.946 1370.56c6.4-6.853 19.144-21.014 19.144-47.125 0-33.022-14.273-66.44-14.273-86.887 0-22.09 12.97-43.047 13.367-43.613.397-.623.34-1.416-.057-1.7-.396-.226-1.132 0-1.642.51-.453.567-19.881 20.221-19.881 49.73 0 32.116 12.688 54.49 12.688 96.177 0 7.93-3.399 20.73-12.348 31.719-.623.566-.68 1.586-.113 2.265v.057l.113.113c8.95 10.988 12.348 23.732 12.348 31.662 0 41.744-12.688 64.117-12.688 96.176 0 29.51 19.428 49.277 19.88 49.787.51.51 1.134.793 1.643.51.51-.34.51-.963.057-1.7-.51-.736-13.367-21.523-13.367-43.613 0-20.447 14.273-53.978 14.273-86.943 0-26.451-12.744-40.328-19.144-47.125M146.946 2108.06c6.4-6.853 19.144-21.014 19.144-47.125 0-33.022-14.273-66.44-14.273-86.887 0-22.09 12.97-43.047 13.367-43.613.397-.623.34-1.416-.057-1.7-.396-.226-1.132 0-1.642.51-.453.567-19.881 20.221-19.881 49.73 0 32.116 12.688 54.49 12.688 96.177 0 7.93-3.399 20.73-12.348 31.719-.623.566-.68 1.586-.113 2.265v.057l.113.113c8.95 10.988 12.348 23.732 12.348 31.662 0 41.744-12.688 64.117-12.688 96.176 0 29.51 19.428 49.277 19.88 49.787.51.51 1.134.793 1.643.51.51-.34.51-.963.057-1.7-.51-.736-13.367-21.523-13.367-43.613 0-20.447 14.273-53.978 14.273-86.943 0-26.451-12.744-40.328-19.144-47.125"/></svg>
