<svg xmlns="http://www.w3.org/2000/svg" width="816" height="1056" baseProfile="full" viewBox="0 0 3060 3960"><title>general_29054120_690a831e247a0 (1)</title><desc>Generated by MuseScore Studio 4.6.3</desc><path fill="#fff" fill-rule="evenodd" d="M0 0h3060v3960H0z"/><path fill="none" stroke="#000" stroke-linejoin="bevel" stroke-width="2.7" d="M400.4 634.2h2447M400.4 659h2447M400.4 683.8h2447M400.4 708.6h2447M400.4 733.4h2447M400.4 868.9h2447M400.4 893.7h2447M400.4 918.5h2447M400.4 943.3h2447M400.4 968.1h2447M400.4 1082.1h2447M400.4 1106.9h2447M400.4 1131.7h2447M400.4 1156.5h2447M400.4 1181.3h2447M366.4 1406.7h2481M366.4 1431.5h2481M366.4 1456.3h2481M366.4 1481.1h2481M366.4 1505.9h2481M366.4 1649.8h2481M366.4 1674.6h2481M366.4 1699.4h2481M366.4 1724.2h2481M366.4 1749h2481M366.4 1905.4h2481M366.4 1930.2h2481M366.4 1955h2481M366.4 1979.8h2481M366.4 2004.6h2481M366.4 2230h2481M366.4 2254.8h2481M366.4 2279.6h2481M366.4 2304.4h2481M366.4 2329.2h2481M366.4 2466.8h2481M366.4 2491.6h2481M366.4 2516.4h2481M366.4 2541.2h2481M366.4 2566h2481M366.4 2697.5h2481M366.4 2722.3h2481M366.4 2747.1h2481M366.4 2771.9h2481M366.4 2796.7h2481M366.4 3022h2481M366.4 3046.8h2481M366.4 3071.6h2481M366.4 3096.4h2481M366.4 3121.2h2481M366.4 3220.4h2481M366.4 3245.2h2481M366.4 3270h2481M366.4 3294.8h2481M366.4 3319.6h2481M366.4 3474.6h2481M366.4 3499.4h2481M366.4 3524.2h2481M366.4 3549h2481M366.4 3573.8h2481" class="StaffLines"/><path d="M1211.6 373.7v-4q0-5.2.7-7.2c1.2-3 3.6-5 6.4-5q2.3 0 2.4 1.2.1.3-.4 1-.7 1-.7 2.2c0 2 1.7 3.7 3.9 3.7s3.9-1.8 3.9-4.3c0-4-3.5-6.6-9.2-6.6q-7.2 0-10.8 5.2c-2.1 3-2.8 6-2.8 11.6v2.2h-6.2v3h6.2V401q0 1.3-.4 1.8-.6 1-4.9 1h-.3v2.5h18.8v-2.5h-1.3c-4.7-.1-5.3-.5-5.3-3v-24h7.7v-3zm23 0-12.3.7v3h2.8c2.7 0 3 .5 3 3.5v20q0 1.4-.4 1.8-.6 1-4.9 1h-.3v2.5h18.7v-2.5h-1.2c-4.7-.1-5.3-.5-5.3-3V397c0-11.7 4.2-20.7 9.7-21-1 1.1-1.3 1.8-1.3 3.2 0 2.2 1.6 3.8 3.9 3.8 2.5 0 4.2-1.9 4.2-4.7 0-3.4-2.3-5.6-6-5.6-4.5 0-8.2 3.5-10.5 9.7zm34.5-1c-8.7 0-15.3 7.6-15.3 17.4 0 9.6 6.7 17.3 15.1 17.3s15.2-7.7 15.2-17.4-6.8-17.3-15-17.3m0 3q7.5.2 7.6 14.3c0 9.3-2.7 14.4-7.8 14.4q-7.6-.2-7.7-14.3 0-14.3 7.9-14.4m31.4-2-12.5.8v3h2.9c2.7 0 3 .5 3 3.5v20q0 1.4-.4 1.8c-.5.7-1.8 1-4.9 1h-.2v2.5h17.6v-2.5h-.3c-4.6-.1-5.2-.5-5.2-3v-13c0-6.3 3.4-10.9 8-10.9q6 0 6 8.6V401q-.1 1.3-.5 1.7-.4 1-4.8 1h-.3v2.5h17.7v-2.5h-.3c-4.6-.1-5.2-.5-5.2-3v-12.4c0-7 3.1-11.5 8-11.5q6 0 6 9.3V401q-.1 1.4-.5 1.8-.6 1-4.9 1h-.2v2.5h17.7v-2.5h-.3c-4.6-.1-5.3-.5-5.3-3v-16c0-4.3-.4-5.8-2.2-8.2q-3.1-3.9-8.3-4-6.6-.1-10.9 7c-1.2-4.1-5-7-9.6-7q-6.3-.1-10.1 6.5zm111.9-18h-42l-1 19.6h3c1-7.1 2.9-16.2 11.8-16.2q3.5-.1 3.4 2.5v36.1c0 3.6 0 3.7-.5 4.4s-1.9 1-5.9 1h-1.8v3.2h24V403h-1.8c-4 0-5.2-.2-5.8-1-.4-.6-.4-.7-.4-4.3v-36.1q0-2.6 3.3-2.5c9 0 10.8 9.2 11.7 16.2h3zm17.4-1-13 .7v3h3.4c2.7 0 3 .5 3 3.5v39q0 1.4-.4 1.8c-.5.7-1.8 1-4.8 1h-.3v2.5h17.7v-2.5h-.3c-4.7-.1-5.3-.5-5.3-3v-10.4c0-3.4.5-6.5 1.3-8.1 1.5-3.2 4.6-5.4 7.6-5.4 1.8 0 4 1 5 2.5q1.5 2 1.5 7v14.7q0 1.4-.4 1.7-.5 1-5 1h-.2v2.5h17.7v-2.5h-.2c-4.7-.1-5.3-.5-5.3-3v-14c0-5.1-.2-6.4-1.5-8.8a10 10 0 0 0-9.4-5.3q-6.7-.2-11 6.7zm61.2 35.9c.1-10.5-5.9-18-14.4-18-9 0-15.7 7.8-15.7 18.3 0 9.9 6.4 16.5 15.8 16.5q10.2 0 14.3-10l-2.4-1.3c-2.9 5.4-5.8 7.5-10.5 7.5a9 9 0 0 1-8-4.6 15 15 0 0 1-1.7-8.4zm-22.6-3c0-5 2.3-12 8.1-12 4.2 0 7 3.8 7 9.4 0 2-.6 2.6-2.8 2.6zm72-32.9c-14.7 0-24.3 12.1-24.3 26.4 0 14 9.5 26.3 24 26.3 13.8 0 24.1-11.4 24.1-26.3s-10.3-26.4-23.8-26.4m0 3.3a13 13 0 0 1 11 6c2.7 4.2 3.6 8.4 3.6 17s-1 12.9-3.5 17q-3.8 6-11.4 6.1-7.5 0-11.3-6c-2.7-4.2-3.5-8.5-3.5-17.2 0-8.5 1-12.6 3.5-16.9q3.8-6 11.5-6m41.2 15.7-12.2.8v3h2.5c2.7 0 3 .5 3 3.5v34.2q0 1.3-.3 1.8-.6.9-4.9 1h-.3v2.5h18.2V418h-.7c-4.7-.2-5.3-.5-5.3-3v-13.3c2.2 4 4.8 5.7 9.2 5.7 9.3 0 14.1-9.2 14.1-17.5 0-8-4.8-17.2-13.7-17.2-4.3 0-7.2 1.8-9.6 6zm8.3 2.7c4.9 0 7.7 4.9 7.7 13 0 9-2.8 14.2-7.9 14.2-5 0-8.2-5.2-8.2-13.2 0-8.8 3.1-14 8.4-14m50.3 14.2c0-10.5-5.9-18-14.4-18-9 0-15.7 7.8-15.7 18.3 0 9.9 6.4 16.5 15.8 16.5q10 0 14.3-10l-2.5-1.3c-2.8 5.4-5.8 7.5-10.5 7.5a9 9 0 0 1-8-4.6 15 15 0 0 1-1.7-8.4zm-22.6-3c0-5 2.2-12 8.1-12 4.2 0 7 3.8 7 9.4 0 2-.6 2.6-2.9 2.6zm39-13.9-12 .8v3h2.4c2.7 0 3 .5 3 3.5v20q0 1.4-.4 1.8c-.5.7-1.8 1-4.8 1h-.3v2.5h17.7v-2.5h-.2c-4.7-.1-5.4-.5-5.4-3v-10.4c0-3.4.5-6.5 1.3-8.1 1.5-3.2 4.6-5.4 7.6-5.4 1.8 0 4 1 5 2.5q1.5 2 1.5 7V401q0 1.4-.4 1.8-.6 1-4.9 1h-.3v2.5h17.7v-2.5h-.2c-4.7-.1-5.3-.5-5.3-3v-14c0-5.1-.2-6.4-1.5-8.8a10 10 0 0 0-9.4-5.3c-4.6 0-8 2-11 6.7zm50.2 32.6h23.5q9.2 0 14.7-3c7-4 11-12 11-22.5 0-9.7-3.5-17.3-10-21.4-3.8-2.5-9-3.6-17-3.6H1707v3.3h1.3c4 0 5.3.3 5.8 1s.4.7.4 4.3v33.3c0 3.6 0 3.7-.4 4.4s-1.9.9-5.8 1h-1.3zm19.4-3.3c-3.6 0-4-.4-4-3.8V363c0-3.4.5-4 4-4h3.6c12 0 17 6.6 17 22 0 15.7-4.5 22-15.9 22zm50.8-30.3c-8.6 0-15.3 7.6-15.3 17.4 0 9.6 6.7 17.3 15.1 17.3s15.2-7.7 15.2-17.4-6.8-17.3-15-17.3m0 3q7.5.2 7.6 14.3c0 9.3-2.7 14.4-7.8 14.4q-7.6-.2-7.7-14.3 0-14.3 7.9-14.4m35-3c-8.7 0-15.3 7.6-15.3 17.4 0 9.6 6.7 17.3 15.1 17.3s15.2-7.7 15.2-17.4-6.8-17.3-15-17.3m0 3q7.5.2 7.6 14.3c0 9.3-2.7 14.4-7.8 14.4q-7.6-.2-7.7-14.3 0-14.3 7.9-14.4m31.2-2-12.4.8v3h2.8c2.7 0 3 .5 3 3.5v20q.1 1.4-.4 1.8-.6 1-4.9 1h-.2v2.5h18.6v-2.5h-1.2c-4.7-.1-5.3-.5-5.3-3V397c0-11.7 4.2-20.7 9.7-21-1 1.1-1.3 1.8-1.3 3.2 0 2.2 1.6 3.8 3.9 3.8 2.6 0 4.3-1.9 4.3-4.7 0-3.4-2.4-5.6-6.1-5.6-4.4 0-8.2 3.5-10.5 9.7zM2586.9 363.5h-30v2.3h.8c2.9 0 3.9.3 4.2.8s.3.5.3 3v23.8c0 2.6 0 2.7-.3 3.2s-1.3.7-4.2.7h-.8v2.3h30.7l1-13.3h-2.2c-2 8.8-4 10.8-11.7 11h-3.3c-3-.2-3.7-.7-3.6-2.5v-12.7h1c5.2-.2 7 1.7 7.3 7.2h2.3v-16.4h-2.3c-.4 4.9-2.3 6.9-7 6.9h-1.2v-11.5c-.1-2 .4-2.4 3-2.5h2.7c8.2 0 10.3 1.8 11.8 10.5h2.2zm19 30-5.8-13.2-.2-1c0-1 .6-1.2 2.7-1.2h.7v-1.8h-11.8v1.8h.4c1.9 0 2.6.5 3.3 2.2l8.6 20h1.7l7.1-17.5c1.4-3.4 2.6-4.5 4.7-4.7h.2v-1.8h-10v1.8h.7q2.6 0 2.7 1.7 0 1-.5 2.1zm33.9-10.1c0-3.2-.6-4.7-2-6q-2.5-2-7.3-2c-5.7 0-9.8 2.7-9.8 6.3q.1 3 3 3 2.4-.1 2.6-2.5 0-1-.7-2l-.4-.7c0-1 2-2 4.4-2 1.6 0 3.4.6 4.2 1.3 1 .9 1.3 2 1.3 4.3v2c-5.2.9-6.9 1.2-9.3 2.2q-6.5 2.4-6.4 7.1c0 3.6 2.8 5.8 7.2 5.8q5.4 0 8.7-4c.8 2.6 2 3.6 4.4 3.6 2.3 0 4.6-1.4 4.6-2.8q0-.7-.5-.7l-.7.2q-1 .4-1.4.4-2 .2-2-3.4zm-4.6 6.1c0 3-.2 3.7-1 5a7 7 0 0 1-5.7 3c-2.3 0-4-1.5-4-3.8q0-3.1 3.3-4.7c1.5-.7 3.5-1.2 7.4-1.8zm19.9-13.3-8.7.5v2.2h1.8c2 0 2.2.3 2.2 2.5v14.3q0 1-.3 1.3-.4.7-3.5.7h-.2v1.8h12.7v-1.8h-.2c-3.4-.1-3.8-.4-3.8-2.2v-7.3q0-3.9.9-6c1-2.2 3.3-3.7 5.4-3.7 1.3 0 2.8.7 3.6 1.7q1 1.5 1 5v10.5q0 1-.2 1.3-.5.7-3.5.7h-.2v1.8h12.6v-1.8h-.2c-3.3-.1-3.7-.4-3.7-2.2v-10c0-3.6-.2-4.5-1-6.2a7 7 0 0 0-6.8-3.8c-3.3 0-5.7 1.5-8 4.7zm43.9 12c0-7.5-4.2-12.7-10.3-12.7-6.4 0-11.2 5.5-11.2 13 0 7 4.5 11.7 11.3 11.7q7.1 0 10.2-7l-1.8-1c-2 3.8-4.1 5.3-7.5 5.3q-3.8 0-5.7-3.3c-.9-1.5-1.3-3.2-1.2-6zm-16.2-2.1c0-3.5 1.6-8.5 5.8-8.5 3 0 5 2.6 5 6.7q.2 2-2 1.8zm37.2-10.4h-1.7l-1.5 1.8a9 9 0 0 0-6-2c-4.5 0-7.4 2.8-7.4 7.2 0 4.7 3 5.9 7 6.8l2.7.7c4 .9 5.4 1.9 5.4 3.9 0 2.4-2 4-5 4q-6.4-.1-8.4-7.7h-2v9.4h1.7l1.8-2q3 2.5 6.8 2.4c4.9 0 8.2-3 8.2-7.7q0-3.2-2.1-5c-1.2-1-2.2-1.5-5.3-2.1l-2.5-.6c-2.7-.6-2.7-.6-3.7-1a3 3 0 0 1-1.7-2.7c0-2 2-3.4 4.7-3.4 4 0 6 2.8 7.3 6.3h1.7zm23 16.5c-1.6 3.5-3.3 5-5.9 5-4 0-6.5-3.7-6.5-9.5 0-6.1 2.4-10.1 6.1-10.1 1.5 0 2.8.7 2.8 1.5q0 .2-.3.6c-.7 1-1 1.5-1 2.3 0 1.7 1.3 2.8 3 2.8q2.9-.2 3.1-3.4c0-3.4-3.3-6-7.8-6-6.5 0-11.1 5.3-11.1 12.8 0 7.1 4.2 12 10.4 12 4.4 0 7-2 9.2-7.3zm26-4c.1-7.5-4.1-12.7-10.2-12.7-6.4 0-11.2 5.5-11.2 13 0 7 4.5 11.7 11.3 11.7q7.1 0 10.2-7l-1.8-1c-2 3.8-4.1 5.3-7.5 5.3q-3.7 0-5.7-3.3c-.9-1.5-1.3-3.2-1.2-6zm-16.2-2.1c0-3.5 1.6-8.5 5.8-8.5 3 0 5 2.6 5 6.7q.2 2-2 1.8zm28-9.9-8.7.5v2.2h1.8c1.9 0 2.1.3 2.1 2.5v14.3q0 1-.3 1.3-.3.7-3.4.7h-.2v1.8h12.6v-1.8h-.2c-3.3-.1-3.8-.4-3.8-2.2v-7.3q0-3.9 1-6c1-2.2 3.2-3.7 5.4-3.7 1.3 0 2.8.7 3.5 1.7q1.2 1.5 1.1 5v10.5q0 1-.3 1.3-.3.7-3.5.7h-.2v1.8h12.7v-1.8h-.2c-3.3-.1-3.8-.4-3.8-2.2v-10c0-3.6-.1-4.5-1-6.2a7 7 0 0 0-6.8-3.8q-4.7 0-7.9 4.7zm40 16c-1.7 3.5-3.4 5-6 5-4 0-6.5-3.7-6.5-9.5 0-6.1 2.5-10.1 6.2-10.1 1.5 0 2.8.7 2.8 1.5q0 .2-.3.6c-.8 1-1 1.5-1 2.3q.1 2.7 3 2.8 2.9-.2 3-3.4c0-3.4-3.3-6-7.8-6-6.5 0-11.1 5.3-11.1 12.8 0 7.1 4.2 12 10.4 12 4.5 0 7-2 9.2-7.3zm26.1-4c0-7.5-4.2-12.7-10.3-12.7-6.4 0-11.2 5.5-11.2 13 0 7 4.6 11.7 11.3 11.7q7.2 0 10.2-7l-1.7-1c-2 3.8-4.2 5.3-7.6 5.3q-3.7 0-5.6-3.3c-1-1.5-1.3-3.2-1.3-6zm-16.2-2.1c0-3.5 1.7-8.5 5.9-8.5 3 0 5 2.6 5 6.7q.2 2-2.1 1.8zM2658.3 422.8h-2.1l-11.5 29.1c-1.3 4-2.6 5.2-5.5 5.4h-.2v2.3h13.2v-2.3h-1q-4 0-4-3 0-.8.5-2l1.6-4.4h13.3l2.7 6.7q.4 1 .3 1.3-.1 1.4-3 1.4h-2.2v2.3h15.5v-2.3h-.7c-2.5-.1-3-.4-4.1-3.2zm-2.5 8.2 5.7 14.2h-11.2zm29.6 5.3-8.9.5v2.2h2c2 0 2.2.3 2.2 2.5v14.3q0 1-.3 1.3-.3.7-3.5.7h-.2v1.8h13.4v-1.8h-1c-3.3-.1-3.7-.4-3.7-2.2V453c0-8.3 3-14.8 7-15q-1 1.1-1 2.3c0 1.6 1.2 2.7 2.8 2.7q2.8-.2 3-3.3-.2-3.9-4.3-4-5 .2-7.5 6.9zm23 0-8.8.5v2.2h2c2 0 2.2.3 2.2 2.5v14.3q0 1-.3 1.3-.3.7-3.5.7h-.2v1.8h13.4v-1.8h-1c-3.3-.1-3.7-.4-3.7-2.2V453c0-8.3 3-14.8 7-15q-1.1 1.1-1 2.3.2 2.6 2.8 2.7 2.9-.2 3-3.3-.2-3.9-4.3-4-5 .2-7.5 6.9zm15.4 17.8a3.1 3.1 0 1 0 0 6.3 3.1 3.1 0 0 0 0-6.3m33.3-12h2.9c5 .2 7 2.2 7.6 7.7l.2 2.6c.6 5.7 2.4 8 6.4 8q6 .1 6.2-8.8h-2.1q-.2 5.1-2.2 5c-1.1 0-1.6-1-2.4-4.3l-.8-3.2c-1.2-4.6-3.1-6.7-7-7.7q10.7-1.4 10.7-9c0-5.7-4.8-9-13.3-9h-17.2v2.4h.9c2.8 0 3.8.3 4.2.8.3.4.3.5.3 3v23.9c0 2.5 0 2.6-.3 3.1-.5.5-1.4.7-4.2.7h-1v2.3h16.5v-2.3h-1c-2.8 0-3.7-.2-4.2-.7-.2-.5-.2-.6-.2-3.1zm0-2.3v-11c-.1-2.8.1-3 3.4-3h2.7q7.4-.1 7.2 6.7c0 5.3-2.8 7.3-7.8 7.3zm42.7 20.1 8.8-.3v-2.2h-1c-2.8-.1-3-.4-3-3.6v-31l-9.8.5v2.1h2.9c1.9 0 2.1.4 2.1 2.5v11.4a8 8 0 0 0-6.9-3.7c-5.6 0-9.9 5.4-9.9 12.6s4.1 12.1 10 12.1q4.5.1 6.8-4.3zm-5.9-21.7q3.3.2 5 3.8.9 2.3.9 6c0 5.8-2.3 9.5-6 9.5-3.5 0-5.6-3.3-5.6-8.8q0-4.4 1-7c.8-2.2 2.7-3.5 4.7-3.5m34.5-15.5h-2l-11.6 29.1c-1.3 4-2.6 5.2-5.5 5.4h-.2v2.3h13.3v-2.3h-1q-4 0-4-3-.1-.8.4-2l1.6-4.4h13.3l2.7 6.7.4 1.3c0 .9-1.3 1.4-3.1 1.4h-2.1v2.3h15.5v-2.3h-.7c-2.6-.1-3-.4-4.2-3.2zm-2.4 8.2 5.6 14.2h-11.2zM900.3 214.4H896l-4.4 6.5c-8-5.8-12.1-7.4-19.7-7.4a34 34 0 0 0-26.7 13.2 43 43 0 0 0-10.4 29c0 23.7 15.5 40.6 37.2 40.6 17.6 0 28.8-10.4 31.4-28.9l-5.2-.8q-4.5 24.5-24.9 24.5c-16.2 0-24-11.2-24-35 0-12.5 1.7-20.8 5.4-27.4 3.5-6.1 10.2-10 17.3-10 7.7 0 14.5 4 18.7 11.1 2.1 3.6 3.6 7.7 6.3 16.4h4.8zm57 44.8c0-7-1.3-10.5-4.5-13.1q-5.5-4.4-16-4.4c-12.5 0-21.5 5.8-21.5 13.9 0 4 2.6 6.7 6.4 6.7 3.5 0 6-2.4 6-5.7q0-2.2-1.7-4.5-1-.9-.8-1.5c0-2.2 4.4-4.2 9.7-4.2 3.5 0 7.4 1.1 9.1 2.8 2.1 1.7 2.9 4.4 2.9 9.3v4.3c-11.4 2-15 2.9-20.5 5q-14.1 5.1-14 15.6c0 7.9 6.1 12.9 16 12.9 7.5 0 14.3-3.1 19-8.7 1.8 5.6 4.6 7.8 9.7 7.8s10.2-3.2 10.2-6.4q0-1.2-1.2-1.3-.5-.1-1.6.4a7 7 0 0 1-3 .8c-3.2 0-4.3-2-4.3-7.6zM947 272.6c0 6.6-.3 8.1-2.2 11-2.7 4-7.7 6.8-12.5 6.8-5.1 0-8.7-3.6-8.7-8.6q0-6.8 7.1-10.2a66 66 0 0 1 16.3-4zm44.2-59-20.3 1.1v4.8h5.4c4 0 4.6.7 4.6 5.5v61.2q0 2.4-.7 2.9c-.8 1-2.8 1.4-7.6 1.5h-.7v4h28.4v-4h-.7c-7.4-.2-8.4-.7-8.4-4.7zm34.6 0-20.3 1.2v4.8h5.4c4 0 4.6.7 4.6 5.5v61.2q0 2.4-.6 2.9c-.8 1-2.9 1.4-7.6 1.5h-.8v4h28.5v-4h-.8c-7.3-.2-8.3-.7-8.3-4.7zm74.3 1.7h-28.4v5.1h2.1c6.3.2 8.4.5 9.1 1.6.8 1 .8 1 .8 6.8v42.1c0 15-2 18-12.7 18.6v5.2h31.3v-5.2c-10.6-.5-12.6-3.6-12.6-18.6v-48.6l26.1 72.4h4.4l24.6-72.4v58.9c0 5.6 0 5.8-.7 6.9-.9 1.1-3 1.4-9.2 1.4h-2v5.2h36v-5.2h-2c-6.2 0-8.3-.3-9.2-1.4-.6-1.1-.6-1.2-.6-7v-52.3c0-5.6 0-5.8.6-6.8 1-1.1 3-1.4 9.3-1.6h2v-5.1h-27.6l-20.2 58.6zm123.4 54.6c.1-16.5-9.2-28.1-22.7-28.1-14 0-24.6 12.2-24.6 28.7 0 15.5 10 25.9 24.9 25.9q15.7 0 22.4-15.7l-3.8-2c-4.5 8.4-9.2 11.7-16.5 11.7q-8.4 0-12.6-7.2c-2-3.3-2.8-7.2-2.7-13.3zm-35.5-4.7c0-7.7 3.5-18.7 12.7-18.7 6.6 0 11 5.9 11 14.8 0 3-1 4-4.5 4zm108.3 9.4-15.8-49.3q-.5-1.8-.6-2.7c0-1.7 1.2-2.3 4.8-2.3h5v-5.1h-31.1v5.1h2c4.8 0 5.4.5 6.7 4.3l23.7 71.7h4.8l16.3-54.7 17.8 54.7h4.5l19.3-64.6c2.3-8.5 4.9-11.1 11.1-11.4h.5v-5.1h-27v5.1h1q9.4 0 9.4 5.8c0 1-.2 2.6-.7 3.8l-13.2 44.7-15.2-48.2c-.7-2.2-.7-2.3-.7-3q0-1.6 1.6-2.5c1.2-.4 2-.6 6.3-.6h1.8v-5.1h-31.8v5.1h2.5c4.7.2 6 .8 7 3.5l2.8 8.5zm94.7-61-20.3 1.1v4.8h5.3c4.1 0 4.7.7 4.7 5.5v61.3q0 2.2-.7 2.8c-.7 1-2.8 1.4-7.6 1.5h-.4v4h27.8v-4h-.4c-7.4-.2-8.4-.7-8.4-4.7v-16.3c0-5.4.8-10.3 2-12.8 2.4-5 7.3-8.4 12-8.4 2.8 0 6.2 1.7 7.7 3.9 1.8 2.4 2.5 5.7 2.5 11v23q0 2.2-.6 2.8c-.8 1-3 1.4-7.7 1.5h-.5v4h27.8v-4h-.4c-7.2-.2-8.2-.7-8.2-4.7v-22.1c0-8-.4-10-2.3-13.6a16 16 0 0 0-14.9-8.5c-7.2 0-12.4 3.2-17.4 10.6zm96.4 56.3c0-16.5-9.3-28.1-22.7-28.1-14 0-24.6 12.2-24.6 28.7 0 15.5 10 25.9 24.8 25.9q15.8 0 22.5-15.7l-3.9-2c-4.5 8.4-9.1 11.7-16.5 11.7q-8.3 0-12.5-7.2c-2-3.3-2.9-7.2-2.8-13.3zm-35.6-4.7c0-7.7 3.6-18.7 12.8-18.7 6.6 0 11 5.9 11 14.8 0 3-1 4-4.5 4zm61.3-21.9-19 1.3v4.7h4c4.1 0 4.7.8 4.7 5.5v31.4q-.1 2.4-.7 2.9c-.8 1-2.9 1.4-7.6 1.5h-.4v4h27.8v-4h-.4c-7.4-.2-8.4-.7-8.4-4.7v-16.3a34 34 0 0 1 2-12.8c2.3-5 7.2-8.4 12-8.4 2.8 0 6.1 1.5 7.8 3.9s2.4 5.7 2.4 11v23q0 2.2-.7 2.8c-.7 1-3 1.4-7.7 1.5h-.4v4h27.8v-4h-.4c-7.3-.2-8.2-.7-8.2-4.7v-22.1c0-8-.4-10-2.4-13.6a16 16 0 0 0-14.8-8.5c-7.2 0-12.5 3.3-17.4 10.6zm118.6 12-18.5-29.8q-1.3-2-1.2-3-.1-2.2 4.3-2.2h6.5v-5.1h-35.4v5.1h2.5c5 .2 6.3.8 8.9 5.1l23.8 37.6v18c0 5.7 0 5.9-.7 6.9-.9 1-3 1.5-9.2 1.5h-2.9v5.2h37.7v-5.2h-2.8c-6.3 0-8.3-.4-9.2-1.5-.6-1-.6-1.1-.6-6.8v-19.4l16.4-29.6c4.7-8.8 8.1-11.4 15.1-11.8h1v-5.1h-31.3v5.1h2.5c6 0 8.5 1.5 8.5 5 0 1.6-.7 3.8-1.8 5.7zm53.1-13.6c-13.5 0-24 12-24 27.4 0 15 10.6 27.2 23.8 27.2s23.8-12.2 23.8-27.3-10.6-27.3-23.6-27.3m0 4.7c7.7 0 12 8 12 22.6s-4.3 22.5-12.2 22.5c-8 0-12.2-7.9-12.2-22.4q0-22.6 12.4-22.7m72.6 49 20-.8v-4.7h-2.7c-6.4-.3-7-1-7-8v-38.6l-20.6 1.3v4.7h5.6c4.1 0 4.7.8 4.7 5.5v13.5c0 9.6-2.3 21.2-14.4 21.2-3.4 0-6.3-1.2-7.7-3.4-1.4-2-1.7-3.2-1.7-9.2v-33.6l-19.2 1.3v4.7h4.2c4.1 0 4.7.8 4.7 5.5v23.7c0 5.6.4 8.2 2 10.7 3 4.5 8.3 7 15 7 7.2 0 12.3-3 17-10zm32-55.6h2.4l3.4-19.7.1-1.7c0-2.8-2-4.8-4.7-4.8s-4.7 2-4.7 4.8v1.7zm34.2 3.5-19.5 1.3v4.7h4.5c4.2 0 4.8.8 4.8 5.5v31.4q-.1 2.4-.7 2.9c-.8 1-3 1.4-7.7 1.5h-.4v4h29.3v-4h-2c-7.3-.2-8.3-.7-8.3-4.7v-6c.1-18.4 6.7-32.5 15.3-33-1.6 1.8-2 3-2 5 0 3.5 2.5 6 6 6 4.1 0 6.8-2.9 6.8-7.3 0-5.4-3.8-9-9.6-9-7 0-12.9 5.6-16.5 15.4zm77.6 26.5c0-16.5-9.3-28.1-22.7-28.1-14.1 0-24.7 12.2-24.7 28.7 0 15.5 10 25.9 24.9 25.9q15.7 0 22.5-15.7l-4-2c-4.4 8.4-9 11.7-16.4 11.7q-8.4 0-12.5-7.2c-2-3.3-2.9-7.2-2.8-13.3zm-35.6-4.7c0-7.7 3.5-18.7 12.8-18.7 6.6 0 11 5.9 11 14.8 0 3-1 4-4.5 4zm130-50.7h-4l-4.4 6.6c-5.3-5-12.3-7.6-20-7.6-14.6 0-24.2 9.2-24.2 23 0 12 6 18 22.2 22.1l10.4 2.7c8.1 2 8.9 2.3 11.2 4q5 4 5 10.5t-4.9 11c-3.6 3.2-7.2 4.4-13.3 4.4-16.6 0-24.8-12.2-27.7-27h-4.7l.4 31.3h4.3l5-7.5c7.3 6 13.3 8.3 23 8.3 16.2 0 26.6-9.5 26.6-24.2q0-10.5-6.7-16.9c-3-2.8-7.2-4.7-16-7l-11.8-2.9q-14.6-3.6-14.4-13.5c0-7.7 6.3-13 15.6-13 14.2 0 22 11.8 25 24.3h4.7zm38 27.2c-13.5 0-24 12-24 27.4 0 15 10.6 27.2 23.8 27.2s23.8-12.2 23.8-27.3-10.5-27.3-23.5-27.3m0 4.7c7.7 0 12 8 12 22.6s-4.3 22.5-12.3 22.5-12.2-7.9-12.2-22.4q0-22.6 12.5-22.7m47-32.9-18.9 1.2v4.8h3.9c4.1 0 4.7.7 4.7 5.5v42.8c0 15.3-.7 23.6-2 28.3h4.2l5.4-8.5c4.5 5.9 9.7 8.7 16.5 8.7 13.6 0 23.6-11.7 23.6-27.7 0-15.8-9.2-27-22.4-27-6.7 0-10.8 2.4-15 8.7zm13 33.8c8.3 0 12.9 8 12.9 22.4 0 14-4.5 21.8-12.6 21.8-8.7 0-13.8-8-13.8-21.5 0-14.8 4.7-22.7 13.5-22.7m79.5 22.5c.2-16.5-9.2-28.1-22.6-28.1-14.1 0-24.7 12.2-24.7 28.7 0 15.5 10 25.9 24.9 25.9q15.8 0 22.4-15.7l-3.8-2c-4.5 8.4-9.2 11.7-16.5 11.7q-8.3 0-12.6-7.2c-2-3.3-2.8-7.2-2.7-13.3zm-35.5-4.7c0-7.7 3.5-18.7 12.8-18.7 6.6 0 11 5.9 11 14.8 0 3-1 4-4.5 4zm61.2-21.9-19.5 1.3v4.7h4.5c4.2 0 4.7.8 4.7 5.5v31.4q0 2.4-.6 2.9c-.8 1-3 1.4-7.7 1.5h-.5v4h29.4v-4h-2c-7.4-.2-8.3-.7-8.3-4.7v-6c0-18.4 6.7-32.5 15.2-33-1.5 1.8-2 3-2 5 0 3.5 2.6 6 6.1 6 4 0 6.7-2.9 6.7-7.3 0-5.4-3.7-9-9.6-9-6.9 0-12.8 5.6-16.5 15.4z" class="Text"/><path d="M383.8 2944.1h-1.2c-2.2 1.7-6.4 3-9.3 3l-.5 1.8h2.8c2.4 0 2.7.1 2.7.8l-.4 1.8-4.3 16c-.5 2-.5 2.1-.9 2.5s-1.2.5-3.3.6h-1.8l-.2 1.8h14.8l.3-1.8h-2.2c-2.6 0-3.1-.2-3.1-1.1l.3-2zm22.2 0H405c-2.2 1.7-6.5 3-9.3 3l-.5 1.8h2.7c2.5 0 2.8.1 2.8.8l-.4 1.8-4.3 16c-.6 2-.6 2.1-1 2.5q-.3.5-3.3.6h-1.7l-.2 1.8h14.8l.2-1.8h-2.1c-2.6 0-3.2-.2-3.2-1.1l.4-2zM371 1341.8q-1.8 1-1.7 2 .1 1.2 1.5 1.3 1.5 0 1.7-2.2 1.9-1.5 4.2-1.5 4.6.1 4.6 5.2c0 5.2-3.4 9.4-7.5 9.4-2.4 0-4.3-1.1-4.3-2.4q0-.3.3-.5c1.2-.6 2.3-1 2.3-2.7q-.1-2-2.4-2.2c-1.8 0-3.1 1.5-3.1 3.4 0 3.5 3 6 7.3 6 6.5 0 11.7-5.1 11.7-11.5 0-4-3-6.9-7.4-6.9q-2.4 0-5 1.3l2.2-7.5q3.1.6 5.2.6 4.2 0 6.4-2.2 1-1.2 1-2 0-.5-.2-.5l-.5.2q-2.1 1-4.5 1-3.7 0-8.2-1.2zM382.2 2166.7c-1 4.6-3.7 12.6-9.4 12.6q-1.9 0-2-1.2 0-.3.4-.9.6-.7.6-1.6-.1-2.1-2.4-2.3-2.6.1-2.7 3c0 2.7 2.6 4.6 6.1 4.6 8.8 0 14.4-11.1 14.4-18.7 0-6.3-3-10-8-10-6 0-10.4 5.5-10.4 11.2 0 3.8 3 6.7 6.8 6.7q3.9 0 6.6-3.4m-3-12.8q4 .2 4.2 5.2c0 5-2.7 8.6-6.4 8.6q-3.9-.1-4-4.7c0-3.6 1.8-9.1 6.2-9.1" class="MeasureNumber"/><path d="m288.3 3081.4-9.2-23.2-.4-1.6q-.1-1.3 3.1-1.2h2v-2.4h-15.6v2.4h1c2.3 0 3 .6 3.9 2.8l12.6 31.7h2l11.5-29.6c1.5-4 2.6-4.8 5.4-5h.5v-2.3h-13.5v2.4h1q3.9.1 4 2.6 0 1.2-.6 2.8zm18.4 2.2a3.1 3.1 0 1 0 3.1 3.1c0-1.7-1.4-3.1-3-3.1M288.3 2289.3l-9.2-23.2-.4-1.5q-.1-1.4 3.1-1.3h2v-2.4h-15.6v2.4h1c2.3 0 3 .6 3.9 2.8l12.6 31.7h2l11.5-29.6c1.5-3.9 2.6-4.8 5.4-4.9h.5v-2.4h-13.5v2.4h1q3.9.1 4 2.6 0 1.2-.6 2.8zm18.4 2.2a3.1 3.1 0 1 0 3.1 3.1c0-1.7-1.4-3-3-3M288.3 1466l-9.2-23.2q-.4-1-.4-1.5-.1-1.4 3.1-1.3h2v-2.3h-15.6v2.3h1c2.3 0 3 .6 3.9 2.8l12.6 31.7h2l11.5-29.6c1.5-3.9 2.6-4.8 5.4-4.9h.5v-2.3h-13.5v2.3h1q3.9.1 4 2.6 0 1.2-.6 2.8zm18.4 2.2a3.1 3.1 0 1 0 0 6.2 3.1 3.1 0 0 0 0-6.2M244.3 693.5l-9.2-23.2q-.4-1-.4-1.5-.1-1.4 3.1-1.3h2v-2.3h-15.6v2.3h1c2.3.1 3 .6 3.9 2.8l12.6 31.7h2l11.5-29.6c1.5-3.9 2.6-4.8 5.4-4.9h.5v-2.3h-13.5v2.3h1q3.9.1 4 2.6 0 1.2-.6 2.8zm25-16.2c-6.1 0-10.9 5.4-10.9 12.4 0 6.8 4.8 12.3 10.8 12.3s10.8-5.5 10.8-12.4c0-6.8-4.8-12.3-10.7-12.3m0 2c3.5 0 5.5 3.7 5.5 10.3q-.1 10.2-5.6 10.3-5.5-.1-5.5-10.2t5.6-10.3m20.4-13.9a2.9 2.9 0 1 0 0 5.8 2.9 2.9 0 0 0 0-5.8M292 678l-9.4.5v2.2h2.6c1.9 0 2.1.3 2.1 2.5v14.3q0 1-.3 1.3-.4.7-3.4.7h-.4v1.8h13v-1.8h-.4c-3.3-.1-3.8-.4-3.8-2.2zm24.8 16q-2.2 5.1-5.9 5c-4 0-6.5-3.7-6.5-9.5 0-6.1 2.5-10.1 6.2-10.1 1.5 0 2.8.7 2.8 1.5l-.3.6q-1.1 1.3-1 2.3.2 2.7 3 2.8 2.9-.2 3-3.4c0-3.4-3.3-6-7.8-6-6.5 0-11.1 5.3-11.1 12.8 0 7.1 4.2 12 10.4 12 4.5 0 7-2 9.2-7.3zm26-4c.1-7.5-4.1-12.7-10.2-12.7-6.4 0-11.2 5.5-11.2 13 0 7 4.5 11.7 11.3 11.7q7.1 0 10.2-7l-1.8-1c-2 3.8-4.1 5.3-7.5 5.3q-3.7 0-5.7-3.3c-.8-1.5-1.3-3.2-1.2-6zm-16.2-2.1c0-3.5 1.6-8.5 5.9-8.5 3 0 5 2.6 5 6.7q.2 2-2.1 1.8zM224 3398.6h5.6c4.5 0 7-.4 9-1.3 3.5-1.7 5.5-5 5.5-8.9 0-8-7-10-13.6-10H213v2.4h.9c2.9.1 3.8.3 4.2.8.3.4.3.5.3 3v23.8c0 2.6 0 2.7-.3 3.2-.4.5-1.3.7-4.2.7h-.9v2.3h16.8v-2.3h-1.3c-2.9 0-3.8-.2-4.2-.7-.3-.5-.3-.6-.3-3.2zm0-2.4v-12.8c0-2.3.3-2.6 3-2.6h3.3q7.6 0 7.6 7.8t-7.8 7.6zm30.8-4.9-8.6.5v2.2h1.8c1.9 0 2.1.3 2.1 2.5v14.3q0 1-.3 1.3-.4.7-3.4.7h-.2v1.8h12.6v-1.8h-.2c-3.3-.1-3.8-.4-3.8-2.2v-7.3q0-4 1-5.9c1-2.2 3.2-3.8 5.4-3.8 1.3 0 2.8.7 3.5 1.8q1.1 1.4 1.1 5v10.4q0 1-.3 1.3-.3.7-3.5.7h-.2v1.8h12.7v-1.8h-.2c-3.3-.1-3.8-.4-3.8-2.2v-10c0-3.6-.1-4.5-1-6.2a7 7 0 0 0-6.8-3.8q-4.7 0-7.9 4.8zm33.2-.7c-6.2 0-11 5.4-11 12.4 0 6.8 4.9 12.3 10.9 12.3s10.8-5.5 10.8-12.4c0-6.8-4.8-12.3-10.7-12.3m0 2c3.5 0 5.4 3.8 5.4 10.3q-.1 10.2-5.5 10.3-5.5-.2-5.6-10.2 0-10.2 5.7-10.3m18.5 16.4a3.1 3.1 0 1 0 3.1 3.1c0-1.8-1.4-3.1-3-3.1M224 1828.7h5.6c4.5 0 7-.4 9-1.3a10 10 0 0 0 5.5-8.9c0-8-7-9.9-13.6-9.9H213v2.4h.9c2.9 0 3.8.2 4.2.7.3.4.3.5.3 3v23.9c0 2.5 0 2.6-.3 3-.4.6-1.3.8-4.2.8h-.9v2.3h16.8v-2.3h-1.3c-2.9 0-3.8-.2-4.2-.7-.3-.5-.3-.6-.3-3.1zm0-2.3v-12.8c0-2.3.3-2.5 3-2.5h3.3q7.6-.1 7.6 7.7t-7.8 7.6zm30.8-4.9-8.6.6v2.1h1.8c1.9 0 2.1.4 2.1 2.5v14.3q0 1-.3 1.3-.4.7-3.4.7h-.2v1.8h12.6v-1.8h-.2c-3.3 0-3.8-.3-3.8-2.1v-7.4q0-4 1-5.9c1-2.2 3.2-3.8 5.4-3.8 1.3 0 2.8.7 3.5 1.8q1.1 1.4 1.1 5v10.4q0 1-.3 1.3-.3.7-3.5.7h-.2v1.8h12.7v-1.8h-.2c-3.3 0-3.8-.3-3.8-2.1v-10c0-3.7-.1-4.6-1-6.3a7 7 0 0 0-6.8-3.8q-4.7 0-7.9 4.8zm33.2-.8c-6.2 0-11 5.4-11 12.4s4.9 12.4 10.9 12.4 10.8-5.5 10.8-12.4-4.8-12.4-10.7-12.4m0 2.1q5.3.2 5.4 10.3-.1 10-5.5 10.2-5.5-.1-5.6-10.2t5.7-10.3m18.5 16.4a3.1 3.1 0 1 0 0 6.2 3.1 3.1 0 0 0 0-6.2M224 2633.2h5.6c4.5 0 7-.4 9-1.3 3.5-1.7 5.5-5 5.5-8.9 0-8-7-9.9-13.6-9.9H213v2.4h.9c2.9 0 3.8.2 4.2.7.3.4.3.5.3 3v23.9c0 2.6 0 2.6-.3 3-.4.6-1.3.8-4.2.8h-.9v2.3h16.8v-2.3h-1.3c-2.9 0-3.8-.2-4.2-.7-.3-.5-.3-.5-.3-3.1zm0-2.3V2618c0-2.3.3-2.5 3-2.5h3.3q7.6-.1 7.6 7.7t-7.8 7.6zm30.8-4.9-8.6.6v2.2h1.8c1.9 0 2.1.3 2.1 2.5v14.2q0 1-.3 1.3-.4.7-3.4.7h-.2v1.8h12.6v-1.8h-.2c-3.3 0-3.8-.3-3.8-2.1v-7.4q0-4 1-5.9c1-2.2 3.2-3.8 5.4-3.8 1.3 0 2.8.7 3.5 1.8q1.1 1.4 1.1 5v10.4q0 1-.3 1.3-.3.7-3.5.7h-.2v1.8h12.7v-1.8h-.2c-3.3 0-3.8-.3-3.8-2.1v-10c0-3.7-.1-4.6-1-6.3a7 7 0 0 0-6.8-3.8q-4.7 0-7.9 4.8zm33.2-.8c-6.2 0-11 5.5-11 12.5 0 6.8 4.9 12.3 10.9 12.3s10.8-5.5 10.8-12.4-4.8-12.4-10.7-12.4m0 2.1q5.3.2 5.4 10.3-.1 10-5.5 10.2-5.5-.1-5.6-10.2 0-10.3 5.7-10.3m18.5 16.4a3.1 3.1 0 1 0 3.1 3.1c0-1.7-1.4-3.1-3-3.1M224 1026.6h5.6c4.5 0 7-.4 9-1.3a10 10 0 0 0 5.5-8.9c0-8-7-9.9-13.6-9.9H213v2.4h.9c2.9 0 3.8.2 4.2.7.3.4.3.5.3 3v23.9c0 2.5 0 2.6-.3 3-.4.6-1.3.8-4.2.8h-.9v2.3h16.8v-2.3h-1.3c-2.9 0-3.8-.2-4.2-.7-.3-.5-.3-.6-.3-3.1zm0-2.3v-12.8c0-2.3.3-2.5 3-2.5h3.3q7.6-.1 7.6 7.7t-7.8 7.6zm29.6-17.3a2.9 2.9 0 1 0 0 5.8 2.9 2.9 0 0 0 0-5.8m2.4 12.4-9.4.6v2.1h2.5c2 0 2.2.4 2.2 2.5v14.3q0 1-.3 1.3-.4.7-3.5.7h-.3v1.8h13v-1.8h-.4c-3.4 0-3.8-.3-3.8-2.1zm28 7.2c0-3.1-.5-4.7-2-6q-2.4-2-7.3-2c-5.6 0-9.7 2.7-9.7 6.4q.1 2.8 2.9 3 2.6-.1 2.7-2.5 0-1-.8-2-.4-.5-.3-.8c0-1 2-1.9 4.4-1.9 1.6 0 3.3.5 4.1 1.3q1.4 1 1.3 4.2v2c-5.2.9-6.8 1.3-9.3 2.2q-6.4 2.4-6.4 7.1c0 3.6 2.8 5.9 7.3 5.9q5.3 0 8.7-4 1 3.8 4.4 3.6c2.2 0 4.6-1.5 4.6-3q0-.5-.5-.5l-.8.2q-1 .4-1.4.3-2 .2-1.9-3.4zm-4.7 6c0 3-.1 3.7-1 5a7 7 0 0 1-5.7 3.1c-2.3 0-4-1.6-4-3.9q0-3 3.3-4.6a29 29 0 0 1 7.4-1.9zm20-13.3-8.7.6v2.1h1.8c1.9 0 2.1.4 2.1 2.5v14.3q0 1-.3 1.3-.4.7-3.4.7h-.2v1.8h12.6v-1.8h-.2c-3.3 0-3.8-.3-3.8-2.1v-7.4q0-4 1-5.9c1-2.2 3.2-3.8 5.4-3.8 1.3 0 2.8.7 3.5 1.8q1.1 1.4 1.1 5v10.4q0 1-.3 1.3-.3.7-3.5.7h-.2v1.8H319v-1.8h-.2c-3.3 0-3.8-.3-3.8-2.1v-10c0-3.7-.1-4.6-1-6.3a7 7 0 0 0-6.8-3.8q-4.7 0-7.9 4.8zm33.2-.8c-6.2 0-11 5.4-11 12.4s4.9 12.4 10.9 12.4 10.8-5.5 10.8-12.4-4.8-12.4-10.7-12.4m0 2.1c3.5 0 5.4 3.7 5.4 10.3q-.1 10-5.5 10.2-5.5-.1-5.6-10.2t5.7-10.3" class="InstrumentName"/><path fill="none" stroke="#000" stroke-linejoin="bevel" stroke-width="4.5" d="M368.7 3020.7v199.7M1143.8 632.8v102M2845.2 2228.6v101.9M2845.2 632.8v102M1727.3 2228.6v101.9M368.7 2228.6v238.2M1732.9 632.8v102M2845.2 1405.3v101.9M2157.3 1405.3v101.9M1679.8 3020.7v101.9M1649.4 1405.3v101.9M2295.1 632.8v102M1030.8 1405.3v101.9M368.7 1405.3v244.5M2845.2 3020.7v101.9M402.7 632.8v236.1M1727.3 2465.4v232.1M402.7 867.6v214.5M368.7 2465.4v232.1M368.7 3219v255.6M2845.2 3219v255.6M2295.1 867.6v214.5M1679.8 3219v255.6M1649.4 1648.5v256.9M1143.8 867.6v214.5M1030.8 1648.5v256.9M2157.3 1648.5v256.9M2845.2 867.6v214.5M2845.2 2465.4v232.1M368.7 1648.5v256.9M2845.2 1648.5v256.9M1732.9 867.6v214.5M1649.4 1904v102M2157.3 1904v102M1679.8 3473.2v102M402.7 1080.7v102M2295.1 1080.7v102M1732.9 1080.7v102M368.7 2696.1V2798M2845.2 1904v102M1727.3 2696.1V2798M1143.8 1080.7v102M2845.2 2696.1V2798M2845.2 1080.7v102M368.7 1904v102M1030.8 1904v102M2845.2 3473.2v102M368.7 3473.2v102" class="BarLine"/><path fill-rule="evenodd" stroke="#000" stroke-linecap="round" stroke-linejoin="round" stroke-width="1.2" d="M1555.6 739.1c23.6 26 77.6 34.3 108 16.6-31.6 25.5-85.6 17.2-108-16.6M523 2211.4c189.9-90.5 1071.8-81.4 1259.8 12.9-188-86.4-1070-95.4-1259.8-13M2225.8 739.1c54.6 37.2 218.6 37.2 273.3 0-54.7 45.1-218.7 45.1-273.3 0M733 1491c9.7 20.9 40 31.2 60.5 20.6A38 38 0 0 1 733 1491M854.1 1511.6c30.3 23.4 90.9 23.4 121.2 0-30.3 31.3-90.9 31.3-121.2 0M1304 1491c9.7 20.9 40 31.2 60.5 20.6a38 38 0 0 1-60.6-20.6M1425 1515.3c38 34.5 122.4 47.2 168.8 25.3-47.6 29.7-132 17-168.7-25.3M2101.7 1401c109-73.5 623.5-82.6 735-13-111.3-61.6-625.8-52.5-735 13M2571 714.3c17 18.7 53 20.9 72 4.2a44.5 44.5 0 0 1-72-4.2M1243.7 3422.3c3-76 163.5-189.4 227.4-141.4-59.8-41.2-220.3 72.1-227.4 141.4M2180.3 3424.3c12.2-64.6 89.8-134.3 155.4-139.4-60.2 11-138 80.7-155.4 139.4M594.9 3434.5c31-29.8 99.5-38 136.7-16.3-36.3-13.7-104.7-5.6-136.7 16.3M822.3 3359.3c17.3-52.8 89.4-96.2 144.2-86.8-50.7-2.6-122.8 40.8-144.2 86.8M1975.2 3359.3c17.3-52.8 89.4-96.2 144.2-86.8-50.7-2.6-122.8 40.8-144.2 86.8M1747.8 3434.5c31-29.8 99.5-38 136.7-16.3-36.3-13.7-104.7-5.6-136.7 16.3M2396.6 3418c18.8-68.5 162.8-141.5 227.4-109.3-61.1-25-205.1 48-227.4 109.4M1027.4 3424.3c12.2-64.6 89.8-134.3 155.4-139.4-60.2 11-138 80.7-155.4 139.4" class="SlurSegment"/><path fill-rule="evenodd" stroke="#000" stroke-linecap="round" stroke-linejoin="round" stroke-width="1.2" d="M1516.7 2322.6c51.3 26.2 205.3 26.2 256.6 0-51.3 34.1-205.3 34.1-256.6 0M2227.4 714.3c32 30.5 128.2 30.5 160.3 0-32 38.4-128.3 38.4-160.3 0M1966.2 714.3c13.4 13 53.6 13 67 0-13.4 19.7-53.6 19.7-67 0M523 2310.2c9.5 11.6 38 11.6 47.4 0-9.5 17.4-38 17.4-47.4 0M580.3 2310.2c100.3 36 401.1 36 501.4 0-100.3 44-401 44-501.4 0M2791.2 1486.8c9.1 11.3 36.4 11.3 45.5 0-9 17-36.4 17-45.5 0M2521.2 1499.2c15.3 16.5 61.5 16.5 76.8 0-15.3 23.5-61.5 23.5-76.8 0M2106.2 1425.8c20.4-19.6 81.8-19.6 102.3 0-20.5-11.6-81.9-11.6-102.3 0M1879.3 1486.8c11.2 12.6 44.5 12.6 55.7 0-11.2 18.8-44.5 18.8-55.7 0M1426.7 1499.2c11 14.6 44.4 14.6 55.6 0-11.2 20.8-44.5 20.8-55.6 0M855.7 1486.8c11.1 12.6 44.5 12.6 55.6 0-11 18.8-44.5 18.8-55.6 0M1413.2 714.3c13.4 13 53.6 13 67 0-13.4 19.7-53.6 19.7-67 0M578.8 2596.9c238.4 45.6 953.6 45.6 1192 0-238.4 53.5-953.6 53.5-1192 0M1797.7 2498.2c124.7-55.5 498.7-55.5 623.4 0-124.7-47.5-498.7-47.5-623.4 0M1797.7 2559.4c120.6 39.4 482.3 39.4 602.9 0-120.6 47.3-482.3 47.3-602.9 0" class="TieSegment"/><path fill-rule="evenodd" stroke="#000" stroke-linecap="round" stroke-linejoin="round" stroke-width="1.2" d="M1780.7 2596.6c127.5 40.5 510 40.5 637.6 0-127.5 48.4-510 48.4-637.6 0M599.7 2559.7c231.2 45.6 924.7 45.6 1155.9 0-231.2 53.5-924.7 53.5-1155.9 0M578.8 2498c239-56.7 955.9-56.7 1194.8 0-239-48.8-955.8-48.8-1194.8 0M587.5 2765.5c235.4 48.7 941.7 48.7 1177.1 0-235.4 56.7-941.7 56.7-1177.1 0" class="TieSegment"/><path fill-rule="evenodd" stroke="#000" stroke-linecap="round" stroke-linejoin="round" stroke-width="1.2" d="M578.8 2815.1c238.4 45.7 953.6 45.7 1192 0-238.4 53.6-953.6 53.6-1192 0M2562 1742.3c7.3 9.8 28.8 9.8 36 0a19.9 19.9 0 0 1-36 0M578.8 2691.4c239-53.5 955.9-53.5 1194.8 0-239-45.6-955.8-45.6-1194.8 0M1797.7 2691.7c124.7-48 498.7-48 623.4 0-124.7-40-498.7-40-623.4 0M1797.7 2765.3c122.4 47.4 489.5 47.4 611.9 0-122.4 55.4-489.5 55.4-611.9 0" class="TieSegment"/><path fill-rule="evenodd" stroke="#000" stroke-linecap="round" stroke-linejoin="round" stroke-width="1.2" d="M1780.7 2814.9c127.5 40.4 510 40.4 637.6 0-127.5 48.4-510 48.4-637.6 0M2556.4 3326.3c13.4-20.5 53.7-20.5 67 0-13.3-13.8-53.6-13.8-67 0M1403.5 3301.5c13.4-20.5 53.7-20.5 67 0-13.3-13.8-53.6-13.8-67 0" class="TieSegment"/><path d="M1762.6 1452.3c0 7.8-4 12-9.8 16.6l.3-19.4c.2-.9 1.6-3.7 5.6-3.7 3.6 0 3.9 3.3 3.9 5.4zm-1.2-11.3c-5 0-7.8 3-8.3 3.7l.4-31.9q-.1-1.3-1.4-1.4h-1.2q-1.3.1-1.4 1.4l.5 59.6q.1 1.3 1.4 1.4.4 0 .8-.2c8.5-4.3 17.4-12.4 17.4-22.6 0-5.1-2.3-10-8.2-10M1523.5 1501.9c0 7.8-4 12-9.8 16.6l.3-19.4c.2-.9 1.7-3.7 5.7-3.7 3.5 0 3.8 3.3 3.8 5.4zm-1.2-11.3c-5 0-7.8 3-8.3 3.7l.4-31.9q-.1-1.3-1.4-1.4h-1.2q-1.3.1-1.4 1.4l.5 59.6q.1 1.3 1.4 1.4.4 0 .8-.2c8.5-4.3 17.5-12.4 17.5-22.6 0-5.1-2.4-10-8.3-10M1863.3 679.8c0 7.9-4.1 12-9.9 16.6l.3-19.3c.2-1 1.7-3.8 5.7-3.8 3.6 0 3.9 3.4 3.9 5.4zm-1.2-11.4c-5 0-7.9 3-8.4 3.7l.4-31.9q-.1-1.2-1.4-1.3h-1.1q-1.3.1-1.4 1.3l.5 59.7q.1 1.3 1.4 1.4l.8-.2c8.5-4.3 17.4-12.4 17.4-22.7 0-5.1-2.4-10-8.2-10M1188.3 1452.3c0 7.8-4.1 12-9.8 16.6l.2-19.4c.2-.9 1.7-3.7 5.7-3.7 3.6 0 3.9 3.3 3.9 5.4zm-1.2-11.3c-5 0-7.9 3-8.4 3.7l.4-31.9q0-1.3-1.3-1.4h-1.2q-1.3.1-1.4 1.4l.5 59.6q.1 1.3 1.4 1.4.4 0 .8-.2c8.5-4.3 17.4-12.4 17.4-22.6 0-5.1-2.4-10-8.2-10M2541.7 679.8c0 7.9-4 12-9.8 16.6l.3-19.3c.2-1 1.7-3.8 5.6-3.8 3.6 0 4 3.4 4 5.4zm-1.3-11.4c-5 0-7.8 3-8.3 3.7l.4-31.9q-.1-1.2-1.4-1.3h-1.2q-1.3.1-1.4 1.3l.5 59.7q.1 1.3 1.4 1.4l.8-.2c8.5-4.3 17.5-12.4 17.5-22.7 0-5.1-2.4-10-8.3-10M743.8 679.8c0 7.9-4.1 12-9.9 16.6l.3-19.3c.2-1 1.7-3.8 5.7-3.8 3.6 0 3.9 3.4 3.9 5.4zm-1.2-11.4c-5 0-7.9 3-8.4 3.7l.4-31.9q0-1.2-1.4-1.3h-1.1q-1.3.1-1.4 1.3l.5 59.7q.1 1.3 1.4 1.4l.8-.2c8.5-4.3 17.4-12.4 17.4-22.7 0-5.1-2.4-10-8.2-10M2368.2 1452.3c0 7.8-4 12-9.8 16.6l.3-19.4c.2-.9 1.7-3.7 5.6-3.7 3.6 0 3.9 3.3 3.9 5.4zm-1.2-11.3c-5 0-7.8 3-8.3 3.7l.4-31.9q-.1-1.3-1.4-1.4h-1.2q-1.3.1-1.4 1.4l.5 59.6q.1 1.3 1.4 1.4.4 0 .8-.2c8.5-4.3 17.4-12.4 17.4-22.6 0-5.1-2.3-10-8.2-10M637.8 1452.3c0 7.8-4.1 12-9.9 16.6l.3-19.4c.2-.9 1.7-3.7 5.7-3.7 3.6 0 3.9 3.3 3.9 5.4zm-1.2-11.3c-5 0-7.9 3-8.4 3.7l.4-31.9q-.1-1.3-1.4-1.4h-1.1q-1.3.1-1.4 1.4l.5 59.6q.1 1.3 1.4 1.4.3 0 .8-.2c8.5-4.3 17.4-12.4 17.4-22.6 0-5.1-2.4-10-8.2-10M1310.2 679.8c0 7.9-4 12-9.8 16.6l.3-19.3c.2-1 1.7-3.8 5.6-3.8 3.6 0 4 3.4 4 5.4zm-1.3-11.4c-5 0-7.8 3-8.3 3.7l.4-31.9q-.1-1.2-1.4-1.3h-1.2q-1.3.1-1.4 1.3l.5 59.7q.1 1.3 1.4 1.4l.8-.2c8.5-4.3 17.5-12.4 17.5-22.7 0-5.1-2.4-10-8.3-10M2326.6 1152.5c0 7.9-4.1 12-9.9 16.6l.3-19.3c.2-1 1.7-3.8 5.7-3.8 3.6 0 3.9 3.4 3.9 5.4zm-1.2-11.4c-5 0-7.9 3-8.4 3.7l.4-31.9q-.1-1.2-1.4-1.3h-1.1q-1.4.1-1.4 1.3l.5 59.7q0 1.3 1.4 1.4l.7-.2c8.6-4.3 17.5-12.4 17.5-22.7 0-5.1-2.4-10-8.2-10M2307 1831.9c0 7.8-4.1 12-9.9 16.5l.3-19.3c.2-1 1.7-3.8 5.7-3.8 3.6 0 3.9 3.4 3.9 5.5zm-1.2-11.3c-5 0-7.9 3-8.4 3.6l.4-31.8q-.1-1.3-1.4-1.4h-1.1q-1.4.1-1.4 1.4l.5 59.6q0 1.3 1.4 1.4l.7-.2c8.6-4.3 17.5-12.4 17.5-22.6 0-5.2-2.4-10-8.2-10M2352.9 1202.1c0 7.9-4 12-9.8 16.6l.3-19.3c.2-1 1.6-3.8 5.6-3.8 3.6 0 3.9 3.4 3.9 5.4zm-1.2-11.4c-5 0-7.8 3-8.3 3.7l.4-31.9q-.1-1.2-1.4-1.3h-1.2q-1.3.1-1.4 1.3l.5 59.7q.1 1.3 1.4 1.4l.8-.2c8.5-4.3 17.4-12.4 17.4-22.7 0-5.1-2.3-10-8.2-10M2490.2 1745c0 8-4 12-9.8 16.6l.3-19.3c.2-1 1.7-3.8 5.7-3.8 3.5 0 3.8 3.4 3.8 5.5zm-1.2-11.3c-5 0-7.8 3-8.3 3.6l.4-31.8q-.1-1.3-1.4-1.4h-1.2q-1.3.1-1.4 1.4l.5 59.6q.1 1.3 1.4 1.4l.8-.2c8.5-4.3 17.5-12.4 17.5-22.6 0-5.2-2.4-10-8.3-10M1088.6 2025.4c0 7.9-4 12-9.8 16.6l.3-19.3c.2-1 1.7-3.8 5.6-3.8 3.6 0 3.9 3.4 3.9 5.4zm-1.2-11.4c-5 0-7.8 3-8.3 3.7l.4-31.9q-.1-1.2-1.4-1.3h-1.2q-1.3.1-1.4 1.3l.5 59.7q.1 1.3 1.4 1.4l.8-.2c8.5-4.3 17.4-12.4 17.4-22.7 0-5.1-2.3-10-8.2-10M1062.3 1975.8c0 7.9-4.1 12-9.9 16.6l.3-19.3c.2-1 1.7-3.8 5.7-3.8 3.6 0 3.9 3.4 3.9 5.4zm-1.2-11.4c-5 0-7.9 3-8.4 3.7l.4-31.9q-.1-1.2-1.4-1.3h-1.1q-1.3.1-1.4 1.3l.5 59.7q.1 1.3 1.4 1.4l.8-.2c8.5-4.3 17.4-12.4 17.4-22.7 0-5.1-2.4-10-8.2-10M1088.6 1938.6c0 7.9-4 12-9.8 16.6l.3-19.3c.2-1 1.7-3.8 5.6-3.8 3.6 0 3.9 3.4 3.9 5.4zm-1.2-11.4c-5 0-7.8 3-8.3 3.7l.4-31.9q-.1-1.2-1.4-1.3h-1.2q-1.3.1-1.4 1.3l.5 59.7q.1 1.3 1.4 1.4l.8-.2c8.5-4.3 17.4-12.4 17.4-22.7 0-5.1-2.3-10-8.2-10M2352.9 1115.3c0 7.9-4 12-9.8 16.6l.3-19.3c.2-1 1.6-3.8 5.6-3.8 3.6 0 3.9 3.4 3.9 5.4zm-1.2-11.4c-5 0-7.8 3-8.3 3.7l.4-31.9q-.1-1.2-1.4-1.3h-1.2q-1.3.1-1.4 1.3l.5 59.7q.1 1.3 1.4 1.4l.8-.2c8.5-4.3 17.4-12.4 17.4-22.7 0-5.1-2.3-10-8.2-10" class="Accidental"/><path fill="none" stroke="#000" stroke-linejoin="bevel" stroke-width="4" d="M2726.6 3369.2h48.6M2373.3 1798.6h48.5M2373.3 1773.8h48.5M1489.2 3369.2h48.6M1489.2 3394h48.6M638.4 1017.7h53.4M2654.5 3344.4h48.6M1168.9 1042.5h53.4M2318.5 1823.4h48.6M2318.5 1798.6h48.6M1561.3 3344.4h48.6M2726.6 3394h48.6M2364.4 1017.7h53.4M2364.4 992.9h53.4M1489.2 3344.4h48.6M2318.5 1773.8h48.6M1100.1 1773.8h53.4M1100.1 1798.6h53.4M1168.9 992.9h53.4M2527.6 3344.4h48.6M1757.9 992.9h53.4M2455.6 3344.4h48.5M1168.9 1017.7h53.4M1757.9 1017.7h53.4M870.1 3344.4h48.6M638.4 992.9h53.4M549.6 1773.8H603M2455.6 3369.2h48.5M1302.7 3344.4h48.5M2239.3 3344.4h48.6M1302.7 3369.2h48.5M1086.4 3369.2h48.6M2239.3 3369.2h48.6M1674.4 1773.8h53.4M798 3369.2h48.6M2726.6 3344.4h48.6M2023 3344.4h48.6M798 3344.4h48.6M1561.3 3394h48.6M1950.9 3369.2h48.6M2654.5 3369.2h48.6M1561.3 3369.2h48.6M2599.7 3344.4h48.6M1950.9 3344.4h48.6M1086.4 3344.4h48.6M2428 1773.8h48.6M2654.5 3394h48.6M1561.3 3598.6h48.6M1168.9 1206.1h53.4M2182.3 2029.4h53.4M1168.9 1230.9h53.4M552 3598.6h48.6M1704.9 3598.6h48.6M2654.5 3598.6h48.6M2726.6 3598.6h48.6M1757.9 1206.1h53.4M638.4 1206.1h53.4M2548.1 2821.5h48.6M2182.3 2054.2h53.4M2364.4 1206.1h53.4M1489.2 3598.6h48.6M1100.1 2029.4h53.4" class="LedgerLine"/><path fill="none" stroke="#000" stroke-linejoin="bevel" stroke-width="2.5" d="M1678.4 729.4v-82.6M2804.5 1464.7v-70.6M2743.9 1452.3v-64.1M1806.8 1452.3v-64.2M1426.5 692.2v-76.6M1354.5 679.8v-64.2M1498.4 692.2v-76.4M591.2 2288v-76.6M1892.6 1464.7v-70.5M1282.5 704.6v-89M2616.3 1477.1v-82.8M1953.2 1464.7v-76.4M1570.4 704.6v-82.8M2025.8 1477.1v-82.8M1529.9 2300.4v-82.6M2086.9 1448v76.4M2534.5 1477.1v-83M2467.2 1464.7v-77.3M1100 2288v-76.6M1907.5 679.8v-64.1M2412.4 1452.3V1382M2194.1 1448v76.5M963.7 704.6V622M1318.8 1464.7v-70.5M2240.7 692.2v-76.4M1379.4 1477.1v-70.4M1232.5 1452.3v-64.2M682 1452.3v-64.1M2406 692.2v-76.6M1440 1477.1v-70.4M891.7 692.2v-70.5M1500.5 1477.1v-70.4M990.1 1477.1v-76.6M2658 692.2v-76.6M929.6 1464.7v-64.2M1567.8 1501.9v-91.4M2586 679.8v-64.1M2765.9 704.6v-82.8M1608.7 1514.3v-101.5M2514 704.6v-82.9M2132.7 704.6v-82.8M1035.7 692.2v-76.6M747.8 1464.7v-70.5M869 1464.7v-64.2M2051.5 692.2v-76.4M808.4 1477.1v-76.6M788 679.8v-64.1M1979.5 692.2v-70.5M1791.5 2300.4v-82.8M1528.4 3390v-113.8M2587.3 2574.4v-126.2M2436.5 2574.4v-132.3M2653.6 1691.2v64M2693.7 3390v-113.8M1600.5 3390v-113.8M2774.7 1691.2v64M1791.5 2574.4V2442M2765.8 3390v-113.8M2714.2 1678.8v76.4M2320.8 3311.4V3456M2693.7 3607v-182M1095.8 3385.8v76.3M2437.5 1778v101.1M1240 3507.8v-70.4M1960.3 3385.8v57.9M1167.9 3311.4V3456M2537.1 3348.6V3456M2504.7 1753.2v118.4M2248.7 3385.8v76.3M2176.6 3507.8v-68.3M1384.2 3323.8V3456M2104.5 3299v155M2545.6 1728.4V1867M1456.3 3323.8v107.4M2032.4 3361v88.9M2465 3385.8v70.2M2616.3 1720.3v-82.7M1312.1 3385.8v70.2M1888.2 3507.8v-74.5M2609.2 3348.6v95M1600.5 3607v-194.4M807.4 3385.8v57.9M1791.5 2792.7v-144.8M735.3 3507.8v-74.5M663.3 3545v-103.5M591.2 3594.6v-144.9M879.5 3361v88.9M1744.1 3594.6v-144.9M2246.6 2000.6v-105.4M2436.5 2792.7v-157.1M2287.5 1963.4v-74.2M2587.3 2829.9v-176M1816.2 3545v-103.5M2327.9 1840v61.8M1528.4 3607v-194.4M2382.7 1815.2v70.1M2392.9 3507.8v-70.4M2765.8 3607v-182M951.6 3299v155M1023.7 3507.8v-68.3" class="Stem"/><path d="M1677.2 669.1c0 .3 0 .8.8 1.1a40 40 0 0 1 19.2 17.8c1.8 3 4.7 7.3 4.7 15.5a65 65 0 0 1-4.5 21.7q-.4.8-.3 1.5 0 1 1 1t1.6-1.1c4.5-8 6.2-17.2 6.2-26.2-.5-12.8-7.9-22.3-7.9-22.3.3 0-9.1-12.2-11.8-16.3-3.6-5.7-5.3-11.3-5.5-11.7l-1-4q-.2-.6-1.2-.7-1.2.1-1.3 1.3zM2050.3 638.1c0 .3 0 .8.8 1.1a40 40 0 0 1 19.2 17.8c1.8 3 4.7 7.3 4.7 15.5a65 65 0 0 1-4.5 21.7q-.4.8-.3 1.5 0 1 1 1t1.6-1.1c4.4-8 6.1-17.2 6.1-26.2a42 42 0 0 0-7.8-22.3c.3 0-9.1-12.2-11.8-16.3-3.7-5.7-5.4-11.3-5.6-11.7l-1-4q0-.6-1.2-.7-1.1.1-1.2 1.3zM1952 1410.6c0 .3 0 .8.8 1a40 40 0 0 1 19.2 17.8c1.8 3.1 4.7 7.4 4.7 15.6a65 65 0 0 1-4.5 21.6q-.4.9-.3 1.5 0 1 1 1t1.6-1c4.4-8 6.1-17.2 6.1-26.3-.5-12.8-7.8-22.2-7.8-22.2.3 0-9.1-12.2-11.8-16.4-3.7-5.6-5.4-11.3-5.6-11.7l-1-3.8q0-.7-1.2-.8-1.1.1-1.2 1.3zM2085.6 1524.4c0 .6.6 1.3 1.3 1.3q.9-.1 1.2-.8l1-4c0-.3 1-4 4.5-10 4-6.4 9.9-11 14.8-18s7.9-13.5 7.9-22.2c0-9-2.1-16.6-7.4-26.2q-.5-1-1.5-1h-.5q-.7.3-.7 1.2l.3 1.2c4 9.2 5.6 14.5 5.6 21.6 0 8.2-2.9 12.5-4.7 15.6a42 42 0 0 1-21 17.8q-1 .4-.8 1zM1528.7 2240c0 .4 0 .9.8 1.2a40 40 0 0 1 19.2 17.7c1.8 3.1 4.7 7.4 4.7 15.6a65 65 0 0 1-4.5 21.6q-.4.9-.3 1.5 0 1 1 1t1.6-1c4.5-8 6.2-17.2 6.2-26.3-.5-12.8-7.9-22.2-7.9-22.2.3 0-9.1-12.2-11.8-16.4-3.6-5.6-5.3-11.3-5.5-11.7l-1-3.8q-.2-.7-1.2-.8-1.2.1-1.3 1.3zM1497.2 638.1c0 .3 0 .8.8 1.1a40 40 0 0 1 19.2 17.8c1.8 3 4.7 7.3 4.7 15.5a65 65 0 0 1-4.5 21.7q-.4.8-.3 1.5 0 1 1 1t1.6-1.1c4.5-8 6.2-17.2 6.2-26.2-.5-12.8-7.9-22.3-7.9-22.3.3 0-9.1-12.2-11.8-16.3-3.6-5.7-5.3-11.3-5.5-11.7l-1-4q-.2-.6-1.2-.7-1.2.1-1.3 1.3zM2239.4 638.1q-.1.5.8 1.1a40 40 0 0 1 19.3 17.8c1.7 3 4.6 7.3 4.6 15.5a65 65 0 0 1-4.4 21.7q-.3.8-.4 1.5 0 1 1 1t1.6-1.1c4.5-8 6.2-17.2 6.2-26.2a42 42 0 0 0-7.9-22.3c.3 0-9-12.2-11.8-16.3-3.6-5.7-5.3-11.3-5.5-11.7l-1-4q-.2-.6-1.2-.7-1.2.1-1.3 1.3zM962.5 644.3q-.2.5.8 1.1a40 40 0 0 1 19.2 17.8c1.8 3 4.7 7.3 4.7 15.5a65 65 0 0 1-4.5 21.7q-.4.8-.3 1.5 0 1 1 1t1.6-1.1c4.5-8 6.1-17.2 6.1-26.2-.5-12.8-7.8-22.3-7.8-22.3.3 0-9.1-12.2-11.8-16.3-3.7-5.7-5.4-11.3-5.6-11.7l-1-4q-.1-.6-1.1-.7-1.2.1-1.3 1.3zM2615 1660q-.1.4.8 1a40 40 0 0 1 19.3 17.8c1.8 3 4.6 7.3 4.6 15.6a65 65 0 0 1-4.4 21.6q-.4.9-.3 1.5 0 1 1 1t1.6-1.1c4.4-8 6.1-17.2 6.1-26.2-.5-12.8-7.8-22.2-7.8-22.2.3 0-9.2-12.2-11.8-16.4-3.7-5.7-5.4-11.3-5.6-11.7l-1-3.9q-.2-.7-1.2-.8-1.2.1-1.3 1.3z" class="Hook"/><path d="M2735 712.8c0 4.2 3 9 11 9 10.4 0 21.2-8.4 21.2-17.2 0-5.8-5-9.1-11.1-9.1-9.7 0-21.2 8.1-21.2 17.3M1395.5 700.4c0 4.2 3 9 11 9 10.4 0 21.2-8.4 21.2-17.2 0-5.8-5-9.1-11.1-9.1-9.6 0-21.1 8.1-21.1 17.3M757 688c0 4.2 3 9 11.1 9 10.3 0 21.2-8.4 21.2-17.2 0-5.8-5-9.1-11.2-9.1-9.6 0-21 8.1-21 17.3M1323.5 688c0 4.2 3 9 11 9 10.4 0 21.2-8.4 21.2-17.2 0-5.8-5-9.1-11.1-9.1-9.6 0-21.1 8.1-21.1 17.3M860.7 700.4c0 4.2 3 9 11.1 9 10.3 0 21.2-8.4 21.2-17.2 0-5.8-5-9.1-11.2-9.1-9.6 0-21 8.1-21 17.3M1251.5 712.8c0 4.2 3 9 11 9 10.4 0 21.2-8.4 21.2-17.2 0-5.8-5-9.1-11.1-9.1-9.6 0-21.1 8.1-21.1 17.3M932.7 712.8c0 4.2 3 9 11.1 9 10.3 0 21.1-8.4 21.1-17.2 0-5.8-5-9.1-11-9.1-9.7 0-21.2 8.1-21.2 17.3M1004.7 700.4c0 4.2 3 9 11.1 9 10.3 0 21.1-8.4 21.1-17.2 0-5.8-5-9.1-11-9.1-9.7 0-21.2 8.1-21.2 17.3M567.6 2300.5c-3.3 0-4-2.7-4-3.6 0-4.8 16.7-13.4 21.4-13.4 2.3 0 4 1.4 4 3.6 0 5-16.8 13.4-21.4 13.4m13.7-21.6c-9.6 0-21.1 8-21.1 17.2 0 4.3 3 9 11 9 10.4 0 21.2-8.4 21.2-17.1 0-5.9-5-9.1-11.1-9.1M1069 2296.1c0 4.3 3 9 11 9 10.4 0 21.2-8.4 21.2-17.1 0-5.9-5-9.1-11.1-9.1-9.6 0-21.1 8.1-21.1 17.2M1499 2308.5c0 4.3 3 9 11 9 10.4 0 21.2-8.4 21.2-17.1 0-5.9-5-9.1-11.1-9.1-9.7 0-21.2 8.1-21.2 17.2M1768 2312.9c-3.3 0-4-2.7-4-3.6 0-4.8 16.7-13.4 21.3-13.4 2.4 0 4 1.4 4 3.6 0 5-16.8 13.4-21.3 13.4m13.7-21.6c-9.7 0-21.2 8-21.2 17.2 0 4.3 3.1 9 11.2 9 10.3 0 21-8.4 21-17.1 0-5.9-4.9-9.1-11-9.1M1348.4 1485.2c0 4.3 3 9 11.1 9 10.3 0 21.1-8.4 21.1-17.1 0-5.9-5-9.1-11-9.1-9.7 0-21.2 8.1-21.2 17.2M2192.9 1448c0 4.3 3 9 11.1 9 10.3 0 21.1-8.4 21.1-17.1 0-5.9-5-9.1-11-9.1-9.7 0-21.2 8.1-21.2 17.2M1876.5 688c0 4.2 3 9 11.1 9 10.3 0 21.1-8.4 21.1-17.2 0-5.8-5-9.1-11-9.1-9.7 0-21.2 8.1-21.2 17.3M2085.6 1448c0 4.3 3 9 11.1 9 10.3 0 21.2-8.4 21.2-17.1 0-5.9-5-9.1-11.2-9.1-9.6 0-21 8.1-21 17.2M1994.8 1485.2c0 4.3 3 9 11 9 10.4 0 21.2-8.4 21.2-17.1 0-5.9-5-9.1-11.1-9.1-9.6 0-21.1 8.1-21.1 17.2M1922.2 1472.8c0 4.3 3 9 11.1 9 10.3 0 21.1-8.4 21.1-17.1 0-5.9-5-9.1-11-9.1-9.7 0-21.2 8.1-21.2 17.2M1861.6 1472.8c0 4.3 3.1 9 11.2 9 10.3 0 21-8.4 21-17.1 0-5.9-4.9-9.1-11-9.1-9.7 0-21.2 8.1-21.2 17.2M1775.8 1460.4c0 4.3 3 9 11.1 9 10.3 0 21.2-8.4 21.2-17.1 0-5.9-5-9.1-11.2-9.1-9.6 0-21 8.1-21 17.2M1948.5 700.4c0 4.2 3 9 11.1 9 10.3 0 21.1-8.4 21.1-17.2 0-5.8-5-9.1-11-9.1-9.7 0-21.2 8.1-21.2 17.3M2020.5 700.4c0 4.2 3 9 11.1 9 10.3 0 21.1-8.4 21.1-17.2 0-5.8-5-9.1-11-9.1-9.7 0-21.2 8.1-21.2 17.3M1577.7 1522.4c0 4.3 3 9 11.1 9 10.3 0 21.1-8.4 21.1-17.1 0-5.9-5-9.1-11-9.1-9.7 0-21.2 8.1-21.2 17.2M1536.8 1510c0 4.3 3 9 11 9 10.4 0 21.2-8.4 21.2-17.1 0-5.9-5-9.1-11.1-9.1-9.6 0-21.1 8.1-21.1 17.2M2101.7 712.8c0 4.2 3 9 11 9 10.4 0 21.2-8.4 21.2-17.2 0-5.8-5-9.1-11.1-9.1-9.6 0-21.1 8.1-21.1 17.3M1469.5 1485.2c0 4.3 3 9 11.1 9 10.3 0 21.2-8.4 21.2-17.1 0-5.9-5-9.1-11.2-9.1-9.6 0-21 8.1-21 17.2M1409 1485.2c0 4.3 3 9 11 9 10.4 0 21.2-8.4 21.2-17.1 0-5.9-5-9.1-11.1-9.1-9.6 0-21.1 8.1-21.1 17.2M1539.4 712.8c0 4.2 3.1 9 11.2 9 10.3 0 21-8.4 21-17.2 0-5.8-4.9-9.1-11-9.1-9.7 0-21.2 8.1-21.2 17.3M1287.8 1472.8c0 4.3 3.1 9 11.1 9 10.4 0 21.2-8.4 21.2-17.1 0-5.9-5-9.1-11.1-9.1-9.7 0-21.2 8.1-21.2 17.2M2209.7 700.4c0 4.2 3 9 11 9 10.4 0 21.2-8.4 21.2-17.2 0-5.8-5-9.1-11.1-9.1-9.6 0-21.2 8.1-21.2 17.3M1201.5 1460.4c0 4.3 3 9 11.1 9 10.3 0 21.2-8.4 21.2-17.1 0-5.9-5-9.1-11.2-9.1-9.6 0-21 8.1-21 17.2M2375 700.4c0 4.2 3 9 11 9 10.4 0 21.2-8.4 21.2-17.2 0-5.8-5-9.1-11.1-9.1-9.6 0-21.1 8.1-21.1 17.3M959.1 1485.2c0 4.3 3.1 9 11.2 9 10.3 0 21-8.4 21-17.1 0-5.9-4.9-9.1-11-9.1-9.7 0-21.2 8.1-21.2 17.2M898.6 1472.8c0 4.3 3 9 11 9 10.4 0 21.2-8.4 21.2-17.1 0-5.9-5-9.1-11-9.1-9.7 0-21.2 8.1-21.2 17.2M838 1472.8c0 4.3 3 9 11.1 9 10.3 0 21.2-8.4 21.2-17.1 0-5.9-5-9.1-11.2-9.1-9.6 0-21 8.1-21 17.2M777.4 1485.2c0 4.3 3 9 11.1 9 10.3 0 21.2-8.4 21.2-17.1 0-5.9-5-9.1-11.2-9.1-9.6 0-21 8.1-21 17.2M716.8 1472.8c0 4.3 3 9 11.1 9 10.3 0 21.2-8.4 21.2-17.1 0-5.9-5-9.1-11.2-9.1-9.6 0-21 8.1-21 17.2M651 1460.4c0 4.3 3 9 11.1 9 10.3 0 21.1-8.4 21.1-17.1 0-5.9-5-9.1-11-9.1-9.7 0-21.2 8.1-21.2 17.2M2483 712.8c0 4.2 3 9 11 9 10.4 0 21.2-8.4 21.2-17.2 0-5.8-5-9.1-11.1-9.1-9.6 0-21.2 8.1-21.2 17.3M2555 688c0 4.2 3 9 11 9 10.4 0 21.2-8.4 21.2-17.2 0-5.8-5-9.1-11.1-9.1-9.6 0-21.2 8.1-21.2 17.3M2627 700.4c0 4.2 3 9 11 9 10.4 0 21.2-8.4 21.2-17.2 0-5.8-5-9.1-11.1-9.1-9.6 0-21.2 8.1-21.2 17.3M2713 1460.4c0 4.3 3 9 11 9 10.4 0 21.2-8.4 21.2-17.1 0-5.9-5-9.1-11.1-9.1-9.7 0-21.2 8.1-21.2 17.2M2503.5 1485.2c0 4.3 3 9 11 9 10.4 0 21.2-8.4 21.2-17.1 0-5.9-5-9.1-11.1-9.1-9.6 0-21.1 8.1-21.1 17.2M2436.2 1472.8c0 4.3 3.1 9 11.1 9 10.4 0 21.2-8.4 21.2-17.1 0-5.9-5-9.1-11.1-9.1-9.7 0-21.2 8.1-21.2 17.2M2585.3 1485.2c0 4.3 3 9 11 9 10.4 0 21.2-8.4 21.2-17.1 0-5.9-5-9.1-11.1-9.1-9.6 0-21.1 8.1-21.1 17.2M2773.5 1472.8c0 4.3 3 9 11.1 9 10.3 0 21.1-8.4 21.1-17.1 0-5.9-5-9.1-11-9.1-9.7 0-21.2 8.1-21.2 17.2M2381.4 1460.4c0 4.3 3.1 9 11.1 9 10.4 0 21.2-8.4 21.2-17.1 0-5.9-5-9.1-11.1-9.1-9.7 0-21.2 8.1-21.2 17.2M1647.4 737.6c0 4.2 3.1 9 11.2 9 10.3 0 21-8.4 21-17.2 0-5.8-4.9-9.1-11-9.1-9.7 0-21.2 8.1-21.2 17.3M1467.4 700.4c0 4.2 3.1 9 11.2 9 10.3 0 21-8.4 21-17.2 0-5.8-4.9-9.1-11-9.1-9.7 0-21.2 8.1-21.2 17.3M2556.3 2533c0 4.2 3 9 11 9 10.4 0 21.2-8.4 21.2-17.2 0-5.8-5-9.1-11-9.1-9.7 0-21.2 8.1-21.2 17.3M1127.6 1821.2c-2.8 0-4.6-.8-6-3.3-1.2-2.5-3-8.9-3.1-11.5q-.4-4 3.2-5a14 14 0 0 1 4.2-.7c2.8 0 4.6.6 6 3.3s3.2 9 3.2 11.5c0 4.9-3.4 5.7-7.5 5.7m-.8-23.7c-13.7 0-18.5 7-18.5 13.4s4.8 13.4 18.5 13.4 18.5-7 18.5-13.4-4.8-13.4-18.5-13.4M2392 1040.3c-2.9 0-4.8-.8-6-3.3s-3.1-8.8-3.2-11.5q-.3-4 3.2-5a14 14 0 0 1 4.2-.7c2.8 0 4.6.6 6 3.3s3.2 9 3.2 11.5c0 4.9-3.4 5.7-7.5 5.7m-.8-23.6c-13.7 0-18.5 6.9-18.5 13.3s4.8 13.4 18.5 13.4 18.5-6.9 18.5-13.4-4.8-13.3-18.5-13.3" class="Note"/><path d="M2556.3 2557.8c0 4.2 3 9 11 9 10.4 0 21.2-8.4 21.2-17.2 0-5.8-5-9.1-11-9.1-9.7 0-21.2 8.1-21.2 17.3M2405.5 2520.6c0 4.2 3 9 11.1 9 10.3 0 21.2-8.4 21.2-17.2 0-5.8-5-9.1-11.2-9.1-9.6 0-21 8.1-21 17.3" class="Note"/><path d="M2405.5 2545.4c0 4.2 3 9 11.1 9 10.3 0 21.2-8.4 21.2-17.2 0-5.8-5-9.1-11.2-9.1-9.6 0-21 8.1-21 17.3M2405.5 2582.6c0 4.2 3 9 11.1 9 10.3 0 21.2-8.4 21.2-17.2 0-5.8-5-9.1-11.2-9.1-9.6 0-21 8.1-21 17.3M2652.4 1691.2c0 4.3 3 9 11 9 10.4 0 21.2-8.4 21.2-17.1 0-5.9-5-9.2-11.1-9.2-9.6 0-21.1 8.2-21.1 17.3M2734.8 3398.2c0 4.2 3 9 11.1 9 10.3 0 21.1-8.4 21.1-17.2 0-5.8-5-9.1-11-9.1-9.7 0-21.2 8.1-21.2 17.3M2773.5 1691.2c0 4.3 3 9 11.1 9 10.3 0 21.1-8.4 21.1-17.1 0-5.9-5-9.2-11-9.2-9.7 0-21.2 8.2-21.2 17.3M1785.5 1040.3c-2.8 0-4.7-.8-6-3.3s-3-8.8-3.2-11.5q-.3-4 3.2-5a14 14 0 0 1 4.3-.7c2.7 0 4.5.6 6 3.3 1.3 2.7 3.1 9 3.1 11.5 0 4.9-3.4 5.7-7.4 5.7m-.8-23.6c-13.7 0-18.6 6.9-18.6 13.3s4.9 13.4 18.6 13.4 18.4-6.9 18.4-13.4-4.7-13.3-18.4-13.3M577.1 1796.4c-2.8 0-4.6-.8-6-3.3-1.2-2.5-3-8.9-3.1-11.5q-.4-4 3.2-5a14 14 0 0 1 4.2-.7c2.8 0 4.6.6 6 3.3s3.2 9 3.2 11.5c0 4.9-3.4 5.7-7.5 5.7m-.8-23.7c-13.7 0-18.5 7-18.5 13.4s4.8 13.4 18.5 13.4 18.5-7 18.5-13.4-4.8-13.4-18.5-13.4M2713 1678.8c0 4.3 3 9 11 9 10.4 0 21.2-8.4 21.2-17.1 0-5.9-5-9.2-11.1-9.2-9.7 0-21.2 8.2-21.2 17.3M1768 2525c-3.3 0-4-2.7-4-3.6 0-5 16.7-13.4 21.3-13.4 2.4 0 4 1.4 4 3.5 0 5-16.8 13.4-21.3 13.4m13.7-21.6c-9.7 0-21.2 8-21.2 17.3 0 4.2 3.1 9 11.2 9 10.3 0 21-8.4 21-17.2 0-5.8-4.9-9.1-11-9.1M2556.3 2582.6c0 4.2 3 9 11 9 10.4 0 21.2-8.4 21.2-17.2 0-5.8-5-9.1-11-9.1-9.7 0-21.2 8.1-21.2 17.3M1768 2587c-3.3 0-4-2.7-4-3.6 0-5 16.7-13.4 21.3-13.4 2.4 0 4 1.4 4 3.5 0 5-16.8 13.4-21.3 13.4m13.7-21.6c-9.7 0-21.2 8-21.2 17.3 0 4.2 3.1 9 11.2 9 10.3 0 21-8.4 21-17.2 0-5.8-4.9-9.1-11-9.1M577.1 2526.5q-4 .2-6-3.2c-1.2-2.5-3-8.9-3.1-11.6q-.4-3.8 3.2-5a14 14 0 0 1 4.2-.6c2.8 0 4.6.6 6 3.3s3.2 9 3.2 11.5c0 4.8-3.4 5.6-7.5 5.6m-.8-23.6c-13.7 0-18.5 7-18.5 13.4s4.8 13.4 18.5 13.4 18.5-7 18.5-13.4-4.8-13.4-18.5-13.4" class="Note"/><path d="M577.1 2551.3q-4 .2-6-3.2c-1.2-2.5-3-8.9-3.1-11.6q-.4-3.8 3.2-5a14 14 0 0 1 4.2-.6c2.8 0 4.6.6 6 3.3s3.2 9 3.2 11.5c0 4.8-3.4 5.6-7.5 5.6m-.8-23.6c-13.7 0-18.5 7-18.5 13.4s4.8 13.4 18.5 13.4 18.5-7 18.5-13.4-4.8-13.4-18.5-13.4M1702 1796.4c-2.8 0-4.7-.8-6-3.3s-3-8.9-3.2-11.5q-.4-4 3.2-5a14 14 0 0 1 4.2-.7c2.8 0 4.6.6 6 3.3s3.2 9 3.2 11.5c0 4.9-3.4 5.7-7.5 5.7m-.8-23.7c-13.6 0-18.5 7-18.5 13.4s4.9 13.4 18.5 13.4 18.5-7 18.5-13.4-4.8-13.4-18.5-13.4M577.1 2588.5q-4 .2-6-3.2c-1.2-2.5-3-8.9-3.1-11.6q-.4-3.8 3.2-5a14 14 0 0 1 4.2-.6c2.8 0 4.6.6 6 3.3s3.2 9 3.2 11.5c0 4.8-3.4 5.6-7.5 5.6m-.8-23.6c-13.7 0-18.5 7-18.5 13.4s4.8 13.4 18.5 13.4 18.5-7 18.5-13.4-4.8-13.4-18.5-13.4M1196.4 1065c-2.8 0-4.7-.7-6-3.2s-3-8.8-3.1-11.5q-.4-4 3.2-5a14 14 0 0 1 4.2-.7c2.8 0 4.6.6 6 3.3s3.2 9 3.2 11.5c0 4.9-3.4 5.7-7.5 5.7m-.8-23.6c-13.7 0-18.5 6.9-18.5 13.3s4.8 13.4 18.5 13.4 18.5-6.9 18.5-13.4-4.8-13.3-18.5-13.3M2662.7 3398.2c0 4.2 3 9 11.1 9 10.3 0 21.2-8.4 21.2-17.2 0-5.8-5-9.1-11.2-9.1-9.6 0-21 8.1-21 17.3M666 1040.3c-2.8 0-4.7-.8-6-3.3s-3-8.8-3.2-11.5q-.4-4 3.2-5a14 14 0 0 1 4.3-.7c2.8 0 4.6.6 6 3.3 1.3 2.7 3.1 9 3.1 11.5 0 4.9-3.4 5.7-7.4 5.7m-.8-23.6c-13.7 0-18.6 6.9-18.6 13.3s4.9 13.4 18.6 13.4 18.4-6.9 18.4-13.4-4.7-13.3-18.4-13.3M1569.5 3398.2c0 4.2 3 9 11 9 10.4 0 21.2-8.4 21.2-17.2 0-5.8-5-9.1-11.1-9.1-9.6 0-21.1 8.1-21.1 17.3M1768 2549.7c-3.3 0-4-2.6-4-3.5 0-5 16.7-13.4 21.3-13.4 2.4 0 4 1.4 4 3.5 0 5-16.8 13.4-21.3 13.4m13.7-21.6c-9.7 0-21.2 8-21.2 17.3 0 4.2 3.1 9 11.2 9 10.3 0 21-8.4 21-17.2 0-5.8-4.9-9.1-11-9.1M1497.4 3398.2c0 4.2 3 9 11 9 10.4 0 21.2-8.4 21.2-17.2 0-5.8-5-9.1-11.1-9.1-9.6 0-21.1 8.1-21.1 17.3M2247.5 3385.8c0 4.2 3 9 11 9 10.4 0 21.2-8.4 21.2-17.2 0-5.8-5-9.1-11.1-9.1-9.6 0-21.2 8.1-21.2 17.3M2503.5 1753.2c0 4.3 3 9 11 9 10.4 0 21.2-8.4 21.2-17.1 0-5.9-5-9.2-11.1-9.2-9.6 0-21.1 8.2-21.1 17.3M1785.2 3553.2c0 4.2 3 9 11 9 10.4 0 21.2-8.4 21.2-17.2 0-5.8-5-9.1-11.1-9.1-9.6 0-21.1 8.1-21.1 17.3M2361.9 3516c0 4.2 3 9 11.1 9 10.3 0 21.1-8.4 21.1-17.2 0-5.8-5-9.1-11-9.1-9.7 0-21.2 8.1-21.2 17.3M2319.5 3311.4c0 4.2 3.1 9 11.2 9 10.3 0 21-8.4 21-17.2 0-5.8-4.9-9.1-11-9.1-9.7 0-21.2 8.1-21.2 17.3M2734.8 3528.4c0 4.2 3 9 11.1 9 10.3 0 21.1-8.4 21.1-17.2 0-5.8-5-9.1-11-9.1-9.7 0-21.2 8.1-21.2 17.3M1209 3516c0 4.2 3 9 11.1 9 10.3 0 21.1-8.4 21.1-17.2 0-5.8-5-9.1-11-9.1-9.7 0-21.2 8.1-21.2 17.3M2463.7 3385.8c0 4.2 3.1 9 11.1 9 10.4 0 21.2-8.4 21.2-17.2 0-5.8-5-9.1-11.1-9.1-9.7 0-21.2 8.1-21.2 17.3M1857.2 3516c0 4.2 3.1 9 11.2 9 10.3 0 21-8.4 21-17.2 0-5.8-4.9-9.1-11-9.1-9.7 0-21.2 8.1-21.2 17.3M2145.6 3516c0 4.2 3 9 11.1 9 10.3 0 21.2-8.4 21.2-17.2 0-5.8-5-9.1-11.2-9.1-9.6 0-21 8.1-21 17.3M1959 3385.8c0 4.2 3.1 9 11.2 9 10.3 0 21.1-8.4 21.1-17.2 0-5.8-5-9.1-11-9.1-9.7 0-21.2 8.1-21.2 17.3M2734.8 3565.6c0 4.2 3 9 11.1 9 10.3 0 21.1-8.4 21.1-17.2 0-5.8-5-9.1-11-9.1-9.7 0-21.2 8.1-21.2 17.3M2031.2 3361c0 4.2 3 9 11 9 10.4 0 21.2-8.4 21.2-17.2 0-5.8-5-9.1-11.1-9.1-9.6 0-21.1 8.1-21.1 17.3M2103.3 3299c0 4.2 3 9 11 9 10.4 0 21.2-8.4 21.2-17.2 0-5.8-5-9.1-11.1-9.1-9.6 0-21.1 8.1-21.1 17.3M2734.8 3615.2c0 4.2 3 9 11.1 9 10.3 0 21.1-8.4 21.1-17.2 0-5.8-5-9.1-11-9.1-9.7 0-21.2 8.1-21.2 17.3M992.7 3516c0 4.2 3 9 11.1 9 10.3 0 21.2-8.4 21.2-17.2 0-5.8-5-9.1-11.2-9.1-9.6 0-21 8.1-21 17.3M878.3 3361c0 4.2 3 9 11 9 10.4 0 21.2-8.4 21.2-17.2 0-5.8-5-9.1-11.1-9.1-9.6 0-21.1 8.1-21.1 17.3M1497.4 3528.4c0 4.2 3 9 11 9 10.4 0 21.2-8.4 21.2-17.2 0-5.8-5-9.1-11.1-9.1-9.6 0-21.1 8.1-21.1 17.3M2608 3348.6c0 4.2 3 9 11 9 10.3 0 21.2-8.4 21.2-17.2 0-5.8-5-9.1-11.2-9.1-9.6 0-21 8.1-21 17.3M806.2 3385.8c0 4.2 3 9 11.1 9 10.3 0 21.1-8.4 21.1-17.2 0-5.8-5-9.1-11-9.1-9.7 0-21.2 8.1-21.2 17.3M1497.4 3565.6c0 4.2 3 9 11 9 10.4 0 21.2-8.4 21.2-17.2 0-5.8-5-9.1-11.1-9.1-9.6 0-21.1 8.1-21.1 17.3M1497.4 3615.2c0 4.2 3 9 11 9 10.4 0 21.2-8.4 21.2-17.2 0-5.8-5-9.1-11.1-9.1-9.6 0-21.1 8.1-21.1 17.3M2662.7 3528.4c0 4.2 3 9 11.1 9 10.3 0 21.2-8.4 21.2-17.2 0-5.8-5-9.1-11.2-9.1-9.6 0-21 8.1-21 17.3M950.4 3299c0 4.2 3 9 11 9 10.4 0 21.2-8.4 21.2-17.2 0-5.8-5-9.1-11.1-9.1-9.6 0-21.1 8.1-21.1 17.3M1569.5 3615.2c0 4.2 3 9 11 9 10.4 0 21.2-8.4 21.2-17.2 0-5.8-5-9.1-11.1-9.1-9.6 0-21.1 8.1-21.1 17.3M1569.5 3565.6c0 4.2 3 9 11 9 10.4 0 21.2-8.4 21.2-17.2 0-5.8-5-9.1-11.1-9.1-9.6 0-21.1 8.1-21.1 17.3M1569.5 3528.4c0 4.2 3 9 11 9 10.4 0 21.2-8.4 21.2-17.2 0-5.8-5-9.1-11.1-9.1-9.6 0-21.1 8.1-21.1 17.3M1166.7 3311.4c0 4.2 3 9 11 9 10.4 0 21.2-8.4 21.2-17.2 0-5.8-5-9.1-11.1-9.1-9.6 0-21.1 8.1-21.1 17.3M1455 3323.8c0 4.2 3 9 11.1 9 10.3 0 21.2-8.4 21.2-17.2 0-5.8-5-9.1-11.2-9.1-9.6 0-21 8.1-21 17.3M704.3 3516c0 4.2 3.1 9 11.2 9 10.3 0 21-8.4 21-17.2 0-5.8-4.9-9.1-11-9.1-9.7 0-21.2 8.1-21.2 17.3M2662.7 3565.6c0 4.2 3 9 11.1 9 10.3 0 21.2-8.4 21.2-17.2 0-5.8-5-9.1-11.2-9.1-9.6 0-21 8.1-21 17.3M2662.7 3615.2c0 4.2 3 9 11.1 9 10.3 0 21.2-8.4 21.2-17.2 0-5.8-5-9.1-11.2-9.1-9.6 0-21 8.1-21 17.3M632.3 3553.2c0 4.2 3 9 11 9 10.4 0 21.2-8.4 21.2-17.2 0-5.8-5-9.1-11.1-9.1-9.6 0-21.1 8.1-21.1 17.3M2535.8 3348.6c0 4.2 3 9 11.1 9 10.3 0 21.2-8.4 21.2-17.2 0-5.8-5-9.1-11.2-9.1-9.6 0-21 8.1-21 17.3M560.2 3602.8c0 4.2 3 9 11 9 10.4 0 21.2-8.4 21.2-17.2 0-5.8-5-9.1-11.1-9.1-9.6 0-21.1 8.1-21.1 17.3M1383 3323.8c0 4.2 3 9 11 9 10.3 0 21.2-8.4 21.2-17.2 0-5.8-5-9.1-11.2-9.1-9.6 0-21 8.1-21 17.3M1310.8 3385.8c0 4.2 3.1 9 11.1 9 10.4 0 21.2-8.4 21.2-17.2 0-5.8-5-9.1-11.1-9.1-9.7 0-21.2 8.1-21.2 17.3M1713 3602.8c0 4.2 3.1 9 11.2 9 10.3 0 21.1-8.4 21.1-17.2 0-5.8-5-9.1-11.1-9.1-9.6 0-21.1 8.1-21.1 17.3M1094.6 3385.8c0 4.2 3 9 11 9 10.4 0 21.2-8.4 21.2-17.2 0-5.8-5-9.1-11.1-9.1-9.6 0-21.2 8.1-21.2 17.3M1768 2805.2c-3.3 0-4-2.7-4-3.6 0-4.8 16.7-13.4 21.3-13.4 2.4 0 4 1.4 4 3.6 0 5-16.8 13.4-21.3 13.4m13.7-21.6c-9.7 0-21.2 8-21.2 17.2 0 4.3 3.1 9 11.2 9 10.3 0 21-8.4 21-17 0-6-4.9-9.2-11-9.2M2381.4 1815.2c0 4.3 3.1 9 11.1 9 10.4 0 21.2-8.4 21.2-17.1 0-5.9-5-9.2-11.1-9.2-9.7 0-21.2 8.2-21.2 17.3M1196.4 1154.2c-2.8 0-4.7-.8-6-3.2s-3-8.9-3.1-11.6q-.4-3.8 3.2-5a14 14 0 0 1 4.2-.6c2.8 0 4.6.6 6 3.3s3.2 9 3.2 11.5c0 4.8-3.4 5.6-7.5 5.6m-.8-23.6c-13.7 0-18.5 7-18.5 13.4s4.8 13.4 18.5 13.4 18.5-7 18.5-13.4-4.8-13.4-18.5-13.4M577.1 1928q-4 .1-6-3.3c-1.2-2.5-3-8.9-3.1-11.6q-.4-3.8 3.2-5a14 14 0 0 1 4.2-.6c2.8 0 4.6.6 6 3.3s3.2 9 3.2 11.5c0 4.8-3.4 5.6-7.5 5.6m-.8-23.6c-13.7 0-18.5 7-18.5 13.4s4.8 13.4 18.5 13.4 18.5-7 18.5-13.4-4.8-13.4-18.5-13.4M577.1 1965.1c-2.8 0-4.6-.8-6-3.2-1.2-2.5-3-8.9-3.1-11.6q-.4-3.8 3.2-5a14 14 0 0 1 4.2-.6c2.8 0 4.6.6 6 3.3s3.2 9 3.2 11.5c0 4.8-3.4 5.6-7.5 5.6m-.8-23.6c-13.7 0-18.5 7-18.5 13.4s4.8 13.4 18.5 13.4 18.5-7 18.5-13.4-4.8-13.4-18.5-13.4M2436.2 1778c0 4.3 3.1 9 11.1 9 10.4 0 21.2-8.4 21.2-17.1 0-5.9-5-9.2-11.1-9.2-9.7 0-21.2 8.2-21.2 17.3M1768 2718.4c-3.3 0-4-2.7-4-3.6 0-4.8 16.7-13.4 21.3-13.4 2.4 0 4 1.4 4 3.6 0 5-16.8 13.4-21.3 13.4m13.7-21.6c-9.7 0-21.2 8-21.2 17.2 0 4.3 3.1 9 11.2 9 10.3 0 21-8.4 21-17 0-6-4.9-9.2-11-9.2M2544.4 1728.4c0 4.3 3 9 11 9 10.4 0 21.2-8.4 21.2-17.1 0-5.9-5-9.2-11.1-9.2-9.6 0-21.1 8.2-21.1 17.3M1785.5 1216.2c-2.8 0-4.7-.8-6-3.2s-3-8.9-3.2-11.6q-.3-3.8 3.2-5a14 14 0 0 1 4.3-.6c2.7 0 4.5.6 6 3.3 1.3 2.6 3.1 9 3.1 11.5 0 4.8-3.4 5.6-7.4 5.6m-.8-23.6c-13.7 0-18.6 7-18.6 13.4s4.9 13.4 18.6 13.4 18.4-7 18.4-13.4-4.7-13.4-18.4-13.4M1768 2755.6c-3.3 0-4-2.7-4-3.6 0-4.8 16.7-13.4 21.3-13.4 2.4 0 4 1.4 4 3.6 0 5-16.8 13.4-21.3 13.4m13.7-21.6c-9.7 0-21.2 8-21.2 17.2 0 4.3 3.1 9 11.2 9 10.3 0 21-8.4 21-17 0-6-4.9-9.2-11-9.2M2585.3 1728.4c0 4.3 3 9 11 9 10.4 0 21.2-8.4 21.2-17.1 0-5.9-5-9.2-11.1-9.2-9.6 0-21.1 8.2-21.1 17.3M1702 1928q-4.1.1-6-3.3c-1.3-2.5-3-8.9-3.2-11.6q-.4-3.8 3.2-5a14 14 0 0 1 4.2-.6c2.8 0 4.6.6 6 3.3s3.2 9 3.2 11.5c0 4.8-3.4 5.6-7.5 5.6m-.8-23.6c-13.6 0-18.5 7-18.5 13.4s4.9 13.4 18.5 13.4 18.5-7 18.5-13.4-4.8-13.4-18.5-13.4M1785.5 1166.6c-2.8 0-4.7-.8-6-3.2s-3-8.9-3.2-11.6q-.3-3.8 3.2-5a14 14 0 0 1 4.3-.6c2.7 0 4.5.6 6 3.3 1.3 2.6 3.1 9 3.1 11.5 0 4.8-3.4 5.6-7.4 5.6m-.8-23.6c-13.7 0-18.6 7-18.6 13.4s4.9 13.4 18.6 13.4 18.4-7 18.4-13.4-4.7-13.4-18.4-13.4M1785.5 1129.4q-4.1.2-6-3.2c-1.3-2.5-3-8.9-3.2-11.6q-.3-3.8 3.2-5a14 14 0 0 1 4.3-.6c2.7 0 4.5.6 6 3.3 1.3 2.6 3.1 9 3.1 11.5 0 4.8-3.4 5.6-7.4 5.6m-.8-23.6c-13.7 0-18.6 7-18.6 13.4s4.9 13.4 18.6 13.4 18.4-7 18.4-13.4-4.7-13.4-18.4-13.4M577.1 2014.7c-2.8 0-4.6-.8-6-3.2-1.2-2.5-3-8.9-3.1-11.6q-.4-3.9 3.2-5a14 14 0 0 1 4.2-.6c2.8 0 4.6.6 6 3.3s3.2 9 3.2 11.5c0 4.8-3.4 5.6-7.5 5.6m-.8-23.6c-13.7 0-18.5 7-18.5 13.4s4.8 13.4 18.5 13.4 18.5-7 18.5-13.4-4.8-13.4-18.5-13.4M2392 1216.2c-2.9 0-4.8-.8-6-3.2s-3.1-8.9-3.2-11.6q-.3-3.8 3.2-5a14 14 0 0 1 4.2-.6c2.8 0 4.6.6 6 3.3s3.2 9 3.2 11.5c0 4.8-3.4 5.6-7.5 5.6m-.8-23.6c-13.7 0-18.5 7-18.5 13.4s4.8 13.4 18.5 13.4 18.5-7 18.5-13.4-4.8-13.4-18.5-13.4M2392 1166.6c-2.9 0-4.8-.8-6-3.2s-3.1-8.9-3.2-11.6q-.3-3.8 3.2-5a14 14 0 0 1 4.2-.6c2.8 0 4.6.6 6 3.3s3.2 9 3.2 11.5c0 4.8-3.4 5.6-7.5 5.6m-.8-23.6c-13.7 0-18.5 7-18.5 13.4s4.8 13.4 18.5 13.4 18.5-7 18.5-13.4-4.8-13.4-18.5-13.4M577.1 2720c-2.8 0-4.6-.8-6-3.3-1.2-2.4-3-8.8-3.1-11.5q-.4-4 3.2-5a14 14 0 0 1 4.2-.6c2.8 0 4.6.6 6 3.2 1.4 2.7 3.2 9 3.2 11.5 0 5-3.4 5.7-7.5 5.7m-.8-23.6c-13.7 0-18.5 7-18.5 13.4s4.8 13.4 18.5 13.4 18.5-7 18.5-13.4-4.8-13.4-18.5-13.4M577.1 2757.2c-2.8 0-4.6-.8-6-3.3-1.2-2.4-3-8.8-3.1-11.5q-.4-4 3.2-5a14 14 0 0 1 4.2-.6c2.8 0 4.6.6 6 3.2 1.4 2.7 3.2 9 3.2 11.5 0 5-3.4 5.7-7.5 5.7m-.8-23.6c-13.7 0-18.5 7-18.5 13.4s4.8 13.4 18.5 13.4 18.5-7 18.5-13.4-4.8-13.4-18.5-13.4M577.1 2806.8c-2.8 0-4.6-.8-6-3.3-1.2-2.4-3-8.8-3.1-11.5q-.4-4 3.2-5a14 14 0 0 1 4.2-.6c2.8 0 4.6.6 6 3.2 1.4 2.7 3.2 9 3.2 11.5 0 5-3.4 5.7-7.5 5.7m-.8-23.6c-13.7 0-18.5 7-18.5 13.4s4.8 13.4 18.5 13.4 18.5-7 18.5-13.4-4.8-13.4-18.5-13.4M2392 1129.4q-4.3.2-6-3.2c-1.3-2.5-3.1-8.9-3.2-11.6q-.3-3.8 3.2-5a14 14 0 0 1 4.2-.6c2.8 0 4.6.6 6 3.3s3.2 9 3.2 11.5c0 4.8-3.4 5.6-7.5 5.6m-.8-23.6c-13.7 0-18.5 7-18.5 13.4s4.8 13.4 18.5 13.4 18.5-7 18.5-13.4-4.8-13.4-18.5-13.4M1127.6 1990q-4 .1-6-3.3c-1.2-2.5-3-8.9-3.1-11.6q-.4-3.8 3.2-5a14 14 0 0 1 4.2-.6c2.8 0 4.6.6 6 3.3s3.2 9 3.2 11.5c0 4.8-3.4 5.6-7.5 5.6m-.8-23.6c-13.7 0-18.5 7-18.5 13.4s4.8 13.4 18.5 13.4 18.5-7 18.5-13.4-4.8-13.4-18.5-13.4M2556.3 2751.2c0 4.3 3 9 11 9 10.4 0 21.2-8.4 21.2-17 0-6-5-9.2-11-9.2-9.7 0-21.2 8.1-21.2 17.2M1702 1965.1c-2.8 0-4.7-.8-6-3.2s-3-8.9-3.2-11.6q-.4-3.8 3.2-5a14 14 0 0 1 4.2-.6c2.8 0 4.6.6 6 3.3s3.2 9 3.2 11.5c0 4.8-3.4 5.6-7.5 5.6m-.8-23.6c-13.6 0-18.5 7-18.5 13.4s4.9 13.4 18.5 13.4 18.5-7 18.5-13.4-4.8-13.4-18.5-13.4M2556.3 2788.4c0 4.3 3 9 11 9 10.4 0 21.2-8.4 21.2-17 0-6-5-9.2-11-9.2-9.7 0-21.2 8.1-21.2 17.2M1702 2014.7c-2.8 0-4.7-.8-6-3.2s-3-8.9-3.2-11.6q-.4-3.9 3.2-5a14 14 0 0 1 4.2-.6c2.8 0 4.6.6 6 3.3s3.2 9 3.2 11.5c0 4.8-3.4 5.6-7.5 5.6m-.8-23.6c-13.6 0-18.5 7-18.5 13.4s4.9 13.4 18.5 13.4 18.5-7 18.5-13.4-4.8-13.4-18.5-13.4M2556.3 2838c0 4.3 3 9 11 9 10.4 0 21.2-8.4 21.2-17 0-6-5-9.2-11-9.2-9.7 0-21.2 8.1-21.2 17.2M666 1216.2c-2.8 0-4.7-.8-6-3.2s-3-8.9-3.2-11.6q-.4-3.8 3.2-5a14 14 0 0 1 4.3-.6c2.8 0 4.6.6 6 3.3 1.3 2.6 3.1 9 3.1 11.5 0 4.8-3.4 5.6-7.4 5.6m-.8-23.6c-13.7 0-18.6 7-18.6 13.4s4.9 13.4 18.6 13.4 18.4-7 18.4-13.4-4.7-13.4-18.4-13.4M666 1166.6c-2.8 0-4.7-.8-6-3.2s-3-8.9-3.2-11.6q-.4-3.8 3.2-5a14 14 0 0 1 4.3-.6c2.8 0 4.6.6 6 3.3 1.3 2.6 3.1 9 3.1 11.5 0 4.8-3.4 5.6-7.4 5.6m-.8-23.6c-13.7 0-18.6 7-18.6 13.4s4.9 13.4 18.6 13.4 18.4-7 18.4-13.4-4.7-13.4-18.4-13.4M666 1129.4q-4.1.2-6-3.2c-1.3-2.5-3-8.9-3.2-11.6q-.4-3.8 3.2-5a14 14 0 0 1 4.3-.6c2.8 0 4.6.6 6 3.3 1.3 2.6 3.1 9 3.1 11.5 0 4.8-3.4 5.6-7.4 5.6m-.8-23.6c-13.7 0-18.6 7-18.6 13.4s4.9 13.4 18.6 13.4 18.4-7 18.4-13.4-4.7-13.4-18.4-13.4M2215.6 2008.8c0 4.2 3 9 11.1 9 10.3 0 21.1-8.4 21.1-17.2 0-5.8-5-9.1-11-9.1-9.7 0-21.2 8.1-21.2 17.3M2405.5 2714c0 4.3 3 9 11.1 9 10.3 0 21.2-8.4 21.2-17 0-6-5-9.2-11.2-9.2-9.6 0-21 8.1-21 17.2M2405.5 2751.2c0 4.3 3 9 11.1 9 10.3 0 21.2-8.4 21.2-17 0-6-5-9.2-11.2-9.2-9.6 0-21 8.1-21 17.2M2405.5 2800.8c0 4.3 3 9 11.1 9 10.3 0 21.2-8.4 21.2-17 0-6-5-9.2-11.2-9.2-9.6 0-21 8.1-21 17.2M1196.4 1241c-2.8 0-4.7-.8-6-3.2s-3-8.9-3.1-11.6q-.4-3.8 3.2-5a14 14 0 0 1 4.2-.6c2.8 0 4.6.6 6 3.3s3.2 9 3.2 11.5c0 4.8-3.4 5.6-7.5 5.6m-.8-23.6c-13.7 0-18.5 7-18.5 13.4s4.8 13.4 18.5 13.4 18.5-7 18.5-13.4-4.8-13.4-18.5-13.4M1196.4 1191.4q-4.1.2-6-3.2c-1.2-2.5-3-8.9-3.1-11.6q-.4-3.8 3.2-5a14 14 0 0 1 4.2-.6c2.8 0 4.6.6 6 3.3s3.2 9 3.2 11.5c0 4.8-3.4 5.6-7.5 5.6m-.8-23.6c-13.7 0-18.5 7-18.5 13.4s4.8 13.4 18.5 13.4 18.5-7 18.5-13.4-4.8-13.4-18.5-13.4M1127.6 1952.7c-2.8 0-4.6-.8-6-3.2-1.2-2.5-3-8.9-3.1-11.6q-.4-3.9 3.2-5a14 14 0 0 1 4.2-.6c2.8 0 4.6.6 6 3.3s3.2 9 3.2 11.5c0 4.8-3.4 5.6-7.5 5.6m-.8-23.6c-13.7 0-18.5 7-18.5 13.4s4.8 13.4 18.5 13.4 18.5-7 18.5-13.4-4.8-13.4-18.5-13.4M2256.5 1971.6c0 4.2 3 9 11.1 9 10.3 0 21.2-8.4 21.2-17.2 0-5.8-5-9.1-11.2-9.1-9.6 0-21 8.1-21 17.3M2326.6 1840c0 4.3 3.1 9 11.2 9 10.3 0 21-8.4 21-17.1 0-5.9-4.9-9.2-11-9.2-9.7 0-21.2 8.2-21.2 17.3M1127.6 2039.5c-2.8 0-4.6-.8-6-3.2-1.2-2.5-3-8.9-3.1-11.6q-.4-3.8 3.2-5a14 14 0 0 1 4.2-.6c2.8 0 4.6.6 6 3.3s3.2 9 3.2 11.5c0 4.8-3.4 5.6-7.5 5.6m-.8-23.6c-13.7 0-18.5 7-18.5 13.4s4.8 13.4 18.5 13.4 18.5-7 18.5-13.4-4.8-13.4-18.5-13.4M2209.8 2064.3q-4 .2-6-3.2c-1.2-2.5-3-8.9-3-11.6q-.5-3.8 3-5a14 14 0 0 1 4.4-.6c2.7 0 4.5.6 6 3.3 1.3 2.6 3 9 3 11.5 0 4.8-3.3 5.6-7.4 5.6m-.7-23.6c-13.7 0-18.6 7-18.6 13.4s4.9 13.4 18.6 13.4c13.6 0 18.4-7 18.4-13.4s-4.8-13.4-18.4-13.4" class="Note"/><path d="M465.2 729q-3 .6-5.8.6c-14.2 0-26.3-9.9-26.3-24.9 0-12 8.6-22.9 17.3-30.4l4.8-4.4 2.2 14.1c-9 2.7-15.1 12.2-15.1 21.5 0 7 5.4 16.5 13.4 16.5.7 0 1.6-.4 1.6-1.3s-1-1.4-2.1-2.2c-4-2.4-6.1-5-6.1-9.8 0-6 4.5-11 10.3-12.3zm-8.8-102c1-4 5.5-14.3 10.7-14.3 1.4 0 3.8 4.8 3.8 11.7 0 10.3-7.6 18-14.5 24.8q-.9-6-1-12 0-5.5 1-10.1m22.9 83.6c0 7-3 14.3-10 17.1l-5.4-32c9 0 15.4 6 15.4 14.9m-43.7 48.8c0 6.5 5 15.2 18.5 15.2a23 23 0 0 0 12.3-3.4c5.3-3.8 6.7-10.3 6.7-16.6q0-5.6-1.6-14L470 732c9.8-3.2 17-13.3 17-23.5a24 24 0 0 0-25.1-25.1l-2.9-17.4a56 56 0 0 0 17.8-39.1c0-9-2.8-16.4-4.4-20-2.4-5-5.2-8.5-7-8.5-.7 0-3.8 1.2-7 5-6.4 7.6-8.2 20.3-8.2 28.6 0 5.4.5 10.2 2.2 21.3-.1.1-5.3 5.4-7.4 7-9 8.5-21.5 20.5-21.5 40.4a34 34 0 0 0 34.6 33q4.4 0 7.9-.6 3 14 3 21.7-.1 15.6-15.3 15.8c-2.4 0-4.5-.5-4.7-.5l-.3-.3q0-.3.5-.4a11 11 0 0 0 9.3-11c0-5.4-4-11-11.5-11-7 0-11.4 5.6-11.4 12.2M431.2 1501.5q-3 .6-5.8.6c-14.2 0-26.3-10-26.3-25 0-12 8.6-22.8 17.3-30.4q2.5-2.1 4.8-4.3l2.2 14c-9 2.7-15.1 12.3-15.1 21.6 0 7 5.4 16.5 13.4 16.5.7 0 1.6-.5 1.6-1.3 0-1-1-1.4-2.1-2.2-4-2.4-6.1-5-6.1-9.8 0-6 4.5-11 10.3-12.3zm-8.8-102c1-4 5.5-14.4 10.7-14.4 1.4 0 3.8 4.9 3.8 11.7 0 10.4-7.6 18-14.5 24.8q-.9-5.8-1-12 0-5.4 1-10m22.9 83.5c0 7-3 14.3-10 17.2l-5.4-32c9 0 15.4 6 15.4 14.8m-43.7 48.8c0 6.6 5 15.2 18.5 15.2a23 23 0 0 0 12.3-3.3c5.3-3.8 6.7-10.4 6.7-16.6 0-3.9-.6-8.3-1.6-14l-1.5-8.8c9.8-3.2 17-13.3 17-23.5a24 24 0 0 0-25.1-25.1l-2.9-17.4a56 56 0 0 0 17.8-39.2c0-9-2.8-16.3-4.4-20-2.4-5-5.2-8.5-7-8.5-.7 0-3.8 1.2-7 5.1-6.4 7.5-8.2 20.2-8.2 28.6 0 5.3.5 10.2 2.2 21.3-.1.1-5.3 5.4-7.4 7-9 8.5-21.5 20.5-21.5 40.3a34 34 0 0 0 34.6 33.2q4.4 0 7.9-.7c1.9 9.5 3 16.4 3 21.7q-.1 15.6-15.3 15.8c-2.4 0-4.5-.5-4.7-.5l-.3-.3q0-.3.5-.4a11 11 0 0 0 9.3-11c0-5.4-4-11-11.5-11-7 0-11.4 5.6-11.4 12.1M431.2 2324.8q-3 .6-5.8.6c-14.2 0-26.3-10-26.3-25 0-12 8.6-22.8 17.3-30.4q2.5-2.2 4.8-4.3l2.2 14c-9 2.7-15.1 12.3-15.1 21.6 0 7 5.4 16.5 13.4 16.5.7 0 1.6-.5 1.6-1.3 0-1-1-1.4-2.1-2.2-4-2.4-6.1-5-6.1-9.8 0-6 4.5-11 10.3-12.3zm-8.8-102c1-4 5.5-14.4 10.7-14.4 1.4 0 3.8 4.9 3.8 11.7 0 10.4-7.6 18-14.5 24.8q-.9-5.9-1-12 0-5.5 1-10m22.9 83.5c0 7-3 14.3-10 17.2l-5.4-32c9 0 15.4 6 15.4 14.8m-43.7 48.8c0 6.6 5 15.2 18.5 15.2a23 23 0 0 0 12.3-3.3c5.3-3.8 6.7-10.4 6.7-16.6q0-5.7-1.6-14l-1.5-8.8c9.8-3.2 17-13.3 17-23.5a24 24 0 0 0-25.1-25.1l-2.9-17.4a56 56 0 0 0 17.8-39.2c0-9-2.8-16.3-4.4-20-2.4-5-5.2-8.5-7-8.5-.7 0-3.8 1.2-7 5.1-6.4 7.5-8.2 20.2-8.2 28.6 0 5.3.5 10.2 2.2 21.3-.1.1-5.3 5.4-7.4 7-9 8.5-21.5 20.5-21.5 40.3a34 34 0 0 0 34.6 33.2q4.4 0 7.9-.7c1.9 9.5 3 16.4 3 21.7q-.1 15.6-15.3 15.8c-2.4 0-4.5-.5-4.7-.5l-.3-.3q0-.3.5-.4a11 11 0 0 0 9.3-11c0-5.4-4-11-11.5-11-7 0-11.4 5.6-11.4 12.1M431.2 3116.9q-3 .6-5.8.6c-14.2 0-26.3-10-26.3-25 0-12 8.6-22.8 17.3-30.4l4.8-4.3 2.2 14c-9 2.7-15.1 12.2-15.1 21.6 0 7 5.4 16.4 13.4 16.4.7 0 1.6-.4 1.6-1.3s-1-1.3-2.1-2.1c-4-2.4-6.1-5-6.1-9.9 0-6 4.5-10.9 10.3-12.3zm-8.8-102c1-4 5.5-14.4 10.7-14.4 1.4 0 3.8 4.9 3.8 11.7 0 10.3-7.6 18-14.5 24.8q-.9-5.9-1-12 0-5.5 1-10.1m22.9 83.6c0 7-3 14.3-10 17.2l-5.4-32c9 0 15.4 6 15.4 14.8m-43.7 48.8c0 6.6 5 15.2 18.5 15.2a23 23 0 0 0 12.3-3.4c5.3-3.7 6.7-10.3 6.7-16.5q0-5.7-1.6-14l-1.5-8.8c9.8-3.2 17-13.3 17-23.6a24 24 0 0 0-25.1-25l-2.9-17.4a56 56 0 0 0 17.8-39.2c0-9-2.8-16.4-4.4-20-2.4-5-5.2-8.5-7-8.5-.7 0-3.8 1.2-7 5-6.4 7.6-8.2 20.3-8.2 28.6 0 5.4.5 10.3 2.2 21.4-.1 0-5.3 5.3-7.4 7-9 8.5-21.5 20.5-21.5 40.3a34 34 0 0 0 34.6 33.1q4.4 0 7.9-.7c1.9 9.6 3 16.5 3 21.8q-.1 15.6-15.3 15.7c-2.4 0-4.5-.4-4.7-.4q-.1-.3-.3-.3 0-.3.5-.4a11 11 0 0 0 9.3-11c0-5.4-4-11-11.5-11-7 0-11.4 5.6-11.4 12.1M431.2 2561.6q-3 .6-5.8.6c-14.2 0-26.3-9.9-26.3-24.9 0-12 8.6-22.9 17.3-30.4l4.8-4.4 2.2 14.1c-9 2.7-15.1 12.2-15.1 21.5 0 7 5.4 16.5 13.4 16.5.7 0 1.6-.4 1.6-1.3s-1-1.4-2.1-2.2c-4-2.4-6.1-5-6.1-9.8 0-6 4.5-11 10.3-12.3zm-8.8-102c1-4 5.5-14.3 10.7-14.3 1.4 0 3.8 4.8 3.8 11.7 0 10.3-7.6 18-14.5 24.8q-.9-6-1-12 0-5.5 1-10.1m22.9 83.6c0 7-3 14.3-10 17.2l-5.4-32.1c9 0 15.4 6 15.4 14.9m-43.7 48.8c0 6.5 5 15.2 18.5 15.2a23 23 0 0 0 12.3-3.4c5.3-3.8 6.7-10.3 6.7-16.6q0-5.6-1.6-14l-1.5-8.8c9.8-3.2 17-13.3 17-23.5a24 24 0 0 0-25.1-25.1l-2.9-17.4a56 56 0 0 0 17.8-39.1c0-9-2.8-16.4-4.4-20-2.4-5-5.2-8.5-7-8.5-.7 0-3.8 1.2-7 5-6.4 7.6-8.2 20.3-8.2 28.6 0 5.4.5 10.2 2.2 21.3-.1.1-5.3 5.4-7.4 7-9 8.5-21.5 20.5-21.5 40.4a34 34 0 0 0 34.6 33q4.4 0 7.9-.6 3 14 3 21.7-.1 15.7-15.3 15.8c-2.4 0-4.5-.5-4.7-.5l-.3-.3q0-.3.5-.4a11 11 0 0 0 9.3-11c0-5.4-4-11-11.5-11-7 0-11.4 5.6-11.4 12.2M431.2 3315.2q-3 .6-5.8.6c-14.2 0-26.3-9.9-26.3-24.9 0-12 8.6-22.9 17.3-30.4l4.8-4.4 2.2 14.1c-9 2.7-15.1 12.2-15.1 21.5 0 7 5.4 16.5 13.4 16.5.7 0 1.6-.4 1.6-1.3s-1-1.4-2.1-2.2c-4-2.4-6.1-5-6.1-9.8 0-6 4.5-11 10.3-12.3zm-8.8-102c1-4 5.5-14.3 10.7-14.3 1.4 0 3.8 4.8 3.8 11.7 0 10.3-7.6 18-14.5 24.8q-.9-6-1-12 0-5.5 1-10.1m22.9 83.6c0 7-3 14.3-10 17.2L430 3282c9 0 15.4 6 15.4 14.9m-43.7 48.8c0 6.5 5 15.2 18.5 15.2a23 23 0 0 0 12.3-3.4c5.3-3.8 6.7-10.3 6.7-16.6q0-5.6-1.6-14l-1.5-8.8c9.8-3.2 17-13.3 17-23.5a24 24 0 0 0-25.1-25.1l-2.9-17.4a56 56 0 0 0 17.8-39.1c0-9-2.8-16.4-4.4-20-2.4-5-5.2-8.5-7-8.5-.7 0-3.8 1.2-7 5-6.4 7.6-8.2 20.3-8.2 28.6 0 5.4.5 10.2 2.2 21.3-.1.1-5.3 5.4-7.4 7-9 8.5-21.5 20.5-21.5 40.4a34 34 0 0 0 34.6 33q4.4 0 7.9-.6 3 14 3 21.7-.1 15.7-15.3 15.8c-2.4 0-4.5-.5-4.7-.5l-.3-.3q0-.3.5-.4a11 11 0 0 0 9.3-11c0-5.4-4-11-11.5-11-7 0-11.4 5.6-11.4 12.2M431.2 1744.7q-3 .6-5.8.6c-14.2 0-26.3-10-26.3-25 0-12 8.6-22.9 17.3-30.4l4.8-4.4 2.2 14.1c-9 2.7-15.1 12.2-15.1 21.6 0 7 5.4 16.4 13.4 16.4.7 0 1.6-.4 1.6-1.3s-1-1.4-2.1-2.1c-4-2.4-6.1-5-6.1-9.9 0-6 4.5-10.9 10.3-12.3zm-8.8-102c1-4 5.5-14.4 10.7-14.4 1.4 0 3.8 4.9 3.8 11.7 0 10.3-7.6 18-14.5 24.8q-.9-5.8-1-12 0-5.5 1-10.1m22.9 83.6c0 7-3 14.3-10 17.2l-5.4-32c9 0 15.4 6 15.4 14.8m-43.7 48.8c0 6.6 5 15.2 18.5 15.2a23 23 0 0 0 12.3-3.4c5.3-3.7 6.7-10.3 6.7-16.5q0-5.7-1.6-14l-1.5-8.9c9.8-3.1 17-13.3 17-23.5a24 24 0 0 0-25.1-25l-2.9-17.4a56 56 0 0 0 17.8-39.2c0-9-2.8-16.4-4.4-20-2.4-5-5.2-8.5-7-8.5-.7 0-3.8 1.2-7 5-6.4 7.6-8.2 20.3-8.2 28.6 0 5.4.5 10.3 2.2 21.4-.1 0-5.3 5.3-7.4 7-9 8.4-21.5 20.4-21.5 40.3a34 34 0 0 0 34.6 33.1q4.4 0 7.9-.7c1.9 9.6 3 16.5 3 21.8q-.1 15.6-15.3 15.7c-2.4 0-4.5-.5-4.7-.5l-.3-.3q0-.3.5-.4a11 11 0 0 0 9.3-11c0-5.3-4-11-11.5-11-7 0-11.4 5.7-11.4 12.2M465.2 963.8q-3 .6-5.8.6c-14.2 0-26.3-10-26.3-25 0-12 8.6-22.8 17.3-30.4l4.8-4.3 2.2 14c-9 2.7-15.1 12.2-15.1 21.6 0 7 5.4 16.4 13.4 16.4.7 0 1.6-.4 1.6-1.3s-1-1.3-2.1-2.1c-4-2.4-6.1-5-6.1-9.9 0-6 4.5-10.9 10.3-12.3zm-8.8-102c1-4 5.5-14.4 10.7-14.4 1.4 0 3.8 4.9 3.8 11.7 0 10.3-7.6 18-14.5 24.8q-.9-5.9-1-12 0-5.5 1-10.1m22.9 83.6c0 7-3 14.3-10 17.2l-5.4-32c9 0 15.4 6 15.4 14.8m-43.7 48.8c0 6.6 5 15.2 18.5 15.2a23 23 0 0 0 12.3-3.4c5.3-3.7 6.7-10.3 6.7-16.5q0-5.7-1.6-14l-1.5-8.8c9.8-3.2 17-13.3 17-23.6a24 24 0 0 0-25.1-25l-2.9-17.4a56 56 0 0 0 17.8-39.2c0-9-2.8-16.4-4.4-20-2.4-5-5.2-8.5-7-8.5-.7 0-3.8 1.2-7 5-6.4 7.6-8.2 20.3-8.2 28.6 0 5.4.5 10.3 2.2 21.4-.1 0-5.3 5.3-7.4 7-9 8.5-21.5 20.5-21.5 40.3a34 34 0 0 0 34.6 33.1q4.4 0 7.9-.7c1.9 9.6 3 16.5 3 21.8q-.1 15.6-15.3 15.7c-2.4 0-4.5-.4-4.7-.4q-.1-.3-.3-.3 0-.4.5-.4a11 11 0 0 0 9.3-11c0-5.4-4-11-11.5-11-7 0-11.4 5.6-11.4 12.1M445.8 2710c0 2.8 2.2 5 4.8 5s4.8-2.2 4.8-5-2.2-5-4.8-5-4.8 2.2-4.8 5m-31-12.6c-7.6 0-13.7 4.3-13.8 4.3a23 23 0 0 0-9.6 18.1c0 7.2 4.2 12.6 11.5 12.6 6.4 0 11.3-4.3 11.3-10.8a10.6 10.6 0 0 0-13.7-9.8c-1 .4-2.7 1.4-3.5 2 .7-4.3 3.7-8.7 7.6-10.8a19 19 0 0 1 9.1-2q15.1 0 15.1 24.8c0 13-8.2 31.5-18 40.2a85 85 0 0 1-20.1 14s-1.2.6-1.2 1.8l.1.5c.3 1 1.2 1.2 1.8 1.2l.5-.1s11.4-4.7 20.4-11.7c14-10 29.6-27.7 29.6-46 0-17.2-9.3-28.3-27.2-28.3m31.1 37c0 2.9 2.2 5.1 4.8 5.1s4.8-2.2 4.8-5-2.2-5-4.8-5-4.8 2.2-4.8 5M445.8 3487c0 2.9 2.2 5 4.8 5s4.8-2.1 4.8-5c0-2.7-2.2-5-4.8-5s-4.8 2.3-4.8 5m-31-12.5c-7.6 0-13.7 4.4-13.8 4.4a23 23 0 0 0-9.6 18c0 7.3 4.2 12.6 11.5 12.6 6.4 0 11.3-4.2 11.3-10.8a10.6 10.6 0 0 0-13.7-9.8c-1 .4-2.7 1.4-3.5 2 .7-4.3 3.7-8.7 7.6-10.8a19 19 0 0 1 9.1-2q15.1 0 15.1 24.9c0 12.9-8.2 31.4-18 40.2a85 85 0 0 1-20.1 13.8s-1.2.7-1.2 2l.1.4c.3 1 1.2 1.2 1.8 1.2h.5s11.4-4.7 20.4-11.8c14-10 29.6-27.7 29.6-46 0-17.2-9.3-28.3-27.2-28.3m31.1 37.1c0 2.8 2.2 5 4.8 5s4.8-2.2 4.8-5-2.2-5-4.8-5-4.8 2.2-4.8 5M479.8 1094.6c0 2.8 2.2 5 4.8 5s4.8-2.2 4.8-5-2.2-5-4.8-5-4.8 2.2-4.8 5m-31-12.6c-7.6 0-13.7 4.4-13.8 4.4a23 23 0 0 0-9.6 18c0 7.3 4.2 12.6 11.5 12.6 6.4 0 11.3-4.2 11.3-10.8a10.6 10.6 0 0 0-13.7-9.8c-1 .4-2.7 1.4-3.5 2 .7-4.3 3.7-8.7 7.6-10.8a19 19 0 0 1 9.1-2q15.1 0 15.1 24.9c0 12.9-8.2 31.4-18 40.2a85 85 0 0 1-20.1 13.8s-1.2.7-1.2 2l.1.4c.3 1 1.2 1.2 1.8 1.2h.5s11.4-4.7 20.4-11.8c14-10 29.6-27.7 29.6-46 0-17.2-9.3-28.3-27.2-28.3m31.1 37.1c0 2.8 2.2 5 4.8 5s4.8-2.2 4.8-5-2.2-5-4.8-5-4.8 2.2-4.8 5M445.8 1917.9c0 2.8 2.2 5 4.8 5s4.8-2.2 4.8-5-2.2-5-4.8-5-4.8 2.2-4.8 5m-31-12.6c-7.6 0-13.7 4.4-13.8 4.4a23 23 0 0 0-9.6 18c0 7.3 4.2 12.6 11.5 12.6 6.4 0 11.3-4.2 11.3-10.8a10.6 10.6 0 0 0-13.7-9.8c-1 .4-2.7 1.4-3.5 2 .7-4.3 3.7-8.7 7.6-10.8a19 19 0 0 1 9.1-2q15.1 0 15.1 24.9c0 12.9-8.2 31.4-18 40.2a85 85 0 0 1-20.1 13.8s-1.2.7-1.2 2l.1.4c.3 1 1.2 1.2 1.8 1.2h.5s11.4-4.7 20.4-11.8c14-10 29.6-27.7 29.6-46 0-17.2-9.3-28.3-27.2-28.3m31.1 37.1c0 2.8 2.2 5 4.8 5s4.8-2.2 4.8-5-2.2-5-4.8-5-4.8 2.2-4.8 5" class="Clef"/><path d="m481.7 1399.3 8.8-1.8v16.4l-8.8 1.9zm15.4-3q1-.3 1-1.5v-5.8q0-1.3-1.3-1.4h-.2l-3.3.7v-14.8h-2.8v15.4l-8.8 1.8v-14h-2.8v14.6l-3.8.8c-.6 0-1.1.8-1.1 1.4v5.7q.1 1.3 1.4 1.4h.3l3.2-.7v16.4l-3.8.8c-.6 0-1.1.8-1.1 1.4v5.7q.1 1.3 1.4 1.4h.3l3.2-.7v14.8h2.8v-15.4l8.8-1.8v14h2.8V1422l3.8-.7c.6 0 1-.7 1-1.3v-5.9q0-1.3-1.3-1.4h-.2l-3.3.7V1397zM481.7 3014.7l8.8-1.8v16.4l-8.8 1.9zm15.4-3q1-.4 1-1.5v-5.8q0-1.3-1.3-1.4h-.2l-3.3.7v-14.8h-2.8v15.4l-8.8 1.8v-14h-2.8v14.6l-3.8.8c-.6 0-1.1.7-1.1 1.3v5.8q.1 1.3 1.4 1.4h.3l3.2-.7v16.4l-3.8.8q-1 .2-1.1 1.4v5.7q.1 1.3 1.4 1.4h.3l3.2-.7v14.8h2.8v-15.4l8.8-1.8v14h2.8v-14.6l3.8-.7c.6 0 1-.8 1-1.4v-5.8q0-1.3-1.3-1.4h-.2l-3.3.7v-16.4zM481.7 2222.6l8.8-1.8v16.4l-8.8 1.9zm15.4-3q1-.3 1-1.5v-5.8q0-1.3-1.3-1.4h-.2l-3.3.7v-14.8h-2.8v15.4l-8.8 1.8v-14h-2.8v14.6l-3.8.8c-.6 0-1.1.8-1.1 1.4v5.7q.1 1.3 1.4 1.4h.3l3.2-.7v16.4l-3.8.8c-.6 0-1.1.8-1.1 1.4v5.7q.1 1.3 1.4 1.4h.3l3.2-.7v14.8h2.8v-15.4l8.8-1.8v14h2.8v-14.6l3.8-.7q1-.2 1-1.3v-5.9q0-1.3-1.3-1.4h-.2l-3.3.7v-16.4zM515.7 626.9l8.8-1.8v16.3l-8.8 2zm15.4-3.1q1-.3 1-1.4v-5.9q0-1.2-1.3-1.4h-.2l-3.3.7v-14.7h-2.8v15.3l-8.8 1.8v-14h-2.8v14.6l-3.8.8q-1 .3-1.1 1.4v5.8q.1 1.2 1.4 1.4h.3l3.2-.7v16.3l-3.8.8q-1 .3-1.1 1.4v5.8q.1 1.3 1.4 1.3h.3l3.2-.6v14.7h2.8V652l8.8-1.8v14h2.8v-14.6l3.8-.7q1-.3 1-1.4v-5.9q0-1.2-1.3-1.3h-.2l-3.3.6v-16.3zM481.7 1642.5l8.8-1.8v16.4l-8.8 1.9zm15.4-3q1-.5 1-1.5v-5.8q0-1.3-1.3-1.4h-.2l-3.3.7v-14.8h-2.8v15.4l-8.8 1.8v-14h-2.8v14.6l-3.8.7q-1 .4-1.1 1.4v5.8q.1 1.3 1.4 1.4h.3l3.2-.7v16.4l-3.8.7q-1 .3-1.1 1.4v5.8q.1 1.3 1.4 1.4h.3l3.2-.7v14.8h2.8v-15.4l8.8-1.8v14h2.8v-14.6l3.8-.7c.6 0 1-.8 1-1.4v-5.8q0-1.3-1.3-1.4h-.2l-3.3.7V1640zM481.7 3213l8.8-1.7v16.3l-8.8 2zm15.4-3.1q1-.3 1-1.4v-5.9q0-1.2-1.3-1.3h-.2l-3.3.6v-14.7h-2.8v15.3l-8.8 1.8v-14h-2.8v14.6l-3.8.8q-1 .3-1.1 1.4v5.8q.1 1.3 1.4 1.4h.3l3.2-.7v16.3l-3.8.8q-1 .3-1.1 1.4v5.8q.1 1.3 1.4 1.3h.3l3.2-.6v14.7h2.8v-15.3l8.8-1.8v14h2.8v-14.6l3.8-.7q1-.3 1-1.4v-5.9q0-1.2-1.3-1.3h-.2l-3.3.6v-16.3zM481.7 2459.5l8.8-1.8v16.3l-8.8 2zm15.4-3.1q1-.3 1-1.4v-5.9q0-1.2-1.3-1.3h-.2l-3.3.6v-14.7h-2.8v15.3l-8.8 1.8v-14h-2.8v14.6l-3.8.8q-1 .3-1.1 1.4v5.8q.1 1.3 1.4 1.4h.3l3.2-.7v16.3l-3.8.8q-1 .3-1.1 1.4v5.8q.1 1.3 1.4 1.3h.3l3.2-.6v14.7h2.8v-15.3l8.8-1.8v14h2.8V2482l3.8-.7q1-.3 1-1.4v-5.9q0-1.2-1.3-1.3h-.2l-3.3.6v-16.3zM515.7 861.6l8.8-1.8v16.4l-8.8 1.9zm15.4-3q1-.4 1-1.5v-5.8q0-1.3-1.3-1.4h-.2l-3.3.7v-14.8h-2.8v15.4l-8.8 1.8v-14h-2.8v14.6l-3.8.8q-1 .2-1.1 1.3v5.8q.1 1.3 1.4 1.4h.3l3.2-.7v16.4l-3.8.8q-1 .2-1.1 1.4v5.7q.1 1.3 1.4 1.4h.3l3.2-.7V902h2.8v-15.4l8.8-1.8v14h2.8v-14.6l3.8-.7c.6 0 1-.8 1-1.4v-5.8q0-1.3-1.3-1.4h-.2l-3.3.7v-16.4zM515.7 1099.6l8.8-1.8v16.3l-8.8 2zm15.4-3.1q1-.3 1-1.4v-5.9q0-1.2-1.3-1.3h-.2l-3.3.6v-14.7h-2.8v15.3l-8.8 1.8v-14h-2.8v14.6l-3.8.8q-1 .3-1.1 1.4v5.8q.1 1.3 1.4 1.4h.3l3.2-.7v16.3l-3.8.8q-1 .3-1.1 1.4v5.8q.1 1.3 1.4 1.3h.3l3.2-.6v14.7h2.8v-15.3l8.8-1.8v14h2.8v-14.6l3.8-.7q1-.3 1-1.4v-5.9q0-1.2-1.3-1.3h-.2l-3.3.6v-16.3zM481.7 3492l8.8-1.7v16.3l-8.8 2zm15.4-3.1q1-.3 1-1.4v-5.9q0-1.2-1.3-1.3h-.2l-3.3.6v-14.7h-2.8v15.3l-8.8 1.8v-14h-2.8v14.6l-3.8.8q-1 .3-1.1 1.4v5.8q.1 1.3 1.4 1.4h.3l3.2-.7v16.3l-3.8.8q-1 .3-1.1 1.4v5.8q.1 1.3 1.4 1.3h.3l3.2-.6v14.7h2.8v-15.3l8.8-1.8v14h2.8v-14.6l3.8-.7q1-.3 1-1.4v-5.9q0-1.2-1.3-1.3h-.2l-3.3.6v-16.3zM481.7 2715l8.8-1.8v16.3l-8.8 2zm15.4-3q1-.3 1-1.4v-5.9q0-1.3-1.3-1.4h-.2l-3.3.7v-14.8h-2.8v15.4l-8.8 1.8v-14h-2.8v14.6l-3.8.8q-1 .3-1.1 1.4v5.7q.1 1.3 1.4 1.4h.3l3.2-.7v16.4l-3.8.8c-.6 0-1.1.8-1.1 1.4v5.7q.1 1.3 1.4 1.4h.3l3.2-.7v14.8h2.8V2740l8.8-1.7v14h2.8v-14.6l3.8-.7q1-.3 1-1.4v-5.9q0-1.3-1.3-1.4h-.2l-3.3.7v-16.3zM481.7 1922.9l8.8-1.8v16.3l-8.8 2zm15.4-3.1q1-.3 1-1.4v-5.9q0-1.2-1.3-1.3h-.2l-3.3.6v-14.7h-2.8v15.3l-8.8 1.8v-14h-2.8v14.6l-3.8.8q-1 .3-1.1 1.4v5.8q.1 1.3 1.4 1.4h.3l3.2-.7v16.3l-3.8.8q-1 .3-1.1 1.4v5.8q.1 1.3 1.4 1.3h.3l3.2-.6v14.7h2.8V1948l8.8-1.8v14h2.8v-14.6l3.8-.7q1-.3 1-1.4v-5.9q0-1.2-1.3-1.3h-.2l-3.3.6v-16.3z" class="KeySig"/><path d="M576.2 671.6v7.3H568q-1.2.1-1.4 1.4v2q.2 1.2 1.4 1.3h30q1.3-.1 1.4-1.4v-1.9q-.1-1.3-1.4-1.4h-8.9v-7.3h9q1.2-.2 1.3-1.5v-1.9q-.1-1.2-1.4-1.4h-8.9v-15.7q0-1-.7-1.3l-1.2-.6-.5-.1q-.6 0-1 .3l-9 8.2q-.5.5-.5 1.1v8.1h-11.5s11.1-11.9 22.8-27.5q.6-.8.5-1.4 0-.9-.3-1l-2.2-2.2q-.3-.4-1-.4h-14.7q-1.1.2-1.3 1.2s-.5 7.3-3 15.4c-2.7 8-5.7 13-8.2 16.6q-.1.1-.3 1.1v.6l1 1.8s.3.6 1.1.6zM576.2 721.2v7.3H568q-1.2.1-1.4 1.4v2q.2 1.2 1.4 1.3h30q1.3-.1 1.4-1.4V730q-.1-1.3-1.4-1.4h-8.9v-7.3h9q1.2-.2 1.3-1.5v-1.9q-.1-1.2-1.4-1.4h-8.9v-15.7q0-1-.7-1.3l-1.2-.6-.5-.1q-.6 0-1 .3l-9 8.2q-.5.5-.5 1.1v8.1h-11.5s11.1-11.9 22.8-27.5q.6-.8.5-1.4 0-.9-.3-1l-2.2-2.2q-.3-.4-1-.4h-14.7q-1.1.1-1.3 1.2s-.5 7.3-3 15.4c-2.7 8-5.7 13-8.2 16.6q-.1.1-.3 1.1v.6l1 1.8s.3.6 1.1.6zM576.2 906.3v7.4H568q-1.2.1-1.4 1.4v1.9q.2 1.2 1.4 1.3h30q1.3-.1 1.4-1.3v-2q-.1-1.2-1.4-1.3h-8.9v-7.4h9q1.2-.2 1.3-1.4v-2q-.1-1.1-1.4-1.3h-8.9v-15.8q0-.9-.7-1.3l-1.2-.6h-.5q-.6 0-1 .2l-9 8.2q-.5.5-.5 1.1v8.2h-11.5s11.1-12 22.8-27.6q.6-.8.5-1.4 0-.8-.3-1l-2.2-2.2q-.3-.3-1-.4h-14.7q-1.1.1-1.3 1.2s-.5 7.4-3 15.4c-2.7 8-5.7 13-8.2 16.7q-.1.1-.3 1v.7l1 1.7s.3.6 1.1.6zM576.2 956v7.3H568q-1.2.1-1.4 1.4v1.9q.2 1.2 1.4 1.3h30q1.3-.1 1.4-1.3v-2q-.1-1.2-1.4-1.3h-8.9v-7.4h9q1.2-.2 1.3-1.4v-2q-.1-1.1-1.4-1.3h-8.9v-15.8q0-.9-.7-1.3l-1.2-.6h-.5q-.6 0-1 .2l-9 8.2q-.5.6-.5 1.1v8.2h-11.5s11.1-12 22.8-27.6q.6-.8.5-1.4 0-.8-.3-1l-2.2-2.2q-.3-.4-1-.4h-14.7q-1.1.2-1.3 1.2s-.5 7.4-3 15.4c-2.7 8-5.7 13-8.2 16.7q-.1.1-.3 1v.7l1 1.7s.3.6 1.1.6zM576.2 1119.5v7.3H568q-1.2.1-1.4 1.4v2q.2 1.2 1.4 1.3h30q1.3-.1 1.4-1.4v-1.9q-.1-1.3-1.4-1.4h-8.9v-7.3h9q1.2-.2 1.3-1.5v-1.9q-.1-1.2-1.4-1.4h-8.9V1099q0-1-.7-1.3l-1.2-.6-.5-.1q-.6 0-1 .3l-9 8.2q-.5.5-.5 1.1v8.1h-11.5s11.1-11.9 22.8-27.5q.6-.8.5-1.4 0-.9-.3-1l-2.2-2.2q-.3-.3-1-.4h-14.7q-1.1.1-1.3 1.2s-.5 7.3-3 15.4c-2.7 8-5.7 13-8.2 16.6q-.1.1-.3 1.1v.6l1 1.8s.3.6 1.1.6zM576.2 1169.1v7.3H568q-1.2.1-1.4 1.4v2q.2 1.2 1.4 1.3h30q1.3-.1 1.4-1.4v-1.9q-.1-1.3-1.4-1.4h-8.9v-7.3h9q1.2-.2 1.3-1.5v-1.9q-.1-1.2-1.4-1.4h-8.9v-15.7q0-1-.7-1.3l-1.2-.6-.5-.1q-.6 0-1 .3l-9 8.2q-.5.5-.5 1.1v8.1h-11.5s11.1-11.9 22.8-27.5q.6-.8.5-1.4 0-.9-.3-1l-2.2-2.2q-.3-.4-1-.4h-14.7q-1.1.1-1.3 1.2s-.5 7.3-3 15.4c-2.7 8-5.7 13-8.2 16.6q-.1.1-.3 1.1v.6l1 1.8s.3.6 1.1.6z" class="TimeSig"/><path d="m1133.5 1472.7-.6-.7-11.4-14-.2-.7q0-.4.2-.8l10.1-15.3.2-.7v-.9q0-.5-.3-.8l-16-21.7s-.5-.6-1-.6q-.5 0-.9.3-.5.5-.4 1 .1 1 .2 1l7.6 10.4q.3.5.3 1.2t-.3 1.2l-10 15.2-.2.8v1q0 .3.3.7l11 13.8q-.5-.2-2.4-.3c-5 0-9 4.2-9 9.2q0 2.2 1 3.9c2.1 3.2 9.6 12.6 9.6 12.6s.5.6 1.2.6q.3 0 .6-.2.7-.6.7-1.2t-.3-.9l-3.5-6.2s-.7-1.4-.7-3.2c0-3.2 2.4-5.8 5.6-5.8a6 6 0 0 1 3.1 1l4 2.4q0 .1.7.2t1-.5l.3-.9q0-.4-.3-.8zM1791.3 700.3l-.6-.7-11.4-14.1-.2-.6.2-.9 10.1-15.3.2-.7v-.9q0-.5-.3-.8l-16-21.7s-.4-.6-1-.6q-.4 0-.8.3-.6.5-.5 1 .2 1 .3 1.1l7.5 10.3q.3.5.3 1.2t-.3 1.2l-10 15.3-.2.8v.9q0 .5.3.8l11.1 13.7q-.7-.2-2.5-.3c-5 0-9 4.2-9 9.3q0 2.2 1.1 3.8c2 3.2 9.5 12.6 9.5 12.6s.5.6 1.2.6q.3 0 .6-.2.7-.5.7-1.2 0-.5-.3-.9l-3.5-6.2s-.7-1.4-.7-3.2c0-3.2 2.4-5.7 5.6-5.7a6 6 0 0 1 3.2.9l3.8 2.5.8.1q.6.1 1-.5.3-.4.3-.8t-.3-.8zM1206 663.7l-.5-.1q-.8 0-1.2.8c-.4.5-3.5 6.4-8 9.7q-2 1.5-4.4 2 1.6-2 1.7-4.8a7 7 0 0 0-14.1 0c0 5.4 5.2 7.8 9.9 7.8 5.2 0 8.7-2.4 12-6.1l-11.2 35.3 2.7.8 13.8-43.7.1-.5q0-.8-.9-1.2M2247.8 3046.3q-1.3.1-1.4 1.4v10.7q.1 1.3 1.4 1.4h29.5q1.2-.1 1.3-1.4v-10.7q-.1-1.3-1.3-1.4zM1707.8 1472.7l-.6-.7-11.4-14-.2-.7q0-.4.2-.8l10.1-15.3.2-.7v-.9q0-.5-.3-.8l-16-21.7s-.4-.6-1-.6q-.4 0-.8.3-.6.5-.5 1 .1 1 .3 1l7.5 10.4q.3.5.3 1.2t-.3 1.2l-10 15.2-.2.8v1q0 .3.3.7l11 13.8q-.5-.2-2.4-.3c-5 0-9 4.2-9 9.2q0 2.2 1 3.9c2.2 3.2 9.6 12.6 9.6 12.6s.5.6 1.2.6q.3 0 .6-.2.7-.6.7-1.2t-.3-.9l-3.5-6.2s-.7-1.4-.7-3.2c0-3.2 2.4-5.8 5.6-5.8a6 6 0 0 1 3.1 1l4 2.4q0 .1.7.2t1-.5l.3-.9q0-.4-.3-.8zM583 1472.7l-.6-.7-11.4-14-.2-.7q0-.4.2-.8l10-15.3q.3-.3.3-.7v-.9q0-.5-.3-.8l-16-21.7s-.5-.6-1-.6q-.5 0-.9.3-.6.5-.5 1 .1 1 .3 1l7.6 10.4q.3.5.3 1.2t-.3 1.2l-10 15.2-.2.8v1q0 .3.3.7l11 13.8q-.5-.2-2.4-.3c-5 0-9 4.2-9 9.2q0 2.2 1 3.9c2.1 3.2 9.6 12.6 9.6 12.6s.5.6 1.2.6q.3 0 .6-.2.7-.6.7-1.2t-.3-.9l-3.5-6.2s-.7-1.4-.7-3.2c0-3.2 2.4-5.8 5.5-5.8a6 6 0 0 1 3.2 1l3.9 2.4.8.2q.6.1 1-.5l.3-.9q0-.4-.3-.8zM671.8 700.3l-.6-.7-11.4-14.1-.2-.6.2-.9 10.1-15.3.2-.7v-.9q0-.5-.3-.8l-16-21.7s-.4-.6-1-.6q-.4 0-.8.3-.6.5-.5 1 .1 1 .3 1.1l7.5 10.3q.3.5.3 1.2t-.3 1.2l-10 15.3-.2.8v.9q0 .5.3.8l11.1 13.7q-.6-.2-2.5-.3c-5 0-9 4.2-9 9.3q0 2.2 1.1 3.8c2 3.2 9.5 12.6 9.5 12.6s.5.6 1.2.6q.3 0 .6-.2.7-.5.7-1.2 0-.5-.3-.9l-3.5-6.2s-.7-1.4-.7-3.2c0-3.2 2.4-5.7 5.6-5.7a6 6 0 0 1 3.2.9l3.9 2.5.7.1q.6.1 1-.5.3-.4.3-.8t-.3-.8zM1073.2 3046.3q-1.3.1-1.4 1.4v10.7q.1 1.3 1.4 1.4h29.4q1.3-.1 1.4-1.4v-10.7q-.1-1.3-1.4-1.4zM2428.3 2296l-.6-.7-11.4-14-.2-.7.2-.8 10.1-15.3q.3-.3.2-.7v-.9q0-.5-.2-.8l-16.1-21.7s-.4-.6-1-.6q-.4 0-.8.3-.6.5-.5 1 .2 1 .3 1l7.5 10.4q.3.4.3 1.2t-.3 1.2l-10 15.2-.2.8v1q0 .3.3.7l11.1 13.8q-.7-.2-2.5-.3c-5 0-9 4.2-9 9.2q0 2.2 1.1 3.9c2.1 3.2 9.5 12.6 9.5 12.6s.5.6 1.2.6q.3 0 .6-.2.7-.6.7-1.2t-.3-.9l-3.4-6.2s-.7-1.4-.7-3.2c0-3.2 2.3-5.8 5.5-5.8a6 6 0 0 1 3.2 1l3.9 2.4q0 .1.7.2t1-.5l.3-.9q0-.4-.3-.8z" class="Rest"/><path fill-rule="evenodd" d="m680.8 1381.8 68.3 6.2v12.5l-68.3-6.2zM2512.7 615.6l74.5-6.2v12.4l-74.5 6.2zM1906.3 609.4l74.4 6.2V628l-74.4-6.2zM2742.7 1381.8l63 6.2v12.5l-63-6.2zM1281.2 609.4h146.5v12.4h-146.5zM807.2 1394.3h184.2v12.4H807.2zM2411.2 1375.6l124.5 12.4v12.5l-124.5-12.4zM2411.2 1394.2l57.3 5.7v12.5l-57.3-5.7zM1805.6 1381.8l88.3 6.2v12.5l-88.3-6.2zM786.8 609.4l106.2 6.2V628l-106.2-6.2zM1499.3 1400.5l110.6 6.2v12.4l-110.6-6.2zM1499.3 1419l69.7 4v12.4l-69.7-4zM1231.3 1381.8l88.8 6.2v12.5l-88.8-6.2zM1378.2 1400.5h63v12.4h-63zM1527.1 3270h74.6v12.4h-74.6zM1527.1 3288.6h27.3v12.4h-27.3zM2435.3 2435.8l153.2 6.2v12.4l-153.2-6.2zM2435.3 2454.4l27.3 1.1v12.4l-27.3-1zM2652.4 1749H2776v12.4h-123.6zM2692.5 3270h74.5v12.4h-74.5zM2692.5 3288.6h27.3v12.4h-27.3zM2381.4 1879.2l165.4-18.6v12.5l-165.4 18.6zM2381.4 1860.6l165.4-18.6v12.5l-165.4 18.6zM2031.2 3443.6l218.7 12.4v12.4l-218.7-12.4zM2031.2 3425l218.7 12.4v12.4l-218.7-12.4zM2435.3 2629.2l153.2 18.6v12.5l-153.2-18.6zM2435.3 2647.8l27.3 3.3v12.5l-27.3-3.3zM1166.7 3449.8h218.7v12.4h-218.7zM1166.7 3431.2h218.7v12.4h-218.7zM590 3443.6l218.7-24.8v12.4L589.9 3456zM590 3462.2l218.7-24.8v12.4l-218.8 24.8zM2608 3418.8h159v12.4h-159zM2608 3437.4h87v12.4h-87zM2319.5 3449.8h218.8v12.4h-218.8zM2319.5 3431.2h218.8v12.4h-218.8zM878.3 3443.6 1097 3456v12.4L878.3 3456zM878.3 3425l218.7 12.4v12.4l-218.7-12.4zM1455 3406.4h146.7v12.4H1455zM1455 3425h74.6v12.4H1455zM1742.8 3443.6l218.8-24.8v12.4l-218.8 24.8zM1742.8 3462.2l218.8-24.8v12.4l-218.8 24.8zM2245.4 1889.2l83.7-12.5v12.6l-83.7 12.4zM2245.4 1907.8l83.7-12.5v12.6l-83.7 12.4z" class="Beam"/><path d="M1247.5 785.6h1c2.8 0 3.8.2 4.2.7.3.5.3.6.3 3.1v23.8c0 2.5 0 2.7-.3 3.1-.4.5-1.4.7-4.2.7h-1v2.4h16.5V817h-1c-2.8 0-3.7-.1-4.1-.7-.3-.4-.3-.5-.3-3v-23.9c0-2.5 0-2.6.3-3 .4-.6 1.3-.7 4.1-.8h1v-2.3h-16.5zm28.5 10.5v-2.9q0-3.7.5-5.1c.8-2.2 2.6-3.6 4.6-3.6q1.6 0 1.7.9l-.3.6a3 3 0 0 0-.5 1.6c0 1.5 1.2 2.7 2.8 2.7s2.8-1.3 2.8-3c0-3-2.5-4.8-6.6-4.8q-5.1 0-7.7 3.7c-1.5 2.1-2 4.3-2 8.3v1.6h-4.4v2.1h4.3v17.4q0 1-.2 1.3c-.4.4-1.3.6-3.5.7h-.2v1.8h13.4v-1.8h-1c-3.3-.1-3.7-.4-3.7-2.2v-17.2h5.5v-2.1zM1314 813l-5.4-12.8-.3-1q-.1-1.4 2.3-1.3h1V796h-11.9v1.8h.6c1.7 0 2.3.5 3.4 2.7l8.1 18.4-.8 1.8c-1.8 3.8-4.2 6.4-5.8 6.4q-.7 0-.8-.5l.1-.4.3-1.3q-.1-2.1-2.6-2.3c-1.7 0-3 1.3-3 3.1 0 2.3 2 3.9 4.6 3.9q3.9 0 6.9-4c1.5-2 2.5-4.2 4.7-9.6l5.7-14.2c1.2-2.9 2.3-4 4.2-4h.3V796h-10v1.8h.8q2.9 0 2.7 1.8a5 5 0 0 1-.5 2zm23-17.7c-6.2 0-11 5.5-11 12.5 0 6.8 4.9 12.3 10.9 12.3s10.8-5.5 10.8-12.4c0-6.8-4.8-12.4-10.7-12.4m0 2.2q5.3.1 5.4 10.2-.1 10.2-5.5 10.3-5.5-.2-5.6-10.2 0-10.2 5.6-10.3m33 22.2 9.1-.3v-2.2h-1.2c-3 0-3.2-.4-3.2-3.6V796l-9.4.5v2.2h2.6c1.9 0 2.1.3 2.1 2.5v6.1c0 4.4-1 9.7-6.5 9.7q-2.5 0-3.5-1.6c-.7-1-.8-1.4-.8-4.2v-15.2l-8.7.5v2.2h1.9c1.9 0 2.1.3 2.1 2.5V812c0 2.5.2 3.7 1 4.8q2 3.1 6.7 3.2c3.3 0 5.6-1.3 7.8-4.5zM1405.7 782.5l-9.3.6v2.1h2.4c1.9 0 2.2.4 2.2 2.5v27.9l-.3 1.3q-.5.6-3.5.7h-.4v1.8h13v-1.8h-.3c-3.4-.1-3.8-.4-3.8-2.2zm18 12.8c-6 0-10.8 5.5-10.8 12.5 0 6.8 4.8 12.3 10.8 12.3s10.8-5.5 10.8-12.4c0-6.8-4.8-12.4-10.7-12.4m0 2.2q5.3.1 5.4 10.2-.1 10.2-5.5 10.3-5.5-.2-5.6-10.2 0-10.2 5.7-10.3m26 15.8-5.7-13.2-.2-1c0-1 .6-1.2 2.7-1.2h.7V796h-11.8v1.8h.4c1.9 0 2.6.5 3.3 2.1l8.6 20.1h1.7l7.1-17.5c1.4-3.4 2.6-4.6 4.7-4.7h.2V796h-10v1.8h.7q2.6 0 2.7 1.7 0 1-.5 2.1zm34.2-5.2c0-7.5-4.2-12.8-10.3-12.8-6.4 0-11.2 5.6-11.2 13 0 7.1 4.5 11.8 11.3 11.8q7.1 0 10.2-7l-1.8-1c-2 3.8-4.1 5.3-7.5 5.3q-3.7 0-5.7-3.3c-.9-1.5-1.3-3.2-1.2-6zm-16.2-2.1c0-3.5 1.6-8.5 5.8-8.5 3 0 5 2.6 5 6.7 0 1.4-.4 1.8-2 1.8zm36.9 13.7 8.7-.3v-2.2h-1c-2.7-.1-3-.4-3-3.6v-31l-9.8.5v2.1h3c1.9 0 2.1.4 2.1 2.5V799a8 8 0 0 0-7-3.7c-5.5 0-9.9 5.5-9.9 12.7 0 7 4.2 12.1 10 12.1q4.7.1 6.9-4.3zm-6-21.8q3.3.2 5 3.8 1 2.3 1 6c0 5.9-2.4 9.6-6 9.6-3.5 0-5.6-3.3-5.6-8.8q0-4.5 1-7 1.4-3.5 4.7-3.6M1741.8 1561.6h-13v2.4h1c2.9 0 3.8.2 4.2.7.3.4.3.5.3 3v19.2c0 6.8-1 8.2-5.8 8.5v2.3h14.3v-2.3c-4.8-.3-5.8-1.7-5.8-8.5v-22.1l12 33h2l11-33v26.8c0 2.5 0 2.6-.2 3.1-.4.5-1.4.7-4.2.7h-1v2.3h16.5v-2.3h-1c-2.8 0-3.7-.2-4.1-.7s-.3-.5-.3-3.2v-23.7c0-2.6 0-2.7.3-3.1.4-.5 1.3-.7 4.2-.7h.9v-2.4h-12.6l-9.1 26.7zm55.4 20c0-3.1-.5-4.7-2-6q-2.4-2-7.3-2c-5.6 0-9.7 2.7-9.7 6.4q.1 2.8 2.9 3 2.5-.1 2.7-2.5 0-1-.8-2-.4-.5-.3-.8c0-1 2-1.9 4.4-1.9 1.6 0 3.3.5 4.1 1.3q1.4 1 1.3 4.2v2c-5.2.9-6.8 1.3-9.3 2.2q-6.4 2.4-6.4 7.1c0 3.6 2.8 5.9 7.3 5.9q5.3-.1 8.7-4c.8 2.5 2 3.5 4.4 3.5 2.2 0 4.6-1.4 4.6-2.8q0-.7-.5-.7l-.8.3q-1 .4-1.4.3-2 .2-1.9-3.4zm-4.7 6c0 3-.1 3.7-1 5a7 7 0 0 1-5.7 3.1c-2.3 0-4-1.6-4-3.9q0-3.1 3.3-4.7c1.6-.7 3.5-1.2 7.4-1.8zm19.9-2v-24.9l-9.3.6v2.1h2.4c2 .1 2.2.4 2.2 2.5v28q0 1-.3 1.2c-.4.5-1.3.7-3.5.7h-.2v1.8h12.7v-1.8h-.2c-3.4-.1-3.8-.4-3.8-2.2v-5l3-2.9 6 8.4.3.8q.2 1-2.2 1h-1v1.7h13.3v-1.8c-2.8-.2-3.8-.9-5.9-3.4l-7-9.7 2.2-2.2c3-2.9 5-4 8.4-4.4v-1.8h-13.1v1.8h1.5q2.4 0 2.4 1 0 .7-1.2 2zm42 .9c0-7.5-4.2-12.8-10.3-12.8-6.4 0-11.2 5.5-11.2 13 0 7 4.5 11.8 11.3 11.8q7.2 0 10.2-7.1l-1.7-1c-2 3.8-4.2 5.3-7.5 5.3q-3.9 0-5.7-3.2-1.4-2.1-1.3-6zm-16.2-2.2c0-3.5 1.7-8.5 5.9-8.5 3 0 5 2.7 5 6.7q.2 2-2.1 1.8zM1548.5 796l-8.9.6v2.2h2c2 0 2.2.3 2.2 2.5v14.3q0 1-.3 1.3c-.4.4-1.3.6-3.5.7h-.2v1.8h12.6v-1.8h-.2c-3.3-.1-3.7-.4-3.7-2.2V806c0-4.4 2.4-7.7 5.7-7.7q4.3 0 4.3 6v11.2q0 1-.4 1.3-.2.6-3.4.7h-.2v1.8h12.6v-1.8h-.2c-3.3-.1-3.7-.4-3.7-2.2v-8.8c0-5 2.2-8.2 5.7-8.2q4.3 0 4.3 6.6v10.6q0 1-.4 1.3-.2.6-3.4.7h-.2v1.8h12.6v-1.8h-.2c-3.2-.1-3.7-.4-3.7-2.2V804c0-3-.3-4.1-1.6-5.8a7 7 0 0 0-6-2.9q-4.7 0-7.7 5a7 7 0 0 0-7-5q-4.4 0-7.1 4.6zm57.6 12c0-7.5-4.2-12.8-10.3-12.8-6.4 0-11.2 5.6-11.2 13 0 7.1 4.6 11.8 11.3 11.8q7.2 0 10.2-7l-1.7-1c-2 3.8-4.2 5.3-7.5 5.3a6 6 0 0 1-5.7-3.3c-1-1.5-1.3-3.2-1.3-6zM1590 806c0-3.5 1.6-8.5 5.8-8.5 3 0 5 2.6 5 6.7q.1 2-2 1.8zM712 819.4H729a21 21 0 0 0 10.5-2.2c5-2.9 7.8-8.6 7.8-16q-.1-10.7-7-15.4a22 22 0 0 0-12.2-2.5h-16v2.3h1c2.8 0 3.8.2 4.2.7.3.5.3.6.3 3.1v23.8c0 2.6 0 2.7-.3 3.1-.4.5-1.4.7-4.2.7h-1zm14-2.4c-2.6 0-3-.3-3-2.7v-25.9c0-2.4.4-2.8 3-2.8h2.5c8.6 0 12.1 4.7 12.1 15.7 0 11.2-3.2 15.7-11.3 15.7zm36.3-21.7c-6.1 0-10.9 5.5-10.9 12.5 0 6.8 4.8 12.3 10.8 12.3s10.8-5.5 10.8-12.4c0-6.8-4.8-12.4-10.7-12.4m0 2.2q5.4.1 5.5 10.2-.1 10.2-5.6 10.3-5.5-.2-5.5-10.2 0-10.2 5.6-10.3m22.4-1.4-8.7.5v2.2h1.8c2 0 2.2.3 2.2 2.5v14.3q0 1-.3 1.3-.4.6-3.5.7h-.2v1.8h12.7v-1.8h-.2c-3.4-.1-3.8-.4-3.8-2.2V808c0-2.4.3-4.7.9-5.8 1-2.3 3.3-3.8 5.4-3.8 1.3 0 2.8.7 3.6 1.7q1 1.5 1 5v10.5q0 1-.2 1.3-.5.6-3.5.7h-.2v1.8h12.6v-1.8h-.2c-3.3-.1-3.7-.4-3.7-2.2v-10c0-3.6-.2-4.5-1-6.2a7 7 0 0 0-6.8-3.9q-4.7 0-8 4.8zm25.2-1.6h1l1.6-9v-.8a2 2 0 0 0-2-2.1 2 2 0 0 0-2.2 2.1v.8zM825 796v-10h-2q-.7 9.8-6.8 10.2v2h4.1V811c0 3.5.1 4.7.6 5.9q1.3 3.1 5.7 3.2c4.5 0 7.4-3.4 7.4-8.7v-1.1h-2.1q-.3 6.8-4 6.8-1.6 0-2.4-1.5-.5-1.1-.5-3.7v-13.7h7.4v-2.1zM859.2 812c-1.6 3.6-3.3 5-6 5-4 0-6.4-3.6-6.4-9.4 0-6.1 2.4-10.1 6.1-10.1 1.5 0 2.8.7 2.8 1.5q0 .1-.3.6c-.8 1-1 1.4-1 2.3 0 1.6 1.3 2.8 3 2.8 1.8 0 3-1.4 3-3.4 0-3.4-3.3-6-7.7-6-6.5 0-11.2 5.3-11.2 12.8 0 7.1 4.3 12 10.5 12 4.4 0 7-2 9.1-7.3zm12.8-16-8.8.6v2.2h2c2 0 2.2.3 2.2 2.5v14.3q0 1-.3 1.3-.5.6-3.5.7h-.2v1.8h13.3v-1.8h-.9c-3.3-.1-3.8-.4-3.8-2.2v-2.7c0-8.4 3-14.8 7-15q-1 1-1 2.3.2 2.5 2.8 2.7 3-.2 3-3.3-.1-3.9-4.3-4-4.8 0-7.5 6.9zm28.3 17-5.6-13q-.2-.6-.2-1-.2-1.3 2.3-1.2h1V796h-11.9v1.8h.6c1.7 0 2.3.5 3.3 2.7L898 819l-.8 1.8c-1.9 3.8-4.2 6.4-5.8 6.4q-.7 0-.8-.5l.1-.4.3-1.3q-.1-2.1-2.6-2.3c-1.7 0-3 1.3-3 3.1 0 2.3 1.9 3.9 4.6 3.9q3.8 0 6.8-4c1.6-2 2.6-4.2 4.8-9.6l5.7-14.2c1.2-2.9 2.2-4 4.2-4h.3V796h-10v1.8h.8q2.8 0 2.7 1.8a5 5 0 0 1-.5 2zM1867.1 813l-5.5-12.8-.3-1q-.1-1.4 2.3-1.3h1V796h-11.8v1.8h.5c1.7 0 2.4.5 3.4 2.7l8.2 18.4-.9 1.8c-1.8 3.8-4.1 6.4-5.7 6.4q-.8 0-.8-.5v-.4l.3-1.3q-.1-2.1-2.5-2.3-2.9.2-3 3.1c0 2.3 1.9 3.9 4.5 3.9q4 0 7-4c1.5-2 2.5-4.2 4.7-9.6l5.7-14.2c1.1-2.9 2.2-4 4.2-4h.3V796h-10v1.8h.8q2.8 0 2.7 1.8a5 5 0 0 1-.5 2zm23-17.7c-6.1 0-10.9 5.5-10.9 12.5 0 6.8 4.8 12.3 10.8 12.3s10.8-5.5 10.8-12.4c0-6.8-4.8-12.4-10.7-12.4m0 2.2q5.4.1 5.5 10.2-.1 10.2-5.6 10.3-5.5-.2-5.5-10.2 0-10.2 5.6-10.3m33 22.2 9-.3v-2.2h-1.2c-2.9 0-3.1-.4-3.1-3.6V796l-9.4.5v2.2h2.5c2 0 2.2.3 2.2 2.5v6.1c0 4.4-1 9.7-6.6 9.7q-2.3 0-3.5-1.6c-.6-1-.7-1.4-.7-4.2v-15.2l-8.8.5v2.2h2c1.8 0 2 .3 2 2.5V812c0 2.5.3 3.7 1 4.8q2.2 3.1 6.8 3.2c3.3 0 5.6-1.3 7.8-4.5zM1975.9 813l-5-13-.2-1q-.2-1.2 2.1-1.1h1.3V796h-11.3v1.8h.9q2.3-.2 2.6 1.8l.5 1.3-4.5 11.7-4.8-12.6-.2-1q-.1-1.4 2-1.2h1V796h-11v1.8h.9q1.9-.2 2.5 2.4l7.5 19.8h1.8l6-15.8 6 15.8h1.6l7-18.4c1.1-3 1.9-3.8 3.7-3.8h.4V796h-9.5v1.8h.8q2.6 0 2.5 1.8 0 .8-.4 1.8zm22.8-17.6c-6.2 0-10.9 5.5-10.9 12.5 0 6.8 4.8 12.3 10.8 12.3s10.8-5.5 10.8-12.4c0-6.8-4.8-12.4-10.7-12.4m0 2.2q5.3.1 5.4 10.2-.1 10.2-5.5 10.3-5.5-.2-5.5-10.2 0-10.2 5.6-10.3m33 22.2 9-.3v-2.2h-1.2c-2.9 0-3.1-.4-3.1-3.6V796l-9.4.5v2.2h2.5c2 0 2.2.3 2.2 2.5v6.1c0 4.4-1 9.7-6.6 9.7q-2.3 0-3.5-1.6c-.6-1-.7-1.4-.7-4.2v-15.2l-8.8.5v2.2h2c1.8 0 2 .3 2 2.5V812c0 2.5.3 3.7 1 4.8q2.2 3.1 6.8 3.2c3.3 0 5.6-1.3 7.8-4.5zm20.1-37.2-9.2.6v2.1h2.4c1.9 0 2.1.4 2.1 2.5v27.9q0 1-.3 1.3-.3.6-3.4.7h-.4v1.8h13v-1.8h-.4c-3.3-.1-3.8-.4-3.8-2.2zm24.6 37.2 8.7-.3v-2.2h-1c-2.8-.1-3-.4-3-3.6v-31l-9.8.5v2.1h2.9c2 0 2.2.4 2.2 2.5V799a8 8 0 0 0-7-3.7c-5.6 0-9.9 5.5-9.9 12.7 0 7 4.2 12.1 10 12.1q4.6.1 6.9-4.3zm-6-21.8q3.3.2 5 3.8 1 2.3 1 6c0 5.9-2.4 9.6-6 9.6-3.5 0-5.6-3.3-5.6-8.8q0-4.5.9-7 1.5-3.5 4.8-3.6M936.5 796v-9.8h-2q-.7 9.7-6.8 10v2h4.1V811c0 3.5.1 4.7.6 5.9q1.3 3.1 5.7 3.2c4.5 0 7.4-3.4 7.4-8.7v-1.1h-2.1q-.3 6.8-4 6.8-1.6 0-2.4-1.5-.5-1.1-.5-3.7v-13.7h7.4v-2.1zm22.6-.8c-6 0-10.8 5.5-10.8 12.5 0 6.8 4.8 12.3 10.8 12.3s10.8-5.5 10.8-12.4c0-6.8-4.8-12.4-10.8-12.4m0 2.2q5.4.1 5.5 10.2-.1 10.2-5.5 10.3-5.5-.2-5.6-10.2 0-10.2 5.6-10.3M2100.8 782.5l-8.6.6v2.1h1.7c2 0 2.2.4 2.2 2.5v19.5c0 7-.3 10.7-1 12.9h2l2.4-4q3 4.1 7.5 4c6.2 0 10.8-5.3 10.8-12.5s-4.2-12.3-10.2-12.3c-3 0-5 1-6.8 4zm5.9 15.4q5.7.1 5.8 10.2c0 6.3-2 9.9-5.7 9.9-4 0-6.3-3.7-6.3-9.8q.1-10.2 6.2-10.3m36.1 10.2c0-7.5-4.2-12.8-10.3-12.8-6.4 0-11.2 5.6-11.2 13 0 7.1 4.6 11.8 11.3 11.8q7.2 0 10.2-7l-1.7-1c-2 3.8-4.2 5.3-7.5 5.3q-3.8 0-5.7-3.3c-1-1.5-1.3-3.2-1.3-6zm-16.1-2.1c0-3.5 1.6-8.5 5.8-8.5 3 0 5 2.6 5 6.7q.1 2-2 1.8zM2219.7 782.5l-9.3.6v2.1h2.4c1.9 0 2.1.4 2.1 2.5v28q0 .9-.2 1.2-.4.6-3.5.7h-.2v1.8h12.7v-1.8h-.2c-3.4-.1-3.8-.4-3.8-2.2V808c0-2.4.3-4.7.9-5.8 1-2.3 3.3-3.8 5.4-3.8 1.3 0 2.8.7 3.5 1.7q1.2 1.5 1.2 5v10.5q0 1-.3 1.3-.5.6-3.6.7h-.2v1.8h12.7v-1.8h-.2c-3.3-.1-3.7-.4-3.7-2.2v-10c0-3.6-.2-4.5-1-6.2a7 7 0 0 0-6.8-3.9c-3.3 0-5.7 1.5-8 4.8zm43.8 25.6c.1-7.5-4.2-12.8-10.2-12.8-6.4 0-11.2 5.6-11.2 13 0 7.1 4.5 11.8 11.3 11.8q7 0 10.1-7l-1.7-1c-2 3.8-4.2 5.3-7.5 5.3a6 6 0 0 1-5.7-3.3c-.9-1.5-1.3-3.2-1.2-6zm-16.1-2.1c0-3.5 1.6-8.5 5.8-8.5 3 0 5 2.6 5 6.7 0 1.4-.4 1.8-2 1.8zm27.8-10-8.9.6v2.2h2c2 0 2.2.3 2.2 2.5v14.3q0 1-.3 1.3-.3.6-3.5.7h-.2v1.8h13.4v-1.8h-1c-3.3-.1-3.7-.4-3.7-2.2v-2.7c0-8.4 3-14.8 7-15q-1.1 1-1 2.3.2 2.5 2.8 2.7 2.9-.2 3-3.3-.2-3.9-4.3-4-5 0-7.5 6.9zm35.2 12c0-7.5-4.2-12.8-10.3-12.8-6.4 0-11.2 5.6-11.2 13 0 7.1 4.6 11.8 11.3 11.8q7.2 0 10.2-7l-1.7-1c-2 3.8-4.2 5.3-7.5 5.3q-3.8 0-5.7-3.3c-1-1.5-1.3-3.2-1.3-6zm-16.1-2.1c0-3.5 1.6-8.5 5.8-8.5 3 0 5 2.6 5 6.7q.1 2-2 1.8zM996.2 796l-9 .6v2.2h2.1c1.9 0 2.1.3 2.1 2.5v14.3q0 1-.2 1.3c-.4.4-1.3.6-3.5.7h-.2v1.8h12.6v-1.8h-.2c-3.3-.1-3.7-.4-3.7-2.2V806c0-4.4 2.4-7.7 5.7-7.7q4.3 0 4.3 6v11.2q0 1-.4 1.3-.4.6-3.4.7h-.2v1.8h12.6v-1.8h-.2c-3.3-.1-3.7-.4-3.7-2.2v-8.8c0-5 2.2-8.2 5.7-8.2q4.3 0 4.3 6.6v10.6q0 1-.4 1.3-.3.6-3.4.7h-.2v1.8h12.6v-1.8h-.2c-3.3-.1-3.7-.4-3.7-2.2V804c0-3-.3-4.1-1.6-5.8a7 7 0 0 0-6-2.9q-4.7 0-7.7 5a7 7 0 0 0-7-5q-4.4 0-7.1 4.6zm57.6 12c0-7.5-4.2-12.8-10.3-12.8-6.4 0-11.2 5.6-11.2 13 0 7.1 4.5 11.8 11.3 11.8q7.2 0 10.2-7l-1.8-1c-2 3.8-4.1 5.3-7.5 5.3q-3.7 0-5.7-3.3c-.8-1.5-1.3-3.2-1.2-6zm-16.2-2.1c0-3.5 1.7-8.5 5.9-8.5 3 0 5 2.6 5 6.7q.2 2-2.1 1.8zm24.4 7.8a3.1 3.1 0 1 0 0 6.2 3.1 3.1 0 0 0 0-6.2M2582.3 813l-4.9-13q-.2-.4-.2-1-.1-1.2 2-1.1h1.3V796h-11.2v1.8h.8c1.7 0 2.3.4 2.7 1.8l.4 1.3-4.4 11.7-4.9-12.6-.2-1q0-1.4 2-1.2h1V796h-11v1.8h1q1.8-.2 2.5 2.4l7.5 19.8h1.8l5.9-15.8 6.1 15.8h1.6l7-18.4c1-3 1.8-3.8 3.7-3.8h.3V796h-9.4v1.8h.8q2.6 0 2.4 1.8 0 .8-.3 1.8zm20.3-29.3a2.9 2.9 0 1 0 0 5.8 2.9 2.9 0 0 0 0-5.8m2.4 12.5-9.4.5v2.2h2.5c2 0 2.2.3 2.2 2.5v14.3q0 1-.3 1.3-.4.6-3.5.7h-.3v1.8h13v-1.8h-.4c-3.4-.1-3.8-.4-3.8-2.2zm15.1 0v-10h-2q-.7 9.8-6.8 10.2v2h4.1V811c0 3.5.1 4.7.6 5.9q1.3 3.1 5.7 3.2c4.5 0 7.4-3.4 7.4-8.7v-1.1h-2.1q-.3 6.8-4 6.8-1.7 0-2.4-1.5-.5-1.1-.5-3.7v-13.7h7.4v-2.1zm19.7-13.6-9.2.6v2.1h2.4c1.9 0 2.1.4 2.1 2.5v28q0 .9-.3 1.2-.4.6-3.4.7h-.2v1.8h12.6v-1.8h-.2c-3.3-.1-3.8-.4-3.8-2.2V808c0-2.4.3-4.7 1-5.8 1-2.3 3.2-3.8 5.3-3.8 1.4 0 2.9.7 3.6 1.7q1.2 1.5 1.1 5v10.5q0 1-.3 1.3-.3.6-3.5.7h-.2v1.8h12.7v-1.8h-.2c-3.3-.1-3.8-.4-3.8-2.2v-10c0-3.6-.1-4.5-1-6.2a7 7 0 0 0-6.8-3.9q-4.6 0-7.9 4.8zM1183.6 1561.3h-2l-2 3c-3.6-2.7-5.4-3.5-8.9-3.5q-7.1 0-12.1 6c-3.2 3.9-4.7 8-4.7 13.2 0 10.8 7 18.5 16.9 18.5 8 0 13-4.7 14.2-13.1l-2.3-.4q-2.1 11.1-11.3 11.1-11 .2-11-15.9c0-5.7.8-9.5 2.5-12.5a9 9 0 0 1 7.9-4.5q5.5.1 8.5 5c1 1.7 1.6 3.5 2.8 7.5h2.2zm16.5 12.5c-6.1 0-10.9 5.4-10.9 12.4s4.8 12.4 10.8 12.4 10.8-5.5 10.8-12.5c0-6.8-4.8-12.3-10.7-12.3m0 2.1c3.5 0 5.5 3.7 5.5 10.3q-.1 10-5.6 10.2-5.4-.1-5.5-10.2t5.6-10.3m22.5-1.4-9 .6v2.1h2.1c1.9 0 2.1.4 2.1 2.5v14.3q0 1-.2 1.3c-.4.5-1.3.7-3.5.7h-.2v1.8h12.6v-1.8h-.2c-3.3-.1-3.7-.4-3.7-2.2v-9.2c0-4.5 2.4-7.8 5.7-7.8q4.2 0 4.3 6.1v11.2q0 .9-.4 1.2-.3.7-3.5.7h-.2v1.8h12.7v-1.8h-.2c-3.3-.1-3.7-.4-3.7-2.2v-8.8c0-5 2.2-8.2 5.7-8.2q4.3 0 4.3 6.7v10.5q0 1-.4 1.3-.3.7-3.5.7h-.2v1.8h12.7v-1.8h-.2c-3.3-.1-3.7-.4-3.7-2.2v-11.3c0-3.2-.3-4.2-1.6-5.9a7 7 0 0 0-6-2.8q-4.7-.1-7.7 5a7 7 0 0 0-7-5q-4.4 0-7.2 4.5zm57.7 12c0-7.4-4.2-12.7-10.3-12.7-6.4 0-11.2 5.5-11.2 13 0 7 4.5 11.8 11.3 11.8q7.1 0 10.2-7.1l-1.8-1c-2 3.8-4.1 5.3-7.5 5.3a6 6 0 0 1-5.7-3.2q-1.4-2.1-1.2-6zm-16.2-2.2c0-3.5 1.6-8.5 5.8-8.5 3 0 5 2.7 5 6.7 0 1.4-.4 1.8-2 1.8zM1974.4 1591.4l-5.5-12.9-.3-1q-.1-1.4 2.3-1.3h1v-1.8H1960v1.8h.6c1.7 0 2.3.5 3.4 2.7l8.1 18.5-.8 1.7c-1.8 3.8-4.2 6.5-5.8 6.5q-.7 0-.8-.5l.1-.5q.3-.7.3-1.3-.1-2-2.6-2.2c-1.7 0-3 1.3-3 3 0 2.3 2 3.9 4.6 3.9q3.9 0 6.9-4c1.5-2 2.5-4.1 4.7-9.6l5.7-14.2c1.2-2.8 2.3-4 4.2-4h.3v-1.8h-10v1.8h.8q2.8 0 2.7 1.8a5 5 0 0 1-.5 2zm23-17.7c-6.2 0-11 5.4-11 12.4s4.9 12.4 10.9 12.4 10.8-5.5 10.8-12.5c0-6.8-4.8-12.3-10.7-12.3m0 2.1c3.5 0 5.4 3.7 5.4 10.3q-.1 10-5.5 10.2-5.5-.1-5.6-10.2t5.7-10.3m33 22.3 9-.4v-2.2h-1.2c-2.9 0-3.2-.3-3.2-3.6v-17.5l-9.3.6v2.1h2.5c1.9 0 2.1.4 2.1 2.5v6.2c0 4.3-1 9.6-6.5 9.6q-2.4 0-3.5-1.5c-.6-1-.7-1.5-.7-4.2v-15.3l-8.8.6v2.1h2c1.8 0 2 .4 2 2.5v10.8c0 2.6.3 3.7 1 4.8q2.2 3.2 6.8 3.3c3.3 0 5.6-1.4 7.8-4.6zm19.8-23.6-8.8.6v2.1h2c1.9 0 2.1.4 2.1 2.5v14.3q0 1-.2 1.3-.5.7-3.5.7h-.2v1.8h13.3v-1.8h-.9c-3.3-.1-3.8-.4-3.8-2.2v-2.7c0-8.3 3-14.7 7-15q-1 1.2-1 2.3.2 2.6 2.8 2.8 2.9-.2 3-3.4-.2-3.9-4.3-4-4.8.1-7.5 7zM1293.4 1574.4h-4.8v2.1h4.8v17.4q0 1-.3 1.3-.5.7-3.5.7h-.2v1.8h12.6v-1.8h-.2c-3.3-.1-3.7-.4-3.7-2.2v-17.2h8.3c2 .1 2.2.4 2.2 3.5v14q0 .9-.4 1.2-.3.7-3.4.7h-.2v1.8h12.6v-1.8h-.2c-3.3-.1-3.7-.4-3.7-2.2V1574c-3.7.4-5 .4-7.7.4h-7.5v-1c0-5 1.2-10.5 7.3-10.5q2.3 0 2.3.8 0 .2-.3.6-.5.8-.5 1.9c0 1.5 1.3 2.5 3 2.5q3.1 0 3.2-3c0-3-2.8-4.8-7.4-4.8q-5.7 0-9.1 3.4c-2.3 2.3-3.2 5-3.2 9.7zm35 0-8.7.6v2.1h1.8c2 0 2.2.4 2.2 2.5v14.3q0 1-.3 1.3c-.4.5-1.3.7-3.5.7h-.2v1.8h12.7v-1.8h-.2c-3.4-.1-3.8-.4-3.8-2.2v-7.3q0-4 .9-5.9c1-2.2 3.3-3.8 5.4-3.8 1.3 0 2.8.7 3.6 1.8q1 1.4 1 5v10.4q0 1-.2 1.3-.5.7-3.5.7h-.2v1.8h12.6v-1.8h-.2c-3.3-.1-3.7-.4-3.7-2.2v-10c0-3.6-.2-4.5-1-6.2a7 7 0 0 0-6.8-3.8c-3.3 0-5.7 1.5-8 4.8zm39.6 23.5 8.7-.3v-2.2h-.9c-2.8 0-3-.4-3-3.6v-31l-9.9.5v2.1h3c1.9.1 2.1.4 2.1 2.5v11.4a8 8 0 0 0-6.9-3.7c-5.6 0-10 5.4-10 12.6s4.2 12.2 10 12.2q4.6 0 7-4.4zm-6-21.7c2 0 4 1.5 5 3.8q.9 2.3.9 6c0 5.8-2.3 9.5-6 9.5-3.5 0-5.6-3.2-5.6-8.8q0-4.4 1-6.9c.8-2.2 2.7-3.6 4.7-3.6M2095.7 1574.4l-9 .6v2.1h2.1c2 0 2.2.4 2.2 2.5v14.3q0 1-.3 1.3c-.4.5-1.3.7-3.5.7h-.2v1.8h12.6v-1.8h-.2c-3.3-.1-3.7-.4-3.7-2.2v-9.2c0-4.5 2.4-7.8 5.7-7.8q4.3 0 4.3 6.1v11.2q0 .9-.4 1.2-.4.7-3.4.7h-.2v1.8h12.6v-1.8h-.2c-3.3-.1-3.7-.4-3.7-2.2v-8.8c0-5 2.2-8.2 5.7-8.2q4.3 0 4.3 6.7v10.5q0 1-.4 1.3-.3.7-3.4.7h-.2v1.8h12.6v-1.8h-.2c-3.3-.1-3.7-.4-3.7-2.2v-11.3c0-3.2-.3-4.2-1.6-5.9a7 7 0 0 0-6-2.8q-4.7-.1-7.7 5a7 7 0 0 0-7-5q-4.4 0-7.1 4.5zm42.3-12.4a2.9 2.9 0 1 0 0 5.7 2.9 2.9 0 0 0 0-5.7m2.3 12.4-9.3.6v2.1h2.5c1.9 0 2.2.4 2.2 2.5v14.3q0 1-.3 1.3-.4.7-3.5.7h-.3v1.8h12.9v-1.8h-.3c-3.4-.1-3.8-.4-3.8-2.2zm15.4 0-8.7.6v2.1h1.8c2 0 2.2.4 2.2 2.5v14.3q0 1-.3 1.3-.4.7-3.5.7h-.2v1.8h12.7v-1.8h-.2c-3.4-.1-3.8-.4-3.8-2.2v-7.3q0-4 .9-5.9c1-2.2 3.3-3.8 5.4-3.8 1.3 0 2.8.7 3.6 1.8q1 1.4 1 5v10.4q0 1-.2 1.3-.5.7-3.5.7h-.2v1.8h12.6v-1.8h-.2c-3.3-.1-3.7-.4-3.7-2.2v-10c0-3.6-.2-4.5-1-6.2a7 7 0 0 0-6.8-3.8c-3.3 0-5.7 1.5-8 4.8zm39.6 23.5 8.7-.3v-2.2h-.9c-2.8 0-3-.4-3-3.6v-31l-9.9.5v2.1h3c1.9.1 2.1.4 2.1 2.5v11.4a8 8 0 0 0-6.9-3.7c-5.6 0-10 5.4-10 12.6s4.2 12.2 10 12.2q4.6 0 7-4.4zm-6-21.7c2 0 4 1.5 5 3.8q.9 2.3.9 6c0 5.8-2.3 9.5-6 9.5-3.5 0-5.6-3.2-5.6-8.8q0-4.4 1-6.9c.8-2.2 2.7-3.6 4.7-3.6m22.1 15.8a3.1 3.1 0 1 0 0 6.2 3.1 3.1 0 0 0 0-6.2M848 1574.4l-8.8.6v2.1h2c2 0 2.2.4 2.2 2.5v14.3q0 1-.3 1.3c-.4.5-1.3.7-3.5.7h-.2v1.8H852v-1.8h-.2c-3.3-.1-3.7-.4-3.7-2.2v-9.2c0-4.5 2.4-7.8 5.7-7.8q4.3 0 4.3 6.1v11.2q0 .9-.4 1.2-.3.7-3.4.7h-.2v1.8h12.6v-1.8h-.2c-3.3-.1-3.7-.4-3.7-2.2v-8.8c0-5 2.2-8.2 5.7-8.2q4.3 0 4.3 6.7v10.5q0 1-.4 1.3-.3.7-3.4.7h-.2v1.8h12.6v-1.8h-.2c-3.3-.1-3.7-.4-3.7-2.2v-11.3c0-3.2-.3-4.2-1.6-5.9a7 7 0 0 0-6-2.8q-4.7-.1-7.7 5a7 7 0 0 0-7-5q-4.4 0-7.1 4.5zm57.6 12c0-7.4-4.2-12.7-10.3-12.7-6.4 0-11.2 5.5-11.2 13 0 7 4.6 11.8 11.3 11.8q7.2 0 10.2-7.1l-1.7-1c-2 3.8-4.2 5.3-7.5 5.3q-3.9 0-5.7-3.2-1.4-2.1-1.3-6zm-16.2-2.2c0-3.5 1.7-8.5 5.9-8.5 3 0 5 2.7 5 6.7q.1 2-2.1 1.8zm26.6 3.9c0-5 .5-6.3 3.7-9 4.9-4.3 6-6 6-9.6 0-5.2-3.9-8.7-9.6-8.7s-9.7 3.1-9.7 7.4c0 2.2 1.4 3.9 3.3 3.9 1.5 0 2.8-1.2 2.8-2.8q0-1.5-1.5-2.7-1-.7-.8-1c0-1.4 2.2-2.5 4.6-2.5q5.5.1 5.6 6.1 0 3.1-1.6 5.4c-3.7 5-3.7 5-4.3 6.8-.5 1.4-.7 2.7-.7 5v1.7zm-1.2 4a3.1 3.1 0 0 0 0 6.3c1.7 0 3-1.5 3-3.2s-1.3-3-3-3M744.2 1591.3l-5-12.9-.1-1c0-1 .4-1.2 2-1.2h1.3v-1.8h-11.2v1.8h.8q2.3 0 2.7 1.8l.4 1.4-4.4 11.6-4.9-12.5-.2-1.1q0-1.3 2-1.2h1v-1.8h-11v1.8h.9q1.9-.1 2.6 2.5l7.5 19.8h1.7l6-15.8 6 15.8h1.6l7-18.5c1.1-3 1.9-3.7 3.7-3.8h.4v-1.8h-9.5v1.8h.9q2.5 0 2.4 1.8 0 .8-.4 1.9zm33.1-9.6c0-3.1-.5-4.7-2-6q-2.4-2-7.3-2c-5.6 0-9.7 2.7-9.7 6.4q.1 2.8 2.9 3 2.5-.1 2.7-2.5 0-1-.8-2-.4-.5-.3-.8c0-1 2-1.9 4.4-1.9 1.6 0 3.3.5 4.1 1.3q1.4 1 1.3 4.2v2c-5.2.9-6.8 1.3-9.3 2.2q-6.4 2.4-6.4 7.1c0 3.6 2.8 5.9 7.3 5.9q5.3-.1 8.7-4 1 3.6 4.4 3.5c2.2 0 4.6-1.4 4.6-2.8q0-.7-.5-.7l-.8.3q-1 .4-1.4.3-2 .2-1.9-3.4zm-4.7 6c0 3-.1 3.7-1 5a7 7 0 0 1-5.7 3.1c-2.3 0-4-1.6-4-3.9q0-3.1 3.3-4.7c1.6-.7 3.5-1.2 7.4-1.8zm19.9-13.3-8.7.6v2.1h1.9c1.9 0 2.1.4 2.1 2.5v14.3q0 1-.3 1.3-.4.7-3.4.7h-.3v1.8h12.7v-1.8h-.2c-3.3-.1-3.8-.4-3.8-2.2v-7.3q0-4 1-5.9c1-2.2 3.2-3.8 5.3-3.8 1.4 0 2.9.7 3.6 1.8q1.1 1.4 1.1 5v10.4q0 1-.3 1.3-.5.7-3.5.7h-.2v1.8h12.7v-1.8h-.2c-3.3-.1-3.8-.4-3.8-2.2v-10c0-3.6-.1-4.5-1-6.2a7 7 0 0 0-6.8-3.8q-4.7 0-7.9 4.8zm30.3 0v-10h-2q-.9 9.7-6.8 10.1v2h4v12.7c0 3.5.1 4.8.6 6q1.4 3.1 5.7 3.2c4.5 0 7.5-3.5 7.5-8.7v-1.2h-2.2q-.2 6.8-3.9 6.8-1.8-.1-2.5-1.4-.4-1-.4-3.8v-13.7h7.3v-2zM644 1579.9l-8.3-13.6q-.6-.8-.6-1.4 0-1 2-1h3v-2.3H624v2.4h1c2.3 0 3 .3 4.1 2.3l10.8 17v8.3c0 2.5 0 2.6-.3 3-.4.6-1.3.8-4.2.8h-1.3v2.3h17.2v-2.3H650c-2.9-.1-3.8-.2-4.2-.7-.3-.5-.3-.5-.3-3.2v-8.7l7.5-13.5c2.1-4 3.7-5.2 6.9-5.3h.4v-2.4H646v2.4h1.1q4-.1 3.9 2.2 0 1.3-.8 2.6zm24.1-6.1c-6.1 0-10.9 5.4-10.9 12.4s4.8 12.4 10.8 12.4 10.8-5.5 10.8-12.5c0-6.8-4.8-12.3-10.7-12.3m0 2.1c3.5 0 5.4 3.7 5.4 10.3q0 10-5.5 10.2-5.5-.1-5.5-10.2t5.6-10.3m33 22.3 9-.4v-2.2H709c-2.9 0-3.1-.3-3.1-3.6v-17.5l-9.4.6v2.1h2.5c2 0 2.2.4 2.2 2.5v6.2c0 4.3-1 9.6-6.6 9.6q-2.4 0-3.5-1.5c-.6-1-.7-1.5-.7-4.2v-15.3l-8.8.6v2.1h2c1.8 0 2 .4 2 2.5v10.8c0 2.6.3 3.7 1 4.8q2.2 3.2 6.8 3.3c3.3 0 5.6-1.4 7.8-4.6zM1419 1574.4l-8.9.6v2.1h2c2 0 2.2.4 2.2 2.5v14.3q0 1-.3 1.3-.3.7-3.5.7h-.1v1.8h12.5v-1.8h-.2c-3.2-.1-3.7-.4-3.7-2.2v-9.2c0-4.5 2.5-7.8 5.7-7.8q4.3 0 4.3 6.1v11.2q0 .9-.3 1.2-.3.7-3.5.7h-.2v1.8h12.7v-1.8h-.2c-3.3-.1-3.8-.4-3.8-2.2v-8.8c0-5 2.3-8.2 5.8-8.2q4.2 0 4.2 6.7v10.5q0 1-.3 1.3-.3.7-3.5.7h-.2v1.8h12.7v-1.8h-.2c-3.3-.1-3.8-.4-3.8-2.2v-11.3c0-3.2-.3-4.2-1.6-5.9a7 7 0 0 0-5.9-2.8q-4.7-.1-7.8 5a7 7 0 0 0-6.9-5q-4.3 0-7.2 4.5zm57.6 12c0-7.4-4.2-12.7-10.3-12.7-6.4 0-11.2 5.5-11.2 13 0 7 4.6 11.8 11.3 11.8q7.2 0 10.2-7.1l-1.7-1c-2 3.8-4.2 5.3-7.5 5.3a6 6 0 0 1-5.7-3.2q-1.4-2.1-1.3-6zm-16.1-2.2c0-3.5 1.6-8.5 5.8-8.5 3 0 5 2.7 5 6.7q.1 2-2 1.8zm24.3 7.9a3.1 3.1 0 1 0 0 6.2 3.1 3.1 0 0 0 0-6.2M1881.2 1598l9.1-.3v-2.2h-1.2c-3 0-3.2-.3-3.2-3.6v-17.5l-9.4.6v2.1h2.6c1.9 0 2.1.4 2.1 2.5v6.2c0 4.3-1 9.6-6.5 9.6q-2.5 0-3.5-1.5c-.7-1-.8-1.5-.8-4.2v-15.3l-8.7.6v2.1h1.9c1.9 0 2.1.4 2.1 2.5v10.8c0 2.6.2 3.7 1 4.8q2 3.2 6.7 3.3c3.3 0 5.6-1.4 7.8-4.6zm20-23.6-8.6.6v2.1h1.8c1.9 0 2.1.4 2.1 2.5v24.5q0 1-.3 1.2-.3.7-3.4.7h-.2v1.8h13v-1.8h-.6c-3.3 0-3.8-.3-3.8-2.1v-9.5c1.7 2.9 3.5 4 6.6 4 6.7 0 10.1-6.5 10.1-12.4 0-5.7-3.4-12.3-9.8-12.3q-4.3-.1-6.9 4.3zm6 2c3.5 0 5.5 3.4 5.5 9.3 0 6.4-2 10-5.6 10s-6-3.7-6-9.4c0-6.2 2.3-10 6.1-10M2726.4 796l-8.9.6v2.2h2c2 0 2.2.3 2.2 2.5v14.3q0 1-.3 1.3-.3.6-3.5.7h-.2v1.8h12.6v-1.8h-.2c-3.3-.1-3.7-.4-3.7-2.2V806c0-4.4 2.4-7.7 5.7-7.7q4.3 0 4.3 6v11.2q0 1-.3 1.3-.3.6-3.5.7h-.2v1.8h12.7v-1.8h-.3c-3.2-.1-3.7-.4-3.7-2.2v-8.8c0-5 2.2-8.2 5.7-8.2q4.3 0 4.3 6.6v10.6q0 1-.3 1.3-.5.6-3.5.7h-.2v1.8h12.7v-1.8h-.2c-3.3-.1-3.8-.4-3.8-2.2V804c0-3-.3-4.1-1.6-5.8a7 7 0 0 0-5.9-2.9q-4.7 0-7.8 5a7 7 0 0 0-7-5q-4.4 0-7.1 4.6zm57.6 12c0-7.5-4.2-12.8-10.3-12.8-6.4 0-11.2 5.6-11.2 13 0 7.1 4.6 11.8 11.3 11.8q7.2 0 10.2-7l-1.7-1c-2 3.8-4.2 5.3-7.5 5.3q-3.8 0-5.7-3.3c-1-1.5-1.3-3.2-1.3-6zM2768 806c0-3.5 1.6-8.5 5.8-8.5 3 0 5 2.6 5 6.7q.1 2-2 1.8zm24.3 7.8a3.1 3.1 0 1 0 0 6.2 3.1 3.1 0 0 0 0-6.2" class="Lyrics"/><path d="M581 528.7h-3.3V571q-1.7-1-4.2-1.2h-1.3c-7 0-16.6 5.7-16.6 13.4 0 4.8 4.2 7 8.6 7 6.8 0 16.7-6.1 16.7-13.4zM601.2 566.7h30.2v-6.9h-30.2zm0 12.3h30.2v-7h-30.2zm72.7-14.2c0 5.7-.3 17.4-8.3 17.4q-2 0-2-1.2 0-.5.4-1c1-1.8 1.2-2.2 1.2-3.5 0-2.9-2-4.8-5-4.8-3.4 0-5.8 2.5-5.8 6 0 4.6 4.4 7.6 11.2 7.6 13.6 0 18.8-12 18.8-24q0-8-3.7-13-4.7-6.1-12.5-6.3c-8.7 0-15 6-15 14.4 0 7.1 5 12.3 11.9 12.3 3.7 0 6.2-1.1 8.8-4m-5.2-19.6c4.4 0 5 7.4 5 10.5 0 5.3-2 8.6-5 8.6-4.8 0-5.1-5.7-5.1-9.2q0-9.8 5.1-9.9m29.6 17.7c0-5 1-17.7 8-17.7q2.3.1 2.5 1.4.1.5-.5 1.2a6 6 0 0 0-1.2 3.5c0 2.7 2.2 4.6 5.3 4.6 3.4 0 5.6-2 5.6-5.4 0-5.1-4.4-8.4-11.3-8.4a16 16 0 0 0-13.6 6.9 27 27 0 0 0-5.2 17.2c0 6 1.3 10.3 4 13.8q4.5 5.4 12 5.4c8.8 0 15.2-5.9 15.2-14.2 0-7.2-5-12.2-12-12.2-4 0-6.3 1-8.8 4m5.6.5q4.7.2 4.8 8.4-.1 10.6-5 10.7c-3.2 0-5-3.5-5-9.6q0-3.3.4-5.4 1.2-4 4.8-4.1" class="Tempo"/><path fill="none" stroke="#000" stroke-linejoin="bevel" stroke-width="2.5" d="M523 2402.3h1269.8M2220.6 1596.5h616.1M1612.4 818.1h67.3M932 1596.5h59.4M1493.9 1596.5h116M1923.6 1596.5h30.8M2316.6 818.1h198.6" class="LyricsLineSegment"/><path d="M1113.6 2292a5 5 0 0 0 5 5 5 5 0 0 0 4.9-5 5 5 0 0 0-5-5 5 5 0 0 0-5 5M1049.3 696.2a5 5 0 0 0 5 5 5 5 0 0 0 5-5 5 5 0 0 0-5-5 5 5 0 0 0-5 5M1805.2 2292a5 5 0 0 0 5 5 5 5 0 0 0 4.9-5 5 5 0 0 0-5-5 5 5 0 0 0-5 5M1805.2 2504a5 5 0 0 0 5 5 5 5 0 0 0 4.9-5 5 5 0 0 0-5-5 5 5 0 0 0-5 5M1805.2 2528.8a5 5 0 0 0 5 5 5 5 0 0 0 4.9-5 5 5 0 0 0-5-5 5 5 0 0 0-5 5M1805.2 2578.4a5 5 0 0 0 5 5 5 5 0 0 0 4.9-5 5 5 0 0 0-5-5 5 5 0 0 0-5 5M2600.9 2578.4a5 5 0 0 0 5 5 5 5 0 0 0 5-5 5 5 0 0 0-5-5 5 5 0 0 0-5 5M2600.9 2553.6a5 5 0 0 0 5 5 5 5 0 0 0 5-5 5 5 0 0 0-5-5 5 5 0 0 0-5 5M2600.9 2528.8a5 5 0 0 0 5 5 5 5 0 0 0 5-5 5 5 0 0 0-5-5 5 5 0 0 0-5 5M2600.9 2734.7a5 5 0 0 0 5 5 5 5 0 0 0 5-5 5 5 0 0 0-5-5 5 5 0 0 0-5 5M1805.2 2784.3a5 5 0 0 0 5 5 5 5 0 0 0 4.9-5 5 5 0 0 0-5-5 5 5 0 0 0-5 5M1805.2 2734.7a5 5 0 0 0 5 5 5 5 0 0 0 4.9-5 5 5 0 0 0-5-5 5 5 0 0 0-5 5M1805.2 2709.9a5 5 0 0 0 5 5 5 5 0 0 0 4.9-5 5 5 0 0 0-5-5 5 5 0 0 0-5 5M2600.9 2833.9a5 5 0 0 0 5 5 5 5 0 0 0 5-5 5 5 0 0 0-5-5 5 5 0 0 0-5 5M2600.9 2784.3a5 5 0 0 0 5 5 5 5 0 0 0 5-5 5 5 0 0 0-5-5 5 5 0 0 0-5 5" class="NoteDot"/><path d="M338.7 3397.1c6.4-6.7 19-20.5 19-46 0-32.1-14-64.7-14-84.8A86 86 0 0 1 357 3224v-.7q.1-.6-.4-1-.7-.2-1.4.6c-.4.4-19.8 19.5-19.8 48.5 0 31 12.6 53 12.6 93.6 0 7.8-3.3 20.2-12.3 31.2q-.4.2-.3 1-.3.5.3 1a52 52 0 0 1 12.3 31.1c0 40.7-12.6 62.6-12.6 93.7a74 74 0 0 0 19.8 48.4q.6 1.1 1.4.7t.4-1v-.7a86 86 0 0 1-13.3-42.4c0-20.2 14-52.7 14-84.9a62 62 0 0 0-19-45.9M372.7 1025.1c6.4-6 19-18 19-40.6 0-28.4-14-57.2-14-75 0-19 12.5-36.8 13.3-37.4v-.7q.1-.4-.4-.9-.7-.1-1.4.6c-.4.3-19.8 17.2-19.8 42.8 0 27.5 12.6 46.8 12.6 82.8 0 6.8-3.3 17.8-12.3 27.5q-.4.2-.3 1-.3.4.3.8a43 43 0 0 1 12.3 27.5c0 36-12.6 55.3-12.6 82.8a62 62 0 0 0 19.8 42.8q.6 1 1.4.6t.4-.9v-.6a71 71 0 0 1-13.3-37.5c0-17.8 14-46.6 14-75a52 52 0 0 0-19-40.6M338.7 1827.2c6.4-6.7 19-20.5 19-46.1 0-32.3-14-65-14-85.1 0-21.7 12.5-42 13.3-42.6v-.7q.1-.7-.4-1-.7-.1-1.4.6c-.4.4-19.8 19.5-19.8 48.6 0 31.2 12.6 53.2 12.6 94 0 7.8-3.3 20.2-12.3 31.3-.3 0-.3.6-.3 1q-.3.6.3 1c9 11 12.3 23.5 12.3 31.3 0 40.8-12.6 62.8-12.6 94a74 74 0 0 0 19.8 48.6q.6 1.1 1.4.7t.4-1v-.7c-.8-.8-13.3-21-13.3-42.6 0-20.3 14-52.9 14-85.2a62 62 0 0 0-19-46M338.7 2631.7c6.4-6.2 19-19 19-42.8 0-30-14-60.5-14-79.2 0-20.2 12.5-39 13.3-39.6v-.7q.1-.4-.4-1-.7-.2-1.4.7c-.4.3-19.8 18.1-19.8 45.2 0 29 12.6 49.5 12.6 87.4a47 47 0 0 1-12.3 29c-.3 0-.3.7-.3 1q-.3.5.3 1a47 47 0 0 1 12.3 29c0 38-12.6 58.4-12.6 87.5a67 67 0 0 0 19.8 45.2q.6 1 1.4.6t.4-1v-.6a77 77 0 0 1-13.3-39.6c0-18.8 14-49.2 14-79.2 0-24-12.6-36.6-19-42.9" class="Bracket"/></svg>