<svg xmlns="http://www.w3.org/2000/svg" width="816" height="1056" baseProfile="full" viewBox="0 0 3060 3960"><title>general_29054120_690a831e247a0 (8)</title><desc>Generated by MuseScore Studio 4.6.3</desc><path fill="#fff" fill-rule="evenodd" d="M0 0h3060v3960H0z"/><path fill="none" stroke="#000" stroke-linejoin="bevel" stroke-width="2.7" d="M366.4 386.2h2481M366.4 411h2481M366.4 435.8h2481M366.4 460.6h2481M366.4 485.4h2481M366.4 623.3h2481M366.4 648.1h2481M366.4 672.9h2481M366.4 697.7h2481M366.4 722.5h2481M366.4 847.8h2481M366.4 872.6h2481M366.4 897.4h2481M366.4 922.2h2481M366.4 947h2481M366.4 1260.3h2481M366.4 1285.1h2481M366.4 1309.9h2481M366.4 1334.7h2481M366.4 1359.5h2481M366.4 1497.4h2481M366.4 1522.2h2481M366.4 1547h2481M366.4 1571.8h2481M366.4 1596.6h2481M366.4 1721.9h2481M366.4 1746.7h2481M366.4 1771.5h2481M366.4 1796.3h2481M366.4 1821.1h2481M366.4 2134.4h2481M366.4 2159.2h2481M366.4 2184h2481M366.4 2208.8h2481M366.4 2233.6h2481M366.4 2371.5h2481M366.4 2396.3h2481M366.4 2421.1h2481M366.4 2445.9h2481M366.4 2470.7h2481M366.4 2596h2481M366.4 2620.8h2481M366.4 2645.6h2481M366.4 2670.4h2481M366.4 2695.2h2481M366.4 3008.5h2481M366.4 3033.3h2481M366.4 3058.1h2481M366.4 3082.9h2481M366.4 3107.7h2481M366.4 3250.1h2481M366.4 3274.9h2481M366.4 3299.7h2481M366.4 3324.5h2481M366.4 3349.3h2481M366.4 3474.6h2481M366.4 3499.4h2481M366.4 3524.2h2481M366.4 3549h2481M366.4 3573.8h2481" class="StaffLines"/><path d="M371.8 2945.5c.6-3.5 1.4-5.7 3-8.4q2.8-4.7 6.3-4.7 2 0 2 1.2 0 .3-.3 1-.6 1-.6 1.7.1 2 2.4 2.2 2.6-.1 2.7-3c0-2.7-2.5-4.7-6.1-4.7-9 0-14.3 11.6-14.3 19.3 0 5.9 2.9 9.4 7.8 9.4 6 0 10.4-5 10.4-10.8 0-4.1-2.7-7-6.7-7q-4.2 0-6.6 3.8m5.3-1.4q3.8 0 3.8 4.8c0 5.1-2.7 9-6.2 9q-4-.1-4.1-5.1c0-5 2.8-8.7 6.5-8.7m28 6.5-1 1.9c-1.7 2.8-2 3-4 3h-9.3c1-1.2 2.7-2.7 6-5l6.7-4.7q4.6-3.6 4.5-8c0-4.2-3.1-7-7.7-7-5.1 0-9.6 3.7-9.6 8q.1 3.6 3.1 3.8 2.4-.2 2.6-2.6 0-1.4-1.8-2.4-1.3-.6-1.2-1.2c0-1.7 3-3.6 5.7-3.6s4.7 1.8 4.7 4.6c0 3-1.3 5.2-5 8.4-10.6 9.2-12.2 10.9-12.5 13.1h17.1l3.1-7.7zM371 1195.4q-1.8 1-1.7 2 .1 1.2 1.5 1.3 1.5 0 1.7-2.2 1.9-1.5 4.2-1.4 4.6 0 4.6 5.1c0 5.2-3.4 9.5-7.5 9.5-2.4 0-4.3-1.2-4.3-2.5q0-.3.3-.4c1.2-.6 2.3-1 2.3-2.7q-.1-2.1-2.4-2.3c-1.8 0-3.1 1.5-3.1 3.4 0 3.5 3 6.1 7.3 6.1 6.5 0 11.7-5.2 11.7-11.5 0-4.1-3-7-7.4-7q-2.4 0-5 1.4l2.2-7.6q3.1.7 5.2.7 4.2-.1 6.4-2.3 1-1.2 1-2 0-.4-.2-.5l-.5.2q-2.1 1-4.5 1-3.7 0-8.2-1.2zm32.8.5c3.1-1.5 6-3.1 6-7.1 0-3.7-3-6.2-7.3-6.2-5.2 0-9.2 3.7-9.2 8.5 0 2.5.9 4 3 5.6q-7.1 2.8-7.2 8.3c0 4 3.2 6.3 8.3 6.3 6.2 0 10.6-3.7 10.6-9 0-3.1-1.7-4.8-4.2-6.4m-1.7-1c-4-1.9-5.6-3.4-5.6-5.7 0-2.8 2.5-5 5.7-5 2.7 0 4.7 1.8 4.7 4.3 0 3-2.1 5.4-4.8 6.5m-4.2 2.8c1.9.8 2.5 1.1 3.5 1.8q3 1.9 3 4.5c0 3.1-2.8 5.5-6.5 5.5-3.5 0-5.6-2-5.6-5q.1-4.6 5.6-6.8M371.8 2071.4c.6-3.5 1.4-5.7 3-8.4q2.8-4.7 6.3-4.7 2 0 2 1.2 0 .3-.3 1-.6.9-.6 1.7.1 2 2.4 2.2 2.6-.1 2.7-3c0-2.7-2.5-4.7-6.1-4.7-9 0-14.3 11.6-14.3 19.3 0 5.9 2.9 9.4 7.8 9.4 6 0 10.4-5 10.4-10.8 0-4.1-2.7-7-6.7-7q-4.2 0-6.6 3.8m5.3-1.4q3.8 0 3.8 4.8c0 5-2.7 9-6.2 9-2.6 0-4.1-2-4.1-5.1 0-5 2.8-8.7 6.5-8.7m24.6-13.3c-8.6 0-12.9 11.8-12.9 18.8 0 5.8 3 9.9 7 9.9 6.8 0 13-8.9 13-18.8 0-6-2.9-10-7-10m-.1 1.7q3.1 0 3.2 5.2c0 4-1 9-2.7 13.2-1.9 5-3.8 7.1-6.2 7.1q-3.3-.2-3.4-5.3c0-5.2 1.9-12.2 4.4-16.8q2-3.3 4.7-3.4M371 321.3q-1.8 1-1.7 2 .1 1.3 1.5 1.3 1.5 0 1.7-2.2 1.9-1.4 4.2-1.4 4.6 0 4.6 5.1c0 5.2-3.4 9.5-7.5 9.5-2.4 0-4.3-1.2-4.3-2.5q0-.3.3-.4c1.2-.6 2.3-1 2.3-2.7q-.1-2.1-2.4-2.3c-1.8 0-3.1 1.5-3.1 3.4 0 3.5 3 6 7.3 6 6.5 0 11.7-5 11.7-11.5 0-4-3-6.8-7.4-6.8q-2.4-.1-5 1.3l2.2-7.6q3.1.7 5.2.7 4.2-.1 6.4-2.3 1-1.2 1-2 0-.4-.2-.5l-.5.2q-2.1 1-4.5 1-3.7 0-8.2-1.2zm24 2c.8-3.6 1.6-5.8 3-8.5q2.8-4.8 6.4-4.8 2 0 2 1.3 0 .3-.3 1-.6.8-.5 1.7.2 2 2.3 2.2 2.6-.2 2.8-3c0-2.8-2.6-4.8-6.2-4.8-8.9 0-14.3 11.7-14.3 19.4 0 5.8 3 9.4 7.8 9.4 6 0 10.4-5 10.4-10.8 0-4.1-2.7-7-6.7-7q-4.2 0-6.6 3.8m5.3-1.4q3.8 0 3.9 4.8c0 5-2.7 9-6.3 9-2.6 0-4-2-4-5.1 0-5 2.7-8.7 6.4-8.7" class="MeasureNumber"/><path d="m288.3 445.5-9.2-23.2q-.4-1-.4-1.5-.1-1.4 3.1-1.3h2v-2.3h-15.6v2.3h1c2.3.1 3 .6 3.9 2.8l12.6 31.7h2l11.5-29.6c1.5-3.9 2.6-4.8 5.4-4.9h.5v-2.3h-13.5v2.3h1q3.9.1 4 2.6 0 1.2-.6 2.8zm18.4 2.3a3.1 3.1 0 1 0 0 6.3 3.1 3.1 0 0 0 0-6.3M288.3 2193.8l-9.2-23.2-.4-1.6q-.1-1.3 3.1-1.2h2v-2.4h-15.6v2.4h1c2.3 0 3 .6 3.9 2.8l12.6 31.7h2l11.5-29.7c1.5-3.8 2.6-4.7 5.4-4.8h.5v-2.4h-13.5v2.4h1q3.9.1 4 2.6 0 1.2-.6 2.8zm18.4 2.2a3.1 3.1 0 1 0 3.1 3.1c0-1.7-1.4-3.1-3-3.1M288.3 1319.7l-9.2-23.2q-.4-1.1-.4-1.6-.1-1.3 3.1-1.2h2v-2.4h-15.6v2.4h1c2.3 0 3 .5 3.9 2.8l12.6 31.7h2l11.5-29.7c1.5-3.8 2.6-4.7 5.4-4.8h.5v-2.4h-13.5v2.4h1q3.9.1 4 2.5 0 1.2-.6 2.8zm18.4 2.2a3.1 3.1 0 1 0 0 6.2 3.1 3.1 0 0 0 0-6.2M288.3 3067.9l-9.2-23.2q-.4-1.1-.4-1.6-.1-1.3 3.1-1.2h2v-2.4h-15.6v2.4h1c2.3 0 3 .6 3.9 2.8l12.6 31.7h2l11.5-29.6c1.5-4 2.6-4.8 5.4-5h.5v-2.3h-13.5v2.4h1q3.9.1 4 2.6 0 1.2-.6 2.8zm18.4 2.2a3.1 3.1 0 1 0 0 6.2 3.1 3.1 0 0 0 0-6.2M224 1660.7h5.6c4.5 0 7-.4 9-1.3 3.5-1.7 5.5-5 5.5-8.9 0-8-7-9.9-13.6-9.9H213v2.4h.9c2.9 0 3.8.2 4.2.7.3.4.3.5.3 3v23.9c0 2.5 0 2.6-.3 3-.4.6-1.3.8-4.2.8h-.9v2.3h16.8v-2.3h-1.3c-2.9 0-3.8-.2-4.2-.7-.3-.5-.3-.6-.3-3.1zm0-2.3v-12.8c0-2.3.3-2.5 3-2.5h3.3q7.6-.1 7.6 7.7t-7.8 7.6zm30.8-4.9-8.6.6v2.1h1.8c1.9 0 2.1.4 2.1 2.5v14.3q0 1-.3 1.3-.4.7-3.4.7h-.2v1.8h12.6v-1.8h-.2c-3.3 0-3.8-.3-3.8-2.1v-7.4q0-4 1-5.9c1-2.2 3.2-3.8 5.4-3.8 1.3 0 2.8.7 3.5 1.8q1.1 1.5 1.1 5v10.4q0 1-.3 1.3-.3.7-3.5.7h-.2v1.8h12.7v-1.8h-.2c-3.3 0-3.8-.3-3.8-2.1v-10c0-3.7-.1-4.6-1-6.3a7 7 0 0 0-6.8-3.8q-4.7 0-7.9 4.8zm33.2-.8c-6.2 0-11 5.4-11 12.4s4.9 12.4 10.9 12.4 10.8-5.5 10.8-12.4-4.8-12.4-10.7-12.4m0 2.1q5.3.2 5.4 10.3-.1 10-5.5 10.2-5.5-.1-5.6-10.2t5.7-10.3m18.5 16.4a3.1 3.1 0 1 0 3.1 3.1c0-1.7-1.4-3.1-3-3.1M224 786.6h5.6c4.5 0 7-.4 9-1.3 3.5-1.7 5.5-5 5.5-8.9 0-8-7-9.9-13.6-9.9H213v2.4h.9c2.9 0 3.8.2 4.2.7.3.4.3.5.3 3v23.9c0 2.5 0 2.6-.3 3-.4.6-1.3.8-4.2.8h-.9v2.3h16.8v-2.3h-1.3c-2.9 0-3.8-.2-4.2-.7-.3-.5-.3-.6-.3-3.1zm0-2.3v-12.8c0-2.3.3-2.5 3-2.5h3.3q7.6-.1 7.6 7.7t-7.8 7.6zm30.8-4.9-8.6.6v2.1h1.8c1.9 0 2.1.4 2.1 2.5v14.3q0 1-.3 1.3-.4.7-3.4.7h-.2v1.8h12.6v-1.8h-.2c-3.3 0-3.8-.3-3.8-2.1v-7.4q0-4 1-5.9c1-2.2 3.2-3.8 5.4-3.8 1.3 0 2.8.7 3.5 1.8q1.1 1.5 1.1 5v10.4q0 1-.3 1.3-.3.7-3.5.7h-.2v1.8h12.7v-1.8h-.2c-3.3 0-3.8-.3-3.8-2.1v-10c0-3.7-.1-4.6-1-6.3a7 7 0 0 0-6.8-3.8q-4.7 0-7.9 4.8zm33.2-.8c-6.2 0-11 5.4-11 12.4s4.9 12.4 10.9 12.4 10.8-5.5 10.8-12.4-4.8-12.4-10.7-12.4m0 2.1q5.3.2 5.4 10.3-.1 10-5.5 10.2-5.5-.1-5.6-10.2t5.7-10.3m18.5 16.4a3.1 3.1 0 1 0 0 6.3 3.1 3.1 0 0 0 0-6.3M224 3413.4h5.6c4.5 0 7-.4 9-1.3a10 10 0 0 0 5.5-8.9c0-8-7-9.9-13.6-9.9H213v2.4h.9c2.9 0 3.8.2 4.2.7.3.4.3.5.3 3v23.9c0 2.5 0 2.6-.3 3-.4.6-1.3.8-4.2.8h-.9v2.3h16.8v-2.3h-1.3c-2.9 0-3.8-.2-4.2-.7-.3-.5-.3-.6-.3-3.1zm0-2.3v-12.8c0-2.3.3-2.5 3-2.5h3.3q7.6-.1 7.6 7.7t-7.8 7.6zm30.8-4.9-8.6.6v2.1h1.8c1.9 0 2.1.4 2.1 2.5v14.3q0 1-.3 1.3-.4.7-3.4.7h-.2v1.8h12.6v-1.8h-.2c-3.3 0-3.8-.3-3.8-2.1v-7.4q0-4 1-5.9c1-2.2 3.2-3.8 5.4-3.8 1.3 0 2.8.7 3.5 1.8q1.1 1.4 1.1 5v10.4q0 1-.3 1.3-.3.7-3.5.7h-.2v1.8h12.7v-1.8h-.2c-3.3 0-3.8-.3-3.8-2.1v-10c0-3.7-.1-4.6-1-6.3a7 7 0 0 0-6.8-3.8q-4.7 0-7.9 4.8zm33.2-.8c-6.2 0-11 5.4-11 12.4s4.9 12.4 10.9 12.4 10.8-5.5 10.8-12.4-4.8-12.4-10.7-12.4m0 2.1c3.5 0 5.4 3.7 5.4 10.3q-.1 10-5.5 10.2-5.5-.2-5.6-10.2 0-10.3 5.7-10.3m18.5 16.4a3.1 3.1 0 1 0 0 6.2 3.1 3.1 0 0 0 0-6.2M224 2534.8h5.6c4.5 0 7-.4 9-1.3a10 10 0 0 0 5.5-8.9c0-8-7-9.9-13.6-9.9H213v2.4h.9c2.9 0 3.8.2 4.2.7.3.4.3.5.3 3v23.9c0 2.5 0 2.6-.3 3-.4.6-1.3.8-4.2.8h-.9v2.3h16.8v-2.3h-1.3c-2.9 0-3.8-.2-4.2-.7-.3-.5-.3-.6-.3-3.1zm0-2.3v-12.8c0-2.3.3-2.5 3-2.5h3.3q7.6-.1 7.6 7.7t-7.8 7.6zm30.8-4.9-8.6.6v2.1h1.8c1.9 0 2.1.4 2.1 2.5v14.3q0 1-.3 1.3-.4.7-3.4.7h-.2v1.8h12.6v-1.8h-.2c-3.3 0-3.8-.3-3.8-2.1v-7.4q0-4 1-5.9c1-2.2 3.2-3.8 5.4-3.8 1.3 0 2.8.7 3.5 1.8q1.1 1.4 1.1 5v10.4q0 1-.3 1.3-.3.7-3.5.7h-.2v1.8h12.7v-1.8h-.2c-3.3 0-3.8-.3-3.8-2.1v-10c0-3.7-.1-4.6-1-6.3a7 7 0 0 0-6.8-3.8q-4.7 0-7.9 4.8zm33.2-.8c-6.2 0-11 5.4-11 12.4s4.9 12.4 10.9 12.4 10.8-5.5 10.8-12.4-4.8-12.4-10.7-12.4m0 2.1c3.5 0 5.4 3.7 5.4 10.3q-.1 10-5.5 10.2-5.5-.2-5.6-10.2 0-10.2 5.7-10.3m18.5 16.4a3.1 3.1 0 1 0 0 6.2 3.1 3.1 0 0 0 0-6.2" class="InstrumentName"/><path fill="none" stroke="#000" stroke-linejoin="bevel" stroke-width="4.5" d="M2845.2 2133.1V2235M2845.2 384.8v102M2845.2 1258.9v102M1640.6 384.8v102M368.7 2133.1v238.4M2845.2 3007.2v101.9M1640.6 2133.1V2235M1489.7 1258.9v102M368.7 384.8v238.5M368.7 3007.2v242.9M1611 3007.2v101.9M368.7 1258.9v238.5M2845.2 3248.7v225.9M1640.6 2370.1V2596M368.7 1496v225.9M368.7 2370.1V2596M368.7 621.9v225.9M1611 3248.7v225.9M1640.6 621.9v225.9M2845.2 2370.1V2596M2845.2 621.9v225.9M368.7 3248.7v225.9M1489.7 1496v225.9M2845.2 1496v225.9M2845.2 3473.2v102M2845.2 846.4v102M1640.6 2594.6v102M368.7 1720.5v102M1489.7 1720.5v102M368.7 2594.6v102M368.7 846.4v102M2845.2 1720.5v102M1640.6 846.4v102M368.7 3473.2v102M1611 3473.2v102M2845.2 2594.6v102" class="BarLine"/><path fill-rule="evenodd" stroke="#000" stroke-linecap="round" stroke-linejoin="round" stroke-width="1.2" d="M961.4 2218.7c34.9 32 111.9 42.3 154 20.6-43.2 29.6-120.2 19.3-154-20.6M756.3 1254.6c261.9-110.8 1547-95.7 1814 21.5-267-109.2-1552.1-124.4-1814-21.5M2078.5 3027.6c42.3-31.4 120.3-24.2 156.1 14.4-36.5-30.7-114.6-37.9-156.1-14.4M732.4 3117.1c145.2 69.4 814.3 52.4 955.8-24.3-141.3 84.6-810.4 101.6-955.8 24.3M1857.8 466.3c37.8 28 114.8 30.1 154 4.2-39.4 33.8-116.4 31.7-154-4.2M961.4 470.5c34.9 32 111.9 42.3 154 20.6-43.2 29.6-120.2 19.3-154-20.6M1857.8 2214.5c37.8 28 114.8 30.1 154 4.2-39.4 33.8-116.4 31.7-154-4.2" class="SlurSegment"/><path fill-rule="evenodd" stroke="#000" stroke-linecap="round" stroke-linejoin="round" stroke-width="1.2" d="M2167.5 478.7c29.8 20.1 119.3 20.1 149 0-29.7 28-119.2 28-149 0M2706.6 2214.5c26 12 104.1 12 130.1 0-26 19.8-104 19.8-130 0M523 3088.6c10 12 40 12 50 0-10 18-40 18-50 0M2167.5 2227c29.8 20 119.3 20 149 0-29.7 28-119.2 28-149 0M1990.6 1352.8c35 21.8 140 21.8 175 0-35 29.7-140 29.7-175 0M1105.5 1291.7c86.6-35.8 346.4-35.8 433 0-86.6-27.8-346.4-27.8-433 0M760.7 1291.7c67-34.8 267.9-34.8 334.8 0-67-26.9-267.8-26.9-334.8 0M2704.5 3088.6c26.5 12.1 105.8 12.1 132.2 0-26.4 20-105.7 20-132.2 0M523 1340.4c10 12 40 12 50 0-10 18-40 18-50 0M1504.9 2153.5c39.7-39 158.7-39 198.4 0-39.7-31-158.7-31-198.4 0M734 3101c65.6 29.5 262.5 29.5 328.1 0-65.6 37.4-262.5 37.4-328.1 0M2706.6 466.3c26 11.9 104.1 11.9 130.1 0-26 19.8-104 19.8-130 0M1504.9 405.3c39.7-39 158.7-39 198.4 0-39.7-31-158.7-31-198.4 0" class="TieSegment"/><path d="M778 2180c0 7.9-4.1 12-9.9 16.6l.3-19.3c.2-1 1.7-3.8 5.7-3.8 3.6 0 3.9 3.4 3.9 5.5zm-1.2-11.4c-5 0-7.9 3.1-8.4 3.7l.4-31.8q0-1.3-1.4-1.4h-1.1q-1.3.1-1.4 1.4l.5 59.6q.1 1.3 1.4 1.4l.8-.2c8.5-4.3 17.4-12.4 17.4-22.7 0-5.1-2.4-10-8.2-10M2049.1 3054.2c0 7.8-4 12-9.8 16.5l.3-19.3c.2-1 1.7-3.8 5.7-3.8 3.6 0 3.8 3.4 3.8 5.5zm-1.1-11.4c-5 0-7.9 3.1-8.4 3.7l.4-31.8q-.1-1.3-1.4-1.4h-1.2q-1.3.1-1.4 1.4l.5 59.6q.1 1.3 1.4 1.4l.8-.2c8.6-4.3 17.5-12.4 17.5-22.6 0-5.2-2.4-10-8.2-10M1828.5 2180c0 7.9-4 12-9.8 16.6l.3-19.3c.2-1 1.6-3.8 5.6-3.8 3.6 0 3.9 3.4 3.9 5.5zm-1.2-11.4c-5 0-7.8 3.1-8.3 3.7l.4-31.8q-.1-1.3-1.4-1.4h-1.2q-1.3.1-1.4 1.4l.5 59.6q.1 1.3 1.4 1.4l.8-.2c8.5-4.3 17.4-12.4 17.4-22.7 0-5.1-2.3-10-8.2-10M1491.5 3054.2c0 7.8-4.1 12-9.9 16.5l.3-19.3c.2-1 1.7-3.8 5.7-3.8 3.6 0 3.9 3.4 3.9 5.5zm-1.2-11.4c-5 0-7.9 3.1-8.4 3.7l.4-31.8q-.1-1.3-1.4-1.4h-1.1q-1.3.1-1.4 1.4l.5 59.6q.1 1.3 1.4 1.4l.8-.2c8.5-4.3 17.4-12.4 17.4-22.6 0-5.2-2.4-10-8.2-10M1828.5 431.8c0 7.9-4 12-9.8 16.6l.3-19.3c.2-1 1.6-3.8 5.6-3.8 3.6 0 3.9 3.4 3.9 5.4zm-1.2-11.4c-5 0-7.8 3-8.3 3.7l.4-31.9q-.1-1.2-1.4-1.3h-1.2q-1.3.1-1.4 1.3l.5 59.7q.1 1.3 1.4 1.4l.8-.2c8.5-4.3 17.4-12.4 17.4-22.7 0-5.1-2.3-10-8.2-10M778 431.8c0 7.9-4.1 12-9.9 16.6l.3-19.3c.2-1 1.7-3.8 5.7-3.8 3.6 0 3.9 3.4 3.9 5.4zm-1.2-11.4c-5 0-7.9 3-8.4 3.7l.4-31.9q0-1.2-1.4-1.3h-1.1q-1.3.1-1.4 1.3l.5 59.7q.1 1.3 1.4 1.4l.8-.2c8.5-4.3 17.4-12.4 17.4-22.7 0-5.1-2.4-10-8.2-10M1672 718.5c0 7.8-4 12-9.8 16.6l.3-19.4c.2-.9 1.7-3.8 5.7-3.8 3.6 0 3.9 3.4 3.9 5.5zm-1.2-11.3c-5 0-7.9 3-8.4 3.7l.4-31.9q-.1-1.3-1.4-1.4h-1.1q-1.3.1-1.4 1.4l.5 59.6q.1 1.3 1.4 1.4.3 0 .8-.2c8.5-4.3 17.4-12.4 17.4-22.6 0-5.2-2.4-10-8.2-10M1642.5 3382.5c0 7.8-4.1 12-9.9 16.6l.3-19.4c.2-.9 1.7-3.7 5.7-3.7 3.6 0 3.9 3.3 3.9 5.4zm-1.2-11.4c-5 0-7.9 3-8.4 3.7l.4-31.9q-.1-1.3-1.4-1.4h-1.1q-1.4.1-1.4 1.4l.5 59.6q0 1.3 1.4 1.4.3 0 .7-.2c8.6-4.2 17.5-12.4 17.5-22.6 0-5.1-2.4-10-8.2-10M1658.9 3345.3c0 7.8-4.1 12-9.8 16.6l.2-19.4c.2-.9 1.7-3.7 5.7-3.7 3.6 0 3.9 3.3 3.9 5.4zm-1.2-11.4c-5 0-7.9 3-8.4 3.7l.4-31.9q0-1.3-1.3-1.4h-1.2q-1.3.1-1.4 1.4l.5 59.6q.1 1.3 1.4 1.4.4 0 .8-.2c8.5-4.2 17.4-12.4 17.4-22.6 0-5.1-2.4-10-8.2-10M1263.2 3346.5v-16.3l11.5-3.3v16.4zm13.7-27.8-.8-.3-.4.1-12.5 3.5v-17.4h-2.8v49.1q.1 1.3 1.4 1.3h.4l12.5-3.5v17.4h2.6v-49.1q0-.7-.4-1M1672 2466.7c0 7.8-4 12-9.8 16.6l.3-19.4c.2-.9 1.7-3.7 5.7-3.7 3.6 0 3.9 3.3 3.9 5.4zm-1.2-11.4c-5 0-7.9 3-8.4 3.7l.4-31.9q-.1-1.3-1.4-1.4h-1.1q-1.3.1-1.4 1.4l.5 59.6q.1 1.3 1.4 1.4.3 0 .8-.2c8.5-4.2 17.4-12.4 17.4-22.6 0-5.1-2.4-10-8.2-10M1650 3594.6c0 7.9-4 12-9.8 16.6l.3-19.3c.2-1 1.7-3.8 5.7-3.8 3.5 0 3.8 3.4 3.8 5.4zm-1.2-11.4c-5 0-7.8 3-8.3 3.7l.4-31.9q-.1-1.2-1.4-1.3h-1.2q-1.3.1-1.4 1.3l.5 59.7q.1 1.3 1.4 1.4l.8-.2c8.5-4.3 17.5-12.4 17.5-22.7 0-5.1-2.4-10-8.3-10" class="Accidental"/><path fill="none" stroke="#000" stroke-linejoin="bevel" stroke-width="4" d="M2210.3 3398.9h48.6M1663.9 3374.1h48.6M2522.5 3374.1h48.6M549.6 2495.5H603M549.6 747.3H603M1898.1 3374.1h48.6M1514.7 1621.4h48.6M1514.7 1646.2h48.6M1898.1 3398.9h48.6M1663.9 3398.9h48.6M2144.7 1621.4h48.6M2144.7 1646.2h48.6M807 3374.1h48.6M1677.1 2495.5h53.4M552 3374.1h48.6M1677.1 747.3h53.4M549.6 1621.4H603M2210.3 3374.1h48.6M549.6 1646.2H603M1661.5 3598.6h53.4" class="LedgerLine"/><path fill="none" stroke="#000" stroke-linejoin="bevel" stroke-width="2.5" d="M2488.9 444.2v-76.6M2180.8 456.6v-82.9M2719.9 2192.4V2116M1485.6 2175.8v76.3M2717.8 3066.6v-76.5M2334.8 456.6V374M2488.9 2192.4v-76.6M2719.9 444.2v-76.4M1485.6 427.6v76.3M2063.6 3062.3v76.3M2573.9 1367.9v-76.7M2026.8 444.2v-76.6M1718.7 419.4v-64.2M2334.8 2204.8v-82.6M1431.6 3066.6v-76.7M1872.7 431.8v-70.4M1718.7 2167.6v-64.1M1284.3 2204.8V2122M1130.3 2204.8v-82.6M2180.8 2204.8V2122M976.2 2192.4V2122M2026.8 2192.4v-76.6M1872.7 2180v-70.4M822.2 2180v-64.1M1080.4 3079v-82.9M741.4 1314.1v70.2M1083.7 1314.1v70.2M591.2 3066.6v-76.5M2405.6 3079v-70.5M747.3 3079v-82.9M1524.2 1314.1v70.2M822.2 431.8v-64.2M1284.3 456.6v-82.8M1703.1 3066.6v-76.7M2249.5 3066.6v-64.2M1823.9 1318.3v-64.1M2003.9 1330.7v-70.4M976.2 444.2v-70.5M2183.9 1330.7v-82.8M591.2 1318.3v-76.4M1130.3 456.6V374M1535.7 3054.2v-70.4M2453.9 1355.5v-70.3M2561.7 3382.5v-82.8M1553.9 1654.6v-132.4M1314.6 3332.9v-82.8M1080.4 3357.7v-82.8M1937.3 3407.3v-107.6M846.2 3382.5v-82.8M1703.1 3407.3v-144.8M2249.5 3394.9v-95.2M591.2 3382.5v-144.8M2183.9 1654.6v-132.4M2453.9 1817.1v-82.8M1553.9 1817.1v-82.8" class="Stem"/><path d="M1129 2144.5q-.1.6.8 1.1a40 40 0 0 1 19.3 17.8c1.8 3 4.6 7.3 4.6 15.6a65 65 0 0 1-4.4 21.6q-.4.8-.3 1.5 0 1 1 1t1.6-1.1c4.4-8 6.1-17.2 6.1-26.2-.5-12.8-7.8-22.2-7.8-22.2.3 0-9.2-12.2-11.8-16.4-3.7-5.7-5.4-11.3-5.6-11.7l-1-3.9q-.1-.7-1.2-.8-1.2.1-1.3 1.3zM590 3012.4q-.2.6.7 1.1a40 40 0 0 1 19.3 17.8c1.7 3 4.6 7.3 4.6 15.6a65 65 0 0 1-4.4 21.6q-.4.8-.3 1.5 0 1 1 1t1.5-1.1c4.5-8 6.2-17.2 6.2-26.2-.5-12.8-7.8-22.2-7.8-22.2.2 0-9.2-12.2-11.9-16.4-3.6-5.7-5.3-11.3-5.5-11.7l-1-3.9q-.2-.7-1.2-.8-1.2.1-1.3 1.3zM1484.4 504q0 1 1.2 1.2.9-.1 1.2-.8l1-3.9c.1-.4 1-4.1 4.6-10 3.9-6.4 9.8-11.1 14.8-18 4.8-7 7.8-13.5 7.8-22.3 0-9-2-16.5-7.3-26.2q-.6-1-1.5-1h-.5q-.7.3-.7 1.2l.3 1.2c4 9.3 5.5 14.5 5.5 21.7 0 8.2-2.8 12.5-4.6 15.5a42 42 0 0 1-21 17.8q-1 .6-.8 1zM2333.6 396.3c0 .3 0 .8.8 1.1a40 40 0 0 1 19.2 17.8c1.8 3 4.7 7.3 4.7 15.5a65 65 0 0 1-4.5 21.7q-.4.8-.3 1.5 0 1 1 1t1.6-1.1c4.5-8 6.2-17.2 6.2-26.2a42 42 0 0 0-7.9-22.3c.3 0-9.1-12.2-11.8-16.3-3.7-5.7-5.3-11.3-5.5-11.7l-1-3.9q-.2-.7-1.2-.8-1.2.1-1.3 1.3zM590 1264.2q-.2.6.7 1.1a40 40 0 0 1 19.3 17.8c1.7 3 4.6 7.3 4.6 15.5a65 65 0 0 1-4.4 21.7q-.4.8-.3 1.5 0 1 1 1t1.5-1.1c4.5-8 6.2-17.2 6.2-26.2a42 42 0 0 0-7.8-22.3c.2 0-9.2-12.2-11.9-16.3-3.6-5.7-5.3-11.3-5.5-11.7l-1-3.9q-.2-.7-1.2-.8-1.2.1-1.3 1.3zM1129 396.3q-.1.6.8 1.1a40 40 0 0 1 19.3 17.8c1.8 3 4.6 7.3 4.6 15.5a65 65 0 0 1-4.4 21.7q-.4.8-.3 1.5 0 1 1 1t1.6-1.1c4.4-8 6.1-17.2 6.1-26.2-.5-12.8-7.8-22.3-7.8-22.3.3 0-9.2-12.2-11.8-16.3-3.7-5.7-5.4-11.3-5.6-11.7l-1-3.9q-.1-.7-1.2-.8-1.2.1-1.3 1.3zM2333.6 2144.5c0 .3 0 .8.8 1.1a40 40 0 0 1 19.2 17.8c1.8 3 4.7 7.3 4.7 15.6a65 65 0 0 1-4.5 21.6q-.4.8-.3 1.5 0 1 1 1t1.6-1.1c4.5-8 6.2-17.2 6.2-26.2-.5-12.8-7.9-22.2-7.9-22.2.3 0-9.1-12.2-11.8-16.4-3.7-5.7-5.3-11.3-5.5-11.7l-1-3.9q-.2-.7-1.2-.8-1.2.1-1.3 1.3zM2718.7 390.1c0 .3 0 .8.8 1.1a40 40 0 0 1 19.2 17.8c1.8 3 4.7 7.3 4.7 15.5a65 65 0 0 1-4.5 21.7q-.4.8-.3 1.5 0 1 1 1t1.6-1.1c4.5-8 6.1-17.2 6.1-26.2a42 42 0 0 0-7.8-22.3c.3 0-9.1-12.2-11.8-16.3-3.7-5.7-5.4-11.3-5.6-11.7l-1-3.9q-.1-.7-1.1-.8-1.2.1-1.3 1.3zM2062.4 3138.6q.1 1.2 1.3 1.3.8-.1 1.2-.8l1-3.9c0-.4 1-4.1 4.5-10 3.9-6.4 9.8-11 14.8-18s7.8-13.5 7.8-22.2c0-9-2-16.6-7.3-26.2q-.5-1-1.5-1.1h-.5q-.7.4-.7 1.3l.3 1.2c4 9.2 5.6 14.4 5.6 21.6 0 8.2-2.9 12.5-4.7 15.6a42 42 0 0 1-21 17.7q-1 .6-.8 1.1zM2716.6 3012.4c0 .3 0 .8.8 1.1a40 40 0 0 1 19.2 17.8c1.8 3 4.7 7.3 4.7 15.6a65 65 0 0 1-4.5 21.6q-.4.8-.3 1.5 0 1 1 1t1.6-1.1c4.5-8 6.2-17.2 6.2-26.2-.5-12.8-7.9-22.2-7.9-22.2.3 0-9.1-12.2-11.8-16.4-3.6-5.7-5.3-11.3-5.5-11.7l-1-3.9q-.2-.7-1.2-.8-1.2.1-1.3 1.3zM2718.7 2138.3c0 .3 0 .8.8 1.1a40 40 0 0 1 19.2 17.8c1.8 3 4.7 7.3 4.7 15.6a65 65 0 0 1-4.5 21.6q-.4.8-.3 1.5 0 1 1 1t1.6-1.1c4.5-8 6.1-17.2 6.1-26.2-.5-12.8-7.8-22.2-7.8-22.2.3 0-9.1-12.2-11.8-16.4-3.7-5.7-5.4-11.3-5.6-11.7l-1-3.9q-.1-.7-1.1-.8-1.2.1-1.3 1.3zM1484.4 2252.1q0 1.2 1.2 1.3.9-.1 1.2-.8l1-3.9c.1-.4 1-4.1 4.6-10 3.9-6.4 9.8-11 14.8-18 4.8-7 7.8-13.5 7.8-22.3 0-9-2-16.5-7.3-26.2q-.6-1-1.5-1h-.5q-.7.4-.7 1.2l.3 1.2c4 9.3 5.5 14.5 5.5 21.7 0 8.2-2.8 12.5-4.6 15.5a42 42 0 0 1-21 17.8q-1 .6-.8 1z" class="Hook"/><path d="M1687.7 2175.8c0 4.2 3 9 11.1 9 10.3 0 21.1-8.4 21.1-17.2 0-5.8-5-9-11-9-9.7 0-21.2 8-21.2 17.2M716.3 3087c0 4.4 3 9.1 11 9.1 10.4 0 21.2-8.4 21.2-17.1 0-6-5-9.2-11.1-9.2-9.6 0-21.1 8.2-21.1 17.3M2149.8 2213c0 4.2 3 9 11.1 9 10.3 0 21.1-8.4 21.1-17.2 0-5.8-5-9-11-9-9.7 0-21.2 8-21.2 17.2M1687.7 427.6c0 4.2 3 9 11.1 9 10.3 0 21.1-8.4 21.1-17.2 0-5.8-5-9.1-11-9.1-9.7 0-21.2 8.1-21.2 17.3M560.2 3074.7c0 4.3 3 9 11 9 10.4 0 21.2-8.4 21.2-17.1 0-6-5-9.2-11.1-9.2-9.6 0-21.1 8.2-21.1 17.3M1841.7 2188.2c0 4.2 3.1 9 11.1 9 10.4 0 21.2-8.4 21.2-17.2 0-5.8-5-9-11.1-9-9.7 0-21.2 8-21.2 17.2M1995.8 2200.6c0 4.2 3 9 11 9 10.4 0 21.2-8.4 21.2-17.2 0-5.8-5-9-11.1-9-9.6 0-21.1 8-21.1 17.2M791.2 440c0 4.2 3 9 11.1 9 10.3 0 21.1-8.4 21.1-17.2 0-5.8-5-9.1-11-9.1-9.7 0-21.2 8.1-21.2 17.3M2303.8 2213c0 4.2 3 9 11.1 9 10.3 0 21.2-8.4 21.2-17.2 0-5.8-5-9-11.2-9-9.6 0-21 8-21 17.2M2457.9 2200.6c0 4.2 3 9 11 9 10.4 0 21.2-8.4 21.2-17.2 0-5.8-5-9-11.1-9-9.6 0-21.1 8-21.1 17.2M1672.1 3074.7c0 4.3 3 9 11.1 9 10.3 0 21.2-8.4 21.2-17.1 0-6-5-9.2-11.2-9.2-9.6 0-21 8.2-21 17.3M2689 2200.6c0 4.2 3 9 11 9 10.3 0 21.2-8.4 21.2-17.2 0-5.8-5-9-11.2-9-9.6 0-21 8-21 17.2M945.2 452.4c0 4.2 3.1 9 11.2 9 10.3 0 21-8.4 21-17.2 0-5.8-4.9-9.1-11-9.1-9.7 0-21.2 8.1-21.2 17.3M1484.4 427.6c0 4.2 3 9 11 9 10.4 0 21.2-8.4 21.2-17.2 0-5.8-5-9.1-11.1-9.1-9.6 0-21.1 8.1-21.1 17.3M1099.3 464.8c0 4.2 3 9 11 9 10.4 0 21.2-8.4 21.2-17.2 0-5.8-5-9.1-11.1-9.1-9.6 0-21.1 8.1-21.1 17.3M1049.4 3087c0 4.4 3 9.1 11 9.1 10.4 0 21.2-8.4 21.2-17.1 0-6-5-9.2-11-9.2-9.7 0-21.2 8.2-21.2 17.3M1253.3 464.8c0 4.2 3 9 11.1 9 10.3 0 21.2-8.4 21.2-17.2 0-5.8-5-9.1-11.2-9.1-9.6 0-21 8.1-21 17.3M2457.9 452.4c0 4.2 3 9 11 9 10.4 0 21.2-8.4 21.2-17.2 0-5.8-5-9.1-11.1-9.1-9.6 0-21.1 8.1-21.1 17.3M1089.9 1318.4c-3.3 0-4-2.6-4-3.5 0-5 16.7-13.4 21.3-13.4q3.8.2 4 3.5c0 5-16.8 13.4-21.3 13.4m13.7-21.6c-9.7 0-21.2 8-21.2 17.3 0 4.2 3.1 9 11.2 9 10.3 0 21-8.4 21-17.2 0-5.8-4.9-9.1-11-9.1M2374.6 3087c0 4.4 3 9.1 11.1 9.1 10.3 0 21.2-8.4 21.2-17.1 0-6-5-9.2-11.2-9.2-9.6 0-21 8.2-21 17.3M1523 1314c0 4.3 3 9 11 9 10.3 0 21.2-8.3 21.2-17 0-6-5-9.2-11.2-9.2-9.6 0-21 8.1-21 17.3M1841.7 440c0 4.2 3.1 9 11.1 9 10.4 0 21.2-8.4 21.2-17.2 0-5.8-5-9.1-11.1-9.1-9.7 0-21.2 8.1-21.2 17.3M2686.8 3074.7c0 4.3 3.1 9 11.1 9 10.4 0 21.2-8.4 21.2-17.1 0-6-5-9.2-11.1-9.2-9.7 0-21.2 8.2-21.2 17.3M1995.8 452.4c0 4.2 3 9 11 9 10.4 0 21.2-8.4 21.2-17.2 0-5.8-5-9.1-11.1-9.1-9.6 0-21.1 8.1-21.1 17.3M2149.8 464.8c0 4.2 3 9 11.1 9 10.3 0 21.1-8.4 21.1-17.2 0-5.8-5-9.1-11-9.1-9.7 0-21.2 8.1-21.2 17.3M2303.8 464.8c0 4.2 3 9 11.1 9 10.3 0 21.2-8.4 21.2-17.2 0-5.8-5-9.1-11.2-9.1-9.6 0-21 8.1-21 17.3M1400.6 3074.7c0 4.3 3.1 9 11.1 9 10.4 0 21.2-8.4 21.2-17.1 0-6-5-9.2-11.1-9.2-9.7 0-21.2 8.2-21.2 17.3M2689 452.4c0 4.2 3 9 11 9 10.3 0 21.2-8.4 21.2-17.2 0-5.8-5-9.1-11.2-9.1-9.6 0-21 8.1-21 17.3M2543 1376c0 4.3 3 9.1 11 9.1 10.4 0 21.2-8.4 21.2-17.2 0-5.8-5-9-11.1-9-9.7 0-21.2 8-21.2 17.2M2062.4 3062.3c0 4.3 3 9 11.1 9 10.3 0 21.1-8.4 21.1-17.1 0-6-5-9.2-11-9.2-9.7 0-21.2 8.2-21.2 17.3M2423 1363.7c0 4.2 3 9 11 9 10.4 0 21.2-8.4 21.2-17.2 0-5.8-5-9-11.1-9-9.7 0-21.2 8-21.2 17.2M1793 1326.5c0 4.2 3 9 11 9 10.3 0 21.2-8.4 21.2-17.2 0-5.8-5-9.1-11.2-9.1-9.6 0-21 8.1-21 17.3M1973 1338.9c0 4.2 3 9 11 9 10.3 0 21.2-8.4 21.2-17.2 0-5.8-5-9.1-11.2-9.1-9.6 0-21 8.1-21 17.3M2153 1338.9c0 4.2 3 9 11 9 10.4 0 21.2-8.4 21.2-17.2 0-5.8-5-9.1-11.1-9.1-9.7 0-21.2 8.1-21.2 17.3M791.2 2188.2c0 4.2 3 9 11.1 9 10.3 0 21.1-8.4 21.1-17.2 0-5.8-5-9-11-9-9.7 0-21.2 8-21.2 17.2M1504.7 3062.3c0 4.3 3 9 11.1 9 10.3 0 21.2-8.4 21.2-17.1 0-6-5-9.2-11.2-9.2-9.6 0-21 8.2-21 17.3M2218.5 3074.7c0 4.3 3 9 11.1 9 10.3 0 21.1-8.4 21.1-17.1 0-6-5-9.2-11-9.2-9.7 0-21.2 8.2-21.2 17.3M560.2 1326.5c0 4.2 3 9 11 9 10.4 0 21.2-8.4 21.2-17.2 0-5.8-5-9.1-11.1-9.1-9.6 0-21.1 8.1-21.1 17.3M740.2 1314c0 4.3 3 9 11 9 10.4 0 21.2-8.3 21.2-17 0-6-5-9.2-11.1-9.2-9.6 0-21.1 8.1-21.1 17.3M1484.4 2175.8c0 4.2 3 9 11 9 10.4 0 21.2-8.4 21.2-17.2 0-5.8-5-9-11.1-9-9.6 0-21.1 8-21.1 17.2M1253.3 2213c0 4.2 3 9 11.1 9 10.3 0 21.2-8.4 21.2-17.2 0-5.8-5-9-11.2-9-9.6 0-21 8-21 17.2M1099.3 2213c0 4.2 3 9 11 9 10.4 0 21.2-8.4 21.2-17.2 0-5.8-5-9-11.1-9-9.6 0-21.1 8-21.1 17.2M945.2 2200.6c0 4.2 3.1 9 11.2 9 10.3 0 21-8.4 21-17.2 0-5.8-4.9-9-11-9-9.7 0-21.2 8-21.2 17.2M815.2 3390.6c0 4.3 3 9 11.1 9 10.3 0 21.2-8.4 21.2-17.1 0-5.9-5-9.1-11.2-9.1-9.6 0-21 8.1-21 17.2M2530.7 3390.6c0 4.3 3 9 11.1 9 10.3 0 21.2-8.4 21.2-17.1 0-5.9-5-9.1-11.2-9.1-9.6 0-21 8.1-21 17.2M1560.1 1617.5c-3.3 0-4-2.7-4-3.6 0-4.8 16.7-13.4 21.4-13.4q3.8.2 4 3.6c0 5-16.8 13.4-21.4 13.4m13.7-21.6c-9.6 0-21.1 8-21.1 17.2 0 4.3 3 9 11 9 10.4 0 21.2-8.4 21.2-17.1 0-5.9-5-9.1-11.1-9.1M577.1 1668.7c-2.8 0-4.6-.8-6-3.3-1.2-2.5-3-8.8-3.1-11.5q-.4-4 3.2-5a14 14 0 0 1 4.2-.7c2.8 0 4.6.7 6 3.3 1.4 2.7 3.2 9 3.2 11.5 0 4.9-3.4 5.7-7.5 5.7m-.8-23.6c-13.7 0-18.5 7-18.5 13.4s4.8 13.4 18.5 13.4 18.5-7 18.5-13.4-4.8-13.4-18.5-13.4" class="Note"/><path d="M577.1 1643.9c-2.8 0-4.6-.8-6-3.3-1.2-2.5-3-8.8-3.1-11.5q-.4-4 3.2-5a14 14 0 0 1 4.2-.7c2.8 0 4.6.7 6 3.3 1.4 2.7 3.2 9 3.2 11.5 0 4.9-3.4 5.7-7.5 5.7m-.8-23.6c-13.7 0-18.5 7-18.5 13.4s4.8 13.4 18.5 13.4 18.5-7 18.5-13.4-4.8-13.4-18.5-13.4" class="Note"/><path d="M577.1 1619c-2.8 0-4.6-.7-6-3.2-1.2-2.5-3-8.8-3.1-11.5q-.4-4 3.2-5a14 14 0 0 1 4.2-.7c2.8 0 4.6.7 6 3.3 1.4 2.7 3.2 9 3.2 11.5 0 4.9-3.4 5.7-7.5 5.7m-.8-23.6c-13.7 0-18.5 7-18.5 13.4s4.8 13.4 18.5 13.4 18.5-7 18.5-13.4-4.8-13.4-18.5-13.4M1530.4 1629.9c-3.3 0-4-2.7-4-3.6 0-4.8 16.6-13.4 21.3-13.4q3.8.2 4 3.6c0 5-16.8 13.4-21.3 13.4m13.6-21.6c-9.6 0-21 8-21 17.2 0 4.3 3 9 11 9 10.3 0 21.2-8.4 21.2-17.1 0-5.9-5-9.1-11.2-9.1M560.2 3328.6c0 4.3 3 9 11 9 10.4 0 21.2-8.4 21.2-17.1 0-5.9-5-9.1-11.1-9.1-9.6 0-21.1 8.1-21.1 17.2M1530.4 1667.1c-3.3 0-4-2.7-4-3.6 0-4.8 16.6-13.4 21.3-13.4q3.8.2 4 3.6c0 5-16.8 13.4-21.3 13.4m13.6-21.6c-9.6 0-21 8-21 17.2 0 4.3 3 9 11 9 10.3 0 21.2-8.4 21.2-17.1 0-5.9-5-9.1-11.2-9.1M560.2 3365.8c0 4.3 3 9 11 9 10.4 0 21.2-8.4 21.2-17.1 0-5.9-5-9.1-11.1-9.1-9.6 0-21.1 8.1-21.1 17.2" class="Note"/><path d="M560.2 3390.6c0 4.3 3 9 11 9 10.4 0 21.2-8.4 21.2-17.1 0-5.9-5-9.1-11.1-9.1-9.6 0-21.1 8.1-21.1 17.2M577.1 707.8c-2.8 0-4.6-.8-6-3.3-1.2-2.5-3-8.8-3.1-11.5q-.4-4 3.2-5a14 14 0 0 1 4.2-.7c2.8 0 4.6.6 6 3.3s3.2 9 3.2 11.5c0 4.9-3.4 5.7-7.5 5.7m-.8-23.6c-13.7 0-18.5 7-18.5 13.4s4.8 13.4 18.5 13.4 18.5-7 18.5-13.4-4.8-13.4-18.5-13.4" class="Note"/><path d="M577.1 732.6c-2.8 0-4.6-.8-6-3.3-1.2-2.5-3-8.8-3.1-11.5q-.4-4 3.2-5a14 14 0 0 1 4.2-.7c2.8 0 4.6.6 6 3.3s3.2 9 3.2 11.5c0 4.9-3.4 5.7-7.5 5.7m-.8-23.6c-13.7 0-18.5 7-18.5 13.4s4.8 13.4 18.5 13.4 18.5-7 18.5-13.4S590 709 576.3 709" class="Note"/><path d="M577.1 757.4c-2.8 0-4.6-.8-6-3.3-1.2-2.5-3-8.8-3.1-11.5q-.4-4 3.2-5a14 14 0 0 1 4.2-.7c2.8 0 4.6.6 6 3.3s3.2 9 3.2 11.5c0 4.9-3.4 5.7-7.5 5.7m-.8-23.6c-13.7 0-18.5 7-18.5 13.4s4.8 13.4 18.5 13.4 18.5-7 18.5-13.4-4.8-13.4-18.5-13.4M1704.7 732.6c-2.8 0-4.7-.8-6-3.3s-3-8.8-3.2-11.5q-.4-4 3.2-5a14 14 0 0 1 4.3-.7c2.7 0 4.5.6 6 3.3 1.3 2.7 3 9 3 11.5 0 4.9-3.3 5.7-7.3 5.7m-.8-23.6c-13.7 0-18.6 7-18.6 13.4s4.9 13.4 18.6 13.4 18.4-7 18.4-13.4-4.7-13.4-18.4-13.4M1283.6 3341c0 4.3 3 9 11 9 10.4 0 21.2-8.4 21.2-17.1 0-5.9-5-9.1-11.1-9.1-9.6 0-21.2 8.1-21.2 17.2M2218.5 3403c0 4.3 3 9 11.1 9 10.3 0 21.1-8.4 21.1-17.1 0-5.9-5-9.1-11-9.1-9.7 0-21.2 8.1-21.2 17.2M1049.4 3365.8c0 4.3 3 9 11 9 10.4 0 21.2-8.4 21.2-17.1 0-5.9-5-9.1-11-9.1-9.7 0-21.2 8.1-21.2 17.2M2160.4 1642.3c-3.3 0-4-2.7-4-3.6 0-4.8 16.7-13.4 21.3-13.4 2.4 0 4 1.4 4 3.6 0 5-16.8 13.4-21.3 13.4m13.7-21.6c-9.7 0-21.2 8-21.2 17.2 0 4.3 3.1 9 11.1 9 10.4 0 21.2-8.4 21.2-17.1 0-5.9-5-9.1-11.1-9.1" class="Note"/><path d="M2160.4 1667.1c-3.3 0-4-2.7-4-3.6 0-4.8 16.7-13.4 21.3-13.4 2.4 0 4 1.4 4 3.6 0 5-16.8 13.4-21.3 13.4m13.7-21.6c-9.7 0-21.2 8-21.2 17.2 0 4.3 3.1 9 11.1 9 10.4 0 21.2-8.4 21.2-17.1 0-5.9-5-9.1-11.1-9.1M577.1 2456c-2.8 0-4.6-.8-6-3.3-1.2-2.5-3-8.8-3.1-11.5q-.4-4 3.2-5a14 14 0 0 1 4.2-.7c2.8 0 4.6.7 6 3.3 1.4 2.7 3.2 9 3.2 11.5 0 4.9-3.4 5.7-7.5 5.7m-.8-23.6c-13.7 0-18.5 7-18.5 13.4s4.8 13.4 18.5 13.4 18.5-7 18.5-13.4-4.8-13.4-18.5-13.4" class="Note"/><path d="M577.1 2480.8c-2.8 0-4.6-.8-6-3.3-1.2-2.5-3-8.8-3.1-11.5q-.4-4 3.2-5a14 14 0 0 1 4.2-.7c2.8 0 4.6.7 6 3.3 1.4 2.7 3.2 9 3.2 11.5 0 4.9-3.4 5.7-7.5 5.7m-.8-23.6c-13.7 0-18.5 7-18.5 13.4s4.8 13.4 18.5 13.4 18.5-7 18.5-13.4-4.8-13.4-18.5-13.4" class="Note"/><path d="M577.1 2505.6c-2.8 0-4.6-.8-6-3.3-1.2-2.5-3-8.8-3.1-11.5q-.4-4 3.2-5a14 14 0 0 1 4.2-.7c2.8 0 4.6.7 6 3.3 1.4 2.7 3.2 9 3.2 11.5 0 4.9-3.4 5.7-7.5 5.7m-.8-23.6c-13.7 0-18.5 7-18.5 13.4s4.8 13.4 18.5 13.4 18.5-7 18.5-13.4-4.8-13.4-18.5-13.4M1704.7 2456c-2.8 0-4.7-.8-6-3.3s-3-8.8-3.2-11.5q-.4-4 3.2-5a14 14 0 0 1 4.3-.7c2.7 0 4.5.7 6 3.3 1.3 2.7 3 9 3 11.5 0 4.9-3.3 5.7-7.3 5.7m-.8-23.6c-13.7 0-18.6 7-18.6 13.4s4.9 13.4 18.6 13.4 18.4-7 18.4-13.4-4.7-13.4-18.4-13.4" class="Note"/><path d="M1704.7 2480.8c-2.8 0-4.7-.8-6-3.3s-3-8.8-3.2-11.5q-.4-4 3.2-5a14 14 0 0 1 4.3-.7c2.7 0 4.5.7 6 3.3 1.3 2.7 3 9 3 11.5 0 4.9-3.3 5.7-7.3 5.7m-.8-23.6c-13.7 0-18.6 7-18.6 13.4s4.9 13.4 18.6 13.4 18.4-7 18.4-13.4-4.7-13.4-18.4-13.4M1672.1 3390.6c0 4.3 3 9 11.1 9 10.3 0 21.2-8.4 21.2-17.1 0-5.9-5-9.1-11.2-9.1-9.6 0-21 8.1-21 17.2" class="Note"/><path d="M1704.7 2505.6c-2.8 0-4.7-.8-6-3.3s-3-8.8-3.2-11.5q-.4-4 3.2-5a14 14 0 0 1 4.3-.7c2.7 0 4.5.7 6 3.3 1.3 2.7 3 9 3 11.5 0 4.9-3.3 5.7-7.3 5.7m-.8-23.6c-13.7 0-18.6 7-18.6 13.4s4.9 13.4 18.6 13.4 18.4-7 18.4-13.4-4.7-13.4-18.4-13.4M1672.1 3353.4c0 4.3 3 9 11.1 9 10.3 0 21.2-8.4 21.2-17.1 0-5.9-5-9.1-11.2-9.1-9.6 0-21 8.1-21 17.2M1672.1 3415.4c0 4.3 3 9 11.1 9 10.3 0 21.2-8.4 21.2-17.1 0-5.9-5-9.1-11.2-9.1-9.6 0-21 8.1-21 17.2M1906.3 3415.4c0 4.3 3 9 11 9 10.4 0 21.2-8.4 21.2-17.1 0-5.9-5-9.1-11-9.1-9.7 0-21.2 8.1-21.2 17.2M1704.7 757.4c-2.8 0-4.7-.8-6-3.3s-3-8.8-3.2-11.5q-.4-4 3.2-5a14 14 0 0 1 4.3-.7c2.7 0 4.5.6 6 3.3 1.3 2.7 3 9 3 11.5 0 4.9-3.3 5.7-7.3 5.7m-.8-23.6c-13.7 0-18.6 7-18.6 13.4s4.9 13.4 18.6 13.4 18.4-7 18.4-13.4-4.7-13.4-18.4-13.4M1704.7 707.8c-2.8 0-4.7-.8-6-3.3s-3-8.8-3.2-11.5q-.4-4 3.2-5a14 14 0 0 1 4.3-.7c2.7 0 4.5.6 6 3.3 1.3 2.7 3 9 3 11.5 0 4.9-3.3 5.7-7.3 5.7m-.8-23.6c-13.7 0-18.6 7-18.6 13.4s4.9 13.4 18.6 13.4 18.4-7 18.4-13.4-4.7-13.4-18.4-13.4M2160.4 1617.5c-3.3 0-4-2.7-4-3.6 0-4.8 16.7-13.4 21.3-13.4 2.4 0 4 1.4 4 3.6 0 5-16.8 13.4-21.3 13.4m13.7-21.6c-9.7 0-21.2 8-21.2 17.2 0 4.3 3.1 9 11.1 9 10.4 0 21.2-8.4 21.2-17.1 0-5.9-5-9.1-11.1-9.1M577.1 1831.2c-2.8 0-4.6-.8-6-3.3-1.2-2.4-3-8.8-3.1-11.5q-.4-4 3.2-5a14 14 0 0 1 4.2-.6c2.8 0 4.6.6 6 3.3s3.2 9 3.2 11.5c0 4.8-3.4 5.6-7.5 5.6m-.8-23.6c-13.7 0-18.5 7-18.5 13.4s4.8 13.4 18.5 13.4 18.5-7 18.5-13.4-4.8-13.4-18.5-13.4M1704.7 2668.1c-2.8 0-4.7-.8-6-3.2s-3-8.9-3.2-11.6q-.4-3.8 3.2-5a14 14 0 0 1 4.3-.6c2.7 0 4.5.6 6 3.3 1.3 2.6 3 9 3 11.5 0 4.8-3.3 5.6-7.3 5.6m-.8-23.6c-13.7 0-18.6 7-18.6 13.4s4.9 13.4 18.6 13.4 18.4-7 18.4-13.4-4.7-13.4-18.4-13.4M577.1 2668.1c-2.8 0-4.6-.8-6-3.2-1.2-2.5-3-8.9-3.1-11.6q-.4-3.8 3.2-5a14 14 0 0 1 4.2-.6c2.8 0 4.6.6 6 3.3s3.2 9 3.2 11.5c0 4.8-3.4 5.6-7.5 5.6m-.8-23.6c-13.7 0-18.5 7-18.5 13.4s4.8 13.4 18.5 13.4 18.5-7 18.5-13.4-4.8-13.4-18.5-13.4M1704.7 2618.5q-4.1.2-6-3.2c-1.3-2.5-3-8.9-3.2-11.6q-.4-3.8 3.2-5a14 14 0 0 1 4.3-.6c2.7 0 4.5.6 6 3.3 1.3 2.6 3 9 3 11.5 0 4.8-3.3 5.6-7.3 5.6m-.8-23.6c-13.7 0-18.6 7-18.6 13.4s4.9 13.4 18.6 13.4 18.4-7 18.4-13.4-4.7-13.4-18.4-13.4M577.1 3584q-4 .2-6-3.3c-1.2-2.5-3-8.9-3.1-11.6q-.4-3.8 3.2-5a14 14 0 0 1 4.2-.6c2.8 0 4.6.6 6 3.3s3.2 9 3.2 11.5c0 4.8-3.4 5.6-7.5 5.6m-.8-23.6c-13.7 0-18.5 7-18.5 13.4s4.8 13.4 18.5 13.4 18.5-7 18.5-13.4-4.8-13.4-18.5-13.4M1689 3608.7c-2.7 0-4.6-.8-5.9-3.2s-3-8.9-3.2-11.6q-.4-3.8 3.2-5a14 14 0 0 1 4.3-.6c2.7 0 4.5.6 6 3.3 1.3 2.6 3.1 9 3.1 11.5 0 4.8-3.4 5.6-7.4 5.6m-.8-23.6c-13.7 0-18.6 7-18.6 13.4s4.9 13.4 18.6 13.4 18.4-7 18.4-13.4-4.7-13.4-18.4-13.4M1704.7 920q-4.1.2-6-3.4c-1.3-2.4-3-8.8-3.2-11.5q-.4-4 3.2-5a14 14 0 0 1 4.3-.6c2.7 0 4.5.6 6 3.2 1.3 2.7 3 9 3 11.6 0 4.8-3.3 5.6-7.3 5.6m-.8-23.6c-13.7 0-18.6 7-18.6 13.4s4.9 13.4 18.6 13.4 18.4-7 18.4-13.4-4.7-13.4-18.4-13.4M1704.7 870.3c-2.8 0-4.7-.8-6-3.3-1.3-2.4-3-8.8-3.2-11.5q-.4-4 3.2-5a14 14 0 0 1 4.3-.6c2.7 0 4.5.6 6 3.2 1.3 2.7 3 9 3 11.6 0 4.8-3.3 5.6-7.3 5.6m-.8-23.6c-13.7 0-18.6 7-18.6 13.4s4.9 13.4 18.6 13.4 18.4-7 18.4-13.4-4.7-13.4-18.4-13.4M577.1 2618.5q-4 .2-6-3.2c-1.2-2.5-3-8.9-3.1-11.6q-.4-3.8 3.2-5a14 14 0 0 1 4.2-.6c2.8 0 4.6.6 6 3.3s3.2 9 3.2 11.5c0 4.8-3.4 5.6-7.5 5.6m-.8-23.6c-13.7 0-18.5 7-18.5 13.4s4.8 13.4 18.5 13.4 18.5-7 18.5-13.4-4.8-13.4-18.5-13.4M577.1 920q-4 .2-6-3.4c-1.2-2.4-3-8.8-3.1-11.5q-.4-4 3.2-5a14 14 0 0 1 4.2-.6c2.8 0 4.6.6 6 3.2 1.4 2.7 3.2 9 3.2 11.6 0 4.8-3.4 5.6-7.5 5.6m-.8-23.6c-13.7 0-18.5 7-18.5 13.4s4.8 13.4 18.5 13.4 18.5-7 18.5-13.4-4.8-13.4-18.5-13.4M577.1 870.3c-2.8 0-4.6-.8-6-3.3-1.2-2.4-3-8.8-3.1-11.5q-.4-4 3.2-5a14 14 0 0 1 4.2-.6c2.8 0 4.6.6 6 3.2 1.4 2.7 3.2 9 3.2 11.6 0 4.8-3.4 5.6-7.5 5.6m-.8-23.6c-13.7 0-18.5 7-18.5 13.4s4.8 13.4 18.5 13.4 18.5-7 18.5-13.4-4.8-13.4-18.5-13.4M2423 1825.3c0 4.2 3 9 11 9 10.4 0 21.2-8.5 21.2-17.2 0-5.8-5-9.1-11.1-9.1-9.7 0-21.2 8.1-21.2 17.3M1530.4 1829.6c-3.3 0-4-2.7-4-3.5 0-5 16.6-13.4 21.3-13.4q3.8.2 4 3.5c0 5-16.8 13.4-21.3 13.4m13.6-21.6c-9.6 0-21 8-21 17.3 0 4.2 3 9 11 9 10.3 0 21.2-8.5 21.2-17.2 0-5.8-5-9.1-11.2-9.1" class="Note"/><path d="M431.2 1355.1q-3 .6-5.8.6c-14.2 0-26.3-9.9-26.3-24.9 0-12 8.6-22.9 17.3-30.4l4.8-4.4 2.2 14.1c-9 2.7-15.1 12.2-15.1 21.5 0 7 5.4 16.5 13.4 16.5.7 0 1.6-.4 1.6-1.3s-1-1.4-2.1-2.2c-4-2.4-6.1-5-6.1-9.8 0-6 4.5-11 10.3-12.3zm-8.8-102c1-4 5.5-14.3 10.7-14.3 1.4 0 3.8 4.8 3.8 11.7 0 10.3-7.6 18-14.5 24.8q-.9-6-1-12 0-5.5 1-10.1m22.9 83.6c0 7-3 14.3-10 17.2l-5.4-32.1c9 0 15.4 6 15.4 14.9m-43.7 48.8c0 6.5 5 15.2 18.5 15.2a23 23 0 0 0 12.3-3.4c5.3-3.8 6.7-10.3 6.7-16.6q0-5.6-1.6-14l-1.5-8.8c9.8-3.2 17-13.3 17-23.5a24 24 0 0 0-25.1-25.1L425 1292a56 56 0 0 0 17.8-39.1c0-9-2.8-16.4-4.4-20-2.4-5-5.2-8.5-7-8.5-.7 0-3.8 1.2-7 5-6.4 7.6-8.2 20.3-8.2 28.6 0 5.4.5 10.2 2.2 21.3-.1.1-5.3 5.4-7.4 7-9 8.5-21.5 20.5-21.5 40.4a34 34 0 0 0 34.6 33q4.4 0 7.9-.6 3 14 3 21.7-.1 15.7-15.3 15.8c-2.4 0-4.5-.5-4.7-.5l-.3-.3q0-.3.5-.4a11 11 0 0 0 9.3-11c0-5.4-4-11-11.5-11-7 0-11.4 5.6-11.4 12.2M431.2 3103.3q-3 .7-5.8.7c-14.2 0-26.3-10-26.3-25 0-12 8.6-22.9 17.3-30.4l4.8-4.4 2.2 14.1c-9 2.7-15.1 12.2-15.1 21.6 0 6.9 5.4 16.4 13.4 16.4.7 0 1.6-.4 1.6-1.3s-1-1.4-2.1-2.2c-4-2.3-6.1-5-6.1-9.8 0-6 4.5-10.9 10.3-12.3zm-8.8-102c1-3.9 5.5-14.3 10.7-14.3 1.4 0 3.8 4.8 3.8 11.7 0 10.3-7.6 18-14.5 24.8q-.9-5.9-1-12 0-5.5 1-10.1m22.9 83.6c0 7-3 14.3-10 17.2l-5.4-32c9 0 15.4 6 15.4 14.8m-43.7 48.8c0 6.6 5 15.2 18.5 15.2a23 23 0 0 0 12.3-3.4c5.3-3.7 6.7-10.3 6.7-16.6q0-5.6-1.6-14l-1.5-8.8c9.8-3.1 17-13.3 17-23.5a24 24 0 0 0-25.1-25l-2.9-17.4a56 56 0 0 0 17.8-39.2c0-9-2.8-16.4-4.4-20-2.4-5-5.2-8.5-7-8.5-.7 0-3.8 1.2-7 5-6.4 7.6-8.2 20.3-8.2 28.6 0 5.4.5 10.3 2.2 21.4-.1 0-5.3 5.3-7.4 7-9 8.4-21.5 20.4-21.5 40.3a34 34 0 0 0 34.6 33.1q4.4 0 7.9-.7 3 14 3 21.7-.1 15.7-15.3 15.8c-2.4 0-4.5-.5-4.7-.5l-.3-.3q0-.3.5-.4a11 11 0 0 0 9.3-11c0-5.3-4-11-11.5-11-7 0-11.4 5.7-11.4 12.2M431.2 481q-3 .6-5.8.6c-14.2 0-26.3-9.9-26.3-24.9 0-12 8.6-22.9 17.3-30.4l4.8-4.4 2.2 14.1c-9 2.7-15.1 12.2-15.1 21.5 0 7 5.4 16.5 13.4 16.5.7 0 1.6-.4 1.6-1.3s-1-1.4-2.1-2.2c-4-2.4-6.1-5-6.1-9.8 0-6 4.5-11 10.3-12.3zm-8.8-102c1-4 5.5-14.3 10.7-14.3 1.4 0 3.8 4.8 3.8 11.7 0 10.3-7.6 18-14.5 24.8q-.9-6-1-12 0-5.5 1-10.1m22.9 83.6c0 7-3 14.3-10 17.2l-5.4-32.1c9 0 15.4 6 15.4 14.9m-43.7 48.8c0 6.5 5 15.2 18.5 15.2a23 23 0 0 0 12.3-3.4c5.3-3.8 6.7-10.3 6.7-16.6q0-5.6-1.6-14L436 484c9.8-3.2 17-13.3 17-23.5a24 24 0 0 0-25.1-25.1l-2.9-17.4a56 56 0 0 0 17.8-39.1c0-9-2.8-16.4-4.4-20-2.4-5-5.2-8.5-7-8.5-.7 0-3.8 1.2-7 5-6.4 7.6-8.2 20.3-8.2 28.6 0 5.4.5 10.2 2.2 21.3-.1.1-5.3 5.4-7.4 7-9 8.5-21.5 20.5-21.5 40.4a34 34 0 0 0 34.6 33q4.4 0 7.9-.6 3 14 3 21.7-.1 15.7-15.3 15.8c-2.4 0-4.5-.5-4.7-.5l-.3-.3q0-.3.5-.4a11 11 0 0 0 9.3-11c0-5.4-4-11-11.5-11-7 0-11.4 5.6-11.4 12.2M431.2 2229.2q-3 .6-5.8.6c-14.2 0-26.3-9.9-26.3-24.9 0-12 8.6-22.9 17.3-30.4l4.8-4.4 2.2 14.1c-9 2.7-15.1 12.2-15.1 21.5 0 7 5.4 16.5 13.4 16.5.7 0 1.6-.4 1.6-1.3s-1-1.4-2.1-2.2c-4-2.4-6.1-5-6.1-9.8 0-6 4.5-11 10.3-12.3zm-8.8-102c1-3.9 5.5-14.3 10.7-14.3 1.4 0 3.8 4.8 3.8 11.7 0 10.3-7.6 18-14.5 24.8q-.9-5.9-1-12 0-5.5 1-10.1m22.9 83.6c0 7-3 14.3-10 17.2l-5.4-32c9 0 15.4 6 15.4 14.8m-43.7 48.8c0 6.6 5 15.2 18.5 15.2a23 23 0 0 0 12.3-3.4c5.3-3.8 6.7-10.3 6.7-16.6q0-5.6-1.6-14l-1.5-8.8c9.8-3.2 17-13.3 17-23.5a24 24 0 0 0-25.1-25l-2.9-17.4a56 56 0 0 0 17.8-39.2c0-9-2.8-16.4-4.4-20-2.4-5-5.2-8.5-7-8.5-.7 0-3.8 1.2-7 5-6.4 7.6-8.2 20.3-8.2 28.6 0 5.4.5 10.2 2.2 21.4-.1 0-5.3 5.3-7.4 7-9 8.4-21.5 20.4-21.5 40.3a34 34 0 0 0 34.6 33.1q4.4 0 7.9-.7 3 14 3 21.7-.1 15.7-15.3 15.8c-2.4 0-4.5-.5-4.7-.5l-.3-.3q0-.3.5-.4a11 11 0 0 0 9.3-11c0-5.3-4-11-11.5-11-7 0-11.4 5.7-11.4 12.2M431.2 3344.9q-3 .6-5.8.6c-14.2 0-26.3-10-26.3-25 0-12 8.6-22.8 17.3-30.4q2.5-2.1 4.8-4.3l2.2 14c-9 2.8-15.1 12.3-15.1 21.6 0 7 5.4 16.5 13.4 16.5.7 0 1.6-.4 1.6-1.3s-1-1.4-2.1-2.2c-4-2.4-6.1-5-6.1-9.8 0-6 4.5-11 10.3-12.3zm-8.8-102c1-4 5.5-14.4 10.7-14.4 1.4 0 3.8 4.9 3.8 11.7 0 10.4-7.6 18.1-14.5 24.8q-.9-5.9-1-12 0-5.4 1-10m22.9 83.5c0 7.1-3 14.3-10 17.2l-5.4-32c9 0 15.4 6 15.4 14.8m-43.7 48.9c0 6.5 5 15.1 18.5 15.1a23 23 0 0 0 12.3-3.3c5.3-3.8 6.7-10.4 6.7-16.6q0-5.7-1.6-14l-1.5-8.8c9.8-3.2 17-13.3 17-23.5a24 24 0 0 0-25.1-25.1l-2.9-17.4a56 56 0 0 0 17.8-39.2c0-9-2.8-16.3-4.4-20-2.4-5-5.2-8.4-7-8.4-.7 0-3.8 1.1-7 5-6.4 7.6-8.2 20.3-8.2 28.6 0 5.3.5 10.2 2.2 21.3-.1.1-5.3 5.4-7.4 7-9 8.5-21.5 20.5-21.5 40.3a34 34 0 0 0 34.6 33.2q4.4 0 7.9-.7c1.9 9.5 3 16.4 3 21.7q-.1 15.6-15.3 15.8c-2.4 0-4.5-.5-4.7-.5l-.3-.3q0-.3.5-.4a11 11 0 0 0 9.3-11c0-5.4-4-11-11.5-11-7 0-11.4 5.6-11.4 12.2M431.2 2466.3q-3 .6-5.8.6c-14.2 0-26.3-10-26.3-25 0-12 8.6-22.8 17.3-30.4q2.5-2.2 4.8-4.3l2.2 14c-9 2.8-15.1 12.3-15.1 21.6 0 7 5.4 16.5 13.4 16.5.7 0 1.6-.4 1.6-1.3s-1-1.4-2.1-2.2c-4-2.4-6.1-5-6.1-9.8 0-6 4.5-11 10.3-12.3zm-8.8-102c1-4 5.5-14.4 10.7-14.4 1.4 0 3.8 4.9 3.8 11.7 0 10.4-7.6 18.1-14.5 24.8q-.9-5.8-1-12 0-5.4 1-10m22.9 83.5c0 7.1-3 14.3-10 17.2l-5.4-32c9 0 15.4 6 15.4 14.8m-43.7 48.9c0 6.5 5 15.1 18.5 15.1a23 23 0 0 0 12.3-3.3c5.3-3.8 6.7-10.4 6.7-16.6q0-5.7-1.6-14l-1.5-8.8c9.8-3.2 17-13.3 17-23.5a24 24 0 0 0-25.1-25.1l-2.9-17.4a56 56 0 0 0 17.8-39.2c0-9-2.8-16.3-4.4-20-2.4-5-5.2-8.4-7-8.4-.7 0-3.8 1.1-7 5-6.4 7.6-8.2 20.3-8.2 28.6 0 5.3.5 10.2 2.2 21.3-.1.1-5.3 5.4-7.4 7-9 8.5-21.5 20.5-21.5 40.3a34 34 0 0 0 34.6 33.2q4.4 0 7.9-.7c1.9 9.5 3 16.4 3 21.7q-.1 15.6-15.3 15.8c-2.4 0-4.5-.5-4.7-.5l-.3-.3q0-.3.5-.4a11 11 0 0 0 9.3-11c0-5.4-4-11-11.5-11-7 0-11.4 5.6-11.4 12.2M431.2 718q-3 .7-5.8.7c-14.2 0-26.3-10-26.3-25 0-12 8.6-22.8 17.3-30.4q2.5-2.1 4.8-4.3l2.2 14c-9 2.7-15.1 12.3-15.1 21.6 0 7 5.4 16.5 13.4 16.5.7 0 1.6-.5 1.6-1.3 0-1-1-1.4-2.1-2.2-4-2.4-6.1-5-6.1-9.8 0-6 4.5-11 10.3-12.3zm-8.8-102c1-4 5.5-14.4 10.7-14.4 1.4 0 3.8 4.9 3.8 11.7 0 10.4-7.6 18-14.5 24.8q-.9-5.9-1-12 0-5.4 1-10m22.9 83.5c0 7-3 14.3-10 17.2l-5.4-32c9 0 15.4 6 15.4 14.8m-43.7 48.8c0 6.6 5 15.2 18.5 15.2a23 23 0 0 0 12.3-3.3c5.3-3.8 6.7-10.4 6.7-16.6 0-3.9-.6-8.3-1.6-14L436 721c9.8-3.2 17-13.3 17-23.5a24 24 0 0 0-25.1-25.1L425 655a56 56 0 0 0 17.8-39.2c0-9-2.8-16.3-4.4-20-2.4-5-5.2-8.5-7-8.5-.7 0-3.8 1.2-7 5.1-6.4 7.5-8.2 20.2-8.2 28.6 0 5.3.5 10.2 2.2 21.3-.1.1-5.3 5.4-7.4 7-9 8.5-21.5 20.5-21.5 40.3a34 34 0 0 0 34.6 33.2q4.4 0 7.9-.7c1.9 9.5 3 16.4 3 21.7q-.1 15.6-15.3 15.8c-2.4 0-4.5-.5-4.7-.5l-.3-.3q0-.3.5-.4a11 11 0 0 0 9.3-11c0-5.4-4-11-11.5-11-7 0-11.4 5.6-11.4 12.1M431.2 1592.2q-3 .6-5.8.6c-14.2 0-26.3-10-26.3-25 0-12 8.6-22.8 17.3-30.4q2.5-2.1 4.8-4.3l2.2 14c-9 2.8-15.1 12.3-15.1 21.6 0 7 5.4 16.5 13.4 16.5.7 0 1.6-.4 1.6-1.3s-1-1.4-2.1-2.2c-4-2.4-6.1-5-6.1-9.8 0-6 4.5-11 10.3-12.3zm-8.8-102c1-4 5.5-14.4 10.7-14.4 1.4 0 3.8 4.9 3.8 11.7 0 10.4-7.6 18.1-14.5 24.8q-.9-5.8-1-12 0-5.4 1-10m22.9 83.5c0 7.1-3 14.3-10 17.2l-5.4-32c9 0 15.4 6 15.4 14.8m-43.7 48.9c0 6.5 5 15.1 18.5 15.1a23 23 0 0 0 12.3-3.3c5.3-3.8 6.7-10.4 6.7-16.6 0-3.9-.6-8.3-1.6-14l-1.5-8.8c9.8-3.2 17-13.3 17-23.5a24 24 0 0 0-25.1-25.1L425 1529a56 56 0 0 0 17.8-39.2c0-9-2.8-16.3-4.4-20-2.4-5-5.2-8.4-7-8.4-.7 0-3.8 1.1-7 5-6.4 7.6-8.2 20.3-8.2 28.6 0 5.3.5 10.2 2.2 21.3-.1.1-5.3 5.4-7.4 7-9 8.5-21.5 20.5-21.5 40.3a34 34 0 0 0 34.6 33.2q4.4 0 7.9-.7c1.9 9.5 3 16.4 3 21.7q-.1 15.6-15.3 15.8c-2.4 0-4.5-.5-4.7-.5l-.3-.3q0-.3.5-.4a11 11 0 0 0 9.3-11c0-5.4-4-11-11.5-11-7 0-11.4 5.6-11.4 12.2M445.8 1734.4c0 2.8 2.2 5 4.8 5s4.8-2.2 4.8-5-2.2-5-4.8-5-4.8 2.2-4.8 5m-31-12.6c-7.6 0-13.7 4.4-13.8 4.4a23 23 0 0 0-9.6 18c0 7.2 4.2 12.6 11.5 12.6 6.4 0 11.3-4.3 11.3-10.8a10.6 10.6 0 0 0-13.7-9.8c-1 .4-2.7 1.4-3.5 2 .7-4.3 3.7-8.7 7.6-10.8a19 19 0 0 1 9.1-2q15.1 0 15.1 24.9c0 12.9-8.2 31.4-18 40.1a85 85 0 0 1-20.1 14s-1.2.6-1.2 1.8l.1.5c.3 1 1.2 1.2 1.8 1.2h.5s11.4-4.8 20.4-11.8c14-10 29.6-27.7 29.6-46 0-17.2-9.3-28.3-27.2-28.3m31.1 37c0 2.9 2.2 5.2 4.8 5.2s4.8-2.3 4.8-5.1-2.2-5-4.8-5-4.8 2.2-4.8 5M445.8 860.3c0 2.8 2.2 5 4.8 5s4.8-2.2 4.8-5-2.2-5-4.8-5-4.8 2.2-4.8 5m-31-12.6c-7.6 0-13.7 4.3-13.8 4.3a23 23 0 0 0-9.6 18.1c0 7.2 4.2 12.6 11.5 12.6 6.4 0 11.3-4.3 11.3-10.8a10.6 10.6 0 0 0-13.7-9.8c-1 .4-2.7 1.4-3.5 2 .7-4.3 3.7-8.7 7.6-10.8a19 19 0 0 1 9.1-2q15.1 0 15.1 24.9c0 12.8-8.2 31.4-18 40.1a85 85 0 0 1-20.1 14s-1.2.6-1.2 1.8l.1.5c.3 1 1.2 1.2 1.8 1.2l.5-.1s11.4-4.7 20.4-11.7c14-10 29.6-27.7 29.6-46 0-17.2-9.3-28.3-27.2-28.3m31.1 37c0 2.9 2.2 5.2 4.8 5.2s4.8-2.3 4.8-5.1-2.2-5-4.8-5-4.8 2.2-4.8 5M445.8 3487c0 2.9 2.2 5 4.8 5s4.8-2.1 4.8-5c0-2.7-2.2-5-4.8-5s-4.8 2.3-4.8 5m-31-12.5c-7.6 0-13.7 4.4-13.8 4.4a23 23 0 0 0-9.6 18c0 7.3 4.2 12.6 11.5 12.6 6.4 0 11.3-4.2 11.3-10.8a10.6 10.6 0 0 0-13.7-9.8c-1 .4-2.7 1.4-3.5 2 .7-4.3 3.7-8.7 7.6-10.8a19 19 0 0 1 9.1-2q15.1 0 15.1 24.9c0 12.9-8.2 31.4-18 40.2a85 85 0 0 1-20.1 13.8s-1.2.7-1.2 2l.1.4c.3 1 1.2 1.2 1.8 1.2h.5s11.4-4.7 20.4-11.8c14-10 29.6-27.7 29.6-46 0-17.2-9.3-28.3-27.2-28.3m31.1 37.1c0 2.8 2.2 5 4.8 5s4.8-2.2 4.8-5-2.2-5-4.8-5-4.8 2.2-4.8 5M445.8 2608.5c0 2.8 2.2 5 4.8 5s4.8-2.2 4.8-5-2.2-5-4.8-5-4.8 2.2-4.8 5m-31-12.6c-7.6 0-13.7 4.4-13.8 4.4a23 23 0 0 0-9.6 18c0 7.3 4.2 12.6 11.5 12.6 6.4 0 11.3-4.2 11.3-10.8a10.6 10.6 0 0 0-13.7-9.8c-1 .4-2.7 1.4-3.5 2 .7-4.3 3.7-8.7 7.6-10.8a19 19 0 0 1 9.1-2q15.1 0 15.1 24.9c0 12.9-8.2 31.4-18 40.2a85 85 0 0 1-20.1 13.8s-1.2.7-1.2 2l.1.4c.3 1 1.2 1.2 1.8 1.2h.5s11.4-4.7 20.4-11.8c14-10 29.6-27.7 29.6-46 0-17.2-9.3-28.3-27.2-28.3m31.1 37.1c0 2.8 2.2 5 4.8 5s4.8-2.2 4.8-5-2.2-5-4.8-5-4.8 2.2-4.8 5" class="Clef"/><path d="m481.7 378.9 8.8-1.8v16.3l-8.8 2zm15.4-3.1q1-.3 1-1.4v-5.9q0-1.2-1.3-1.4h-.2l-3.3.7v-14.7h-2.8v15.3l-8.8 1.8v-14h-2.8v14.6l-3.8.8q-1 .3-1.1 1.4v5.8q.1 1.2 1.4 1.4h.3l3.2-.7v16.3l-3.8.8q-1 .3-1.1 1.4v5.8q.1 1.2 1.4 1.3h.3l3.2-.6v14.7h2.8V404l8.8-1.8v14h2.8v-14.6l3.8-.7q1-.3 1-1.4v-5.9q0-1.3-1.3-1.3h-.2l-3.3.6v-16.3zM481.7 3001.2l8.8-1.8v16.4l-8.8 1.8zm15.4-3.1c.6 0 1-.8 1-1.4v-5.8q0-1.3-1.3-1.4h-.2l-3.3.7v-14.8h-2.8v15.4l-8.8 1.8v-14h-2.8v14.5l-3.8.8q-1 .3-1.1 1.4v5.8q.1 1.3 1.4 1.4h.3l3.2-.7v16.3l-3.8.8q-1 .3-1.1 1.4v5.8q.1 1.3 1.4 1.4h.3l3.2-.7v14.8h2.8v-15.4l8.8-1.8v14h2.8v-14.6l3.8-.7q1-.3 1-1.4v-5.8q0-1.3-1.3-1.4h-.2l-3.3.7v-16.4zM481.7 2127l8.8-1.7v16.3l-8.8 2zm15.4-3.1q1-.3 1-1.4v-5.8q0-1.3-1.3-1.4h-.2l-3.3.7v-14.8h-2.8v15.3l-8.8 1.8v-14h-2.8v14.6l-3.8.8q-1 .3-1.1 1.4v5.8q.1 1.3 1.4 1.4h.3l3.2-.7v16.3l-3.8.8q-1 .3-1.1 1.4v5.8q.1 1.3 1.4 1.4h.3l3.2-.7v14.7h2.8v-15.3l8.8-1.8v14h2.8v-14.6l3.8-.7q1-.3 1-1.4v-5.8q0-1.3-1.3-1.4h-.2l-3.3.7v-16.4zM481.7 1253l8.8-1.8v16.3l-8.8 2zm15.4-3.1q1-.3 1-1.4v-5.9q0-1.2-1.3-1.3h-.2l-3.3.6v-14.7h-2.8v15.3l-8.8 1.8v-14h-2.8v14.6l-3.8.8q-1 .3-1.1 1.4v5.8q.1 1.3 1.4 1.4h.3l3.2-.7v16.3l-3.8.8q-1 .3-1.1 1.4v5.8q.1 1.2 1.4 1.3h.3l3.2-.6v14.7h2.8V1278l8.8-1.8v14h2.8v-14.6l3.8-.7q1-.3 1-1.4v-5.9q0-1.2-1.3-1.3h-.2l-3.3.6v-16.3zM481.7 616l8.8-1.9v16.4l-8.8 1.9zm15.4-3q1-.4 1-1.5v-5.8q0-1.3-1.3-1.4h-.2l-3.3.7v-14.8h-2.8v15.4l-8.8 1.8v-14h-2.8v14.6l-3.8.8c-.6 0-1.1.8-1.1 1.4v5.7q.1 1.3 1.4 1.4h.3l3.2-.7V633l-3.8.8c-.6 0-1.1.8-1.1 1.4v5.7q.1 1.3 1.4 1.4h.3l3.2-.7v14.8h2.8v-15.4l8.8-1.8v14h2.8v-14.6l3.8-.7q1-.2 1-1.4v-5.8q0-1.3-1.3-1.4h-.2l-3.3.7v-16.4zM481.7 3242.7l8.8-1.8v16.4l-8.8 1.9zm15.4-3q1-.3 1-1.4v-5.9q0-1.3-1.3-1.4h-.2l-3.3.7V3217h-2.8v15.4l-8.8 1.8v-14h-2.8v14.6l-3.8.8c-.6 0-1.1.8-1.1 1.4v5.7q.1 1.3 1.4 1.4h.3l3.2-.7v16.4l-3.8.8c-.6 0-1.1.8-1.1 1.4v5.7q.1 1.3 1.4 1.4h.3l3.2-.7v14.8h2.8v-15.4l8.8-1.8v14h2.8v-14.5l3.8-.7q1-.4 1-1.4v-5.9q0-1.3-1.3-1.4h-.2l-3.3.7v-16.3zM481.7 2364.1l8.8-1.8v16.4l-8.8 1.9zm15.4-3q1-.3 1-1.4v-5.9q0-1.3-1.3-1.4h-.2l-3.3.7v-14.8h-2.8v15.4l-8.8 1.8v-14h-2.8v14.6l-3.8.8c-.6 0-1.1.8-1.1 1.4v5.7q.1 1.3 1.4 1.4h.3l3.2-.7v16.4l-3.8.8c-.6 0-1.1.8-1.1 1.4v5.7q.1 1.3 1.4 1.4h.3l3.2-.7v14.8h2.8v-15.4l8.8-1.8v14h2.8v-14.5l3.8-.7q1-.4 1-1.4v-5.9q0-1.3-1.3-1.4h-.2l-3.3.7v-16.3zM481.7 1490l8.8-1.8v16.4l-8.8 1.9zm15.4-3q1-.3 1-1.4v-5.9q0-1.3-1.3-1.4h-.2l-3.3.7v-14.8h-2.8v15.4l-8.8 1.8v-14h-2.8v14.6l-3.8.8c-.6 0-1.1.8-1.1 1.4v5.7q.1 1.3 1.4 1.4h.3l3.2-.7v16.4l-3.8.8c-.6 0-1.1.8-1.1 1.4v5.7q.1 1.3 1.4 1.4h.3l3.2-.7v14.8h2.8V1515l8.8-1.8v14h2.8v-14.5l3.8-.7q1-.4 1-1.4v-5.9q0-1.3-1.3-1.4h-.2l-3.3.7v-16.3zM481.7 2613.5l8.8-1.8v16.3l-8.8 2zm15.4-3.1q1-.3 1-1.4v-5.9q0-1.2-1.3-1.3h-.2l-3.3.6v-14.7h-2.8v15.3l-8.8 1.8v-14h-2.8v14.6l-3.8.8q-1 .3-1.1 1.4v5.8q.1 1.3 1.4 1.4h.3l3.2-.7v16.3l-3.8.8q-1 .3-1.1 1.4v5.8q.1 1.3 1.4 1.3h.3l3.2-.6v14.7h2.8v-15.3l8.8-1.8v14h2.8V2636l3.8-.7q1-.3 1-1.4v-5.9q0-1.2-1.3-1.3h-.2l-3.3.6v-16.3zM481.7 3492l8.8-1.7v16.3l-8.8 2zm15.4-3.1q1-.3 1-1.4v-5.9q0-1.2-1.3-1.3h-.2l-3.3.6v-14.7h-2.8v15.3l-8.8 1.8v-14h-2.8v14.6l-3.8.8q-1 .3-1.1 1.4v5.8q.1 1.3 1.4 1.4h.3l3.2-.7v16.3l-3.8.8q-1 .3-1.1 1.4v5.8q.1 1.3 1.4 1.3h.3l3.2-.6v14.7h2.8v-15.3l8.8-1.8v14h2.8v-14.6l3.8-.7q1-.3 1-1.4v-5.9q0-1.2-1.3-1.3h-.2l-3.3.6v-16.3zM481.7 1739.3l8.8-1.7v16.3l-8.8 2zm15.4-3q1-.3 1-1.4v-5.9q0-1.3-1.3-1.4h-.2l-3.3.7v-14.7h-2.8v15.3l-8.8 1.8v-14h-2.8v14.6l-3.8.8q-1 .3-1.1 1.4v5.7q.1 1.3 1.4 1.4h.3l3.2-.7v16.4l-3.8.8q-1 .3-1.1 1.4v5.8q.1 1.2 1.4 1.3h.3l3.2-.7v14.8h2.8v-15.4l8.8-1.7v14h2.8V1762l3.8-.7q1-.3 1-1.4v-5.9q0-1.3-1.3-1.4h-.2l-3.3.7V1737zM481.7 865.2l8.8-1.7v16.3l-8.8 2zm15.4-3q1-.3 1-1.4v-5.9q0-1.3-1.3-1.4h-.2l-3.3.7v-14.8h-2.8v15.4l-8.8 1.8v-14h-2.8v14.6l-3.8.8q-1 .3-1.1 1.4v5.7q.1 1.3 1.4 1.4h.3l3.2-.7v16.4l-3.8.8q-1 .3-1.1 1.4v5.7q.1 1.3 1.4 1.4h.3l3.2-.7v14.8h2.8v-15.4l8.8-1.7v14h2.8v-14.6l3.8-.7q1-.3 1-1.4v-5.9q0-1.3-1.3-1.4h-.2l-3.3.7V863z" class="KeySig"/><path d="m583 452.3-.6-.7-11.4-14.1-.2-.6q0-.5.2-.9l10-15.3q.3-.4.3-.7v-.9q0-.5-.3-.8l-16-21.7s-.5-.6-1-.6q-.5 0-.9.3-.6.5-.5 1 .1 1 .3 1.1l7.6 10.3q.3.4.3 1.2t-.3 1.2l-10 15.3-.2.8v.9q0 .5.3.8l11 13.8q-.5-.4-2.4-.4c-5 0-9 4.2-9 9.3q0 2.2 1 3.8c2.1 3.2 9.6 12.6 9.6 12.6s.5.6 1.2.6q.3 0 .6-.2.7-.5.7-1.2 0-.5-.3-.9l-3.5-6.2s-.7-1.4-.7-3.2c0-3.2 2.4-5.7 5.5-5.7a6 6 0 0 1 3.2.9l3.9 2.5.8.1q.6.1 1-.5.3-.4.3-.8t-.3-.8zM2557.2 3038l-.4-.1q-.9 0-1.3.8c-.4.6-3.5 6.4-8 9.7q-1.9 1.5-4.4 2 1.7-2 1.8-4.8a7 7 0 0 0-14.2 0c0 5.4 5.3 7.9 10 7.9 5.2 0 8.7-2.5 12-6.2l-11.3 35.3 2.7.8 13.9-43.7.1-.5q0-.8-.9-1.2M2689.4 1289.8l-.4-.1q-.9 0-1.3.8c-.4.6-3.4 6.4-8 9.7q-1.9 1.5-4.4 2 1.7-2 1.8-4.8a7 7 0 0 0-14.2 0c0 5.4 5.3 7.8 10 7.8 5.2 0 8.7-2.4 12-6.1l-11.3 35.3 2.7.8 14-43.7v-.5q0-.8-.9-1.2M583 2200.5l-.6-.7-11.4-14.1-.2-.6q0-.5.2-.9l10-15.3q.3-.3.3-.7v-.9q0-.4-.3-.7l-16-21.8s-.5-.6-1-.6q-.5 0-.9.3-.6.5-.5 1 .1 1 .3 1.1l7.6 10.3q.3.4.3 1.2t-.3 1.2l-10 15.3-.2.8v.9q0 .5.3.8l11 13.8q-.5-.2-2.4-.3c-5 0-9 4.1-9 9.2q0 2.2 1 3.8c2.1 3.2 9.6 12.7 9.6 12.7s.5.6 1.2.6q.3 0 .6-.2.7-.6.7-1.2t-.3-1l-3.5-6.2s-.7-1.4-.7-3.2c0-3.1 2.4-5.7 5.5-5.7a6 6 0 0 1 3.2.9l3.9 2.5.8.2q.6 0 1-.5.3-.5.3-1l-.3-.7zM1932.8 3038l-.4-.1q-1 0-1.3.8c-.4.6-3.5 6.4-8 9.7q-1.9 1.5-4.4 2 1.6-2 1.8-4.8a7 7 0 0 0-14.2 0c0 5.4 5.2 7.9 9.9 7.9 5.3 0 8.7-2.5 12.1-6.2l-11.3 35.3 2.7.8 13.9-43.7v-.5q0-.8-.8-1.2" class="Rest"/><path fill-rule="evenodd" d="m1822.7 1247.9 182.5 6.2v12.4l-182.5-6.2zM821 361.4l156.5 6.2V380L821 373.8zM1717.5 349l464.5 18.6V380l-464.5-18.6zM2248.3 2996.1l158.5 6.2v12.4l-158.5-6.2zM2452.7 1278.9l122.5 6.2v12.4l-122.5-6.2zM2452.7 1297.5l122.5 6.2v12.4l-122.5-6.2zM821 2109.6l156.5 6.2v12.4L821 2122zM1430.4 2983.7l106.5-6.2v12.4l-106.5 6.2zM1430.4 3002.3l106.5-6.2v12.4l-106.5 6.2zM1717.5 2097.2l464.5 18.6v12.4l-464.5-18.6z" class="Beam"/><path d="m1258.6 2271.2-9.2.5v2.2h2.4c1.9 0 2.1.3 2.1 2.5v27.8q0 1-.3 1.3-.3.7-3.4.7h-.4v1.8h13v-1.8h-.4c-3.3 0-3.8-.3-3.8-2.1zm19.2 30.6-5.5-12.9q-.4-.6-.3-1c0-1 .5-1.3 2.3-1.3h1v-1.8h-11.9v1.8h.5c1.8 0 2.4.6 3.4 2.7l8.2 18.5-.8 1.7c-1.9 3.8-4.2 6.5-5.8 6.5q-.8 0-.8-.5l.1-.5.3-1.3q-.2-2-2.6-2.2c-1.7 0-3 1.3-3 3 0 2.3 1.9 4 4.5 4q4 0 7-4c1.5-2.1 2.5-4.2 4.7-9.7l5.7-14.1c1.2-3 2.2-4 4.2-4h.3v-1.9h-10v1.8h.8q2.8 0 2.7 1.9a5 5 0 0 1-.5 2zM731 3195.5l-5.7-13.2-.2-1.1c0-.9.6-1.2 2.7-1.2h.7v-1.8h-11.8v1.8h.4c1.9 0 2.6.5 3.3 2.2l8.6 20h1.7l7.1-17.5c1.4-3.4 2.6-4.5 4.7-4.7h.2v-1.8h-10v1.8h.7q2.6 0 2.7 1.8 0 .8-.5 2zm34.2-5.2c0-7.5-4.2-12.8-10.3-12.8-6.4 0-11.2 5.5-11.2 13 0 7 4.5 11.8 11.3 11.8q7.1 0 10.2-7.1l-1.8-1c-2 3.9-4.1 5.4-7.5 5.4q-3.7 0-5.7-3.3-1.3-2.1-1.2-6zM749 3188c0-3.5 1.6-8.5 5.8-8.5 3 0 5 2.7 5 6.7 0 1.4-.4 1.8-2 1.8zm27.8-9.9-8.9.6v2.1h2c2 0 2.2.4 2.2 2.5v14.3q0 1-.3 1.3-.3.7-3.5.7h-.2v1.8h13.4v-1.8h-.9c-3.4-.1-3.8-.3-3.8-2.1v-2.7c0-8.4 3-14.8 7-15q-1 1-1 2.2c0 1.6 1.2 2.8 2.8 2.8 1.8 0 3-1.4 3-3.4q-.2-3.8-4.3-4-5 .1-7.5 7zm15.4 17.8a3.1 3.1 0 1 0 3.1 3.1c0-1.7-1.4-3.1-3-3.1M784.3 542.6l-8.4-13.6q-.6-.8-.6-1.3 0-1 2-1h3v-2.4h-16.1v2.4h1c2.3 0 3 .3 4.1 2.3l10.8 17.1v8.2c0 2.6 0 2.7-.3 3.1-.4.5-1.3.7-4.2.7h-1.3v2.4h17.2V558h-1.3c-2.9 0-3.8-.2-4.2-.7-.3-.4-.3-.5-.3-3.1v-8.8l7.5-13.5c2.1-4 3.7-5.2 6.9-5.3h.4v-2.4h-14.2v2.4h1.1q4-.1 3.9 2.3 0 1.2-.8 2.5zm24.1-6.2c-6.1 0-10.9 5.5-10.9 12.5 0 6.8 4.8 12.3 10.8 12.3s10.8-5.5 10.8-12.4c0-6.8-4.8-12.4-10.7-12.4m0 2.1c3.5 0 5.5 3.7 5.5 10.3q-.1 10.1-5.6 10.2-5.5-.1-5.5-10.1 0-10.4 5.6-10.4m33 22.3 9-.3v-2.2h-1.2c-2.9 0-3.1-.4-3.1-3.6v-17.5l-9.4.5v2.2h2.5c2 0 2.2.3 2.2 2.5v6.1c0 4.4-1 9.7-6.6 9.7q-2.4 0-3.5-1.6c-.6-1-.7-1.4-.7-4.2v-15.2l-8.8.5v2.2h2c1.8 0 2 .3 2 2.5v10.8c0 2.5.3 3.7 1 4.8q2.2 3.1 6.8 3.2c3.3 0 5.6-1.3 7.8-4.5zM954.2 537.2l-8.6.5v2.2h1.8c1.9 0 2.1.3 2.1 2.5v14.3q0 1-.3 1.3-.3.6-3.4.7h-.2v1.8h12.6v-1.8h-.2c-3.3-.2-3.8-.4-3.8-2.2v-7.4c0-2.4.4-4.7 1-5.8 1-2.3 3.2-3.8 5.4-3.8 1.3 0 2.8.7 3.5 1.7q1.1 1.5 1.1 5v10.5q0 1-.3 1.3-.3.6-3.5.7h-.2v1.8H974v-1.8h-.2c-3.3-.2-3.8-.4-3.8-2.2v-10c0-3.6-.1-4.5-1-6.2a7 7 0 0 0-6.8-3.9q-4.7 0-7.9 4.8zm43.8 12c0-7.5-4.2-12.8-10.3-12.8-6.4 0-11.2 5.6-11.2 13 0 7.1 4.6 11.8 11.3 11.8q7.2 0 10.2-7l-1.7-1c-2 3.8-4.2 5.3-7.5 5.3q-3.8 0-5.7-3.3c-.9-1.5-1.3-3.2-1.3-6zM982 547c0-3.5 1.6-8.5 5.8-8.5 3 0 5 2.7 5 6.8q.1 1.9-2 1.7zM1247.7 554.4l-5.7-13.2-.3-1q-.2-1.4 2.7-1.2h.7v-1.8h-11.8v1.8h.4c2 0 2.6.5 3.3 2.1l8.6 20.1h1.8l7-17.5c1.5-3.4 2.7-4.6 4.7-4.7h.2v-1.8h-10v1.8h.7q2.7 0 2.7 1.7 0 .9-.4 2.1zm34.1-5.2c0-7.5-4.2-12.8-10.3-12.8-6.4 0-11.2 5.6-11.2 13 0 7.1 4.6 11.8 11.3 11.8q7.2 0 10.2-7l-1.7-1c-2 3.8-4.2 5.3-7.5 5.3a6 6 0 0 1-5.7-3.3c-1-1.5-1.3-3.2-1.3-6zm-16.1-2.2c0-3.5 1.6-8.5 5.8-8.5 3 0 5 2.7 5 6.8q.1 1.9-2.1 1.7zm27.8-9.8-9 .5v2.2h2.1c2 0 2.2.3 2.2 2.5v14.3q0 1-.3 1.3-.5.6-3.5.7h-.2v1.8h13.3v-1.8h-.8c-3.4-.2-3.8-.4-3.8-2.2v-2.7c0-8.4 3-14.8 6.9-15q-1 1-.9 2.2.1 2.7 2.8 2.8 2.8-.1 3-3.3c0-2.5-1.7-4-4.3-4-3.2 0-6 2.4-7.5 6.9zM1502.7 553.1c-1.6 3.6-3.3 5-5.9 5-4 0-6.5-3.6-6.5-9.4 0-6.2 2.5-10.2 6.2-10.2 1.5 0 2.8.8 2.8 1.5l-.3.7c-.8 1-1 1.4-1 2.3 0 1.6 1.2 2.8 3 2.8q2.9-.2 3-3.4c0-3.4-3.3-6-7.8-6-6.5 0-11.1 5.3-11.1 12.8 0 7.1 4.2 12 10.4 12 4.5 0 7-2 9.2-7.3zm25.5-8.7c0-3.2-.6-4.8-2-6q-2.5-2-7.3-2c-5.7 0-9.8 2.6-9.8 6.3q.1 2.8 3 3c1.5 0 2.7-1 2.7-2.5q0-1-.8-2l-.4-.7c0-1 2-2 4.4-2 1.6 0 3.4.5 4.2 1.3q1.4 1 1.3 4.2v2c-5.2 1-6.9 1.3-9.3 2.3q-6.5 2.4-6.4 7c0 3.7 2.8 6 7.2 6q5.4-.1 8.8-4 1 3.6 4.3 3.5c2.3 0 4.7-1.4 4.7-2.9q-.1-.6-.5-.6l-.8.2q-1 .4-1.4.4-2 .1-2-3.5zm-4.6 6c0 3-.2 3.8-1 5a7 7 0 0 1-5.7 3.1c-2.3 0-4-1.6-4-3.8q0-3.2 3.3-4.7c1.5-.7 3.5-1.2 7.4-1.8zm20-26.9-9.2.6v2.1h2.5c1.8 0 2 .4 2 2.5v27.9q0 1-.2 1.3c-.4.4-1.3.6-3.5.7h-.3v1.8h13v-1.8h-.4c-3.4-.2-3.8-.4-3.8-2.2zm15.7 0-9.2.6v2.1h2.4c1.9 0 2.1.4 2.1 2.5v27.9q0 1-.3 1.3-.4.6-3.4.7h-.4v1.8h13v-1.8h-.4c-3.3-.2-3.8-.4-3.8-2.2zM2698.4 3177.5c-6.1 0-10.9 5.4-10.9 12.4s4.8 12.4 10.8 12.4 10.8-5.5 10.8-12.5c0-6.8-4.8-12.3-10.7-12.3m0 2.1c3.5 0 5.5 3.7 5.5 10.3q-.1 10-5.6 10.2-5.4-.2-5.5-10.2 0-10.2 5.6-10.3M1850.8 537.2l-9 .5v2.2h2.1c2 0 2.2.3 2.2 2.5v14.3q0 1-.3 1.3c-.4.4-1.3.6-3.5.7h-.2v1.8h12.6v-1.8h-.2c-3.3-.2-3.7-.4-3.7-2.2v-9.3c0-4.4 2.4-7.7 5.7-7.7q4.3 0 4.3 6v11.2q0 1-.4 1.3-.3.6-3.4.7h-.2v1.8h12.6v-1.8h-.2c-3.3-.2-3.7-.4-3.7-2.2v-8.8c0-5 2.2-8.2 5.7-8.2q4.3 0 4.3 6.6v10.6q0 1-.4 1.3-.3.6-3.4.7h-.2v1.8h12.6v-1.8h-.2c-3.3-.2-3.7-.4-3.7-2.2V545c0-3.1-.3-4.1-1.6-5.8a7 7 0 0 0-6-2.9q-4.7 0-7.7 5a7 7 0 0 0-7-5q-4.4 0-7.1 4.6zm57.6 12c0-7.5-4.2-12.8-10.3-12.8-6.4 0-11.2 5.6-11.2 13 0 7.1 4.6 11.8 11.3 11.8q7.2 0 10.2-7l-1.7-1c-2 3.8-4.2 5.3-7.5 5.3q-3.8 0-5.7-3.3c-1-1.5-1.3-3.2-1.3-6zm-16.1-2.2c0-3.5 1.6-8.5 5.8-8.5 3 0 5 2.7 5 6.8q.1 1.9-2 1.7zM2177.2 554l-5-12.8-.2-1q-.2-1.4 2.1-1.2h1.2v-1.8h-11.2v1.8h.9q2.2-.2 2.6 1.8l.4 1.3-4.4 11.7-4.8-12.6-.2-1q-.1-1.4 2-1.2h1v-1.8h-11v1.8h.8c1.4 0 2 .6 2.6 2.4l7.5 19.8h1.8l6-15.8 6 15.8h1.6l7-18.4c1-3 1.8-3.8 3.7-3.8h.3v-1.8h-9.4v1.8h.8q2.6 0 2.5 1.8 0 .8-.4 1.8zm21.5-30.4-9.3.6v2.1h2.4c2 0 2.2.4 2.2 2.5v28q0 .9-.3 1.2-.4.6-3.5.7h-.2v1.8h12.7v-1.8h-.2c-3.4-.2-3.8-.4-3.8-2.2v-7.4c0-2.4.3-4.7.9-5.8 1-2.3 3.3-3.8 5.4-3.8 1.3 0 2.8.7 3.5 1.7q1.2 1.5 1.2 5v10.5q0 1-.3 1.3-.5.6-3.5.7h-.2v1.8h12.6v-1.8h-.2c-3.3-.2-3.7-.4-3.7-2.2v-10c0-3.6-.2-4.5-1-6.2a7 7 0 0 0-6.8-3.9c-3.3 0-5.7 1.5-8 4.8zm43.9 25.6c0-7.5-4.2-12.8-10.3-12.8-6.4 0-11.2 5.6-11.2 13 0 7.1 4.5 11.8 11.3 11.8q7.1 0 10.2-7l-1.8-1c-2 3.8-4.1 5.3-7.5 5.3a6 6 0 0 1-5.7-3.3c-.9-1.5-1.3-3.2-1.2-6zm-16.2-2.2c0-3.5 1.6-8.5 5.8-8.5 3 0 5 2.7 5 6.8q.2 1.9-2 1.7zm28-9.8-8.7.5v2.2h1.8c1.9 0 2.1.3 2.1 2.5v14.3q0 1-.3 1.3-.4.6-3.4.7h-.2v1.8h12.6v-1.8h-.2c-3.3-.2-3.8-.4-3.8-2.2v-7.4c0-2.4.4-4.7 1-5.8 1-2.3 3.2-3.8 5.4-3.8 1.3 0 2.8.7 3.5 1.7q1.2 1.5 1.1 5v10.5q0 1-.3 1.3-.3.6-3.5.7h-.2v1.8h12.7v-1.8h-.2c-3.3-.2-3.8-.4-3.8-2.2v-10c0-3.6-.1-4.5-1-6.2a7 7 0 0 0-6.8-3.9q-4.7 0-7.9 4.8zM2420.5 554.1l-5.5-12.8-.3-1q-.1-1.4 2.3-1.3h1v-1.8h-11.9v1.8h.6c1.7 0 2.3.5 3.4 2.7l8.1 18.4-.8 1.8c-1.8 3.8-4.2 6.4-5.8 6.4q-.7 0-.8-.5l.1-.4.3-1.4q-.1-2-2.6-2.2c-1.7 0-3 1.3-3 3.1 0 2.3 2 3.9 4.6 3.9q3.9 0 6.9-4c1.5-2 2.5-4.2 4.7-9.6l5.7-14.2c1.2-2.9 2.3-4 4.2-4h.3v-1.8h-10v1.8h.8q2.8 0 2.7 1.8a5 5 0 0 1-.5 2zm23-17.7c-6.2 0-11 5.5-11 12.5 0 6.8 4.9 12.3 10.9 12.3s10.8-5.5 10.8-12.4c0-6.8-4.8-12.4-10.7-12.4m0 2.1c3.4 0 5.4 3.7 5.4 10.3q-.1 10.1-5.5 10.2-5.5-.1-5.6-10.1 0-10.4 5.6-10.4m33 22.3 9.2-.3v-2.2h-1.3c-3 0-3.2-.4-3.2-3.6v-17.5l-9.3.5v2.2h2.5c1.9 0 2.1.3 2.1 2.5v6.1c0 4.4-1 9.7-6.5 9.7q-2.4 0-3.5-1.6c-.7-1-.8-1.4-.8-4.2v-15.2l-8.7.5v2.2h1.9c1.9 0 2.1.3 2.1 2.5v10.8c0 2.5.2 3.7 1 4.8q2 3.1 6.7 3.2t7.8-4.5zm14.5-25.3h1.2l1.5-8.9v-.8a2 2 0 0 0-2.1-2.1 2 2 0 0 0-2.2 2.1v.8zm15.6 1.6-8.9.5v2.2h2c2 0 2.2.3 2.2 2.5v14.3q0 1-.3 1.3-.3.6-3.5.7h-.2v1.8h13.4v-1.8h-1c-3.3-.2-3.7-.4-3.7-2.2v-2.7c0-8.4 3-14.8 7-15q-1.1 1-1 2.2c0 1.7 1.2 2.8 2.8 2.8q2.8-.1 3-3.3-.2-3.9-4.3-4-5 0-7.5 6.9zm35.2 12c0-7.5-4.2-12.8-10.3-12.8-6.4 0-11.2 5.6-11.2 13 0 7.1 4.6 11.8 11.3 11.8q7.2 0 10.2-7l-1.7-1c-2 3.8-4.2 5.3-7.5 5.3a6 6 0 0 1-5.7-3.3c-1-1.5-1.3-3.2-1.3-6zm-16.1-2.2c0-3.5 1.6-8.5 5.8-8.5 3 0 5 2.7 5 6.8q.1 1.9-2 1.7zM2706.4 536.6h-1.7l-1.5 1.8a9 9 0 0 0-6-2c-4.5 0-7.4 2.9-7.4 7.3 0 4.7 3 5.8 7 6.8l2.7.6c4 1 5.4 2 5.4 4 0 2.3-2 4-5 4q-6.4-.1-8.5-7.7h-2v9.4h1.8l1.8-2q3 2.4 6.8 2.4c4.9 0 8.1-3 8.1-7.7q0-3.3-2-5c-1.2-1-2.2-1.5-5.3-2.1l-2.5-.6c-2.7-.6-2.7-.6-3.7-1a3 3 0 0 1-1.7-2.8c0-2 2-3.4 4.7-3.4 4 0 6 2.9 7.3 6.4h1.7zm16.2-.2c-6.1 0-10.8 5.5-10.8 12.5 0 6.8 4.8 12.3 10.8 12.3s10.7-5.5 10.7-12.4c0-6.8-4.7-12.4-10.7-12.4m0 2.1c3.5 0 5.5 3.7 5.5 10.3q-.1 10.1-5.5 10.2-5.6-.1-5.6-10.1 0-10.4 5.6-10.4M2364.7 3165.8a3 3 0 0 0-3 2.8 2.9 2.9 0 1 0 5.9 0c0-1.5-1.3-2.8-3-2.8m2.4 12.4-9.4.6v2.1h2.6c1.9 0 2.1.4 2.1 2.5v14.3q0 1-.3 1.3-.3.7-3.4.7h-.4v1.8h13v-1.8h-.4c-3.3-.1-3.8-.3-3.8-2.1zm15.2 0v-9.9h-2q-.8 9.7-6.8 10.1v2h4v12.7c0 3.5.2 4.8.7 6q1.3 3.1 5.7 3.2c4.4 0 7.4-3.5 7.4-8.7v-1.2h-2.2q-.2 6.8-3.9 6.8-2-.1-2.5-1.4-.4-1-.4-3.8v-13.7h7.3v-2zm14.2-1.7h1.2l1.5-9v-.7a2 2 0 0 0-2.1-2.2 2 2 0 0 0-2.2 2.2v.8zm25.2 1h-1.8l-1.4 1.9a9 9 0 0 0-6.1-2c-4.4 0-7.3 2.8-7.3 7.2 0 4.7 3 5.9 7 6.9l2.7.6c4 .9 5.3 1.9 5.3 3.9 0 2.4-2 4-5 4q-6.4-.1-8.4-7.7h-2v9.4h1.8l1.7-2q3 2.5 6.9 2.5c4.9 0 8.1-3 8.1-7.7q0-3.4-2-5c-1.3-1.1-2.3-1.5-5.3-2.2l-2.5-.6c-2.8-.5-2.8-.5-3.7-1a3 3 0 0 1-1.7-2.7c0-2 1.9-3.4 4.6-3.4 4.1 0 6.1 2.9 7.3 6.4h1.8zM749.2 1409.3l-8.6.5v2.2h1.7c2 0 2.2.3 2.2 2.5v19.4c0 7-.3 10.8-1 13h2l2.4-4q3 4 7.5 4c6.2 0 10.8-5.3 10.8-12.6s-4.2-12.2-10.2-12.2c-3 0-5 1-6.8 3.9zm5.9 15.3c3.7 0 5.8 3.7 5.8 10.2q0 9.8-5.7 9.9c-4 0-6.3-3.6-6.3-9.8q.1-10.2 6.2-10.3m36.1 10.3c0-7.5-4.2-12.8-10.3-12.8-6.4 0-11.2 5.5-11.2 13 0 7 4.6 11.8 11.3 11.8q7.2 0 10.2-7.1l-1.7-1c-2 3.9-4.2 5.4-7.5 5.4q-3.8 0-5.7-3.3-1.4-2.1-1.3-6zm-16.1-2.2c0-3.5 1.6-8.5 5.8-8.5 3 0 5 2.7 5 6.7q.1 2-2.1 1.8zm27.8-9.9-9 .6v2.1h2.1c2 0 2.2.4 2.2 2.5v14.3q0 1-.3 1.3-.5.7-3.5.7h-.2v1.8h13.3v-1.8h-.9c-3.3-.1-3.7-.3-3.7-2.1v-2.7c0-8.4 3-14.8 6.9-15q-1 1-.9 2.2c0 1.6 1.1 2.8 2.7 2.8 1.9 0 3.1-1.4 3.1-3.4q-.2-3.8-4.3-4c-3.2 0-6 2.5-7.5 7zm15.4 17.8a3.1 3.1 0 1 0 0 6.2 3.1 3.1 0 0 0 0-6.2M1511.7 2301.6l-4.9-12.9-.2-1q-.1-1.3 2.1-1.2h1.2v-1.8h-11.2v1.8h.9q2.2-.1 2.6 1.9l.4 1.3-4.4 11.6-4.8-12.5-.2-1.1q-.1-1.3 2-1.2h1v-1.8h-11v1.8h.8c1.4 0 2 .7 2.6 2.5l7.5 19.8h1.8l6-15.8 6 15.8h1.6l7-18.5c1-3 1.8-3.7 3.7-3.8h.3v-1.8h-9.4v1.8h.8q2.6-.1 2.5 1.9 0 .7-.4 1.8zm33.1-9.7c0-3.1-.5-4.7-2-6q-2.4-2-7.3-2c-5.6 0-9.7 2.7-9.7 6.4q.2 2.9 2.9 3 2.5-.1 2.7-2.5 0-1-.7-2-.5-.5-.4-.8c0-1 2-1.9 4.4-1.9 1.6 0 3.3.5 4.1 1.3q1.5 1 1.4 4.2v2c-5.2.9-7 1.3-9.4 2.2q-6.4 2.4-6.3 7.1c0 3.6 2.8 5.9 7.2 5.9q5.3 0 8.7-4 1 3.8 4.4 3.6c2.2 0 4.6-1.5 4.6-3q0-.5-.5-.5l-.7.2q-.9.4-1.5.3-2 .2-1.9-3.4zm-4.6 6c0 3-.2 3.7-1 5a7 7 0 0 1-5.7 3.1c-2.3 0-4-1.6-4-3.9q0-3 3.3-4.6c1.5-.7 3.5-1.2 7.4-1.9zm19.8-13.3-8.6.6v2.1h1.8c1.9 0 2.1.4 2.1 2.5v14.3q0 1-.3 1.3-.3.7-3.4.7h-.2v1.8h12.6v-1.8h-.2c-3.3 0-3.8-.3-3.8-2.1v-7.4q0-4 1-5.9c1-2.2 3.3-3.8 5.4-3.8 1.3 0 2.8.7 3.5 1.8q1.1 1.4 1.1 5v10.4q0 1-.2 1.3-.5.7-3.5.7h-.3v1.8h12.7v-1.8h-.2c-3.3 0-3.7-.3-3.7-2.1v-10c0-3.7-.2-4.6-1.1-6.3a7 7 0 0 0-6.7-3.8q-4.7 0-8 4.8zm30.3 0v-10h-2q-.8 9.7-6.8 10.1v2h4v12.7c0 3.5.2 4.8.7 6q1.3 3.1 5.7 3.2c4.5 0 7.4-3.4 7.4-8.7v-1.2h-2.2q-.2 6.8-3.8 6.8-2-.1-2.5-1.4-.6-1-.5-3.8V2287h7.3v-2.2zM956.8 2284c-6.1 0-10.9 5.4-10.9 12.4s4.8 12.4 10.8 12.4 10.8-5.5 10.8-12.4-4.8-12.4-10.7-12.4m0 2.1c3.5 0 5.5 3.7 5.5 10.3q-.1 10-5.6 10.2-5.5-.2-5.5-10.2 0-10.2 5.6-10.3m22.4-1.4-8.6.6v2.1h1.8c1.9 0 2.1.4 2.1 2.5v14.3q0 1-.3 1.3-.3.7-3.4.7h-.2v1.8h12.6v-1.8h-.2c-3.3 0-3.8-.3-3.8-2.1v-7.4q0-4 1-5.9c1-2.2 3.2-3.8 5.4-3.8 1.3 0 2.8.7 3.5 1.8q1.1 1.4 1.1 5v10.4q0 1-.3 1.3-.3.7-3.5.7h-.2v1.8H999v-1.8h-.2c-3.3 0-3.8-.3-3.8-2.1v-10c0-3.7-.1-4.6-1-6.3a7 7 0 0 0-6.8-3.8q-4.7 0-7.9 4.8zM784.3 2290.2l-8.4-13.6q-.6-.8-.6-1.4 0-1 2-1h3v-2.3h-16.1v2.4h1c2.3 0 3 .3 4.1 2.3l10.8 17v8.3c0 2.5 0 2.6-.3 3-.4.6-1.3.8-4.2.8h-1.3v2.3h17.2v-2.3h-1.3c-2.9 0-3.8-.2-4.2-.7-.3-.5-.3-.5-.3-3.1v-8.8l7.5-13.5c2.1-4 3.7-5.2 6.9-5.3h.4v-2.4h-14.2v2.4h1.1q4-.1 3.9 2.2 0 1.3-.8 2.6zm24.1-6.1c-6.1 0-10.9 5.4-10.9 12.4s4.8 12.4 10.8 12.4 10.8-5.5 10.8-12.4-4.8-12.4-10.7-12.4m0 2.1c3.5 0 5.5 3.7 5.5 10.3q-.1 10-5.6 10.2-5.5-.2-5.5-10.2 0-10.2 5.6-10.3m33 22.3 9-.4v-2.1h-1.2c-2.9-.1-3.1-.4-3.1-3.7v-17.5l-9.4.6v2.1h2.5c2 0 2.2.4 2.2 2.5v6.2c0 4.3-1 9.6-6.6 9.6q-2.4 0-3.5-1.5c-.6-1-.7-1.5-.7-4.2v-15.3l-8.8.6v2.1h2c1.8 0 2 .4 2 2.5v10.8c0 2.6.3 3.7 1 4.9q2.2 3.1 6.8 3.2c3.3 0 5.6-1.4 7.8-4.6zM1849.7 2272.3a2.9 2.9 0 1 0 0 5.8 2.9 2.9 0 0 0 0-5.8m2.3 12.4-9.4.6v2.1h2.6c1.9 0 2.1.4 2.1 2.5v14.3q0 1-.3 1.3-.3.7-3.4.7h-.4v1.8h13v-1.8h-.4c-3.3 0-3.8-.3-3.8-2.1zm15.2 0v-9.9h-2q-.8 9.7-6.8 10.1v2h4v12.7c0 3.5.1 4.8.6 6q1.4 3.1 5.8 3.2c4.5 0 7.4-3.4 7.4-8.7v-1.2h-2.2q-.2 6.8-3.9 6.8-1.8-.1-2.5-1.4-.4-1-.4-3.8V2287h7.3v-2.2zM2144.2 2283.1h1l1.6-9v-.7a2 2 0 0 0-2.1-2.2 2 2 0 0 0-2.1 2.2v.8zm25 17.5c-1.7 3.6-3.4 5-6 5-4 0-6.5-3.6-6.5-9.5s2.5-10 6.2-10c1.5 0 2.8.6 2.8 1.4q0 .2-.3.6c-.8 1-1 1.5-1 2.3q.2 2.7 3 2.8c1.8 0 3-1.4 3-3.4 0-3.4-3.3-6-7.8-6-6.5 0-11.1 5.4-11.1 12.9 0 7 4.2 12 10.4 12 4.5 0 7-2 9.2-7.4zm25.5-8.8c0-3.1-.5-4.7-2-6q-2.4-2-7.3-2c-5.6 0-9.7 2.7-9.7 6.4q.1 2.9 2.9 3 2.5-.1 2.7-2.5 0-1-.8-2-.4-.5-.3-.8c0-1 2-1.9 4.4-1.9 1.6 0 3.3.5 4.1 1.3q1.4 1 1.3 4.2v2c-5.2.9-6.8 1.3-9.3 2.2q-6.4 2.4-6.4 7.1c0 3.6 2.8 5.9 7.3 5.9q5.3 0 8.7-4c.8 2.6 2 3.6 4.4 3.6 2.2 0 4.6-1.5 4.6-3q0-.5-.5-.5l-.8.2q-1 .4-1.4.3-2 .2-1.9-3.4zm-4.7 6c0 3-.1 3.7-1 5a7 7 0 0 1-5.7 3.1c-2.3 0-4-1.6-4-3.9q0-3 3.3-4.6c1.6-.7 3.5-1.2 7.4-1.9zm30.5 10.4 9.1-.4v-2.1h-1.2c-3-.1-3.2-.4-3.2-3.7v-17.5l-9.4.6v2.1h2.6c1.9 0 2.1.4 2.1 2.5v6.2c0 4.3-1 9.6-6.5 9.6q-2.5 0-3.5-1.5c-.7-1-.8-1.5-.8-4.2v-15.3l-8.7.6v2.1h1.9c1.9 0 2.1.4 2.1 2.5v10.8c0 2.6.2 3.7 1 4.9q2 3.1 6.7 3.2c3.3 0 5.6-1.4 7.8-4.6zm29.5-24.2h-1.8l-1.4 1.8a9 9 0 0 0-6.1-2c-4.4 0-7.3 2.8-7.3 7.2 0 4.7 3 6 7 6.9l2.7.6c4 1 5.3 2 5.3 4 0 2.3-2 4-5 4q-6.4-.2-8.4-7.8h-2v9.5h1.8l1.7-2q3 2.4 6.9 2.4c4.9 0 8.1-3 8.1-7.7q0-3.4-2-5c-1.3-1.1-2.3-1.5-5.3-2.2l-2.5-.5c-2.8-.6-2.8-.6-3.7-1.1a3 3 0 0 1-1.7-2.7c0-2 1.9-3.4 4.6-3.4 4.1 0 6.1 2.9 7.3 6.4h1.8zm26.9 12.6c0-7.5-4.2-12.8-10.3-12.8-6.4 0-11.2 5.5-11.2 13 0 7 4.5 11.8 11.3 11.8q7.1 0 10.2-7.1l-1.8-1c-2 3.9-4.2 5.4-7.5 5.4a6 6 0 0 1-5.7-3.3q-1.4-2.1-1.2-6zm-16.2-2.2c0-3.5 1.6-8.5 5.8-8.5 3 0 5 2.7 5 6.7q.2 2-2 1.8zM2082 3164.7c-10.5 0-17.4 8.6-17.4 18.8 0 10 6.9 18.8 17.2 18.8 9.8 0 17.2-8.1 17.2-18.8s-7.4-18.8-17-18.8m0 2.3q5 .1 8 4.3c1.8 3 2.4 6 2.4 12.2 0 6-.6 9.1-2.5 12.1a9 9 0 0 1-8 4.3 9 9 0 0 1-8.2-4.3c-1.9-3-2.5-6-2.5-12.2 0-6 .7-9 2.5-12a9 9 0 0 1 8.3-4.4m29.3-2.3-9.3.5v2.2h2.4c2 0 2.2.3 2.2 2.4v28q0 1-.3 1.2-.4.7-3.5.7h-.2v1.8h12.7v-1.8h-.2c-3.4-.1-3.8-.3-3.8-2.1v-7.4q0-4 .9-5.9c1-2.2 3.3-3.8 5.4-3.8 1.3 0 2.8.8 3.5 1.8q1.2 1.4 1.2 5v10.5q0 1-.3 1.2-.5.7-3.5.7h-.2v1.8h12.6v-1.8h-.2c-3.3-.1-3.7-.3-3.7-2.1v-10c0-3.7-.2-4.6-1-6.3a7 7 0 0 0-6.8-3.8c-3.3 0-5.7 1.4-8 4.8zm25 46.1q6.6-4.5 6.5-9.6c0-3-1.6-5-4-5-2 0-3.3 1.3-3.3 3q.1 2.8 3.4 3h.9q.4-.1.4.4 0 3.1-5 6.8zM2448 2272.3a3 3 0 0 0-3 2.8 2.9 2.9 0 1 0 5.8 0c0-1.5-1.3-2.8-2.9-2.8m2.4 12.4-9.4.6v2.1h2.5c2 0 2.2.4 2.2 2.5v14.3q0 1-.3 1.3-.4.7-3.5.7h-.3v1.8h13v-1.8h-.4c-3.4 0-3.8-.3-3.8-2.1zm15.1 0v-9.9h-2q-.7 9.7-6.8 10.1v2h4.1v12.7c0 3.5.1 4.8.6 6q1.3 3.1 5.7 3.2c4.5 0 7.4-3.4 7.4-8.7v-1.2h-2.2q-.1 6.8-3.8 6.8-2-.1-2.5-1.4-.5-1-.5-3.8V2287h7.3v-2.2zm14.3-1.6h1.1l1.5-9v-.7a2 2 0 0 0-2-2.2 2 2 0 0 0-2.2 2.2v.8zm25.1 1h-1.7l-1.5 1.8a9 9 0 0 0-6-2c-4.5 0-7.4 2.8-7.4 7.2 0 4.7 3 6 7 6.9l2.7.6c4 1 5.4 2 5.4 4 0 2.3-2 4-5 4q-6.4-.2-8.4-7.8h-2v9.5h1.7l1.8-2q3 2.4 6.8 2.4c5 0 8.2-3 8.2-7.7q0-3.4-2.1-5c-1.2-1.1-2.2-1.5-5.3-2.2l-2.5-.5c-2.7-.6-2.7-.6-3.6-1.1a3 3 0 0 1-1.8-2.7c0-2 2-3.4 4.7-3.4 4 0 6 2.9 7.3 6.4h1.7zM2700.5 2284c-6.1 0-10.9 5.4-10.9 12.4s4.8 12.4 10.8 12.4 10.8-5.5 10.8-12.4-4.8-12.4-10.7-12.4m0 2.1c3.5 0 5.4 3.7 5.4 10.3q0 10-5.5 10.2-5.4-.2-5.5-10.2 0-10.2 5.6-10.3" class="Lyrics"/><path fill="none" stroke="#000" stroke-linejoin="bevel" stroke-width="2.5" d="M2148.4 3200.3h102.3M2766.5 3190.1h14.8M827.1 1444.9h1748.1M2767.5 2296.6h14.9M623.5 1434.7h14.9M801.2 3200.3h903.1M2282.6 2306.8h53.5M1108.6 549h14.9M1881.7 2306.8H2028M1569.3 559.2h150.6M1914.7 559.2H2028M2279.8 559.2h56.3M2779 549h14.9M1605.3 2306.8h114.6M1116.4 2296.6h14.9M611.6 3190.1h14.8" class="LyricsLineSegment"/><path d="M1094 3070.5a5 5 0 0 0 5 5 5 5 0 0 0 5-5 5 5 0 0 0-5-5 5 5 0 0 0-5 5M784.8 1297.5a5 5 0 0 0 5 5 5 5 0 0 0 5-5 5 5 0 0 0-5-5 5 5 0 0 0-5 5M760.9 3070.5a5 5 0 0 0 5 5 5 5 0 0 0 5-5 5 5 0 0 0-5-5 5 5 0 0 0-5 5M1567.5 1808.7a5 5 0 0 0 5 5 5 5 0 0 0 5-5 5 5 0 0 0-5-5 5 5 0 0 0-5 5" class="NoteDot"/><path d="M233.8 229c3.6-1.4 6.4-3.5 6.4-7.9 0-5-4.7-8.4-11.9-8.4-8.5 0-14 4.5-14 11.7q-.1 6.4 6.4 9.8c-1.7.6-2.4.8-3.4 1.3a8 8 0 0 0-4.2 7.1c0 6 5.3 9.8 13.7 9.8 8.8 0 14.8-5.1 14.8-12.6q0-7.7-7.8-10.8m-3.1-1.2q-3.5-.8-5-1.4a6 6 0 0 1-4.3-5.6c0-3 2.6-5.3 6-5.3 3.7 0 6 2.4 6 6.3q0 3.8-2.7 6m-7 8c2.2.5 5 1.3 6.3 1.8 3.5 1.2 4.8 2.7 4.8 5.5 0 3.7-3 6.4-7.4 6.4s-7.2-2.6-7.2-7c0-3 1-4.8 3.4-6.8" class="Page"/><path d="M338.7 3412c6.4-6.2 19-18.8 19-42.1 0-29.5-14-59.3-14-77.7a74 74 0 0 1 13.3-38.9v-.6q.1-.6-.4-1-.7-.2-1.4.6c-.4.4-19.8 17.8-19.8 44.4 0 28.4 12.6 48.5 12.6 85.7 0 7.2-3.3 18.5-12.3 28.6q-.4.2-.3 1-.3.4.3.9c9 10 12.3 21.3 12.3 28.5 0 37.2-12.6 57.3-12.6 85.8 0 26.2 19.4 44 19.8 44.3q.6 1.1 1.4.7t.4-1v-.6a75 75 0 0 1-13.3-38.9c0-18.4 14-48.2 14-77.7 0-23.6-12.6-36-19-42M338.7 785.1c6.4-6.1 19-18.7 19-42 0-29.6-14-59.3-14-77.8a74 74 0 0 1 13.3-38.8v-.7q.1-.4-.4-1-.7-.2-1.4.7c-.4.3-19.8 17.8-19.8 44.3 0 28.5 12.6 48.6 12.6 85.8 0 7.2-3.3 18.5-12.3 28.6-.3 0-.3.6-.3 1q-.3.4.3.9c9 10 12.3 21.3 12.3 28.5 0 37.2-12.6 57.3-12.6 85.7 0 26.3 19.4 44.1 19.8 44.4q.6 1.1 1.4.7t.4-1v-.7a75 75 0 0 1-13.3-38.8c0-18.5 14-48.3 14-77.7 0-23.6-12.6-36-19-42M338.7 1659.2c6.4-6.1 19-18.7 19-42 0-29.5-14-59.3-14-77.8a74 74 0 0 1 13.3-38.8v-.7q.1-.4-.4-1-.7-.2-1.4.7c-.4.3-19.8 17.8-19.8 44.3 0 28.5 12.6 48.6 12.6 85.8 0 7.2-3.3 18.5-12.3 28.6q-.4.2-.3 1-.3.4.3.9c9 10 12.3 21.3 12.3 28.5 0 37.2-12.6 57.3-12.6 85.8 0 26.2 19.4 44 19.8 44.3q.6 1.1 1.4.7t.4-1v-.6a75 75 0 0 1-13.3-38.9c0-18.5 14-48.3 14-77.7 0-23.6-12.6-36-19-42M338.7 2533.3c6.4-6.1 19-18.7 19-42 0-29.5-14-59.3-14-77.7a74 74 0 0 1 13.3-38.9v-.6q.1-.6-.4-1-.7-.2-1.4.6c-.4.4-19.8 17.8-19.8 44.4 0 28.4 12.6 48.5 12.6 85.7 0 7.2-3.3 18.5-12.3 28.6q-.4.2-.3 1-.3.4.3.9c9 10 12.3 21.3 12.3 28.5 0 37.2-12.6 57.3-12.6 85.8 0 26.2 19.4 44 19.8 44.3q.6 1.1 1.4.7t.4-1v-.6a75 75 0 0 1-13.3-38.9c0-18.4 14-48.2 14-77.7 0-23.6-12.6-36-19-42" class="Bracket"/></svg>