<svg xmlns="http://www.w3.org/2000/svg" width="816" height="1056" baseProfile="full" viewBox="0 0 3060 3960"><title>general_29054120_690a831e247a0 (6)</title><desc>Generated by MuseScore Studio 4.6.3</desc><path fill="#fff" fill-rule="evenodd" d="M0 0h3060v3960H0z"/><path fill="none" stroke="#000" stroke-linejoin="bevel" stroke-width="2.7" d="M366.4 386.2h2481M366.4 411h2481M366.4 435.8h2481M366.4 460.6h2481M366.4 485.4h2481M366.4 725.4h2481M366.4 750.2h2481M366.4 775h2481M366.4 799.8h2481M366.4 824.6h2481M366.4 985.8h2481M366.4 1010.6h2481M366.4 1035.4h2481M366.4 1060.2h2481M366.4 1085h2481M366.4 1630.6h2481M366.4 1655.4h2481M366.4 1680.2h2481M366.4 1705h2481M366.4 1729.8h2481M366.4 1969.8h2481M366.4 1994.6h2481M366.4 2019.4h2481M366.4 2044.2h2481M366.4 2069h2481M366.4 2230.2h2481M366.4 2255h2481M366.4 2279.8h2481M366.4 2304.6h2481M366.4 2329.4h2481M366.4 2875h2481M366.4 2899.8h2481M366.4 2924.6h2481M366.4 2949.4h2481M366.4 2974.2h2481M366.4 3214.2h2481M366.4 3239h2481M366.4 3263.8h2481M366.4 3288.6h2481M366.4 3313.4h2481M366.4 3474.6h2481M366.4 3499.4h2481M366.4 3524.2h2481M366.4 3549h2481M366.4 3573.8h2481" class="StaffLines"/><path d="M388 308.3h-2.2L367 327.6v1.6h11.3l-.6 2.5c-.8 3-.8 3-4.3 3h-.7l-.3 1.9H385l.2-1.9h-.8c-2.6 0-3.2-.2-3.2-1l.4-2 .7-2.5h4.6l.6-2.1h-4.6zM379 327h-9l12.4-12.7zm31.2-18.8H408l-18.6 19.3v1.6h11.2l-.6 2.5c-.8 3-.8 3-4.3 3h-.7l-.2 1.9h12.4l.2-1.9h-.7c-2.7 0-3.2-.2-3.2-1q-.1-.4.4-2l.7-2.5h4.5l.6-2.1h-4.6zm-8.9 18.8h-9l12.4-12.7zM388 1552.7h-2.2L367 1572v1.6h11.3l-.6 2.5c-.8 3-.8 3-4.3 3h-.7l-.3 1.9H385l.2-1.9h-.8c-2.6 0-3.2-.2-3.2-1l.4-2 .7-2.5h4.6l.6-2.1h-4.6zm-8.9 18.8h-9l12.4-12.7zm17-4c.7-3.4 1.5-5.6 3-8.3q2.8-4.8 6.3-4.8 2 0 2 1.3 0 .3-.3 1-.6.8-.5 1.7.2 2 2.3 2.1 2.6-.2 2.8-3c0-2.7-2.6-4.7-6.2-4.7-8.9 0-14.3 11.7-14.3 19.3 0 6 3 9.5 7.8 9.5 6 0 10.4-5 10.4-10.8 0-4.1-2.7-7-6.7-7q-4.2 0-6.6 3.8m5.3-1.5q3.8.1 3.9 4.9c0 5-2.7 9-6.3 9-2.6 0-4-2-4-5.1 0-5 2.7-8.8 6.4-8.8M388 2797h-2.2l-18.7 19.3v1.7h11.3l-.6 2.4c-.8 3-.8 3-4.3 3h-.7l-.3 2H385l.2-2h-.8c-2.6 0-3.2-.1-3.2-1l.4-2 .7-2.4h4.6l.6-2.2h-4.6zm-8.9 18.8h-9l12.4-12.8zm25.7-5.3c3.1-1.5 6-3.2 6-7.2 0-3.6-3-6.2-7.3-6.2-5.2 0-9.2 3.7-9.2 8.6q0 3.4 3 5.5-7.1 2.8-7.2 8.4c0 3.9 3.2 6.3 8.3 6.3 6.2 0 10.6-3.8 10.6-9 0-3.2-1.7-4.8-4.2-6.4m-1.7-1c-4-2-5.6-3.5-5.6-5.7 0-2.8 2.5-5 5.7-5 2.7 0 4.7 1.8 4.7 4.3 0 3-2.1 5.4-4.8 6.4m-4.2 2.8 3.5 1.8q3 1.9 3 4.6c0 3-2.8 5.4-6.5 5.4-3.5 0-5.6-2-5.6-5q.1-4.5 5.6-6.8" class="MeasureNumber"/><path d="m288.3 1690-9.2-23.3-.4-1.5q-.1-1.4 3.1-1.3h2v-2.3h-15.6v2.3h1c2.3 0 3 .6 3.9 2.8l12.6 31.7h2l11.5-29.6c1.5-3.9 2.6-4.8 5.4-4.9h.5v-2.3h-13.5v2.3h1q3.9.1 4 2.6 0 1.2-.6 2.8zm18.4 2.2a3.1 3.1 0 1 0 3.1 3.1c0-1.7-1.4-3-3-3M288.3 445.5l-9.2-23.2q-.4-1-.4-1.5-.1-1.4 3.1-1.3h2v-2.3h-15.6v2.3h1c2.3.1 3 .6 3.9 2.8l12.6 31.7h2l11.5-29.6c1.5-3.9 2.6-4.8 5.4-4.9h.5v-2.3h-13.5v2.3h1q3.9.1 4 2.6 0 1.2-.6 2.8zm18.4 2.3a3.1 3.1 0 1 0 0 6.3 3.1 3.1 0 0 0 0-6.3M288.3 2934.3l-9.2-23.2-.4-1.5q-.1-1.4 3.1-1.3h2v-2.4h-15.6v2.4h1c2.3 0 3 .6 3.9 2.8l12.6 31.7h2l11.5-29.6c1.5-3.9 2.6-4.8 5.4-4.9h.5v-2.4h-13.5v2.4h1q3.9.1 4 2.6 0 1.2-.6 2.8zm18.4 2.2a3.1 3.1 0 1 0 0 6.2 3.1 3.1 0 0 0 0-6.2M224 3395.5h5.6c4.5 0 7-.4 9-1.3 3.5-1.7 5.5-5 5.5-8.9 0-8-7-10-13.6-10H213v2.4h.9c2.9.1 3.8.3 4.2.8.3.4.3.5.3 3v23.8c0 2.6 0 2.7-.3 3.1-.4.5-1.3.8-4.2.8h-.9v2.3h16.8v-2.3h-1.3c-2.9 0-3.8-.2-4.2-.7-.3-.5-.3-.6-.3-3.2zm0-2.3v-12.8c0-2.3.3-2.6 3-2.6h3.3q7.6 0 7.6 7.8t-7.8 7.6zm30.8-4.9-8.6.6v2.1h1.8c1.9 0 2.1.3 2.1 2.5v14.3q0 1-.3 1.3-.4.6-3.4.7h-.2v1.8h12.6v-1.8h-.2c-3.3-.1-3.8-.4-3.8-2.1v-7.4q0-4 1-5.9c1-2.2 3.2-3.8 5.4-3.8 1.3 0 2.8.7 3.5 1.8q1.1 1.4 1.1 5v10.4q0 1-.3 1.3-.3.6-3.5.7h-.2v1.8h12.7v-1.8h-.2c-3.3-.1-3.8-.4-3.8-2.1v-10.1c0-3.6-.1-4.5-1-6.2a7 7 0 0 0-6.8-3.9q-4.7 0-7.9 4.8zm33.2-.7c-6.2 0-11 5.4-11 12.4 0 6.8 4.9 12.3 10.9 12.3s10.8-5.4 10.8-12.4c0-6.8-4.8-12.4-10.7-12.4m0 2.2c3.5 0 5.4 3.7 5.4 10.2q-.1 10.2-5.5 10.3-5.5-.1-5.6-10.2 0-10.3 5.7-10.3m18.5 16.3a3.1 3.1 0 1 0 3.1 3.1c0-1.7-1.4-3-3-3M224 2151h5.6c4.5 0 7-.3 9-1.2 3.5-1.7 5.5-5 5.5-8.9 0-8-7-9.9-13.6-9.9H213v2.4h.9c2.9 0 3.8.2 4.2.7.3.4.3.5.3 3v23.9c0 2.5 0 2.6-.3 3-.4.6-1.3.8-4.2.8h-.9v2.3h16.8v-2.3h-1.3c-2.9 0-3.8-.2-4.2-.7-.3-.5-.3-.6-.3-3.1zm0-2.3V2136c0-2.3.3-2.5 3-2.5h3.3q7.6-.1 7.6 7.7t-7.8 7.6zm30.8-4.9-8.6.6v2.1h1.8c1.9 0 2.1.4 2.1 2.5v14.3q0 1-.3 1.3-.4.7-3.4.7h-.2v1.8h12.6v-1.8h-.2c-3.3 0-3.8-.3-3.8-2.1v-7.4q0-4 1-5.9c1-2.2 3.2-3.8 5.4-3.8 1.3 0 2.8.7 3.5 1.8q1.1 1.4 1.1 5v10.4q0 1-.3 1.3-.3.7-3.5.7h-.2v1.8h12.7v-1.8h-.2c-3.3 0-3.8-.3-3.8-2.1v-10c0-3.7-.1-4.6-1-6.3a7 7 0 0 0-6.8-3.8q-4.7 0-7.9 4.8zm33.2-.8c-6.2 0-11 5.4-11 12.4S282 2168 288 2168s10.8-5.5 10.8-12.4S294 2143 288 2143m0 2.1q5.3.2 5.4 10.3-.1 10-5.5 10.2-5.5-.2-5.6-10.2 0-10.2 5.7-10.3m18.5 16.4a3.1 3.1 0 1 0 3.1 3.1c0-1.7-1.4-3.1-3-3.1M224 906.7h5.6c4.5 0 7-.4 9-1.3 3.5-1.7 5.5-5 5.5-8.9 0-8-7-9.9-13.6-9.9H213v2.4h.9c2.9 0 3.8.2 4.2.7.3.4.3.5.3 3v23.9c0 2.5 0 2.6-.3 3-.4.6-1.3.8-4.2.8h-.9v2.3h16.8v-2.3h-1.3c-2.9 0-3.8-.2-4.2-.7-.3-.5-.3-.6-.3-3.1zm0-2.3v-12.8c0-2.3.3-2.5 3-2.5h3.3q7.6-.1 7.6 7.7t-7.8 7.6zm30.8-4.9-8.6.6v2.1h1.8c1.9 0 2.1.4 2.1 2.5V919q0 1-.3 1.3-.4.7-3.4.7h-.2v1.8h12.6V921h-.2c-3.3 0-3.8-.3-3.8-2.1v-7.4q0-4 1-5.9c1-2.2 3.2-3.8 5.4-3.8 1.3 0 2.8.7 3.5 1.8q1.1 1.4 1.1 5v10.4q0 1-.3 1.3-.3.7-3.5.7h-.2v1.8h12.7V921h-.2c-3.3 0-3.8-.3-3.8-2.1v-10c0-3.7-.1-4.6-1-6.3a7 7 0 0 0-6.8-3.8q-4.7 0-7.9 4.8zm33.2-.8c-6.2 0-11 5.4-11 12.4s4.9 12.4 10.9 12.4 10.8-5.5 10.8-12.4-4.8-12.4-10.7-12.4m0 2.1c3.5 0 5.4 3.7 5.4 10.3q-.1 10-5.5 10.2-5.5-.1-5.6-10.2t5.7-10.3m18.5 16.4a3.1 3.1 0 1 0 0 6.3 3.1 3.1 0 0 0 0-6.3" class="InstrumentName"/><path fill="none" stroke="#000" stroke-linejoin="bevel" stroke-width="4.5" d="M368.7 2873.6v340.6M368.7 384.8v340.6M2845.2 1629.2v101.9M1650.3 1629.2v101.9M368.7 1629.2v340.6M1675 2873.6v101.9M2845.2 384.8v102M2845.2 2873.6v101.9M1804.3 384.8v102M2845.2 3212.8v261.8M2845.2 724.1v261.7M368.7 1968.5v261.7M1804.3 724.1v261.7M1650.3 1968.5v261.7M2845.2 1968.5v261.7M368.7 724.1v261.7M368.7 3212.8v261.8M1675 3212.8v261.8M1650.3 2228.9v101.9M368.7 2228.9v101.9M2845.2 2228.9v101.9M2845.2 3473.2v102M368.7 3473.2v102M2845.2 984.5v101.9M1675 3473.2v102M1804.3 984.5v101.9M368.7 984.5v101.9" class="BarLine"/><path fill-rule="evenodd" stroke="#000" stroke-linecap="round" stroke-linejoin="round" stroke-width="1.2" d="M2126 2955c31.6 25.5 96.3 27.6 129.4 4.3-33.4 31.2-98 29.1-129.4-4.2M1516.4 2979.9c72 50.6 408.2 50.6 480.3 0-72 58.5-408.3 58.5-480.3 0M2291.6 401c34.5-31.7 101.5-29.5 134 4.3-32.8-26-99.8-28-134-4.2M523 380c15-22.3 44.8-22 59.5.5a43 43 0 0 0-59.5-.5M2437.4 1735.5c48.3 39 200 48.9 253 16.6-53.5 40.2-205.2 30.2-253-16.6" class="SlurSegment"/><path fill-rule="evenodd" stroke="#000" stroke-linecap="round" stroke-linejoin="round" stroke-width="1.2" d="M957.4 2955c25 12 99.6 12 124.4 0-24.8 20-99.5 20-124.4 0M1518 2955c45 31.6 180 31.6 225 0-45 39.5-180 39.5-225 0M2144 1710.7c24.2 12 97.1 12 121.4 0-24.3 19.8-97.2 19.8-121.5 0M1644 417.7c41.8-31.7 167.3-31.7 209.1 0-41.8-23.8-167.3-23.8-209.1 0M977 3245.7c21.5-25.1 86.1-25.1 107.7 0-21.6-17.2-86.2-17.2-107.8 0M949 2087.1c24.3 18.2 97.2 18.2 121.5 0-24.3 26.1-97.2 26.1-121.5 0M2147.1 3245.7c21.6-25.1 86.2-25.1 107.8 0-21.6-17.2-86.2-17.2-107.8 0M2312.6 757c22.5-25.5 90-25.5 112.4 0-22.4-17.5-89.9-17.5-112.4 0M2127.6 3331.5c24.9 18.4 99.5 18.4 124.4 0-24.9 26.3-99.5 26.3-124.4 0M2312.6 830.3c20.2 16.5 80.7 16.5 101 0-20.3 24.5-80.8 24.5-101 0M2293.2 880c25.8 18.7 103.2 18.7 129 0-25.8 26.6-103.2 26.6-129 0M1035.3 744.5c22.4-19.7 89.9-19.7 112.3 0-22.4-11.7-89.9-11.7-112.3 0M1035.3 818c20.1 17 80.7 17 100.8 0-20.1 25-80.7 25-100.8 0M2163.4 1989c21-19.7 83.9-19.7 104.9 0-21-11.7-84-11.7-104.9 0M1015.8 867.5c25.8 18.8 103.2 18.8 129 0-25.8 26.7-103.2 26.7-129 0M2163.4 2062.3c18.7 17 74.7 17 93.3 0-18.6 24.6-74.6 24.6-93.3 0M2144 2112c24.2 18 97.1 18 121.4 0-24.3 26-97.2 26-121.5 0M957.4 3331.5c25 18.4 99.6 18.4 124.4 0-24.8 26.3-99.5 26.3-124.4 0M968.5 2001.3c21-25.3 83.9-25.3 104.9 0-21-17.3-84-17.3-104.9 0M2144 2397.1c24.2 18.2 97.1 18.2 121.4 0-24.3 26.1-97.2 26.1-121.5 0M1015.8 1152.7c25.8 18.8 103.2 18.8 129 0-25.8 26.7-103.2 26.7-129 0M957.4 3616.7c25 18.4 99.6 18.4 124.4 0-24.8 26.3-99.5 26.3-124.4 0M949 2372.3c24.3 18.2 97.2 18.2 121.5 0-24.3 26.1-97.2 26.1-121.5 0M2127.6 3616.7c24.9 18.4 99.5 18.4 124.4 0-24.9 26.3-99.5 26.3-124.4 0" class="TieSegment"/><path d="M791.6 1676.2c0 7.9-4 12-9.8 16.6l.3-19.4c.2-.9 1.6-3.7 5.6-3.7 3.6 0 3.9 3.3 3.9 5.4zm-1.2-11.4c-5 0-7.9 3-8.3 3.7l.4-31.9q-.1-1.3-1.4-1.4h-1.2q-1.3.1-1.4 1.4l.5 59.7q.1 1.2 1.4 1.3.4 0 .8-.2c8.5-4.2 17.4-12.4 17.4-22.6 0-5.1-2.3-10-8.2-10M797.1 2920.6c0 7.8-4 12-9.8 16.6l.3-19.4c.2-.9 1.7-3.7 5.7-3.7 3.5 0 3.8 3.3 3.8 5.4zm-1.2-11.3c-5 0-7.8 3-8.3 3.7l.4-31.9q-.1-1.3-1.4-1.4h-1.2q-1.3.1-1.4 1.4l.5 59.6q.1 1.3 1.4 1.4.4 0 .8-.2c8.6-4.3 17.5-12.4 17.5-22.6 0-5.1-2.4-10-8.3-10M1944.3 1676.2c0 7.9-4 12-9.8 16.6l.3-19.4c.2-.9 1.7-3.7 5.6-3.7 3.6 0 4 3.3 4 5.4zm-1.3-11.4c-5 0-7.8 3-8.3 3.7l.4-31.9q-.1-1.3-1.4-1.4h-1.2q-1.3.1-1.4 1.4l.5 59.7q.1 1.2 1.4 1.3.4 0 .8-.2c8.5-4.2 17.5-12.4 17.5-22.6 0-5.1-2.4-10-8.3-10M2096.7 2920.6c0 7.8-4.1 12-9.8 16.6l.2-19.4c.2-.9 1.7-3.7 5.7-3.7 3.6 0 3.9 3.3 3.9 5.4zm-1.2-11.3c-5 0-7.9 3-8.4 3.7l.4-31.9q0-1.3-1.3-1.4h-1.2q-1.3.1-1.4 1.4l.5 59.6q.1 1.3 1.4 1.4.4 0 .8-.2c8.5-4.3 17.4-12.4 17.4-22.6 0-5.1-2.4-10-8.2-10M1706.4 3309.4c0 7.9-4 12-9.8 16.6l.3-19.3c.2-1 1.7-3.8 5.7-3.8 3.5 0 3.8 3.4 3.8 5.4zm-1.2-11.4c-5 0-7.8 3-8.3 3.7l.4-31.9q-.1-1.2-1.4-1.3h-1.2q-1.3.1-1.4 1.3l.5 59.7q.1 1.3 1.4 1.4l.8-.2c8.5-4.3 17.5-12.4 17.5-22.7 0-5.1-2.4-10-8.3-10M1717.1 3259.8c0 7.9-4 12-9.8 16.6l.3-19.3c.2-1 1.7-3.8 5.6-3.8 3.6 0 4 3.4 4 5.4zm-1.3-11.4c-5 0-7.8 3-8.3 3.7l.4-31.9q-.1-1.2-1.4-1.3h-1.2q-1.3.1-1.4 1.3l.5 59.7q.1 1.3 1.4 1.4l.8-.2c8.5-4.3 17.4-12.4 17.4-22.7 0-5.1-2.3-10-8.2-10M1710.7 3594.6c0 7.9-4.1 12-9.9 16.6l.3-19.3c.2-1 1.7-3.8 5.7-3.8 3.6 0 3.9 3.4 3.9 5.4zm-1.2-11.4c-5 0-7.9 3-8.4 3.7l.4-31.9q-.1-1.2-1.4-1.3h-1.1q-1.4.1-1.4 1.3l.5 59.7q0 1.3 1.4 1.4l.7-.2c8.6-4.3 17.5-12.4 17.5-22.7 0-5.1-2.4-10-8.2-10" class="Accidental"/><path fill="none" stroke="#000" stroke-linejoin="bevel" stroke-width="4" d="M2666.1 2093.8h48.6M1999.3 849.4h48.5M2177.9 849.4h48.6M1865.1 2093.8h48.5M1391.9 849.4h48.6M1704.6 849.4h48.6M1481.2 849.4h48.6M552 849.4h48.6M1675.3 2093.8h48.6M1615.2 849.4h48.6M2088.6 849.4h48.6M2750.4 2093.8h48.6M1302.6 849.4h48.5M2328.8 2093.8h48.6M2656.1 849.4h48.6M1123.9 849.4h48.6M2401.3 849.4h48.6M2118 2093.8h48.6M1213.2 849.4h48.6M1829.4 849.4h48.6M989.9 849.4h48.6M721.9 849.4h48.5M2267.3 849.4h48.6M811.2 849.4h48.6M2413.1 2093.8h48.6M2244.5 2093.8h48.6M900.5 849.4h48.6M2745.4 849.4h48.6M2539.6 2093.8h48.6M1949.4 2093.8h48.6M2118 2379h48.6M2118 2354.2h48.6M2666.1 2354.2h48.6M1999.3 1109.8h48.5M2033.7 2379h48.6M1829.4 1109.8h48.6M1829.4 1134.6h48.6M1865.1 2354.2h48.5M2033.7 2354.2h48.6M1865.1 2379h48.5M1949.4 2379h48.6M1949.4 2354.2h48.6M2177.9 1134.6h48.6M2656.1 1134.6h48.6M2656.1 1109.8h48.6M2745.4 1109.8h48.6M2745.4 1134.6h48.6M721.9 1134.6h48.5M721.9 1109.8h48.5M2267.3 1134.6h48.6M2267.3 1109.8h48.6M552 2354.2h48.6M712.3 2354.2h48.6M796.6 2354.2h48.6M923.1 2354.2h48.6M1049.6 2354.2h48.6M1999.3 1134.6h48.5M2177.9 1109.8h48.6M1133.9 2354.2h48.6M1218.3 2354.2h48.5M1344.7 2354.2h48.6M1471.2 2354.2h48.6M1555.5 2354.2h48.6M552 1134.6h48.6M2088.6 1134.6h48.6M2088.6 1109.8h48.6M552 1109.8h48.6M1675.3 2354.2h48.6M1675.3 2379h48.6M1972.4 3598.6h48.6M931.6 3598.6h48.5M1060.9 3598.6h48.6M1147.2 3598.6h48.5M1302.6 1134.6h48.5M1233.4 3598.6h48.6M1362.7 3598.6h48.6M1492.1 3598.6h48.6M1578.3 3598.6h48.6M1213.2 1134.6h48.6M1213.2 1109.8h48.6M1722.2 3598.6h48.6M1886.1 3598.6h48.6M1123.9 1134.6h48.6M1123.9 1109.8h48.6M1302.6 1109.8h48.5M2101.7 3598.6h48.6M2231.1 3598.6h48.6M2317.3 3598.6h48.6M2403.6 3598.6h48.6M2532.9 3598.6h48.6M2662.3 3598.6h48.6M989.9 1134.6h48.6M989.9 1109.8h48.6M2748.5 3598.6h48.6M900.5 1134.6h48.6M900.5 1109.8h48.6M811.2 1134.6h48.6M811.2 1109.8h48.6M1615.2 1109.8h48.6M2244.5 2354.2h48.6M2244.5 2379h48.6M2328.8 2354.2h48.6M2328.8 2379h48.6M2413.1 2354.2h48.6M2413.1 2379h48.6M2539.6 2354.2h48.6M1704.6 1134.6h48.6M1704.6 1109.8h48.6M2539.6 2379h48.6M2666.1 2379h48.6M1615.2 1134.6h48.6M2750.4 2354.2h48.6M2750.4 2379h48.6M802.2 3598.6h48.6M1481.2 1109.8h48.6M1391.9 1109.8h48.6M1391.9 1134.6h48.6M552 3598.6h48.6M1481.2 1134.6h48.6M716 3598.6h48.6" class="LedgerLine"/><path fill="none" stroke="#000" stroke-linejoin="bevel" stroke-width="2.5" d="M2270.3 2933v-76.6M1100.1 2933v-76.4M2157.2 1688.6V1612M2452.3 1701v-82.8M1257.4 1688.6V1612M841.4 2920.6v-64.2M2283.7 1688.6v-76.4M2572.1 2945.4v-82.8M1272.6 2945.4v-82.8M1088.8 1701v-82.6M1988.6 1676.2V1612M2140.9 2920.6v-64.2M2705.3 1725.8v-82.6M1841 1701v-89M2011.6 2945.4v-82.9M962.3 1688.6v-70.5M970.7 2933v-70.5M1761.3 2933v-76.6M1531.3 2933v-76.4M591.2 456.6v-82.8M835.8 1676.2V1612M2276.7 427.6v76.3M1624.7 440v76.3M1838.8 440v70.2M1341.7 456.6v-82.8M1163.1 444.2v-76.4M2410.7 440v70.2M2011.6 3309.4v-113.8M1520.4 845.5V688.2M962.3 2065.1v-113.9M1252.4 845.5V688.2M1988.6 2089.9v-151.1M2038.4 857.9V700.6M1925.3 3309.4v-120M755.1 3309.4v-120M841.4 3309.4v-113.8M835.8 2065.1v-113.9M2306.4 857.9V700.6M591.2 3309.4v-120M591.2 845.5V688.2M2140.9 3309.4v-113.8M751.5 2065.1V1945M2157.2 2089.9v-151.1M2270.3 3309.4v-120M1654.4 845.5V688.2M1163.1 845.5V688.2M1341.7 845.5V688.2M1594.7 2065.1V1945M1401.9 3309.4v-120M2217.1 857.9V700.6M1272.6 3309.4v-120M1510.4 2065.1V1945M1186.3 3309.4v-120M1714.5 2089.9v-157.3M1531.3 3309.4v-120M1383.9 2065.1V1945M1431.1 845.5V688.2M2784.6 857.9V700.6M1257.4 2065.1V1945M1617.5 3309.4v-120M1100.1 3309.4v-120M2127.8 857.9V700.6M1173.1 2065.1V1945M1761.3 3309.4v-120M970.7 3309.4v-113.8M1904.2 2089.9v-157.3M1088.8 2065.1V1945M2701.5 3309.4v-120M1868.6 857.9V700.6M2572.1 3309.4v-120M2705.3 2089.9v-157.3M2368 2089.9v-157.3M2789.6 2089.9v-157.3M1743.8 845.5V688.2M1029.1 845.5V688.2M761 845.5V688.2M2440.5 857.9V700.6M2442.8 3309.4v-120M591.2 2065.1V1945M850.4 845.5V688.2M2787.7 3309.4v-120M2356.5 3309.4v-120M2283.7 2089.9v-157.3M939.7 845.5V688.2M2578.8 2089.9v-157.3M2695.3 857.9V700.6M2452.3 2089.9v-157.3M2217.1 1143.1v-101.5M1252.4 1130.7v-89.1M850.4 1130.7v-89.1M1173.1 2350.3v-70.5M1617.5 3594.6v-70.4M761 1130.7v-89.1M2452.3 2375.1V2286M970.7 3594.6v-70.4M1714.5 2375.1V2286M1383.9 2350.3v-70.5M1272.6 3594.6v-70.4M1594.7 2350.3v-70.5M1510.4 2350.3v-70.5M2578.8 2375.1V2286M1341.7 1130.7v-89.1M1743.8 1130.7v-89.1M1401.9 3594.6v-70.4M1186.3 3594.6v-70.4M2127.8 1143.1v-101.5M2787.7 3594.6v-70.4M2784.6 1143.1v-101.5M2695.3 1143.1v-101.5M939.7 1130.7v-89.1M1100.1 3594.6v-70.4M1257.4 2350.3v-70.5M1531.3 3594.6v-70.4M841.4 3594.6v-70.4M1029.1 1130.7v-89.1M1654.4 1130.7v-89.1M591.2 3594.6v-70.4M1088.8 2350.3v-70.5M2306.4 1143.1v-107.7M2011.6 3594.6v-70.4M1163.1 1130.7v-89.1M1868.6 1143.1v-101.5M751.5 2350.3v-70.5M2789.6 2375.1V2286M2072.9 2375.1V2286M2356.5 3594.6v-70.4M1520.4 1130.7v-89.1M2140.9 3594.6v-70.4M591.2 1130.7v-89.1M2157.2 2375.1V2286M591.2 2350.3v-70.5M2270.3 3594.6v-70.4M1761.3 3594.6v-70.4M2701.5 3594.6v-70.4M2368 2375.1V2286M1431.1 1130.7v-89.1M1904.2 2375.1V2286M2038.4 1143.1v-101.5M962.3 2350.3v-70.5M2442.8 3594.6v-70.4M2705.3 2368.5V2286M2572.1 3594.6v-70.4M755.1 3594.6v-70.4M835.8 2350.3v-70.5M1925.3 3594.6v-70.4M1988.6 2375.1V2286M2283.7 2375.1V2286" class="Stem"/><path d="M1098.9 2878.9q-.2.6.7 1a40 40 0 0 1 19.3 17.8c1.8 3.1 4.7 7.4 4.7 15.6a65 65 0 0 1-4.5 21.6q-.4.9-.3 1.5 0 1 1 1t1.6-1c4.4-8 6.1-17.2 6.1-26.3-.5-12.8-7.8-22.2-7.8-22.2.3 0-9.1-12.2-11.8-16.4-3.7-5.6-5.4-11.3-5.6-11.7l-1-3.8q-.1-.7-1.2-.8-1.1.1-1.2 1.3zM1623.4 516.3q.1 1.2 1.3 1.3.9-.1 1.2-.8l1-3.9c0-.4 1-4.1 4.5-10 4-6.4 9.9-11.1 14.8-18s7.9-13.5 7.9-22.3c0-9-2.1-16.5-7.4-26.2q-.5-1-1.5-1h-.5q-.7.3-.7 1.2l.3 1.2c4 9.3 5.6 14.5 5.6 21.7 0 8.2-2.9 12.5-4.7 15.5a42 42 0 0 1-21 17.8q-1 .6-.8 1zM2704 1665.5q-.1.6.8 1a40 40 0 0 1 19.3 17.8c1.8 3.1 4.7 7.4 4.7 15.6a65 65 0 0 1-4.5 21.6q-.4 1-.3 1.5 0 1 1 1t1.6-1c4.4-8 6.1-17.2 6.1-26.3-.5-12.8-7.8-22.2-7.8-22.2.3 0-9.1-12.2-11.8-16.3-3.7-5.7-5.4-11.3-5.6-11.7l-1-4q-.1-.6-1.2-.7-1.1.1-1.2 1.3zM1530 2878.9q-.1.6.8 1a40 40 0 0 1 19.3 17.8c1.8 3.1 4.6 7.4 4.6 15.6a65 65 0 0 1-4.4 21.6q-.4.9-.3 1.5 0 1 1 1t1.6-1c4.4-8 6.1-17.2 6.1-26.3-.5-12.8-7.8-22.2-7.8-22.2.3 0-9.2-12.2-11.8-16.4-3.7-5.6-5.4-11.3-5.6-11.7l-1-3.8q-.1-.7-1.2-.8-1.2.1-1.3 1.3zM2282.4 1634.5q-.1.6.8 1a40 40 0 0 1 19.3 17.8c1.8 3.1 4.6 7.4 4.6 15.6a65 65 0 0 1-4.4 21.6q-.4 1-.3 1.5 0 1 1 1t1.6-1c4.4-8 6.1-17.2 6.1-26.3-.5-12.8-7.8-22.2-7.8-22.2.3 0-9.2-12.2-11.8-16.3-3.7-5.7-5.4-11.3-5.6-11.7l-1-4q-.2-.6-1.2-.7-1.2.1-1.3 1.3zM1087.6 1640.7q-.2.6.7 1a40 40 0 0 1 19.3 17.8c1.8 3.1 4.7 7.4 4.7 15.6a65 65 0 0 1-4.5 21.6q-.4 1-.3 1.5 0 1 1 1t1.6-1c4.4-8 6.1-17.2 6.1-26.3-.5-12.8-7.8-22.2-7.8-22.2.3 0-9.1-12.2-11.8-16.3-3.7-5.7-5.4-11.3-5.6-11.7l-1-4q-.1-.6-1.2-.7-1.1.1-1.2 1.3zM2275.4 504q.1 1 1.3 1.2.9-.1 1.2-.8l1-3.9c.1-.4 1-4.1 4.6-10 3.8-6.4 9.8-11.1 14.8-18 4.8-7 7.8-13.5 7.8-22.3 0-9-2-16.5-7.3-26.2q-.6-1-1.5-1h-.5q-.7.3-.7 1.2 0 .5.3 1.2c4 9.3 5.5 14.5 5.5 21.7 0 8.2-2.9 12.5-4.6 15.5a42 42 0 0 1-21 17.8q-1 .6-.9 1zM1161.8 390.1q-.1.5.8 1.1A40 40 0 0 1 1182 409c1.7 3 4.6 7.3 4.6 15.5a65 65 0 0 1-4.4 21.7q-.4.8-.3 1.5 0 1 1 1t1.5-1.1c4.5-8 6.2-17.2 6.2-26.2-.5-12.8-7.8-22.3-7.8-22.3.2 0-9.2-12.2-11.9-16.3-3.6-5.7-5.3-11.3-5.5-11.7l-1-3.9q-.1-.7-1.2-.8-1.2.1-1.3 1.3z" class="Hook"/><path d="M1057.8 1709.1c0 4.3 3 9 11.1 9 10.3 0 21.1-8.4 21.1-17 0-6-5-9.2-11-9.2-9.7 0-21.2 8.1-21.2 17.2M1226.4 1696.7c0 4.3 3.1 9 11.1 9 10.4 0 21.2-8.4 21.2-17 0-6-5-9.2-11.1-9.2-9.7 0-21.2 8.1-21.2 17.2M560.2 464.8c0 4.2 3 9 11 9 10.4 0 21.2-8.4 21.2-17.2 0-5.8-5-9.1-11.1-9.1-9.6 0-21.1 8.1-21.1 17.3M1310.7 464.8c0 4.2 3.1 9 11.1 9 10.4 0 21.2-8.4 21.2-17.2 0-5.8-5-9.1-11.1-9.1-9.7 0-21.2 8.1-21.2 17.3M1837.6 440c0 4.2 3 9 11 9 10.4 0 21.2-8.4 21.2-17.2 0-5.8-5-9.1-11.1-9.1-9.6 0-21.2 8.1-21.2 17.3M1730.3 2941.1c0 4.3 3.1 9 11.2 9 10.3 0 21-8.4 21-17.1 0-5.9-4.9-9.1-11-9.1-9.7 0-21.2 8.1-21.2 17.2M1810 1709.1c0 4.3 3 9 11.1 9 10.3 0 21.1-8.4 21.1-17 0-6-5-9.2-11-9.2-9.7 0-21.2 8.1-21.2 17.2M2416.9 444.3c-3.3 0-4-2.6-4-3.5 0-5 16.7-13.4 21.4-13.4 2.3 0 4 1.4 4 3.5 0 5-16.9 13.4-21.4 13.4m13.7-21.6c-9.6 0-21.2 8-21.2 17.3 0 4.2 3.1 9 11.2 9 10.3 0 21-8.4 21-17.2 0-5.8-4.9-9.1-11-9.1M939.7 2941.1c0 4.3 3.1 9 11.2 9 10.3 0 21-8.4 21-17.1 0-5.9-4.9-9.1-11-9.1-9.7 0-21.2 8.1-21.2 17.2M1980.6 2953.5c0 4.3 3 9 11 9 10.4 0 21.2-8.4 21.2-17.1 0-5.9-5-9.1-11.1-9.1-9.6 0-21.1 8.1-21.1 17.2M1132 452.4c0 4.2 3.1 9 11.2 9 10.3 0 21.1-8.4 21.1-17.2 0-5.8-5-9.1-11.1-9.1-9.6 0-21.1 8.1-21.1 17.3M2275.4 427.6c0 4.2 3.1 9 11.2 9 10.3 0 21-8.4 21-17.2 0-5.8-4.9-9.1-11-9.1-9.7 0-21.2 8.1-21.2 17.3M931.3 1696.7c0 4.3 3 9 11.1 9 10.3 0 21.1-8.4 21.1-17 0-6-5-9.2-11-9.2-9.7 0-21.2 8.1-21.2 17.2M810.4 2928.7c0 4.3 3 9 11 9 10.4 0 21.2-8.4 21.2-17.1 0-5.9-5-9.1-11-9.1-9.7 0-21.2 8.1-21.2 17.2M1957.6 1684.3c0 4.3 3 9 11 9 10.4 0 21.2-8.4 21.2-17 0-6-5-9.2-11.1-9.2-9.6 0-21.1 8.1-21.1 17.2M2541.1 2953.5c0 4.3 3 9 11.1 9 10.3 0 21.2-8.4 21.2-17.1 0-5.9-5-9.1-11.2-9.1-9.6 0-21 8.1-21 17.2M2239.3 2941.1c0 4.3 3 9 11 9 10.4 0 21.2-8.4 21.2-17.1 0-5.9-5-9.1-11.1-9.1-9.6 0-21.1 8.1-21.1 17.2M1069 2941.1c0 4.3 3.2 9 11.2 9 10.3 0 21.1-8.4 21.1-17.1 0-5.9-5-9.1-11-9.1-9.7 0-21.2 8.1-21.2 17.2M2421.3 1709.1c0 4.3 3.1 9 11.1 9 10.4 0 21.2-8.4 21.2-17 0-6-5-9.2-11.1-9.2-9.7 0-21.2 8.1-21.2 17.2M1623.4 440c0 4.2 3 9 11.1 9 10.3 0 21.2-8.4 21.2-17.2 0-5.8-5-9.1-11.2-9.1-9.6 0-21 8.1-21 17.3M1241.6 2953.5c0 4.3 3 9 11 9 10.4 0 21.2-8.4 21.2-17.1 0-5.9-5-9.1-11.1-9.1-9.6 0-21.1 8.1-21.1 17.2M2252.7 1696.7c0 4.3 3 9 11 9 10.4 0 21.2-8.4 21.2-17 0-6-5-9.2-11-9.2-9.7 0-21.2 8.1-21.2 17.2M804.8 1684.3c0 4.3 3 9 11.1 9 10.3 0 21.2-8.4 21.2-17 0-6-5-9.2-11.2-9.2-9.6 0-21 8.1-21 17.2M1500.3 2941.1c0 4.3 3 9 11 9 10.4 0 21.2-8.4 21.2-17.1 0-5.9-5-9.1-11-9.1-9.7 0-21.2 8.1-21.2 17.2M2126.2 1696.7c0 4.3 3 9 11.1 9 10.3 0 21.1-8.4 21.1-17 0-6-5-9.2-11-9.2-9.7 0-21.2 8.1-21.2 17.2M2674.3 1734c0 4.2 3 9 11.1 9 10.3 0 21.1-8.5 21.1-17.2 0-5.8-5-9.1-11-9.1-9.7 0-21.2 8.1-21.2 17.2M2110 2928.7c0 4.3 3 9 11 9 10.3 0 21.2-8.4 21.2-17.1 0-5.9-5-9.1-11.2-9.1-9.6 0-21 8.1-21 17.2M2411.8 3317.6c0 4.2 3 9 11 9 10.4 0 21.2-8.4 21.2-17.2 0-5.8-5-9.1-11.1-9.1-9.6 0-21.2 8.1-21.2 17.3M1132 853.6c0 4.3 3.1 9 11.2 9 10.3 0 21.1-8.4 21.1-17.1 0-5.9-5-9.2-11.1-9.2-9.6 0-21.1 8.2-21.1 17.3M2239.3 3317.6c0 4.2 3 9 11 9 10.4 0 21.2-8.4 21.2-17.2 0-5.8-5-9.1-11.1-9.1-9.6 0-21.1 8.1-21.1 17.3M1623.4 853.6c0 4.3 3 9 11.1 9 10.3 0 21.2-8.4 21.2-17.1 0-5.9-5-9.2-11.2-9.2-9.6 0-21 8.2-21 17.3M2239.3 3268c0 4.2 3 9 11 9 10.4 0 21.2-8.4 21.2-17.2 0-5.8-5-9.1-11.1-9.1-9.6 0-21.1 8.1-21.1 17.3M2411.8 3268c0 4.2 3 9 11 9 10.4 0 21.2-8.4 21.2-17.2 0-5.8-5-9.1-11.1-9.1-9.6 0-21.2 8.1-21.2 17.3M560.2 766.8c0 4.3 3 9 11 9 10.4 0 21.2-8.4 21.2-17.1 0-5.9-5-9.2-11.1-9.2-9.6 0-21.1 8.2-21.1 17.3M1623.4 804c0 4.3 3 9 11.1 9 10.3 0 21.2-8.4 21.2-17.1 0-5.9-5-9.2-11.2-9.2-9.6 0-21 8.2-21 17.3M1623.4 766.8c0 4.3 3 9 11.1 9 10.3 0 21.2-8.4 21.2-17.1 0-5.9-5-9.2-11.2-9.2-9.6 0-21 8.2-21 17.3M2325.5 3317.6c0 4.2 3 9 11.1 9 10.3 0 21.2-8.4 21.2-17.2 0-5.8-5-9.1-11.2-9.1-9.6 0-21 8.1-21 17.3M2541.1 3268c0 4.2 3 9 11.1 9 10.3 0 21.2-8.4 21.2-17.2 0-5.8-5-9.1-11.2-9.1-9.6 0-21 8.1-21 17.3M2325.5 3268c0 4.2 3 9 11.1 9 10.3 0 21.2-8.4 21.2-17.2 0-5.8-5-9.1-11.2-9.1-9.6 0-21 8.1-21 17.3M2756.7 3268c0 4.2 3 9 11.1 9 10.3 0 21.1-8.4 21.1-17.2 0-5.8-5-9.1-11-9.1-9.7 0-21.2 8.1-21.2 17.3M2547.8 2048.4c0 4.3 3 9 11.1 9 10.3 0 21.2-8.4 21.2-17.1 0-6-5-9.2-11.2-9.2-9.6 0-21 8.2-21 17.3M2547.8 2011.2c0 4.3 3 9 11.1 9 10.3 0 21.2-8.4 21.2-17.1 0-6-5-9.2-11.2-9.2-9.6 0-21 8.2-21 17.3M908.7 853.6c0 4.3 3 9 11.1 9 10.3 0 21.2-8.4 21.2-17.1 0-5.9-5-9.2-11.2-9.2-9.6 0-21 8.2-21 17.3M908.7 804c0 4.3 3 9 11.1 9 10.3 0 21.2-8.4 21.2-17.1 0-5.9-5-9.2-11.2-9.2-9.6 0-21 8.2-21 17.3M908.7 766.8c0 4.3 3 9 11.1 9 10.3 0 21.2-8.4 21.2-17.1 0-5.9-5-9.2-11.2-9.2-9.6 0-21 8.2-21 17.3M998 853.6c0 4.3 3.1 9 11.2 9 10.3 0 21-8.4 21-17.1 0-5.9-4.9-9.2-11-9.2-9.6 0-21.2 8.2-21.2 17.3M998 804c0 4.3 3.1 9 11.2 9 10.3 0 21-8.4 21-17.1 0-5.9-4.9-9.2-11-9.2-9.6 0-21.2 8.2-21.2 17.3M1712.8 766.8c0 4.3 3 9 11 9 10.4 0 21.2-8.4 21.2-17.1 0-5.9-5-9.2-11.1-9.2-9.6 0-21.2 8.2-21.2 17.3M998 766.8c0 4.3 3.1 9 11.2 9 10.3 0 21-8.4 21-17.1 0-5.9-4.9-9.2-11-9.2-9.6 0-21.2 8.2-21.2 17.3M2674.3 2098c0 4.3 3 9 11.1 9 10.3 0 21.1-8.4 21.1-17.1 0-6-5-9.2-11-9.2-9.7 0-21.2 8.2-21.2 17.3M2758.6 2011.2c0 4.3 3 9 11.1 9 10.3 0 21.2-8.4 21.2-17.1 0-6-5-9.2-11.2-9.2-9.6 0-21 8.2-21 17.3M2674.3 2048.4c0 4.3 3 9 11.1 9 10.3 0 21.1-8.4 21.1-17.1 0-6-5-9.2-11-9.2-9.7 0-21.2 8.2-21.2 17.3M2756.7 3317.6c0 4.2 3 9 11.1 9 10.3 0 21.1-8.4 21.1-17.2 0-5.8-5-9.1-11-9.1-9.7 0-21.2 8.1-21.2 17.3M2674.3 2011.2c0 4.3 3 9 11.1 9 10.3 0 21.1-8.4 21.1-17.1 0-6-5-9.2-11-9.2-9.7 0-21.2 8.2-21.2 17.3M2670.5 3268c0 4.2 3 9 11 9 10.4 0 21.2-8.4 21.2-17.2 0-5.8-5-9.1-11.1-9.1-9.6 0-21.1 8.1-21.1 17.3M2670.5 3317.6c0 4.2 3 9 11 9 10.4 0 21.2-8.4 21.2-17.2 0-5.8-5-9.1-11.1-9.1-9.6 0-21.1 8.1-21.1 17.3M1712.8 853.6c0 4.3 3 9 11 9 10.4 0 21.2-8.4 21.2-17.1 0-5.9-5-9.2-11.1-9.2-9.6 0-21.2 8.2-21.2 17.3M1980.6 3268c0 4.2 3 9 11 9 10.4 0 21.2-8.4 21.2-17.2 0-5.8-5-9.1-11.1-9.1-9.6 0-21.1 8.1-21.1 17.3M2541.1 3317.6c0 4.2 3 9 11.1 9 10.3 0 21.2-8.4 21.2-17.2 0-5.8-5-9.1-11.2-9.1-9.6 0-21 8.1-21 17.3M2758.6 2098c0 4.3 3 9 11.1 9 10.3 0 21.2-8.4 21.2-17.1 0-6-5-9.2-11.2-9.2-9.6 0-21 8.2-21 17.3M2758.6 2048.4c0 4.3 3 9 11.1 9 10.3 0 21.2-8.4 21.2-17.1 0-6-5-9.2-11.2-9.2-9.6 0-21 8.2-21 17.3M1500.3 3268c0 4.2 3 9 11 9 10.4 0 21.2-8.4 21.2-17.2 0-5.8-5-9.1-11-9.1-9.7 0-21.2 8.1-21.2 17.3M1221.4 766.8c0 4.3 3 9 11.1 9 10.3 0 21.1-8.4 21.1-17.1 0-5.9-5-9.2-11-9.2-9.7 0-21.2 8.2-21.2 17.3M1730.3 3317.6c0 4.2 3.1 9 11.2 9 10.3 0 21-8.4 21-17.2 0-5.8-4.9-9.1-11-9.1-9.7 0-21.2 8.1-21.2 17.3M939.7 3317.6c0 4.2 3.1 9 11.2 9 10.3 0 21-8.4 21-17.2 0-5.8-4.9-9.1-11-9.1-9.7 0-21.2 8.1-21.2 17.3M939.7 3268c0 4.2 3.1 9 11.2 9 10.3 0 21-8.4 21-17.2 0-5.8-4.9-9.1-11-9.1-9.7 0-21.2 8.1-21.2 17.3M1400 804c0 4.3 3.1 9 11.2 9 10.3 0 21.1-8.4 21.1-17.1 0-5.9-5-9.2-11.1-9.2-9.6 0-21.1 8.2-21.1 17.3M1586.5 3268c0 4.2 3 9 11.1 9 10.3 0 21.2-8.4 21.2-17.2 0-5.8-5-9.1-11.2-9.1-9.6 0-21 8.1-21 17.3M1400 853.6c0 4.3 3.1 9 11.2 9 10.3 0 21.1-8.4 21.1-17.1 0-5.9-5-9.2-11.1-9.2-9.6 0-21.1 8.2-21.1 17.3M1586.5 3317.6c0 4.2 3 9 11.1 9 10.3 0 21.2-8.4 21.2-17.2 0-5.8-5-9.1-11.2-9.1-9.6 0-21 8.1-21 17.3M1069 3317.6c0 4.2 3.2 9 11.2 9 10.3 0 21.1-8.4 21.1-17.2 0-5.8-5-9.1-11-9.1-9.7 0-21.2 8.1-21.2 17.3M1069 3268c0 4.2 3.2 9 11.2 9 10.3 0 21.1-8.4 21.1-17.2 0-5.8-5-9.1-11-9.1-9.7 0-21.2 8.1-21.2 17.3M1400 766.8c0 4.3 3.1 9 11.2 9 10.3 0 21.1-8.4 21.1-17.1 0-5.9-5-9.2-11.1-9.2-9.6 0-21.1 8.2-21.1 17.3M1500.3 3317.6c0 4.2 3 9 11 9 10.4 0 21.2-8.4 21.2-17.2 0-5.8-5-9.1-11-9.1-9.7 0-21.2 8.1-21.2 17.3M1310.7 853.6c0 4.3 3.1 9 11.1 9 10.4 0 21.2-8.4 21.2-17.1 0-5.9-5-9.2-11.1-9.2-9.7 0-21.2 8.2-21.2 17.3M1155.3 3317.6c0 4.2 3.1 9 11.1 9 10.4 0 21.2-8.4 21.2-17.2 0-5.8-5-9.1-11.1-9.1-9.7 0-21.2 8.1-21.2 17.3M1155.3 3268c0 4.2 3.1 9 11.1 9 10.4 0 21.2-8.4 21.2-17.2 0-5.8-5-9.1-11.1-9.1-9.7 0-21.2 8.1-21.2 17.3M1712.8 804c0 4.3 3 9 11 9 10.4 0 21.2-8.4 21.2-17.1 0-5.9-5-9.2-11.1-9.2-9.6 0-21.2 8.2-21.2 17.3M1310.7 804c0 4.3 3.1 9 11.1 9 10.4 0 21.2-8.4 21.2-17.1 0-5.9-5-9.2-11.1-9.2-9.7 0-21.2 8.2-21.2 17.3M1371 3268c0 4.2 3 9 11 9 10.4 0 21.2-8.4 21.2-17.2 0-5.8-5-9.1-11.1-9.1-9.7 0-21.2 8.1-21.2 17.3M1371 3317.6c0 4.2 3 9 11 9 10.4 0 21.2-8.4 21.2-17.2 0-5.8-5-9.1-11.1-9.1-9.7 0-21.2 8.1-21.2 17.3M1241.6 3317.6c0 4.2 3 9 11 9 10.4 0 21.2-8.4 21.2-17.2 0-5.8-5-9.1-11.1-9.1-9.6 0-21.1 8.1-21.1 17.3M1241.6 3268c0 4.2 3 9 11 9 10.4 0 21.2-8.4 21.2-17.2 0-5.8-5-9.1-11.1-9.1-9.6 0-21.1 8.1-21.1 17.3M1489.4 804c0 4.3 3 9 11.1 9 10.3 0 21.2-8.4 21.2-17.1 0-5.9-5-9.2-11.2-9.2-9.6 0-21 8.2-21 17.3M560.2 804c0 4.3 3 9 11 9 10.4 0 21.2-8.4 21.2-17.1 0-5.9-5-9.2-11.1-9.2-9.6 0-21.1 8.2-21.1 17.3M2110 3268c0 4.2 3 9 11 9 10.3 0 21.2-8.4 21.2-17.2 0-5.8-5-9.1-11.2-9.1-9.6 0-21 8.1-21 17.3M2110 3317.6c0 4.2 3 9 11 9 10.3 0 21.2-8.4 21.2-17.2 0-5.8-5-9.1-11.2-9.1-9.6 0-21 8.1-21 17.3M560.2 853.6c0 4.3 3 9 11 9 10.4 0 21.2-8.4 21.2-17.1 0-5.9-5-9.2-11.1-9.2-9.6 0-21.1 8.2-21.1 17.3M1489.4 766.8c0 4.3 3 9 11.1 9 10.3 0 21.2-8.4 21.2-17.1 0-5.9-5-9.2-11.2-9.2-9.6 0-21 8.2-21 17.3M1132 766.8c0 4.3 3.1 9 11.2 9 10.3 0 21.1-8.4 21.1-17.1 0-5.9-5-9.2-11.1-9.2-9.6 0-21.1 8.2-21.1 17.3M1310.7 766.8c0 4.3 3.1 9 11.1 9 10.4 0 21.2-8.4 21.2-17.1 0-5.9-5-9.2-11.1-9.2-9.7 0-21.2 8.2-21.2 17.3M560.2 3317.6c0 4.2 3 9 11 9 10.4 0 21.2-8.4 21.2-17.2 0-5.8-5-9.1-11.1-9.1-9.6 0-21.1 8.1-21.1 17.3M560.2 3268c0 4.2 3 9 11 9 10.4 0 21.2-8.4 21.2-17.2 0-5.8-5-9.1-11.1-9.1-9.6 0-21.1 8.1-21.1 17.3M1980.6 3317.6c0 4.2 3 9 11 9 10.4 0 21.2-8.4 21.2-17.2 0-5.8-5-9.1-11.1-9.1-9.6 0-21.1 8.1-21.1 17.3M1132 804c0 4.3 3.1 9 11.2 9 10.3 0 21.1-8.4 21.1-17.1 0-5.9-5-9.2-11.1-9.2-9.6 0-21.1 8.2-21.1 17.3M1894.3 3268c0 4.2 3 9 11.1 9 10.3 0 21.2-8.4 21.2-17.2 0-5.8-5-9.1-11.2-9.1-9.6 0-21 8.1-21 17.3M724.1 3317.6c0 4.2 3.1 9 11.2 9 10.3 0 21-8.4 21-17.2 0-5.8-4.9-9.1-11-9.1-9.7 0-21.2 8.1-21.2 17.3M724.1 3268c0 4.2 3.1 9 11.2 9 10.3 0 21-8.4 21-17.2 0-5.8-4.9-9.1-11-9.1-9.7 0-21.2 8.1-21.2 17.3M1894.3 3317.6c0 4.2 3 9 11.1 9 10.3 0 21.2-8.4 21.2-17.2 0-5.8-5-9.1-11.2-9.1-9.6 0-21 8.1-21 17.3M1489.4 853.6c0 4.3 3 9 11.1 9 10.3 0 21.2-8.4 21.2-17.1 0-5.9-5-9.2-11.2-9.2-9.6 0-21 8.2-21 17.3M1221.4 853.6c0 4.3 3 9 11.1 9 10.3 0 21.1-8.4 21.1-17.1 0-5.9-5-9.2-11-9.2-9.7 0-21.2 8.2-21.2 17.3M1221.4 804c0 4.3 3 9 11.1 9 10.3 0 21.1-8.4 21.1-17.1 0-5.9-5-9.2-11-9.2-9.7 0-21.2 8.2-21.2 17.3M810.4 3317.6c0 4.2 3 9 11 9 10.4 0 21.2-8.4 21.2-17.2 0-5.8-5-9.1-11-9.1-9.7 0-21.2 8.1-21.2 17.3M810.4 3268c0 4.2 3 9 11 9 10.4 0 21.2-8.4 21.2-17.2 0-5.8-5-9.1-11-9.1-9.7 0-21.2 8.1-21.2 17.3M1730.3 3268c0 4.2 3.1 9 11.2 9 10.3 0 21-8.4 21-17.2 0-5.8-4.9-9.1-11-9.1-9.7 0-21.2 8.1-21.2 17.3M2186.1 816.4c0 4.3 3 9 11.1 9 10.3 0 21.1-8.4 21.1-17.1 0-5.9-5-9.2-11-9.2-9.7 0-21.2 8.2-21.2 17.3M1479.4 2023.6c0 4.3 3 9 11.1 9 10.3 0 21.1-8.4 21.1-17.1 0-6-5-9.2-11-9.2-9.7 0-21.2 8.2-21.2 17.3M1479.4 2073.2c0 4.3 3 9 11.1 9 10.3 0 21.1-8.4 21.1-17.1 0-6-5-9.2-11-9.2-9.7 0-21.2 8.2-21.2 17.3M2409.5 866c0 4.3 3 9 11 9 10.4 0 21.2-8.4 21.2-17.1 0-5.9-5-9.2-11.1-9.2-9.6 0-21.2 8.2-21.2 17.3M2409.5 816.4c0 4.3 3 9 11 9 10.4 0 21.2-8.4 21.2-17.1 0-5.9-5-9.2-11.1-9.2-9.6 0-21.2 8.2-21.2 17.3M2547.8 2098c0 4.3 3 9 11.1 9 10.3 0 21.2-8.4 21.2-17.1 0-6-5-9.2-11.2-9.2-9.6 0-21 8.2-21 17.3M2186.1 866c0 4.3 3 9 11.1 9 10.3 0 21.1-8.4 21.1-17.1 0-5.9-5-9.2-11-9.2-9.7 0-21.2 8.2-21.2 17.3M1353 2023.6c0 4.3 3 9 11 9 10.3 0 21.2-8.4 21.2-17.1 0-6-5-9.2-11.2-9.2-9.6 0-21 8.2-21 17.3M2409.5 779.2c0 4.3 3 9 11 9 10.4 0 21.2-8.4 21.2-17.1 0-5.9-5-9.2-11.1-9.2-9.6 0-21.2 8.2-21.2 17.3M2664.3 866c0 4.3 3 9 11 9 10.4 0 21.2-8.4 21.2-17.1 0-5.9-5-9.2-11.1-9.2-9.6 0-21.1 8.2-21.1 17.3M1353 2073.2c0 4.3 3 9 11 9 10.3 0 21.2-8.4 21.2-17.1 0-6-5-9.2-11.2-9.2-9.6 0-21 8.2-21 17.3M1957.6 2011.2c0 4.3 3 9 11 9 10.4 0 21.2-8.4 21.2-17.1 0-6-5-9.2-11.1-9.2-9.6 0-21.1 8.2-21.1 17.3M1226.4 2023.6c0 4.3 3.1 9 11.1 9 10.4 0 21.2-8.4 21.2-17.1 0-6-5-9.2-11.1-9.2-9.7 0-21.2 8.2-21.2 17.3M1226.4 2073.2c0 4.3 3.1 9 11.1 9 10.4 0 21.2-8.4 21.2-17.1 0-6-5-9.2-11.1-9.2-9.7 0-21.2 8.2-21.2 17.3M560.2 2073.2c0 4.3 3 9 11 9 10.4 0 21.2-8.4 21.2-17.1 0-6-5-9.2-11.1-9.2-9.6 0-21.1 8.2-21.1 17.3M2186.1 779.2c0 4.3 3 9 11.1 9 10.3 0 21.1-8.4 21.1-17.1 0-5.9-5-9.2-11-9.2-9.7 0-21.2 8.2-21.2 17.3M560.2 2023.6c0 4.3 3 9 11 9 10.4 0 21.2-8.4 21.2-17.1 0-6-5-9.2-11.1-9.2-9.6 0-21.1 8.2-21.1 17.3M1142.1 2023.6c0 4.3 3 9 11.1 9 10.3 0 21.2-8.4 21.2-17.1 0-6-5-9.2-11.2-9.2-9.6 0-21 8.2-21 17.3M2126.2 2098c0 4.3 3 9 11.1 9 10.3 0 21.1-8.4 21.1-17.1 0-6-5-9.2-11-9.2-9.7 0-21.2 8.2-21.2 17.3M1142.1 2073.2c0 4.3 3 9 11.1 9 10.3 0 21.2-8.4 21.2-17.1 0-6-5-9.2-11.2-9.2-9.6 0-21 8.2-21 17.3M2664.3 779.2c0 4.3 3 9 11 9 10.4 0 21.2-8.4 21.2-17.1 0-5.9-5-9.2-11.1-9.2-9.6 0-21.1 8.2-21.1 17.3M1873.2 2098c0 4.3 3.1 9 11.1 9 10.4 0 21.2-8.4 21.2-17.1 0-6-5-9.2-11.1-9.2-9.7 0-21.2 8.2-21.2 17.3M1683.5 2011.2c0 4.3 3 9 11.1 9 10.3 0 21.2-8.4 21.2-17.1 0-6-5-9.2-11.2-9.2-9.6 0-21 8.2-21 17.3M1683.5 2048.4c0 4.3 3 9 11.1 9 10.3 0 21.2-8.4 21.2-17.1 0-6-5-9.2-11.2-9.2-9.6 0-21 8.2-21 17.3M1683.5 2098c0 4.3 3 9 11.1 9 10.3 0 21.2-8.4 21.2-17.1 0-6-5-9.2-11.2-9.2-9.6 0-21 8.2-21 17.3M2096.8 866c0 4.3 3 9 11 9 10.4 0 21.2-8.4 21.2-17.1 0-5.9-5-9.2-11.1-9.2-9.6 0-21.1 8.2-21.1 17.3M2096.8 816.4c0 4.3 3 9 11 9 10.4 0 21.2-8.4 21.2-17.1 0-5.9-5-9.2-11.1-9.2-9.6 0-21.1 8.2-21.1 17.3M730 853.6c0 4.3 3.1 9 11.2 9 10.3 0 21-8.4 21-17.1 0-5.9-4.9-9.2-11-9.2-9.7 0-21.2 8.2-21.2 17.3M2096.8 779.2c0 4.3 3 9 11 9 10.4 0 21.2-8.4 21.2-17.1 0-5.9-5-9.2-11.1-9.2-9.6 0-21.1 8.2-21.1 17.3M730 804c0 4.3 3.1 9 11.2 9 10.3 0 21-8.4 21-17.1 0-5.9-4.9-9.2-11-9.2-9.7 0-21.2 8.2-21.2 17.3M730 766.8c0 4.3 3.1 9 11.2 9 10.3 0 21-8.4 21-17.1 0-5.9-4.9-9.2-11-9.2-9.7 0-21.2 8.2-21.2 17.3M2664.3 816.4c0 4.3 3 9 11 9 10.4 0 21.2-8.4 21.2-17.1 0-5.9-5-9.2-11.1-9.2-9.6 0-21.1 8.2-21.1 17.3M1873.2 2048.4c0 4.3 3.1 9 11.1 9 10.4 0 21.2-8.4 21.2-17.1 0-6-5-9.2-11.1-9.2-9.7 0-21.2 8.2-21.2 17.3M1873.2 2011.2c0 4.3 3.1 9 11.1 9 10.4 0 21.2-8.4 21.2-17.1 0-6-5-9.2-11.1-9.2-9.7 0-21.2 8.2-21.2 17.3M2007.4 779.2c0 4.3 3.1 9 11.1 9 10.4 0 21.2-8.4 21.2-17.1 0-5.9-5-9.2-11.1-9.2-9.7 0-21.2 8.2-21.2 17.3M1563.7 2023.6c0 4.3 3 9 11.1 9 10.3 0 21.2-8.4 21.2-17.1 0-6-5-9.2-11.2-9.2-9.6 0-21 8.2-21 17.3M1563.7 2073.2c0 4.3 3 9 11.1 9 10.3 0 21.2-8.4 21.2-17.1 0-6-5-9.2-11.2-9.2-9.6 0-21 8.2-21 17.3M2007.4 816.4c0 4.3 3.1 9 11.1 9 10.4 0 21.2-8.4 21.2-17.1 0-5.9-5-9.2-11.1-9.2-9.7 0-21.2 8.2-21.2 17.3M2007.4 866c0 4.3 3.1 9 11.1 9 10.4 0 21.2-8.4 21.2-17.1 0-5.9-5-9.2-11.1-9.2-9.7 0-21.2 8.2-21.2 17.3M1957.6 2098c0 4.3 3 9 11 9 10.4 0 21.2-8.4 21.2-17.1 0-6-5-9.2-11.1-9.2-9.6 0-21.1 8.2-21.1 17.3M1957.6 2048.4c0 4.3 3 9 11 9 10.4 0 21.2-8.4 21.2-17.1 0-6-5-9.2-11.1-9.2-9.6 0-21.1 8.2-21.1 17.3M720.5 2023.6c0 4.3 3 9 11.1 9 10.3 0 21.1-8.4 21.1-17.1 0-6-5-9.2-11-9.2-9.7 0-21.2 8.2-21.2 17.3M2252.7 2048.4c0 4.3 3 9 11 9 10.4 0 21.2-8.4 21.2-17.1 0-6-5-9.2-11-9.2-9.7 0-21.2 8.2-21.2 17.3M2252.7 2011.2c0 4.3 3 9 11 9 10.4 0 21.2-8.4 21.2-17.1 0-6-5-9.2-11-9.2-9.7 0-21.2 8.2-21.2 17.3M931.3 2073.2c0 4.3 3 9 11.1 9 10.3 0 21.1-8.4 21.1-17.1 0-6-5-9.2-11-9.2-9.7 0-21.2 8.2-21.2 17.3M1837.6 866c0 4.3 3 9 11 9 10.4 0 21.2-8.4 21.2-17.1 0-5.9-5-9.2-11.1-9.2-9.6 0-21.2 8.2-21.2 17.3M2753.6 816.4c0 4.3 3 9 11.1 9 10.3 0 21.1-8.4 21.1-17.1 0-5.9-5-9.2-11-9.2-9.7 0-21.2 8.2-21.2 17.3M720.5 2073.2c0 4.3 3 9 11.1 9 10.3 0 21.1-8.4 21.1-17.1 0-6-5-9.2-11-9.2-9.7 0-21.2 8.2-21.2 17.3M2753.6 866c0 4.3 3 9 11.1 9 10.3 0 21.1-8.4 21.1-17.1 0-5.9-5-9.2-11-9.2-9.7 0-21.2 8.2-21.2 17.3M2337 2098c0 4.3 3 9 11.1 9 10.3 0 21.2-8.4 21.2-17.1 0-6-5-9.2-11.2-9.2-9.6 0-21 8.2-21 17.3M2337 2048.4c0 4.3 3 9 11.1 9 10.3 0 21.2-8.4 21.2-17.1 0-6-5-9.2-11.2-9.2-9.6 0-21 8.2-21 17.3M2337 2011.2c0 4.3 3 9 11.1 9 10.3 0 21.2-8.4 21.2-17.1 0-6-5-9.2-11.2-9.2-9.6 0-21 8.2-21 17.3M2126.2 2011.2c0 4.3 3 9 11.1 9 10.3 0 21.1-8.4 21.1-17.1 0-6-5-9.2-11-9.2-9.7 0-21.2 8.2-21.2 17.3M2275.4 816.4c0 4.3 3.1 9 11.2 9 10.3 0 21-8.4 21-17.1 0-5.9-4.9-9.2-11-9.2-9.7 0-21.2 8.2-21.2 17.3M819.4 853.6c0 4.3 3 9 11 9 10.4 0 21.2-8.4 21.2-17.1 0-5.9-5-9.2-11.1-9.2-9.6 0-21.1 8.2-21.1 17.3M2421.3 2098c0 4.3 3.1 9 11.1 9 10.4 0 21.2-8.4 21.2-17.1 0-6-5-9.2-11.1-9.2-9.7 0-21.2 8.2-21.2 17.3M2421.3 2048.4c0 4.3 3.1 9 11.1 9 10.4 0 21.2-8.4 21.2-17.1 0-6-5-9.2-11.1-9.2-9.7 0-21.2 8.2-21.2 17.3M2421.3 2011.2c0 4.3 3.1 9 11.1 9 10.4 0 21.2-8.4 21.2-17.1 0-6-5-9.2-11.1-9.2-9.7 0-21.2 8.2-21.2 17.3M819.4 804c0 4.3 3 9 11 9 10.4 0 21.2-8.4 21.2-17.1 0-5.9-5-9.2-11.1-9.2-9.6 0-21.1 8.2-21.1 17.3M804.8 2023.6c0 4.3 3 9 11.1 9 10.3 0 21.2-8.4 21.2-17.1 0-6-5-9.2-11.2-9.2-9.6 0-21 8.2-21 17.3M819.4 766.8c0 4.3 3 9 11 9 10.4 0 21.2-8.4 21.2-17.1 0-5.9-5-9.2-11.1-9.2-9.6 0-21.1 8.2-21.1 17.3M804.8 2073.2c0 4.3 3 9 11.1 9 10.3 0 21.2-8.4 21.2-17.1 0-6-5-9.2-11.2-9.2-9.6 0-21 8.2-21 17.3M2275.4 866c0 4.3 3.1 9 11.2 9 10.3 0 21-8.4 21-17.1 0-5.9-4.9-9.2-11-9.2-9.7 0-21.2 8.2-21.2 17.3M2252.7 2098c0 4.3 3 9 11 9 10.4 0 21.2-8.4 21.2-17.1 0-6-5-9.2-11-9.2-9.7 0-21.2 8.2-21.2 17.3M931.3 2023.6c0 4.3 3 9 11.1 9 10.3 0 21.1-8.4 21.1-17.1 0-6-5-9.2-11-9.2-9.7 0-21.2 8.2-21.2 17.3M2126.2 2048.4c0 4.3 3 9 11.1 9 10.3 0 21.1-8.4 21.1-17.1 0-6-5-9.2-11-9.2-9.7 0-21.2 8.2-21.2 17.3M1057.8 2073.2c0 4.3 3 9 11.1 9 10.3 0 21.1-8.4 21.1-17.1 0-6-5-9.2-11-9.2-9.7 0-21.2 8.2-21.2 17.3M1837.6 779.2c0 4.3 3 9 11 9 10.4 0 21.2-8.4 21.2-17.1 0-5.9-5-9.2-11.1-9.2-9.6 0-21.2 8.2-21.2 17.3M2753.6 779.2c0 4.3 3 9 11.1 9 10.3 0 21.1-8.4 21.1-17.1 0-5.9-5-9.2-11-9.2-9.7 0-21.2 8.2-21.2 17.3M1837.6 816.4c0 4.3 3 9 11 9 10.4 0 21.2-8.4 21.2-17.1 0-5.9-5-9.2-11.1-9.2-9.6 0-21.2 8.2-21.2 17.3M2275.4 779.2c0 4.3 3.1 9 11.2 9 10.3 0 21-8.4 21-17.1 0-5.9-4.9-9.2-11-9.2-9.7 0-21.2 8.2-21.2 17.3M1057.8 2023.6c0 4.3 3 9 11.1 9 10.3 0 21.1-8.4 21.1-17.1 0-6-5-9.2-11-9.2-9.7 0-21.2 8.2-21.2 17.3M1155.3 3602.8c0 4.2 3.1 9 11.1 9 10.4 0 21.2-8.4 21.2-17.2 0-5.8-5-9.1-11.1-9.1-9.7 0-21.2 8.1-21.2 17.3M1980.6 3602.8c0 4.2 3 9 11 9 10.4 0 21.2-8.4 21.2-17.2 0-5.8-5-9.1-11.1-9.1-9.6 0-21.1 8.1-21.1 17.3M1586.5 3602.8c0 4.2 3 9 11.1 9 10.3 0 21.2-8.4 21.2-17.2 0-5.8-5-9.1-11.2-9.1-9.6 0-21 8.1-21 17.3M1310.7 1138.8c0 4.3 3.1 9 11.1 9 10.4 0 21.2-8.4 21.2-17.1 0-5.9-5-9.2-11.1-9.2-9.7 0-21.2 8.2-21.2 17.3M2096.8 1151.2c0 4.3 3 9 11 9 10.4 0 21.2-8.4 21.2-17.1 0-5.9-5-9.2-11.1-9.2-9.6 0-21.1 8.2-21.1 17.3M2186.1 1151.2c0 4.3 3 9 11.1 9 10.3 0 21.1-8.4 21.1-17.1 0-5.9-5-9.2-11-9.2-9.7 0-21.2 8.2-21.2 17.3M1132 1138.8c0 4.3 3.1 9 11.2 9 10.3 0 21.1-8.4 21.1-17.1 0-5.9-5-9.2-11.1-9.2-9.6 0-21.1 8.2-21.1 17.3M2325.5 3602.8c0 4.2 3 9 11.1 9 10.3 0 21.2-8.4 21.2-17.2 0-5.8-5-9.1-11.2-9.1-9.6 0-21 8.1-21 17.3M1069 3602.8c0 4.2 3.2 9 11.2 9 10.3 0 21.1-8.4 21.1-17.2 0-5.8-5-9.1-11-9.1-9.7 0-21.2 8.1-21.2 17.3M1221.4 1138.8c0 4.3 3 9 11.1 9 10.3 0 21.1-8.4 21.1-17.1 0-5.9-5-9.2-11-9.2-9.7 0-21.2 8.2-21.2 17.3M1057.8 2358.4c0 4.3 3 9 11.1 9 10.3 0 21.1-8.4 21.1-17.1 0-6-5-9.2-11-9.2-9.7 0-21.2 8.2-21.2 17.3M720.5 2358.4c0 4.3 3 9 11.1 9 10.3 0 21.1-8.4 21.1-17.1 0-6-5-9.2-11-9.2-9.7 0-21.2 8.2-21.2 17.3M560.2 2358.4c0 4.3 3 9 11 9 10.4 0 21.2-8.4 21.2-17.1 0-6-5-9.2-11.1-9.2-9.6 0-21.1 8.2-21.1 17.3M2239.3 3602.8c0 4.2 3 9 11 9 10.4 0 21.2-8.4 21.2-17.2 0-5.8-5-9.1-11.1-9.1-9.6 0-21.1 8.1-21.1 17.3M1371 3602.8c0 4.2 3 9 11 9 10.4 0 21.2-8.4 21.2-17.2 0-5.8-5-9.1-11.1-9.1-9.7 0-21.2 8.1-21.2 17.3M2110 3602.8c0 4.2 3 9 11 9 10.3 0 21.2-8.4 21.2-17.2 0-5.8-5-9.1-11.2-9.1-9.6 0-21 8.1-21 17.3M1353 2358.4c0 4.3 3 9 11 9 10.3 0 21.2-8.4 21.2-17.1 0-6-5-9.2-11.2-9.2-9.6 0-21 8.2-21 17.3M1730.3 3602.8c0 4.2 3.1 9 11.2 9 10.3 0 21-8.4 21-17.2 0-5.8-4.9-9.1-11-9.1-9.7 0-21.2 8.1-21.2 17.3M1226.4 2358.4c0 4.3 3.1 9 11.1 9 10.4 0 21.2-8.4 21.2-17.1 0-6-5-9.2-11.1-9.2-9.7 0-21.2 8.2-21.2 17.3M931.3 2358.4c0 4.3 3 9 11.1 9 10.3 0 21.1-8.4 21.1-17.1 0-6-5-9.2-11-9.2-9.7 0-21.2 8.2-21.2 17.3M804.8 2358.4c0 4.3 3 9 11.1 9 10.3 0 21.2-8.4 21.2-17.1 0-6-5-9.2-11.2-9.2-9.6 0-21 8.2-21 17.3M1894.3 3602.8c0 4.2 3 9 11.1 9 10.3 0 21.2-8.4 21.2-17.2 0-5.8-5-9.1-11.2-9.1-9.6 0-21 8.1-21 17.3M1479.4 2358.4c0 4.3 3 9 11.1 9 10.3 0 21.1-8.4 21.1-17.1 0-6-5-9.2-11-9.2-9.7 0-21.2 8.2-21.2 17.3M1241.6 3602.8c0 4.2 3 9 11 9 10.4 0 21.2-8.4 21.2-17.2 0-5.8-5-9.1-11.1-9.1-9.6 0-21.1 8.1-21.1 17.3M1500.3 3602.8c0 4.2 3 9 11 9 10.4 0 21.2-8.4 21.2-17.2 0-5.8-5-9.1-11-9.1-9.7 0-21.2 8.1-21.2 17.3M1142.1 2358.4c0 4.3 3 9 11.1 9 10.3 0 21.2-8.4 21.2-17.1 0-6-5-9.2-11.2-9.2-9.6 0-21 8.2-21 17.3M1563.7 2358.4c0 4.3 3 9 11.1 9 10.3 0 21.2-8.4 21.2-17.1 0-6-5-9.2-11.2-9.2-9.6 0-21 8.2-21 17.3M560.2 1138.8c0 4.3 3 9 11 9 10.4 0 21.2-8.4 21.2-17.1 0-5.9-5-9.2-11.1-9.2-9.6 0-21.1 8.2-21.1 17.3M2282.9 1155.6c-3.3 0-4-2.7-4-3.6 0-4.9 16.7-13.4 21.3-13.4 2.4 0 4 1.4 4 3.6 0 5-16.8 13.4-21.3 13.4m13.7-21.7c-9.7 0-21.2 8-21.2 17.3 0 4.3 3.1 9 11.2 9 10.3 0 21-8.4 21-17.1 0-5.9-4.9-9.2-11-9.2M2041.9 2383.2c0 4.3 3 9 11 9 10.4 0 21.2-8.4 21.2-17.1 0-6-5-9.2-11-9.2-9.7 0-21.2 8.2-21.2 17.3M724.1 3602.8c0 4.2 3.1 9 11.2 9 10.3 0 21-8.4 21-17.2 0-5.8-4.9-9.1-11-9.1-9.7 0-21.2 8.1-21.2 17.3M2541.1 3602.8c0 4.2 3 9 11.1 9 10.3 0 21.2-8.4 21.2-17.2 0-5.8-5-9.1-11.2-9.1-9.6 0-21 8.1-21 17.3M1712.8 1138.8c0 4.3 3 9 11 9 10.4 0 21.2-8.4 21.2-17.1 0-5.9-5-9.2-11.1-9.2-9.6 0-21.2 8.2-21.2 17.3M2547.8 2383.2c0 4.3 3 9 11.1 9 10.3 0 21.2-8.4 21.2-17.1 0-6-5-9.2-11.2-9.2-9.6 0-21 8.2-21 17.3M819.4 1138.8c0 4.3 3 9 11 9 10.4 0 21.2-8.4 21.2-17.1 0-5.9-5-9.2-11.1-9.2-9.6 0-21.1 8.2-21.1 17.3M560.2 3602.8c0 4.2 3 9 11 9 10.4 0 21.2-8.4 21.2-17.2 0-5.8-5-9.1-11.1-9.1-9.6 0-21.1 8.1-21.1 17.3M998 1138.8c0 4.3 3.1 9 11.2 9 10.3 0 21-8.4 21-17.1 0-5.9-4.9-9.2-11-9.2-9.6 0-21.2 8.2-21.2 17.3M2664.3 1151.2c0 4.3 3 9 11 9 10.4 0 21.2-8.4 21.2-17.1 0-5.9-5-9.2-11.1-9.2-9.6 0-21.1 8.2-21.1 17.3M1957.6 2383.2c0 4.3 3 9 11 9 10.4 0 21.2-8.4 21.2-17.1 0-6-5-9.2-11.1-9.2-9.6 0-21.1 8.2-21.1 17.3M1837.6 1151.2c0 4.3 3 9 11 9 10.4 0 21.2-8.4 21.2-17.1 0-5.9-5-9.2-11.1-9.2-9.6 0-21.2 8.2-21.2 17.3M2337 2383.2c0 4.3 3 9 11.1 9 10.3 0 21.2-8.4 21.2-17.1 0-6-5-9.2-11.2-9.2-9.6 0-21 8.2-21 17.3M2670.5 3602.8c0 4.2 3 9 11 9 10.4 0 21.2-8.4 21.2-17.2 0-5.8-5-9.1-11.1-9.1-9.6 0-21.1 8.1-21.1 17.3M2706 2369.5q.5-.3.5-1v-.1q0-.6-.4-.9l-1.2-1.2q-.3-.3-1-.4-.4 0-.8.3l-12.6 10-12.7-10q-.3-.3-1-.3-.4 0-.8.4l-1.3 1.2q-.3.3-.4 1 0 .7.5 1l12 9.5-12 9.5q-.5.3-.5 1 0 .5.4 1l1.2 1.2q.3.4 1 .4.5 0 .9-.3l12.7-10 12.6 10q.4.3.9.3.5.1 1-.4l1.1-1.3q.3-.4.4-.9 0-.7-.5-1l-12-9.5zM1623.4 1138.8c0 4.3 3 9 11.1 9 10.3 0 21.2-8.4 21.2-17.1 0-5.9-5-9.2-11.2-9.2-9.6 0-21 8.2-21 17.3M2756.7 3602.8c0 4.2 3 9 11.1 9 10.3 0 21.1-8.4 21.1-17.2 0-5.8-5-9.1-11-9.1-9.7 0-21.2 8.1-21.2 17.3M1489.4 1138.8c0 4.3 3 9 11.1 9 10.3 0 21.2-8.4 21.2-17.1 0-5.9-5-9.2-11.2-9.2-9.6 0-21 8.2-21 17.3M730 1138.8c0 4.3 3.1 9 11.2 9 10.3 0 21-8.4 21-17.1 0-5.9-4.9-9.2-11-9.2-9.7 0-21.2 8.2-21.2 17.3M2126.2 2383.2c0 4.3 3 9 11.1 9 10.3 0 21.1-8.4 21.1-17.1 0-6-5-9.2-11-9.2-9.7 0-21.2 8.2-21.2 17.3M2753.6 1151.2c0 4.3 3 9 11.1 9 10.3 0 21.1-8.4 21.1-17.1 0-5.9-5-9.2-11-9.2-9.7 0-21.2 8.2-21.2 17.3M908.7 1138.8c0 4.3 3 9 11.1 9 10.3 0 21.2-8.4 21.2-17.1 0-5.9-5-9.2-11.2-9.2-9.6 0-21 8.2-21 17.3M2252.7 2383.2c0 4.3 3 9 11 9 10.4 0 21.2-8.4 21.2-17.1 0-6-5-9.2-11-9.2-9.7 0-21.2 8.2-21.2 17.3M2758.6 2383.2c0 4.3 3 9 11.1 9 10.3 0 21.2-8.4 21.2-17.1 0-6-5-9.2-11.2-9.2-9.6 0-21 8.2-21 17.3M1400 1138.8c0 4.3 3.1 9 11.2 9 10.3 0 21.1-8.4 21.1-17.1 0-5.9-5-9.2-11.1-9.2-9.6 0-21.1 8.2-21.1 17.3M2421.3 2383.2c0 4.3 3.1 9 11.1 9 10.4 0 21.2-8.4 21.2-17.1 0-6-5-9.2-11.1-9.2-9.7 0-21.2 8.2-21.2 17.3M1683.5 2383.2c0 4.3 3 9 11.1 9 10.3 0 21.2-8.4 21.2-17.1 0-6-5-9.2-11.2-9.2-9.6 0-21 8.2-21 17.3M2411.8 3602.8c0 4.2 3 9 11 9 10.4 0 21.2-8.4 21.2-17.2 0-5.8-5-9.1-11.1-9.1-9.6 0-21.2 8.1-21.2 17.3M2007.4 1151.2c0 4.3 3.1 9 11.1 9 10.4 0 21.2-8.4 21.2-17.1 0-5.9-5-9.2-11.1-9.2-9.7 0-21.2 8.2-21.2 17.3M810.4 3602.8c0 4.2 3 9 11 9 10.4 0 21.2-8.4 21.2-17.2 0-5.8-5-9.1-11-9.1-9.7 0-21.2 8.1-21.2 17.3M939.7 3602.8c0 4.2 3.1 9 11.2 9 10.3 0 21-8.4 21-17.2 0-5.8-4.9-9.1-11-9.1-9.7 0-21.2 8.1-21.2 17.3M1873.2 2383.2c0 4.3 3.1 9 11.1 9 10.4 0 21.2-8.4 21.2-17.1 0-6-5-9.2-11.1-9.2-9.7 0-21.2 8.2-21.2 17.3" class="Note"/><path d="M431.2 481q-3 .6-5.8.6c-14.2 0-26.3-9.9-26.3-24.9 0-12 8.6-22.9 17.3-30.4l4.8-4.4 2.2 14.1c-9 2.7-15.1 12.2-15.1 21.5 0 7 5.4 16.5 13.4 16.5.7 0 1.6-.4 1.6-1.3s-1-1.4-2.1-2.2c-4-2.4-6.1-5-6.1-9.8 0-6 4.5-11 10.3-12.3zm-8.8-102c1-4 5.5-14.3 10.7-14.3 1.4 0 3.8 4.8 3.8 11.7 0 10.3-7.6 18-14.5 24.8q-.9-6-1-12 0-5.5 1-10.1m22.9 83.6c0 7-3 14.3-10 17.2l-5.4-32.1c9 0 15.4 6 15.4 14.9m-43.7 48.8c0 6.5 5 15.2 18.5 15.2a23 23 0 0 0 12.3-3.4c5.3-3.8 6.7-10.3 6.7-16.6q0-5.6-1.6-14L436 484c9.8-3.2 17-13.3 17-23.5a24 24 0 0 0-25.1-25.1l-2.9-17.4a56 56 0 0 0 17.8-39.1c0-9-2.8-16.4-4.4-20-2.4-5-5.2-8.5-7-8.5-.7 0-3.8 1.2-7 5-6.4 7.6-8.2 20.3-8.2 28.6 0 5.4.5 10.2 2.2 21.3-.1.1-5.3 5.4-7.4 7-9 8.5-21.5 20.5-21.5 40.4a34 34 0 0 0 34.6 33q4.4 0 7.9-.6 3 14 3 21.7-.1 15.7-15.3 15.8c-2.4 0-4.5-.5-4.7-.5l-.3-.3q0-.3.5-.4a11 11 0 0 0 9.3-11c0-5.4-4-11-11.5-11-7 0-11.4 5.6-11.4 12.2M431.2 1725.4q-3 .6-5.8.6c-14.2 0-26.3-10-26.3-24.9 0-12 8.6-22.9 17.3-30.5q2.5-2 4.8-4.3l2.2 14c-9 2.8-15.1 12.3-15.1 21.6 0 7 5.4 16.5 13.4 16.5.7 0 1.6-.4 1.6-1.3s-1-1.4-2.1-2.2c-4-2.4-6.1-5-6.1-9.8 0-6 4.5-11 10.3-12.3zm-8.8-102c1-4 5.5-14.3 10.7-14.3 1.4 0 3.8 4.8 3.8 11.7 0 10.3-7.6 18-14.5 24.8q-.9-6-1-12 0-5.5 1-10.2m22.9 83.7c0 7-3 14.2-10 17.1l-5.4-32c9 0 15.4 6 15.4 14.9m-43.7 48.8c0 6.5 5 15.2 18.5 15.2a23 23 0 0 0 12.3-3.4c5.3-3.8 6.7-10.3 6.7-16.6 0-3.9-.6-8.3-1.6-14l-1.5-8.8c9.8-3.2 17-13.3 17-23.5a24 24 0 0 0-25.1-25.1l-2.9-17.4a56 56 0 0 0 17.8-39.2c0-9-2.8-16.3-4.4-20-2.4-5-5.2-8.4-7-8.4-.7 0-3.8 1.2-7 5-6.4 7.6-8.2 20.3-8.2 28.6 0 5.3.5 10.2 2.2 21.3-.1.1-5.3 5.4-7.4 7-9 8.5-21.5 20.5-21.5 40.4a34 34 0 0 0 34.6 33q4.4 0 7.9-.6 3 14 3 21.7-.1 15.6-15.3 15.8c-2.4 0-4.5-.5-4.7-.5l-.3-.3q0-.3.5-.4a11 11 0 0 0 9.3-11c0-5.4-4-11-11.5-11-7 0-11.4 5.6-11.4 12.2M431.2 2969.8q-3 .6-5.8.6c-14.2 0-26.3-10-26.3-25 0-12 8.6-22.8 17.3-30.4q2.5-2.1 4.8-4.3l2.2 14c-9 2.7-15.1 12.3-15.1 21.6 0 7 5.4 16.5 13.4 16.5.7 0 1.6-.5 1.6-1.3 0-1-1-1.4-2.1-2.2-4-2.4-6.1-5-6.1-9.8 0-6 4.5-11 10.3-12.3zm-8.8-102c1-4 5.5-14.4 10.7-14.4 1.4 0 3.8 4.9 3.8 11.7 0 10.4-7.6 18-14.5 24.8q-.9-5.8-1-12 0-5.5 1-10m22.9 83.5c0 7-3 14.3-10 17.2l-5.4-32c9 0 15.4 6 15.4 14.8m-43.7 48.8c0 6.6 5 15.2 18.5 15.2a23 23 0 0 0 12.3-3.3c5.3-3.8 6.7-10.4 6.7-16.6 0-3.9-.6-8.3-1.6-14l-1.5-8.8c9.8-3.2 17-13.3 17-23.5a24 24 0 0 0-25.1-25.1l-2.9-17.4a56 56 0 0 0 17.8-39.2c0-9-2.8-16.3-4.4-20-2.4-5-5.2-8.5-7-8.5-.7 0-3.8 1.2-7 5.1-6.4 7.5-8.2 20.2-8.2 28.6 0 5.3.5 10.2 2.2 21.3-.1.1-5.3 5.4-7.4 7-9 8.5-21.5 20.5-21.5 40.3a34 34 0 0 0 34.6 33.2q4.4 0 7.9-.7c1.9 9.5 3 16.4 3 21.7q-.1 15.6-15.3 15.8c-2.4 0-4.5-.5-4.7-.5l-.3-.3q0-.3.5-.4a11 11 0 0 0 9.3-11c0-5.4-4-11-11.5-11-7 0-11.4 5.6-11.4 12.1M431.2 820.3q-3 .6-5.8.6c-14.2 0-26.3-10-26.3-25 0-12 8.6-22.8 17.3-30.4l4.8-4.4 2.2 14.1c-9 2.7-15.1 12.2-15.1 21.6 0 7 5.4 16.4 13.4 16.4.7 0 1.6-.4 1.6-1.3s-1-1.4-2.1-2.1c-4-2.4-6.1-5-6.1-9.9 0-6 4.5-10.9 10.3-12.3zm-8.8-102c1-4 5.5-14.4 10.7-14.4 1.4 0 3.8 4.9 3.8 11.7 0 10.3-7.6 18-14.5 24.8q-.9-5.8-1-12 0-5.5 1-10.1m22.9 83.6c0 7-3 14.3-10 17.2l-5.4-32c9 0 15.4 6 15.4 14.8m-43.7 48.8c0 6.6 5 15.2 18.5 15.2a23 23 0 0 0 12.3-3.4c5.3-3.7 6.7-10.3 6.7-16.5q0-5.7-1.6-14L436 823c9.8-3.1 17-13.2 17-23.5a24 24 0 0 0-25.1-25l-2.9-17.4a56 56 0 0 0 17.8-39.2c0-9-2.8-16.4-4.4-20-2.4-5-5.2-8.5-7-8.5-.7 0-3.8 1.2-7 5-6.4 7.6-8.2 20.3-8.2 28.6 0 5.4.5 10.3 2.2 21.4-.1 0-5.3 5.3-7.4 7-9 8.5-21.5 20.5-21.5 40.3a34 34 0 0 0 34.6 33.1q4.4 0 7.9-.7c1.9 9.6 3 16.5 3 21.8q-.1 15.6-15.3 15.7c-2.4 0-4.5-.5-4.7-.5l-.3-.2q0-.3.5-.4a11 11 0 0 0 9.3-11c0-5.4-4-11-11.5-11-7 0-11.4 5.6-11.4 12.1M431.2 2064.6q-3 .7-5.8.7c-14.2 0-26.3-10-26.3-25 0-12 8.6-22.9 17.3-30.4l4.8-4.4 2.2 14.1c-9 2.7-15.1 12.2-15.1 21.6 0 6.9 5.4 16.4 13.4 16.4.7 0 1.6-.4 1.6-1.3s-1-1.4-2.1-2.2c-4-2.3-6.1-5-6.1-9.8 0-6 4.5-10.9 10.3-12.3zm-8.8-102c1-3.9 5.5-14.3 10.7-14.3 1.4 0 3.8 4.8 3.8 11.7 0 10.3-7.6 18-14.5 24.8q-.9-5.8-1-12 0-5.5 1-10.1m22.9 83.6c0 7-3 14.3-10 17.2l-5.4-32c9 0 15.4 6 15.4 14.8m-43.7 48.8c0 6.6 5 15.2 18.5 15.2a23 23 0 0 0 12.3-3.4c5.3-3.7 6.7-10.3 6.7-16.6q0-5.6-1.6-14l-1.5-8.8c9.8-3.1 17-13.3 17-23.5a24 24 0 0 0-25.1-25l-2.9-17.4a56 56 0 0 0 17.8-39.2c0-9-2.8-16.4-4.4-20-2.4-5-5.2-8.5-7-8.5-.7 0-3.8 1.2-7 5-6.4 7.6-8.2 20.3-8.2 28.6 0 5.4.5 10.3 2.2 21.4-.1 0-5.3 5.3-7.4 7-9 8.4-21.5 20.4-21.5 40.3a34 34 0 0 0 34.6 33.1q4.4 0 7.9-.7 3 14 3 21.7-.1 15.7-15.3 15.8c-2.4 0-4.5-.5-4.7-.5l-.3-.3q0-.3.5-.4a11 11 0 0 0 9.3-11c0-5.3-4-11-11.5-11-7 0-11.4 5.7-11.4 12.2M431.2 3309q-3 .6-5.8.6c-14.2 0-26.3-9.9-26.3-24.9 0-12 8.6-22.9 17.3-30.4l4.8-4.4 2.2 14.1c-9 2.7-15.1 12.2-15.1 21.5 0 7 5.4 16.5 13.4 16.5.7 0 1.6-.4 1.6-1.3s-1-1.4-2.1-2.2c-4-2.4-6.1-5-6.1-9.8 0-6 4.5-11 10.3-12.3zm-8.8-102c1-4 5.5-14.3 10.7-14.3 1.4 0 3.8 4.8 3.8 11.7 0 10.3-7.6 18-14.5 24.8q-.9-6-1-12 0-5.5 1-10.1m22.9 83.6c0 7-3 14.3-10 17.2l-5.4-32.1c9 0 15.4 6 15.4 14.9m-43.7 48.8c0 6.5 5 15.2 18.5 15.2a23 23 0 0 0 12.3-3.4c5.3-3.8 6.7-10.3 6.7-16.6q0-5.6-1.6-14l-1.5-8.8c9.8-3.2 17-13.3 17-23.5a24 24 0 0 0-25.1-25.1l-2.9-17.4a56 56 0 0 0 17.8-39.1c0-9-2.8-16.4-4.4-20-2.4-5-5.2-8.5-7-8.5-.7 0-3.8 1.2-7 5-6.4 7.6-8.2 20.3-8.2 28.6 0 5.4.5 10.2 2.2 21.3-.1.1-5.3 5.4-7.4 7-9 8.5-21.5 20.5-21.5 40.4a34 34 0 0 0 34.6 33q4.4 0 7.9-.6 3 14 3 21.7-.1 15.7-15.3 15.8c-2.4 0-4.5-.5-4.7-.5l-.3-.3q0-.3.5-.4a11 11 0 0 0 9.3-11c0-5.4-4-11-11.5-11-7 0-11.4 5.6-11.4 12.2M445.8 2242.7c0 2.8 2.2 5 4.8 5s4.8-2.2 4.8-5-2.2-5-4.8-5-4.8 2.2-4.8 5m-31-12.6c-7.6 0-13.7 4.4-13.8 4.4a23 23 0 0 0-9.6 18c0 7.3 4.2 12.6 11.5 12.6 6.4 0 11.3-4.2 11.3-10.8a10.6 10.6 0 0 0-13.7-9.8c-1 .4-2.7 1.4-3.5 2 .7-4.3 3.7-8.6 7.6-10.7a19 19 0 0 1 9.1-2q15.1-.1 15.1 24.8c0 12.9-8.2 31.4-18 40.2a85 85 0 0 1-20.1 13.9s-1.2.6-1.2 1.8l.1.5c.3 1 1.2 1.2 1.8 1.2h.5s11.4-4.7 20.4-11.8c14-10 29.6-27.6 29.6-46 0-17.2-9.3-28.3-27.2-28.3m31.1 37.1c0 2.8 2.2 5 4.8 5s4.8-2.2 4.8-5-2.2-5-4.8-5-4.8 2.2-4.8 5M445.8 998.3c0 2.8 2.2 5 4.8 5s4.8-2.2 4.8-5-2.2-5-4.8-5-4.8 2.3-4.8 5m-31-12.6c-7.6 0-13.7 4.4-13.8 4.4a23 23 0 0 0-9.6 18c0 7.3 4.2 12.7 11.5 12.7 6.4 0 11.3-4.3 11.3-10.9a10.6 10.6 0 0 0-13.7-9.8c-1 .4-2.7 1.4-3.5 2.1.7-4.4 3.7-8.7 7.6-10.8a19 19 0 0 1 9.1-2q15.1-.1 15.1 24.8c0 12.9-8.2 31.5-18 40.2a85 85 0 0 1-20.1 13.9s-1.2.7-1.2 1.9l.1.5c.3 1 1.2 1.1 1.8 1.1h.5s11.4-4.7 20.4-11.8c14-10 29.6-27.6 29.6-45.9 0-17.3-9.3-28.4-27.2-28.4m31.1 37.1c0 2.8 2.2 5.1 4.8 5.1s4.8-2.3 4.8-5-2.2-5.1-4.8-5.1-4.8 2.3-4.8 5M445.8 3487c0 2.9 2.2 5 4.8 5s4.8-2.1 4.8-5c0-2.7-2.2-5-4.8-5s-4.8 2.3-4.8 5m-31-12.5c-7.6 0-13.7 4.4-13.8 4.4a23 23 0 0 0-9.6 18c0 7.3 4.2 12.6 11.5 12.6 6.4 0 11.3-4.2 11.3-10.8a10.6 10.6 0 0 0-13.7-9.8c-1 .4-2.7 1.4-3.5 2 .7-4.3 3.7-8.7 7.6-10.8a19 19 0 0 1 9.1-2q15.1 0 15.1 24.9c0 12.9-8.2 31.4-18 40.2a85 85 0 0 1-20.1 13.8s-1.2.7-1.2 2l.1.4c.3 1 1.2 1.2 1.8 1.2h.5s11.4-4.7 20.4-11.8c14-10 29.6-27.7 29.6-46 0-17.2-9.3-28.3-27.2-28.3m31.1 37.1c0 2.8 2.2 5 4.8 5s4.8-2.2 4.8-5-2.2-5-4.8-5-4.8 2.2-4.8 5" class="Clef"/><path d="m481.7 2867.6 8.8-1.8v16.4l-8.8 1.9zm15.4-3q1-.3 1-1.5v-5.8q0-1.3-1.3-1.4h-.2l-3.3.7v-14.8h-2.8v15.4l-8.8 1.8v-14h-2.8v14.6l-3.8.8c-.6 0-1.1.8-1.1 1.4v5.7q.1 1.3 1.4 1.4h.3l3.2-.7v16.4l-3.8.8c-.6 0-1.1.8-1.1 1.4v5.7q.1 1.3 1.4 1.4h.3l3.2-.7v14.8h2.8v-15.4l8.8-1.8v14h2.8v-14.6l3.8-.7c.6 0 1-.7 1-1.3v-5.9q0-1.3-1.3-1.4h-.2l-3.3.7v-16.4zM481.7 378.9l8.8-1.8v16.3l-8.8 2zm15.4-3.1q1-.3 1-1.4v-5.9q0-1.2-1.3-1.4h-.2l-3.3.7v-14.7h-2.8v15.3l-8.8 1.8v-14h-2.8v14.6l-3.8.8q-1 .3-1.1 1.4v5.8q.1 1.2 1.4 1.4h.3l3.2-.7v16.3l-3.8.8q-1 .3-1.1 1.4v5.8q.1 1.2 1.4 1.3h.3l3.2-.6v14.7h2.8V404l8.8-1.8v14h2.8v-14.6l3.8-.7q1-.3 1-1.4v-5.9q0-1.3-1.3-1.3h-.2l-3.3.6v-16.3zM481.7 1623.2l8.8-1.7v16.3l-8.8 2zm15.4-3q1-.3 1-1.4v-5.9q0-1.3-1.3-1.4h-.2l-3.3.7v-14.8h-2.8v15.4l-8.8 1.8v-14h-2.8v14.6l-3.8.8q-1 .3-1.1 1.4v5.7q.1 1.3 1.4 1.4h.3l3.2-.7v16.4l-3.8.8c-.6 0-1.1.8-1.1 1.4v5.7q.1 1.3 1.4 1.4h.3l3.2-.7v14.8h2.8v-15.4l8.8-1.7v14h2.8v-14.6l3.8-.7q1-.3 1-1.4v-5.9q0-1.3-1.3-1.4h-.2l-3.3.7V1621zM481.7 3206.9l8.8-1.8v16.3l-8.8 2zm15.4-3.1q1-.3 1-1.4v-5.9q0-1.2-1.3-1.3h-.2l-3.3.6v-14.7h-2.8v15.3l-8.8 1.8v-14h-2.8v14.6l-3.8.8q-1 .3-1.1 1.4v5.8q.1 1.3 1.4 1.4h.3l3.2-.7v16.3l-3.8.8q-1 .3-1.1 1.4v5.8q.1 1.3 1.4 1.3h.3l3.2-.6v14.7h2.8V3232l8.8-1.8v14h2.8v-14.6l3.8-.7q1-.3 1-1.4v-5.9q0-1.2-1.3-1.3h-.2l-3.3.6v-16.3zM481.7 1962.5l8.8-1.8v16.4l-8.8 1.8zm15.4-3.1c.6 0 1-.8 1-1.4v-5.8q0-1.3-1.3-1.4h-.2l-3.3.7v-14.8h-2.8v15.4l-8.8 1.8v-14h-2.8v14.5l-3.8.8q-1 .3-1.1 1.4v5.8q.1 1.3 1.4 1.4h.3l3.2-.7v16.3l-3.8.8q-1 .3-1.1 1.4v5.8q.1 1.3 1.4 1.4h.3l3.2-.7v14.8h2.8v-15.4l8.8-1.8v14h2.8V1985l3.8-.7q1-.3 1-1.4v-5.8q0-1.3-1.3-1.4h-.2l-3.3.7V1960zM481.7 718l8.8-1.7v16.4l-8.8 1.9zm15.4-3q1-.5 1-1.5v-5.8q0-1.3-1.3-1.4h-.2l-3.3.7v-14.8h-2.8v15.4l-8.8 1.8v-14h-2.8V710l-3.8.8q-1 .2-1.1 1.3v5.8q.1 1.3 1.4 1.4h.3l3.2-.7V735l-3.8.8c-.6 0-1.1.7-1.1 1.3v5.8q.1 1.3 1.4 1.4h.3l3.2-.7v14.8h2.8V743l8.8-1.8v14h2.8v-14.6l3.8-.7c.6 0 1-.8 1-1.4v-5.8q0-1.3-1.3-1.4h-.2l-3.3.7v-16.4zM481.7 3492l8.8-1.7v16.3l-8.8 2zm15.4-3.1q1-.3 1-1.4v-5.9q0-1.2-1.3-1.3h-.2l-3.3.6v-14.7h-2.8v15.3l-8.8 1.8v-14h-2.8v14.6l-3.8.8q-1 .3-1.1 1.4v5.8q.1 1.3 1.4 1.4h.3l3.2-.7v16.3l-3.8.8q-1 .3-1.1 1.4v5.8q.1 1.3 1.4 1.3h.3l3.2-.6v14.7h2.8v-15.3l8.8-1.8v14h2.8v-14.6l3.8-.7q1-.3 1-1.4v-5.9q0-1.2-1.3-1.3h-.2l-3.3.6v-16.3zM481.7 2247.7l8.8-1.8v16.4l-8.8 1.8zm15.4-3.1c.6 0 1-.8 1-1.4v-5.8q0-1.3-1.3-1.4h-.2l-3.3.7v-14.8h-2.8v15.4l-8.8 1.8v-14h-2.8v14.5l-3.8.8q-1 .3-1.1 1.4v5.8q.1 1.3 1.4 1.4h.3l3.2-.7v16.3l-3.8.8q-1 .3-1.1 1.4v5.8q.1 1.3 1.4 1.4h.3l3.2-.7v14.8h2.8v-15.4l8.8-1.8v14h2.8v-14.6l3.8-.7q1-.3 1-1.4v-5.8q0-1.3-1.3-1.4h-.2l-3.3.7v-16.4zM481.7 1003.3l8.8-1.8v16.4l-8.8 1.9zm15.4-3q1-.5 1-1.5V993q0-1.3-1.3-1.4h-.2l-3.3.7v-14.8h-2.8v15.4l-8.8 1.8v-14h-2.8v14.6l-3.8.8c-.6 0-1.1.7-1.1 1.3v5.8q.1 1.3 1.4 1.4h.3l3.2-.7v16.4l-3.8.8q-1 .2-1.1 1.4v5.7q.1 1.3 1.4 1.4h.3l3.2-.7v14.8h2.8v-15.4l8.8-1.8v14h2.8V1026l3.8-.7c.6 0 1-.8 1-1.4v-5.8q0-1.3-1.3-1.4h-.2l-3.3.7v-16.4z" class="KeySig"/><path d="m583 2941-.6-.7-11.4-14-.2-.7q0-.4.2-.8l10-15.3q.3-.4.3-.7v-.9q0-.5-.3-.8l-16-21.7s-.5-.6-1-.6q-.5 0-.9.3-.6.5-.5 1 .1 1 .3 1l7.6 10.4q.3.4.3 1.2t-.3 1.2l-10 15.2-.2.8v1q0 .3.3.7l11 13.8q-.5-.2-2.4-.3c-5 0-9 4.2-9 9.2q0 2.2 1 3.9c2.1 3.2 9.6 12.6 9.6 12.6s.5.6 1.2.6q.3 0 .6-.2.7-.6.7-1.2t-.3-.9l-3.5-6.2s-.7-1.4-.7-3.2c0-3.2 2.4-5.8 5.5-5.8a6 6 0 0 1 3.2 1l3.9 2.4.8.2q.6.1 1-.5l.3-.9q0-.4-.3-.8zM1710 1660h-.4q-.9 0-1.3.7c-.4.6-3.5 6.5-8 9.8q-1.9 1.5-4.4 2 1.7-2 1.8-4.8a7 7 0 0 0-14.2 0c0 5.3 5.3 7.8 10 7.8 5.2 0 8.7-2.5 12-6.1l-11.3 35.3 2.7.8 13.9-43.8.1-.5q0-.8-.9-1.2M583 1696.6l-.6-.6-11.4-14.1-.2-.6q0-.5.2-1l10-15.2q.3-.3.3-.7v-.9q0-.5-.3-.8l-16-21.7s-.5-.6-1-.6q-.5 0-.9.3-.6.5-.5 1 .1 1 .3 1l7.6 10.4q.3.5.3 1.2t-.3 1.2l-10 15.3-.2.7v1q0 .3.3.7l11 13.8q-.5-.1-2.4-.3c-5 0-9 4.2-9 9.3q0 2 1 3.8c2.1 3.2 9.6 12.6 9.6 12.6s.5.6 1.2.6q.3 0 .6-.2.7-.6.7-1.2t-.3-.9l-3.5-6.2s-.7-1.4-.7-3.2c0-3.2 2.4-5.7 5.5-5.7a6 6 0 0 1 3.2.9l3.9 2.4.8.2q.6.1 1-.5l.3-.9q0-.4-.3-.7zM842.2 452.3l-.6-.7-11.4-14.1-.2-.6q0-.5.2-.9l10.1-15.3.2-.7v-.9q0-.5-.3-.8l-16-21.7s-.5-.6-1-.6q-.5 0-.8.3-.6.5-.5 1 .1 1 .2 1.1l7.6 10.3q.3.4.3 1.2t-.3 1.2l-10 15.3-.2.8v.9q0 .5.3.8l11 13.8q-.5-.4-2.4-.4c-5 0-9 4.2-9 9.3q0 2.2 1 3.8c2.2 3.2 9.6 12.6 9.6 12.6s.5.6 1.2.6q.3 0 .6-.2.7-.5.7-1.2 0-.5-.3-.9l-3.5-6.2s-.7-1.4-.7-3.2c0-3.2 2.4-5.7 5.6-5.7a6 6 0 0 1 3.1.9l4 2.5.7.1q.6.1 1-.5.3-.4.3-.8t-.3-.8z" class="Rest"/><path fill-rule="evenodd" d="m840.1 2850.2 131.9 6.2v12.4l-131.9-6.2zM1839.8 1605.8h318.6v12.4h-318.7zM834.6 1605.8l129 6.2v12.4l-129-6.2zM2010.3 2856.4l131.9-6.2v12.4l-131.9 6.2zM2010.3 3189.4h131.9v12.4h-131.9zM834.6 1945h129v12.4h-129zM2577.6 1926.4h213.3v12.4h-213.3zM2704 1945h86.9v12.4H2704zM849.1 682h181.2v12.4H849zM849.1 700.6H941V713H849zM1161.8 682h270.5v12.4h-270.5zM1161.8 700.6h270.5V713h-270.5zM2282.4 1926.4h171.2v12.4h-171.2zM2282.4 1945h86.8v12.4h-86.8zM590 682h172.3v12.4H589.9zM762.3 700.6H735V713h27.3zM1713.3 1926.4h192.2v12.4h-192.2zM1905.5 1945h-27.3v12.4h27.3zM1098.9 3183.2h175v12.4h-175zM1098.9 3201.8h88.7v12.4h-88.7zM2126.5 694.4h181.2v12.4h-181.2zM2126.5 713h91.8v12.4h-91.8zM840.1 3189.4H972v12.4H840zM2570.9 3183.2h218v12.4h-218zM2700.2 3201.8h88.7v12.4h-88.7zM1987.3 1932.6h171.1v12.4h-171zM1400.7 3183.2h218v12.4h-218zM1530 3201.8h88.8v12.4H1530zM590 3183.2h166.4v12.4H589.9zM756.4 3201.8H729v12.4h27.3zM1382.7 1938.8H1596v12.4h-213.3zM1509.2 1957.4h86.8v12.4h-86.8zM2269 3183.2h175v12.4h-175zM2269 3201.8h88.8v12.4H2269zM1867.3 694.4h172.4v12.4h-172.4zM2039.7 713h-27.3v12.4h27.3zM1519.2 682H1745v12.4h-225.8zM1653.2 700.6h91.8V713h-91.8zM590 1938.8h162.7v12.4H590zM752.7 1957.4h-27.2v12.4h27.2zM1087.6 1938.8h171v12.4h-171zM1087.6 1957.4h86.8v12.4h-86.9zM2694 694.4h91.8v12.4H2694zM2694 713h91.8v12.4H2694zM1760.1 3183.2h166.5v12.4H1760zM1926.6 3201.8h-27.3v12.4h27.3zM849.1 1035.4h181.2v12.4H849zM849.1 1054H941v12.4H849zM2269 3518h175v12.4h-175zM2269 3536.6h88.8v12.4H2269zM2570.9 3518h218v12.4h-218zM2700.2 3536.6h88.7v12.4h-88.7zM590 2273.6h162.7v12.4H590zM752.7 2292.2h-27.2v12.4h27.2zM1400.7 3518h218v12.4h-218zM1530 3536.6h88.8v12.4H1530zM590 1035.4h172.3v12.4H589.9zM762.3 1054H735v12.4h27.3zM590 3518h166.4v12.4H589.9zM756.4 3536.6H729v12.4h27.3zM2010.3 3518h131.9v12.4h-131.9zM1867.3 1035.4h172.4v12.4h-172.4zM2039.7 1054h-27.3v12.4h27.3zM1987.3 2279.8h171.1v12.4h-171zM1987.3 2298.4h86.8v12.4h-86.8zM840.1 3518H972v12.4H840zM1713.3 2279.8h192.2v12.4h-192.2zM1905.5 2298.4h-27.3v12.4h27.3zM1519.2 1035.4H1745v12.4h-225.8zM1653.2 1054h91.8v12.4h-91.8zM1098.9 3518h175v12.4h-175zM1098.9 3536.6h88.7v12.4h-88.7zM2126.5 1035.4h91.8v12.4h-91.8zM2126.5 1054h91.8v12.4h-91.8zM1382.7 2273.6H1596v12.4h-213.3zM1509.2 2292.2h86.8v12.4h-86.8zM2282.4 2279.8h171.2v12.4h-171.2zM2282.4 2298.4h86.8v12.4h-86.8zM2694 1035.4h91.8v12.4H2694zM2694 1054h91.8v12.4H2694zM2577.6 2279.8h213.3v12.4h-213.3zM2704 2298.4h86.9v12.4H2704zM1087.6 2273.6h171v12.4h-171zM1087.6 2292.2h86.8v12.4h-86.9zM1161.8 1035.4h270.5v12.4h-270.5zM1161.8 1054h270.5v12.4h-270.5zM834.6 2273.6h129v12.4h-129zM1760.1 3518h166.5v12.4H1760zM1926.6 3536.6h-27.3v12.4h27.3z" class="Beam"/><path d="M759.9 1811.8h16.8a21 21 0 0 0 10.5-2.2c5-2.9 7.8-8.6 7.8-16q-.1-10.7-7-15.4a22 22 0 0 0-12.2-2.5h-16v2.3h1c2.8 0 3.8.2 4.2.7.3.5.3.6.3 3.1v23.8c0 2.6 0 2.7-.3 3.1-.4.5-1.4.7-4.2.7h-1zm14-2.4c-2.6 0-3-.3-3-2.7v-25.9c0-2.4.4-2.8 3-2.8h2.5c8.6 0 12.1 4.7 12.1 15.7 0 11.2-3.2 15.7-11.3 15.7zm36.3-21.7c-6.1 0-10.9 5.5-10.9 12.5 0 6.8 4.8 12.3 10.8 12.3s10.8-5.5 10.8-12.4c0-6.8-4.8-12.4-10.7-12.4m0 2.2q5.4.1 5.5 10.2-.1 10.2-5.6 10.3-5.5-.1-5.5-10.2t5.6-10.3m22.4-1.4-8.7.5v2.2h1.9c1.9 0 2.1.3 2.1 2.5v14.3q0 1-.3 1.3-.3.6-3.4.7h-.3v1.8h12.7v-1.8h-.2c-3.3-.1-3.8-.4-3.8-2.2v-7.4c0-2.4.3-4.7 1-5.8 1-2.3 3.2-3.8 5.3-3.8 1.4 0 2.9.7 3.6 1.7q1.1 1.5 1.1 5v10.5q0 1-.3 1.3-.5.6-3.5.7h-.2v1.8h12.7v-1.8h-.2c-3.3-.1-3.8-.4-3.8-2.2v-10c0-3.6-.1-4.5-1-6.2a7 7 0 0 0-6.8-3.9q-4.7 0-7.9 4.8zm25.1-1.6h1.1l1.6-9v-.8a2 2 0 0 0-2.2-2.1 2 2 0 0 0-2.1 2.1v.8zm15.3 1.6v-10h-2q-.7 9.8-6.8 10.2v2h4.1v12.7c0 3.5.1 4.7.6 5.9q1.3 3.1 5.7 3.2c4.5 0 7.4-3.4 7.4-8.7v-1.1h-2.1q-.3 6.8-4 6.8-1.7 0-2.4-1.5-.5-1.1-.5-3.7v-13.7h7.4v-2.1zM1948.2 1805.4l-5.5-12.8-.3-1q-.1-1.4 2.3-1.3h1v-1.8h-11.9v1.8h.6c1.7 0 2.3.5 3.4 2.7l8.1 18.4-.8 1.8c-1.8 3.8-4.2 6.4-5.8 6.4q-.7 0-.8-.5l.1-.4.3-1.3q-.1-2.1-2.6-2.3c-1.7 0-3 1.3-3 3.1 0 2.3 2 3.9 4.6 3.9q3.9 0 6.9-4c1.5-2 2.5-4.2 4.7-9.6l5.7-14.2c1.2-2.9 2.3-4 4.2-4h.3v-1.8h-10v1.8h.8q2.8 0 2.7 1.8a5 5 0 0 1-.5 2zm23-17.7c-6.2 0-11 5.5-11 12.5 0 6.8 4.9 12.3 10.9 12.3s10.8-5.5 10.8-12.4c0-6.8-4.8-12.4-10.7-12.4m0 2.2q5.3.1 5.4 10.2-.1 10.2-5.5 10.3-5.5-.1-5.6-10.2t5.7-10.3m33 22.2 9-.3v-2.2h-1.2c-3 0-3.2-.4-3.2-3.6v-17.5l-9.3.5v2.2h2.5c1.9 0 2.1.3 2.1 2.5v6.1c0 4.4-1 9.7-6.5 9.7q-2.4 0-3.5-1.6c-.6-1-.8-1.4-.8-4.2v-15.2l-8.7.5v2.2h1.9c1.9 0 2.1.3 2.1 2.5v10.8c0 2.5.2 3.7 1 4.8q2.2 3.1 6.7 3.2 4.8.1 7.8-4.5zM801 3052.2l-5.5-13-.3-1q-.1-1.3 2.3-1.2h1v-1.8h-11.9v1.8h.6c1.7 0 2.3.5 3.4 2.7l8.1 18.5-.8 1.7c-1.8 3.8-4.2 6.4-5.8 6.4q-.7 0-.8-.5l.1-.4.3-1.3q-.1-2.1-2.6-2.3c-1.7 0-3 1.3-3 3.1 0 2.3 2 3.9 4.6 3.9q3.9 0 6.9-4c1.5-2 2.5-4.2 4.7-9.6l5.7-14.2c1.2-2.8 2.3-4 4.2-4h.3v-1.8h-10v1.8h.8q2.8 0 2.7 1.8a5 5 0 0 1-.5 2zm23-17.7c-6.2 0-11 5.5-11 12.5 0 6.8 4.9 12.3 10.9 12.3s10.8-5.5 10.8-12.4c0-6.8-4.8-12.4-10.7-12.4m0 2.2q5.3.1 5.4 10.2-.1 10.2-5.5 10.3-5.5-.1-5.6-10.2 0-10.3 5.7-10.3m33 22.2 9-.3v-2.2h-1.2c-2.9 0-3.1-.4-3.1-3.6v-17.5l-9.4.5v2.2h2.5c2 0 2.2.3 2.2 2.5v6.1c0 4.4-1 9.7-6.6 9.7q-2.3 0-3.5-1.5c-.6-1-.7-1.5-.7-4.3v-15.2l-8.8.5v2.2h2c1.8 0 2 .3 2 2.5v10.8c0 2.5.3 3.7 1 4.8q2.2 3.1 6.8 3.2c3.3 0 5.6-1.3 7.8-4.5zM2285.7 538.3l-9.3.6v2.1h2.4c1.9 0 2.1.4 2.1 2.5v27.9q0 1-.2 1.3-.4.6-3.5.7h-.3v1.8h12.9v-1.8h-.4c-3.3-.1-3.7-.4-3.7-2.2zm28 20.8c0-3.2-.5-4.8-2-6q-2.4-2-7.2-2c-5.7 0-9.8 2.7-9.8 6.3q.2 3 3 3 2.4-.1 2.6-2.5 0-1-.7-2l-.4-.7c0-1 2-2 4.4-2 1.6 0 3.4.6 4.2 1.3q1.4 1 1.3 4.3v2c-5.2.8-6.9 1.2-9.3 2.2q-6.5 2.3-6.4 7.1c0 3.6 2.8 5.8 7.2 5.8q5.4 0 8.7-4c.8 2.6 2 3.6 4.4 3.6 2.3 0 4.6-1.4 4.6-2.9q0-.5-.5-.6l-.7.2q-1 .4-1.4.4-2 .1-2-3.5zm-4.6 6c0 3-.2 3.8-1 5a7 7 0 0 1-5.7 3.2c-2.3 0-4-1.7-4-4q0-3 3.3-4.6c1.5-.7 3.5-1.2 7.4-1.8zm18.3-13.3v-10h-2q-.8 9.8-6.8 10.2v2h4v12.7c0 3.5.2 4.7.7 5.9q1.3 3.1 5.7 3.2c4.5 0 7.4-3.4 7.4-8.7v-1.1h-2.2q-.2 6.8-3.9 6.8-1.8 0-2.5-1.5-.4-1.1-.4-3.7V554h7.3V552zm33.3 12c0-7.5-4.2-12.8-10.3-12.8-6.4 0-11.2 5.6-11.2 13 0 7.1 4.6 11.8 11.3 11.8q7.2 0 10.2-7l-1.7-1c-2 3.8-4.2 5.3-7.5 5.3q-3.8 0-5.7-3.3c-1-1.5-1.3-3.2-1.3-6zm-16.1-2.1c0-3.5 1.6-8.5 5.8-8.5 3 0 5 2.6 5 6.7q.1 2-2.1 1.8zM2137.3 3052l-5-12.8-.1-1q-.2-1.3 2-1.2h1.3v-1.8h-11.2v1.8h.8q2.3-.1 2.7 1.8l.4 1.3-4.4 11.7-4.9-12.6-.2-1q0-1.3 2-1.2h1v-1.8h-11v1.8h.9q1.9 0 2.6 2.4l7.5 19.8h1.7l6-15.8 6 15.8h1.6l7-18.4c1.1-3 1.9-3.8 3.7-3.8h.4v-1.8h-9.5v1.8h.9q2.5 0 2.4 1.8 0 .8-.4 1.8zm20.3-29.3a2.9 2.9 0 1 0 0 5.8 2.9 2.9 0 0 0 0-5.8m2.3 12.5-9.3.5v2.2h2.5c1.9 0 2.2.3 2.2 2.5v14.3q-.1 1-.4 1.3-.3.7-3.4.7h-.3v1.8h12.9v-1.8h-.3c-3.4-.1-3.9-.4-3.9-2.2zm15.2 0v-10h-2q-.9 9.8-6.8 10.2v2h4v12.7c0 3.5.2 4.7.7 5.9q1.3 3.1 5.7 3.2c4.5 0 7.4-3.4 7.4-8.7v-1.1h-2.2q-.2 6.8-3.9 6.8-1.8 0-2.5-1.5-.4-1.1-.4-3.7v-13.7h7.3v-2.1zm19.7-13.6-9.3.6v2.1h2.4c2 0 2.2.4 2.2 2.5v28q0 .9-.3 1.2-.4.7-3.5.7h-.2v1.8h12.7v-1.8h-.2c-3.4-.1-3.8-.4-3.8-2.2v-7.3c0-2.5.3-4.8.9-6 1-2.2 3.3-3.7 5.4-3.7 1.3 0 2.8.7 3.5 1.7q1.2 1.5 1.2 5v10.5q0 1-.3 1.3-.5.7-3.5.7h-.2v1.8h12.6v-1.8h-.2c-3.3-.1-3.7-.4-3.7-2.2v-10c0-3.6-.2-4.5-1-6.2a7 7 0 0 0-6.8-3.9c-3.3 0-5.7 1.5-8 4.8zM2532.6 3035.2l-9 .5v2.2h2.1c1.9 0 2.2.3 2.2 2.5v14.3q0 1-.3 1.3-.4.7-3.5.7h-.2v1.8h12.6v-1.8h-.2c-3.3-.1-3.7-.4-3.7-2.2v-9.3c0-4.4 2.4-7.7 5.7-7.7q4.3 0 4.3 6v11.2q0 1-.4 1.3-.4.7-3.4.7h-.2v1.8h12.6v-1.8h-.2c-3.3-.1-3.7-.4-3.7-2.2v-8.8c0-5 2.2-8.2 5.7-8.2q4.3 0 4.3 6.7v10.5q0 1-.4 1.3-.4.7-3.4.7h-.2v1.8h12.6v-1.8h-.2c-3.3-.1-3.7-.4-3.7-2.2v-11.3c0-3.2-.3-4.2-1.6-6a7 7 0 0 0-6-2.8q-4.7 0-7.7 5a7 7 0 0 0-7-5q-4.4 0-7.1 4.6zm57.6 12c0-7.5-4.2-12.8-10.3-12.8-6.4 0-11.2 5.6-11.2 13 0 7.1 4.5 11.8 11.3 11.8q7.2 0 10.2-7l-1.8-1c-2 3.8-4.1 5.3-7.5 5.3q-3.8 0-5.7-3.3c-.8-1.5-1.3-3.2-1.2-6zm-16.2-2.1c0-3.5 1.7-8.5 5.8-8.5 3 0 5 2.6 5 6.7 0 1.4-.4 1.8-2 1.8zm24.4 7.8a3.1 3.1 0 1 0 3.1 3.1c0-1.7-1.4-3-3.1-3M1806 1778h1c2.8 0 3.8.2 4.2.7.3.5.3.6.3 3.1v23.8c0 2.5 0 2.7-.3 3.1-.4.5-1.4.7-4.2.7h-1v2.4h16.6v-2.4h-1c-2.8 0-3.8-.1-4.2-.7-.3-.4-.3-.5-.3-3v-23.9c0-2.5 0-2.6.3-3 .4-.6 1.3-.7 4.2-.8h1v-2.3H1806zm28.5 10.5v-2.9q0-3.7.5-5.1c.8-2.2 2.6-3.6 4.6-3.6q1.6 0 1.7.9l-.3.6q-.5.7-.5 1.6c0 1.5 1.2 2.7 2.8 2.7 1.7 0 2.8-1.3 2.8-3 0-3-2.5-4.8-6.6-4.8q-5.1 0-7.7 3.7c-1.5 2.1-2 4.3-2 8.3v1.6h-4.4v2.1h4.4v17.4q0 1-.3 1.3-.3.6-3.5.7h-.2v1.8h13.4v-1.8h-1c-3.2-.1-3.7-.4-3.7-2.2v-17.2h5.5v-2.1zM967.1 3052l-5-12.8-.1-1q-.2-1.3 2-1.2h1.3v-1.8H954v1.8h.8q2.3-.1 2.7 1.8l.4 1.3-4.4 11.7-4.9-12.6-.2-1q0-1.3 2-1.2h1v-1.8h-11v1.8h.9q1.9 0 2.6 2.4l7.5 19.8h1.7l6-15.8 6 15.8h1.6l7-18.4c1.1-3 1.9-3.8 3.7-3.8h.4v-1.8h-9.5v1.8h.9q2.5 0 2.4 1.8 0 .8-.4 1.8zm22.8-17.6c-6.1 0-10.9 5.5-10.9 12.5 0 6.8 4.8 12.3 10.8 12.3s10.8-5.5 10.8-12.4c0-6.8-4.8-12.4-10.7-12.4m0 2.2q5.4.1 5.5 10.2-.1 10.2-5.6 10.3-5.4-.1-5.5-10.2 0-10.3 5.6-10.3m33 22.2 9.1-.3v-2.2h-1.2c-3 0-3.2-.4-3.2-3.6v-17.5l-9.4.5v2.2h2.6c1.9 0 2.1.3 2.1 2.5v6.1c0 4.4-1 9.7-6.5 9.7q-2.5 0-3.5-1.5c-.7-1-.8-1.5-.8-4.3v-15.2l-8.7.5v2.2h1.9c1.9 0 2.1.3 2.1 2.5v10.8c0 2.5.2 3.7 1 4.8q2 3.1 6.7 3.2c3.3 0 5.6-1.3 7.8-4.5zm20.2-37.2-9.3.6v2.1h2.5c1.8 0 2 .4 2 2.5v27.9q0 1-.2 1.3c-.4.4-1.3.7-3.5.7h-.3v1.8h13v-1.8h-.4c-3.4-.1-3.8-.4-3.8-2.2zm24.5 37.2 8.7-.3v-2.2h-1c-2.7-.1-3-.4-3-3.6v-31l-9.8.5v2.1h3c1.8 0 2.1.4 2.1 2.5v11.3a8 8 0 0 0-7-3.7c-5.5 0-9.8 5.5-9.8 12.7 0 7 4 12.1 9.9 12.1q4.6.1 6.9-4.3zm-6-21.7q3.4.2 5 3.7 1 2.3 1 6c0 5.9-2.3 9.6-6 9.6-3.5 0-5.6-3.3-5.6-8.8q0-4.5 1-7 1.4-3.4 4.7-3.5M2136.4 1775l-9.2.5v2.1h2.4c1.8 0 2.1.4 2.1 2.5v27.9q0 1-.3 1.3-.4.6-3.5.7h-.3v1.8h13v-1.8h-.4c-3.3-.1-3.8-.4-3.8-2.2zm18.1 12.8c-6.1 0-10.9 5.5-10.9 12.5 0 6.8 4.8 12.3 10.8 12.3s10.8-5.5 10.8-12.4c0-6.8-4.8-12.4-10.7-12.4m0 2.2q5.4.1 5.5 10.2-.1 10.2-5.6 10.3-5.5-.1-5.5-10.2t5.6-10.3m26 15.8-5.6-13.2-.3-1q-.2-1.4 2.7-1.2h.7v-1.8h-11.8v1.8h.4c2 0 2.6.5 3.3 2.1l8.6 20.1h1.8l7-17.5c1.5-3.4 2.7-4.6 4.7-4.7h.2v-1.8h-10v1.8h.7q2.7 0 2.7 1.7 0 1-.4 2.1zm34.1-5.2c0-7.5-4.2-12.8-10.3-12.8-6.4 0-11.2 5.6-11.2 13 0 7.1 4.6 11.8 11.3 11.8q7.2 0 10.2-7l-1.7-1c-2 3.8-4.2 5.3-7.5 5.3q-3.8 0-5.7-3.3c-1-1.5-1.3-3.2-1.3-6zm-16.1-2.1c0-3.5 1.6-8.5 5.8-8.5 3 0 5 2.6 5 6.7q.1 2-2 1.8zm36.8 13.7 8.8-.3v-2.2h-1c-2.8-.1-3-.4-3-3.6v-31l-9.8.5v2.1h2.9c1.9 0 2.1.4 2.1 2.5v11.3a8 8 0 0 0-6.9-3.7c-5.6 0-9.9 5.5-9.9 12.7 0 7 4.2 12.1 10 12.1q4.6.1 6.8-4.3zm-5.9-21.8q3.3.2 5 3.8.9 2.3.9 6c0 5.9-2.3 9.6-5.9 9.6s-5.6-3.3-5.6-8.8q0-4.5.9-7c.8-2.2 2.7-3.6 4.7-3.6M1273.3 568.8l-5.5-12.8-.2-1q-.2-1.4 2.2-1.3h1v-1.8H1259v1.8h.5c1.8 0 2.4.5 3.4 2.7l8.2 18.4-.8 1.8c-1.9 3.8-4.2 6.4-5.8 6.4q-.8 0-.8-.5l.1-.4.3-1.3q-.2-2.1-2.6-2.3c-1.7 0-3 1.3-3 3.1 0 2.3 1.9 3.9 4.5 3.9q4 0 7-4c1.5-2 2.5-4.2 4.7-9.6l5.7-14.2c1.1-2.9 2.2-4 4.2-4h.3v-1.8h-10v1.8h.8q2.8 0 2.7 1.8a5 5 0 0 1-.5 2zm23-17.7c-6.1 0-10.9 5.5-10.9 12.5 0 6.8 4.8 12.3 10.8 12.3s10.8-5.5 10.8-12.4c0-6.8-4.8-12.4-10.7-12.4m0 2.2q5.4.2 5.5 10.2-.1 10.2-5.6 10.3-5.4-.1-5.5-10.2t5.6-10.3m33 22.2 9.1-.3V573h-1.2c-3 0-3.2-.4-3.2-3.6v-17.5l-9.4.5v2.2h2.6c1.9 0 2.1.3 2.1 2.5v6.1c0 4.4-1 9.7-6.5 9.7q-2.5 0-3.5-1.6c-.7-1-.8-1.4-.8-4.2V552l-8.7.5v2.2h1.9c1.9 0 2.1.3 2.1 2.5v10.8c0 2.5.2 3.7 1 4.8q2 3.1 6.7 3.2c3.3 0 5.6-1.3 7.8-4.5zm14.5-25.2h1.1l1.6-9v-.8a2 2 0 0 0-2.1-2.1 2 2 0 0 0-2.2 2.1v.8zm15.6 1.6-8.9.5v2.2h2c2 0 2.2.3 2.2 2.5v14.3q0 1-.3 1.3-.5.6-3.5.7h-.2v1.8h13.3v-1.8h-.8c-3.4-.1-3.8-.4-3.8-2.2v-2.7c0-8.4 3-14.8 6.9-15-.7.8-.9 1.3-.9 2.3q.1 2.5 2.8 2.7 2.9-.1 3-3.3c0-2.5-1.7-4-4.3-4q-5 0-7.5 6.9zm35.2 12c0-7.5-4.2-12.8-10.3-12.8-6.4 0-11.2 5.6-11.2 13 0 7.1 4.5 11.8 11.3 11.8q7.1 0 10.2-7l-1.8-1c-2 3.8-4.1 5.3-7.5 5.3q-3.8 0-5.7-3.3c-.8-1.5-1.3-3.2-1.2-6zm-16.2-2.1c0-3.5 1.6-8.5 5.8-8.5 3 0 5 2.6 5 6.7q.2 2-2 1.8zM2430.4 1788.5l-9 .5v2.2h2.1c2 0 2.2.3 2.2 2.5v14.3q0 1-.3 1.3-.4.6-3.5.7h-.2v1.8h12.6v-1.8h-.2c-3.3-.1-3.7-.4-3.7-2.2v-9.3c0-4.4 2.4-7.7 5.7-7.7q4.3 0 4.3 6v11.2q0 1-.4 1.3-.3.6-3.4.7h-.2v1.8h12.6v-1.8h-.2c-3.3-.1-3.7-.4-3.7-2.2v-8.8c0-5 2.2-8.2 5.7-8.2q4.3 0 4.3 6.6v10.6q0 1-.4 1.3-.4.6-3.4.7h-.2v1.8h12.6v-1.8h-.2c-3.3-.1-3.7-.4-3.7-2.2v-11.4c0-3-.3-4.1-1.6-5.8a7 7 0 0 0-6-2.9q-4.7 0-7.7 5a7 7 0 0 0-7-5q-4.4 0-7.1 4.6zm57.6 12c0-7.5-4.2-12.8-10.3-12.8-6.4 0-11.2 5.6-11.2 13 0 7.1 4.6 11.8 11.3 11.8q7.2 0 10.2-7l-1.7-1c-2 3.8-4.2 5.3-7.5 5.3q-3.8 0-5.7-3.3c-1-1.5-1.3-3.2-1.3-6zm-16.1-2.1c0-3.5 1.6-8.5 5.8-8.5 3 0 5 2.6 5 6.7q.1 2-2 1.8zM929.8 1804.4c-1.6 3.6-3.3 5-6 5-4 0-6.4-3.6-6.4-9.4 0-6.1 2.4-10.1 6.1-10.1 1.5 0 2.8.7 2.8 1.5q0 .1-.3.6c-.8 1-1 1.4-1 2.3 0 1.6 1.3 2.8 3 2.8 1.8 0 3-1.4 3-3.4 0-3.4-3.3-6-7.7-6-6.5 0-11.2 5.3-11.2 12.8 0 7.1 4.3 12 10.5 12 4.4 0 7-2 9.1-7.3zm12.8-16-8.8.6v2.2h2c1.9 0 2.2.3 2.2 2.5v14.3q0 1-.3 1.3-.5.6-3.5.7h-.2v1.8h13.3v-1.8h-.9c-3.4-.1-3.8-.4-3.8-2.2v-2.7c0-8.4 3-14.8 7-15-.7.8-1 1.3-1 2.3 0 1.6 1.2 2.7 2.8 2.7q3-.1 3-3.3-.1-3.9-4.3-4-4.8 0-7.5 6.9zm28.2 17-5.5-13-.3-1q-.1-1.3 2.3-1.2h1v-1.8h-11.8v1.8h.5c1.8 0 2.4.5 3.4 2.7l8.2 18.4-.8 1.8c-1.9 3.8-4.2 6.4-5.8 6.4q-.8 0-.8-.5l.1-.4.2-1.3q-.1-2.1-2.5-2.3c-1.7 0-3 1.3-3 3.1 0 2.3 1.9 3.9 4.5 3.9q4 0 7-4a38 38 0 0 0 4.7-9.6l5.7-14.2c1.1-2.9 2.2-4 4.2-4h.3v-1.8h-10v1.8h.8q2.8 0 2.7 1.8a5 5 0 0 1-.5 2zM1120 538.4h-2l-11.5 29.1c-1.4 4-2.7 5.1-5.5 5.3h-.2v2.4h13.2v-2.4h-1q-4 0-4-2.8 0-1 .4-2.1l1.7-4.4h13.2l2.7 6.7.4 1.3q-.2 1.2-3 1.3h-2.2v2.4h15.5v-2.4h-.7c-2.6 0-3-.3-4.2-3.2zm-2.5 8.2 5.7 14.2H1112zm29.7 5.3-8.7.5v2.2h1.8c2 0 2.2.3 2.2 2.5v14.3q0 1-.3 1.3c-.4.4-1.3.6-3.5.7h-.2v1.8h12.7v-1.8h-.2c-3.4-.1-3.8-.4-3.8-2.2v-7.4c0-2.4.3-4.7.9-5.8 1-2.3 3.3-3.8 5.4-3.8 1.3 0 2.8.7 3.6 1.7q1 1.5 1 5v10.5q0 1-.2 1.3-.5.6-3.5.7h-.2v1.8h12.6v-1.8h-.2c-3.3-.1-3.7-.4-3.7-2.2v-10c0-3.6-.2-4.5-1-6.2a7 7 0 0 0-6.8-3.9q-4.7 0-8 4.8zm39.6 23.6 8.7-.3V573h-.9c-2.8-.1-3-.4-3-3.6v-31l-9.9.5v2.1h3c1.9 0 2.1.4 2.1 2.5v11.3a8 8 0 0 0-6.9-3.7c-5.6 0-10 5.5-10 12.7 0 7 4.2 12.1 10 12.1q4.6.1 7-4.3zm-6-21.8c2 0 4 1.5 5 3.8q.9 2.3.9 6c0 5.9-2.3 9.6-6 9.6-3.5 0-5.6-3.3-5.6-8.8q0-4.5 1-7c.8-2.2 2.7-3.6 4.7-3.6M1633.1 551.9v-10h-2q-.7 9.8-6.8 10.2v2h4.1v12.7c0 3.5.1 4.7.6 5.9q1.3 3.1 5.7 3.2c4.5 0 7.4-3.4 7.4-8.7v-1.1h-2.1q-.3 6.8-4 6.8-1.6 0-2.4-1.5-.5-1.1-.5-3.7V554h7.4V552zm22.6-.8c-6.1 0-10.9 5.5-10.9 12.5 0 6.8 4.9 12.3 10.9 12.3s10.7-5.5 10.7-12.4c0-6.8-4.7-12.4-10.7-12.4m0 2.2q5.4.2 5.5 10.2-.1 10.2-5.5 10.3-5.6-.1-5.6-10.2t5.6-10.3m25-2.2c-6.1 0-10.9 5.5-10.9 12.5 0 6.8 4.8 12.3 10.8 12.3s10.8-5.5 10.8-12.4c0-6.8-4.8-12.4-10.7-12.4m0 2.2q5.4.2 5.5 10.2-.1 10.2-5.6 10.3-5.5-.1-5.5-10.2t5.6-10.3M1240.7 3021.6l-8.6.6v2.1h1.7c2 0 2.2.4 2.2 2.5v19.5c0 7-.3 10.7-1 12.9h2l2.4-4q3 4.1 7.5 4c6.2 0 10.8-5.3 10.8-12.5s-4.2-12.3-10.2-12.3c-3 0-5 1-6.8 4zm5.9 15.4c3.7 0 5.8 3.7 5.8 10.2 0 6.3-2 9.9-5.7 9.9-4 0-6.3-3.7-6.3-9.8q.1-10.2 6.2-10.3m36.1 10.2c0-7.5-4.2-12.8-10.3-12.8-6.4 0-11.2 5.6-11.2 13 0 7.1 4.6 11.8 11.3 11.8q7.2 0 10.2-7l-1.7-1c-2 3.8-4.2 5.3-7.5 5.3a6 6 0 0 1-5.7-3.3c-1-1.5-1.3-3.2-1.3-6zm-16.1-2.1c0-3.5 1.6-8.5 5.8-8.5 3 0 5 2.6 5 6.7q.1 2-2 1.8zM1061.6 1788.5v-10h-2q-.7 9.8-6.8 10.2v2h4.1v12.7c0 3.5 0 4.7.6 5.9q1.3 3.1 5.7 3.2c4.5 0 7.4-3.4 7.4-8.7v-1.1h-2.1q-.3 6.8-4 6.8-1.8 0-2.4-1.5-.6-1.1-.5-3.7v-13.7h7.4v-2.1zm22.6-.8c-6.1 0-10.9 5.5-10.9 12.5 0 6.8 4.8 12.3 10.8 12.3s10.8-5.5 10.8-12.4c0-6.8-4.8-12.4-10.7-12.4m0 2.2q5.4.1 5.5 10.2-.1 10.2-5.6 10.3-5.5-.1-5.5-10.2t5.6-10.3M1510.3 3021.6l-9.3.6v2.1h2.4c2 0 2.2.4 2.2 2.5v28q0 .9-.3 1.2c-.4.4-1.3.7-3.5.7h-.2v1.8h12.7v-1.8h-.2c-3.4-.1-3.8-.4-3.8-2.2v-7.3c0-2.5.3-4.8.9-6 1-2.2 3.3-3.7 5.4-3.7 1.3 0 2.8.7 3.5 1.7q1.2 1.5 1.2 5v10.5q0 1-.3 1.3-.5.7-3.5.7h-.2v1.8h12.6v-1.8h-.2c-3.3-.1-3.7-.4-3.7-2.2v-10c0-3.6-.2-4.5-1-6.2a7 7 0 0 0-6.8-3.9c-3.3 0-5.7 1.5-8 4.8zm43.9 25.6c0-7.5-4.2-12.8-10.3-12.8-6.4 0-11.2 5.6-11.2 13 0 7.1 4.5 11.8 11.3 11.8q7.1 0 10.2-7l-1.8-1c-2 3.8-4.1 5.3-7.5 5.3a6 6 0 0 1-5.7-3.3c-.9-1.5-1.3-3.2-1.2-6zm-16.2-2.1c0-3.5 1.6-8.5 5.8-8.5 3 0 5 2.6 5 6.7q.2 2-2 1.8zm27.8-10-8.8.6v2.2h2c2 0 2.2.3 2.2 2.5v14.3q0 1-.3 1.3-.5.7-3.5.7h-.2v1.8h13.3v-1.8h-.9c-3.3-.1-3.8-.4-3.8-2.2v-2.7c0-8.4 3-14.8 7-15-.7.8-1 1.3-1 2.3 0 1.6 1.2 2.7 2.8 2.7q3-.1 3-3.3-.1-3.9-4.3-4-4.8 0-7.5 6.9zm35.3 12c0-7.5-4.2-12.8-10.3-12.8-6.5 0-11.2 5.6-11.2 13 0 7.1 4.5 11.8 11.3 11.8q7.1 0 10.2-7l-1.8-1c-2 3.8-4.2 5.3-7.5 5.3q-3.7 0-5.7-3.3c-.9-1.5-1.3-3.2-1.2-6zm-16.2-2.1c0-3.5 1.6-8.5 5.8-8.5 3 0 5 2.6 5 6.7q.2 2-2 1.8zM1217.9 1788.5l-9 .5v2.2h2.1c2 0 2.2.3 2.2 2.5v14.3q0 1-.3 1.3c-.4.4-1.3.6-3.5.7h-.2v1.8h12.6v-1.8h-.2c-3.3-.1-3.7-.4-3.7-2.2v-9.3c0-4.4 2.4-7.7 5.7-7.7q4.2 0 4.3 6v11.2q0 1-.4 1.3-.3.6-3.4.7h-.2v1.8h12.6v-1.8h-.2c-3.3-.1-3.7-.4-3.7-2.2v-8.8c0-5 2.2-8.2 5.7-8.2q4.3 0 4.3 6.6v10.6q0 1-.4 1.3-.3.6-3.4.7h-.2v1.8h12.6v-1.8h-.2c-3.3-.1-3.7-.4-3.7-2.2v-11.4c0-3-.3-4.1-1.6-5.8a7 7 0 0 0-6-2.9q-4.7 0-7.7 5a7 7 0 0 0-7-5q-4.4 0-7.1 4.6zm57.6 12c0-7.5-4.2-12.8-10.3-12.8-6.4 0-11.2 5.6-11.2 13 0 7.1 4.6 11.8 11.3 11.8q7.2 0 10.2-7l-1.7-1c-2 3.8-4.2 5.3-7.5 5.3a6 6 0 0 1-5.7-3.3c-1-1.5-1.3-3.2-1.3-6zm-16.1-2.1c0-3.5 1.6-8.5 5.8-8.5 3 0 5 2.6 5 6.7q.1 2-2 1.8zm24.3 7.8a3.1 3.1 0 1 0 0 6.2 3.1 3.1 0 0 0 0-6.2" class="Lyrics"/><path fill="none" stroke="#000" stroke-linejoin="bevel" stroke-width="2.5" d="M1607.2 3057.3h405.6M2219.9 3057.3h51.6M523 574h69.4M2494.3 1810.5h212.2M2250.2 1810.5h34.7M1697.4 574h172.4M2367.4 574h74.3" class="LyricsLineSegment"/><path d="M1271 1692.6a5 5 0 0 0 5 5 5 5 0 0 0 5-5 5 5 0 0 0-5-5 5 5 0 0 0-5 5M1882.2 423.4a5 5 0 0 0 5 5 5 5 0 0 0 4.9-5 5 5 0 0 0-5-5 5 5 0 0 0-5 5M2454 861.8a5 5 0 0 0 5 5 5 5 0 0 0 5-5 5 5 0 0 0-5-5 5 5 0 0 0-5 5M1775 3251.4a5 5 0 0 0 5 5 5 5 0 0 0 4.9-5 5 5 0 0 0-5-5 5 5 0 0 0-5 5M1775 3301a5 5 0 0 0 5 5 5 5 0 0 0 4.9-5 5 5 0 0 0-5-5 5 5 0 0 0-5 5M604.8 2007a5 5 0 0 0 5 5 5 5 0 0 0 5-5 5 5 0 0 0-5-5 5 5 0 0 0-5 5M604.8 2056.6a5 5 0 0 0 5 5 5 5 0 0 0 5-5 5 5 0 0 0-5-5 5 5 0 0 0-5 5M604.8 762.6a5 5 0 0 0 5 5 5 5 0 0 0 5-5 5 5 0 0 0-5-5 5 5 0 0 0-5 5M1882.2 861.8a5 5 0 0 0 5 5 5 5 0 0 0 4.9-5 5 5 0 0 0-5-5 5 5 0 0 0-5 5M604.8 787.4a5 5 0 0 0 5 5 5 5 0 0 0 5-5 5 5 0 0 0-5-5 5 5 0 0 0-5 5M1882.2 812.2a5 5 0 0 0 5 5 5 5 0 0 0 4.9-5 5 5 0 0 0-5-5 5 5 0 0 0-5 5M1728.1 2081.4a5 5 0 0 0 5 5 5 5 0 0 0 5-5 5 5 0 0 0-5-5 5 5 0 0 0-5 5M1728.1 2031.8a5 5 0 0 0 5 5 5 5 0 0 0 5-5 5 5 0 0 0-5-5 5 5 0 0 0-5 5M1728.1 2007a5 5 0 0 0 5 5 5 5 0 0 0 5-5 5 5 0 0 0-5-5 5 5 0 0 0-5 5M604.8 837a5 5 0 0 0 5 5 5 5 0 0 0 5-5 5 5 0 0 0-5-5 5 5 0 0 0-5 5M1882.2 762.6a5 5 0 0 0 5 5 5 5 0 0 0 4.9-5 5 5 0 0 0-5-5 5 5 0 0 0-5 5M2454 762.6a5 5 0 0 0 5 5 5 5 0 0 0 5-5 5 5 0 0 0-5-5 5 5 0 0 0-5 5M604.8 3301a5 5 0 0 0 5 5 5 5 0 0 0 5-5 5 5 0 0 0-5-5 5 5 0 0 0-5 5M604.8 3251.4a5 5 0 0 0 5 5 5 5 0 0 0 5-5 5 5 0 0 0-5-5 5 5 0 0 0-5 5M2454 812.2a5 5 0 0 0 5 5 5 5 0 0 0 5-5 5 5 0 0 0-5-5 5 5 0 0 0-5 5M604.8 1122.2a5 5 0 0 0 5 5 5 5 0 0 0 5-5 5 5 0 0 0-5-5 5 5 0 0 0-5 5M1775 3586.2a5 5 0 0 0 5 5 5 5 0 0 0 4.9-5 5 5 0 0 0-5-5 5 5 0 0 0-5 5M604.8 2341.8a5 5 0 0 0 5 5 5 5 0 0 0 5-5 5 5 0 0 0-5-5 5 5 0 0 0-5 5M1728.1 2366.6a5 5 0 0 0 5 5 5 5 0 0 0 5-5 5 5 0 0 0-5-5 5 5 0 0 0-5 5M1882.2 1147a5 5 0 0 0 5 5 5 5 0 0 0 4.9-5 5 5 0 0 0-5-5 5 5 0 0 0-5 5M604.8 3586.2a5 5 0 0 0 5 5 5 5 0 0 0 5-5 5 5 0 0 0-5-5 5 5 0 0 0-5 5" class="NoteDot"/><path d="M222.7 231.7c0-4.5 1-16.2 7.3-16.2q2.1 0 2.3 1.3.1.4-.4 1-1 1.6-1.1 3.3c0 2.5 2 4.2 4.8 4.2 3.2 0 5.1-2 5.1-5 0-4.7-4-7.6-10.2-7.6q-7.9 0-12.6 6.2a25 25 0 0 0-4.7 15.9c0 5.5 1.1 9.4 3.7 12.6q4 5 11 5c8 0 13.9-5.5 13.9-13 0-6.7-4.5-11.3-11-11.3-3.6 0-5.8 1-8.1 3.6m5.2.5q4.3.3 4.3 7.7 0 9.8-4.5 9.9-4.6-.2-4.7-8.9 0-3 .5-5c.6-2.3 2.3-3.8 4.4-3.7" class="Page"/><path d="M338.7 2149.6a64 64 0 0 0 19-46.7c0-32.8-14-65.9-14-86.3 0-22 12.5-42.5 13.3-43.2v-.7q.1-.6-.4-1-.7-.2-1.4.6c-.4.4-19.8 19.8-19.8 49.3 0 31.6 12.6 54 12.6 95.3 0 7.9-3.3 20.5-12.3 31.7q-.4.2-.3 1-.3.7.3 1a54 54 0 0 1 12.3 31.7c0 41.4-12.6 63.7-12.6 95.3 0 29.2 19.4 49 19.8 49.3q.6 1.1 1.4.7t.4-1v-.8a89 89 0 0 1-13.3-43.1c0-20.5 14-53.6 14-86.3 0-26.3-12.6-40-19-46.8M338.7 905.2a64 64 0 0 0 19-46.7c0-32.8-14-65.9-14-86.3 0-22 12.5-42.5 13.3-43.2v-.7q.1-.6-.4-1-.7-.1-1.4.6c-.4.4-19.8 19.8-19.8 49.3 0 31.6 12.6 54 12.6 95.3 0 7.9-3.3 20.5-12.3 31.7q-.4.2-.3 1-.3.6.3 1.1A54 54 0 0 1 348 938c0 41.4-12.6 63.7-12.6 95.3 0 29.2 19.4 49 19.8 49.3q.6 1.1 1.4.7t.4-1v-.8a89 89 0 0 1-13.3-43.1c0-20.5 14-53.6 14-86.3 0-26.3-12.6-40-19-46.8M338.7 3394a64 64 0 0 0 19-46.7c0-32.8-14-65.9-14-86.4 0-22 12.5-42.4 13.3-43.1v-.7q.1-.6-.4-1.1-.7-.2-1.4.7c-.4.4-19.8 19.8-19.8 49.2 0 31.7 12.6 54 12.6 95.3 0 8-3.3 20.6-12.3 31.7-.3 0-.3.7-.3 1.1q-.3.5.3 1a54 54 0 0 1 12.3 31.7c0 41.4-12.6 63.7-12.6 95.3 0 29.2 19.4 49 19.8 49.3q.6 1.1 1.4.7t.4-1v-.8a89 89 0 0 1-13.3-43.1c0-20.6 14-53.7 14-86.4 0-26.2-12.6-39.9-19-46.7" class="Bracket"/></svg>