<svg xmlns="http://www.w3.org/2000/svg" width="816" height="1056" baseProfile="full" viewBox="0 0 3060 3960"><title>general_29054120_690a831e247a0 (11)</title><desc>Generated by MuseScore Studio 4.6.3</desc><path fill="#fff" fill-rule="evenodd" d="M0 0h3060v3960H0z"/><path fill="none" stroke="#000" stroke-linejoin="bevel" stroke-width="2.7" d="M366.4 386.2h2481M366.4 411h2481M366.4 435.8h2481M366.4 460.6h2481M366.4 485.4h2481M366.4 649.1h2481M366.4 673.9h2481M366.4 698.7h2481M366.4 723.5h2481M366.4 748.3h2481M366.4 864.9h2481M366.4 889.7h2481M366.4 914.5h2481M366.4 939.3h2481M366.4 964.1h2481M366.4 1255.5h2481M366.4 1280.3h2481M366.4 1305.1h2481M366.4 1329.9h2481M366.4 1354.7h2481M366.4 1508.5h2481M366.4 1533.3h2481M366.4 1558.1h2481M366.4 1582.9h2481M366.4 1607.7h2481M366.4 1724.3h2481M366.4 1749.1h2481M366.4 1773.9h2481M366.4 1798.7h2481M366.4 1823.5h2481M366.4 2114.9h2481M366.4 2139.7h2481M366.4 2164.5h2481M366.4 2189.3h2481M366.4 2214.1h2481M366.4 2361.5h2481M366.4 2386.3h2481M366.4 2411.1h2481M366.4 2435.9h2481M366.4 2460.7h2481M366.4 2577.3h2481M366.4 2602.1h2481M366.4 2626.9h2481M366.4 2651.7h2481M366.4 2676.5h2481M366.4 2967.9h2481M366.4 2992.7h2481M366.4 3017.5h2481M366.4 3042.3h2481M366.4 3067.1h2481M366.4 3216.3h2481M366.4 3241.1h2481M366.4 3265.9h2481M366.4 3290.7h2481M366.4 3315.5h2481M366.4 3474.6h2481M366.4 3499.4h2481M366.4 3524.2h2481M366.4 3549h2481M366.4 3573.8h2481" class="StaffLines"/><path d="M381.5 2903.5c3.1-1.5 6-3.1 6-7.1 0-3.7-3-6.2-7.3-6.2-5.2 0-9.2 3.7-9.2 8.5 0 2.5.8 4 3 5.6q-7.1 2.8-7.2 8.3c0 4 3.2 6.3 8.3 6.3 6.1 0 10.5-3.7 10.5-9 0-3.1-1.7-4.8-4.1-6.4m-1.7-1c-4.1-1.9-5.6-3.4-5.6-5.7 0-2.8 2.5-5 5.6-5 2.8 0 4.7 1.8 4.7 4.4 0 3-2 5.3-4.7 6.4m-4.3 2.8c2 .8 2.6 1.2 3.6 1.8q3 1.8 3 4.6c0 3-2.8 5.4-6.6 5.4-3.4 0-5.5-2-5.5-5q.1-4.6 5.5-6.8m27.2-15.2c-8.6 0-12.9 11.8-12.9 18.8 0 5.8 3 10 7 10 6.8 0 13-9 13-18.9 0-6-2.9-10-7-10m-.1 1.7q3.1 0 3.2 5.2c0 4-1 9-2.7 13.2-1.9 5-3.8 7.1-6.2 7.1q-3.3-.2-3.4-5.3c0-5.2 1.9-12.2 4.4-16.8q2-3.3 4.7-3.4M386.9 2037.1a69 69 0 0 1-10.8.3l-4-.2h-1l-3.9 8.4 1.5.5 1-1.6c1.8-3.2 2.7-3.6 6.8-3.6h6.7l-4.3 6.3c-5.1 7.2-5.1 7.2-7.1 10.4q-2.6 4-2.5 6 .2 2.2 2.3 2.3t2.8-2.6c2-7.5 3.2-10.1 8.7-19.1l3.8-5.9zm14.8 13.4c3.1-1.5 6-3.1 6-7.1 0-3.7-3-6.3-7.3-6.3-5.2 0-9.2 3.8-9.2 8.6 0 2.4.9 4 3 5.6q-7.1 2.8-7.2 8.3c0 3.9 3.2 6.3 8.3 6.3 6.2 0 10.6-3.8 10.6-9 0-3.1-1.7-4.8-4.2-6.4m-1.7-1c-4-1.9-5.6-3.4-5.6-5.7 0-2.8 2.5-5 5.7-5 2.7 0 4.7 1.8 4.7 4.3 0 3-2.1 5.4-4.8 6.4m-4.2 2.8 3.5 1.8q3 1.8 3 4.6c0 3.1-2.8 5.4-6.5 5.4q-5.4-.2-5.6-5 .1-4.5 5.6-6.8M386.9 1177.8a69 69 0 0 1-10.8.2l-4-.2h-1l-3.9 8.4 1.5.5 1-1.6c1.8-3.1 2.7-3.6 6.8-3.6h6.7l-4.3 6.3c-5.1 7.2-5.1 7.2-7.1 10.4q-2.6 4-2.5 6 .2 2.2 2.3 2.3t2.8-2.6c2-7.5 3.2-10.1 8.7-19.1l3.8-5.8zm6 14.7a25 25 0 0 1 3-8.4q2.8-4.7 6.4-4.8 2 0 2 1.3 0 .3-.3 1-.6.8-.5 1.7.2 2 2.3 2.2 2.6-.2 2.8-3c0-2.7-2.6-4.7-6.2-4.7-8.9 0-14.3 11.6-14.3 19.3 0 5.9 3 9.4 7.8 9.4 6 0 10.4-5 10.4-10.8 0-4.1-2.7-7-6.7-7q-4.2 0-6.6 3.8m5.3-1.4q3.8 0 3.9 4.8c0 5-2.7 9-6.3 9-2.6 0-4-2-4-5.1 0-5 2.7-8.7 6.4-8.7M386.9 308.4a67 67 0 0 1-14.8 0h-1l-3.9 8.5 1.5.5 1-1.6c1.8-3.2 2.7-3.6 6.8-3.6h6.7l-4.3 6.3c-5.1 7.2-5.1 7.2-7.1 10.4q-2.6 4-2.5 6 .2 2.2 2.3 2.3t2.8-2.6c2-7.5 3.2-10.1 8.7-19.1l3.8-5.9zm20.3-.1H405l-18.6 19.3v1.6h11.2l-.6 2.5c-.8 3-.8 3-4.3 3h-.7l-.2 1.9h12.4l.2-1.9h-.7c-2.7 0-3.2-.2-3.2-1q-.1-.4.4-2l.7-2.5h4.5l.6-2.1h-4.6zm-8.9 18.8h-9l12.4-12.7z" class="MeasureNumber"/><path d="M288.3 3027.3 279 3004q-.4-1.1-.4-1.6-.1-1.3 3.1-1.2h2v-2.4h-15.6v2.4h1c2.3 0 3 .6 3.9 2.8l12.6 31.7h2l11.5-29.6c1.5-4 2.6-4.8 5.4-5h.5v-2.3h-13.5v2.4h1q3.9.1 4 2.6 0 1.2-.6 2.8zm18.4 2.2a3.1 3.1 0 1 0 0 6.2 3.1 3.1 0 0 0 0-6.2M288.3 445.5l-9.2-23.2q-.4-1-.4-1.5-.1-1.4 3.1-1.3h2v-2.3h-15.6v2.3h1c2.3.1 3 .6 3.9 2.8l12.6 31.7h2l11.5-29.6c1.5-3.9 2.6-4.8 5.4-4.9h.5v-2.3h-13.5v2.3h1q3.9.1 4 2.6 0 1.2-.6 2.8zm18.4 2.3a3.1 3.1 0 1 0 0 6.3 3.1 3.1 0 0 0 0-6.3M288.3 1314.9l-9.2-23.2-.4-1.6q-.1-1.3 3.1-1.2h2v-2.4h-15.6v2.3h1c2.3.1 3 .7 3.9 2.9l12.6 31.6h2l11.5-29.6c1.5-3.9 2.6-4.7 5.4-4.9h.5v-2.3h-13.5v2.3h1q3.9 0 4 2.7 0 1.1-.6 2.7zm18.4 2.3a3.1 3.1 0 1 0 0 6.2 3.1 3.1 0 0 0 0-6.2M288.3 2174.2 279 2151l-.4-1.5q-.1-1.4 3.1-1.3h2v-2.3h-15.6v2.3h1c2.3 0 3 .6 3.9 2.8l12.6 31.7h2l11.5-29.6c1.5-3.9 2.6-4.8 5.4-4.9h.5v-2.3h-13.5v2.3h1q3.9.1 4 2.6 0 1.2-.6 2.8zm18.4 2.3a3.1 3.1 0 1 0 0 6.2 3.1 3.1 0 0 0 0-6.2M224 3396.5h5.6c4.5 0 7-.4 9-1.3a10 10 0 0 0 5.5-8.9c0-8-7-9.9-13.6-9.9H213v2.4h.9c2.9 0 3.8.2 4.2.7.3.4.3.6.3 3v23.9c0 2.5 0 2.7-.3 3.1-.4.5-1.3.7-4.2.7h-.9v2.4h16.8v-2.4h-1.3c-2.9 0-3.8-.2-4.2-.7-.3-.4-.3-.6-.3-3.1zm0-2.4v-12.8c0-2.2.3-2.5 3-2.5h3.3q7.6-.1 7.6 7.8 0 7.6-7.8 7.5zm30.8-4.8-8.6.5v2.1h1.8c1.9.1 2.1.4 2.1 2.5v14.3q0 1-.3 1.4-.4.6-3.4.7h-.2v1.8h12.6v-1.8h-.2c-3.3-.2-3.8-.4-3.8-2.2v-7.4c0-2.4.4-4.7 1-5.9 1-2.2 3.2-3.7 5.4-3.7 1.3 0 2.8.7 3.5 1.7q1.1 1.5 1.1 5v10.4q0 1-.3 1.4-.3.6-3.5.7h-.2v1.8h12.7v-1.8h-.2c-3.3-.2-3.8-.4-3.8-2.2v-10c0-3.7-.1-4.5-1-6.3a7 7 0 0 0-6.8-3.8q-4.7 0-7.9 4.8zm33.2-.8c-6.2 0-11 5.4-11 12.4s4.9 12.4 10.9 12.4 10.8-5.5 10.8-12.4c0-6.8-4.8-12.4-10.7-12.4m0 2.1q5.3.2 5.4 10.3-.1 10.1-5.5 10.2t-5.6-10.2q0-10.2 5.7-10.3m18.5 16.4a3.1 3.1 0 1 0 0 6.2 3.1 3.1 0 0 0 0-6.2M224 808h5.6c4.5 0 7-.3 9-1.3q5.4-2.7 5.5-8.8c0-8-7-10-13.6-10H213v2.4h.9c2.9 0 3.8.2 4.2.7.3.5.3.6.3 3.1V818c0 2.6 0 2.7-.3 3.1-.4.5-1.3.7-4.2.7h-.9v2.4h16.8v-2.4h-1.3c-2.9 0-3.8-.2-4.2-.7-.3-.4-.3-.5-.3-3zm0-2.3v-12.8c0-2.3.3-2.6 3-2.6h3.3q7.6 0 7.6 7.8 0 7.6-7.8 7.6zm30.8-5-8.6.6v2.2h1.8c1.9 0 2.1.3 2.1 2.5v14.3q0 1-.3 1.3-.4.6-3.4.7h-.2v1.8h12.6v-1.8h-.2c-3.3-.1-3.8-.4-3.8-2.2v-7.4c0-2.4.4-4.7 1-5.8 1-2.3 3.2-3.8 5.4-3.8 1.3 0 2.8.7 3.5 1.7q1.1 1.5 1.1 5v10.5q0 1-.3 1.3-.3.6-3.5.7h-.2v1.8h12.7v-1.8h-.2c-3.3-.1-3.8-.4-3.8-2.2v-10c0-3.6-.1-4.5-1-6.2a7 7 0 0 0-6.8-3.9q-4.7 0-7.9 4.8zm33.2-.8c-6.2 0-11 5.5-11 12.5 0 6.8 4.9 12.3 10.9 12.3s10.8-5.5 10.8-12.4c0-6.8-4.8-12.4-10.7-12.4m0 2.2q5.3.2 5.4 10.2-.1 10.2-5.5 10.3-5.5-.2-5.6-10.2 0-10.2 5.7-10.3m18.5 16.3a3.1 3.1 0 1 0 0 6.2 3.1 3.1 0 0 0 0-6.2M224 2520.4h5.6c4.5 0 7-.3 9-1.3 3.5-1.7 5.5-4.9 5.5-8.8 0-8-7-10-13.6-10H213v2.4h.9c2.9 0 3.8.2 4.2.7.3.5.3.6.3 3.1v23.8c0 2.6 0 2.7-.3 3.1-.4.5-1.3.7-4.2.7h-.9v2.4h16.8v-2.4h-1.3c-2.9 0-3.8-.2-4.2-.7-.3-.4-.3-.5-.3-3zm0-2.3v-12.8c0-2.3.3-2.6 3-2.6h3.3q7.6 0 7.6 7.8 0 7.6-7.8 7.6zm30.8-5-8.6.6v2.2h1.8c1.9 0 2.1.3 2.1 2.5v14.3q0 1-.3 1.3-.4.6-3.4.7h-.2v1.8h12.6v-1.8h-.2c-3.3-.1-3.8-.4-3.8-2.2v-7.4c0-2.4.4-4.7 1-5.8 1-2.3 3.2-3.8 5.4-3.8 1.3 0 2.8.7 3.5 1.7q1.1 1.5 1.1 5v10.5q0 1-.3 1.3-.3.6-3.5.7h-.2v1.8h12.7v-1.8h-.2c-3.3-.1-3.8-.4-3.8-2.2v-10c0-3.6-.1-4.5-1-6.2a7 7 0 0 0-6.8-3.9q-4.7 0-7.9 4.8zm33.2-.8c-6.2 0-11 5.5-11 12.5 0 6.8 4.9 12.3 10.9 12.3s10.8-5.5 10.8-12.4c0-6.8-4.8-12.4-10.7-12.4m0 2.2q5.3.1 5.4 10.2-.1 10.2-5.5 10.3-5.5-.1-5.6-10.2 0-10.3 5.7-10.3m18.5 16.3a3.1 3.1 0 1 0 3.1 3.1c0-1.7-1.4-3-3-3M224 1667.4h5.6c4.5 0 7-.4 9-1.3q5.4-2.7 5.5-8.8c0-8-7-10-13.6-10H213v2.4h.9c2.9 0 3.8.2 4.2.7.3.4.3.6.3 3.1v23.8c0 2.6 0 2.7-.3 3.1-.4.5-1.3.7-4.2.7h-.9v2.4h16.8v-2.4h-1.3c-2.9 0-3.8-.2-4.2-.7-.3-.4-.3-.5-.3-3.1zm0-2.4v-12.7c0-2.3.3-2.6 3-2.6h3.3q7.6 0 7.6 7.8 0 7.6-7.8 7.5zm30.8-4.8-8.6.5v2.2h1.8c1.9 0 2.1.3 2.1 2.5v14.3q0 1-.3 1.3-.4.6-3.4.7h-.2v1.8h12.6v-1.8h-.2c-3.3-.2-3.8-.4-3.8-2.2v-7.4c0-2.4.4-4.7 1-5.8 1-2.3 3.2-3.8 5.4-3.8 1.3 0 2.8.7 3.5 1.7q1.1 1.5 1.1 5v10.5q0 1-.3 1.3-.3.6-3.5.7h-.2v1.8h12.7v-1.8h-.2c-3.3-.2-3.8-.4-3.8-2.2v-10c0-3.6-.1-4.5-1-6.2a7 7 0 0 0-6.8-3.9q-4.7 0-7.9 4.8zm33.2-.8c-6.2 0-11 5.5-11 12.5 0 6.8 4.9 12.3 10.9 12.3s10.8-5.5 10.8-12.4c0-6.8-4.8-12.4-10.7-12.4m0 2.1c3.5 0 5.4 3.7 5.4 10.3q-.1 10.2-5.5 10.3-5.5-.1-5.6-10.2 0-10.4 5.7-10.4m18.5 16.4a3.1 3.1 0 1 0 3.1 3.1c0-1.7-1.4-3-3-3" class="InstrumentName"/><path fill="none" stroke="#000" stroke-linejoin="bevel" stroke-width="4.5" d="M1639.6 2113.5v102M1801.2 2966.6v101.9M368.7 2966.6v249.7M2845.2 2113.5v102M1665.2 384.8v102M368.7 1254.1v254.4M2845.2 1254.1v102M2845.2 384.8v102M1675 1254.1v102M2822.4 2966.6v101.9" class="BarLine"/><path fill="none" stroke="#000" stroke-linejoin="bevel" stroke-width="13.6" d="M2840.6 2966.6v101.9" class="BarLine"/><path fill="none" stroke="#000" stroke-linejoin="bevel" stroke-width="4.5" d="M368.7 384.8v264.3M368.7 2113.5v248M2845.2 1507.1v217.2M368.7 1507.1v217.2M368.7 647.7v217.2M2845.2 2360.1v217.2M2822.4 3214.9v259.7" class="BarLine"/><path fill="none" stroke="#000" stroke-linejoin="bevel" stroke-width="13.6" d="M2840.6 3214.9v259.7" class="BarLine"/><path fill="none" stroke="#000" stroke-linejoin="bevel" stroke-width="4.5" d="M2845.2 647.7v217.2M368.7 2360.1v217.2M1665.2 647.7v217.2M1675 1507.1v217.2M368.7 3214.9v259.7M1801.2 3214.9v259.7M1639.6 2360.1v217.2M1675 1722.9v101.9M368.7 3473.2v102M2845.2 2575.9v101.9M368.7 1722.9v101.9M368.7 2575.9v101.9M368.7 863.5v101.9M1639.6 2575.9v101.9M2822.4 3473.2v102" class="BarLine"/><path fill="none" stroke="#000" stroke-linejoin="bevel" stroke-width="13.6" d="M2840.6 3473.2v102" class="BarLine"/><path fill="none" stroke="#000" stroke-linejoin="bevel" stroke-width="4.5" d="M2845.2 863.5v101.9M2845.2 1722.9v101.9M1801.2 3473.2v102M1665.2 863.5v101.9" class="BarLine"/><path fill-rule="evenodd" stroke="#000" stroke-linecap="round" stroke-linejoin="round" stroke-width="1.2" d="M1605.3 3072.8c62 35.2 185.7 35.2 247.6 0-61.9 43.2-185.7 43.2-247.6 0M1516.4 1360.4c72 50.6 408.2 50.6 480.3 0-72 58.5-408.3 58.5-480.3 0M2442.9 491.1c47.6 38.7 197.4 48.6 249.7 16.6-52.8 40-202.7 30-249.7-16.6M2126 1335.6c31.6 25.4 96.3 27.5 129.4 4.2-33.4 31.3-98 29.1-129.4-4.2" class="SlurSegment"/><path fill-rule="evenodd" stroke="#000" stroke-linecap="round" stroke-linejoin="round" stroke-width="1.2" d="M2153.2 466.3c24 11.7 95.9 11.7 119.9 0-24 19.7-96 19.7-120 0M1056.3 3048c30.4 12.4 121.9 12.4 152.3 0-30.4 20.4-121.9 20.4-152.3 0M1518 1335.6c45 31.5 180 31.5 225 0-45 39.4-180 39.4-225 0M2109.2 2195c32.4 30.6 129.6 30.6 162 0-32.4 38.6-129.6 38.6-162 0M957.4 1335.6c25 12 99.6 12 124.4 0-24.8 20-99.5 20-124.4 0M2127.6 1625.8c24.9 18.4 99.5 18.4 124.4 0-24.9 26.3-99.5 26.3-124.4 0M977 1540c21.5-25.2 86.1-25.2 107.7 0-21.6-17.2-86.2-17.2-107.8 0M2147.1 1540c21.6-25.2 86.2-25.2 107.8 0-21.6-17.2-86.2-17.2-107.8 0M957.4 1625.8c25 18.4 99.6 18.4 124.4 0-24.8 26.3-99.5 26.3-124.4 0M992.7 680.6c20.7-25.3 82.6-25.3 103.3 0-20.7-17.4-82.6-17.4-103.3 0M973.2 766.4c24 18 96 18 120 0-24 26-96 26-120 0M2153.2 791.2c24 18 95.9 18 119.9 0-24 26-96 26-120 0M2128.7 2393c29-27.8 116.3-27.8 145.4 0-29.1-19.9-116.3-19.9-145.4 0M2172.7 741.6c18.3 16.9 73.3 16.9 91.7 0-18.4 24.5-73.4 24.5-91.7 0M2109.2 2478.8c32.4 21 129.6 21 162 0-32.4 28.9-129.6 28.9-162 0M948.2 2368.2c24-26 96.2-26 120.3 0-24-18-96.3-18-120.3 0M945.4 2454c20.5 17.3 82 17.3 102.5 0-20.5 25.3-82 25.3-102.5 0M2172.7 668.2c20.6-19.6 82.5-19.6 103.2 0-20.7-11.7-82.6-11.7-103.2 0M2127.6 1866.3c24.9 18.4 99.5 18.4 124.4 0-24.9 26.4-99.5 26.4-124.4 0M973.2 1007c24 18 96 18 120 0-24 26-96 26-120 0M2192.7 2719.4c15.7 14.8 62.8 14.8 78.5 0-15.7 22-62.8 22-78.5 0M957.4 1866.3c25 18.4 99.6 18.4 124.4 0-24.8 26.4-99.5 26.4-124.4 0M945.4 2694.6c24 18 96.2 18 120.2 0-24 26-96.2 26-120.2 0M2346 3468.8c27.2-27.1 108.6-27.1 135.7 0-27.1-19.2-108.5-19.2-135.7 0M2153.2 1031.8c24 18 95.9 18 119.9 0-24 26-96 26-120 0" class="TieSegment"/><path d="M710.7 3063.1c0 7.9-4.1 12-9.9 16.6l.3-19.3c.2-1 1.7-3.8 5.7-3.8 3.6 0 3.9 3.4 3.9 5.5zm-1.2-11.4c-5 0-7.9 3.1-8.4 3.7l.4-31.8q-.1-1.3-1.4-1.4H699q-1.4.1-1.4 1.4l.5 59.6q0 1.3 1.3 1.4l.8-.2c8.6-4.3 17.5-12.4 17.5-22.7 0-5.1-2.4-10-8.2-10M817.4 431.8c0 7.9-4 12-9.8 16.6l.3-19.3c.2-1 1.7-3.8 5.7-3.8 3.5 0 3.8 3.4 3.8 5.4zm-1.2-11.4c-5 0-7.8 3-8.3 3.7l.4-31.9q-.1-1.2-1.4-1.3h-1.2q-1.3.1-1.4 1.3l.5 59.7q.1 1.3 1.4 1.4l.8-.2c8.5-4.3 17.5-12.4 17.5-22.7 0-5.1-2.4-10-8.3-10M797.1 1301.1c0 7.9-4 12-9.8 16.6l.3-19.3c.2-1 1.7-3.8 5.7-3.8 3.5 0 3.8 3.4 3.8 5.4zm-1.2-11.4c-5 0-7.8 3-8.3 3.7l.4-31.9q-.1-1.2-1.4-1.3h-1.2q-1.3.1-1.4 1.3l.5 59.7q.1 1.3 1.4 1.4l.8-.2c8.6-4.3 17.5-12.4 17.5-22.7 0-5.1-2.4-10-8.3-10M1955.7 431.8c0 7.9-4 12-9.8 16.6l.3-19.3c.2-1 1.7-3.8 5.7-3.8 3.6 0 3.8 3.4 3.8 5.4zm-1.1-11.4c-5 0-7.9 3-8.4 3.7l.4-31.9q-.1-1.2-1.4-1.3h-1.2q-1.3.1-1.3 1.3l.4 59.7q.1 1.3 1.4 1.4l.8-.2c8.6-4.3 17.5-12.4 17.5-22.7 0-5.1-2.4-10-8.2-10M2096.7 1301.1c0 7.9-4.1 12-9.8 16.6l.2-19.3c.2-1 1.7-3.8 5.7-3.8 3.6 0 3.9 3.4 3.9 5.4zm-1.2-11.4c-5 0-7.9 3-8.4 3.7l.4-31.9q0-1.2-1.3-1.3h-1.2q-1.3.1-1.4 1.3l.5 59.7q.1 1.3 1.4 1.4l.8-.2c8.5-4.3 17.4-12.4 17.4-22.7 0-5.1-2.4-10-8.2-10M789.2 2160.5c0 7.9-4.1 12-9.9 16.6l.3-19.4c.2-.9 1.7-3.7 5.7-3.7 3.6 0 3.9 3.3 3.9 5.4zm-1.2-11.4c-5 0-7.9 3-8.4 3.7l.4-31.9q0-1.2-1.3-1.3h-1.2q-1.3 0-1.4 1.3l.5 59.7q.1 1.3 1.4 1.3l.8-.1c8.5-4.3 17.4-12.4 17.4-22.7 0-5.1-2.4-10-8.2-10M868 3013.5c0 7.9-4 12-9.8 16.6l.2-19.3c.3-1 1.7-3.8 5.7-3.8 3.6 0 3.9 3.4 3.9 5.5zm-1.2-11.4c-5 0-7.9 3.1-8.4 3.7l.5-31.8q-.1-1.3-1.4-1.4h-1.2q-1.3.1-1.4 1.4l.5 59.6q.1 1.3 1.4 1.4l.8-.2c8.5-4.3 17.4-12.4 17.4-22.7 0-5.1-2.4-10-8.2-10M1953 2160.5c0 7.9-4 12-9.8 16.6l.3-19.4c.2-.9 1.7-3.7 5.7-3.7 3.5 0 3.8 3.3 3.8 5.4zm-1.2-11.4c-5 0-7.8 3-8.3 3.7l.4-31.9q-.1-1.2-1.4-1.3h-1.2q-1.3 0-1.4 1.3l.5 59.7q.1 1.3 1.4 1.3l.8-.1c8.5-4.3 17.5-12.4 17.5-22.7 0-5.1-2.4-10-8.3-10M1717.1 1554.1c0 7.8-4 12-9.8 16.6l.3-19.4c.2-.9 1.7-3.7 5.6-3.7 3.6 0 4 3.3 4 5.4zm-1.3-11.4c-5 0-7.8 3-8.3 3.7l.4-31.9q-.1-1.3-1.4-1.4h-1.2q-1.3.1-1.4 1.4l.5 59.6q.1 1.3 1.4 1.4.4 0 .8-.2c8.5-4.2 17.4-12.4 17.4-22.6 0-5.1-2.3-10-8.2-10M1671 2456.7c0 7.9-4 12-9.8 16.6l.3-19.4c.2-.9 1.7-3.7 5.6-3.7 3.6 0 4 3.3 4 5.4zm-1.3-11.4c-5 0-7.8 3-8.3 3.7l.4-31.9q-.1-1.2-1.4-1.3h-1.2q-1.3 0-1.4 1.3l.5 59.7q.1 1.3 1.4 1.3l.8-.1c8.5-4.3 17.5-12.4 17.5-22.7 0-5.1-2.4-10-8.3-10M1681.7 2407.1c0 7.9-4.1 12-9.8 16.6l.2-19.4c.2-.9 1.7-3.7 5.7-3.7 3.6 0 3.9 3.3 3.9 5.4zm-1.2-11.4c-5 0-7.9 3-8.4 3.7l.4-31.9q0-1.2-1.3-1.3h-1.2q-1.3 0-1.4 1.3l.5 59.7q.1 1.3 1.4 1.3l.8-.1c8.5-4.3 17.4-12.4 17.4-22.7 0-5.1-2.4-10-8.2-10M551 3311.5c0 7.9-4.1 12-9.9 16.6l.3-19.4c.2-.9 1.7-3.7 5.7-3.7 3.5 0 3.8 3.3 3.8 5.4zm-1.2-11.4c-5 0-7.8 3-8.3 3.7l.4-31.9q-.1-1.2-1.4-1.3h-1.2q-1.3 0-1.4 1.3l.5 59.7q.1 1.3 1.4 1.3l.8-.1c8.5-4.3 17.5-12.4 17.5-22.7 0-5.1-2.4-10-8.3-10M1706.4 1603.7c0 7.8-4 12-9.8 16.6l.3-19.4c.2-.9 1.7-3.7 5.7-3.7 3.5 0 3.8 3.3 3.8 5.4zm-1.2-11.4c-5 0-7.8 3-8.3 3.7l.4-31.9q-.1-1.3-1.4-1.4h-1.2q-1.3.1-1.4 1.4l.5 59.6q.1 1.3 1.4 1.4.4 0 .8-.2c8.5-4.2 17.5-12.4 17.5-22.6 0-5.1-2.4-10-8.3-10M1675.2 2697.3c0 7.8-4 12-9.8 16.6l.3-19.4c.2-.9 1.7-3.7 5.7-3.7 3.5 0 3.8 3.3 3.8 5.4zm-1.2-11.4c-5 0-7.8 3-8.3 3.7l.4-31.9q-.1-1.3-1.4-1.4h-1.2q-1.3.1-1.4 1.4l.5 59.6q.1 1.3 1.4 1.4.4 0 .8-.2c8.5-4.2 17.5-12.4 17.5-22.6 0-5.1-2.4-10-8.3-10M1710.7 1844.3c0 7.8-4.1 12-9.9 16.6l.3-19.4c.2-.9 1.7-3.8 5.7-3.8 3.6 0 3.9 3.4 3.9 5.5zm-1.2-11.3c-5 0-7.9 3-8.4 3.6l.4-31.8q-.1-1.3-1.4-1.4h-1.1q-1.4.1-1.4 1.4l.5 59.6q0 1.3 1.4 1.4.3 0 .7-.2c8.6-4.3 17.5-12.4 17.5-22.6 0-5.2-2.4-10-8.2-10" class="Accidental"/><path fill="none" stroke="#000" stroke-linejoin="bevel" stroke-width="4" d="M2127.3 773.1h48.6M2751.5 773.1h48.6M2252.1 773.1h48.6M1960.8 773.1h48.6M2335.4 773.1h48.5M1877.6 773.1h48.6M2458 3340.3h48.5M2543.4 773.1h48.6M2418.6 773.1h48.6M2668.3 773.1h48.6M556 3340.3h53.4M1690.3 773.1h48.6M2101.7 1848.3h48.6M802.2 1848.3h48.6M1886.1 1848.3h48.6M1972.4 1848.3h48.6M716 1848.3h48.6M2532.9 1848.3h48.6M1233.4 1848.3h48.6M2335.4 1013.7h48.5M2335.4 988.9h48.5M1722.2 1848.3h48.6M2403.6 1848.3h48.6M2252.1 1013.7h48.6M2252.1 988.9h48.6M2317.3 1848.3h48.6M2127.3 1013.7h48.6M2231.1 1848.3h48.6M2127.3 988.9h48.6M552 1848.3h48.6M2543.4 1013.7h48.6M1492.1 1848.3h48.6M1578.3 1848.3h48.6M2668.3 988.9h48.6M2668.3 1013.7h48.6M1060.9 1848.3h48.6M2418.6 1013.7h48.6M2418.6 988.9h48.6M2662.3 1848.3h48.6M931.6 1848.3h48.5M2748.5 1848.3h48.6M2751.5 988.9h48.6M1147.2 1848.3h48.5M1362.7 1848.3h48.6M2751.5 1013.7h48.6M2543.4 988.9h48.6M2044 988.9h48.6M739.3 988.9h48.5M1488.4 988.9h48.6M2333.8 2701.3h48.6M1877.6 988.9h48.6M1155.4 988.9h48.6M2044 1013.7h48.6M1877.6 1013.7h48.6M2751.3 2701.3h48.6M1072.2 988.9h48.6M2667.8 2701.3h48.6M1238.7 988.9h48.6M2542.5 2701.3h48.6M1363.5 988.9h48.6M1960.8 1013.7h48.6M1960.8 988.9h48.6M2417.3 2701.3h48.6M556 3623.4h53.4M1958.1 2701.3h48.6M1690.3 988.9h48.6M1690.3 1013.7h48.6M822.5 988.9h48.6M2083.3 2701.3h48.6M2166.8 2701.3h48.6M1686.7 2701.3h48.6M556 3598.6h53.4M1874.6 2701.3h48.6M1571.6 988.9h48.6M947.3 988.9h48.6M552 988.9h48.6M2250.3 2701.3h48.6" class="LedgerLine"/><path fill="none" stroke="#000" stroke-linejoin="bevel" stroke-width="2.5" d="M2456.5 2185.3v-82.8M2289.5 2172.9v-76.4M716 481.4V367.6M2122.5 2172.9v-76.6M1100.1 1313.5v-76.4M986.5 444.2v-76.6M970.7 1313.5V1243M1069.6 3026v-76.7M912.2 3013.6v-64.3M754.9 3063.2v-113.9M2011.6 1325.9V1243M861.7 431.8v-64.2M841.4 1301.1V1237M2140.9 1301.1V1237M1725.1 3026v-76.6M2270.3 1313.5v-76.6M1111.4 456.6V374M1761.3 1313.5v-76.6M1384.2 3038.4v-82.9M2572.1 1325.9v-82.8M1620.2 3038.4v-83M1277.8 444.2v-76.6M1226.9 3026v-76.5M1083.9 2185.3v-82.6M2166.5 444.2v-76.6M958.7 2172.9v-70.5M1851.2 2185.3v-89M2291.3 444.2v-76.4M1531.3 1313.5v-76.4M2457.8 456.6v-82.8M1250.9 2172.9v-76.6M1272.6 1325.9v-82.8M1854.3 456.6v-89M1997.3 2160.5v-64.2M2000 431.8v-64.2M833.4 2160.5v-64.1M2707.5 481.4v-82.6M928.9 2390.5v107.4M2270.3 1603.7v-120M591.2 744.3v-120M2442.8 1603.7v-120M1111.4 744.3v-120M2356.5 1603.7v-120M2140.9 1603.7v-113.8M591.2 1603.7v-120M1194.6 744.3v-120M2374.5 769.1V611.9M2572.1 1603.7v-120M1555.1 2390.5v119.8M2011.6 1603.7v-113.8M970.7 1603.7v-113.8M1346.4 2390.5v119.8M1221.1 2390.5v119.8M861.7 744.3V630.5M1401.9 1603.7v-120M1925.3 1603.7v-120M2166.5 769.1v-151M841.4 1603.7v-113.8M755.1 1603.7v-120M1137.6 2390.5v119.8M2291.3 769.1V611.9M1471.6 2390.5v119.8M1272.6 1603.7v-120M1054.1 2390.5v119.8M986.5 744.3V630.5M2707.5 769.1V611.9M1761.3 1603.7v-120M1913.8 2456.7v-120M1527.5 744.3v-120M2456.5 2456.7v-120M2787.7 1603.7v-120M2497.1 3348.7v-82.8M2582.6 769.1V611.9M1610.8 744.3v-120M2373 2456.7v-120M1916.8 769.1V611.9M2701.5 1603.7v-120M2289.5 2456.7v-120M1617.5 1603.7v-120M2790.7 769.1V611.9M1729.5 769.1V611.9M2122.5 2456.7v-113.8M1997.3 2456.7v-113.8M1186.3 1603.7v-120M2000 769.1v-151M2457.8 769.1V611.9M2581.7 2456.7v-120M778.4 744.3v-120M1725.9 2456.7v-120M803.7 2390.5v107.4M561.4 2390.5v119.8M2707 2456.7v-120M1402.7 744.3v-120M1100.1 1603.7v-120M1531.3 1603.7v-120M1277.8 744.3v-120M720.2 2390.5v119.8M2790.5 2456.7v-120M1925.3 1844.3v-70.4M1617.5 1844.3v-70.4M2339.8 3483v-57.9M2497.1 3483v-58M1401.9 1844.3v-70.4M1531.3 1844.3v-70.4M2182.5 3520.2v-79.7M2025.2 3545v-89.1M2206 2697.3v-70.4M1250.9 2672.5v-70.4M1376.1 2672.5v-70.4M1167.4 2672.5v-70.4M1083.9 2672.5v-70.4M958.7 2672.5v-70.4M1501.4 2672.5v-70.4M833.4 2672.5v-70.4M749.9 2672.5v-70.4M1584.8 2672.5v-70.4M591.2 2672.5v-70.4M1725.9 2697.3v-70.4M1913.8 2697.3v-70.4M1997.3 2697.3v-70.4M2122.5 2697.3v-70.4M1761.3 1844.3v-70.4M2289.5 2697.3v-70.4M2787.7 1844.3v-70.4M2373 2697.3v-70.4M2456.5 2697.3v-70.4M2581.7 2697.3v-70.4M2707 2697.3v-70.4M2701.5 1844.3v-70.4M2790.5 2697.3v-70.4M2572.1 1844.3v-70.4M2442.8 1844.3v-70.4M2356.5 1844.3v-70.4M2270.3 1844.3v-70.4M2140.9 1844.3v-70.4M2011.6 1844.3v-70.4M1111.4 984.9v-70.4M1100.1 1844.3v-70.4M970.7 1844.3v-70.4M2166.5 1009.7v-89M778.4 984.9v-70.4M841.4 1844.3v-70.4M861.7 984.9v-70.4M755.1 1844.3v-70.4M1729.5 1009.7v-89M2291.3 1009.7v-89M986.5 984.9v-70.4M591.2 1844.3v-70.4M1272.6 1844.3v-70.4M1194.6 984.9v-70.4M2374.5 1009.7v-89M1610.8 984.9v-70.4M1277.8 984.9v-70.4M1527.5 984.9v-70.4M2790.7 1009.7v-89M2457.8 1009.7v-89M2707.5 1003.1v-82.4M1402.7 984.9v-70.4M2582.6 1009.7v-89M2083.2 1009.7v-89M591.2 984.9v-70.4M1916.8 1009.7v-89M1186.3 1844.3v-70.4M2000 1009.7v-89" class="Stem"/><path d="M2288.3 2118.8q-.2.6.7 1.1a40 40 0 0 1 19.3 17.8c1.8 3 4.7 7.3 4.7 15.5a65 65 0 0 1-4.5 21.7q-.4.8-.3 1.4 0 1 1 1t1.6-1c4.4-8 6.1-17.2 6.1-26.2-.5-12.8-7.8-22.3-7.8-22.3.3 0-9.1-12.2-11.8-16.3-3.7-5.7-5.4-11.3-5.6-11.7l-1-4q-.2-.6-1.2-.7-1.1.1-1.2 1.3zM1530 1259.4q-.1.5.8 1.1a40 40 0 0 1 19.3 17.8c1.8 3 4.6 7.3 4.6 15.5a65 65 0 0 1-4.4 21.7q-.4.8-.3 1.5 0 1 1 1t1.6-1.1c4.4-8 6.1-17.2 6.1-26.2-.5-12.8-7.8-22.3-7.8-22.3.3 0-9.2-12.2-11.8-16.3-3.7-5.7-5.4-11.3-5.6-11.7l-1-3.9q-.1-.7-1.2-.8-1.2.1-1.3 1.3zM1110.1 396.3q-.1.6.8 1.1a40 40 0 0 1 19.3 17.8c1.8 3 4.6 7.3 4.6 15.5a65 65 0 0 1-4.4 21.7q-.4.8-.3 1.5 0 1 1 1t1.6-1.1c4.4-8 6.1-17.2 6.1-26.2-.5-12.8-7.8-22.3-7.8-22.3.3 0-9.2-12.2-11.8-16.3-3.7-5.7-5.4-11.3-5.6-11.7l-1-3.9q-.1-.7-1.2-.8-1.2.1-1.3 1.3zM1082.7 2125q-.2.6.7 1.1a40 40 0 0 1 19.3 17.8c1.8 3 4.7 7.3 4.7 15.5a65 65 0 0 1-4.5 21.7q-.4.8-.3 1.4 0 1 1 1t1.6-1c4.4-8 6.1-17.2 6.1-26.2-.5-12.8-7.8-22.3-7.8-22.3.3 0-9.1-12.2-11.8-16.3-3.7-5.7-5.4-11.3-5.6-11.7l-1-4q-.1-.6-1.2-.7-1.1.1-1.2 1.3zM2290 390.1q0 .5.9 1.1A40 40 0 0 1 2310 409c1.8 3 4.7 7.3 4.7 15.5a65 65 0 0 1-4.5 21.7q-.4.8-.3 1.5 0 1 1 1t1.6-1.1c4.4-8 6.1-17.2 6.1-26.2a42 42 0 0 0-7.8-22.3c.3 0-9.1-12.2-11.8-16.3-3.7-5.7-5.4-11.3-5.6-11.7l-1-3.9q0-.7-1.2-.8-1.1.1-1.2 1.3zM1225.6 2971.8q-.1.5.8 1.1a40 40 0 0 1 19.3 17.8c1.8 3 4.6 7.3 4.6 15.6a65 65 0 0 1-4.4 21.6q-.4.8-.3 1.5 0 1 1 1t1.6-1.1c4.4-8 6.1-17.2 6.1-26.2-.5-12.8-7.8-22.2-7.8-22.2.3 0-9.2-12.2-11.8-16.4-3.7-5.7-5.4-11.3-5.6-11.7l-1-3.9q-.1-.7-1.2-.8-1.2.1-1.3 1.3zM1098.9 1259.4q-.2.5.7 1.1a40 40 0 0 1 19.3 17.8c1.8 3 4.7 7.3 4.7 15.5a65 65 0 0 1-4.5 21.7q-.4.8-.3 1.5 0 1 1 1t1.6-1.1c4.4-8 6.1-17.2 6.1-26.2-.5-12.8-7.8-22.3-7.8-22.3.3 0-9.1-12.2-11.8-16.3-3.7-5.7-5.4-11.3-5.6-11.7l-1-3.9q-.1-.7-1.2-.8-1.1.1-1.2 1.3zM2706.2 421.1q-.1.5.8 1.1a40 40 0 0 1 19.3 17.8c1.8 3 4.6 7.3 4.6 15.5a65 65 0 0 1-4.4 21.7q-.4.8-.3 1.5 0 1 1 1t1.6-1.1c4.4-8 6.1-17.2 6.1-26.2a42 42 0 0 0-7.8-22.3c.3 0-9.2-12.2-11.8-16.3-3.7-5.7-5.4-11.3-5.6-11.7l-1-3.9q-.1-.7-1.2-.8-1.2.1-1.3 1.3z" class="Hook"/><path d="M2091.5 2181c0 4.3 3 9 11.1 9 10.3 0 21.2-8.4 21.2-17 0-6-5-9.2-11.2-9.2-9.6 0-21 8.1-21 17.3M2425.5 2193.5c0 4.2 3 9 11 9 10.4 0 21.2-8.5 21.2-17.2 0-5.8-5-9.1-11-9.1-9.7 0-21.2 8.1-21.2 17.3M723.9 3071.3c0 4.2 3 9 11.1 9 10.3 0 21.1-8.4 21.1-17.2 0-5.8-5-9-11-9-9.7 0-21.2 8-21.2 17.2M1069 1321.7c0 4.2 3.2 9 11.2 9 10.3 0 21.1-8.4 21.1-17.2 0-5.8-5-9.1-11-9.1-9.7 0-21.2 8.1-21.2 17.3M810.4 1309.3c0 4.2 3 9 11 9 10.4 0 21.2-8.4 21.2-17.2 0-5.8-5-9.1-11-9.1-9.7 0-21.2 8.1-21.2 17.3M1969 440c0 4.2 3 9 11 9 10.4 0 21.2-8.4 21.2-17.2 0-5.8-5-9.1-11-9.1-9.7 0-21.2 8.1-21.2 17.3M2110 1309.3c0 4.2 3 9 11 9 10.3 0 21.2-8.4 21.2-17.2 0-5.8-5-9.1-11.2-9.1-9.6 0-21 8.1-21 17.3M2135.5 452.4c0 4.2 3 9 11 9 10.4 0 21.2-8.4 21.2-17.2 0-5.8-5-9.1-11.1-9.1-9.6 0-21.2 8.1-21.2 17.3M955.5 452.4c0 4.2 3 9 11.1 9 10.3 0 21.2-8.4 21.2-17.2 0-5.8-5-9.1-11.2-9.1-9.6 0-21 8.1-21 17.3M1052.9 2193.5c0 4.2 3 9 11.1 9 10.3 0 21.1-8.5 21.1-17.2 0-5.8-5-9.1-11-9.1-9.7 0-21.2 8.1-21.2 17.3M2239.3 1321.7c0 4.2 3 9 11 9 10.4 0 21.2-8.4 21.2-17.2 0-5.8-5-9.1-11.1-9.1-9.6 0-21.1 8.1-21.1 17.3M685 489.6c0 4.2 3 9 11.1 9 10.3 0 21.2-8.4 21.2-17.2 0-5.8-5-9.1-11.2-9.1-9.6 0-21 8.1-21 17.3M1820.2 2193.5c0 4.2 3 9 11 9 10.4 0 21.2-8.5 21.2-17.2 0-5.8-5-9.1-11.1-9.1-9.6 0-21.1 8.1-21.1 17.3M1500.3 1321.7c0 4.2 3 9 11 9 10.4 0 21.2-8.4 21.2-17.2 0-5.8-5-9.1-11-9.1-9.7 0-21.2 8.1-21.2 17.3M927.7 2181c0 4.3 3 9 11 9 10.4 0 21.2-8.4 21.2-17 0-6-5-9.2-11.1-9.2-9.6 0-21.1 8.1-21.1 17.3M1080.4 464.8c0 4.2 3 9 11 9 10.4 0 21.2-8.4 21.2-17.2 0-5.8-5-9.1-11.1-9.1-9.6 0-21.1 8.1-21.1 17.3M1853.8 3052.4q-4.1.2-6-3.2c-1.3-2.5-3-8.9-3.2-11.6q-.4-3.8 3.2-5a14 14 0 0 1 4.3-.6c2.8 0 4.6.6 6 3.3 1.3 2.6 3.1 9 3.1 11.5 0 4.8-3.4 5.6-7.4 5.6m-.8-23.6c-13.7 0-18.6 7-18.6 13.4s4.9 13.4 18.6 13.4 18.4-7 18.4-13.4-4.7-13.4-18.4-13.4M2426.8 464.8c0 4.2 3 9 11 9 10.4 0 21.2-8.4 21.2-17.2 0-5.8-5-9.1-11.1-9.1-9.6 0-21.1 8.1-21.1 17.3M1241.6 1334c0 4.3 3 9 11 9 10.4 0 21.2-8.3 21.2-17 0-6-5-9.2-11.1-9.2-9.6 0-21.1 8.1-21.1 17.3M2258.5 2181c0 4.3 3 9 11.1 9 10.3 0 21.1-8.4 21.1-17 0-6-5-9.2-11-9.2-9.7 0-21.2 8.1-21.2 17.3M802.4 2168.7c0 4.2 3 9 11.1 9 10.3 0 21.2-8.5 21.2-17.2 0-5.8-5-9.1-11.2-9.1-9.6 0-21 8.1-21 17.3M1246.8 452.4c0 4.2 3.1 9 11.2 9 10.3 0 21-8.4 21-17.2 0-5.8-4.9-9.1-11-9.1-9.7 0-21.2 8.1-21.2 17.3M2541.1 1334c0 4.3 3 9 11.1 9 10.3 0 21.2-8.3 21.2-17 0-6-5-9.2-11.2-9.2-9.6 0-21 8.1-21 17.3M2260.3 452.4c0 4.2 3 9 11.1 9 10.3 0 21.1-8.4 21.1-17.2 0-5.8-5-9.1-11-9.1-9.7 0-21.2 8.1-21.2 17.3M1730.3 1321.7c0 4.2 3.1 9 11.2 9 10.3 0 21-8.4 21-17.2 0-5.8-4.9-9.1-11-9.1-9.7 0-21.2 8.1-21.2 17.3M2676.5 489.6c0 4.2 3 9 11 9 10.4 0 21.2-8.4 21.2-17.2 0-5.8-5-9.1-11.1-9.1-9.6 0-21.1 8.1-21.1 17.3M1589.2 3046.5c0 4.2 3 9 11.1 9 10.3 0 21.1-8.4 21.1-17.2 0-5.8-5-9-11-9-9.7 0-21.2 8-21.2 17.2M1353.2 3046.5c0 4.2 3 9 11.1 9 10.3 0 21.1-8.4 21.1-17.2 0-5.8-5-9-11-9-9.7 0-21.2 8-21.2 17.2M939.7 1321.7c0 4.2 3.1 9 11.2 9 10.3 0 21-8.4 21-17.2 0-5.8-4.9-9.1-11-9.1-9.7 0-21.2 8.1-21.2 17.3M1195.9 3034c0 4.3 3 9.1 11 9.1 10.4 0 21.2-8.4 21.2-17.2 0-5.8-5-9-11-9-9.7 0-21.2 8-21.2 17.2M830.7 440c0 4.2 3 9 11 9 10.4 0 21.2-8.4 21.2-17.2 0-5.8-5-9.1-11.1-9.1-9.6 0-21.1 8.1-21.1 17.3M1694 3034c0 4.3 3.1 9.1 11.2 9.1 10.3 0 21.1-8.4 21.1-17.2 0-5.8-5-9-11-9-9.7 0-21.2 8-21.2 17.2M1219.9 2181c0 4.3 3 9 11 9 10.4 0 21.2-8.4 21.2-17 0-6-5-9.2-11-9.2-9.7 0-21.2 8.1-21.2 17.3M1038.6 3034c0 4.3 3 9.1 11 9.1 10.4 0 21.2-8.4 21.2-17.2 0-5.8-5-9-11.1-9-9.6 0-21.2 8-21.2 17.2M1823.3 464.8c0 4.2 3 9 11.1 9 10.3 0 21.2-8.4 21.2-17.2 0-5.8-5-9.1-11.2-9.1-9.6 0-21 8.1-21 17.3M1980.6 1334c0 4.3 3 9 11 9 10.4 0 21.2-8.3 21.2-17 0-6-5-9.2-11.1-9.2-9.6 0-21.1 8.1-21.1 17.3M881.2 3021.7c0 4.2 3 9 11.1 9 10.3 0 21.2-8.4 21.2-17.2 0-5.8-5-9-11.2-9-9.6 0-21 8-21 17.2M1966.3 2168.7c0 4.2 3 9 11 9 10.4 0 21.2-8.5 21.2-17.2 0-5.8-5-9.1-11.1-9.1-9.6 0-21.1 8.1-21.1 17.3M1885.8 777.3c0 4.2 3 9 11 9 10.4 0 21.2-8.5 21.2-17.2 0-5.8-5-9.1-11.1-9.1-9.6 0-21.2 8.1-21.2 17.3M2425.5 2464.9c0 4.2 3 9 11 9 10.4 0 21.2-8.5 21.2-17.2 0-5.8-5-9.1-11-9.1-9.7 0-21.2 8.1-21.2 17.3M1553.8 2390.5c0 4.2 3.1 9 11.2 9 10.3 0 21-8.5 21-17.2 0-5.8-4.9-9.1-11-9.1-9.7 0-21.2 8.1-21.2 17.3M719 2390.5c0 4.2 3 9 11 9 10.3 0 21.2-8.5 21.2-17.2 0-5.8-5-9.1-11.2-9.1-9.6 0-21 8.1-21 17.3M2426.8 777.3c0 4.2 3 9 11 9 10.4 0 21.2-8.5 21.2-17.2 0-5.8-5-9.1-11.1-9.1-9.6 0-21.1 8.1-21.1 17.3M719 2440c0 4.3 3 9 11 9 10.3 0 21.2-8.4 21.2-17 0-6-5-9.2-11.2-9.2-9.6 0-21 8.1-21 17.3M2551.6 727.7c0 4.2 3 9 11.1 9 10.3 0 21.2-8.5 21.2-17.2 0-5.8-5-9.1-11.2-9.1-9.6 0-21 8.1-21 17.3M2551.6 777.3c0 4.2 3 9 11.1 9 10.3 0 21.2-8.5 21.2-17.2 0-5.8-5-9.1-11.2-9.1-9.6 0-21 8.1-21 17.3M2258.5 2464.9c0 4.2 3 9 11.1 9 10.3 0 21.1-8.5 21.1-17.2 0-5.8-5-9.1-11-9.1-9.7 0-21.2 8.1-21.2 17.3M2258.5 2415.3c0 4.2 3 9 11.1 9 10.3 0 21.1-8.5 21.1-17.2 0-5.8-5-9.1-11-9.1-9.7 0-21.2 8.1-21.2 17.3M1969 777.3c0 4.2 3 9 11 9 10.4 0 21.2-8.5 21.2-17.2 0-5.8-5-9.1-11-9.1-9.7 0-21.2 8.1-21.2 17.3M2551.6 690.5c0 4.2 3 9 11.1 9 10.3 0 21.2-8.5 21.2-17.2 0-5.8-5-9.1-11.2-9.1-9.6 0-21 8.1-21 17.3M1579.8 702.9c0 4.2 3 9 11 9 10.4 0 21.2-8.5 21.2-17.2 0-5.8-5-9.1-11.1-9.1-9.6 0-21.1 8.1-21.1 17.3M1969 727.7c0 4.2 3 9 11 9 10.4 0 21.2-8.5 21.2-17.2 0-5.8-5-9.1-11-9.1-9.7 0-21.2 8.1-21.2 17.3M1695 2464.9c0 4.2 3 9 11 9 10.3 0 21.2-8.5 21.2-17.2 0-5.8-5-9.1-11.2-9.1-9.6 0-21 8.1-21 17.3M1496.5 752.5c0 4.2 3.1 9 11.2 9 10.3 0 21-8.5 21-17.2 0-5.8-4.9-9.1-11-9.1-9.7 0-21.2 8.1-21.2 17.3M560.2 2390.5c0 4.2 3 9 11 9 10.4 0 21.2-8.5 21.2-17.2 0-5.8-5-9.1-11.1-9.1-9.6 0-21.1 8.1-21.1 17.3M1496.5 702.9c0 4.2 3.1 9 11.2 9 10.3 0 21-8.5 21-17.2 0-5.8-4.9-9.1-11-9.1-9.7 0-21.2 8.1-21.2 17.3M2426.8 727.7c0 4.2 3 9 11 9 10.4 0 21.2-8.5 21.2-17.2 0-5.8-5-9.1-11.1-9.1-9.6 0-21.1 8.1-21.1 17.3M1695 2415.3c0 4.2 3 9 11 9 10.3 0 21.2-8.5 21.2-17.2 0-5.8-5-9.1-11.2-9.1-9.6 0-21 8.1-21 17.3M560.2 2440c0 4.3 3 9 11 9 10.4 0 21.2-8.4 21.2-17 0-6-5-9.2-11.1-9.2-9.6 0-21.1 8.1-21.1 17.3M1969 690.5c0 4.2 3 9 11 9 10.4 0 21.2-8.5 21.2-17.2 0-5.8-5-9.1-11-9.1-9.7 0-21.2 8.1-21.2 17.3M2425.5 2415.3c0 4.2 3 9 11 9 10.4 0 21.2-8.5 21.2-17.2 0-5.8-5-9.1-11-9.1-9.7 0-21.2 8.1-21.2 17.3M1579.8 752.5c0 4.2 3 9 11 9 10.4 0 21.2-8.5 21.2-17.2 0-5.8-5-9.1-11.1-9.1-9.6 0-21.1 8.1-21.1 17.3M2426.8 690.5c0 4.2 3 9 11 9 10.4 0 21.2-8.5 21.2-17.2 0-5.8-5-9.1-11.1-9.1-9.6 0-21.1 8.1-21.1 17.3M2342 2464.9c0 4.2 3 9 11 9 10.4 0 21.2-8.5 21.2-17.2 0-5.8-5-9.1-11-9.1-9.7 0-21.2 8.1-21.2 17.3M2342 2415.3c0 4.2 3 9 11 9 10.4 0 21.2-8.5 21.2-17.2 0-5.8-5-9.1-11-9.1-9.7 0-21.2 8.1-21.2 17.3M1885.8 690.5c0 4.2 3 9 11 9 10.4 0 21.2-8.5 21.2-17.2 0-5.8-5-9.1-11.1-9.1-9.6 0-21.2 8.1-21.2 17.3M1966.3 2464.9c0 4.2 3 9 11 9 10.4 0 21.2-8.5 21.2-17.2 0-5.8-5-9.1-11.1-9.1-9.6 0-21.1 8.1-21.1 17.3M2260.3 777.3c0 4.2 3 9 11.1 9 10.3 0 21.1-8.5 21.1-17.2 0-5.8-5-9.1-11-9.1-9.7 0-21.2 8.1-21.2 17.3M1136.4 2440c0 4.3 3 9 11 9 10.4 0 21.2-8.4 21.2-17 0-6-5-9.2-11-9.2-9.7 0-21.2 8.1-21.2 17.3M1136.4 2390.5c0 4.2 3 9 11 9 10.4 0 21.2-8.5 21.2-17.2 0-5.8-5-9.1-11-9.1-9.7 0-21.2 8.1-21.2 17.3M1470.4 2390.5c0 4.2 3 9 11 9 10.4 0 21.2-8.5 21.2-17.2 0-5.8-5-9.1-11.1-9.1-9.6 0-21.2 8.1-21.2 17.3M1882.8 2415.3c0 4.2 3 9 11 9 10.4 0 21.2-8.5 21.2-17.2 0-5.8-5-9.1-11-9.1-9.7 0-21.2 8.1-21.2 17.3M1470.4 2440c0 4.3 3 9 11 9 10.4 0 21.2-8.4 21.2-17 0-6-5-9.2-11.1-9.2-9.6 0-21.2 8.1-21.2 17.3M1882.8 2464.9c0 4.2 3 9 11 9 10.4 0 21.2-8.5 21.2-17.2 0-5.8-5-9.1-11-9.1-9.7 0-21.2 8.1-21.2 17.3M1052.9 2390.5c0 4.2 3 9 11.1 9 10.3 0 21.1-8.5 21.1-17.2 0-5.8-5-9.1-11-9.1-9.7 0-21.2 8.1-21.2 17.3M1219.9 2440c0 4.3 3 9 11 9 10.4 0 21.2-8.4 21.2-17 0-6-5-9.2-11-9.2-9.7 0-21.2 8.1-21.2 17.3M1219.9 2390.5c0 4.2 3 9 11 9 10.4 0 21.2-8.5 21.2-17.2 0-5.8-5-9.1-11-9.1-9.7 0-21.2 8.1-21.2 17.3M2135.5 690.5c0 4.2 3 9 11 9 10.4 0 21.2-8.5 21.2-17.2 0-5.8-5-9.1-11.1-9.1-9.6 0-21.2 8.1-21.2 17.3M1885.8 727.7c0 4.2 3 9 11 9 10.4 0 21.2-8.5 21.2-17.2 0-5.8-5-9.1-11.1-9.1-9.6 0-21.2 8.1-21.2 17.3M2135.5 727.7c0 4.2 3 9 11 9 10.4 0 21.2-8.5 21.2-17.2 0-5.8-5-9.1-11.1-9.1-9.6 0-21.2 8.1-21.2 17.3M1345.1 2440c0 4.3 3 9 11.1 9 10.3 0 21.2-8.4 21.2-17 0-6-5-9.2-11.2-9.2-9.6 0-21 8.1-21 17.3M2135.5 777.3c0 4.2 3 9 11 9 10.4 0 21.2-8.5 21.2-17.2 0-5.8-5-9.1-11.1-9.1-9.6 0-21.2 8.1-21.2 17.3M1345.1 2390.5c0 4.2 3 9 11.1 9 10.3 0 21.2-8.5 21.2-17.2 0-5.8-5-9.1-11.2-9.1-9.6 0-21 8.1-21 17.3M1698.5 690.5c0 4.2 3 9 11 9 10.4 0 21.2-8.5 21.2-17.2 0-5.8-5-9.1-11.1-9.1-9.6 0-21.1 8.1-21.1 17.3M2343.5 727.7c0 4.2 3.1 9 11.2 9 10.3 0 21-8.5 21-17.2 0-5.8-4.9-9.1-11-9.1-9.7 0-21.2 8.1-21.2 17.3M1698.5 777.3c0 4.2 3 9 11 9 10.4 0 21.2-8.5 21.2-17.2 0-5.8-5-9.1-11.1-9.1-9.6 0-21.1 8.1-21.1 17.3M2343.5 777.3c0 4.2 3.1 9 11.2 9 10.3 0 21-8.5 21-17.2 0-5.8-4.9-9.1-11-9.1-9.7 0-21.2 8.1-21.2 17.3M802.4 2440c0 4.3 3 9 11.1 9 10.3 0 21.2-8.4 21.2-17 0-6-5-9.2-11.2-9.2-9.6 0-21 8.1-21 17.3M802.4 2390.5c0 4.2 3 9 11.1 9 10.3 0 21.2-8.5 21.2-17.2 0-5.8-5-9.1-11.2-9.1-9.6 0-21 8.1-21 17.3M1698.5 727.7c0 4.2 3 9 11 9 10.4 0 21.2-8.5 21.2-17.2 0-5.8-5-9.1-11.1-9.1-9.6 0-21.1 8.1-21.1 17.3M2091.5 2415.3c0 4.2 3 9 11.1 9 10.3 0 21.2-8.5 21.2-17.2 0-5.8-5-9.1-11.2-9.1-9.6 0-21 8.1-21 17.3M2091.5 2464.9c0 4.2 3 9 11.1 9 10.3 0 21.2-8.5 21.2-17.2 0-5.8-5-9.1-11.2-9.1-9.6 0-21 8.1-21 17.3M2343.5 690.5c0 4.2 3.1 9 11.2 9 10.3 0 21-8.5 21-17.2 0-5.8-4.9-9.1-11-9.1-9.7 0-21.2 8.1-21.2 17.3M1553.8 2440c0 4.3 3.1 9 11.2 9 10.3 0 21-8.4 21-17 0-6-4.9-9.2-11-9.2-9.7 0-21.2 8.1-21.2 17.3M927.7 2440c0 4.3 3 9 11 9 10.4 0 21.2-8.4 21.2-17 0-6-5-9.2-11.1-9.2-9.6 0-21.1 8.1-21.1 17.3M927.7 2390.5c0 4.2 3 9 11 9 10.4 0 21.2-8.5 21.2-17.2 0-5.8-5-9.1-11.1-9.1-9.6 0-21.1 8.1-21.1 17.3M2260.3 690.5c0 4.2 3 9 11.1 9 10.3 0 21.1-8.5 21.1-17.2 0-5.8-5-9.1-11-9.1-9.7 0-21.2 8.1-21.2 17.3M1966.3 2415.3c0 4.2 3 9 11 9 10.4 0 21.2-8.5 21.2-17.2 0-5.8-5-9.1-11.1-9.1-9.6 0-21.1 8.1-21.1 17.3M2260.3 727.7c0 4.2 3 9 11.1 9 10.3 0 21.1-8.5 21.1-17.2 0-5.8-5-9.1-11-9.1-9.7 0-21.2 8.1-21.2 17.3M1052.9 2440c0 4.3 3 9 11.1 9 10.3 0 21.1-8.4 21.1-17 0-6-5-9.2-11-9.2-9.7 0-21.2 8.1-21.2 17.3M2239.3 1611.8c0 4.3 3 9 11 9 10.4 0 21.2-8.4 21.2-17.1 0-5.9-5-9.1-11.1-9.1-9.6 0-21.1 8.1-21.1 17.2M583.5 3300.8c-2.8 0-4.6-.8-6-3.3-1.2-2.4-3-8.8-3.1-11.5q-.4-4 3.2-5a14 14 0 0 1 4.2-.6c2.8 0 4.6.6 6 3.3s3.2 9 3.2 11.5c0 4.8-3.4 5.6-7.5 5.6m-.8-23.6c-13.7 0-18.5 7-18.5 13.4s4.8 13.4 18.5 13.4 18.5-7 18.5-13.4-4.8-13.4-18.5-13.4M724.1 1562.2c0 4.3 3.1 9 11.2 9 10.3 0 21-8.4 21-17.1 0-5.9-4.9-9.1-11-9.1-9.7 0-21.2 8.1-21.2 17.2M2110 1611.8c0 4.3 3 9 11 9 10.3 0 21.2-8.4 21.2-17.1 0-5.9-5-9.1-11.2-9.1-9.6 0-21 8.1-21 17.2M2110 1562.2c0 4.3 3 9 11 9 10.3 0 21.2-8.4 21.2-17.1 0-5.9-5-9.1-11.2-9.1-9.6 0-21 8.1-21 17.2M724.1 1611.8c0 4.3 3.1 9 11.2 9 10.3 0 21-8.4 21-17.1 0-5.9-4.9-9.1-11-9.1-9.7 0-21.2 8.1-21.2 17.2" class="Note"/><path d="M583.5 3325.6c-2.8 0-4.6-.8-6-3.3-1.2-2.4-3-8.8-3.1-11.5q-.4-4 3.2-5a14 14 0 0 1 4.2-.6c2.8 0 4.6.6 6 3.3s3.2 9 3.2 11.5c0 4.8-3.4 5.6-7.5 5.6m-.8-23.6c-13.7 0-18.5 7-18.5 13.4s4.8 13.4 18.5 13.4 18.5-7 18.5-13.4-4.8-13.4-18.5-13.4" class="Note"/><path d="M583.5 3350.4c-2.8 0-4.6-.8-6-3.3-1.2-2.4-3-8.8-3.1-11.5q-.4-4 3.2-5a14 14 0 0 1 4.2-.6c2.8 0 4.6.6 6 3.3s3.2 9 3.2 11.5c0 4.8-3.4 5.6-7.5 5.6m-.8-23.6c-13.7 0-18.5 7-18.5 13.4s4.8 13.4 18.5 13.4 18.5-7 18.5-13.4-4.8-13.4-18.5-13.4M955.5 752.5c0 4.2 3 9 11.1 9 10.3 0 21.2-8.5 21.2-17.2 0-5.8-5-9.1-11.2-9.1-9.6 0-21 8.1-21 17.3M955.5 702.9c0 4.2 3 9 11.1 9 10.3 0 21.2-8.5 21.2-17.2 0-5.8-5-9.1-11.2-9.1-9.6 0-21 8.1-21 17.3M1155.3 1611.8c0 4.3 3.1 9 11.1 9 10.4 0 21.2-8.4 21.2-17.1 0-5.9-5-9.1-11.1-9.1-9.7 0-21.2 8.1-21.2 17.2M2239.3 1562.2c0 4.3 3 9 11 9 10.4 0 21.2-8.4 21.2-17.1 0-5.9-5-9.1-11.1-9.1-9.6 0-21.1 8.1-21.1 17.2M1155.3 1562.2c0 4.3 3.1 9 11.1 9 10.4 0 21.2-8.4 21.2-17.1 0-5.9-5-9.1-11.1-9.1-9.7 0-21.2 8.1-21.2 17.2M1080.4 752.5c0 4.2 3 9 11 9 10.4 0 21.2-8.5 21.2-17.2 0-5.8-5-9.1-11.1-9.1-9.6 0-21.1 8.1-21.1 17.3M2325.5 1611.8c0 4.3 3 9 11.1 9 10.3 0 21.2-8.4 21.2-17.1 0-5.9-5-9.1-11.2-9.1-9.6 0-21 8.1-21 17.2M2325.5 1562.2c0 4.3 3 9 11.1 9 10.3 0 21.2-8.4 21.2-17.1 0-5.9-5-9.1-11.2-9.1-9.6 0-21 8.1-21 17.2M560.2 1562.2c0 4.3 3 9 11 9 10.4 0 21.2-8.4 21.2-17.1 0-5.9-5-9.1-11.1-9.1-9.6 0-21.1 8.1-21.1 17.2M1500.3 1562.2c0 4.3 3 9 11 9 10.4 0 21.2-8.4 21.2-17.1 0-5.9-5-9.1-11-9.1-9.7 0-21.2 8.1-21.2 17.2M560.2 1611.8c0 4.3 3 9 11 9 10.4 0 21.2-8.4 21.2-17.1 0-5.9-5-9.1-11.1-9.1-9.6 0-21.1 8.1-21.1 17.2M1894.3 1562.2c0 4.3 3 9 11.1 9 10.3 0 21.2-8.4 21.2-17.1 0-5.9-5-9.1-11.2-9.1-9.6 0-21 8.1-21 17.2M1069 1562.2c0 4.3 3.2 9 11.2 9 10.3 0 21.1-8.4 21.1-17.1 0-5.9-5-9.1-11-9.1-9.7 0-21.2 8.1-21.2 17.2M1069 1611.8c0 4.3 3.2 9 11.2 9 10.3 0 21.1-8.4 21.1-17.1 0-5.9-5-9.1-11-9.1-9.7 0-21.2 8.1-21.2 17.2M939.7 1562.2c0 4.3 3.1 9 11.2 9 10.3 0 21-8.4 21-17.1 0-5.9-4.9-9.1-11-9.1-9.7 0-21.2 8.1-21.2 17.2M1730.3 1611.8c0 4.3 3.1 9 11.2 9 10.3 0 21-8.4 21-17.1 0-5.9-4.9-9.1-11-9.1-9.7 0-21.2 8.1-21.2 17.2M939.7 1611.8c0 4.3 3.1 9 11.2 9 10.3 0 21-8.4 21-17.1 0-5.9-4.9-9.1-11-9.1-9.7 0-21.2 8.1-21.2 17.2M747.4 752.5c0 4.2 3.1 9 11.1 9 10.4 0 21.2-8.5 21.2-17.2 0-5.8-5-9.1-11.1-9.1-9.7 0-21.2 8.1-21.2 17.3M1730.3 1562.2c0 4.3 3.1 9 11.2 9 10.3 0 21-8.4 21-17.1 0-5.9-4.9-9.1-11-9.1-9.7 0-21.2 8.1-21.2 17.2M747.4 702.9c0 4.2 3.1 9 11.1 9 10.4 0 21.2-8.5 21.2-17.2 0-5.8-5-9.1-11.1-9.1-9.7 0-21.2 8.1-21.2 17.3M1894.3 1611.8c0 4.3 3 9 11.1 9 10.3 0 21.2-8.4 21.2-17.1 0-5.9-5-9.1-11.2-9.1-9.6 0-21 8.1-21 17.2M1080.4 702.9c0 4.2 3 9 11 9 10.4 0 21.2-8.5 21.2-17.2 0-5.8-5-9.1-11.1-9.1-9.6 0-21.1 8.1-21.1 17.3M1586.5 1562.2c0 4.3 3 9 11.1 9 10.3 0 21.2-8.4 21.2-17.1 0-5.9-5-9.1-11.2-9.1-9.6 0-21 8.1-21 17.2M810.4 1562.2c0 4.3 3 9 11 9 10.4 0 21.2-8.4 21.2-17.1 0-5.9-5-9.1-11-9.1-9.7 0-21.2 8.1-21.2 17.2M830.7 752.5c0 4.2 3 9 11 9 10.4 0 21.2-8.5 21.2-17.2 0-5.8-5-9.1-11.1-9.1-9.6 0-21.1 8.1-21.1 17.3M810.4 1611.8c0 4.3 3 9 11 9 10.4 0 21.2-8.4 21.2-17.1 0-5.9-5-9.1-11-9.1-9.7 0-21.2 8.1-21.2 17.2M830.7 702.9c0 4.2 3 9 11 9 10.4 0 21.2-8.5 21.2-17.2 0-5.8-5-9.1-11.1-9.1-9.6 0-21.1 8.1-21.1 17.3M1980.6 1611.8c0 4.3 3 9 11 9 10.4 0 21.2-8.4 21.2-17.1 0-5.9-5-9.1-11.1-9.1-9.6 0-21.1 8.1-21.1 17.2M1586.5 1611.8c0 4.3 3 9 11.1 9 10.3 0 21.2-8.4 21.2-17.1 0-5.9-5-9.1-11.2-9.1-9.6 0-21 8.1-21 17.2M1980.6 1562.2c0 4.3 3 9 11 9 10.4 0 21.2-8.4 21.2-17.1 0-5.9-5-9.1-11.1-9.1-9.6 0-21.1 8.1-21.1 17.2M1241.6 1562.2c0 4.3 3 9 11 9 10.4 0 21.2-8.4 21.2-17.1 0-5.9-5-9.1-11.1-9.1-9.6 0-21.1 8.1-21.1 17.2M1241.6 1611.8c0 4.3 3 9 11 9 10.4 0 21.2-8.4 21.2-17.1 0-5.9-5-9.1-11.1-9.1-9.6 0-21.1 8.1-21.1 17.2M560.2 752.5c0 4.2 3 9 11 9 10.4 0 21.2-8.5 21.2-17.2 0-5.8-5-9.1-11.1-9.1-9.6 0-21.1 8.1-21.1 17.3M2676 2415.3c0 4.2 3 9 11 9 10.4 0 21.2-8.5 21.2-17.2 0-5.8-5-9.1-11.1-9.1-9.6 0-21.2 8.1-21.2 17.3M2676 2464.9c0 4.2 3 9 11 9 10.4 0 21.2-8.5 21.2-17.2 0-5.8-5-9.1-11.1-9.1-9.6 0-21.2 8.1-21.2 17.3M2756.7 1611.8c0 4.3 3 9 11.1 9 10.3 0 21.1-8.4 21.1-17.1 0-5.9-5-9.1-11-9.1-9.7 0-21.2 8.1-21.2 17.2M1371 1562.2c0 4.3 3 9 11 9 10.4 0 21.2-8.4 21.2-17.1 0-5.9-5-9.1-11.1-9.1-9.7 0-21.2 8.1-21.2 17.2M2756.7 1562.2c0 4.3 3 9 11.1 9 10.3 0 21.1-8.4 21.1-17.1 0-5.9-5-9.1-11-9.1-9.7 0-21.2 8.1-21.2 17.2M1371 1611.8c0 4.3 3 9 11 9 10.4 0 21.2-8.4 21.2-17.1 0-5.9-5-9.1-11.1-9.1-9.7 0-21.2 8.1-21.2 17.2M1371.7 752.5c0 4.2 3 9 11.1 9 10.3 0 21.1-8.5 21.1-17.2 0-5.8-5-9.1-11-9.1-9.7 0-21.2 8.1-21.2 17.3M2411.8 1562.2c0 4.3 3 9 11 9 10.4 0 21.2-8.4 21.2-17.1 0-5.9-5-9.1-11.1-9.1-9.6 0-21.2 8.1-21.2 17.2M2759.7 690.5c0 4.2 3 9 11.1 9 10.3 0 21.1-8.5 21.1-17.2 0-5.8-5-9.1-11-9.1-9.7 0-21.2 8.1-21.2 17.3M2759.7 727.7c0 4.2 3 9 11.1 9 10.3 0 21.1-8.5 21.1-17.2 0-5.8-5-9.1-11-9.1-9.7 0-21.2 8.1-21.2 17.3M2759.7 777.3c0 4.2 3 9 11.1 9 10.3 0 21.1-8.5 21.1-17.2 0-5.8-5-9.1-11-9.1-9.7 0-21.2 8.1-21.2 17.3M1371.7 702.9c0 4.2 3 9 11.1 9 10.3 0 21.1-8.5 21.1-17.2 0-5.8-5-9.1-11-9.1-9.7 0-21.2 8.1-21.2 17.3M2550.7 2415.3c0 4.2 3 9 11.1 9 10.3 0 21.2-8.5 21.2-17.2 0-5.8-5-9.1-11.2-9.1-9.6 0-21 8.1-21 17.3M2676.5 690.5c0 4.2 3 9 11 9 10.4 0 21.2-8.5 21.2-17.2 0-5.8-5-9.1-11.1-9.1-9.6 0-21.1 8.1-21.1 17.3M2676.5 727.7c0 4.2 3 9 11 9 10.4 0 21.2-8.5 21.2-17.2 0-5.8-5-9.1-11.1-9.1-9.6 0-21.1 8.1-21.1 17.3M2676.5 777.3c0 4.2 3 9 11 9 10.4 0 21.2-8.5 21.2-17.2 0-5.8-5-9.1-11.1-9.1-9.6 0-21.1 8.1-21.1 17.3M2550.7 2464.9c0 4.2 3 9 11.1 9 10.3 0 21.2-8.5 21.2-17.2 0-5.8-5-9.1-11.2-9.1-9.6 0-21 8.1-21 17.3M2670.5 1611.8c0 4.3 3 9 11 9 10.4 0 21.2-8.4 21.2-17.1 0-5.9-5-9.1-11.1-9.1-9.6 0-21.1 8.1-21.1 17.2M2411.8 1611.8c0 4.3 3 9 11 9 10.4 0 21.2-8.4 21.2-17.1 0-5.9-5-9.1-11.1-9.1-9.6 0-21.2 8.1-21.2 17.2M1500.3 1611.8c0 4.3 3 9 11 9 10.4 0 21.2-8.4 21.2-17.1 0-5.9-5-9.1-11-9.1-9.7 0-21.2 8.1-21.2 17.2M1163.6 752.5c0 4.2 3 9 11.1 9 10.3 0 21.2-8.5 21.2-17.2 0-5.8-5-9.1-11.2-9.1-9.6 0-21 8.1-21 17.3M1163.6 702.9c0 4.2 3 9 11.1 9 10.3 0 21.2-8.5 21.2-17.2 0-5.8-5-9.1-11.2-9.1-9.6 0-21 8.1-21 17.3M2541.1 1611.8c0 4.3 3 9 11.1 9 10.3 0 21.2-8.4 21.2-17.1 0-5.9-5-9.1-11.2-9.1-9.6 0-21 8.1-21 17.2M2541.1 1562.2c0 4.3 3 9 11.1 9 10.3 0 21.2-8.4 21.2-17.1 0-5.9-5-9.1-11.2-9.1-9.6 0-21 8.1-21 17.2M560.2 702.9c0 4.2 3 9 11 9 10.4 0 21.2-8.5 21.2-17.2 0-5.8-5-9.1-11.1-9.1-9.6 0-21.1 8.1-21.1 17.3M1246.8 752.5c0 4.2 3.1 9 11.2 9 10.3 0 21-8.5 21-17.2 0-5.8-4.9-9.1-11-9.1-9.7 0-21.2 8.1-21.2 17.3M2473.6 3361.2c-3.3 0-4-2.7-4-3.5 0-5 16.7-13.4 21.3-13.4 2.4 0 4 1.4 4 3.5 0 5-16.8 13.4-21.3 13.4m13.7-21.6c-9.7 0-21.2 8-21.2 17.3 0 4.2 3.1 9 11.1 9 10.4 0 21.2-8.5 21.2-17.2 0-5.8-5-9.1-11.1-9.1M2759.5 2415.3c0 4.2 3 9 11 9 10.4 0 21.2-8.5 21.2-17.2 0-5.8-5-9.1-11.1-9.1-9.6 0-21.2 8.1-21.2 17.3M2759.5 2464.9c0 4.2 3 9 11 9 10.4 0 21.2-8.5 21.2-17.2 0-5.8-5-9.1-11.1-9.1-9.6 0-21.2 8.1-21.2 17.3M1246.8 702.9c0 4.2 3.1 9 11.2 9 10.3 0 21-8.5 21-17.2 0-5.8-4.9-9.1-11-9.1-9.7 0-21.2 8.1-21.2 17.3M2670.5 1562.2c0 4.3 3 9 11 9 10.4 0 21.2-8.4 21.2-17.1 0-5.9-5-9.1-11.1-9.1-9.6 0-21.1 8.1-21.1 17.2M2151.5 3528.4c0 4.2 3 9 11 9 10.4 0 21.2-8.4 21.2-17.2 0-5.8-5-9.1-11-9.1-9.7 0-21.2 8.1-21.2 17.3M560.2 993c0 4.3 3 9 11 9 10.4 0 21.2-8.4 21.2-17.1 0-5.9-5-9.1-11.1-9.1-9.6 0-21.1 8.1-21.1 17.2M2308.8 3491.2c0 4.2 3 9 11.1 9 10.3 0 21.1-8.4 21.1-17.2 0-5.8-5-9.1-11-9.1-9.7 0-21.2 8.1-21.2 17.3M2473.6 3495.5c-3.3 0-4-2.6-4-3.5 0-5 16.7-13.4 21.3-13.4 2.4 0 4 1.4 4 3.5 0 5-16.8 13.4-21.3 13.4m13.7-21.6c-9.7 0-21.2 8-21.2 17.3 0 4.2 3.1 9 11.1 9 10.4 0 21.2-8.4 21.2-17.2 0-5.8-5-9.1-11.1-9.1M1885.8 1017.8c0 4.3 3 9 11 9 10.4 0 21.2-8.4 21.2-17.1 0-5.9-5-9.1-11.1-9.1-9.6 0-21.2 8.1-21.2 17.2M1695 2705.4c0 4.3 3 9 11 9 10.3 0 21.2-8.4 21.2-17.1 0-5.9-5-9.1-11.2-9.1-9.6 0-21 8.1-21 17.2M1241.6 1852.4c0 4.3 3 9 11 9 10.4 0 21.2-8.4 21.2-17.1 0-5.9-5-9.1-11.1-9.1-9.6 0-21.1 8-21.1 17.2M2425.5 2705.4c0 4.3 3 9 11 9 10.4 0 21.2-8.4 21.2-17.1 0-5.9-5-9.1-11-9.1-9.7 0-21.2 8.1-21.2 17.2M1080.4 993c0 4.3 3 9 11 9 10.4 0 21.2-8.4 21.2-17.1 0-5.9-5-9.1-11.1-9.1-9.6 0-21.1 8.1-21.1 17.2M1371.7 993c0 4.3 3 9 11.1 9 10.3 0 21.1-8.4 21.1-17.1 0-5.9-5-9.1-11-9.1-9.7 0-21.2 8.1-21.2 17.2M2550.7 2705.4c0 4.3 3 9 11.1 9 10.3 0 21.2-8.4 21.2-17.1 0-5.9-5-9.1-11.2-9.1-9.6 0-21 8.1-21 17.2M2342 2705.4c0 4.3 3 9 11 9 10.4 0 21.2-8.4 21.2-17.1 0-5.9-5-9.1-11-9.1-9.7 0-21.2 8.1-21.2 17.2M1496.5 993c0 4.3 3.1 9 11.2 9 10.3 0 21-8.4 21-17.1 0-5.9-4.9-9.1-11-9.1-9.7 0-21.2 8.1-21.2 17.2M1246.8 993c0 4.3 3.1 9 11.2 9 10.3 0 21-8.4 21-17.1 0-5.9-4.9-9.1-11-9.1-9.7 0-21.2 8.1-21.2 17.2M2258.5 2705.4c0 4.3 3 9 11.1 9 10.3 0 21.1-8.4 21.1-17.1 0-5.9-5-9.1-11-9.1-9.7 0-21.2 8.1-21.2 17.2M2676 2705.4c0 4.3 3 9 11 9 10.4 0 21.2-8.4 21.2-17.1 0-5.9-5-9.1-11.1-9.1-9.6 0-21.2 8.1-21.2 17.2M1579.8 993c0 4.3 3 9 11 9 10.4 0 21.2-8.4 21.2-17.1 0-5.9-5-9.1-11.1-9.1-9.6 0-21.1 8.1-21.1 17.2M2759.5 2705.4c0 4.3 3 9 11 9 10.4 0 21.2-8.4 21.2-17.1 0-5.9-5-9.1-11.1-9.1-9.6 0-21.2 8.1-21.2 17.2M1163.6 993c0 4.3 3 9 11.1 9 10.3 0 21.2-8.4 21.2-17.1 0-5.9-5-9.1-11.2-9.1-9.6 0-21 8.1-21 17.2M1994.2 3553.2c0 4.2 3 9 11 9 10.4 0 21.2-8.4 21.2-17.2 0-5.8-5-9.1-11.1-9.1-9.6 0-21.1 8.1-21.1 17.3M2175 2705.4c0 4.3 3 9 11.1 9 10.3 0 21.1-8.4 21.1-17.1 0-5.9-5-9.1-11-9.1-9.7 0-21.2 8.1-21.2 17.2M2091.5 2705.4c0 4.3 3 9 11.1 9 10.3 0 21.2-8.4 21.2-17.1 0-5.9-5-9.1-11.2-9.1-9.6 0-21 8.1-21 17.2M955.5 993c0 4.3 3 9 11.1 9 10.3 0 21.2-8.4 21.2-17.1 0-5.9-5-9.1-11.2-9.1-9.6 0-21 8.1-21 17.2M1966.3 2705.4c0 4.3 3 9 11 9 10.4 0 21.2-8.4 21.2-17.1 0-5.9-5-9.1-11.1-9.1-9.6 0-21.1 8.1-21.1 17.2M830.7 993c0 4.3 3 9 11 9 10.4 0 21.2-8.4 21.2-17.1 0-5.9-5-9.1-11.1-9.1-9.6 0-21.1 8.1-21.1 17.2M583.5 3633.5q-4 .2-6-3.2c-1.2-2.5-3-8.9-3.1-11.6q-.4-3.8 3.2-5a14 14 0 0 1 4.2-.6c2.8 0 4.6.6 6 3.3s3.2 9 3.2 11.5c0 4.8-3.4 5.6-7.5 5.6m-.8-23.6c-13.7 0-18.5 7-18.5 13.4s4.8 13.4 18.5 13.4 18.5-7 18.5-13.4-4.8-13.4-18.5-13.4M1698.5 1017.8c0 4.3 3 9 11 9 10.4 0 21.2-8.4 21.2-17.1 0-5.9-5-9.1-11.1-9.1-9.6 0-21.1 8.1-21.1 17.2M1882.8 2705.4c0 4.3 3 9 11 9 10.4 0 21.2-8.4 21.2-17.1 0-5.9-5-9.1-11-9.1-9.7 0-21.2 8.1-21.2 17.2M747.4 993c0 4.3 3.1 9 11.1 9 10.4 0 21.2-8.4 21.2-17.1 0-5.9-5-9.1-11.1-9.1-9.7 0-21.2 8.1-21.2 17.2M2343.5 1017.8c0 4.3 3.1 9 11.2 9 10.3 0 21-8.4 21-17.1 0-5.9-4.9-9.1-11-9.1-9.7 0-21.2 8.1-21.2 17.2M810.4 1852.4c0 4.3 3 9 11 9 10.4 0 21.2-8.4 21.2-17.1 0-5.9-5-9.1-11-9.1-9.7 0-21.2 8-21.2 17.2M1894.3 1852.4c0 4.3 3 9 11.1 9 10.3 0 21.2-8.4 21.2-17.1 0-5.9-5-9.1-11.2-9.1-9.6 0-21 8-21 17.2M2135.5 1017.8c0 4.3 3 9 11 9 10.4 0 21.2-8.4 21.2-17.1 0-5.9-5-9.1-11.1-9.1-9.6 0-21.2 8.1-21.2 17.2M1136.4 2680.6c0 4.3 3 9 11 9 10.4 0 21.2-8.4 21.2-17.1 0-5.9-5-9.1-11-9.1-9.7 0-21.2 8.1-21.2 17.2M1980.6 1852.4c0 4.3 3 9 11 9 10.4 0 21.2-8.4 21.2-17.1 0-5.9-5-9.1-11.1-9.1-9.6 0-21.1 8-21.1 17.2M724.1 1852.4c0 4.3 3.1 9 11.2 9 10.3 0 21-8.4 21-17.1 0-5.9-4.9-9.1-11-9.1-9.7 0-21.2 8-21.2 17.2M2110 1852.4c0 4.3 3 9 11 9 10.3 0 21.2-8.4 21.2-17.1 0-5.9-5-9.1-11.2-9.1-9.6 0-21 8-21 17.2M2670.5 1852.4c0 4.3 3 9 11 9 10.4 0 21.2-8.4 21.2-17.1 0-5.9-5-9.1-11.1-9.1-9.6 0-21.1 8-21.1 17.2M1052.9 2680.6c0 4.3 3 9 11.1 9 10.3 0 21.1-8.4 21.1-17.1 0-5.9-5-9.1-11-9.1-9.7 0-21.2 8.1-21.2 17.2M1730.3 1852.4c0 4.3 3.1 9 11.2 9 10.3 0 21-8.4 21-17.1 0-5.9-4.9-9.1-11-9.1-9.7 0-21.2 8-21.2 17.2M2541.1 1852.4c0 4.3 3 9 11.1 9 10.3 0 21.2-8.4 21.2-17.1 0-5.9-5-9.1-11.2-9.1-9.6 0-21 8-21 17.2M927.7 2680.6c0 4.3 3 9 11 9 10.4 0 21.2-8.4 21.2-17.1 0-5.9-5-9.1-11.1-9.1-9.6 0-21.1 8.1-21.1 17.2M719 2680.6c0 4.3 3 9 11 9 10.3 0 21.2-8.4 21.2-17.1 0-5.9-5-9.1-11.2-9.1-9.6 0-21 8.1-21 17.2M2411.8 1852.4c0 4.3 3 9 11 9 10.4 0 21.2-8.4 21.2-17.1 0-5.9-5-9.1-11.1-9.1-9.6 0-21.2 8-21.2 17.2M802.4 2680.6c0 4.3 3 9 11.1 9 10.3 0 21.2-8.4 21.2-17.1 0-5.9-5-9.1-11.2-9.1-9.6 0-21 8.1-21 17.2M560.2 1852.4c0 4.3 3 9 11 9 10.4 0 21.2-8.4 21.2-17.1 0-5.9-5-9.1-11.1-9.1-9.6 0-21.1 8-21.1 17.2M2239.3 1852.4c0 4.3 3 9 11 9 10.4 0 21.2-8.4 21.2-17.1 0-5.9-5-9.1-11.1-9.1-9.6 0-21.1 8-21.1 17.2M2325.5 1852.4c0 4.3 3 9 11.1 9 10.3 0 21.2-8.4 21.2-17.1 0-5.9-5-9.1-11.2-9.1-9.6 0-21 8-21 17.2M2260.3 1017.8c0 4.3 3 9 11.1 9 10.3 0 21.1-8.4 21.1-17.1 0-5.9-5-9.1-11-9.1-9.7 0-21.2 8.1-21.2 17.2M560.2 2680.6c0 4.3 3 9 11 9 10.4 0 21.2-8.4 21.2-17.1 0-5.9-5-9.1-11.1-9.1-9.6 0-21.1 8.1-21.1 17.2M2426.8 1017.8c0 4.3 3 9 11 9 10.4 0 21.2-8.4 21.2-17.1 0-5.9-5-9.1-11.1-9.1-9.6 0-21.1 8.1-21.1 17.2M1969 1017.8c0 4.3 3 9 11 9 10.4 0 21.2-8.4 21.2-17.1 0-5.9-5-9.1-11-9.1-9.7 0-21.2 8.1-21.2 17.2M2551.6 1017.8c0 4.3 3 9 11.1 9 10.3 0 21.2-8.4 21.2-17.1 0-5.9-5-9.1-11.2-9.1-9.6 0-21 8.1-21 17.2M2708.2 1004.1q.5-.4.5-1t-.4-1l-1.2-1.1q-.4-.4-1-.4t-.9.3l-12.6 10-12.7-10q-.3-.3-.9-.3-.4 0-.8.4l-1.3 1.2q-.3.2-.4 1 0 .5.5 1l12 9.5-12 9.5q-.5.4-.5 1t.4.9l1.2 1.3q.3.3 1 .4.5 0 .8-.3l12.7-10 12.6 10q.3.2 1 .3.5 0 1-.4l1.1-1.3q.3-.3.4-1 0-.5-.5-1l-12-9.4zM1553.8 2680.6c0 4.3 3.1 9 11.2 9 10.3 0 21-8.4 21-17.1 0-5.9-4.9-9.1-11-9.1-9.7 0-21.2 8.1-21.2 17.2M2052.2 1017.8c0 4.3 3 9 11.1 9 10.3 0 21.2-8.4 21.2-17.1 0-5.9-5-9.1-11.2-9.1-9.6 0-21 8.1-21 17.2M2756.7 1852.4c0 4.3 3 9 11.1 9 10.3 0 21.1-8.4 21.1-17.1 0-5.9-5-9.1-11-9.1-9.7 0-21.2 8-21.2 17.2M2759.7 1017.8c0 4.3 3 9 11.1 9 10.3 0 21.1-8.4 21.1-17.1 0-5.9-5-9.1-11-9.1-9.7 0-21.2 8.1-21.2 17.2M1470.4 2680.6c0 4.3 3 9 11 9 10.4 0 21.2-8.4 21.2-17.1 0-5.9-5-9.1-11.1-9.1-9.6 0-21.2 8.1-21.2 17.2M939.7 1852.4c0 4.3 3.1 9 11.2 9 10.3 0 21-8.4 21-17.1 0-5.9-4.9-9.1-11-9.1-9.7 0-21.2 8-21.2 17.2M1371 1852.4c0 4.3 3 9 11 9 10.4 0 21.2-8.4 21.2-17.1 0-5.9-5-9.1-11.1-9.1-9.7 0-21.2 8-21.2 17.2M1345.1 2680.6c0 4.3 3 9 11.1 9 10.3 0 21.2-8.4 21.2-17.1 0-5.9-5-9.1-11.2-9.1-9.6 0-21 8.1-21 17.2M1155.3 1852.4c0 4.3 3.1 9 11.1 9 10.4 0 21.2-8.4 21.2-17.1 0-5.9-5-9.1-11.1-9.1-9.7 0-21.2 8-21.2 17.2M1500.3 1852.4c0 4.3 3 9 11 9 10.4 0 21.2-8.4 21.2-17.1 0-5.9-5-9.1-11-9.1-9.7 0-21.2 8-21.2 17.2M1069 1852.4c0 4.3 3.2 9 11.2 9 10.3 0 21.1-8.4 21.1-17.1 0-5.9-5-9.1-11-9.1-9.7 0-21.2 8-21.2 17.2M1219.9 2680.6c0 4.3 3 9 11 9 10.4 0 21.2-8.4 21.2-17.1 0-5.9-5-9.1-11-9.1-9.7 0-21.2 8.1-21.2 17.2M1586.5 1852.4c0 4.3 3 9 11.1 9 10.3 0 21.2-8.4 21.2-17.1 0-5.9-5-9.1-11.2-9.1-9.6 0-21 8-21 17.2M1853.8 3584q-4.1.2-6-3.3c-1.3-2.5-3-8.9-3.2-11.6q-.4-3.8 3.2-5a14 14 0 0 1 4.3-.6c2.8 0 4.6.6 6 3.3 1.3 2.6 3.1 9 3.1 11.5 0 4.8-3.4 5.6-7.4 5.6m-.8-23.6c-13.7 0-18.6 7-18.6 13.4s4.9 13.4 18.6 13.4 18.4-7 18.4-13.4-4.7-13.4-18.4-13.4" class="Note"/><path d="M431.2 1350.3q-3 .6-5.8.6c-14.2 0-26.3-9.9-26.3-24.9 0-12 8.6-22.9 17.3-30.4l4.8-4.4 2.2 14.1c-9 2.7-15.1 12.2-15.1 21.5 0 7 5.4 16.5 13.4 16.5.7 0 1.6-.4 1.6-1.3s-1-1.4-2.1-2.2c-4-2.4-6.1-5-6.1-9.8 0-6 4.5-11 10.3-12.3zm-8.8-102c1-4 5.5-14.3 10.7-14.3 1.4 0 3.8 4.8 3.8 11.7 0 10.3-7.6 18-14.5 24.8q-.9-6-1-12 0-5.5 1-10.1m22.9 83.6c0 7-3 14.3-10 17.2L430 1317c9 0 15.4 6 15.4 14.9m-43.7 48.8c0 6.5 5 15.2 18.5 15.2a23 23 0 0 0 12.3-3.4c5.3-3.8 6.7-10.3 6.7-16.6q0-5.6-1.6-14l-1.5-8.8c9.8-3.2 17-13.3 17-23.5a24 24 0 0 0-25.1-25.1l-2.9-17.4a56 56 0 0 0 17.8-39.1c0-9-2.8-16.4-4.4-20-2.4-5-5.2-8.5-7-8.5-.7 0-3.8 1.2-7 5-6.4 7.6-8.2 20.3-8.2 28.6 0 5.4.5 10.2 2.2 21.3-.1.1-5.3 5.4-7.4 7-9 8.5-21.5 20.5-21.5 40.4a34 34 0 0 0 34.6 33q4.4 0 7.9-.6 3 14 3 21.7-.1 15.7-15.3 15.8c-2.4 0-4.5-.5-4.7-.5l-.3-.3q0-.3.5-.4a11 11 0 0 0 9.3-11c0-5.4-4-11-11.5-11-7 0-11.4 5.6-11.4 12.2M431.2 2209.7q-3 .6-5.8.6c-14.2 0-26.3-9.9-26.3-24.9 0-12 8.6-22.9 17.3-30.4l4.8-4.4 2.2 14c-9 2.8-15.1 12.3-15.1 21.6 0 7 5.4 16.5 13.4 16.5.7 0 1.6-.4 1.6-1.3s-1-1.4-2.1-2.2c-4-2.4-6.1-5-6.1-9.8 0-6 4.5-11 10.3-12.3zm-8.8-102c1-4 5.5-14.3 10.7-14.3 1.4 0 3.8 4.8 3.8 11.7 0 10.3-7.6 18-14.5 24.8q-.9-6-1-12 0-5.5 1-10.2m22.9 83.7c0 7-3 14.3-10 17.1l-5.4-32c9 0 15.4 6 15.4 14.9m-43.7 48.8c0 6.5 5 15.2 18.5 15.2a23 23 0 0 0 12.3-3.4c5.3-3.8 6.7-10.3 6.7-16.6q0-5.6-1.6-14l-1.5-8.8c9.8-3.2 17-13.3 17-23.5a24 24 0 0 0-25.1-25.1l-2.9-17.4a56 56 0 0 0 17.8-39.2c0-9-2.8-16.3-4.4-19.9-2.4-5-5.2-8.5-7-8.5-.7 0-3.8 1.2-7 5-6.4 7.6-8.2 20.3-8.2 28.6 0 5.4.5 10.2 2.2 21.3-.1.1-5.3 5.4-7.4 7-9 8.5-21.5 20.5-21.5 40.4a34 34 0 0 0 34.6 33q4.4 0 7.9-.6 3 14 3 21.7-.1 15.6-15.3 15.8c-2.4 0-4.5-.5-4.7-.5l-.3-.3q0-.3.5-.4a11 11 0 0 0 9.3-11c0-5.4-4-11-11.5-11-7 0-11.4 5.6-11.4 12.2M431.2 481q-3 .6-5.8.6c-14.2 0-26.3-9.9-26.3-24.9 0-12 8.6-22.9 17.3-30.4l4.8-4.4 2.2 14.1c-9 2.7-15.1 12.2-15.1 21.5 0 7 5.4 16.5 13.4 16.5.7 0 1.6-.4 1.6-1.3s-1-1.4-2.1-2.2c-4-2.4-6.1-5-6.1-9.8 0-6 4.5-11 10.3-12.3zm-8.8-102c1-4 5.5-14.3 10.7-14.3 1.4 0 3.8 4.8 3.8 11.7 0 10.3-7.6 18-14.5 24.8q-.9-6-1-12 0-5.5 1-10.1m22.9 83.6c0 7-3 14.3-10 17.2l-5.4-32.1c9 0 15.4 6 15.4 14.9m-43.7 48.8c0 6.5 5 15.2 18.5 15.2a23 23 0 0 0 12.3-3.4c5.3-3.8 6.7-10.3 6.7-16.6q0-5.6-1.6-14L436 484c9.8-3.2 17-13.3 17-23.5a24 24 0 0 0-25.1-25.1l-2.9-17.4a56 56 0 0 0 17.8-39.1c0-9-2.8-16.4-4.4-20-2.4-5-5.2-8.5-7-8.5-.7 0-3.8 1.2-7 5-6.4 7.6-8.2 20.3-8.2 28.6 0 5.4.5 10.2 2.2 21.3-.1.1-5.3 5.4-7.4 7-9 8.5-21.5 20.5-21.5 40.4a34 34 0 0 0 34.6 33q4.4 0 7.9-.6 3 14 3 21.7-.1 15.7-15.3 15.8c-2.4 0-4.5-.5-4.7-.5l-.3-.3q0-.3.5-.4a11 11 0 0 0 9.3-11c0-5.4-4-11-11.5-11-7 0-11.4 5.6-11.4 12.2M431.2 3062.7q-3 .6-5.8.6c-14.2 0-26.3-9.9-26.3-24.9 0-12 8.6-22.9 17.3-30.4l4.8-4.4 2.2 14.1c-9 2.7-15.1 12.2-15.1 21.5 0 7 5.4 16.5 13.4 16.5.7 0 1.6-.4 1.6-1.3s-1-1.4-2.1-2.2c-4-2.4-6.1-5-6.1-9.8 0-6 4.5-11 10.3-12.3zm-8.8-102c1-3.9 5.5-14.3 10.7-14.3 1.4 0 3.8 4.8 3.8 11.7 0 10.3-7.6 18-14.5 24.8q-.9-5.9-1-12 0-5.5 1-10.1m22.9 83.6c0 7-3 14.3-10 17.2l-5.4-32c9 0 15.4 6 15.4 14.8m-43.7 48.8c0 6.6 5 15.2 18.5 15.2a23 23 0 0 0 12.3-3.4c5.3-3.8 6.7-10.3 6.7-16.6q0-5.6-1.6-14l-1.5-8.8c9.8-3.2 17-13.3 17-23.5a24 24 0 0 0-25.1-25l-2.9-17.4a56 56 0 0 0 17.8-39.2c0-9-2.8-16.4-4.4-20-2.4-5-5.2-8.5-7-8.5-.7 0-3.8 1.2-7 5-6.4 7.6-8.2 20.3-8.2 28.6 0 5.4.5 10.2 2.2 21.4-.1 0-5.3 5.3-7.4 7-9 8.4-21.5 20.4-21.5 40.3a34 34 0 0 0 34.6 33.1q4.4 0 7.9-.7 3 14 3 21.7-.1 15.7-15.3 15.8c-2.4 0-4.5-.5-4.7-.5l-.3-.3q0-.3.5-.4a11 11 0 0 0 9.3-11c0-5.3-4-11-11.5-11-7 0-11.4 5.7-11.4 12.2M431.2 2456.3q-3 .6-5.8.6c-14.2 0-26.3-9.9-26.3-24.9 0-12 8.6-22.9 17.3-30.4l4.8-4.4 2.2 14c-9 2.8-15.1 12.3-15.1 21.6 0 7 5.4 16.5 13.4 16.5.7 0 1.6-.4 1.6-1.3s-1-1.4-2.1-2.2c-4-2.4-6.1-5-6.1-9.8 0-6 4.5-11 10.3-12.3zm-8.8-102c1-4 5.5-14.3 10.7-14.3 1.4 0 3.8 4.8 3.8 11.7 0 10.3-7.6 18-14.5 24.8q-.9-6-1-12 0-5.5 1-10.2m22.9 83.7c0 7-3 14.3-10 17.1l-5.4-32c9 0 15.4 6 15.4 14.9m-43.7 48.8c0 6.5 5 15.2 18.5 15.2a23 23 0 0 0 12.3-3.4c5.3-3.8 6.7-10.3 6.7-16.6q0-5.6-1.6-14l-1.5-8.8c9.8-3.2 17-13.3 17-23.5a24 24 0 0 0-25.1-25.1l-2.9-17.4a56 56 0 0 0 17.8-39.2c0-9-2.8-16.3-4.4-19.9-2.4-5-5.2-8.5-7-8.5-.7 0-3.8 1.2-7 5-6.4 7.6-8.2 20.3-8.2 28.6 0 5.4.5 10.2 2.2 21.3-.1.1-5.3 5.4-7.4 7-9 8.5-21.5 20.5-21.5 40.4a34 34 0 0 0 34.6 33q4.4 0 7.9-.6 3 14 3 21.7-.1 15.6-15.3 15.8c-2.4 0-4.5-.5-4.7-.5l-.3-.3q0-.3.5-.4a11 11 0 0 0 9.3-11c0-5.4-4-11-11.5-11-7 0-11.4 5.6-11.4 12.2M431.2 744q-3 .5-5.8.5c-14.2 0-26.3-10-26.3-24.9 0-12 8.6-22.9 17.3-30.5q2.5-2 4.8-4.3l2.2 14c-9 2.8-15.1 12.3-15.1 21.6 0 7 5.4 16.5 13.4 16.5.7 0 1.6-.4 1.6-1.3s-1-1.4-2.1-2.2c-4-2.4-6.1-5-6.1-9.8 0-6 4.5-11 10.3-12.3zm-8.8-102c1-4 5.5-14.3 10.7-14.3 1.4 0 3.8 4.8 3.8 11.7 0 10.3-7.6 18-14.5 24.8q-.9-6-1-12 0-5.6 1-10.2m22.9 83.7c0 7-3 14.2-10 17.1l-5.4-32c9 0 15.4 6 15.4 14.9m-43.7 48.8c0 6.5 5 15.2 18.5 15.2a23 23 0 0 0 12.3-3.4c5.3-3.8 6.7-10.3 6.7-16.6 0-3.9-.6-8.3-1.6-14l-1.5-8.8c9.8-3.2 17-13.3 17-23.5a24 24 0 0 0-25.1-25.1l-2.9-17.4a56 56 0 0 0 17.8-39.2c0-9-2.8-16.3-4.4-20-2.4-5-5.2-8.4-7-8.4-.7 0-3.8 1.2-7 5-6.4 7.6-8.2 20.3-8.2 28.6 0 5.3.5 10.2 2.2 21.3-.1.1-5.3 5.4-7.4 7-9 8.5-21.5 20.5-21.5 40.4a34 34 0 0 0 34.6 33q4.4 0 7.9-.6 3 14 3 21.7-.1 15.6-15.3 15.8c-2.4 0-4.5-.5-4.7-.5l-.3-.3q0-.3.5-.4a11 11 0 0 0 9.3-11c0-5.4-4-11-11.5-11-7 0-11.4 5.6-11.4 12.2M431.2 1603.3q-3 .6-5.8.6c-14.2 0-26.3-10-26.3-25 0-12 8.6-22.8 17.3-30.4q2.5-2.2 4.8-4.3l2.2 14c-9 2.8-15.1 12.3-15.1 21.6 0 7 5.4 16.5 13.4 16.5.7 0 1.6-.4 1.6-1.3s-1-1.4-2.1-2.2c-4-2.4-6.1-5-6.1-9.8 0-6 4.5-11 10.3-12.3zm-8.8-102c1-4 5.5-14.4 10.7-14.4 1.4 0 3.8 4.9 3.8 11.7 0 10.4-7.6 18.1-14.5 24.8q-.9-5.8-1-12 0-5.5 1-10m22.9 83.5c0 7.1-3 14.3-10 17.2l-5.4-32c9 0 15.4 6 15.4 14.8m-43.7 48.9c0 6.5 5 15.1 18.5 15.1a23 23 0 0 0 12.3-3.3c5.3-3.8 6.7-10.4 6.7-16.6 0-3.9-.6-8.3-1.6-14l-1.5-8.8c9.8-3.2 17-13.3 17-23.5a24 24 0 0 0-25.1-25.1l-2.9-17.4a56 56 0 0 0 17.8-39.2c0-9-2.8-16.3-4.4-20-2.4-5-5.2-8.4-7-8.4-.7 0-3.8 1.1-7 5-6.4 7.6-8.2 20.3-8.2 28.6 0 5.3.5 10.2 2.2 21.3-.1.1-5.3 5.4-7.4 7-9 8.5-21.5 20.5-21.5 40.3a34 34 0 0 0 34.6 33.2q4.4 0 7.9-.7c1.9 9.5 3 16.4 3 21.7q-.1 15.6-15.3 15.8c-2.4 0-4.5-.5-4.7-.5l-.3-.3q0-.3.5-.4a11 11 0 0 0 9.3-11c0-5.4-4-11-11.5-11-7 0-11.4 5.6-11.4 12.2M431.2 3311.1q-3 .6-5.8.6c-14.2 0-26.3-9.9-26.3-24.9 0-12 8.6-22.9 17.3-30.4l4.8-4.4 2.2 14c-9 2.8-15.1 12.3-15.1 21.6 0 7 5.4 16.5 13.4 16.5.7 0 1.6-.4 1.6-1.3s-1-1.4-2.1-2.2c-4-2.4-6.1-5-6.1-9.8 0-6 4.5-11 10.3-12.3zm-8.8-102c1-4 5.5-14.3 10.7-14.3 1.4 0 3.8 4.8 3.8 11.7 0 10.3-7.6 18-14.5 24.8q-.9-6-1-12 0-5.5 1-10.2m22.9 83.7c0 7-3 14.3-10 17.1l-5.4-32c9 0 15.4 6 15.4 14.9m-43.7 48.8c0 6.5 5 15.2 18.5 15.2a23 23 0 0 0 12.3-3.4c5.3-3.8 6.7-10.3 6.7-16.6q0-5.6-1.6-14l-1.5-8.8c9.8-3.2 17-13.3 17-23.5a24 24 0 0 0-25.1-25.1L425 3248a56 56 0 0 0 17.8-39.2c0-9-2.8-16.3-4.4-19.9-2.4-5-5.2-8.5-7-8.5-.7 0-3.8 1.2-7 5-6.4 7.6-8.2 20.3-8.2 28.6 0 5.4.5 10.2 2.2 21.3-.1.1-5.3 5.4-7.4 7-9 8.5-21.5 20.5-21.5 40.4a34 34 0 0 0 34.6 33q4.4 0 7.9-.6 3 14 3 21.7-.1 15.6-15.3 15.8c-2.4 0-4.5-.5-4.7-.5l-.3-.3q0-.3.5-.4a11 11 0 0 0 9.3-11c0-5.4-4-11-11.5-11-7 0-11.4 5.6-11.4 12.2M445.8 877.4c0 2.7 2.2 5 4.8 5s4.8-2.3 4.8-5-2.2-5.1-4.8-5.1-4.8 2.3-4.8 5m-31-12.5c-7.6 0-13.7 4.3-13.8 4.3a23 23 0 0 0-9.6 18c0 7.3 4.2 12.7 11.5 12.7 6.4 0 11.3-4.3 11.3-10.8a10.6 10.6 0 0 0-13.7-9.9c-1 .4-2.7 1.4-3.5 2.1.7-4.3 3.7-8.7 7.6-10.8a19 19 0 0 1 9.1-2q15.1 0 15.1 24.8c0 13-8.2 31.5-18 40.2a85 85 0 0 1-20.1 13.9s-1.2.7-1.2 1.9l.1.5c.3 1 1.2 1.2 1.8 1.2l.5-.1s11.4-4.7 20.4-11.7c14-10 29.6-27.7 29.6-46 0-17.2-9.3-28.3-27.2-28.3m31.1 37c0 2.8 2.2 5.1 4.8 5.1s4.8-2.3 4.8-5-2.2-5.1-4.8-5.1-4.8 2.3-4.8 5M445.8 1736.7c0 2.8 2.2 5 4.8 5s4.8-2.2 4.8-5-2.2-5-4.8-5-4.8 2.3-4.8 5m-31-12.5c-7.6 0-13.7 4.3-13.8 4.3a23 23 0 0 0-9.6 18c0 7.3 4.2 12.7 11.5 12.7 6.4 0 11.3-4.3 11.3-10.8a10.6 10.6 0 0 0-13.7-9.9c-1 .4-2.7 1.4-3.5 2.1.7-4.4 3.7-8.7 7.6-10.8a19 19 0 0 1 9.1-2q15.1 0 15.1 24.8c0 13-8.2 31.5-18 40.2a85 85 0 0 1-20.1 13.9s-1.2.7-1.2 1.9l.1.5c.3 1 1.2 1.2 1.8 1.2l.5-.1s11.4-4.7 20.4-11.8c14-10 29.6-27.6 29.6-45.9 0-17.2-9.3-28.3-27.2-28.3m31.1 37c0 2.8 2.2 5.1 4.8 5.1s4.8-2.3 4.8-5-2.2-5.1-4.8-5.1-4.8 2.3-4.8 5M445.8 3487c0 2.9 2.2 5 4.8 5s4.8-2.1 4.8-5c0-2.7-2.2-5-4.8-5s-4.8 2.3-4.8 5m-31-12.5c-7.6 0-13.7 4.4-13.8 4.4a23 23 0 0 0-9.6 18c0 7.3 4.2 12.6 11.5 12.6 6.4 0 11.3-4.2 11.3-10.8a10.6 10.6 0 0 0-13.7-9.8c-1 .4-2.7 1.4-3.5 2 .7-4.3 3.7-8.7 7.6-10.8a19 19 0 0 1 9.1-2q15.1 0 15.1 24.9c0 12.9-8.2 31.4-18 40.2a85 85 0 0 1-20.1 13.8s-1.2.7-1.2 2l.1.4c.3 1 1.2 1.2 1.8 1.2h.5s11.4-4.7 20.4-11.8c14-10 29.6-27.7 29.6-46 0-17.2-9.3-28.3-27.2-28.3m31.1 37.1c0 2.8 2.2 5 4.8 5s4.8-2.2 4.8-5-2.2-5-4.8-5-4.8 2.2-4.8 5M445.8 2589.8c0 2.8 2.2 5 4.8 5s4.8-2.2 4.8-5-2.2-5-4.8-5-4.8 2.2-4.8 5m-31-12.6c-7.6 0-13.7 4.3-13.8 4.3a23 23 0 0 0-9.6 18c0 7.3 4.2 12.7 11.5 12.7 6.4 0 11.3-4.3 11.3-10.8a10.6 10.6 0 0 0-13.7-9.8c-1 .3-2.7 1.3-3.5 2 .7-4.3 3.7-8.7 7.6-10.8a19 19 0 0 1 9.1-2q15.1 0 15.1 24.8c0 13-8.2 31.5-18 40.2a85 85 0 0 1-20.1 14s-1.2.6-1.2 1.8l.1.5c.3 1 1.2 1.2 1.8 1.2l.5-.1s11.4-4.7 20.4-11.7c14-10 29.6-27.7 29.6-46 0-17.2-9.3-28.3-27.2-28.3m31.1 37c0 2.8 2.2 5.1 4.8 5.1s4.8-2.3 4.8-5-2.2-5-4.8-5-4.8 2.2-4.8 5" class="Clef"/><path d="m481.7 1248.2 8.8-1.8v16.3l-8.8 2zm15.4-3.1q1-.3 1-1.4v-5.9q0-1.2-1.3-1.3h-.2l-3.3.6v-14.7h-2.8v15.3l-8.8 1.8v-14h-2.8v14.6l-3.8.8q-1 .3-1.1 1.4v5.8q.1 1.3 1.4 1.4h.3l3.2-.7v16.3l-3.8.8q-1 .3-1.1 1.4v5.8q.1 1.3 1.4 1.3h.3l3.2-.6v14.7h2.8v-15.3l8.8-1.8v14h2.8v-14.6l3.8-.7q1-.3 1-1.4v-5.9q0-1.2-1.3-1.3h-.2l-3.3.6v-16.3zM481.7 378.9l8.8-1.8v16.3l-8.8 2zm15.4-3.1q1-.3 1-1.4v-5.9q0-1.2-1.3-1.4h-.2l-3.3.7v-14.7h-2.8v15.3l-8.8 1.8v-14h-2.8v14.6l-3.8.8q-1 .3-1.1 1.4v5.8q.1 1.2 1.4 1.4h.3l3.2-.7v16.3l-3.8.8q-1 .3-1.1 1.4v5.8q.1 1.2 1.4 1.3h.3l3.2-.6v14.7h2.8V404l8.8-1.8v14h2.8v-14.6l3.8-.7q1-.3 1-1.4v-5.9q0-1.3-1.3-1.3h-.2l-3.3.6v-16.3zM481.7 2107.5l8.8-1.7v16.3l-8.8 2zm15.4-3q1-.3 1-1.4v-5.9q0-1.3-1.3-1.4h-.2l-3.3.7v-14.7h-2.8v15.3l-8.8 1.8v-14h-2.8v14.6l-3.8.8q-1 .3-1.1 1.4v5.7q.1 1.3 1.4 1.4h.3l3.2-.7v16.4l-3.8.8q-1 .3-1.1 1.4v5.8q.1 1.2 1.4 1.3h.3l3.2-.7v14.8h2.8v-15.4l8.8-1.7v14h2.8v-14.6l3.8-.7q1-.3 1-1.4v-5.9q0-1.3-1.3-1.4h-.2l-3.3.7v-16.3zM481.7 2960.6l8.8-1.8v16.3l-8.8 2zm15.4-3.1q1-.3 1-1.4v-5.8q0-1.3-1.3-1.4h-.2l-3.3.7v-14.8h-2.8v15.3l-8.8 1.8v-14h-2.8v14.6l-3.8.8q-1 .3-1.1 1.4v5.8q.1 1.3 1.4 1.4h.3l3.2-.7v16.3l-3.8.8q-1 .3-1.1 1.4v5.8q.1 1.3 1.4 1.4h.3l3.2-.7v14.7h2.8v-15.3l8.8-1.8v14h2.8v-14.6l3.8-.7q1-.3 1-1.4v-5.8q0-1.3-1.3-1.4h-.2l-3.3.7v-16.4zM481.7 1501.1l8.8-1.8v16.4l-8.8 1.9zm15.4-3q1-.3 1-1.4v-5.9q0-1.3-1.3-1.4h-.2l-3.3.7v-14.8h-2.8v15.4l-8.8 1.8v-14h-2.8v14.6l-3.8.8c-.6 0-1.1.8-1.1 1.4v5.7q.1 1.3 1.4 1.4h.3l3.2-.7v16.4l-3.8.8c-.6 0-1.1.8-1.1 1.4v5.7q.1 1.3 1.4 1.4h.3l3.2-.7v14.8h2.8v-15.4l8.8-1.8v14h2.8v-14.5l3.8-.7q1-.4 1-1.4v-5.9q0-1.3-1.3-1.4h-.2l-3.3.7v-16.3zM481.7 3209l8.8-1.8v16.3l-8.8 2zm15.4-3q1-.3 1-1.4v-5.9q0-1.3-1.3-1.4h-.2l-3.3.7v-14.7h-2.8v15.3l-8.8 1.8v-14h-2.8v14.6l-3.8.8q-1 .3-1.1 1.4v5.7q.1 1.3 1.4 1.4h.3l3.2-.7v16.4l-3.8.8q-1 .3-1.1 1.4v5.8q.1 1.2 1.4 1.3h.3l3.2-.7v14.8h2.8V3234l8.8-1.7v14h2.8v-14.6l3.8-.7q1-.3 1-1.4v-5.9q0-1.3-1.3-1.4h-.2l-3.3.7v-16.3zM481.7 641.7l8.8-1.7v16.3l-8.8 2zm15.4-3q1-.3 1-1.4v-5.9q0-1.3-1.3-1.4h-.2l-3.3.7V616h-2.8v15.4l-8.8 1.8v-14h-2.8v14.6l-3.8.8q-1 .3-1.1 1.4v5.7q.1 1.3 1.4 1.4h.3l3.2-.7v16.4l-3.8.8c-.6 0-1.1.8-1.1 1.4v5.7q.1 1.3 1.4 1.4h.3l3.2-.7v14.8h2.8v-15.4l8.8-1.7v14h2.8v-14.6l3.8-.7q1-.3 1-1.4v-5.9q0-1.3-1.3-1.4h-.2l-3.3.7v-16.3zM481.7 2354.1l8.8-1.7v16.3l-8.8 2zm15.4-3q1-.3 1-1.4v-5.9q0-1.3-1.3-1.4h-.2l-3.3.7v-14.7h-2.8v15.3l-8.8 1.8v-14h-2.8v14.6l-3.8.8q-1 .3-1.1 1.4v5.7q.1 1.3 1.4 1.4h.3l3.2-.7v16.4l-3.8.8q-1 .3-1.1 1.4v5.8q.1 1.2 1.4 1.3h.3l3.2-.7v14.8h2.8v-15.4l8.8-1.7v14h2.8v-14.6l3.8-.7q1-.3 1-1.4v-5.9q0-1.3-1.3-1.4h-.2l-3.3.7v-16.3zM481.7 3492l8.8-1.7v16.3l-8.8 2zm15.4-3.1q1-.3 1-1.4v-5.9q0-1.2-1.3-1.3h-.2l-3.3.6v-14.7h-2.8v15.3l-8.8 1.8v-14h-2.8v14.6l-3.8.8q-1 .3-1.1 1.4v5.8q.1 1.3 1.4 1.4h.3l3.2-.7v16.3l-3.8.8q-1 .3-1.1 1.4v5.8q.1 1.3 1.4 1.3h.3l3.2-.6v14.7h2.8v-15.3l8.8-1.8v14h2.8v-14.6l3.8-.7q1-.3 1-1.4v-5.9q0-1.2-1.3-1.3h-.2l-3.3.6v-16.3zM481.7 882.3l8.8-1.8V897l-8.8 1.9zm15.4-3q1-.4 1-1.5V872q0-1.3-1.3-1.4h-.2l-3.3.7v-14.8h-2.8V872l-8.8 1.8v-14h-2.8v14.6l-3.8.8c-.6 0-1.1.8-1.1 1.4v5.7q.1 1.3 1.4 1.4h.3l3.2-.7v16.4l-3.8.8c-.6 0-1.1.8-1.1 1.4v5.7q.1 1.3 1.4 1.4h.3l3.2-.7v14.8h2.8v-15.4l8.8-1.8v14h2.8V905l3.8-.7q1-.2 1-1.4V897q0-1.3-1.3-1.4h-.2l-3.3.7V880zM481.7 1741.7l8.8-1.8v16.4l-8.8 1.9zm15.4-3q1-.5 1-1.5v-5.8q0-1.3-1.3-1.4h-.2l-3.3.7v-14.8h-2.8v15.4l-8.8 1.8v-14h-2.8v14.6l-3.8.8c-.6 0-1.1.8-1.1 1.4v5.7q.1 1.3 1.4 1.4h.3l3.2-.7v16.4l-3.8.8c-.6 0-1.1.8-1.1 1.4v5.7q.1 1.3 1.4 1.4h.3l3.2-.7v14.8h2.8v-15.4l8.8-1.8v14h2.8v-14.6l3.8-.7c.6 0 1-.8 1-1.4v-5.8q0-1.3-1.3-1.4h-.2l-3.3.7v-16.4zM481.7 2594.7l8.8-1.8v16.4l-8.8 1.9zm15.4-3q1-.3 1-1.4v-5.9q0-1.3-1.3-1.4h-.2l-3.3.7V2569h-2.8v15.4l-8.8 1.8v-14h-2.8v14.6l-3.8.8c-.6 0-1.1.8-1.1 1.4v5.7q.1 1.3 1.4 1.4h.3l3.2-.7v16.4l-3.8.8c-.6 0-1.1.8-1.1 1.4v5.7q.1 1.3 1.4 1.4h.3l3.2-.7v14.8h2.8v-15.4l8.8-1.8v14h2.8v-14.5l3.8-.7q1-.4 1-1.4v-5.9q0-1.3-1.3-1.4h-.2l-3.3.7v-16.3z" class="KeySig"/><path d="m583 1321.6-.6-.7-11.4-14.1-.2-.6q0-.5.2-.9l10-15.3q.3-.4.3-.7v-.9q0-.5-.3-.8l-16-21.7s-.5-.6-1-.6q-.5 0-.9.3-.6.5-.5 1 .1 1 .3 1.1l7.6 10.3q.3.5.3 1.2t-.3 1.2l-10 15.3-.2.8v.9q0 .5.3.8l11 13.8q-.5-.4-2.4-.4c-5 0-9 4.2-9 9.3q0 2.2 1 3.8c2.1 3.2 9.6 12.6 9.6 12.6s.5.6 1.2.6q.3 0 .6-.2.7-.5.7-1.2t-.3-.8l-3.5-6.3s-.7-1.4-.7-3.2c0-3.2 2.4-5.7 5.5-5.7a6 6 0 0 1 3.2.9l3.9 2.5.8.1q.6.1 1-.5.3-.4.3-.8t-.3-.8zM1721.4 2144.4l-.4-.2q-.9 0-1.3.9c-.4.5-3.5 6.4-8 9.7q-1.9 1.5-4.4 2 1.7-2 1.8-4.8a7 7 0 0 0-14.2 0c0 5.3 5.3 7.8 10 7.8 5.2 0 8.7-2.5 12-6.1l-11.3 35.3 2.7.8 13.9-43.8.1-.5q0-.7-.9-1.1M2702.4 2144.4l-.4-.2q-.9 0-1.2.9c-.5.5-3.5 6.4-8 9.7q-2 1.5-4.4 2 1.6-2 1.7-4.8a7 7 0 0 0-14.2 0c0 5.3 5.3 7.8 10 7.8 5.2 0 8.7-2.5 12-6.1l-11.2 35.3 2.6.8 14-43.8v-.5q0-.7-.9-1.1M586.6 415.7l-.4-.1q-.8 0-1.2.8c-.4.6-3.5 6.4-8 9.7q-2 1.5-4.4 2 1.6-2 1.7-4.8a7 7 0 0 0-14.1 0c0 5.4 5.2 7.8 9.9 7.8 5.2 0 8.7-2.4 12-6.1L571 460.3l2.7.8 13.8-43.7.1-.5q0-.8-.9-1.2M593 2997.4l-.4-.1q-.8 0-1.2.8c-.4.6-3.5 6.4-8 9.7q-2 1.5-4.4 2 1.6-2 1.7-4.8a7 7 0 0 0-14.1 0c0 5.4 5.2 7.8 9.9 7.8 5.2 0 8.7-2.4 12-6.1l-11.2 35.3 2.7.8 13.8-43.7q.3-.2.2-.5 0-.8-1-1.2M583 2181l-.6-.7-11.4-14.1-.2-.6q0-.5.2-1l10-15.2q.3-.3.3-.7v-.9q0-.5-.3-.8l-16-21.7s-.5-.6-1-.6q-.5 0-.9.3-.6.5-.5 1 .1 1 .3 1l7.6 10.4q.3.4.3 1.2t-.3 1.2l-10 15.3-.2.8v.9q0 .3.3.7l11 13.8q-.5-.2-2.4-.3c-5 0-9 4.2-9 9.3q0 2 1 3.8c2.1 3.2 9.6 12.6 9.6 12.6s.5.6 1.2.6q.3 0 .6-.2.7-.6.7-1.2t-.3-.9l-3.5-6.2s-.7-1.4-.7-3.2c0-3.2 2.4-5.7 5.5-5.7a6 6 0 0 1 3.2.9l3.9 2.4.8.2q.6.1 1-.5l.3-.8q0-.4-.3-.8zM1725 415.7l-.4-.1q-1 0-1.3.8c-.4.6-3.5 6.4-8 9.7q-2 1.5-4.4 2 1.7-2 1.8-4.8a7 7 0 0 0-14.2 0c0 5.4 5.2 7.8 9.9 7.8 5.2 0 8.7-2.4 12.1-6.1l-11.3 35.3 2.7.8 13.9-43.7v-.5q0-.8-.8-1.2M1836.8 3264.9c0 1.4 0 1.4 1.4 1.4h29.5c1.4 0 1.4 0 1.4-1.4v-10.7c0-1.4 0-1.4-1.4-1.4h-29.5c-1.4 0-1.4 0-1.4 1.4zM1863.3 3479.3l-.4-.1q-.9 0-1.3.8c-.4.6-3.5 6.4-8 9.7q-1.9 1.5-4.4 2 1.7-2 1.8-4.8a7 7 0 0 0-14.2 0c0 5.4 5.3 7.8 10 7.8 5.2 0 8.7-2.4 12-6.1l-11.3 35.3 2.7.8 13.9-43.7.1-.5q0-.8-.9-1.2" class="Rest"/><path d="M2505 3178.1c-9.3-10.1-17.6-10.7-22.7-10.7-5.2 0-13.3.6-22.7 10.7-4.8 5.4-8.2 16-8.2 21.3q0 3.1 1.4 3.2c2.8 0 1.4-8.5 9.7-17a28 28 0 0 1 19.6-7.4h.3c2.4 0 12.3.1 19.6 7.4 8.3 8.5 7 17 9.7 17q1.5-.1 1.4-3.2c0-5.3-3.3-16-8.1-21.3m-29.6 19a6.9 6.9 0 1 0 13.7 0 6.9 6.9 0 0 0-13.7 0M2505 3389.3c-9.3-10.1-17.6-10.7-22.7-10.7-5.2 0-13.3.6-22.7 10.7-4.8 5.4-8.2 16-8.2 21.3q0 3.1 1.4 3.2c2.8 0 1.4-8.5 9.7-17a28 28 0 0 1 19.6-7.4h.3c2.4 0 12.3 0 19.6 7.4 8.3 8.5 7 17 9.7 17q1.5-.1 1.4-3.2c0-5.3-3.3-16-8.1-21.3m-29.6 19a6.9 6.9 0 1 0 13.7 0 6.9 6.9 0 0 0-13.7 0" class="Fermata"/><path fill-rule="evenodd" d="m832.2 2090 127.7 6.3v12.4l-127.7-6.2zM1619 2949.3l107.3-6.2v12.4l-107.3 6.2zM1619 2967.9l107.3-6.2v12.4l-107.3 6.2zM1850 2090h273.8v12.5h-273.9zM714.8 361.4h273v12.4h-273zM1853 361.4h314.7v12.4H1853zM840.1 1230.7l131.9 6.2v12.4l-131.9-6.2zM753.7 2943.1h317v12.4h-317zM2010.3 1236.9l131.9-6.2v12.4l-131.9 6.2zM2288.3 2330.5h169.4v12.4h-169.4zM2288.3 2349h86v12.5h-86zM1098.9 1477.5h175v12.4h-175zM1098.9 1496h88.7v12.5h-88.7zM1996 2336.7h127.8v12.4H1996zM1728.2 605.7H1918V618h-189.8zM1918 624.3h-27.3v12.4h27.3zM2290 605.7h169V618h-169zM2290 624.3h85.8v12.4H2290zM1052.9 2504h169.5v12.5h-169.5zM1052.9 2485.5h86v12.4h-86zM1400.7 1477.5h218v12.4h-218zM1530 1496h88.8v12.5H1530zM1401.5 618H1612v12.5h-210.5zM1526.3 636.7h85.7V649h-85.7zM2269 1477.5h175v12.4h-175zM2269 1496h88.8v12.5H2269zM590 1477.5h166.4v12.4H589.9zM756.4 1496H729v12.5h27.3zM2580.5 2330.5h211.2v12.4h-211.2zM2705.7 2349h86v12.5h-86zM1998.7 611.9h169v12.4h-169zM840.1 1483.7H972v12.4H840zM560.2 2504h161.2v12.5H560.2zM721.4 2485.5h-27.3v12.4h27.3zM1110.1 618h169v12.5h-169zM1110.1 636.7h85.8V649H1110zM1724.7 2330.5H1915v12.4h-190.3zM1915 2349h-27.3v12.5h27.3zM1345.1 2504h211.2v12.5h-211.2zM1470.4 2485.5h86v12.4h-86zM2581.4 605.7h210.5V618h-210.5zM2706.2 624.3h85.7v12.4h-85.7zM802.4 2491.7h127.7v12.4H802.4zM860.4 624.3h127.4v12.4H860.4zM2010.3 1483.7h131.9v12.4h-131.9zM590 618h189.7v12.5H589.9zM779.7 636.7h-27.3V649h27.3zM2570.9 1477.5h218v12.4h-218zM2700.2 1496h88.7v12.5h-88.7zM1760.1 1477.5h166.5v12.4H1760zM1926.6 1496h-27.3v12.5h27.3zM2581.4 914.5h210.5v12.4h-210.5zM2706.2 933h85.7v12.5h-85.7zM1401.5 908.3H1612v12.4h-210.5zM1526.3 926.9h85.7v12.4h-85.7zM2288.3 2620.7h169.4v12.4h-169.4zM2288.3 2639.3h86v12.4h-86zM860.4 908.3h127.4v12.4H860.4zM590 1767.7h166.4v12.3H589.9zM756.4 1786.3H729v12.4h27.3zM1998.7 914.5h169v12.4h-169zM1998.7 933h85.8v12.5h-85.8zM1728.2 914.5H1918v12.4h-189.8zM1918 933h-27.3v12.5h27.3zM2010.3 1767.7h131.9v12.3h-131.9zM590 2595.9h161.2v12.4H589.9zM751.2 2614.5h-27.3v12.4h27.3zM1082.7 2595.9H1252v12.4h-169.4zM1082.7 2614.5h86v12.4h-86zM2580.5 2620.7h211.2v12.4h-211.2zM2705.7 2639.3h86v12.4h-86zM1400.7 1767.7h218v12.3h-218zM1530 1786.3h88.8v12.4H1530zM2570.9 1767.7h218v12.3h-218zM2700.2 1786.3h88.7v12.4h-88.7zM1760.1 1767.7h166.5v12.3H1760zM1926.6 1786.3h-27.3v12.4h27.3zM1374.9 2595.9H1586v12.4h-211.2zM1500.1 2614.5h86v12.4h-86zM840.1 1767.7H972v12.3H840zM1724.7 2620.7H1915v12.4h-190.3zM1915 2639.3h-27.3v12.4h27.3zM1098.9 1767.7h175v12.3h-175zM1098.9 1786.3h88.7v12.4h-88.7zM2024 3449.8l317-31v12.4l-317 31zM2290 914.5h169v12.4h-169zM2290 933h85.8v12.5H2290zM1110.1 908.3h169v12.4h-169zM1110.1 926.9h85.8v12.4H1110zM832.2 2595.9h127.7v12.4H832.2zM2269 1767.7h175v12.3h-175zM2269 1786.3h88.8v12.4H2269zM590 908.3h189.7v12.4H589.9zM779.7 926.9h-27.3v12.4h27.3zM1996 2620.7h211.2v12.4H1996zM2121.3 2639.3h86v12.4h-86z" class="Beam"/><path d="m1332.8 3160.4-5.5-12.9-.3-1q-.1-1.4 2.3-1.3h1v-1.8h-11.8v1.8h.5c1.7 0 2.4.6 3.4 2.7l8.2 18.5-.9 1.7c-1.8 3.8-4.1 6.5-5.7 6.5q-.8 0-.8-.5v-.5q.3-.7.3-1.3-.1-2-2.5-2.2c-1.8 0-3 1.3-3 3 0 2.3 1.9 4 4.5 4q4 0 7-4c1.5-2.1 2.5-4.2 4.7-9.7l5.7-14.1c1.1-3 2.2-4 4.2-4h.3v-1.9h-10v1.8h.8q2.8 0 2.7 1.9a5 5 0 0 1-.5 2zm23-17.7c-6.1 0-10.9 5.4-10.9 12.4s4.8 12.4 10.8 12.4 10.8-5.5 10.8-12.4-4.8-12.4-10.7-12.4m0 2.1q5.4.2 5.5 10.3-.1 10-5.6 10.2-5.4-.2-5.5-10.2 0-10.3 5.6-10.3m33 22.3 9-.4v-2.1h-1.2c-2.9-.1-3.1-.4-3.1-3.7v-17.5l-9.4.6v2.1h2.5c2 0 2.2.4 2.2 2.5v6.2c0 4.3-1 9.6-6.6 9.6q-2.3 0-3.5-1.5c-.6-1-.7-1.5-.7-4.2v-15.3l-8.8.6v2.1h2c1.8 0 2 .4 2 2.5v10.8c0 2.6.3 3.7 1 4.9q2.2 3.1 6.8 3.2c3.3 0 5.6-1.4 7.8-4.6zm19.8-23.7-8.8.6v2.1h2c2 0 2.2.4 2.2 2.5v14.3q0 1-.3 1.3-.5.7-3.5.7h-.2v1.8h13.3v-1.8h-.9c-3.3 0-3.8-.3-3.8-2.1v-2.7c0-8.4 3-14.8 7-15q-1 1-1 2.2c0 1.6 1.2 2.8 2.8 2.8 1.9 0 3-1.4 3-3.4q-.1-3.8-4.3-4-4.8.1-7.5 7zM967.1 1432.6l-5-12.9-.1-1q-.2-1.3 2-1.2h1.3v-1.8H954v1.8h.8q2.3-.1 2.7 1.9l.4 1.3-4.4 11.6-4.9-12.5-.2-1.1q0-1.3 2-1.2h1v-1.8h-11v1.8h.9q1.9-.1 2.6 2.5l7.5 19.8h1.7l6-15.8 6 15.8h1.6l7-18.5c1.1-3 1.9-3.7 3.7-3.8h.4v-1.8h-9.5v1.8h.9q2.5-.1 2.4 1.9 0 .8-.4 1.8zm22.8-17.6c-6.1 0-10.9 5.4-10.9 12.4s4.8 12.4 10.8 12.4 10.8-5.5 10.8-12.4-4.8-12.4-10.7-12.4m0 2.1c3.5 0 5.5 3.7 5.5 10.3q-.1 10-5.6 10.2-5.4-.2-5.5-10.2 0-10.2 5.6-10.3m33 22.3 9.1-.4v-2.1h-1.2c-3-.1-3.2-.4-3.2-3.7v-17.5l-9.4.6v2.1h2.6c1.9 0 2.1.4 2.1 2.5v6.2c0 4.3-1 9.6-6.5 9.6q-2.5 0-3.5-1.5c-.7-1-.8-1.5-.8-4.2v-15.3l-8.7.6v2.1h1.9c1.9 0 2.1.4 2.1 2.5v10.8c0 2.6.2 3.7 1 4.9q2 3.1 6.7 3.2c3.3 0 5.6-1.4 7.8-4.6zm20.2-37.2-9.3.5v2.2h2.5c1.8 0 2 .3 2 2.5v27.8q0 1-.2 1.3c-.4.5-1.3.7-3.5.7h-.3v1.8h13v-1.8h-.4c-3.4 0-3.8-.3-3.8-2.1zm24.5 37.3 8.7-.4v-2.1h-1c-2.7-.2-3-.5-3-3.7v-31l-9.8.5v2.2h3c1.8 0 2.1.3 2.1 2.5v11.3a8 8 0 0 0-7-3.7c-5.5 0-9.8 5.4-9.8 12.6s4 12.2 9.9 12.2q4.6 0 6.9-4.4zm-6-21.7q3.4.2 5 3.8 1 2.3 1 6c0 5.8-2.3 9.6-6 9.6-3.5 0-5.6-3.3-5.6-8.9q0-4.4 1-6.9 1.4-3.4 4.7-3.6M1211.3 2265.2l-8.9.5v2.2h2c2 0 2.2.3 2.2 2.5v14.3q0 1-.3 1.3-.3.7-3.4.7h-.2v1.8h12.6v-1.8h-.2c-3.3-.1-3.8-.4-3.8-2.2v-9.3c0-4.4 2.5-7.7 5.7-7.7q4.3 0 4.3 6v11.2q0 1-.3 1.3-.3.7-3.5.7h-.2v1.8h12.7v-1.8h-.2c-3.3-.1-3.8-.4-3.8-2.2v-8.8c0-5 2.3-8.2 5.8-8.2q4.2 0 4.2 6.7v10.5q0 1-.3 1.3-.3.7-3.5.7h-.2v1.8h12.7v-1.8h-.2c-3.3-.1-3.8-.4-3.8-2.2v-11.3c0-3.2-.3-4.2-1.6-6a7 7 0 0 0-5.9-2.7q-4.7-.1-7.8 5a7 7 0 0 0-6.9-5q-4.3 0-7.2 4.5zm57.7 12c0-7.5-4.2-12.7-10.3-12.7-6.4 0-11.2 5.5-11.2 13 0 7 4.5 11.7 11.3 11.7q7.1 0 10.2-7l-1.8-1c-2 3.8-4.1 5.3-7.5 5.3q-3.7 0-5.7-3.3c-.9-1.5-1.3-3.2-1.2-6zm-16.2-2.1c0-3.5 1.6-8.5 5.8-8.5 3 0 5 2.6 5 6.7q.2 2-2 1.8zm22 22.6q6.6-4.6 6.5-9.7c0-3-1.6-5-4-5-1.9 0-3.3 1.4-3.3 3q.1 3 3.5 3h.8q.4 0 .4.4 0 3.3-5 6.8zM1599.2 3143.4l-8.9.6v2.1h2.1c1.9 0 2.1.4 2.1 2.5v14.3q0 1-.3 1.3-.3.7-3.4.7h-.2v1.8h12.6v-1.8h-.2c-3.3 0-3.8-.3-3.8-2.2v-9.2c0-4.5 2.5-7.8 5.8-7.8q4.2 0 4.2 6.1v11.2q0 .9-.3 1.2-.3.7-3.5.7h-.2v1.8h12.7v-1.8h-.2c-3.3 0-3.7-.3-3.7-2.1v-8.9c0-5 2.2-8.2 5.7-8.2q4.3 0 4.3 6.7v10.5q-.1 1-.4 1.3-.3.7-3.4.7h-.2v1.8h12.6v-1.8h-.2c-3.3 0-3.7-.3-3.7-2.2v-11.3c0-3.1-.4-4.2-1.6-5.9a7 7 0 0 0-6-2.8q-4.7-.1-7.7 5a7 7 0 0 0-7-5q-4.3-.1-7.2 4.6zm42.4-12.4a2.9 2.9 0 1 0 0 5.8 2.9 2.9 0 0 0 0-5.8m2.3 12.4-9.4.6v2.1h2.6c1.9 0 2.1.4 2.1 2.5v14.3q0 1-.3 1.3-.3.7-3.4.7h-.4v1.8h13v-1.8h-.4c-3.3 0-3.8-.3-3.8-2.1zm15.5 0-8.7.6v2.1h1.8c2 0 2.2.4 2.2 2.5v14.3q0 1-.3 1.3c-.4.5-1.3.7-3.5.7h-.2v1.8h12.7v-1.8h-.2c-3.4 0-3.8-.3-3.8-2.1v-7.4q0-4 .9-5.9c1-2.2 3.3-3.8 5.4-3.8 1.3 0 2.8.7 3.6 1.8q1 1.5 1 5v10.4q0 1-.2 1.3-.5.7-3.5.7h-.2v1.8h12.6v-1.8h-.2c-3.3 0-3.7-.3-3.7-2.1v-10c0-3.7-.2-4.6-1-6.3a7 7 0 0 0-6.8-3.8q-4.7 0-8 4.8zm39.6 23.6 8.7-.4v-2.1h-.9c-2.8-.2-3-.5-3-3.7v-31l-9.9.5v2.2h3c1.9 0 2.1.3 2.1 2.5v11.3a8 8 0 0 0-6.9-3.7c-5.6 0-10 5.4-10 12.6s4.2 12.2 10 12.2q4.6 0 7-4.4zm-6-21.7c2 0 4 1.5 5 3.8q.9 2.2.9 6c0 5.8-2.3 9.6-6 9.6-3.5 0-5.6-3.3-5.6-8.9q0-4.4 1-6.9c.8-2.2 2.7-3.6 4.7-3.6m22.1 15.8a3.1 3.1 0 1 0 3.1 3.1c0-1.7-1.4-3.1-3.1-3.1M1819.3 533.5h1c2.9 0 3.8.2 4.2.7.3.4.3.6.3 3v23.9c0 2.5 0 2.6-.3 3-.4.6-1.3.8-4.2.8h-1v2.3h16.6V565h-1c-2.8 0-3.8-.2-4.2-.7-.3-.5-.3-.6-.3-3.1v-23.8c0-2.6 0-2.7.3-3.1.4-.5 1.3-.7 4.2-.7h1V531h-16.6zm28.5 10.4v-2.8q0-3.7.6-5.2 1.3-3.4 4.5-3.5 1.6 0 1.7.8 0 .2-.3.7a3 3 0 0 0-.4 1.6c0 1.5 1.2 2.6 2.7 2.6q2.7-.1 2.8-3c0-3-2.5-4.7-6.5-4.7q-5.2 0-7.8 3.7c-1.5 2-2 4.2-2 8.3v1.5h-4.4v2.2h4.4v17.3q0 1-.3 1.3-.3.7-3.4.7h-.2v1.8h13.3v-1.8h-.9c-3.3 0-3.8-.3-3.8-2.1V546h5.5v-2.2zM700 530.8h-2l-2 3a13 13 0 0 0-9-3.4c-6.6 0-11 4.1-11 10.4 0 5.5 2.7 8.2 10 10.1l4.8 1.2c3.7 1 4 1 5.1 1.8a6 6 0 0 1 2.3 4.8q0 3-2.2 5c-1.7 1.4-3.3 2-6 2-7.6 0-11.4-5.6-12.7-12.3h-2.1l.2 14.2h2l2.2-3.4c3.3 2.8 6 3.8 10.5 3.8 7.3 0 12-4.3 12-11q0-4.8-3-7.7c-1.3-1.3-3.3-2.1-7.3-3.1l-5.3-1.4q-6.7-1.5-6.6-6.1c0-3.5 2.9-6 7.1-6 6.5 0 10 5.4 11.4 11.1h2.1zm17.3 12.4c-6.1 0-10.9 5.4-10.9 12.4s4.8 12.4 10.8 12.4 10.8-5.5 10.8-12.4-4.8-12.4-10.7-12.4m0 2.1q5.4.2 5.5 10.3-.1 10-5.6 10.2-5.5-.1-5.5-10.2t5.6-10.3m16 31.1q6.7-4.4 6.6-9.6c0-3-1.6-5-4.1-5-1.8 0-3.2 1.3-3.2 3q.1 2.9 3.4 3h.9q.4 0 .4.4 0 3.1-5 6.8zM1796.7 2254.7h1c2.8 0 3.7.3 4.1.8s.3.5.3 3v16.2c0 4.3-.1 6.3-.6 7.9q-1.5 4.3-6 4.3c-2 0-4-.9-5-2.2q-1-1.2-1-2.3 0-.8.6-.8h.2l1.8.2c1.8 0 3.2-1.5 3.2-3.6 0-2-1.6-3.5-3.8-3.5-2.9 0-5 2.5-5 6 0 2.5 1.1 4.9 3 6.4q2.4 2.1 7 2.1 6.7 0 9.3-4.2c1.3-2 1.9-5 1.9-10v-16.5c0-2.5 0-2.6.3-3 .4-.6 1.3-.7 4.2-.8h1v-2.3h-16.5zm38 34.1 9-.3v-2.2h-1.2c-2.9 0-3.1-.4-3.1-3.6v-17.5l-9.4.5v2.2h2.5c2 0 2.2.3 2.2 2.5v6.1c0 4.4-1 9.7-6.6 9.7q-2.3 0-3.5-1.5c-.6-1-.7-1.5-.7-4.2v-15.3l-8.8.5v2.2h2c1.8 0 2 .3 2 2.5v10.8c0 2.5.3 3.7 1 4.8q2.2 3.1 6.8 3.2c3.3 0 5.6-1.3 7.8-4.5zm29.4-24.2h-1.7l-1.5 1.8a9 9 0 0 0-6-2c-4.5 0-7.4 2.9-7.4 7.3 0 4.7 3 5.9 7 6.8l2.7.7c4 .9 5.4 1.9 5.4 3.9 0 2.3-2 4-5 4q-6.5-.1-8.4-7.7h-2v9.4h1.7l1.8-2q3 2.4 6.8 2.4c5 0 8.2-3 8.2-7.7q0-3.2-2.1-5c-1.2-1-2.2-1.5-5.3-2.1l-2.5-.6c-2.7-.6-2.7-.6-3.6-1a3 3 0 0 1-1.8-2.7c0-2 2-3.4 4.7-3.4 4 0 6 2.8 7.3 6.3h1.7zm12.8.5v-10h-2q-.9 9.8-6.8 10.2v2h4v12.7c0 3.5.2 4.7.7 5.9q1.3 3.1 5.7 3.2c4.5 0 7.4-3.4 7.4-8.7v-1.1h-2.2q-.2 6.8-3.9 6.8-1.8 0-2.5-1.5-.4-1.1-.4-3.7v-13.7h7.3v-2.1zM2378.3 2265.2v-10h-2q-.8 9.8-6.8 10.2v2h4v12.7c0 3.5.2 4.7.7 5.9q1.3 3.1 5.7 3.2c4.5 0 7.4-3.4 7.4-8.7v-1.1h-2.2q-.2 6.8-3.8 6.8-1.9 0-2.6-1.5-.4-1.1-.4-3.7v-13.7h7.3v-2.1zm19.7-13.6-9.3.6v2.1h2.4c2 0 2.2.4 2.2 2.5v28q0 .9-.3 1.2-.4.7-3.5.7h-.2v1.8h12.7v-1.8h-.2c-3.4-.1-3.8-.4-3.8-2.2v-7.3q0-3.9.9-6c1-2.2 3.3-3.7 5.4-3.7 1.3 0 2.8.7 3.5 1.7q1.2 1.5 1.2 5v10.5q0 1-.3 1.3-.5.7-3.5.7h-.2v1.8h12.6v-1.8h-.2c-3.3-.1-3.7-.4-3.7-2.2v-10c0-3.6-.2-4.5-1-6.2a7 7 0 0 0-6.8-3.9c-3.3 0-5.7 1.5-8 4.8zm28.6 1.1a2.9 2.9 0 1 0 0 5.8 2.9 2.9 0 0 0 0-5.8m2.3 12.5-9.4.5v2.2h2.6c1.9 0 2.1.3 2.1 2.5v14.3q0 1-.3 1.3-.4.7-3.4.7h-.4v1.8h13v-1.8h-.4c-3.3-.1-3.8-.4-3.8-2.2zm15.5 0-8.7.5v2.2h1.8c2 0 2.2.3 2.2 2.5v14.3q0 1-.3 1.3c-.4.4-1.3.7-3.5.7h-.2v1.8h12.7v-1.8h-.2c-3.4-.1-3.8-.4-3.8-2.2v-7.3q0-3.9.9-6c1-2.2 3.3-3.7 5.4-3.7 1.3 0 2.8.7 3.6 1.7q1 1.5 1 5v10.5q0 1-.2 1.3-.5.7-3.5.7h-.2v1.8h12.6v-1.8h-.2c-3.3-.1-3.7-.4-3.7-2.2v-10c0-3.6-.2-4.5-1-6.2a7 7 0 0 0-6.8-3.9c-3.3 0-5.7 1.5-8 4.8zm30.3 19.6c-2.8 0-3-.1-3.6-.5q-.5-.3-.6-1.3-.2-2.2 4.8-2.2c4.7-.1 5.4-.2 7.1-1q4.6-2.1 4.7-7.2c0-2-.5-3.3-1.8-4.9q1.2-1.3 1.7-1.2.3 0 .4.7.4 1.8 2.3 1.8 2.1-.2 2.3-2.3c0-1.7-1.4-3-3.4-3-1.6 0-2.5.5-4.7 2.6a10 10 0 0 0-6.2-1.9c-6 0-9.9 3.3-9.9 8.3q.1 4.7 4.2 6.8-4.9 1-4.7 5 0 3.1 3.3 4.2-4.5 1.8-4.6 4.8.1 2.4 2.6 3.7c2 1 4.3 1.5 8 1.5q12.4 0 12.4-8c0-2.5-1.1-4.5-2.9-5.2a18 18 0 0 0-6.3-.7zm3-18.2q4.7 0 4.8 6-.1 6.2-5 6.3c-3.1 0-5-2.4-5-6.1q.1-6.1 5.2-6.2m-.5 22.5 5.2.1q3.2.4 3.3 2.9c0 2.8-3.3 4.5-8.8 4.5q-6.6-.1-6.7-3.5 0-2.4 3.3-4zm34-24.4h-1.8l-1.4 1.8a9 9 0 0 0-6.2-2c-4.3 0-7.2 2.8-7.2 7.2 0 4.7 3 5.9 7 6.8l2.6.7c4 .9 5.4 1.9 5.4 3.9 0 2.3-2 4-5 4q-6.4-.1-8.4-7.7h-2v9.4h1.8l1.7-2q3 2.4 6.8 2.4c5 0 8.2-3 8.2-7.7q0-3.2-2.1-5c-1.2-1-2.2-1.5-5.2-2.1l-2.5-.6c-2.8-.6-2.8-.6-3.7-1a3 3 0 0 1-1.7-2.7c0-2 1.8-3.4 4.6-3.4 4.1 0 6.1 2.8 7.3 6.3h1.8zm10.3 18.3a3.1 3.1 0 1 0 0 6.2 3.1 3.1 0 0 0 0-6.2M1510.3 1402.2l-9.3.5v2.2h2.4c2 0 2.2.3 2.2 2.5v27.9q0 1-.3 1.2c-.4.5-1.3.7-3.5.7h-.2v1.8h12.7v-1.8h-.2c-3.4 0-3.8-.3-3.8-2.1v-7.4q0-4 .9-5.9c1-2.2 3.3-3.8 5.4-3.8 1.3 0 2.8.8 3.5 1.8q1.2 1.5 1.2 5v10.5q0 1-.3 1.2-.5.7-3.5.7h-.2v1.8h12.6v-1.8h-.2c-3.3 0-3.7-.3-3.7-2.1v-10c0-3.7-.2-4.6-1-6.3a7 7 0 0 0-6.8-3.8c-3.3 0-5.7 1.4-8 4.8zm43.9 25.6c0-7.5-4.2-12.8-10.3-12.8-6.4 0-11.2 5.5-11.2 13 0 7 4.5 11.8 11.3 11.8q7.1 0 10.2-7.1l-1.8-1c-2 3.9-4.1 5.4-7.5 5.4a6 6 0 0 1-5.7-3.3q-1.3-2.1-1.2-6zm-16.2-2.2c0-3.5 1.6-8.5 5.8-8.5 3 0 5 2.7 5 6.7q.2 2-2 1.8zm27.8-9.9-8.8.6v2.1h2c2 0 2.2.4 2.2 2.5v14.3q0 1-.3 1.3-.5.7-3.5.7h-.2v1.8h13.3v-1.8h-.9c-3.3 0-3.8-.3-3.8-2.1v-2.7c0-8.4 3-14.8 7-15q-1 1-1 2.2c0 1.6 1.2 2.8 2.8 2.8q3-.2 3-3.4-.1-3.8-4.3-4-4.8.1-7.5 7zm35.3 12c0-7.4-4.2-12.7-10.3-12.7-6.5 0-11.2 5.5-11.2 13 0 7 4.5 11.8 11.3 11.8q7.1 0 10.2-7.1l-1.8-1c-2 3.9-4.2 5.4-7.5 5.4q-3.7 0-5.7-3.3-1.4-2.1-1.2-6zm-16.2-2.2c0-3.5 1.6-8.5 5.8-8.5 3 0 5 2.7 5 6.7q.2 2-2 1.8zM1959.6 560.9l-5.5-12.9-.3-1q-.1-1.4 2.3-1.3h1V544h-11.8v1.8h.5c1.7 0 2.3.6 3.4 2.7l8.1 18.5-.8 1.7c-1.8 3.8-4.2 6.5-5.7 6.5q-.8 0-.9-.5l.1-.5q.3-.6.3-1.3-.1-2-2.5-2.2c-1.8 0-3 1.3-3 3 0 2.3 1.8 4 4.5 4q3.9 0 6.9-4c1.5-2.1 2.5-4.2 4.7-9.7l5.7-14.1c1.2-2.9 2.3-4 4.3-4h.2v-1.9h-10v1.8h.8q2.8 0 2.7 1.9a5 5 0 0 1-.5 2zm23-17.7c-6.2 0-11 5.4-11 12.4s4.9 12.4 10.9 12.4 10.8-5.5 10.8-12.4-4.8-12.4-10.7-12.4m0 2.1q5.3.2 5.4 10.3-.1 10-5.5 10.2-5.5-.1-5.6-10.2t5.7-10.3m33 22.3 9-.4v-2.1h-1.2c-2.9-.1-3.1-.4-3.1-3.7V544l-9.4.6v2.1h2.5c2 0 2.2.4 2.2 2.5v6.2c0 4.3-1 9.6-6.6 9.6q-2.4 0-3.5-1.5c-.6-1-.7-1.5-.7-4.2v-15.3l-8.8.6v2.1h2c1.8 0 2 .4 2 2.5V560c0 2.6.3 3.7 1 4.9q2.2 3.1 6.8 3.2c3.3 0 5.6-1.4 7.8-4.6zM1240.7 1402.2l-8.6.5v2.2h1.7c2 0 2.2.3 2.2 2.5v19.4c0 7-.3 10.8-1 13h2l2.4-4q3 4 7.5 4c6.2 0 10.8-5.3 10.8-12.6s-4.2-12.2-10.2-12.2c-3 0-5 1-6.8 3.9zm5.9 15.3c3.7 0 5.8 3.7 5.8 10.2s-2 10-5.7 10c-4 0-6.3-3.7-6.3-9.9q.1-10.2 6.2-10.3m36.1 10.3c0-7.5-4.2-12.8-10.3-12.8-6.4 0-11.2 5.5-11.2 13 0 7 4.6 11.8 11.3 11.8q7.2 0 10.2-7.1l-1.7-1c-2 3.9-4.2 5.4-7.5 5.4a6 6 0 0 1-5.7-3.3q-1.4-2.1-1.3-6zm-16.1-2.2c0-3.5 1.6-8.5 5.8-8.5 3 0 5 2.7 5 6.7q.1 2-2 1.8zM2145.7 530.4l-9.3.5v2.2h2.5c1.8 0 2 .3 2 2.5v27.8q0 1-.2 1.3-.4.7-3.5.7h-.3v1.8h12.9v-1.8h-.4c-3.3 0-3.7-.3-3.7-2.1zm18 12.9c-6 0-10.8 5.4-10.8 12.4s4.8 12.4 10.8 12.4 10.8-5.5 10.8-12.4-4.8-12.4-10.7-12.4m0 2.1q5.3.2 5.4 10.3-.1 10-5.5 10.2-5.5-.1-5.6-10.2t5.7-10.3m26 15.9-5.7-13.2-.2-1.1c0-.9.6-1.2 2.7-1.2h.7V544h-11.8v1.8h.4c1.9 0 2.6.5 3.3 2.2l8.6 20h1.7l7.1-17.5c1.4-3.4 2.6-4.5 4.7-4.7h.2V544h-10v1.8h.7q2.6 0 2.7 1.8 0 1-.5 2zm34.2-5.2c0-7.5-4.2-12.8-10.3-12.8-6.4 0-11.2 5.5-11.2 13 0 7 4.5 11.8 11.3 11.8q7.1 0 10.2-7.1l-1.8-1c-2 3.9-4.1 5.4-7.5 5.4q-3.7 0-5.7-3.3-1.4-2.1-1.2-6zm-16.2-2.2c0-3.5 1.6-8.5 5.8-8.5 3 0 5 2.7 5 6.7 0 1.4-.4 1.8-2 1.8zm36.9 13.8 8.7-.4v-2.1h-.9c-2.8-.2-3.1-.5-3.1-3.7v-31l-9.8.5v2.2h3c1.8 0 2.1.3 2.1 2.5v11.3a8 8 0 0 0-7-3.7c-5.5 0-9.8 5.4-9.8 12.6s4.1 12.2 9.9 12.2q4.6 0 6.9-4.4zm-6-21.7q3.4.2 5 3.8 1 2.3 1 6c0 5.8-2.3 9.6-6 9.6-3.5 0-5.6-3.3-5.6-8.9q0-4.4 1-6.9c.8-2.2 2.7-3.6 4.7-3.6M2435.8 544l-8.9.5v2.1h2c2 0 2.2.4 2.2 2.5v14.3q0 1-.3 1.3-.4.7-3.4.7h-.2v1.8h12.6v-1.8h-.2c-3.3 0-3.8-.3-3.8-2.2V554c0-4.5 2.5-7.8 5.7-7.8q4.3 0 4.3 6.1v11.2q0 .9-.3 1.2-.3.7-3.5.7h-.2v1.8h12.7v-1.8h-.2c-3.3 0-3.8-.3-3.8-2.1v-8.9c0-5 2.3-8.2 5.8-8.2q4.2 0 4.2 6.7v10.5q0 1-.3 1.3-.3.7-3.5.7h-.2v1.8h12.7v-1.8h-.2c-3.3 0-3.8-.3-3.8-2.2V552c0-3.1-.3-4.2-1.6-5.9a7 7 0 0 0-5.9-2.8q-4.6-.1-7.8 5a7 7 0 0 0-6.9-5q-4.3-.1-7.2 4.6zm57.7 12c0-7.4-4.2-12.7-10.3-12.7-6.4 0-11.2 5.5-11.2 13 0 7 4.5 11.8 11.3 11.8q7.1 0 10.2-7.1l-1.8-1c-2 3.9-4.1 5.4-7.5 5.4q-3.7 0-5.7-3.3-1.4-2.1-1.2-6zm-16.2-2.2c0-3.5 1.6-8.5 5.8-8.5 3 0 5 2.7 5 6.7 0 1.4-.4 1.8-2 1.8zM757.5 2288.5h16.8a21 21 0 0 0 10.5-2.2c5-2.9 7.8-8.6 7.8-16 0-7-2.5-12.4-7-15.4a22 22 0 0 0-12.2-2.5h-16v2.3h1c2.8 0 3.8.3 4.2.8.3.4.3.5.3 3v23.8c0 2.6 0 2.7-.3 3.1-.4.5-1.4.7-4.2.8h-1zm14-2.3c-2.6 0-3-.4-3-2.8v-25.9c0-2.4.4-2.8 3-2.8h2.5c8.6 0 12.1 4.7 12.1 15.8s-3.2 15.7-11.3 15.7zm36.3-21.7c-6.1 0-10.9 5.4-10.9 12.4 0 6.8 4.8 12.3 10.8 12.3s10.8-5.5 10.8-12.4c0-6.8-4.8-12.4-10.7-12.4m0 2.2q5.4.1 5.5 10.2-.1 10.2-5.6 10.3-5.5-.1-5.5-10.2 0-10.3 5.6-10.3m22.4-1.4-8.7.5v2.2h1.9c1.8 0 2 .3 2 2.5v14.3q0 1-.2 1.3-.3.7-3.5.7h-.2v1.8H834v-1.8h-.2c-3.4-.1-3.8-.4-3.8-2.2v-7.3q0-3.9.9-6c1-2.2 3.3-3.7 5.4-3.7 1.4 0 2.9.7 3.6 1.7q1.1 1.5 1.1 5v10.5q0 1-.3 1.3-.5.7-3.5.7h-.2v1.8h12.7v-1.8h-.3c-3.2-.1-3.7-.4-3.7-2.2v-10c0-3.6-.2-4.5-1-6.2a7 7 0 0 0-6.8-3.9q-4.7 0-7.9 4.8zm25-1.6h1.2l1.5-9v-.8a2 2 0 0 0-2-2.1 2 2 0 0 0-2.2 2.1v.8zm15.3 1.6v-10h-2q-.7 9.8-6.8 10.2v2h4.1v12.7c0 3.5.1 4.7.6 5.9q1.3 3.1 5.7 3.2c4.5 0 7.4-3.4 7.4-8.7v-1.1h-2.1q-.3 6.8-4 6.8-1.7 0-2.4-1.5-.5-1.1-.5-3.7v-13.7h7.4v-2.1zM2106.5 2282.2l-5.5-13-.3-1q-.1-1.3 2.3-1.2h1v-1.8h-11.8v1.8h.5c1.7 0 2.4.5 3.4 2.7l8.2 18.5-.9 1.7c-1.8 3.8-4.1 6.4-5.7 6.4q-.8 0-.8-.5v-.4l.3-1.3q-.1-2.1-2.5-2.3c-1.8 0-3 1.3-3 3.1 0 2.3 1.9 3.9 4.5 3.9q4 0 6.9-4c1.6-2 2.6-4.2 4.8-9.6l5.7-14.2c1.1-2.8 2.2-4 4.2-4h.3v-1.8h-10v1.8h.8q2.8 0 2.7 1.8a5 5 0 0 1-.5 2zm23-17.7c-6.2 0-10.9 5.5-10.9 12.5 0 6.8 4.8 12.3 10.8 12.3s10.8-5.5 10.8-12.4c0-6.8-4.8-12.4-10.7-12.4m0 2.2q5.3.1 5.4 10.2-.1 10.2-5.5 10.3-5.5-.1-5.6-10.2 0-10.3 5.7-10.3m33 22.2 9-.3v-2.2h-1.2c-2.9 0-3.1-.4-3.1-3.6v-17.5l-9.4.5v2.2h2.5c2 0 2.2.3 2.2 2.5v6.1c0 4.4-1 9.7-6.6 9.7q-2.4 0-3.5-1.5c-.6-1-.7-1.5-.7-4.2v-15.3l-8.8.5v2.2h2c1.8 0 2 .3 2 2.5v10.8c0 2.5.3 3.7 1 4.8q2.2 3.1 6.8 3.2c3.3 0 5.6-1.3 7.8-4.5zm19.8-23.6-8.8.5v2.2h2c2 0 2.2.3 2.2 2.5v14.3q0 1-.3 1.3-.5.7-3.5.7h-.2v1.8h13.3v-1.8h-.9c-3.3-.1-3.8-.4-3.8-2.2v-2.7c0-8.4 3-14.8 7-15-.7.8-1 1.3-1 2.3q.2 2.5 2.8 2.7 3-.2 3-3.3-.1-3.9-4.3-4-4.8 0-7.5 6.9zM1084.2 544v-10h-2q-.8 9.7-6.8 10.1v2h4v12.7c0 3.5.2 4.8.7 6q1.3 3.1 5.7 3.2c4.5 0 7.4-3.4 7.4-8.7V558h-2.2q-.2 6.8-3.9 6.8-1.8-.1-2.5-1.4-.4-1-.4-3.8v-13.6h7.3v-2.2zm22.6-.7c-6.1 0-10.9 5.4-10.9 12.4s4.8 12.4 10.8 12.4 10.8-5.5 10.8-12.4-4.8-12.4-10.7-12.4m0 2.1q5.4.2 5.5 10.3-.1 10-5.6 10.2-5.5-.1-5.5-10.2t5.6-10.3M926 2251.6l-9.3.6v2.1h2.5c1.8 0 2 .4 2 2.5v27.9q0 1-.2 1.3c-.4.4-1.3.7-3.5.7h-.3v1.8h13v-1.8h-.4c-3.4-.1-3.8-.4-3.8-2.2zm13.5 1.1a2.9 2.9 0 1 0 0 5.8 2.9 2.9 0 0 0 0-5.8m2.3 12.5-9.4.5v2.2h2.6c1.8 0 2 .3 2 2.5v14.3q0 1-.2 1.3-.3.7-3.5.7h-.3v1.8h13v-1.8h-.4c-3.4-.1-3.8-.4-3.8-2.2zm28.7 12c0-7.5-4.2-12.7-10.3-12.7-6.4 0-11.2 5.5-11.2 13 0 7 4.5 11.7 11.3 11.7q7.1 0 10.2-7l-1.8-1c-2 3.8-4.1 5.3-7.5 5.3q-3.7 0-5.7-3.3c-.9-1.5-1.3-3.2-1.2-6zm-16.2-2.1c0-3.5 1.6-8.5 5.8-8.5 3 0 5 2.6 5 6.7 0 1.4-.4 1.8-2 1.8zM1238.3 544l-8.9.5v2.1h2c2 0 2.2.4 2.2 2.5v14.3q0 1-.3 1.3c-.4.5-1.3.7-3.5.7h-.1v1.8h12.5v-1.8h-.2c-3.3 0-3.7-.3-3.7-2.2V554c0-4.5 2.4-7.8 5.7-7.8q4.3 0 4.3 6.1v11.2q0 .9-.4 1.2-.2.7-3.4.7h-.2v1.8h12.6v-1.8h-.2c-3.3 0-3.7-.3-3.7-2.1v-8.9c0-5 2.2-8.2 5.7-8.2q4.3 0 4.3 6.7v10.5q0 1-.3 1.3-.5.7-3.5.7h-.2v1.8h12.7v-1.8h-.3c-3.2 0-3.7-.3-3.7-2.2V552c0-3.1-.3-4.2-1.6-5.9a7 7 0 0 0-6-2.8q-4.7-.1-7.7 5a7 7 0 0 0-7-5q-4.4-.1-7.1 4.6zm57.6 12c0-7.4-4.2-12.7-10.3-12.7-6.4 0-11.2 5.5-11.2 13 0 7 4.6 11.8 11.3 11.8q7.2 0 10.2-7.1l-1.7-1c-2 3.9-4.2 5.4-7.5 5.4a6 6 0 0 1-5.7-3.3q-1.4-2.1-1.3-6zm-16.1-2.2c0-3.5 1.6-8.5 5.8-8.5 3 0 5 2.7 5 6.7q.1 2-2 1.8zm24.3 7.9a3.1 3.1 0 1 0 0 6.3 3.1 3.1 0 0 0 0-6.3M1056.7 2265.2v-10h-2q-.7 9.8-6.8 10.2v2h4.1v12.7c0 3.5.1 4.7.6 5.9q1.3 3.1 5.7 3.2c4.5 0 7.4-3.4 7.4-8.7v-1.1h-2.2q-.1 6.8-3.8 6.8-2 0-2.5-1.5-.5-1.1-.5-3.7v-13.7h7.3v-2.1zm22.6-.7c-6.1 0-10.9 5.4-10.9 12.4 0 6.8 4.8 12.3 10.8 12.3s10.8-5.5 10.8-12.4c0-6.8-4.8-12.4-10.7-12.4m0 2.2q5.4.1 5.5 10.2-.1 10.2-5.6 10.3-5.4-.1-5.5-10.2 0-10.3 5.6-10.3M1956.7 2284.8c-2.8 0-3-.1-3.5-.5q-.6-.3-.6-1.3c0-1.5 1.3-2.1 4.7-2.2 4.7-.1 5.4-.2 7.1-1q4.6-2.1 4.7-7.2c0-2-.5-3.3-1.8-4.9q1.1-1.3 1.7-1.2.3 0 .5.7.3 1.8 2.2 1.8 2.1-.2 2.3-2.3c0-1.7-1.4-3-3.3-3-1.6 0-2.5.5-4.8 2.6a10 10 0 0 0-6.2-1.9c-6 0-9.9 3.3-9.9 8.3q.1 4.7 4.2 6.8-4.8 1-4.7 5 0 3.1 3.3 4.2-4.6 1.8-4.6 4.8.1 2.4 2.6 3.7c2 1 4.4 1.5 8 1.5q12.5 0 12.5-8c0-2.5-1.2-4.5-3-5.2a18 18 0 0 0-6.3-.7zm3-18.2q4.6 0 4.8 6c0 4-2 6.3-5 6.3-3.2 0-5.1-2.4-5.1-6.1q.1-6.1 5.2-6.2m-.4 22.5 5.1.1q3.1.4 3.3 2.9c0 2.8-3.3 4.5-8.8 4.5q-6.5-.1-6.6-3.5-.1-2.4 3.3-4zm37.2-11.9c0-7.5-4.2-12.7-10.3-12.7-6.4 0-11.2 5.5-11.2 13 0 7 4.6 11.7 11.3 11.7q7.2 0 10.2-7l-1.7-1c-2 3.8-4.2 5.3-7.5 5.3a6 6 0 0 1-5.7-3.3c-1-1.5-1.3-3.2-1.3-6zm-16.1-2.1c0-3.5 1.6-8.5 5.8-8.5 3 0 5 2.6 5 6.7q.1 2-2 1.8zm26.6-9.9v-10h-2q-.9 9.8-6.8 10.2v2h4v12.7c0 3.5.2 4.7.7 5.9q1.3 3.1 5.7 3.2c4.5 0 7.4-3.4 7.4-8.7v-1.1h-2.2q-.2 6.8-3.9 6.8-1.8 0-2.5-1.5-.4-1.1-.4-3.7v-13.7h7.3v-2.1zM954 559.9c-1.6 3.6-3.3 5-6 5-4 0-6.4-3.6-6.4-9.5s2.4-10 6.1-10c1.5 0 2.8.6 2.8 1.4q0 .2-.3.6-1.1 1.3-1 2.3c0 1.7 1.3 2.8 3 2.8 1.8 0 3-1.4 3-3.4 0-3.4-3.3-6-7.7-6-6.5 0-11.2 5.4-11.2 12.9 0 7 4.3 12 10.5 12 4.4 0 7-2 9.1-7.4zm12.8-16-8.8.6v2.1h2c2 0 2.2.4 2.2 2.5v14.3q0 1-.3 1.3-.5.7-3.5.7h-.2v1.8h13.3v-1.8h-.9c-3.3 0-3.8-.3-3.8-2.1v-2.7c0-8.4 3-14.8 7-15q-1 1-1 2.2.2 2.6 2.8 2.8c1.9 0 3-1.4 3-3.4q-.1-3.8-4.3-4-4.8.1-7.5 7zm28.3 17-5.5-12.9-.3-1q-.1-1.4 2.3-1.3h1V544h-11.9v1.8h.6c1.7 0 2.3.6 3.4 2.7l8.1 18.5-.8 1.7c-1.8 3.8-4.2 6.5-5.8 6.5q-.7 0-.8-.5l.1-.5q.3-.6.3-1.3-.1-2-2.6-2.2c-1.7 0-3 1.3-3 3 0 2.3 2 4 4.6 4q3.9 0 6.9-4c1.5-2.1 2.5-4.2 4.7-9.7l5.7-14.1c1.2-2.9 2.3-4 4.2-4h.3v-1.9h-10v1.8h.8q2.9 0 2.7 1.9a5 5 0 0 1-.5 2zM2137.3 1432.6l-5-12.9-.1-1q-.2-1.3 2-1.2h1.3v-1.8h-11.2v1.8h.8q2.3-.1 2.7 1.9l.4 1.3-4.4 11.6-4.9-12.5-.2-1.1q0-1.3 2-1.2h1v-1.8h-11v1.8h.9q1.9-.1 2.6 2.5l7.5 19.8h1.7l6-15.8 6 15.8h1.6l7-18.5c1.1-3 1.9-3.7 3.7-3.8h.4v-1.8h-9.5v1.8h.9q2.5-.1 2.4 1.9 0 .8-.4 1.8zm20.3-29.3a2.9 2.9 0 1 0 0 5.8 2.9 2.9 0 0 0 0-5.8m2.3 12.4-9.3.6v2.1h2.5c1.9 0 2.2.4 2.2 2.5v14.3q-.1 1-.4 1.3-.3.7-3.4.7h-.3v1.8h12.9v-1.8h-.3c-3.4 0-3.9-.3-3.9-2.1zm15.2 0v-9.9h-2q-.9 9.7-6.8 10.1v2h4v12.7c0 3.5.2 4.8.7 6q1.3 3.1 5.7 3.2c4.5 0 7.4-3.4 7.4-8.7v-1.2h-2.2q-.2 6.8-3.9 6.8-1.8-.1-2.5-1.4-.4-1-.4-3.8V1418h7.3v-2.2zm19.7-13.5-9.3.5v2.2h2.4c2 0 2.2.3 2.2 2.5v27.9q0 1-.3 1.2-.4.7-3.5.7h-.2v1.8h12.7v-1.8h-.2c-3.4 0-3.8-.3-3.8-2.1v-7.4q0-4 .9-5.9c1-2.2 3.3-3.8 5.4-3.8 1.3 0 2.8.8 3.5 1.8q1.2 1.5 1.2 5v10.5q0 1-.3 1.2-.5.7-3.5.7h-.2v1.8h12.6v-1.8h-.2c-3.3 0-3.7-.3-3.7-2.1v-10c0-3.7-.2-4.6-1-6.3a7 7 0 0 0-6.8-3.8c-3.3 0-5.7 1.4-8 4.8zM701 3133h1c2.8 0 3.7.2 4.1.7s.3.6.3 3v23.9c0 2.5 0 2.6-.3 3-.4.6-1.3.8-4.2.8h-1v2.3h16.6v-2.3h-1c-2.8 0-3.8-.2-4.2-.7-.3-.5-.3-.6-.3-3.1v-23.8c0-2.6 0-2.7.3-3.1.4-.5 1.3-.7 4.2-.7h1v-2.4h-16.6zm23 8.8h1.1l1.5-9 .1-.7a2 2 0 0 0-2.2-2.2 2 2 0 0 0-2.1 2.2v.8zm20.4 18.8-5.7-13.2-.3-1.1q-.1-1.3 2.7-1.2h.7v-1.8H730v1.8h.4c2 0 2.6.5 3.3 2.2l8.6 20h1.8l7-17.5c1.5-3.4 2.7-4.5 4.7-4.7h.2v-1.8h-10v1.8h.7q2.7 0 2.7 1.8 0 1-.4 2zm34.1-5.2c0-7.5-4.2-12.8-10.3-12.8-6.4 0-11.2 5.5-11.2 13 0 7 4.6 11.8 11.3 11.8q7.2 0 10.2-7.1l-1.7-1c-2 3.9-4.2 5.4-7.5 5.4q-3.8 0-5.7-3.3-1.4-2.1-1.3-6zm-16.1-2.2c0-3.5 1.6-8.5 5.8-8.5 3 0 5 2.7 5 6.7q.1 2-2 1.8zM801 1432.7l-5.5-12.9-.3-1q-.1-1.4 2.3-1.3h1v-1.8h-11.9v1.8h.6c1.7 0 2.3.6 3.4 2.7l8.1 18.5-.8 1.7c-1.8 3.8-4.2 6.5-5.8 6.5q-.7 0-.8-.5l.1-.5q.3-.7.3-1.3-.1-2-2.6-2.2c-1.7 0-3 1.3-3 3 0 2.3 2 4 4.6 4q3.9 0 6.9-4c1.5-2.1 2.5-4.2 4.7-9.7l5.7-14.1c1.2-3 2.3-4 4.2-4h.3v-1.9h-10v1.8h.8q2.8 0 2.7 1.9a5 5 0 0 1-.5 2zm23-17.7c-6.2 0-11 5.4-11 12.4s4.9 12.4 10.9 12.4 10.8-5.5 10.8-12.4-4.8-12.4-10.7-12.4m0 2.1c3.5 0 5.4 3.7 5.4 10.3q-.1 10-5.5 10.2-5.5-.2-5.6-10.2 0-10.2 5.7-10.3m33 22.3 9-.4v-2.1h-1.2c-2.9-.1-3.1-.4-3.1-3.7v-17.5l-9.4.6v2.1h2.5c2 0 2.2.4 2.2 2.5v6.2c0 4.3-1 9.6-6.6 9.6q-2.3 0-3.5-1.5c-.6-1-.7-1.5-.7-4.2v-15.3l-8.8.6v2.1h2c1.8 0 2 .4 2 2.5v10.8c0 2.6.3 3.7 1 4.9q2.2 3.1 6.8 3.2c3.3 0 5.6-1.4 7.8-4.6zM844.4 3143.4l-9 .6v2.1h2.1c2 0 2.2.4 2.2 2.5v14.3q0 1-.3 1.3c-.4.5-1.3.7-3.5.7h-.2v1.8h12.6v-1.8h-.2c-3.3 0-3.7-.3-3.7-2.2v-9.2c0-4.5 2.4-7.8 5.7-7.8q4.3 0 4.3 6.1v11.2q0 .9-.4 1.2-.3.7-3.4.7h-.2v1.8H863v-1.8h-.2c-3.3 0-3.7-.3-3.7-2.1v-8.9c0-5 2.2-8.2 5.7-8.2q4.3 0 4.3 6.7v10.5q0 1-.4 1.3-.3.7-3.4.7h-.2v1.8h12.6v-1.8h-.2c-3.3 0-3.7-.3-3.7-2.2v-11.3c0-3.1-.3-4.2-1.6-5.9a7 7 0 0 0-6-2.8q-4.7-.1-7.7 5a7 7 0 0 0-7-5q-4.4-.1-7.1 4.6zm57 7.2c0-3.1-.6-4.7-2-6q-2.5-2-7.3-2c-5.7 0-9.8 2.7-9.8 6.4q.1 2.9 3 3 2.4-.1 2.6-2.5 0-1-.7-2-.4-.5-.4-.8c0-1 2-1.9 4.4-1.9 1.6 0 3.4.5 4.2 1.3q1.4 1 1.3 4.2v2c-5.2.9-6.9 1.3-9.3 2.2q-6.5 2.4-6.4 7.1c0 3.6 2.8 5.9 7.2 5.9q5.4 0 8.7-4 1 3.7 4.4 3.6c2.3 0 4.6-1.5 4.6-3q0-.5-.5-.5l-.7.2q-1 .4-1.4.3-2 .2-2-3.4zm-4.6 6c0 3-.2 3.7-1 5a7 7 0 0 1-5.7 3.1c-2.3 0-4-1.6-4-3.9q0-3 3.3-4.6a29 29 0 0 1 7.4-1.9zm28.9 10.4 8.7-.4v-2.1h-1c-2.8-.2-3-.5-3-3.7v-31l-9.8.5v2.2h3c1.8 0 2 .3 2 2.5v11.3a8 8 0 0 0-6.8-3.7c-5.7 0-10 5.4-10 12.6s4.2 12.2 10 12.2q4.6 0 6.9-4.4zm-6-21.7q3.3.2 5 3.8 1 2.2 1 6c0 5.8-2.4 9.6-6 9.6-3.5 0-5.6-3.3-5.6-8.9q0-4.4 1-6.9 1.4-3.4 4.7-3.6m38.8 10c0-7.4-4.2-12.7-10.3-12.7-6.4 0-11.2 5.5-11.2 13 0 7 4.5 11.8 11.3 11.8q7.2 0 10.2-7.1l-1.7-1c-2 3.9-4.2 5.4-7.5 5.4q-3.9 0-5.7-3.3-1.4-2.1-1.3-6zm-16.2-2.2c0-3.5 1.7-8.5 5.9-8.5 3 0 5 2.7 5 6.7q.1 2-2.1 1.8zM2532.6 1415.7l-9 .6v2.1h2.1c1.9 0 2.2.4 2.2 2.5v14.3q0 1-.3 1.3-.4.7-3.5.7h-.2v1.8h12.6v-1.8h-.2c-3.3 0-3.7-.3-3.7-2.2v-9.2c0-4.5 2.4-7.8 5.7-7.8q4.3 0 4.3 6.1v11.2q0 .9-.4 1.2-.4.7-3.4.7h-.2v1.8h12.6v-1.8h-.2c-3.3 0-3.7-.3-3.7-2.1v-8.9c0-5 2.2-8.2 5.7-8.2q4.3 0 4.3 6.7v10.5q0 1-.4 1.3-.4.7-3.4.7h-.2v1.8h12.6v-1.8h-.2c-3.3 0-3.7-.3-3.7-2.2v-11.3c0-3.1-.3-4.2-1.6-5.9a7 7 0 0 0-6-2.8q-4.7-.1-7.7 5a7 7 0 0 0-7-5q-4.4-.1-7.1 4.6zm57.6 12c0-7.4-4.2-12.7-10.3-12.7-6.4 0-11.2 5.5-11.2 13 0 7 4.5 11.8 11.3 11.8q7.2 0 10.2-7.1l-1.8-1c-2 3.9-4.1 5.4-7.5 5.4q-3.8 0-5.7-3.3-1.3-2.1-1.2-6zm-16.2-2.2c0-3.5 1.7-8.5 5.8-8.5 3 0 5 2.7 5 6.7 0 1.4-.4 1.8-2 1.8zm24.4 7.9a3.1 3.1 0 1 0 3.1 3.1c0-1.7-1.4-3.1-3.1-3.1M807.8 567.6l8.7-.4v-2.1h-1c-2.8-.2-3-.5-3-3.7v-31l-9.8.5v2.2h3c1.8 0 2 .3 2 2.5v11.3a8 8 0 0 0-6.8-3.7c-5.7 0-10 5.4-10 12.6s4.2 12.2 10 12.2q4.6 0 6.9-4.4zm-6-21.7q3.3.2 5 3.8 1 2.3 1 6c0 5.8-2.4 9.6-6 9.6-3.5 0-5.6-3.3-5.6-8.9q0-4.4 1-6.9 1.4-3.5 4.7-3.6m28.2-2.7c-6.2 0-11 5.4-11 12.4S824 568 830 568s10.8-5.5 10.8-12.4-4.8-12.4-10.7-12.4m0 2.1q5.3.2 5.4 10.3-.1 10-5.5 10.2-5.5-.1-5.6-10.2t5.7-10.3m22.4-1.4-8.7.6v2.1h1.8c1.9 0 2.2.4 2.2 2.5v14.3q0 1-.3 1.3c-.4.5-1.3.7-3.5.7h-.2v1.8h12.7v-1.8h-.2c-3.4 0-3.8-.3-3.8-2.1v-7.4q0-4 .9-5.9c1-2.2 3.3-3.8 5.4-3.8 1.3 0 2.8.7 3.6 1.8q1 1.5 1 5v10.4q0 1-.2 1.3-.5.7-3.5.7h-.2v1.8H872v-1.8h-.2c-3.3 0-3.7-.3-3.7-2.1v-10c0-3.7-.2-4.6-1-6.3a7 7 0 0 0-6.8-3.8q-4.7 0-8 4.8zm25.1-1.7h1.2l1.5-9v-.7a2 2 0 0 0-2.1-2.2 2 2 0 0 0-2.1 2.2v.8zm15.4 1.5V534h-2q-.8 9.7-6.8 10.1v2h4v12.7c0 3.5.2 4.8.7 6q1.3 3.1 5.7 3.2c4.5 0 7.4-3.4 7.4-8.7V558h-2.2q-.1 6.8-3.9 6.8-1.8-.1-2.5-1.4-.4-1-.4-3.8v-13.6h7.3v-2.2zM1058.1 3167l9.2-.3v-2.1h-1.3c-3-.1-3.2-.4-3.2-3.7v-17.5l-9.3.6v2.1h2.5c1.9 0 2.1.4 2.1 2.5v6.2c0 4.3-1 9.6-6.5 9.6q-2.4 0-3.5-1.5c-.6-1-.8-1.5-.8-4.2v-15.3l-8.7.6v2.1h1.9c1.9 0 2.1.4 2.1 2.5v10.8c0 2.6.2 3.7 1 4.9q2.2 3.1 6.7 3.2 4.8.1 7.8-4.6zm20-23.7-8.6.6v2.1h1.8c1.9 0 2.1.4 2.1 2.5v24.5q0 1-.3 1.2-.3.7-3.4.7h-.2v1.8h13v-1.8h-.6c-3.3 0-3.8-.3-3.8-2.1v-9.5c1.7 3 3.5 4 6.7 4 6.6 0 10-6.5 10-12.4 0-5.7-3.4-12.3-9.7-12.3-3.2 0-5.2 1.3-7 4.3zm6 2c3.5 0 5.5 3.4 5.5 9.3q-.1 9.8-5.6 10c-3.6 0-6-3.6-6-9.4 0-6.2 2.3-10 6.1-10" class="Lyrics"/><path d="m1358.7 2882.3-13.3.4v3h.9c3.7.1 3.9.4 3.8 5.9v13.7q0 1.1-.4 1.5c-.4.6-1.5.8-4.1.8h-.2v3h20v-3h-1.3c-4 0-4.5-.3-4.5-2.6v-4.2q.4-13.6 7-15.4-1 1.3-1 2.8c0 2.6 2 4.4 4.5 4.4a5 5 0 0 0 5.2-5.2c0-3.4-2.8-6-6.6-6q-6.9-.1-10 8.2zm28.5-15.9c-3 0-5.4 2.5-5.4 5.3a5.3 5.3 0 1 0 10.6 0c0-2.8-2.4-5.2-5.2-5.2m4.8 15.8-14 .4v3h.8c3.6.1 3.8.4 3.8 5.7v13.9q0 1.1-.3 1.5-.5.8-4.1.8h-.3v3h18.8v-3h-.4c-3.7 0-4.3-.4-4.3-2.6zm29.3 0h-7.8v-11.9h-3.8q-1.4 11.4-9.9 12.4v3h4.3v14.4c0 5 .2 6.4 1.2 8q2 3.4 7.3 3.4t7.7-3.3c1.5-2 2.4-4.8 2.4-7.4v-1.4h-3.2q0 6.9-3.8 7c-1.7 0-2.2-1.1-2.2-5.2V2886h7.8zm12.2 18a5.6 5.6 0 0 0-5.7 5.6c0 3 2.5 5.7 5.6 5.7 3.2 0 5.7-2.5 5.7-5.7 0-3-2.5-5.6-5.6-5.6" class="GradualTempoChangeSegment"/><path fill="none" stroke="#000" stroke-dasharray="22.32,40.007" stroke-miterlimit="2" stroke-width="3.7" d="M1451.7 2908.8h333.9" class="GradualTempoChangeSegment"/><path fill="none" stroke="#000" stroke-linejoin="bevel" stroke-width="2.5" d="M1100.5 3165.5h127.6M1724.2 3165.5h147.2M2499.7 566h209M2199.5 2287.3h91.2M2259.4 566h33.1M2219.9 1437.8h51.6M1607.2 1437.8h405.6" class="LyricsLineSegment"/><path d="M1264.5 2176.9a5 5 0 0 0 5 5 5 5 0 0 0 5-5 5 5 0 0 0-5-5 5 5 0 0 0-5 5M1291.5 448.2a5 5 0 0 0 5 5 5 5 0 0 0 4.9-5 5 5 0 0 0-5-5 5 5 0 0 0-5 5M1743.1 760.7a5 5 0 0 0 5 5 5 5 0 0 0 5-5 5 5 0 0 0-5-5 5 5 0 0 0-5 5M1743.1 711a5 5 0 0 0 5 5 5 5 0 0 0 5-5 5 5 0 0 0-5-4.9 5 5 0 0 0-5 5M604.8 1595.3a5 5 0 0 0 5 5 5 5 0 0 0 5-5 5 5 0 0 0-5-5 5 5 0 0 0-5 5M604.8 686.3a5 5 0 0 0 5 5 5 5 0 0 0 5-5 5 5 0 0 0-5-5 5 5 0 0 0-5 5M604.8 1545.7a5 5 0 0 0 5 5 5 5 0 0 0 5-5 5 5 0 0 0-5-5 5 5 0 0 0-5 5M1743.1 686.3a5 5 0 0 0 5 5 5 5 0 0 0 5-5 5 5 0 0 0-5-5 5 5 0 0 0-5 5M604.8 735.9a5 5 0 0 0 5 5 5 5 0 0 0 5-5 5 5 0 0 0-5-5 5 5 0 0 0-5 5M1775 1595.3a5 5 0 0 0 5 5 5 5 0 0 0 4.9-5 5 5 0 0 0-5-5 5 5 0 0 0-5 5M1775 1545.7a5 5 0 0 0 5 5 5 5 0 0 0 4.9-5 5 5 0 0 0-5-5 5 5 0 0 0-5 5M604.8 2373.9a5 5 0 0 0 5 5 5 5 0 0 0 5-5 5 5 0 0 0-5-5 5 5 0 0 0-5 5M1739.5 2448.3a5 5 0 0 0 5 5 5 5 0 0 0 5-5 5 5 0 0 0-5-5 5 5 0 0 0-5 5M604.8 2423.5a5 5 0 0 0 5 5 5 5 0 0 0 5-5 5 5 0 0 0-5-5 5 5 0 0 0-5 5M1739.5 2398.7a5 5 0 0 0 5 5 5 5 0 0 0 5-5 5 5 0 0 0-5-5 5 5 0 0 0-5 5M1775 1835.9a5 5 0 0 0 5 5 5 5 0 0 0 4.9-5 5 5 0 0 0-5-5 5 5 0 0 0-5 5M604.8 2664a5 5 0 0 0 5 5 5 5 0 0 0 5-5 5 5 0 0 0-5-4.9 5 5 0 0 0-5 5M1739.5 2688.9a5 5 0 0 0 5 5 5 5 0 0 0 5-5 5 5 0 0 0-5-5 5 5 0 0 0-5 5M604.8 976.5a5 5 0 0 0 5 5 5 5 0 0 0 5-5 5 5 0 0 0-5-5 5 5 0 0 0-5 5M604.8 1835.9a5 5 0 0 0 5 5 5 5 0 0 0 5-5 5 5 0 0 0-5-5 5 5 0 0 0-5 5M1743.1 1001.3a5 5 0 0 0 5 5 5 5 0 0 0 5-5 5 5 0 0 0-5-5 5 5 0 0 0-5 5" class="NoteDot"/><path d="M2808.8 212.7h-2c-3.4 2.6-7.3 3.6-13.9 3.8v3h2.4c4.9 0 5 .1 4.9 4.7v19.5c0 3.4 0 3.6-.4 4.1-.5.6-1.6.8-4.6.8h-1.7v3h21.9v-3h-1.8c-2.9 0-4-.2-4.4-.8-.4-.5-.4-.8-.4-4.1zm31.6 0h-2c-3.4 2.6-7.3 3.6-13.9 3.8v3h2.3c5 0 5 .1 5 4.7v19.5c0 3.4 0 3.6-.5 4.1-.5.6-1.6.8-4.5.8h-1.8v3h22v-3h-1.8c-3 0-4-.2-4.5-.8-.3-.5-.3-.8-.3-4.1z" class="Page"/><path d="M338.7 3395c6.4-6.8 19-20.7 19-46.4 0-32.6-14-65.5-14-85.8a87 87 0 0 1 13.3-43v-.7q.1-.6-.4-1-.7-.2-1.4.6c-.4.4-19.8 19.7-19.8 49 0 31.5 12.6 53.7 12.6 94.8 0 7.9-3.3 20.4-12.3 31.5-.3 0-.3.7-.3 1q-.3.6.3 1.1a53 53 0 0 1 12.3 31.5c0 41-12.6 63.2-12.6 94.7 0 29 19.4 48.7 19.8 49q.6 1.1 1.4.7t.4-1v-.8a88 88 0 0 1-13.3-42.9c0-20.4 14-53.3 14-85.8 0-26-12.6-39.7-19-46.5M338.7 1666c6.4-6 19-18.3 19-41 0-28.7-14-57.7-14-75.6a71 71 0 0 1 13.3-37.8v-.6q.1-.6-.4-1-.7-.1-1.4.6c-.4.4-19.8 17.4-19.8 43.2 0 27.7 12.6 47.2 12.6 83.5 0 7-3.3 18-12.3 27.7q-.4.2-.3 1-.3.4.3.9c9 9.7 12.3 20.8 12.3 27.7 0 36.2-12.6 55.8-12.6 83.5a63 63 0 0 0 19.8 43.1q.6 1.1 1.4.7t.4-1v-.6a72 72 0 0 1-13.3-37.8c0-18 14-47 14-75.6 0-23-12.6-35-19-41M338.7 806.6c6.4-6 19-18.3 19-41 0-28.7-14-57.7-14-75.6a71 71 0 0 1 13.3-37.8v-.6q.1-.5-.4-1-.7-.1-1.4.6c-.4.4-19.8 17.4-19.8 43.2 0 27.7 12.6 47.3 12.6 83.5 0 7-3.3 18-12.3 27.7-.3 0-.3.6-.3 1q-.3.4.3 1c9 9.6 12.3 20.7 12.3 27.6 0 36.2-12.6 55.8-12.6 83.5a63 63 0 0 0 19.8 43.1q.6 1.1 1.4.7t.4-1v-.6a72 72 0 0 1-13.3-37.8c0-18 14-47 14-75.6 0-23-12.6-35-19-41M338.7 2519c6.4-6 19-18.3 19-41 0-28.7-14-57.6-14-75.6a71 71 0 0 1 13.3-37.8v-.6q.1-.4-.4-1-.7-.2-1.4.7c-.4.3-19.8 17.3-19.8 43.1 0 27.7 12.6 47.3 12.6 83.5 0 7-3.3 18-12.3 27.7-.3 0-.3.6-.3 1q-.3.4.3 1c9 9.7 12.3 20.7 12.3 27.6 0 36.2-12.6 55.8-12.6 83.5a63 63 0 0 0 19.8 43.2q.6 1 1.4.6t.4-1v-.6a72 72 0 0 1-13.3-37.8c0-18 14-47 14-75.6 0-23-12.6-35-19-41" class="Bracket"/></svg>