<svg xmlns="http://www.w3.org/2000/svg" width="816" height="1056" baseProfile="full" viewBox="0 0 3060 3960"><title>general_29054120_690a831e247a0 (4)</title><desc>Generated by MuseScore Studio 4.6.3</desc><path fill="#fff" fill-rule="evenodd" d="M0 0h3060v3960H0z"/><path fill="none" stroke="#000" stroke-linejoin="bevel" stroke-width="2.7" d="M366.4 386.2h2481M366.4 411h2481M366.4 435.8h2481M366.4 460.6h2481M366.4 485.4h2481M366.4 651.2h2481M366.4 676h2481M366.4 700.8h2481M366.4 725.6h2481M366.4 750.4h2481M366.4 871.2h2481M366.4 896h2481M366.4 920.8h2481M366.4 945.6h2481M366.4 970.4h2481M366.4 1272.6h2481M366.4 1297.4h2481M366.4 1322.2h2481M366.4 1347h2481M366.4 1371.8h2481M366.4 1507.1h2481M366.4 1531.9h2481M366.4 1556.7h2481M366.4 1581.5h2481M366.4 1606.3h2481M366.4 1762.6h2481M366.4 1787.4h2481M366.4 1812.2h2481M366.4 1837h2481M366.4 1861.8h2481M366.4 2164h2481M366.4 2188.8h2481M366.4 2213.6h2481M366.4 2238.4h2481M366.4 2263.2h2481M366.4 2400.9h2481M366.4 2425.7h2481M366.4 2450.5h2481M366.4 2475.3h2481M366.4 2500.1h2481M366.4 2621h2481M366.4 2645.8h2481M366.4 2670.6h2481M366.4 2695.4h2481M366.4 2720.2h2481M366.4 3022.4h2481M366.4 3047.2h2481M366.4 3072h2481M366.4 3096.8h2481M366.4 3121.6h2481M366.4 3254.5h2481M366.4 3279.3h2481M366.4 3304.1h2481M366.4 3328.9h2481M366.4 3353.7h2481M366.4 3474.6h2481M366.4 3499.4h2481M366.4 3524.2h2481M366.4 3549h2481M366.4 3573.8h2481" class="StaffLines"/><path d="M381 1208.5c2-.6 2.7-1 3.6-1.6 2-1.2 3-3.4 3-5.7 0-3.7-3-6.3-7.4-6.3s-8 2.7-8 6q.1 2.6 2.4 2.8 2.2-.2 2.3-2.3 0-1-.8-1.8-.6-.6-.6-1c0-1 2-2 3.9-2 2.7 0 4.3 1.6 4.3 4 0 3.6-2.5 7-5.2 7l-1-.1-1.3-.1q-1.4 0-1.4 1.1 0 1 1.2 1h.8l1.5-.2c1.9 0 3.1 1.7 3.1 4.2 0 4.3-2 8.5-7 8.5-2.2 0-4-1.2-4-2.4q-.2-.6.7-1 1.7-.6 1.7-2.2c0-1.4-1.2-2.5-2.6-2.5q-2.7.1-2.8 3.4c0 3.9 3 6.3 7.7 6.3 6 0 10.7-4 10.7-9.4 0-3-2-4.8-4.8-5.7m27-13.8H407c-2.2 1.7-6.5 3-9.3 3l-.5 1.8h2.7c2.5 0 2.8.1 2.8.8l-.4 1.8-4.3 16c-.6 2-.6 2.1-1 2.5q-.3.5-3.3.6h-1.7l-.2 1.8h14.8l.2-1.8h-2.1c-2.6 0-3.2-.2-3.2-1.1l.4-2zM381 2958.2c2-.6 2.7-1 3.6-1.6 2-1.2 3-3.4 3-5.7 0-3.7-3-6.3-7.4-6.3s-8 2.7-8 6c0 1.6 1 2.8 2.4 2.8q2.2-.2 2.3-2.3 0-1-.8-1.8-.6-.6-.6-1c0-1 2-2 3.9-2q4.2.2 4.3 4c0 3.6-2.5 7-5.2 7l-1-.1h-1.3q-1.4 0-1.4 1t1.2 1h.8l1.5-.2c1.9 0 3.1 1.7 3.1 4.2 0 4.3-2 8.5-7 8.5-2.2 0-4-1.2-4-2.4q-.2-.6.7-1 1.7-.7 1.7-2.2c0-1.4-1.2-2.5-2.6-2.5q-2.7.1-2.8 3.4c0 3.9 3 6.3 7.7 6.3 6 0 10.7-4 10.7-9.4 0-3-2-4.8-4.8-5.7m29.2-13.8H408l-18.6 19.3v1.7h11.2l-.6 2.4c-.8 3-.8 3-4.3 3h-.7l-.2 2h12.4l.2-2h-.7c-2.7 0-3.2-.1-3.2-1 0-.3 0-.7.4-2l.7-2.4h4.5l.6-2.2h-4.6zm-8.9 18.8h-9l12.4-12.7zM381 2099.9c2-.6 2.7-1 3.6-1.6 2-1.2 3-3.4 3-5.7 0-3.8-3-6.3-7.4-6.3s-8 2.7-8 6q.1 2.5 2.4 2.7 2.2-.2 2.3-2.2 0-1-.8-1.9-.6-.4-.6-.9c0-1 2-2 3.9-2q4.2.1 4.3 4c0 3.6-2.5 7-5.2 7l-1-.1-1.3-.1q-1.4 0-1.4 1.1 0 1 1.2 1h.8q.8-.2 1.5-.2c1.9 0 3.1 1.7 3.1 4.2 0 4.3-2 8.4-7 8.4-2.2 0-4-1-4-2.4q-.2-.5.7-.8 1.7-.9 1.7-2.3c0-1.5-1.2-2.5-2.6-2.5q-2.7.1-2.8 3.4c0 3.9 3 6.3 7.7 6.3 6 0 10.7-4 10.7-9.4 0-3.1-2-4.8-4.8-5.7m22.3 0c1.9-.6 2.6-1 3.6-1.6 1.9-1.2 3-3.4 3-5.7 0-3.8-3-6.3-7.5-6.3s-8 2.7-8 6q.1 2.5 2.5 2.7 2.1-.2 2.3-2.2 0-1-.9-1.9-.6-.4-.5-.9c0-1 2-2 3.8-2q4.2.1 4.3 4c0 3.6-2.5 7-5.2 7l-.9-.1-1.4-.1q-1.4 0-1.4 1.1 0 1 1.2 1h.8q1-.2 1.5-.2c1.9 0 3.2 1.7 3.2 4.2 0 4.3-2.1 8.4-7 8.4-2.2 0-4.1-1-4.1-2.4q-.1-.5.7-.8 1.7-.9 1.7-2.3-.2-2.4-2.6-2.5-2.7.1-2.8 3.4c0 3.9 3 6.3 7.7 6.3 6 0 10.7-4 10.7-9.4 0-3.1-2-4.8-4.7-5.7M385.8 328.3l-1 1.9c-1.6 2.7-2 3-4 3h-9.2q1.3-1.8 5.9-5c5.3-3.6 5.6-3.9 6.7-4.8q4.7-3.4 4.6-8c0-4.2-3.2-7-7.8-7-5 0-9.5 3.8-9.5 8.2q.1 3.4 3.1 3.6c1.4 0 2.6-1 2.6-2.5q0-1.4-1.9-2.5c-1-.4-1-.6-1-1.1 0-1.7 2.9-3.7 5.6-3.7 2.8 0 4.7 2 4.7 4.7 0 3-1.4 5.2-5 8.3-10.6 9.3-12.2 11-12.6 13.2h17.2l3-7.7zm20.6-5.4c-1 4.7-3.7 12.6-9.4 12.6q-1.9 0-2-1.2 0-.3.5-.9t.6-1.5q-.1-2.1-2.4-2.3-2.6.1-2.7 3c0 2.6 2.5 4.6 6 4.6 8.8 0 14.4-11.2 14.4-18.8 0-6.2-3-10-8-10-5.9 0-10.3 5.5-10.3 11.2 0 3.8 2.9 6.7 6.8 6.7q3.9.1 6.5-3.4m-3-12.8q4 .2 4.2 5.3c0 5-2.7 8.6-6.4 8.6q-3.8-.2-3.9-4.8c0-3.6 1.7-9 6.1-9" class="MeasureNumber"/><path d="m288.3 445.5-9.2-23.2q-.4-1-.4-1.5-.1-1.4 3.1-1.3h2v-2.3h-15.6v2.3h1c2.3.1 3 .6 3.9 2.8l12.6 31.7h2l11.5-29.6c1.5-3.9 2.6-4.8 5.4-4.9h.5v-2.3h-13.5v2.3h1q3.9.1 4 2.6 0 1.2-.6 2.8zm18.4 2.3a3.1 3.1 0 1 0 0 6.3 3.1 3.1 0 0 0 0-6.3M288.3 1332l-9.2-23.2-.4-1.6q-.1-1.3 3.1-1.2h2v-2.4h-15.6v2.4h1c2.3 0 3 .6 3.9 2.8l12.6 31.7h2l11.5-29.6c1.5-4 2.6-4.8 5.4-5h.5v-2.3h-13.5v2.4h1q3.9.1 4 2.6 0 1.2-.6 2.8zm18.4 2.2a3.1 3.1 0 1 0 3.1 3.1c0-1.7-1.4-3.1-3-3.1M288.3 2223.4l-9.2-23.2-.4-1.6q-.1-1.3 3.1-1.2h2v-2.4h-15.6v2.4h1c2.3 0 3 .6 3.9 2.8l12.6 31.7h2l11.5-29.6c1.5-4 2.6-4.8 5.4-5h.5v-2.3h-13.5v2.4h1q3.9.1 4 2.6 0 1.2-.6 2.8zm18.4 2.2a3.1 3.1 0 1 0 3.1 3.1c0-1.7-1.4-3.1-3-3.1M288.3 3081.7l-9.2-23.2q-.4-1.1-.4-1.6-.1-1.3 3.1-1.2h2v-2.4h-15.6v2.4h1c2.3 0 3 .6 3.9 2.8l12.6 31.7h2l11.5-29.6c1.5-3.9 2.6-4.8 5.4-4.9h.5v-2.4h-13.5v2.4h1q3.9.1 4 2.6 0 1.2-.6 2.8zm18.4 2.2a3.1 3.1 0 1 0 0 6.2 3.1 3.1 0 0 0 0-6.2M224 1685.9h5.6c4.5 0 7-.4 9-1.3 3.5-1.7 5.5-5 5.5-8.9 0-8-7-9.9-13.6-9.9H213v2.4h.9c2.9 0 3.8.2 4.2.7.3.4.3.5.3 3v23.9c0 2.5 0 2.6-.3 3-.4.6-1.3.8-4.2.8h-.9v2.3h16.8v-2.3h-1.3c-2.9 0-3.8-.2-4.2-.7-.3-.5-.3-.6-.3-3.1zm0-2.3v-12.8c0-2.3.3-2.5 3-2.5h3.3q7.6-.1 7.6 7.7t-7.8 7.6zm30.8-4.9-8.6.6v2.1h1.8c1.9 0 2.1.4 2.1 2.5v14.3q0 1-.3 1.3-.4.7-3.4.7h-.2v1.8h12.6v-1.8h-.2c-3.3 0-3.8-.3-3.8-2.1v-7.4q0-4 1-5.9c1-2.2 3.2-3.8 5.4-3.8 1.3 0 2.8.7 3.5 1.8q1.1 1.4 1.1 5v10.4q0 1-.3 1.3-.3.7-3.5.7h-.2v1.8h12.7v-1.8h-.2c-3.3 0-3.8-.3-3.8-2.1v-10c0-3.7-.1-4.6-1-6.3a7 7 0 0 0-6.8-3.8q-4.7 0-7.9 4.8zm33.2-.8c-6.2 0-11 5.4-11 12.4s4.9 12.4 10.9 12.4 10.8-5.5 10.8-12.4-4.8-12.4-10.7-12.4m0 2.1c3.5 0 5.4 3.7 5.4 10.3q-.1 10-5.5 10.2-5.5-.1-5.6-10.2t5.7-10.3m18.5 16.4a3.1 3.1 0 1 0 0 6.2 3.1 3.1 0 0 0 0-6.2M224 812.3h5.6c4.5 0 7-.4 9-1.3 3.5-1.7 5.5-5 5.5-8.9 0-8-7-10-13.6-10H213v2.5h.9c2.9 0 3.8.2 4.2.7.3.4.3.5.3 3v23.8c0 2.6 0 2.7-.3 3.2-.4.5-1.3.7-4.2.7h-.9v2.3h16.8V826h-1.3c-2.9 0-3.8-.2-4.2-.7-.3-.5-.3-.6-.3-3.2zm0-2.4V797c0-2.3.3-2.5 3-2.5h3.3q7.6-.1 7.6 7.7t-7.8 7.6zm30.8-4.9-8.6.6v2.1h1.8c1.9 0 2.1.4 2.1 2.5v14.3q0 1-.3 1.3-.4.7-3.4.7h-.2v1.8h12.6v-1.8h-.2c-3.3-.1-3.8-.4-3.8-2.2V817q0-4 1-5.9c1-2.3 3.2-3.8 5.4-3.8 1.3 0 2.8.7 3.5 1.8q1.1 1.4 1.1 5v10.4q0 1-.3 1.3-.3.7-3.5.7h-.2v1.8h12.7v-1.8h-.2c-3.3-.1-3.8-.4-3.8-2.2v-10c0-3.6-.1-4.5-1-6.2a7 7 0 0 0-6.8-3.8q-4.7 0-7.9 4.8zm33.2-.7c-6.2 0-11 5.4-11 12.4s4.9 12.4 10.9 12.4 10.8-5.5 10.8-12.5c0-6.8-4.8-12.3-10.7-12.3m0 2c3.5 0 5.4 3.8 5.4 10.3q-.1 10.2-5.5 10.3-5.5-.2-5.6-10.2 0-10.2 5.7-10.3m18.5 16.4a3.1 3.1 0 1 0 0 6.3 3.1 3.1 0 0 0 0-6.3M224 2562h5.6c4.5 0 7-.4 9-1.3a10 10 0 0 0 5.5-8.9c0-8-7-9.9-13.6-9.9H213v2.4h.9c2.9 0 3.8.2 4.2.7.3.4.3.5.3 3v23.8c0 2.6 0 2.7-.3 3.2-.4.5-1.3.7-4.2.7h-.9v2.3h16.8v-2.3h-1.3c-2.9 0-3.8-.2-4.2-.7-.3-.5-.3-.6-.3-3.2zm0-2.4v-12.8c0-2.3.3-2.5 3-2.5h3.3q7.6-.1 7.6 7.7t-7.8 7.6zm30.8-4.9-8.6.6v2.1h1.8c1.9 0 2.1.4 2.1 2.5v14.3q0 1-.3 1.3-.4.7-3.4.7h-.2v1.8h12.6v-1.8h-.2c-3.3-.1-3.8-.3-3.8-2.1v-7.4q0-4 1-5.9c1-2.2 3.2-3.8 5.4-3.8 1.3 0 2.8.7 3.5 1.8q1.1 1.4 1.1 5v10.4q0 1-.3 1.3-.3.7-3.5.7h-.2v1.8h12.7v-1.8h-.2c-3.3-.1-3.8-.3-3.8-2.1v-10c0-3.7-.1-4.6-1-6.3a7 7 0 0 0-6.8-3.8q-4.7 0-7.9 4.8zm33.2-.8c-6.2 0-11 5.4-11 12.4s4.9 12.4 10.9 12.4 10.8-5.5 10.8-12.5c0-6.8-4.8-12.3-10.7-12.3m0 2.1c3.5 0 5.4 3.7 5.4 10.3q-.1 10-5.5 10.2-5.5-.2-5.6-10.2 0-10.2 5.7-10.3m18.5 16.4a3.1 3.1 0 1 0 0 6.2 3.1 3.1 0 0 0 0-6.2M224 3415.6h5.6c4.5 0 7-.3 9-1.3a10 10 0 0 0 5.5-8.8c0-8-7-10-13.6-10H213v2.4h.9c2.9 0 3.8.2 4.2.7.3.5.3.6.3 3.1v23.8c0 2.6 0 2.7-.3 3.1-.4.5-1.3.7-4.2.7h-.9v2.4h16.8v-2.4h-1.3c-2.9 0-3.8-.2-4.2-.7-.3-.4-.3-.5-.3-3.1zm0-2.3v-12.8c0-2.3.3-2.6 3-2.6h3.3q7.6 0 7.6 7.8 0 7.6-7.8 7.6zm30.8-5-8.6.6v2.2h1.8c1.9 0 2.1.3 2.1 2.5v14.3q0 1-.3 1.3-.4.6-3.4.7h-.2v1.8h12.6v-1.8h-.2c-3.3-.2-3.8-.4-3.8-2.2v-7.4c0-2.4.4-4.7 1-5.8 1-2.3 3.2-3.8 5.4-3.8 1.3 0 2.8.7 3.5 1.7q1.1 1.5 1.1 5v10.5q0 1-.3 1.3-.3.6-3.5.7h-.2v1.8h12.7v-1.8h-.2c-3.3-.2-3.8-.4-3.8-2.2v-10c0-3.6-.1-4.5-1-6.2a7 7 0 0 0-6.8-3.9q-4.7 0-7.9 4.8zm33.2-.8c-6.2 0-11 5.5-11 12.5 0 6.8 4.9 12.3 10.9 12.3s10.8-5.5 10.8-12.4c0-6.8-4.8-12.4-10.7-12.4m0 2.2q5.3.1 5.4 10.2-.1 10.2-5.5 10.3-5.5-.1-5.6-10.2 0-10.3 5.7-10.3m18.5 16.3a3.1 3.1 0 1 0 3.1 3.1c0-1.7-1.4-3-3-3" class="InstrumentName"/><path fill="none" stroke="#000" stroke-linejoin="bevel" stroke-width="4.5" d="M368.7 2162.7v238.2M368.7 384.8v266.4M2845.2 2162.7v101.9M2845.2 3021v101.9M368.7 1271.3v235.8M2845.2 1271.3v101.9M1633.5 384.8v102M368.7 3021v233.5M1642.3 1271.3v101.9M2845.2 384.8v102M1802.6 3021v101.9M1633.5 649.8v221.4M2845.2 2399.5V2621M368.7 3253.2v221.4M368.7 2399.5V2621M1802.6 3253.2v221.4M368.7 1505.7v256.9M368.7 649.8v221.4M2845.2 1505.7v256.9M2845.2 649.8v221.4M2845.2 3253.2v221.4M1642.3 1505.7v256.9M368.7 869.9v101.9M1802.6 3473.2v102M2845.2 869.9v101.9M368.7 3473.2v102M368.7 1761.3v101.9M1642.3 1761.3v101.9M1633.5 869.9v101.9M2845.2 3473.2v102M2845.2 2619.6v101.9M2845.2 1761.3v101.9M368.7 2619.6v101.9" class="BarLine"/><path fill-rule="evenodd" stroke="#000" stroke-linecap="round" stroke-linejoin="round" stroke-width="1.2" d="M2402.4 494.8c54.8 43.5 229.2 58.7 290.6 25.3-62.1 41.3-236.5 26-290.6-25.3M941.7 470.5c27.2 28.9 89.5 39.1 124.5 20.6-36.3 26.4-98.6 16-124.5-20.6M1232.3 491.1c49.8 35.3 199.2 35.3 249 0-49.8 43.3-199.2 43.3-249 0M2070.4 470.5c38 33.2 121 43.5 166 20.6-46 30.8-129 20.5-166-20.6M576.3 3292.2c20 55 97.6 98.4 155 86.8-61.3 18.5-138.8-24.9-155-86.8M1929.4 3438c51.8 6.1 129.3-33.2 155-78.6-22 52.5-99.6 91.8-155 78.6M808.8 3334.6c31.6 37 109.1 57.7 155 41.4-47.9 24-125.4 3.3-155-41.4M1041.3 3314c28.3 41.7 105.8 72.7 155 62-52.1 18-129.6-13-155-62M1273.9 3338.8c32.3 36 109.8 54.6 155 37.2-47 25.2-124.6 6.6-155-37.2M1506.4 3334.6c10.1 27.7 48.9 48.4 77.5 41.4a57.7 57.7 0 0 1-77.5-41.4M1661.4 3359.4c15.5 22.4 54.2 30.7 77.5 16.6a50.3 50.3 0 0 1-77.5-16.6M2162 3438c51 7.3 128.6-30 155-74.4-23 51.7-100.5 88.8-155 74.4" class="SlurSegment"/><path fill-rule="evenodd" stroke="#000" stroke-linecap="round" stroke-linejoin="round" stroke-width="1.2" d="M946.3 1352.7c24.1 11.8 96.5 11.8 120.6 0-24.1 19.7-96.5 19.7-120.6 0M1233.9 466.3c23.9 11.7 95.6 11.7 119.5 0-23.9 19.7-95.6 19.7-119.6 0M2404 478.7c24 18 95.7 18 119.6 0-24 26-95.7 26-119.6 0M1493.2 1291.7c40-39 160.3-39 200.3 0-40-31-160.2-31-200.3 0M2191 1365.1c32.5 21 130 21 162.4 0-32.4 29-130 29-162.4 0M2735 1352.7c20.4 11.4 81.4 11.4 101.7 0-20.3 19.4-81.3 19.4-101.6 0M523 2244.2c10 12 40 12 50 0-10 18-40 18-50 0M949.1 1513.8c24.1-26 96.5-26 120.6 0-24.1-18.1-96.5-18.1-120.6 0M577.9 2530.7c250.1 45.6 1000.5 45.6 1250.6 0-250.1 53.5-1000.5 53.5-1250.6 0" class="TieSegment"/><path fill-rule="evenodd" stroke="#000" stroke-linecap="round" stroke-linejoin="round" stroke-width="1.2" d="M597.4 2493.5c242.7 45.6 970.7 45.6 1213.4 0-242.7 53.5-970.7 53.5-1213.4 0M597.4 2432.3c246.8-57 987.2-57 1234 0-246.9-49-987.2-49-1234 0M946.3 1599.5c20.6 17.4 82.3 17.4 102.9 0-20.6 25.3-82.3 25.3-102.9 0M943.3 743.7c20.4 17.3 81.5 17.3 101.9 0-20.4 25.2-81.5 25.2-102 0M946.1 657.9c24-26 95.7-26 119.6 0-24-18-95.7-18-119.6 0M2072 768.5c32.2 20.9 128.8 20.9 161 0-32.2 28.8-128.8 28.8-161 0M2091.5 682.7c28.8-27.8 115.5-27.8 144.4 0-29-19.8-115.6-19.8-144.5 0M2274.7 1599.5c15.8 14.9 63 14.9 78.8 0-15.8 22-63 22-78.8 0M946.3 1880c24.1 18 96.5 18 120.6 0-24.1 26-96.5 26-120.6 0M1873 3567.2c143.5 42.8 574.2 42.8 717.7 0-143.5 50.7-574.2 50.7-717.7 0M577.9 3616.8c185 45.6 740 45.6 925.1 0-185 53.6-740.1 53.6-925.1 0" class="TieSegment"/><path fill-rule="evenodd" stroke="#000" stroke-linecap="round" stroke-linejoin="round" stroke-width="1.2" d="M597.4 3567.2c179.4 45.6 717.6 45.6 897 0-179.5 53.6-717.6 53.6-897 0M597.4 3493.6c181.7-53.6 726.8-53.6 908.5 0-181.7-45.6-726.8-45.6-908.5 0M1853.5 3616.8c149.2 43.6 596.7 43.6 745.9 0-149.2 51.5-596.7 51.5-746 0M2155 1013.3c15.6 14.8 62.4 14.8 78 0-15.6 22-62.4 22-78 0M943.3 988.5c23.9 18 95.6 18 119.5 0-23.9 26-95.6 26-119.5 0M577.9 2738.3c250.1 45.7 1000.5 45.7 1250.6 0-250.1 53.6-1000.5 53.6-1250.6 0M1873 3493.6c145.8-51 583.4-51 729.2 0-145.8-43.1-583.4-43.1-729.2 0" class="TieSegment"/><path d="M789.8 1318.3c0 7.8-4 12-9.8 16.5l.3-19.3c.2-.9 1.7-3.8 5.6-3.8 3.6 0 3.9 3.4 3.9 5.5zm-1.2-11.3c-5 0-7.8 3-8.3 3.6l.4-31.8q-.1-1.3-1.4-1.4H778q-1.3.1-1.4 1.4l.5 59.6q.1 1.3 1.4 1.4l.8-.2c8.5-4.3 17.4-12.4 17.4-22.6 0-5.2-2.3-10-8.2-10M2580.6 481.4c0 7.9-4 12-9.8 16.6l.3-19.3c.2-1 1.7-3.8 5.7-3.8 3.5 0 3.8 3.4 3.8 5.4zm-1.2-11.4c-5 0-7.8 3-8.3 3.7l.4-31.9q-.1-1.2-1.4-1.3h-1.2q-1.3.1-1.4 1.3l.5 59.7q.1 1.3 1.4 1.4l.8-.2c8.5-4.3 17.5-12.4 17.5-22.7 0-5.1-2.4-10-8.3-10M1992.6 1318.3c0 7.8-4 12-9.8 16.5l.3-19.3c.2-.9 1.7-3.8 5.7-3.8 3.6 0 3.8 3.4 3.8 5.5zm-1.1-11.3c-5 0-7.9 3-8.4 3.6l.4-31.8q-.1-1.3-1.4-1.4h-1.2q-1.3.1-1.4 1.4l.5 59.6q.1 1.3 1.4 1.4l.8-.2c8.6-4.3 17.5-12.4 17.5-22.6 0-5.2-2.4-10-8.2-10M787.8 431.8c0 7.9-4 12-9.8 16.6l.3-19.3c.2-1 1.7-3.8 5.6-3.8 3.6 0 4 3.4 4 5.4zm-1.3-11.4c-5 0-7.8 3-8.3 3.7l.4-31.9q-.1-1.2-1.4-1.3H776q-1.3.1-1.4 1.3l.5 59.7q.1 1.3 1.4 1.4l.8-.2c8.5-4.3 17.4-12.4 17.4-22.7 0-5.1-2.3-10-8.2-10M1916.5 431.8c0 7.9-4.1 12-9.8 16.6l.2-19.3c.2-1 1.7-3.8 5.7-3.8 3.6 0 3.9 3.4 3.9 5.4zm-1.2-11.4c-5 0-7.9 3-8.4 3.7l.4-31.9q0-1.2-1.3-1.3h-1.2q-1.3.1-1.4 1.3l.5 59.7q.1 1.3 1.4 1.4l.8-.2c8.5-4.3 17.4-12.4 17.4-22.7 0-5.1-2.4-10-8.2-10M1665 746.4c0 7.8-4.1 12-9.9 16.6l.3-19.4c.2-.9 1.7-3.7 5.7-3.7 3.5 0 3.8 3.3 3.8 5.4zm-1.2-11.3c-5 0-7.8 3-8.3 3.7l.4-31.9q-.1-1.3-1.4-1.4h-1.2q-1.3.1-1.4 1.4l.5 59.6q.1 1.3 1.4 1.4.4 0 .8-.2c8.5-4.2 17.5-12.4 17.5-22.6 0-5.1-2.4-10-8.3-10M1675.6 696.8c0 7.8-4 12-9.8 16.6l.3-19.4c.2-.9 1.7-3.7 5.6-3.7 3.6 0 3.9 3.3 3.9 5.4zm-1.2-11.3c-5 0-7.8 3-8.3 3.7l.4-31.9q-.1-1.3-1.4-1.4h-1.2q-1.3.1-1.4 1.4l.5 59.6q.1 1.3 1.4 1.4.4 0 .8-.2c8.5-4.2 17.4-12.4 17.4-22.6 0-5.1-2.3-10-8.2-10M2160 1602.3c0 7.8-4 12-9.8 16.6l.3-19.4c.2-.9 1.7-3.8 5.7-3.8 3.6 0 3.9 3.4 3.9 5.5zm-1.2-11.3c-5 0-7.9 3-8.4 3.6l.4-31.8q-.1-1.3-1.4-1.4h-1.1q-1.4.1-1.4 1.4l.5 59.6q0 1.3 1.4 1.4.3 0 .7-.2c8.6-4.3 17.5-12.4 17.5-22.6 0-5.2-2.4-10-8.2-10M1902.5 1689c0 8-4 12-9.8 16.7l.3-19.4c.2-.9 1.7-3.8 5.6-3.8 3.6 0 3.9 3.4 3.9 5.5zm-1.2-11.3c-5 0-7.8 3-8.3 3.6l.4-31.8q-.1-1.3-1.4-1.4h-1.2q-1.3.1-1.4 1.4l.5 59.6q.1 1.3 1.4 1.4.4 0 .8-.2c8.5-4.3 17.4-12.4 17.4-22.6 0-5.2-2.3-10-8.2-10M1669.1 991.3c0 7.8-4 12-9.8 16.5l.3-19.3c.2-.9 1.7-3.8 5.7-3.8 3.6 0 3.8 3.4 3.8 5.5zM1668 980c-5 0-7.9 3-8.4 3.6l.4-31.8q-.1-1.3-1.4-1.4h-1.2q-1.3.1-1.4 1.4l.5 59.6q.1 1.3 1.4 1.4l.8-.2c8.6-4.3 17.5-12.4 17.5-22.6 0-5.2-2.4-10-8.2-10" class="Accidental"/><path fill="none" stroke="#000" stroke-linejoin="bevel" stroke-width="4" d="M2370.2 3378.5h48.6M2081.4 1631.1h48.6M2215.1 3378.5h48.6M1997.7 1655.9h48.6M1997.7 1631.1h48.6M1905.1 3378.5h48.6M2137.6 3403.3h48.6M1905.1 3403.3h48.6M2137.6 3378.5h48.6M1914 1680.7h48.6M1914 1631.1h48.6M2370.2 3403.3h48.6M1914 1655.9h48.6M1667.4 1886.6h53.3M1667.4 1911.4h53.3M2668.7 995.2h48.6M2378.1 995.2h48.6M2751.7 995.2h48.6M2502.7 995.2h48.6M2295.1 995.2h48.6M2212.1 995.2h48.6M2687.4 3598.6h48.6M2129.1 995.2h48.6M1482.1 3598.6h48.6M2046.1 995.2h48.6M1680.7 995.2h48.5M1827.6 3598.6h48.6M552 3598.6h48.6M2101.1 2745h48.6M1559.6 3598.6h48.6M1838.5 995.2h48.6M2578.5 3598.6h48.6M2541.3 2745h48.6M1921.5 995.2h48.6" class="LedgerLine"/><path fill="none" stroke="#000" stroke-linejoin="bevel" stroke-width="2.5" d="M1252.6 1343.1v-82.9M1679.2 1314v76.4M2541.9 456.6v-70.4M956.6 444.2v-70.5M1473.9 1314v76.3M2624.9 481.4v-92.1M1247.2 444.2V380M1371.7 444.2V380M2707.9 493.8V392.4M1085.2 1330.7v-76.5M959.6 1330.7v-70.5M834 1318.3v-64.2M1496.2 456.6V380M1081.1 456.6V380M2085.3 444.2v-70.5M2748.4 1330.7v-70.5M2251.3 456.6v-70.4M2622.8 1318.3v-64.2M2371.7 1343.1v-82.9M2726.6 3130v-76.7M2204.3 1343.1v-82.9M2120.6 1330.7V1254M832 431.8v-64.1M2617.7 3117.6v-70.4M591.2 2222.1v-76.7M2036.9 1318.3v-70.4M2417.3 456.6v-70.4M1960.7 431.8v-64.1M823.7 3300.2V3211M2718.6 1548.4v64.1M1866.8 3312.6V3236M591.2 3263v-70.4M1521.3 3300.2v-70.4M1753.8 3349.8v-107.7M668.7 3325v-126.2M1557.6 1536v119.9M746.2 3349.8v-144.9M1288.8 3312.6v-76.7M901.2 3325v-107.7M1676.3 3325v-87M1443.8 3349.8v-113.9M1366.3 3325v-89.1M1598.8 3349.8v-115.9M978.7 3349.8v-132.5M1056.2 3287.8v-70.5M1133.7 3325v-107.7M1211.2 3349.8v-113.9M1473.9 1536v119.9M2593.1 1536v76.5M2467.5 1548.4v64.1M2486.9 3349.8v-82.9M2409.4 3411.8v-151.1M591.2 2508.5v-132.4M1846.8 2508.5v-151M2140.3 2508.5V2355M2580.5 2508.5v-157.2M2331.8 3337.4v-76.7M2254.3 3387v-126.3M2176.8 3411.8v-151.1M561.4 1536v119.9M2099.3 3325v-82.9M1348.4 1536v119.9M1222.8 1536v119.9M2021.8 3337.4V3240M1139.1 1536v119.9M1055.4 1536v119.9M929.8 1536v107.5M1944.3 3411.8V3238M804.3 1536v107.5M720.6 1536v119.9M719.3 680.1V800M1217.4 680.1V800M1549.5 680.1V800M1877.7 746.4v-120M802.3 680.1v107.5M2541.9 746.4v-120M2334.3 746.4v-120M926.8 680.1v107.5M2251.3 746.4v-120M2790.9 746.4v-120M2707.9 746.4v-120M1051.4 680.1V800M1134.4 680.1V800M561.4 680.1V800M1960.7 746.4V632.6M2085.3 746.4V632.6M2417.3 746.4v-120M1341.9 680.1V800M1466.5 680.1V800M1719.8 746.4v-120M1877.7 991.3v-70.5M2541.9 991.3v-70.5M1496.2 966.5V896M2371.7 1577.5v-82.6M959.6 1857.9v-70.5M1378.1 1857.9v-70.5M1081.1 966.5V896M1960.7 991.3v-70.5M1587.4 1857.9v-70.5M1371.7 966.5V896M2334.3 991.3v-70.5M1252.6 1857.9v-70.5M2580.5 2753.4v-101.5M1085.2 1857.9v-70.5M591.2 3594.6v-151M956.6 966.5V896M2085.3 991.3v-70.5M2707.9 991.3v-70.5M1923.4 1697.2v58.7M1168.9 1857.9v-70.5M1839.7 1820.7v-74.3M1503.7 1857.9v-70.5M832 966.5V896M591.2 1857.9v-70.5M1521.3 3594.6v-157.1M1846.8 2716.2v-70.4M2726.6 3607v-163.5M1164.1 966.5V896M749 966.5V896M2174.5 1610.4V1722M1719.8 991.3v-70.5M2790.9 991.3v-70.5M2258.2 1585.6v126.2M591.2 966.5V896M1579.2 966.5V896M2617.7 3594.6v-157.1M2007.1 1672.4v70.1M591.2 2716.2v-82.8M1756 1857.9v-102.3M2417.3 991.3v-70.5M2168.3 991.3v-70.5M834 1857.9v-70.5M1598.8 3607v-163.5M1247.2 966.5V896M2251.3 991.3v-70.5M750.3 1857.9v-70.5M2140.3 2753.4v-105.2M2090.8 1635.2v97.1M1866.8 3594.6v-151" class="Stem"/><path d="M1084 1276.6q-.2.6.7 1a40 40 0 0 1 19.3 17.8c1.7 3 4.6 7.4 4.6 15.6a65 65 0 0 1-4.4 21.6q-.3.9-.4 1.5 0 1 1 1t1.6-1.1c4.5-8 6.2-17.2 6.2-26.2-.5-12.8-7.9-22.2-7.9-22.2.3 0-9-12.2-11.8-16.4-3.6-5.6-5.3-11.3-5.5-11.7l-1-3.9q-.2-.7-1.2-.8-1.2.2-1.3 1.3zM1472.7 1390.3q.1 1.2 1.3 1.3.8-.1 1.2-.8l1-3.8c0-.4 1-4.2 4.5-10 3.9-6.5 9.8-11.2 14.8-18.1s7.8-13.5 7.8-22.2c0-9-2-16.6-7.3-26.2q-.6-1-1.5-1.1h-.5q-.7.4-.7 1.3l.3 1.2c4 9.2 5.6 14.4 5.6 21.6 0 8.2-3 12.5-4.7 15.6a42 42 0 0 1-21 17.7q-1 .5-.8 1.1zM2370.5 1517.2c0 .3 0 .8.8 1a40 40 0 0 1 19.2 17.8c1.8 3 4.7 7.4 4.7 15.6a65 65 0 0 1-4.5 21.6q-.4.9-.3 1.5 0 1 1 1t1.6-1c4.5-8 6.1-17.3 6.1-26.3-.5-12.8-7.8-22.2-7.8-22.2.3 0-9.1-12.2-11.8-16.4-3.7-5.6-5.4-11.3-5.6-11.7l-1-3.9q-.1-.6-1.1-.7-1.2.1-1.3 1.2z" class="Hook"/><path d="M1465.2 464.8c0 4.2 3 9 11.1 9 10.3 0 21.2-8.4 21.2-17.2 0-5.8-5-9.1-11.2-9.1-9.6 0-21 8.1-21 17.3M2717.4 1338.8c0 4.3 3 9 11 9 10.4 0 21.2-8.4 21.2-17.1 0-5.9-5-9.2-11-9.2-9.7 0-21.2 8.2-21.2 17.3M2510.9 464.8c0 4.2 3 9 11 9 10.4 0 21.2-8.4 21.2-17.2 0-5.8-5-9.1-11.1-9.1-9.6 0-21.1 8.1-21.1 17.3M1678 1314c0 4.3 3 9 11 9 10.4 0 21.2-8.4 21.2-17.1 0-5.9-5-9.2-11.1-9.2-9.7 0-21.2 8.2-21.2 17.3M1050.1 464.8c0 4.2 3 9 11.1 9 10.3 0 21.2-8.4 21.2-17.2 0-5.8-5-9.1-11.2-9.1-9.6 0-21 8.1-21 17.3M2591.8 1326.4c0 4.3 3 9 11.1 9 10.3 0 21.2-8.4 21.2-17.1 0-5.9-5-9.2-11.2-9.2-9.6 0-21 8.2-21 17.3M2220.3 464.8c0 4.2 3 9 11.1 9 10.3 0 21.1-8.4 21.1-17.2 0-5.8-5-9.1-11-9.1-9.7 0-21.2 8.1-21.2 17.3M2386.3 464.8c0 4.2 3.1 9 11.1 9 10.4 0 21.2-8.4 21.2-17.2 0-5.8-5-9.1-11.1-9.1-9.7 0-21.2 8.1-21.2 17.3M925.6 452.4c0 4.2 3 9 11 9 10.4 0 21.2-8.4 21.2-17.2 0-5.8-5-9.1-11.1-9.1-9.6 0-21.1 8.1-21.1 17.3M2695.6 3138.1c0 4.3 3 9 11 9 10.4 0 21.2-8.4 21.2-17.1 0-5.9-5-9.1-11.1-9.1-9.6 0-21.1 8-21.1 17.2M1340.7 452.4c0 4.2 3 9 11 9 10.4 0 21.2-8.4 21.2-17.2 0-5.8-5-9.1-11-9.1-9.7 0-21.2 8.1-21.2 17.3M2173.3 1351.2c0 4.3 3 9 11.1 9 10.3 0 21.1-8.4 21.1-17.1 0-5.9-5-9.2-11-9.2-9.7 0-21.2 8.2-21.2 17.3M2586.7 3125.7c0 4.3 3 9 11 9 10.4 0 21.2-8.4 21.2-17.1 0-5.9-5-9.1-11.1-9.1-9.6 0-21.2 8-21.2 17.2M801 440c0 4.2 3.1 9 11.2 9 10.3 0 21-8.4 21-17.2 0-5.8-4.9-9.1-11-9.1-9.7 0-21.2 8.1-21.2 17.3M2089.6 1338.8c0 4.3 3 9 11.1 9 10.3 0 21.1-8.4 21.1-17.1 0-5.9-5-9.2-11-9.2-9.7 0-21.2 8.2-21.2 17.3M803 1326.4c0 4.3 3.1 9 11.1 9 10.4 0 21.2-8.4 21.2-17.1 0-5.9-5-9.2-11.1-9.2-9.7 0-21.2 8.2-21.2 17.3M2340.7 1351.2c0 4.3 3 9 11.1 9 10.3 0 21.2-8.4 21.2-17.1 0-5.9-5-9.2-11.2-9.2-9.6 0-21 8.2-21 17.3M567.6 2234.5c-3.3 0-4-2.6-4-3.5 0-4.9 16.7-13.4 21.4-13.4 2.3 0 4 1.4 4 3.6 0 5-16.8 13.3-21.4 13.3m13.7-21.6c-9.6 0-21.1 8-21.1 17.3 0 4.3 3 9 11 9 10.4 0 21.2-8.4 21.2-17.1 0-6-5-9.2-11.1-9.2M928.6 1338.8c0 4.3 3 9 11.1 9 10.3 0 21.1-8.4 21.1-17.1 0-5.9-5-9.2-11-9.2-9.7 0-21.2 8.2-21.2 17.3M1216.2 452.4c0 4.2 3 9 11 9 10.4 0 21.2-8.4 21.2-17.2 0-5.8-5-9.1-11.1-9.1-9.6 0-21.1 8.1-21.1 17.3M1054.2 1338.8c0 4.3 3 9 11 9 10.4 0 21.2-8.4 21.2-17.1 0-5.9-5-9.2-11.1-9.2-9.6 0-21.1 8.2-21.1 17.3M2005.9 1326.4c0 4.3 3 9 11 9 10.4 0 21.2-8.4 21.2-17.1 0-5.9-5-9.2-11-9.2-9.7 0-21.2 8.2-21.2 17.3M1929.7 440c0 4.2 3 9 11.1 9 10.3 0 21.2-8.4 21.2-17.2 0-5.8-5-9.1-11.2-9.1-9.6 0-21 8.1-21 17.3M2676.9 502c0 4.2 3 9 11.1 9 10.3 0 21.1-8.4 21.1-17.2 0-5.8-5-9.1-11-9.1-9.7 0-21.2 8.1-21.2 17.3M2593.9 489.6c0 4.2 3 9 11 9 10.4 0 21.2-8.4 21.2-17.2 0-5.8-5-9.1-11-9.1-9.7 0-21.2 8.1-21.2 17.3M1221.6 1351.2c0 4.3 3 9 11 9 10.4 0 21.2-8.4 21.2-17.1 0-5.9-5-9.2-11.1-9.2-9.6 0-21.1 8.2-21.1 17.3M2054.3 452.4c0 4.2 3 9 11 9 10.4 0 21.2-8.4 21.2-17.2 0-5.8-5-9.1-11.1-9.1-9.6 0-21.2 8.1-21.2 17.3M1472.7 1314c0 4.3 3 9 11 9 10.4 0 21.2-8.4 21.2-17.1 0-5.9-5-9.2-11-9.2-9.7 0-21.2 8.2-21.2 17.3M560.2 680.1c0 4.3 3 9 11 9 10.4 0 21.2-8.4 21.2-17.1 0-5.9-5-9.1-11.1-9.1-9.6 0-21.1 8.1-21.1 17.2M1412.8 3357.9c0 4.2 3 9 11 9 10.4 0 21.2-8.4 21.2-17.2 0-5.8-5-9-11.1-9-9.6 0-21.1 8-21.1 17.2M2466.3 1548.4c0 4.3 3 9 11 9 10.4 0 21.2-8.4 21.2-17.1 0-5.9-5-9.1-11.1-9.1-9.6 0-21.1 8-21.1 17.2M870.2 3333c0 4.3 3 9.1 11.1 9.1 10.3 0 21.1-8.4 21.1-17.2 0-5.8-5-9-11-9-9.7 0-21.2 8-21.2 17.2M2220.3 754.5c0 4.3 3 9 11.1 9 10.3 0 21.1-8.4 21.1-17.1 0-5.9-5-9.1-11-9.1-9.7 0-21.2 8.1-21.2 17.2M2549.5 2467c0 4.3 3 9 11 9 10.4 0 21.2-8.4 21.2-17.1 0-5.9-5-9.1-11.1-9.1-9.6 0-21.1 8.1-21.1 17.2M1815.8 2454.6c0 4.3 3 9 11 9 10.4 0 21.2-8.4 21.2-17.1 0-5.9-5-9.1-11.1-9.1-9.6 0-21.1 8.1-21.1 17.2" class="Note"/><path d="M1815.8 2479.4c0 4.3 3 9 11 9 10.4 0 21.2-8.4 21.2-17.1 0-5.9-5-9.1-11.1-9.1-9.6 0-21.1 8.1-21.1 17.2M1815.8 2516.6c0 4.3 3 9 11 9 10.4 0 21.2-8.4 21.2-17.1 0-5.9-5-9.1-11.1-9.1-9.6 0-21.1 8.1-21.1 17.2M2109.3 2516.6c0 4.3 3 9 11 9 10.4 0 21.2-8.4 21.2-17.1 0-5.9-5-9.1-11.1-9.1-9.6 0-21.2 8.1-21.2 17.2M2109.3 2467c0 4.3 3 9 11 9 10.4 0 21.2-8.4 21.2-17.1 0-5.9-5-9.1-11.1-9.1-9.6 0-21.2 8.1-21.2 17.2M2109.3 2429.8c0 4.3 3 9 11 9 10.4 0 21.2-8.4 21.2-17.1 0-5.9-5-9.1-11.1-9.1-9.6 0-21.2 8.1-21.2 17.2M567.6 2459c-3.3 0-4-2.7-4-3.6 0-4.8 16.7-13.4 21.4-13.4 2.3 0 4 1.4 4 3.6 0 5-16.8 13.4-21.4 13.4m13.7-21.6c-9.6 0-21.1 8-21.1 17.2 0 4.3 3 9 11 9 10.4 0 21.2-8.4 21.2-17.1 0-5.9-5-9.1-11.1-9.1" class="Note"/><path d="M567.6 2483.8c-3.3 0-4-2.7-4-3.6 0-4.8 16.7-13.4 21.4-13.4 2.3 0 4 1.4 4 3.6 0 5-16.8 13.4-21.4 13.4m13.7-21.6c-9.6 0-21.1 8-21.1 17.2 0 4.3 3 9 11 9 10.4 0 21.2-8.4 21.2-17.1 0-5.9-5-9.1-11.1-9.1M1133.1 680.1c0 4.3 3.1 9 11.1 9 10.4 0 21.2-8.4 21.2-17.1 0-5.9-5-9.1-11.1-9.1-9.7 0-21.2 8.1-21.2 17.2M567.6 2521c-3.3 0-4-2.7-4-3.6 0-4.8 16.7-13.4 21.4-13.4 2.3 0 4 1.4 4 3.6 0 5-16.8 13.4-21.4 13.4m13.7-21.6c-9.6 0-21.1 8-21.1 17.2 0 4.3 3 9 11 9 10.4 0 21.2-8.4 21.2-17.1 0-5.9-5-9.1-11.1-9.1M1567.8 3357.9c0 4.2 3 9 11.1 9 10.3 0 21.1-8.4 21.1-17.2 0-5.8-5-9-11-9-9.7 0-21.2 8-21.2 17.2M1133.1 729.7c0 4.3 3.1 9 11.1 9 10.4 0 21.2-8.4 21.2-17.1 0-5.9-5-9.1-11.1-9.1-9.7 0-21.2 8.1-21.2 17.2M1490.3 3308.3c0 4.2 3 9 11 9 10.4 0 21.2-8.4 21.2-17.2 0-5.8-5-9-11-9-9.7 0-21.2 8-21.2 17.2M560.2 729.7c0 4.3 3 9 11 9 10.4 0 21.2-8.4 21.2-17.1 0-5.9-5-9.1-11.1-9.1-9.6 0-21.1 8.1-21.1 17.2M2549.5 2516.6c0 4.3 3 9 11 9 10.4 0 21.2-8.4 21.2-17.1 0-5.9-5-9.1-11.1-9.1-9.6 0-21.1 8.1-21.1 17.2M1835.8 3320.7c0 4.2 3 9 11 9 10.4 0 21.2-8.4 21.2-17.2 0-5.8-5-9-11-9-9.7 0-21.2 8-21.2 17.2M2549.5 2429.8c0 4.3 3 9 11 9 10.4 0 21.2-8.4 21.2-17.1 0-5.9-5-9.1-11.1-9.1-9.6 0-21.1 8.1-21.1 17.2M1846.7 754.5c0 4.3 3 9 11.1 9 10.3 0 21.1-8.4 21.1-17.1 0-5.9-5-9.1-11-9.1-9.7 0-21.2 8.1-21.2 17.2M1846.7 705c0 4.2 3 9 11.1 9 10.3 0 21.1-8.5 21.1-17.2 0-5.9-5-9.1-11-9.1-9.7 0-21.2 8.1-21.2 17.2M1645.3 3333c0 4.3 3 9.1 11.1 9.1 10.3 0 21.1-8.4 21.1-17.2 0-5.8-5-9-11-9-9.7 0-21.2 8-21.2 17.2M1722.8 3357.9c0 4.2 3 9 11.1 9 10.3 0 21.1-8.4 21.1-17.2 0-5.8-5-9-11-9-9.7 0-21.2 8-21.2 17.2M1929.7 754.5c0 4.3 3 9 11.1 9 10.3 0 21.2-8.4 21.2-17.1 0-5.9-5-9.1-11.2-9.1-9.6 0-21 8.1-21 17.2M1929.7 705c0 4.2 3 9 11.1 9 10.3 0 21.2-8.5 21.2-17.2 0-5.9-5-9.1-11.2-9.1-9.6 0-21 8.1-21 17.2M1688.8 705c0 4.2 3.1 9 11.1 9 10.4 0 21.2-8.5 21.2-17.2 0-5.9-5-9.1-11.1-9.1-9.7 0-21.2 8.1-21.2 17.2M1050.1 680.1c0 4.3 3 9 11.1 9 10.3 0 21.2-8.4 21.2-17.1 0-5.9-5-9.1-11.2-9.1-9.6 0-21 8.1-21 17.2M1050.1 729.7c0 4.3 3 9 11.1 9 10.3 0 21.2-8.4 21.2-17.1 0-5.9-5-9.1-11.2-9.1-9.6 0-21 8.1-21 17.2M2054.3 754.5c0 4.3 3 9 11 9 10.4 0 21.2-8.4 21.2-17.1 0-5.9-5-9.1-11.1-9.1-9.6 0-21.2 8.1-21.2 17.2M2054.3 705c0 4.2 3 9 11 9 10.4 0 21.2-8.5 21.2-17.2 0-5.9-5-9.1-11.1-9.1-9.6 0-21.2 8.1-21.2 17.2M2717.4 1548.4c0 4.3 3 9 11 9 10.4 0 21.2-8.4 21.2-17.1 0-5.9-5-9.1-11-9.1-9.7 0-21.2 8-21.2 17.2M2591.8 1536c0 4.3 3 9 11.1 9 10.3 0 21.2-8.4 21.2-17.1 0-5.9-5-9.1-11.2-9.1-9.6 0-21 8-21 17.2M1688.8 754.5c0 4.3 3.1 9 11.1 9 10.4 0 21.2-8.4 21.2-17.1 0-5.9-5-9.1-11.1-9.1-9.7 0-21.2 8.1-21.2 17.2M1054.2 1536c0 4.3 3 9 11 9 10.4 0 21.2-8.4 21.2-17.1 0-5.9-5-9.1-11.1-9.1-9.6 0-21.1 8-21.1 17.2M801 729.7c0 4.3 3.1 9 11.2 9 10.3 0 21-8.4 21-17.1 0-5.9-4.9-9.1-11-9.1-9.7 0-21.2 8.1-21.2 17.2M2300.8 3345.5c0 4.2 3.1 9 11.2 9 10.3 0 21-8.4 21-17.2 0-5.8-4.9-9-11-9-9.7 0-21.2 8-21.2 17.2M2676.9 705c0 4.2 3 9 11.1 9 10.3 0 21.1-8.5 21.1-17.2 0-5.9-5-9.1-11-9.1-9.7 0-21.2 8.1-21.2 17.2M928.6 1585.6c0 4.3 3 9 11.1 9 10.3 0 21.1-8.4 21.1-17.1 0-5.9-5-9.1-11-9.1-9.7 0-21.2 8-21.2 17.2M928.6 1536c0 4.3 3 9 11.1 9 10.3 0 21.1-8.4 21.1-17.1 0-5.9-5-9.1-11-9.1-9.7 0-21.2 8-21.2 17.2M1025.2 3295.9c0 4.2 3 9 11.1 9 10.3 0 21.2-8.4 21.2-17.2 0-5.8-5-9-11.2-9-9.6 0-21 8-21 17.2M2676.9 754.5c0 4.3 3 9 11.1 9 10.3 0 21.1-8.4 21.1-17.1 0-5.9-5-9.1-11-9.1-9.7 0-21.2 8.1-21.2 17.2M1054.2 1585.6c0 4.3 3 9 11 9 10.4 0 21.2-8.4 21.2-17.1 0-5.9-5-9.1-11.1-9.1-9.6 0-21.1 8-21.1 17.2M803 1536c0 4.3 3.1 9 11.1 9 10.4 0 21.2-8.4 21.2-17.1 0-5.9-5-9.1-11.1-9.1-9.7 0-21.2 8-21.2 17.2M801 680.1c0 4.3 3.1 9 11.2 9 10.3 0 21-8.4 21-17.1 0-5.9-4.9-9.1-11-9.1-9.7 0-21.2 8.1-21.2 17.2M2223.3 3395c0 4.4 3.1 9.1 11.1 9.1 10.4 0 21.2-8.4 21.2-17.1 0-6-5-9.2-11.1-9.2-9.7 0-21.2 8.2-21.2 17.3M1137.9 1585.6c0 4.3 3 9 11 9 10.4 0 21.2-8.4 21.2-17.1 0-5.9-5-9.1-11.1-9.1-9.6 0-21.2 8-21.2 17.2M1137.9 1536c0 4.3 3 9 11 9 10.4 0 21.2-8.4 21.2-17.1 0-5.9-5-9.1-11.1-9.1-9.6 0-21.2 8-21.2 17.2M1216.2 680.1c0 4.3 3 9 11 9 10.4 0 21.2-8.4 21.2-17.1 0-5.9-5-9.1-11.1-9.1-9.6 0-21.1 8.1-21.1 17.2M2145.8 3419.9c0 4.3 3 9 11.1 9 10.3 0 21.2-8.4 21.2-17.1 0-6-5-9.2-11.2-9.2-9.6 0-21 8.2-21 17.3M1221.6 1585.6c0 4.3 3 9 11 9 10.4 0 21.2-8.4 21.2-17.1 0-5.9-5-9.1-11.1-9.1-9.6 0-21.1 8-21.1 17.2M947.7 3357.9c0 4.2 3 9 11.1 9 10.3 0 21.1-8.4 21.1-17.2 0-5.8-5-9-11-9-9.7 0-21.2 8-21.2 17.2M718 680.1c0 4.3 3 9 11.1 9 10.3 0 21.2-8.4 21.2-17.1 0-5.9-5-9.1-11.1-9.1-9.7 0-21.2 8.1-21.2 17.2M792.7 3308.3c0 4.2 3 9 11.1 9 10.3 0 21.1-8.4 21.1-17.2 0-5.8-5-9-11-9-9.7 0-21.2 8-21.2 17.2M715.2 3357.9c0 4.2 3 9 11 9 10.4 0 21.2-8.4 21.2-17.2 0-5.8-5-9-11-9-9.7 0-21.2 8-21.2 17.2M1340.7 729.7c0 4.3 3 9 11 9 10.4 0 21.2-8.4 21.2-17.1 0-5.9-5-9.1-11-9.1-9.7 0-21.2 8.1-21.2 17.2M637.7 3333c0 4.3 3 9.1 11 9.1 10.4 0 21.2-8.4 21.2-17.2 0-5.8-5-9-11.1-9-9.6 0-21.1 8-21.1 17.2M1340.7 680.1c0 4.3 3 9 11 9 10.4 0 21.2-8.4 21.2-17.1 0-5.9-5-9.1-11-9.1-9.7 0-21.2 8.1-21.2 17.2M560.2 1585.6c0 4.3 3 9 11 9 10.4 0 21.2-8.4 21.2-17.1 0-5.9-5-9.1-11.1-9.1-9.6 0-21.1 8-21.1 17.2M560.2 1536c0 4.3 3 9 11 9 10.4 0 21.2-8.4 21.2-17.1 0-5.9-5-9.1-11.1-9.1-9.6 0-21.1 8-21.1 17.2M2220.3 705c0 4.2 3 9 11.1 9 10.3 0 21.1-8.5 21.1-17.2 0-5.9-5-9.1-11-9.1-9.7 0-21.2 8.1-21.2 17.2M2760 705c0 4.2 3 9 11 9 10.3 0 21.2-8.5 21.2-17.2 0-5.9-5-9.1-11.2-9.1-9.6 0-21 8.1-21 17.2M719.3 1585.6c0 4.3 3.1 9 11.1 9 10.3 0 21.2-8.4 21.2-17.1 0-5.9-5-9.1-11.1-9.1-9.7 0-21.2 8-21.2 17.2M719.3 1536c0 4.3 3.1 9 11.1 9 10.3 0 21.2-8.4 21.2-17.1 0-5.9-5-9.1-11.1-9.1-9.7 0-21.2 8-21.2 17.2M2760 754.5c0 4.3 3 9 11 9 10.3 0 21.2-8.4 21.2-17.1 0-5.9-5-9.1-11.2-9.1-9.6 0-21 8.1-21 17.2M2463.3 3362.2c-3.3 0-4-2.6-4-3.5 0-4.9 16.7-13.4 21.4-13.4 2.3 0 4 1.4 4 3.5 0 5-16.8 13.4-21.4 13.4m13.7-21.6c-9.6 0-21.1 8-21.1 17.3 0 4.2 3 9 11 9 10.4 0 21.2-8.4 21.2-17.2 0-5.8-5-9-11.1-9M2378.4 3419.9c0 4.3 3 9 11 9 10.4 0 21.2-8.4 21.2-17.1 0-6-5-9.2-11.1-9.2-9.6 0-21.2 8.2-21.2 17.3M803 1585.6c0 4.3 3.1 9 11.1 9 10.4 0 21.2-8.4 21.2-17.1 0-5.9-5-9.1-11.1-9.1-9.7 0-21.2 8-21.2 17.2M560.2 3271c0 4.3 3 9.1 11 9.1 10.4 0 21.2-8.4 21.2-17.2 0-5.8-5-9-11.1-9-9.6 0-21.1 8-21.1 17.2M1548.2 680.1c0 4.3 3.1 9 11.1 9 10.4 0 21.2-8.4 21.2-17.1 0-5.9-5-9.1-11.1-9.1-9.7 0-21.2 8.1-21.2 17.2M718 729.7c0 4.3 3 9 11.1 9 10.3 0 21.2-8.4 21.2-17.1 0-5.9-5-9.1-11.1-9.1-9.7 0-21.2 8.1-21.2 17.2M1548.2 729.7c0 4.3 3.1 9 11.1 9 10.4 0 21.2-8.4 21.2-17.1 0-5.9-5-9.1-11.1-9.1-9.7 0-21.2 8.1-21.2 17.2M1465.2 680.1c0 4.3 3 9 11.1 9 10.3 0 21.2-8.4 21.2-17.1 0-5.9-5-9.1-11.2-9.1-9.6 0-21 8.1-21 17.2M2303.3 754.5c0 4.3 3 9 11.1 9 10.3 0 21.2-8.4 21.2-17.1 0-5.9-5-9.1-11.2-9.1-9.6 0-21 8.1-21 17.2M2303.3 705c0 4.2 3 9 11.1 9 10.3 0 21.2-8.5 21.2-17.2 0-5.9-5-9.1-11.2-9.1-9.6 0-21 8.1-21 17.2M1465.2 729.7c0 4.3 3 9 11.1 9 10.3 0 21.2-8.4 21.2-17.1 0-5.9-5-9.1-11.2-9.1-9.6 0-21 8.1-21 17.2M1335.3 3333c0 4.3 3 9.1 11 9.1 10.4 0 21.2-8.4 21.2-17.2 0-5.8-5-9-11.1-9-9.6 0-21.1 8-21.1 17.2M925.6 680.1c0 4.3 3 9 11 9 10.4 0 21.2-8.4 21.2-17.1 0-5.9-5-9.1-11.1-9.1-9.6 0-21.1 8.1-21.1 17.2M925.6 729.7c0 4.3 3 9 11 9 10.4 0 21.2-8.4 21.2-17.1 0-5.9-5-9.1-11.1-9.1-9.6 0-21.1 8.1-21.1 17.2M1913.3 3419.9c0 4.3 3 9 11.1 9 10.3 0 21.1-8.4 21.1-17.1 0-6-5-9.2-11-9.2-9.7 0-21.2 8.2-21.2 17.3M2386.3 754.5c0 4.3 3.1 9 11.1 9 10.4 0 21.2-8.4 21.2-17.1 0-5.9-5-9.1-11.1-9.1-9.7 0-21.2 8.1-21.2 17.2M2386.3 705c0 4.2 3.1 9 11.1 9 10.4 0 21.2-8.5 21.2-17.2 0-5.9-5-9.1-11.1-9.1-9.7 0-21.2 8.1-21.2 17.2M1257.8 3320.7c0 4.2 3 9 11 9 10.4 0 21.2-8.4 21.2-17.2 0-5.8-5-9-11.1-9-9.6 0-21.2 8-21.2 17.2M2510.9 754.5c0 4.3 3 9 11 9 10.4 0 21.2-8.4 21.2-17.1 0-5.9-5-9.1-11.1-9.1-9.6 0-21.1 8.1-21.1 17.2M1556.4 1536c0 4.3 3 9 11 9 10.4 0 21.2-8.4 21.2-17.1 0-5.9-5-9.1-11-9.1-9.7 0-21.2 8-21.2 17.2M1221.6 1536c0 4.3 3 9 11 9 10.4 0 21.2-8.4 21.2-17.1 0-5.9-5-9.1-11.1-9.1-9.6 0-21.1 8-21.1 17.2M1347.1 1585.6c0 4.3 3 9 11.1 9 10.3 0 21.2-8.4 21.2-17.1 0-5.9-5-9.1-11.2-9.1-9.6 0-21 8-21 17.2M1347.1 1536c0 4.3 3 9 11.1 9 10.3 0 21.2-8.4 21.2-17.1 0-5.9-5-9.1-11.2-9.1-9.6 0-21 8-21 17.2M1102.7 3333c0 4.3 3.1 9.1 11.1 9.1 10.4 0 21.2-8.4 21.2-17.2 0-5.8-5-9-11.1-9-9.7 0-21.2 8-21.2 17.2M1216.2 729.7c0 4.3 3 9 11 9 10.4 0 21.2-8.4 21.2-17.1 0-5.9-5-9.1-11.1-9.1-9.6 0-21.1 8.1-21.1 17.2M2068.3 3333c0 4.3 3 9.1 11.1 9.1 10.3 0 21.2-8.4 21.2-17.2 0-5.8-5-9-11.2-9-9.6 0-21 8-21 17.2M1990.8 3345.5c0 4.2 3 9 11.1 9 10.3 0 21.1-8.4 21.1-17.2 0-5.8-5-9-11-9-9.7 0-21.2 8-21.2 17.2M1472.7 1585.6c0 4.3 3 9 11 9 10.4 0 21.2-8.4 21.2-17.1 0-5.9-5-9.1-11-9.1-9.7 0-21.2 8-21.2 17.2M1472.7 1536c0 4.3 3 9 11 9 10.4 0 21.2-8.4 21.2-17.1 0-5.9-5-9.1-11-9.1-9.7 0-21.2 8-21.2 17.2M1180.2 3357.9c0 4.2 3.1 9 11.2 9 10.3 0 21-8.4 21-17.2 0-5.8-4.9-9-11-9-9.7 0-21.2 8-21.2 17.2M2510.9 705c0 4.2 3 9 11 9 10.4 0 21.2-8.5 21.2-17.2 0-5.9-5-9.1-11.1-9.1-9.6 0-21.1 8.1-21.1 17.2M1556.4 1585.6c0 4.3 3 9 11 9 10.4 0 21.2-8.4 21.2-17.1 0-5.9-5-9.1-11-9.1-9.7 0-21.2 8-21.2 17.2M567.6 3557.5c-3.3 0-4-2.6-4-3.5 0-5 16.7-13.4 21.4-13.4 2.3 0 4 1.4 4 3.5 0 5-16.8 13.4-21.4 13.4m13.7-21.6c-9.6 0-21.1 8-21.1 17.3 0 4.2 3 9 11 9 10.4 0 21.2-8.4 21.2-17.2 0-5.8-5-9.1-11.1-9.1M1340.7 974.6c0 4.3 3 9 11 9 10.4 0 21.2-8.4 21.2-17.1 0-5.9-5-9.2-11-9.2-9.7 0-21.2 8.2-21.2 17.3M567.6 3520.3c-3.3 0-4-2.6-4-3.5 0-5 16.7-13.4 21.4-13.4 2.3 0 4 1.4 4 3.5 0 5-16.8 13.4-21.4 13.4m13.7-21.6c-9.6 0-21.1 8-21.1 17.3 0 4.2 3 9 11 9 10.4 0 21.2-8.4 21.2-17.2 0-5.8-5-9.1-11.1-9.1M2549.5 2761.5c0 4.3 3 9 11 9 10.4 0 21.2-8.4 21.2-17.1 0-5.9-5-9.1-11.1-9.1-9.6 0-21.1 8-21.1 17.2M1465.2 974.6c0 4.3 3 9 11.1 9 10.3 0 21.2-8.4 21.2-17.1 0-5.9-5-9.2-11.2-9.2-9.6 0-21 8.2-21 17.3M1133.1 974.6c0 4.3 3.1 9 11.1 9 10.4 0 21.2-8.4 21.2-17.1 0-5.9-5-9.2-11.1-9.2-9.7 0-21.2 8.2-21.2 17.3M567.6 3607.1c-3.3 0-4-2.6-4-3.5 0-5 16.7-13.4 21.4-13.4 2.3 0 4 1.4 4 3.5 0 5-16.8 13.4-21.4 13.4m13.7-21.6c-9.6 0-21.1 8-21.1 17.3 0 4.2 3 9 11 9 10.4 0 21.2-8.4 21.2-17.2 0-5.8-5-9.1-11.1-9.1M2109.3 2761.5c0 4.3 3 9 11 9 10.4 0 21.2-8.4 21.2-17.1 0-5.9-5-9.1-11.1-9.1-9.6 0-21.2 8-21.2 17.2M1548.2 974.6c0 4.3 3.1 9 11.1 9 10.4 0 21.2-8.4 21.2-17.1 0-5.9-5-9.2-11.1-9.2-9.7 0-21.2 8.2-21.2 17.3M1216.2 974.6c0 4.3 3 9 11 9 10.4 0 21.2-8.4 21.2-17.1 0-5.9-5-9.2-11.1-9.2-9.6 0-21.1 8.2-21.1 17.3M1137.9 1866c0 4.3 3 9 11 9 10.4 0 21.2-8.4 21.2-17.1 0-6-5-9.2-11.1-9.2-9.6 0-21.2 8.2-21.2 17.3M1843.2 3520.3c-3.3 0-4-2.6-4-3.5 0-5 16.7-13.4 21.4-13.4q3.8.2 4 3.5c0 5-16.8 13.4-21.4 13.4m13.7-21.6c-9.6 0-21.1 8-21.1 17.3 0 4.2 3 9 11 9 10.4 0 21.2-8.4 21.2-17.2 0-5.8-5-9.1-11-9.1M2695.6 3565.6c0 4.2 3 9 11 9 10.4 0 21.2-8.4 21.2-17.2 0-5.8-5-9.1-11.1-9.1-9.6 0-21.1 8.1-21.1 17.3M1922.2 1697.2c0 4.3 3 9 11 9 10.4 0 21.2-8.4 21.2-17.1 0-5.9-5-9.1-11-9.1-9.7 0-21.2 8-21.2 17.2M2303.3 999.4c0 4.3 3 9 11.1 9 10.3 0 21.2-8.4 21.2-17.1 0-5.9-5-9.2-11.2-9.2-9.6 0-21 8.2-21 17.3M1808.7 1828.8c0 4.3 3.1 9 11.1 9 10.4 0 21.2-8.4 21.2-17.1 0-6-5-9.2-11.1-9.2-9.7 0-21.2 8.2-21.2 17.3M1725 1866c0 4.3 3 9 11.1 9 10.3 0 21.2-8.4 21.2-17.1 0-6-5-9.2-11.2-9.2-9.6 0-21 8.2-21 17.3M2386.3 999.4c0 4.3 3.1 9 11.1 9 10.4 0 21.2-8.4 21.2-17.1 0-5.9-5-9.2-11.1-9.2-9.7 0-21.2 8.2-21.2 17.3M1556.4 1866c0 4.3 3 9 11 9 10.4 0 21.2-8.4 21.2-17.1 0-6-5-9.2-11-9.2-9.7 0-21.2 8.2-21.2 17.3M1472.7 1866c0 4.3 3 9 11 9 10.4 0 21.2-8.4 21.2-17.1 0-6-5-9.2-11-9.2-9.7 0-21.2 8.2-21.2 17.3M1347.1 1866c0 4.3 3 9 11.1 9 10.3 0 21.2-8.4 21.2-17.1 0-6-5-9.2-11.2-9.2-9.6 0-21 8.2-21 17.3M801 974.6c0 4.3 3.1 9 11.2 9 10.3 0 21-8.4 21-17.1 0-5.9-4.9-9.2-11-9.2-9.7 0-21.2 8.2-21.2 17.3M2510.9 999.4c0 4.3 3 9 11 9 10.4 0 21.2-8.4 21.2-17.1 0-5.9-5-9.2-11.1-9.2-9.6 0-21.1 8.2-21.1 17.3M1221.6 1866c0 4.3 3 9 11 9 10.4 0 21.2-8.4 21.2-17.1 0-6-5-9.2-11.1-9.2-9.6 0-21.1 8.2-21.1 17.3M1688.8 999.4c0 4.3 3.1 9 11.1 9 10.4 0 21.2-8.4 21.2-17.1 0-5.9-5-9.2-11.1-9.2-9.7 0-21.2 8.2-21.2 17.3M1054.2 1866c0 4.3 3 9 11 9 10.4 0 21.2-8.4 21.2-17.1 0-6-5-9.2-11.1-9.2-9.6 0-21.1 8.2-21.1 17.3M928.6 1866c0 4.3 3 9 11.1 9 10.3 0 21.1-8.4 21.1-17.1 0-6-5-9.2-11-9.2-9.7 0-21.2 8.2-21.2 17.3M803 1866c0 4.3 3.1 9 11.1 9 10.4 0 21.2-8.4 21.2-17.1 0-6-5-9.2-11.1-9.2-9.7 0-21.2 8.2-21.2 17.3M2676.9 999.4c0 4.3 3 9 11.1 9 10.3 0 21.1-8.4 21.1-17.1 0-5.9-5-9.2-11-9.2-9.7 0-21.2 8.2-21.2 17.3M719.3 1866c0 4.3 3.1 9 11.1 9 10.3 0 21.2-8.4 21.2-17.1 0-6-5-9.2-11.1-9.2-9.7 0-21.2 8.2-21.2 17.3M560.2 1866c0 4.3 3 9 11 9 10.4 0 21.2-8.4 21.2-17.1 0-6-5-9.2-11.1-9.2-9.6 0-21.1 8.2-21.1 17.3M718 974.6c0 4.3 3 9 11.1 9 10.3 0 21.2-8.4 21.2-17.1 0-5.9-5-9.2-11.1-9.2-9.7 0-21.2 8.2-21.2 17.3M2586.7 3602.8c0 4.2 3 9 11 9 10.4 0 21.2-8.4 21.2-17.2 0-5.8-5-9.1-11.1-9.1-9.6 0-21.2 8.1-21.2 17.3M2586.7 3553.2c0 4.2 3 9 11 9 10.4 0 21.2-8.4 21.2-17.2 0-5.8-5-9.1-11.1-9.1-9.6 0-21.2 8.1-21.2 17.3M2586.7 3516c0 4.2 3 9 11 9 10.4 0 21.2-8.4 21.2-17.2 0-5.8-5-9.1-11.1-9.1-9.6 0-21.2 8.1-21.2 17.3M2760 999.4c0 4.3 3 9 11 9 10.3 0 21.2-8.4 21.2-17.1 0-5.9-5-9.2-11.2-9.2-9.6 0-21 8.2-21 17.3M2695.6 3615.2c0 4.2 3 9 11 9 10.4 0 21.2-8.4 21.2-17.2 0-5.8-5-9.1-11.1-9.1-9.6 0-21.1 8.1-21.1 17.3M1843.2 3557.5c-3.3 0-4-2.6-4-3.5 0-5 16.7-13.4 21.4-13.4q3.8.2 4 3.5c0 5-16.8 13.4-21.4 13.4m13.7-21.6c-9.6 0-21.1 8-21.1 17.3 0 4.2 3 9 11 9 10.4 0 21.2-8.4 21.2-17.2 0-5.8-5-9.1-11-9.1M1815.8 2724.3c0 4.3 3 9 11 9 10.4 0 21.2-8.4 21.2-17.1 0-5.9-5-9.1-11.1-9.1-9.6 0-21.1 8-21.1 17.2M1490.3 3602.8c0 4.2 3 9 11 9 10.4 0 21.2-8.4 21.2-17.2 0-5.8-5-9.1-11-9.1-9.7 0-21.2 8.1-21.2 17.3M567.6 2728.7c-3.3 0-4-2.7-4-3.6 0-4.9 16.7-13.4 21.4-13.4 2.3 0 4 1.4 4 3.6 0 5-16.8 13.4-21.4 13.4m13.7-21.6c-9.6 0-21.1 8-21.1 17.2 0 4.3 3 9 11 9 10.4 0 21.2-8.4 21.2-17.1 0-5.9-5-9.1-11.1-9.1M1490.3 3553.2c0 4.2 3 9 11 9 10.4 0 21.2-8.4 21.2-17.2 0-5.8-5-9.1-11-9.1-9.7 0-21.2 8.1-21.2 17.3M1490.3 3516c0 4.2 3 9 11 9 10.4 0 21.2-8.4 21.2-17.2 0-5.8-5-9.1-11-9.1-9.7 0-21.2 8.1-21.2 17.3M1567.8 3615.2c0 4.2 3 9 11.1 9 10.3 0 21.1-8.4 21.1-17.2 0-5.8-5-9.1-11-9.1-9.7 0-21.2 8.1-21.2 17.3M560.2 974.6c0 4.3 3 9 11 9 10.4 0 21.2-8.4 21.2-17.1 0-5.9-5-9.2-11.1-9.2-9.6 0-21.1 8.2-21.1 17.3M1567.8 3565.6c0 4.2 3 9 11.1 9 10.3 0 21.1-8.4 21.1-17.2 0-5.8-5-9.1-11-9.1-9.7 0-21.2 8.1-21.2 17.3M1567.8 3528.4c0 4.2 3 9 11.1 9 10.3 0 21.1-8.4 21.1-17.2 0-5.8-5-9.1-11-9.1-9.7 0-21.2 8.1-21.2 17.3M1846.7 999.4c0 4.3 3 9 11.1 9 10.3 0 21.1-8.4 21.1-17.1 0-5.9-5-9.2-11-9.2-9.7 0-21.2 8.2-21.2 17.3M1050.1 974.6c0 4.3 3 9 11.1 9 10.3 0 21.2-8.4 21.2-17.1 0-5.9-5-9.2-11.2-9.2-9.6 0-21 8.2-21 17.3M1929.7 999.4c0 4.3 3 9 11.1 9 10.3 0 21.2-8.4 21.2-17.1 0-5.9-5-9.2-11.2-9.2-9.6 0-21 8.2-21 17.3M2054.3 999.4c0 4.3 3 9 11 9 10.4 0 21.2-8.4 21.2-17.1 0-5.9-5-9.2-11.1-9.2-9.6 0-21.2 8.2-21.2 17.3M925.6 974.6c0 4.3 3 9 11 9 10.4 0 21.2-8.4 21.2-17.1 0-5.9-5-9.2-11.1-9.2-9.6 0-21.1 8.2-21.1 17.3M2340.7 1585.6c0 4.3 3 9 11.1 9 10.3 0 21.2-8.4 21.2-17.1 0-5.9-5-9.1-11.2-9.1-9.6 0-21 8-21 17.2M2257 1585.6c0 4.3 3 9 11.1 9 10.3 0 21.1-8.4 21.1-17.1 0-5.9-5-9.1-11-9.1-9.7 0-21.2 8-21.2 17.2M2695.6 3528.4c0 4.2 3 9 11 9 10.4 0 21.2-8.4 21.2-17.2 0-5.8-5-9.1-11.1-9.1-9.6 0-21.1 8.1-21.1 17.3M2220.3 999.4c0 4.3 3 9 11.1 9 10.3 0 21.1-8.4 21.1-17.1 0-5.9-5-9.2-11-9.2-9.7 0-21.2 8.2-21.2 17.3M2173.3 1610.4c0 4.3 3 9 11.1 9 10.3 0 21.1-8.4 21.1-17.1 0-5.9-5-9.1-11-9.1-9.7 0-21.2 8-21.2 17.2M2005.9 1672.4c0 4.3 3 9 11 9 10.4 0 21.2-8.4 21.2-17.1 0-5.9-5-9.1-11-9.1-9.7 0-21.2 8-21.2 17.2M1843.2 3607.1c-3.3 0-4-2.6-4-3.5 0-5 16.7-13.4 21.4-13.4q3.8.2 4 3.5c0 5-16.8 13.4-21.4 13.4m13.7-21.6c-9.6 0-21.1 8-21.1 17.3 0 4.2 3 9 11 9 10.4 0 21.2-8.4 21.2-17.2 0-5.8-5-9.1-11-9.1M2137.3 999.4c0 4.3 3 9 11 9 10.4 0 21.2-8.4 21.2-17.1 0-5.9-5-9.2-11.1-9.2-9.6 0-21.1 8.2-21.1 17.3M2089.6 1635.2c0 4.3 3 9 11.1 9 10.3 0 21.1-8.4 21.1-17.1 0-5.9-5-9.1-11-9.1-9.7 0-21.2 8-21.2 17.2M1694.9 1921.5c-2.8 0-4.7-.7-6-3.2s-3-8.9-3.1-11.5q-.3-4 3.1-5.1a14 14 0 0 1 4.3-.6c2.8 0 4.6.6 6 3.3s3.1 9 3.1 11.5c0 4.9-3.3 5.6-7.4 5.6m-.8-23.6c-13.7 0-18.5 7-18.5 13.4s4.8 13.4 18.5 13.4 18.4-7 18.4-13.4-4.7-13.4-18.4-13.4" class="Note"/><path d="M431.2 481q-3 .6-5.8.6c-14.2 0-26.3-9.9-26.3-24.9 0-12 8.6-22.9 17.3-30.4l4.8-4.4 2.2 14.1c-9 2.7-15.1 12.2-15.1 21.5 0 7 5.4 16.5 13.4 16.5.7 0 1.6-.4 1.6-1.3s-1-1.4-2.1-2.2c-4-2.4-6.1-5-6.1-9.8 0-6 4.5-11 10.3-12.3zm-8.8-102c1-4 5.5-14.3 10.7-14.3 1.4 0 3.8 4.8 3.8 11.7 0 10.3-7.6 18-14.5 24.8q-.9-6-1-12 0-5.5 1-10.1m22.9 83.6c0 7-3 14.3-10 17.2l-5.4-32.1c9 0 15.4 6 15.4 14.9m-43.7 48.8c0 6.5 5 15.2 18.5 15.2a23 23 0 0 0 12.3-3.4c5.3-3.8 6.7-10.3 6.7-16.6q0-5.6-1.6-14L436 484c9.8-3.2 17-13.3 17-23.5a24 24 0 0 0-25.1-25.1l-2.9-17.4a56 56 0 0 0 17.8-39.1c0-9-2.8-16.4-4.4-20-2.4-5-5.2-8.5-7-8.5-.7 0-3.8 1.2-7 5-6.4 7.6-8.2 20.3-8.2 28.6 0 5.4.5 10.2 2.2 21.3-.1.1-5.3 5.4-7.4 7-9 8.5-21.5 20.5-21.5 40.4a34 34 0 0 0 34.6 33q4.4 0 7.9-.6 3 14 3 21.7-.1 15.7-15.3 15.8c-2.4 0-4.5-.5-4.7-.5l-.3-.3q0-.3.5-.4a11 11 0 0 0 9.3-11c0-5.4-4-11-11.5-11-7 0-11.4 5.6-11.4 12.2M431.2 1367.5q-3 .6-5.8.6c-14.2 0-26.3-10-26.3-25 0-12 8.6-22.8 17.3-30.4l4.8-4.3 2.2 14c-9 2.7-15.1 12.2-15.1 21.6 0 7 5.4 16.4 13.4 16.4.7 0 1.6-.4 1.6-1.3s-1-1.3-2.1-2.1c-4-2.4-6.1-5-6.1-9.9 0-6 4.5-10.9 10.3-12.3zm-8.8-102c1-4 5.5-14.4 10.7-14.4 1.4 0 3.8 4.9 3.8 11.7 0 10.3-7.6 18-14.5 24.8q-.9-5.8-1-12 0-5.5 1-10.1m22.9 83.6c0 7-3 14.3-10 17.2l-5.4-32c9 0 15.4 6 15.4 14.8m-43.7 48.8c0 6.6 5 15.2 18.5 15.2a23 23 0 0 0 12.3-3.4c5.3-3.7 6.7-10.3 6.7-16.5q0-5.7-1.6-14l-1.5-8.8c9.8-3.2 17-13.3 17-23.6a24 24 0 0 0-25.1-25l-2.9-17.4a56 56 0 0 0 17.8-39.2c0-9-2.8-16.4-4.4-20-2.4-5-5.2-8.5-7-8.5-.7 0-3.8 1.2-7 5-6.4 7.6-8.2 20.3-8.2 28.6 0 5.4.5 10.3 2.2 21.4-.1 0-5.3 5.3-7.4 7-9 8.5-21.5 20.5-21.5 40.3a34 34 0 0 0 34.6 33.1q4.4 0 7.9-.7c1.9 9.6 3 16.5 3 21.8q-.1 15.6-15.3 15.7c-2.4 0-4.5-.4-4.7-.4q-.1-.3-.3-.3 0-.3.5-.4a11 11 0 0 0 9.3-11c0-5.4-4-11-11.5-11-7 0-11.4 5.6-11.4 12.1M431.2 3117.2q-3 .6-5.8.6c-14.2 0-26.3-10-26.3-25 0-12 8.6-22.8 17.3-30.4l4.8-4.3 2.2 14c-9 2.7-15.1 12.2-15.1 21.6 0 7 5.4 16.4 13.4 16.4.7 0 1.6-.4 1.6-1.2 0-1-1-1.4-2.1-2.2-4-2.4-6.1-5-6.1-9.9 0-6 4.5-10.9 10.3-12.2zm-8.8-102c1-4 5.5-14.4 10.7-14.4 1.4 0 3.8 4.9 3.8 11.7 0 10.3-7.6 18-14.5 24.8q-.9-5.9-1-12 0-5.4 1-10.1m22.9 83.6c0 7-3 14.3-10 17.2l-5.4-32c9 0 15.4 6 15.4 14.8m-43.7 48.8c0 6.6 5 15.2 18.5 15.2a23 23 0 0 0 12.3-3.4c5.3-3.7 6.7-10.3 6.7-16.5 0-3.9-.6-8.3-1.6-14l-1.5-8.8c9.8-3.2 17-13.3 17-23.6a24 24 0 0 0-25.1-25L425 3054a56 56 0 0 0 17.8-39.2c0-9-2.8-16.4-4.4-20-2.4-5-5.2-8.5-7-8.5-.7 0-3.8 1.2-7 5-6.4 7.6-8.2 20.3-8.2 28.7 0 5.3.5 10.2 2.2 21.3-.1 0-5.3 5.3-7.4 7-9 8.5-21.5 20.5-21.5 40.3a34 34 0 0 0 34.6 33.1q4.4 0 7.9-.7c1.9 9.6 3 16.5 3 21.8q-.1 15.6-15.3 15.8c-2.4 0-4.5-.5-4.7-.5l-.3-.3q0-.3.5-.4a11 11 0 0 0 9.3-11c0-5.4-4-11-11.5-11-7 0-11.4 5.6-11.4 12.1M431.2 2258.8q-3 .7-5.8.7c-14.2 0-26.3-10-26.3-25 0-12 8.6-22.9 17.3-30.4l4.8-4.4 2.2 14.1c-9 2.7-15.1 12.2-15.1 21.6 0 6.9 5.4 16.4 13.4 16.4.7 0 1.6-.4 1.6-1.3s-1-1.4-2.1-2.2c-4-2.3-6.1-5-6.1-9.8 0-6 4.5-10.9 10.3-12.3zm-8.8-102c1-3.9 5.5-14.3 10.7-14.3 1.4 0 3.8 4.8 3.8 11.7 0 10.3-7.6 18-14.5 24.8q-.9-5.9-1-12 0-5.5 1-10.1m22.9 83.6c0 7-3 14.3-10 17.2l-5.4-32c9 0 15.4 6 15.4 14.8m-43.7 48.8c0 6.6 5 15.2 18.5 15.2a23 23 0 0 0 12.3-3.4c5.3-3.7 6.7-10.3 6.7-16.6q0-5.6-1.6-14l-1.5-8.8c9.8-3.1 17-13.3 17-23.5a24 24 0 0 0-25.1-25l-2.9-17.4a56 56 0 0 0 17.8-39.2c0-9-2.8-16.4-4.4-20-2.4-5-5.2-8.5-7-8.5-.7 0-3.8 1.2-7 5-6.4 7.6-8.2 20.3-8.2 28.6 0 5.4.5 10.3 2.2 21.4-.1 0-5.3 5.3-7.4 7-9 8.4-21.5 20.4-21.5 40.3a34 34 0 0 0 34.6 33.1q4.4 0 7.9-.7 3 14 3 21.7-.1 15.7-15.3 15.8c-2.4 0-4.5-.5-4.7-.5l-.3-.3q0-.3.5-.4a11 11 0 0 0 9.3-11c0-5.3-4-11-11.5-11-7 0-11.4 5.7-11.4 12.2M431.2 746q-3 .6-5.8.6c-14.2 0-26.3-10-26.3-25 0-12 8.6-22.8 17.3-30.4q2.5-2.2 4.8-4.3l2.2 14c-9 2.7-15.1 12.3-15.1 21.6 0 7 5.4 16.5 13.4 16.5.7 0 1.6-.4 1.6-1.3s-1-1.4-2.1-2.2c-4-2.4-6.1-5-6.1-9.8 0-6 4.5-11 10.3-12.3zm-8.8-102c1-4 5.5-14.4 10.7-14.4 1.4 0 3.8 4.9 3.8 11.7 0 10.4-7.6 18-14.5 24.8q-.9-5.9-1-12 0-5.4 1-10m22.9 83.5c0 7-3 14.3-10 17.2l-5.4-32c9 0 15.4 6 15.4 14.8m-43.7 48.8c0 6.6 5 15.2 18.5 15.2a23 23 0 0 0 12.3-3.3c5.3-3.8 6.7-10.4 6.7-16.6 0-3.9-.6-8.3-1.6-14L436 749c9.8-3.2 17-13.3 17-23.5a24 24 0 0 0-25.1-25.1l-2.9-17.4a56 56 0 0 0 17.8-39.2c0-9-2.8-16.3-4.4-20-2.4-5-5.2-8.5-7-8.5-.7 0-3.8 1.2-7 5.1-6.4 7.5-8.2 20.2-8.2 28.6 0 5.3.5 10.2 2.2 21.3-.1.1-5.3 5.4-7.4 7-9 8.5-21.5 20.5-21.5 40.3a34 34 0 0 0 34.6 33.2q4.4 0 7.9-.7c1.9 9.5 3 16.4 3 21.7q-.1 15.6-15.3 15.8c-2.4 0-4.5-.5-4.7-.5l-.3-.3q0-.3.5-.4a11 11 0 0 0 9.3-11c0-5.4-4-11-11.5-11-7 0-11.4 5.6-11.4 12.1M431.2 1601.9q-3 .6-5.8.6c-14.2 0-26.3-10-26.3-25 0-12 8.6-22.8 17.3-30.4l4.8-4.3 2.2 14c-9 2.7-15.1 12.2-15.1 21.6 0 7 5.4 16.4 13.4 16.4.7 0 1.6-.4 1.6-1.2 0-1-1-1.4-2.1-2.2-4-2.4-6.1-5-6.1-9.9 0-6 4.5-10.9 10.3-12.2zm-8.8-102c1-4 5.5-14.4 10.7-14.4 1.4 0 3.8 4.9 3.8 11.7 0 10.3-7.6 18-14.5 24.8q-.9-5.9-1-12 0-5.4 1-10.1m22.9 83.6c0 7-3 14.3-10 17.2l-5.4-32c9 0 15.4 6 15.4 14.8m-43.7 48.8c0 6.6 5 15.2 18.5 15.2a23 23 0 0 0 12.3-3.4c5.3-3.7 6.7-10.3 6.7-16.5 0-3.9-.6-8.3-1.6-14l-1.5-8.8c9.8-3.2 17-13.3 17-23.6a24 24 0 0 0-25.1-25l-2.9-17.4a56 56 0 0 0 17.8-39.2c0-9-2.8-16.4-4.4-20-2.4-5-5.2-8.5-7-8.5-.7 0-3.8 1.2-7 5-6.4 7.6-8.2 20.3-8.2 28.7 0 5.3.5 10.2 2.2 21.3-.1 0-5.3 5.3-7.4 7-9 8.5-21.5 20.5-21.5 40.3a34 34 0 0 0 34.6 33.1q4.4 0 7.9-.7c1.9 9.6 3 16.5 3 21.8q-.1 15.6-15.3 15.8c-2.4 0-4.5-.5-4.7-.5l-.3-.3q0-.3.5-.4a11 11 0 0 0 9.3-11c0-5.4-4-11-11.5-11-7 0-11.4 5.6-11.4 12.1M431.2 3349.3q-3 .6-5.8.6c-14.2 0-26.3-9.9-26.3-24.9 0-12 8.6-22.9 17.3-30.4l4.8-4.4 2.2 14.1c-9 2.7-15.1 12.2-15.1 21.5 0 7 5.4 16.5 13.4 16.5.7 0 1.6-.4 1.6-1.3s-1-1.4-2.1-2.2c-4-2.4-6.1-5-6.1-9.8 0-6 4.5-11 10.3-12.3zm-8.8-102c1-3.9 5.5-14.3 10.7-14.3 1.4 0 3.8 4.8 3.8 11.7 0 10.3-7.6 18-14.5 24.8q-.9-5.9-1-12 0-5.5 1-10.1m22.9 83.6c0 7-3 14.3-10 17.2l-5.4-32c9 0 15.4 6 15.4 14.8m-43.7 48.8c0 6.6 5 15.2 18.5 15.2a23 23 0 0 0 12.3-3.4c5.3-3.8 6.7-10.3 6.7-16.6q0-5.6-1.6-14l-1.5-8.8c9.8-3.2 17-13.3 17-23.5a24 24 0 0 0-25.1-25l-2.9-17.4a56 56 0 0 0 17.8-39.2c0-9-2.8-16.4-4.4-20-2.4-5-5.2-8.5-7-8.5-.7 0-3.8 1.2-7 5-6.4 7.6-8.2 20.3-8.2 28.6 0 5.4.5 10.2 2.2 21.4-.1 0-5.3 5.3-7.4 7-9 8.4-21.5 20.4-21.5 40.3a34 34 0 0 0 34.6 33.1q4.4 0 7.9-.7 3 14 3 21.7-.1 15.7-15.3 15.8c-2.4 0-4.5-.5-4.7-.5l-.3-.3q0-.3.5-.4a11 11 0 0 0 9.3-11c0-5.3-4-11-11.5-11-7 0-11.4 5.7-11.4 12.2M431.2 2495.7q-3 .6-5.8.6c-14.2 0-26.3-10-26.3-25 0-12 8.6-22.8 17.3-30.4q2.5-2.2 4.8-4.3l2.2 14c-9 2.8-15.1 12.3-15.1 21.6 0 7 5.4 16.5 13.4 16.5.7 0 1.6-.4 1.6-1.3s-1-1.4-2.1-2.2c-4-2.4-6.1-5-6.1-9.8 0-6 4.5-11 10.3-12.3zm-8.8-102c1-4 5.5-14.4 10.7-14.4 1.4 0 3.8 4.9 3.8 11.7 0 10.4-7.6 18.1-14.5 24.8q-.9-5.9-1-12 0-5.5 1-10m22.9 83.5c0 7.1-3 14.3-10 17.2l-5.4-32c9 0 15.4 6 15.4 14.8m-43.7 48.9c0 6.5 5 15.1 18.5 15.1a23 23 0 0 0 12.3-3.3c5.3-3.8 6.7-10.4 6.7-16.6q0-5.7-1.6-14l-1.5-8.8c9.8-3.2 17-13.3 17-23.5a24 24 0 0 0-25.1-25.1l-2.9-17.4a56 56 0 0 0 17.8-39.2c0-9-2.8-16.3-4.4-20-2.4-5-5.2-8.4-7-8.4-.7 0-3.8 1.1-7 5-6.4 7.6-8.2 20.3-8.2 28.6 0 5.3.5 10.2 2.2 21.3-.1.1-5.3 5.4-7.4 7-9 8.5-21.5 20.5-21.5 40.3a34 34 0 0 0 34.6 33.2q4.4 0 7.9-.7c1.9 9.5 3 16.4 3 21.7q-.1 15.6-15.3 15.8c-2.4 0-4.5-.5-4.7-.5l-.3-.3q0-.3.5-.4a11 11 0 0 0 9.3-11c0-5.4-4-11-11.5-11-7 0-11.4 5.6-11.4 12.2M445.8 2633.4c0 2.8 2.2 5 4.8 5s4.8-2.2 4.8-5-2.2-5-4.8-5-4.8 2.3-4.8 5m-31-12.5c-7.6 0-13.7 4.3-13.8 4.3a23 23 0 0 0-9.6 18c0 7.3 4.2 12.7 11.5 12.7 6.4 0 11.3-4.3 11.3-10.8a10.6 10.6 0 0 0-13.7-9.9c-1 .4-2.7 1.4-3.5 2.1.7-4.4 3.7-8.7 7.6-10.8a19 19 0 0 1 9.1-2q15.1 0 15.1 24.8c0 13-8.2 31.5-18 40.2a85 85 0 0 1-20.1 13.9s-1.2.7-1.2 1.9l.1.5c.3 1 1.2 1.2 1.8 1.2l.5-.1s11.4-4.7 20.4-11.8c14-10 29.6-27.6 29.6-45.9 0-17.2-9.3-28.3-27.2-28.3m31.1 37c0 2.8 2.2 5.1 4.8 5.1s4.8-2.3 4.8-5-2.2-5.1-4.8-5.1-4.8 2.3-4.8 5M445.8 1775.1c0 2.8 2.2 5 4.8 5s4.8-2.2 4.8-5-2.2-5-4.8-5-4.8 2.2-4.8 5m-31-12.6c-7.6 0-13.7 4.4-13.8 4.4a23 23 0 0 0-9.6 18c0 7.3 4.2 12.6 11.5 12.6 6.4 0 11.3-4.2 11.3-10.8a10.6 10.6 0 0 0-13.7-9.8c-1 .4-2.7 1.4-3.5 2 .7-4.3 3.7-8.6 7.6-10.7a19 19 0 0 1 9.1-2q15.1-.1 15.1 24.8c0 12.9-8.2 31.4-18 40.2a85 85 0 0 1-20.1 13.9s-1.2.6-1.2 1.8l.1.5c.3 1 1.2 1.2 1.8 1.2h.5s11.4-4.7 20.4-11.8c14-10 29.6-27.6 29.6-46 0-17.2-9.3-28.3-27.2-28.3m31.1 37.1c0 2.8 2.2 5 4.8 5s4.8-2.2 4.8-5-2.2-5-4.8-5-4.8 2.2-4.8 5M445.8 883.7c0 2.8 2.2 5 4.8 5s4.8-2.2 4.8-5-2.2-5-4.8-5-4.8 2.3-4.8 5m-31-12.6c-7.6 0-13.7 4.4-13.8 4.4a23 23 0 0 0-9.6 18c0 7.3 4.2 12.7 11.5 12.7 6.4 0 11.3-4.3 11.3-10.9a10.6 10.6 0 0 0-13.7-9.8c-1 .4-2.7 1.4-3.5 2.1.7-4.4 3.7-8.7 7.6-10.8a19 19 0 0 1 9.1-2q15.1-.1 15.1 24.8c0 12.9-8.2 31.5-18 40.2a85 85 0 0 1-20.1 13.9s-1.2.7-1.2 1.9l.1.5c.3 1 1.2 1.2 1.8 1.2l.5-.1s11.4-4.7 20.4-11.8c14-10 29.6-27.6 29.6-45.9 0-17.3-9.3-28.4-27.2-28.4m31.1 37.1c0 2.8 2.2 5.1 4.8 5.1s4.8-2.3 4.8-5-2.2-5.1-4.8-5.1-4.8 2.3-4.8 5M445.8 3487c0 2.9 2.2 5 4.8 5s4.8-2.1 4.8-5c0-2.7-2.2-5-4.8-5s-4.8 2.3-4.8 5m-31-12.5c-7.6 0-13.7 4.4-13.8 4.4a23 23 0 0 0-9.6 18c0 7.3 4.2 12.6 11.5 12.6 6.4 0 11.3-4.2 11.3-10.8a10.6 10.6 0 0 0-13.7-9.8c-1 .4-2.7 1.4-3.5 2 .7-4.3 3.7-8.7 7.6-10.8a19 19 0 0 1 9.1-2q15.1 0 15.1 24.9c0 12.9-8.2 31.4-18 40.2a85 85 0 0 1-20.1 13.8s-1.2.7-1.2 2l.1.4c.3 1 1.2 1.2 1.8 1.2h.5s11.4-4.7 20.4-11.8c14-10 29.6-27.7 29.6-46 0-17.2-9.3-28.3-27.2-28.3m31.1 37.1c0 2.8 2.2 5 4.8 5s4.8-2.2 4.8-5-2.2-5-4.8-5-4.8 2.2-4.8 5" class="Clef"/><path d="m481.7 3015 8.8-1.8v16.4l-8.8 1.9zm15.4-3q1-.4 1-1.5v-5.8q0-1.3-1.3-1.4h-.2l-3.3.7v-14.8h-2.8v15.4l-8.8 1.8v-14h-2.8v14.6l-3.8.8c-.6 0-1.1.8-1.1 1.4v5.7q.1 1.3 1.4 1.4h.3l3.2-.7v16.4l-3.8.8c-.6 0-1.1.8-1.1 1.4v5.7q.1 1.3 1.4 1.4h.3l3.2-.7v14.8h2.8V3040l8.8-1.8v14h2.8v-14.6l3.8-.7c.6 0 1-.8 1-1.4v-5.8q0-1.3-1.3-1.4h-.2l-3.3.7v-16.4zM481.7 2156.7l8.8-1.8v16.4l-8.8 1.8zm15.4-3.1c.6 0 1-.8 1-1.4v-5.8q0-1.3-1.3-1.4h-.2l-3.3.7v-14.8h-2.8v15.4l-8.8 1.8v-14h-2.8v14.5l-3.8.8q-1 .3-1.1 1.4v5.8q.1 1.3 1.4 1.4h.3l3.2-.7v16.3l-3.8.8q-1 .3-1.1 1.4v5.8q.1 1.3 1.4 1.4h.3l3.2-.7v14.8h2.8v-15.4l8.8-1.8v14h2.8v-14.6l3.8-.7q1-.3 1-1.4v-5.8q0-1.3-1.3-1.4h-.2l-3.3.7v-16.4zM481.7 378.9l8.8-1.8v16.3l-8.8 2zm15.4-3.1q1-.3 1-1.4v-5.9q0-1.2-1.3-1.4h-.2l-3.3.7v-14.7h-2.8v15.3l-8.8 1.8v-14h-2.8v14.6l-3.8.8q-1 .3-1.1 1.4v5.8q.1 1.2 1.4 1.4h.3l3.2-.7v16.3l-3.8.8q-1 .3-1.1 1.4v5.8q.1 1.2 1.4 1.3h.3l3.2-.6v14.7h2.8V404l8.8-1.8v14h2.8v-14.6l3.8-.7q1-.3 1-1.4v-5.9q0-1.3-1.3-1.3h-.2l-3.3.6v-16.3zM481.7 1265.3l8.8-1.8v16.4l-8.8 1.9zm15.4-3q1-.5 1-1.5v-5.8q0-1.3-1.3-1.4h-.2l-3.3.7v-14.8h-2.8v15.4l-8.8 1.8v-14h-2.8v14.6l-3.8.8c-.6 0-1.1.7-1.1 1.3v5.8q.1 1.3 1.4 1.4h.3l3.2-.7v16.4l-3.8.8q-1 .2-1.1 1.4v5.7q.1 1.3 1.4 1.4h.3l3.2-.7v14.8h2.8v-15.4l8.8-1.8v14h2.8V1288l3.8-.7c.6 0 1-.8 1-1.4v-5.8q0-1.3-1.3-1.4h-.2l-3.3.7v-16.4zM481.7 3247.2l8.8-1.8v16.3l-8.8 2zm15.4-3.1q1-.3 1-1.4v-5.8q0-1.3-1.3-1.4h-.2l-3.3.7v-14.8h-2.8v15.3l-8.8 1.8v-14h-2.8v14.6l-3.8.8q-1 .3-1.1 1.4v5.8q.1 1.3 1.4 1.4h.3l3.2-.7v16.3l-3.8.8q-1 .3-1.1 1.4v5.8q.1 1.3 1.4 1.4h.3l3.2-.7v14.7h2.8v-15.3l8.8-1.8v14h2.8v-14.6l3.8-.7q1-.3 1-1.4v-5.8q0-1.3-1.3-1.4h-.2l-3.3.7v-16.4zM481.7 643.8l8.8-1.8v16.4l-8.8 1.9zm15.4-3q1-.3 1-1.5v-5.8q0-1.3-1.3-1.4h-.2l-3.3.7V618h-2.8v15.4l-8.8 1.8v-14h-2.8v14.6l-3.8.8c-.6 0-1.1.8-1.1 1.4v5.7q.1 1.3 1.4 1.4h.3l3.2-.7v16.4l-3.8.8c-.6 0-1.1.8-1.1 1.4v5.7q.1 1.3 1.4 1.4h.3l3.2-.7v14.8h2.8v-15.4l8.8-1.8v14h2.8v-14.6l3.8-.7c.6 0 1-.7 1-1.3v-5.9q0-1.3-1.3-1.4h-.2l-3.3.7v-16.4zM481.7 1499.7l8.8-1.8v16.4l-8.8 1.9zm15.4-3q1-.5 1-1.5v-5.8q0-1.3-1.3-1.4h-.2l-3.3.7v-14.8h-2.8v15.4l-8.8 1.8v-14h-2.8v14.6l-3.8.8c-.6 0-1.1.8-1.1 1.4v5.7q.1 1.3 1.4 1.4h.3l3.2-.7v16.4l-3.8.8c-.6 0-1.1.8-1.1 1.4v5.7q.1 1.3 1.4 1.4h.3l3.2-.7v14.8h2.8v-15.4l8.8-1.8v14h2.8v-14.6l3.8-.7c.6 0 1-.8 1-1.4v-5.8q0-1.3-1.3-1.4h-.2l-3.3.7v-16.4zM481.7 2393.5l8.8-1.8v16.4l-8.8 1.9zm15.4-3q1-.3 1-1.4v-5.9q0-1.3-1.3-1.4h-.2l-3.3.7v-14.8h-2.8v15.4l-8.8 1.8v-14h-2.8v14.6l-3.8.8c-.6 0-1.1.8-1.1 1.4v5.7q.1 1.3 1.4 1.4h.3l3.2-.7v16.4l-3.8.8c-.6 0-1.1.8-1.1 1.4v5.7q.1 1.3 1.4 1.4h.3l3.2-.7v14.8h2.8v-15.4l8.8-1.8v14h2.8v-14.5l3.8-.7q1-.4 1-1.4v-5.9q0-1.3-1.3-1.4h-.2l-3.3.7v-16.3zM481.7 3492l8.8-1.7v16.3l-8.8 2zm15.4-3.1q1-.3 1-1.4v-5.9q0-1.2-1.3-1.3h-.2l-3.3.6v-14.7h-2.8v15.3l-8.8 1.8v-14h-2.8v14.6l-3.8.8q-1 .3-1.1 1.4v5.8q.1 1.3 1.4 1.4h.3l3.2-.7v16.3l-3.8.8q-1 .3-1.1 1.4v5.8q.1 1.3 1.4 1.3h.3l3.2-.6v14.7h2.8v-15.3l8.8-1.8v14h2.8v-14.6l3.8-.7q1-.3 1-1.4v-5.9q0-1.2-1.3-1.3h-.2l-3.3.6v-16.3zM481.7 888.7l8.8-1.8v16.4l-8.8 1.9zm15.4-3q1-.5 1-1.5v-5.8q0-1.3-1.3-1.4h-.2l-3.3.7v-14.8h-2.8v15.4l-8.8 1.8v-14h-2.8v14.6l-3.8.8q-1 .2-1.1 1.4v5.7q.1 1.3 1.4 1.4h.3l3.2-.7v16.4l-3.8.8q-1 .2-1.1 1.4v5.7q.1 1.3 1.4 1.4h.3l3.2-.7v14.8h2.8v-15.4l8.8-1.8v14h2.8v-14.6l3.8-.7c.6 0 1-.8 1-1.4v-5.8q0-1.3-1.3-1.4h-.2l-3.3.7v-16.4zM481.7 1780l8.8-1.7v16.4l-8.8 1.8zm15.4-3.1c.6 0 1-.8 1-1.4v-5.8q0-1.3-1.3-1.4h-.2l-3.3.7v-14.8h-2.8v15.4l-8.8 1.8v-14h-2.8v14.5l-3.8.8q-1 .3-1.1 1.4v5.8q.1 1.3 1.4 1.4h.3l3.2-.7v16.3l-3.8.8q-1 .3-1.1 1.4v5.8q.1 1.3 1.4 1.4h.3l3.2-.7v14.8h2.8V1805l8.8-1.8v14h2.8v-14.6l3.8-.7q1-.3 1-1.4v-5.8q0-1.3-1.3-1.4h-.2l-3.3.7v-16.4zM481.7 2638.4l8.8-1.8v16.4l-8.8 1.9zm15.4-3q1-.4 1-1.5v-5.8q0-1.3-1.3-1.4h-.2l-3.3.7v-14.8h-2.8v15.4l-8.8 1.8v-14h-2.8v14.6l-3.8.8c-.6 0-1.1.8-1.1 1.4v5.7q.1 1.3 1.4 1.4h.3l3.2-.7v16.4l-3.8.8c-.6 0-1.1.8-1.1 1.4v5.7q.1 1.3 1.4 1.4h.3l3.2-.7v14.8h2.8v-15.4l8.8-1.8v14h2.8V2661l3.8-.7c.6 0 1-.8 1-1.4v-5.8q0-1.3-1.3-1.4h-.2l-3.3.7V2636z" class="KeySig"/><path d="M1835.8 3071c0 1.4 0 1.4 1.4 1.4h29.4c1.4 0 1.4 0 1.4-1.4v-10.8c0-1.3 0-1.3-1.4-1.3h-29.4c-1.4 0-1.4 0-1.4 1.3zM583 452.3l-.6-.7-11.4-14.1-.2-.6q0-.5.2-.9l10-15.3q.3-.4.3-.7v-.9q0-.5-.3-.8l-16-21.7s-.5-.6-1-.6q-.5 0-.9.3-.6.5-.5 1 .1 1 .3 1.1l7.6 10.3q.3.4.3 1.2t-.3 1.2l-10 15.3-.2.8v.9q0 .5.3.8l11 13.8q-.5-.4-2.4-.4c-5 0-9 4.2-9 9.3q0 2.2 1 3.8c2.1 3.2 9.6 12.6 9.6 12.6s.5.6 1.2.6q.3 0 .6-.2.7-.5.7-1.2 0-.5-.3-.9l-3.5-6.2s-.7-1.4-.7-3.2c0-3.2 2.4-5.7 5.5-5.7a6 6 0 0 1 3.2.9l3.9 2.5.8.1q.6.1 1-.5.3-.4.3-.8t-.3-.8zM1838.6 2230l-.6-.6-11.4-14-.2-.7q0-.5.2-.9l10.1-15.3.2-.7v-.8q0-.5-.3-.8l-16-21.8s-.5-.6-1-.6q-.5 0-.9.3-.5.5-.4 1 .1 1 .2 1.1l7.6 10.3q.3.5.3 1.2 0 .8-.3 1.2l-10 15.3-.2.8v.9q0 .5.3.8l11 13.8q-.5-.2-2.4-.3c-5 0-9 4.1-9 9.2q0 2.2 1 3.9c2.1 3.1 9.6 12.6 9.6 12.6s.5.6 1.2.6q.3 0 .6-.2.7-.6.7-1.2t-.3-1l-3.5-6.2s-.7-1.4-.7-3.2c0-3.1 2.4-5.7 5.6-5.7a6 6 0 0 1 3.1.9l4 2.5q0 .1.7.2.6 0 1-.5.3-.5.3-1l-.3-.7zM1134.5 3046.7q-1.3 0-1.4 1.3v10.8q.1 1.3 1.4 1.3h29.5q1.3 0 1.4-1.3V3048q-.1-1.2-1.4-1.3zM583 1338.7l-.6-.7-11.4-14-.2-.7q0-.5.2-.9l10-15.2q.3-.4.3-.7v-1q0-.3-.3-.7l-16-21.7s-.5-.6-1-.6q-.5 0-.9.3-.6.4-.5 1 .1.9.3 1l7.6 10.4q.3.4.3 1.1t-.3 1.2l-10 15.3-.2.8v1q0 .4.3.7l11 13.8q-.5-.2-2.4-.3c-5 0-9 4.2-9 9.2q0 2.2 1 3.9c2.1 3.2 9.6 12.6 9.6 12.6s.5.6 1.2.6q.3 0 .6-.2.7-.6.7-1.2t-.3-1l-3.5-6.2s-.7-1.4-.7-3.1c0-3.2 2.4-5.8 5.5-5.8a6 6 0 0 1 3.2 1l3.9 2.4.8.2q.6 0 1-.5l.3-.9q0-.4-.3-.8zM1711.6 452.3l-.5-.7-11.5-14.1-.2-.6.2-.9 10.2-15.3.2-.7v-.9q0-.5-.3-.8l-16.1-21.7s-.4-.6-1-.6q-.4 0-.8.3-.5.5-.5 1 .2 1 .3 1.1l7.6 10.3.2 1.2q0 .7-.2 1.2l-10 15.3q-.3.4-.3.8v.9q0 .5.3.8l11.1 13.8q-.7-.4-2.4-.4c-5.1 0-9 4.2-9 9.3q-.1 2.2 1 3.8c2.1 3.2 9.5 12.6 9.5 12.6s.5.6 1.2.6q.3 0 .6-.2.7-.5.7-1.2 0-.5-.3-.9l-3.4-6.2s-.7-1.4-.7-3.2c0-3.2 2.3-5.7 5.5-5.7a6 6 0 0 1 3.2.9l3.9 2.5.8.1q.5.1 1-.5l.2-.8q0-.4-.3-.8z" class="Rest"/><path fill-rule="evenodd" d="m830.8 361.4 127 6.2V380l-127-6.2zM2250 380h168.6v12.4H2250zM2616.4 3041l111.4 6.1v12.5l-111.4-6.2zM2616.4 3059.5l27.3 1.6v12.4l-27.3-1.5zM2035.6 1241.6l170 12.4v12.5l-170-12.4zM2035.6 1260.2l86.2 6.3v12.5l-86.2-6.3zM1959.5 361.4l127 6.2V380l-127-6.2zM832.8 1247.8l128 6.2v12.5l-128-6.2zM2540.6 380l168.5 6.2v12.4l-168.5-6.2zM2540.6 398.6l85.5 3.1v12.4l-85.5-3.1zM1079.9 373.8h417.6v12.4h-417.6zM2621.6 1247.8l128 6.2v12.5l-128-6.2zM560.2 793.8h160.3v12.4H560.2zM720.5 775.2h-27.3v12.4h27.3zM560.2 1649.7h161.6v12.3H560.2zM721.8 1631h-27.3v12.5h27.3zM1865.5 3229.7l235 6.2v12.4l-235-6.2zM1865.5 3248.3l235 6.2v12.4l-235-6.2zM2175.6 3254.5h235v12.4h-235zM2175.6 3273.1h235v12.4h-235zM2466.3 1606.3h253.6v12.4h-253.6zM2250 620.2h168.6v12.4H2250zM2250 638.8h85.6v12.4H2250zM2005.9 1736.4l253.6-31v12.5l-253.6 31zM2005.9 1717.8l253.6-31v12.5l-253.6 31zM803 1637.3h128v12.4H803zM1054.2 1649.7H1224v12.3h-169.8zM1054.2 1631h86.1v12.5h-86.1zM2540.6 620.2h251.6v12.4h-251.6zM2706.7 638.8h85.5v12.4h-85.5zM801 781.4h127v12.4H801zM1347.1 1649.7H1559v12.3H1347zM1472.7 1631h86.2v12.5h-86.2zM1520 3223.5l235 12.4v12.4l-235-12.4zM1520 3242.1l235 12.4v12.4l-235-12.4zM1210 3229.7h235v12.4h-235zM1210 3248.3h235v12.4h-235zM1718.6 620.2h160.3v12.4h-160.3zM1879 638.8h-27.3v12.4h27.2zM590 3186.3l235 18.6v12.4l-235-18.6zM590 3204.9l235 18.6v12.4l-235-18.6zM1340.7 793.8h210v12.4h-210zM1465.2 775.2h85.5v12.4h-85.5zM1845.5 2351.3l736.2-6.2v12.4l-736.2 6.2zM1845.5 2369.9l27.3-.3v12.4l-27.3.3zM2581.7 2363.7l-27.3.2v12.4l27.3-.2zM900 3211.1h235v12.4H900zM900 3229.7h235v12.4H900zM1959.5 626.4h127v12.4h-127zM1050.1 793.8h168.5v12.4h-168.5zM1050.1 775.2h85.5v12.4h-85.5zM1845.5 2639.6l736.2 6.2v12.3l-736.2-6.2zM1845.5 2658.2l27.3.2v12.4l-27.3-.2zM2581.7 2664.4l-27.3-.3v12.4l27.3.3zM1084 1781.2h169.8v12.4h-169.9zM1084 1799.8h86v12.4h-86zM832.8 1781.2h128v12.4h-128zM1718.6 914.6h160.3V927h-160.3zM1879 933.2h-27.3v12.4h27.2zM2540.6 914.6h251.6V927h-251.6zM2706.7 933.2h85.5v12.4h-85.5zM1520 3431.2l80 6.2v12.4l-80-6.2zM1520 3449.8l27.3 2.1v12.4l-27.3-2zM830.8 889.8h127v12.4h-127zM1376.9 1781.2h211.7v12.4H1377zM1502.4 1799.8h86.2v12.4h-86.2zM590 1781.2h161.6v12.4H589.9zM751.6 1799.8h-27.3v12.4h27.3zM1370.4 889.8h210v12.4h-210zM1495 908.4h85.5v12.4H1495zM590 889.8h160.3v12.4H589.9zM750.3 908.4H723v12.4h27.3zM1754.8 1749.5l169.9-18.6v12.5l-170 18.6zM1754.8 1768.1l169.9-18.6v12.5l-170 18.6zM2616.4 3431.2l111.4 6.2v12.4l-111.4-6.2zM2616.4 3449.8l27.3 1.5v12.4l-27.3-1.5zM2250 914.6h168.6V927H2250zM2250 933.2h85.6v12.4H2250zM1079.9 889.8h168.5v12.4h-168.5zM1079.9 908.4h85.5v12.4h-85.5zM1959.5 914.6h210V927h-210zM2084 933.2h85.5v12.4H2084z" class="Beam"/><path d="M2565.7 3172.7h-1.9l-2 3c-3.6-2.7-5.5-3.4-9-3.4q-7 0-12 6-4.9 5.6-4.8 13.1c0 10.8 7 18.5 17 18.5 8 0 13-4.7 14.2-13.1l-2.4-.4q-2 11.1-11.3 11.2-11 .1-10.9-16c0-5.7.8-9.4 2.5-12.4a9 9 0 0 1 7.8-4.6q5.4.2 8.5 5c1 1.7 1.7 3.6 2.9 7.5h2.2zm16.6 12.4c-6.2 0-11 5.5-11 12.5 0 6.8 4.9 12.3 10.9 12.3s10.8-5.5 10.8-12.4-4.8-12.4-10.7-12.4m0 2.1q5.3.2 5.4 10.3-.1 10-5.5 10.2-5.5-.2-5.6-10.1 0-10.4 5.7-10.4m33 22.3 9-.4v-2.1h-1.2c-3-.1-3.2-.4-3.2-3.7v-17.5l-9.3.6v2.2h2.5c1.9 0 2.1.3 2.1 2.5v6c0 4.5-1 9.7-6.5 9.7q-2.5 0-3.5-1.5c-.6-1-.8-1.5-.8-4.2v-15.3l-8.7.6v2.2h1.9c1.9 0 2.1.3 2.1 2.5v10.7c0 2.6.2 3.8 1 4.9q2.2 3.1 6.7 3.2 4.8.2 7.8-4.6zm20.2-37.2-9.3.5v2.2h2.5c1.8 0 2 .3 2 2.5v27.8q0 1-.2 1.3-.4.7-3.5.7h-.3v1.8h13v-1.8h-.4c-3.4 0-3.8-.3-3.8-2.1zm24.5 37.3 8.7-.4v-2.1h-.9c-2.8-.2-3-.4-3-3.7v-31l-9.9.5v2.2h3c1.9 0 2.1.3 2.1 2.5v11.3a8 8 0 0 0-6.9-3.7c-5.6 0-10 5.5-10 12.6s4.2 12.2 10 12.2q4.6.1 7-4.3zm-6-21.7c2 0 4 1.5 5 3.8q.9 2.3.9 6c0 5.8-2.3 9.6-6 9.6-3.5 0-5.6-3.3-5.6-8.9q0-4.4 1-6.9c.8-2.2 2.7-3.6 4.7-3.6M2059.8 558.4h-4.8v2.2h4.8v17.3q0 1-.3 1.3-.3.7-3.5.7h-.2v1.8h12.6V580h-.2c-3.2 0-3.7-.3-3.7-2.1v-17.2h8.3c2.1 0 2.2.3 2.2 3.4v14q0 .9-.3 1.2-.5.7-3.5.7h-.2v1.8h12.7V580h-.2c-3.3 0-3.8-.3-3.8-2.1V558c-3.7.3-5 .3-7.7.3h-7.5v-1c0-5 1.3-10.5 7.3-10.5q2.4 0 2.3.8 0 .2-.3.7-.5.7-.5 1.8c0 1.5 1.3 2.6 3.1 2.6q3-.2 3.1-3c0-3-2.8-4.9-7.3-4.9q-5.9 0-9.2 3.5c-2.3 2.2-3.2 5-3.2 9.6zm35 0-8.7.6v2.1h1.8c2 0 2.2.4 2.2 2.5V578q0 1-.3 1.3-.4.7-3.5.7h-.2v1.8h12.7V580h-.2c-3.3 0-3.8-.3-3.8-2.1v-7.4q0-4 .9-5.9c1-2.2 3.3-3.8 5.4-3.8 1.3 0 2.8.7 3.6 1.8q1.1 1.5 1 5v10.4q0 1-.2 1.3-.5.7-3.5.7h-.2v1.8h12.6V580h-.2c-3.2 0-3.7-.3-3.7-2.1v-10c0-3.7-.2-4.6-1-6.3a7 7 0 0 0-6.8-3.8q-4.7 0-8 4.8zm39.6 23.6 8.7-.4v-2.1h-.9c-2.8-.2-3-.5-3-3.7v-31l-9.8.5v2.2h2.9c1.9 0 2.1.3 2.1 2.5v11.3a8 8 0 0 0-6.9-3.7c-5.6 0-9.9 5.4-9.9 12.6s4.1 12.2 10 12.2q4.5 0 6.8-4.4zm-5.9-21.7q3.3.2 5 3.8.9 2.2.9 6c0 5.8-2.3 9.6-6 9.6-3.5 0-5.6-3.3-5.6-8.9q0-4.4 1-6.9c.8-2.2 2.7-3.6 4.7-3.6M1226.2 558.4l-8.9.6v2.1h2c2 0 2.2.4 2.2 2.5V578q0 1-.3 1.3c-.4.5-1.3.7-3.5.7h-.2v1.8h12.7V580h-.3c-3.2 0-3.7-.3-3.7-2.2v-9.2c0-4.5 2.5-7.8 5.7-7.8q4.3 0 4.3 6.1V578q0 .9-.4 1.2-.2.7-3.4.7h-.2v1.8h12.6V580h-.1c-3.4 0-3.8-.3-3.8-2.1v-8.9c0-5 2.3-8.2 5.8-8.2q4.2 0 4.2 6.7v10.5q0 1-.4 1.3-.2.7-3.4.7h-.2v1.8h12.6V580h-.2c-3.2 0-3.7-.3-3.7-2.2v-11.3c0-3.1-.3-4.2-1.6-5.9a7 7 0 0 0-5.9-2.8q-4.7-.1-7.8 5a7 7 0 0 0-6.9-5q-4.3-.1-7.2 4.6zm57.6 12c0-7.4-4.2-12.7-10.3-12.7-6.4 0-11.2 5.5-11.2 13 0 7 4.6 11.8 11.3 11.8q7.2 0 10.2-7.1l-1.7-1c-2 3.9-4.2 5.4-7.5 5.4q-3.8 0-5.7-3.3-1.4-2.1-1.3-6zm-16.1-2.2c0-3.5 1.6-8.5 5.8-8.5 3 0 5 2.7 5 6.7q.1 2-2 1.8zm26.5 3.9c0-5 .5-6.3 3.7-9 5-4.3 6-6 6-9.6 0-5.2-3.8-8.7-9.5-8.7s-9.8 3.1-9.8 7.4c0 2.2 1.4 3.9 3.3 3.9 1.6 0 2.8-1.2 2.8-2.8q0-1.4-1.4-2.6c-.8-.6-.8-.7-.8-1.1 0-1.3 2.1-2.5 4.6-2.5q5.4.1 5.6 6.1 0 3.1-1.6 5.4c-3.7 5-3.7 5-4.4 6.8-.5 1.4-.7 2.7-.7 5v1.7zm-1.2 4a3 3 0 0 0-3.1 3.1c0 1.8 1.4 3.2 3 3.2 1.8 0 3.2-1.4 3.2-3.2 0-1.7-1.4-3-3-3M769 1410.1H756v2.4h1c2.8 0 3.7.2 4 .7.5.4.5.5.5 3v19.2c0 6.8-1 8.3-5.9 8.5v2.3H770v-2.3c-4.8-.2-5.8-1.7-5.8-8.5v-22l12 32.8h2l11.1-32.9v26.8c0 2.6 0 2.6-.3 3.1-.4.5-1.4.7-4.2.7h-.9v2.3h16.4v-2.3h-.9c-2.8 0-3.8-.2-4.2-.7-.3-.5-.3-.5-.3-3.1v-23.8c0-2.6 0-2.7.3-3.1.4-.5 1.4-.7 4.2-.7h.9v-2.4h-12.5l-9.2 26.7zm55.4 20c0-3.1-.5-4.7-2-6q-2.4-2-7.3-2c-5.6 0-9.7 2.7-9.7 6.4q.1 2.9 2.9 3 2.5-.1 2.7-2.5 0-1-.8-2-.4-.5-.3-.8c0-1 2-1.9 4.4-1.9 1.6 0 3.3.5 4.1 1.3q1.4 1 1.3 4.2v2c-5.2.9-6.8 1.3-9.3 2.2q-6.4 2.5-6.4 7.2c0 3.5 2.8 5.8 7.3 5.8q5.3 0 8.7-4 1 3.8 4.4 3.6c2.2 0 4.6-1.4 4.6-3q0-.5-.5-.5l-.8.2q-1 .4-1.4.4-2 .1-1.9-3.5zm-4.7 6c0 3-.1 3.7-1 5a7 7 0 0 1-5.7 3.1c-2.3 0-4-1.6-4-3.9q0-3 3.3-4.6a29 29 0 0 1 7.4-1.9zm19.9-2v-24.8l-9.3.5v2.2h2.4c2 0 2.2.3 2.2 2.5v27.9q0 1-.3 1.2-.4.7-3.5.7h-.2v1.8h12.7v-1.8h-.2c-3.4 0-3.8-.3-3.8-2.1v-5l3-3 6 8.4.3.8q.2 1-2.2 1h-1v1.7H859v-1.8c-2.8-.2-3.8-.8-5.9-3.4l-7-9.7 2.2-2.2c3-2.9 5-4 8.4-4.4v-1.8h-13.1v1.8h1.5q2.4 0 2.4 1 0 .7-1.2 2zm42 .8c0-7.5-4.2-12.8-10.3-12.8-6.4 0-11.2 5.5-11.2 13 0 7 4.6 11.8 11.3 11.8q7.2 0 10.2-7.1l-1.7-1c-2 3.9-4.2 5.4-7.5 5.4q-3.8 0-5.7-3.3-1.4-2.1-1.3-6zm-16.1-2.2c0-3.5 1.6-8.5 5.8-8.5 3 0 5 2.7 5 6.7q.1 2-2 1.8zM794.1 563.9l-8.4-13.6q-.5-.9-.5-1.4-.1-1 2-1h2.9v-2.3H774v2.4h1.1c2.3 0 2.9.3 4 2.3l10.9 17v8.3c0 2.5 0 2.6-.3 3-.5.6-1.4.8-4.2.8h-1.3v2.3h17.1v-2.3H800c-2.8 0-3.7-.2-4.1-.7s-.3-.5-.3-3.1v-8.8l7.4-13.5c2.2-4 3.7-5.2 7-5.3h.3v-2.4h-14.2v2.4h1.1q4.1-.1 4 2.2 0 1.3-.9 2.6zm24.1-6.1c-6.1 0-10.9 5.4-10.9 12.4s4.8 12.4 10.8 12.4S829 577 829 570s-4.8-12.4-10.7-12.4m0 2.1c3.5 0 5.5 3.7 5.5 10.3q-.1 10-5.6 10.2-5.5-.2-5.5-10.2 0-10.2 5.6-10.3m33 22.3 9.1-.4v-2.1h-1.2c-3-.1-3.2-.4-3.2-3.7v-17.5l-9.4.6v2.1h2.6c1.9 0 2.1.4 2.1 2.5v6.2c0 4.3-1 9.6-6.5 9.6q-2.5 0-3.5-1.5c-.7-1-.8-1.5-.8-4.2v-15.3l-8.7.6v2.1h1.9c1.9 0 2.1.4 2.1 2.5v10.8c0 2.6.2 3.7 1 4.9q2 3.1 6.7 3.2c3.3 0 5.6-1.4 7.8-4.6zM2691.2 3185.8l-8.7.6v2.2h1.8c2 0 2.2.3 2.2 2.5v14.2q0 1-.3 1.3c-.4.5-1.3.7-3.5.7h-.2v1.8h12.7v-1.8h-.2c-3.4 0-3.8-.3-3.8-2.1v-7.4q0-4 .9-5.9c1-2.2 3.3-3.8 5.4-3.8 1.3 0 2.8.7 3.6 1.8q1 1.5 1 5v10.4q0 1-.2 1.3-.5.7-3.5.7h-.2v1.8h12.6v-1.8h-.2c-3.3 0-3.7-.3-3.7-2.1v-10c0-3.6-.2-4.6-1-6.3a7 7 0 0 0-6.8-3.8c-3.3 0-5.7 1.5-8 4.8zm25.2-1.7h1l1.6-9v-.7a2 2 0 0 0-2-2.2 2 2 0 0 0-2.2 2.2v.8zm15.3 1.5v-9.9h-2q-.7 9.7-6.8 10.2v1.9h4.1v12.7c0 3.5 0 4.8.6 6q1.3 3.1 5.7 3.2c4.5 0 7.4-3.4 7.4-8.7v-1.1h-2.2q-.1 6.7-3.8 6.7-2-.1-2.5-1.4-.5-1-.5-3.8V3188h7.3v-2.2zM1201.2 1439.9l-5.5-12.9-.3-1q-.1-1.4 2.3-1.3h1v-1.8h-11.9v1.8h.6c1.7 0 2.3.6 3.4 2.7l8.1 18.5-.8 1.8c-1.8 3.7-4.2 6.4-5.8 6.4q-.7 0-.8-.5l.1-.4.3-1.4q-.1-2-2.6-2.2c-1.7 0-3 1.3-3 3 0 2.3 2 4 4.6 4q3.9 0 6.9-4c1.5-2.1 2.5-4.2 4.7-9.7l5.7-14.1c1.2-2.9 2.3-4 4.2-4h.3v-1.9h-10v1.8h.8q2.8 0 2.7 1.9a5 5 0 0 1-.5 2zm23-17.7c-6.2 0-11 5.5-11 12.5 0 6.8 4.9 12.3 10.9 12.3s10.8-5.5 10.8-12.4-4.8-12.4-10.7-12.4m0 2.1c3.5 0 5.4 3.7 5.4 10.3q-.1 10-5.5 10.2-5.5-.2-5.6-10.1 0-10.4 5.7-10.4m33 22.3 9-.4v-2.1h-1.2c-3-.1-3.2-.4-3.2-3.7V1423l-9.3.6v2.2h2.5c1.9 0 2.1.3 2.1 2.5v6c0 4.5-1 9.7-6.5 9.7q-2.4 0-3.5-1.5c-.6-1-.8-1.5-.8-4.2v-15.3l-8.7.6v2.2h1.9c1.9 0 2.1.3 2.1 2.5v10.7c0 2.6.2 3.8 1 4.9q2.2 3.1 6.7 3.2 4.8.2 7.8-4.6zm19.9-23.7-8.9.6v2.2h2c2 0 2.2.3 2.2 2.5v14.2q0 1-.2 1.3-.5.7-3.5.7h-.3v1.8h13.4v-1.8h-.9c-3.4 0-3.8-.3-3.8-2.1v-2.7c0-8.4 3-14.8 7-15q-1 1-1 2.2c0 1.6 1.2 2.8 2.8 2.8 1.8 0 3-1.4 3-3.4q-.2-3.8-4.3-4-5 .1-7.5 7zM1911.8 545.3h-2l-2 3c-3.6-2.7-5.4-3.4-8.9-3.4q-7.1 0-12.1 6-4.7 5.6-4.7 13.1c0 10.8 7 18.5 16.9 18.5 8 0 13-4.7 14.2-13.1l-2.3-.4q-2.1 11.1-11.3 11.1c-7.4 0-11-5-11-15.9 0-5.7.8-9.4 2.5-12.4a9 9 0 0 1 7.9-4.6q5.5.2 8.5 5c1 1.7 1.6 3.6 2.8 7.5h2.2zm16.5 12.4c-6.1 0-10.9 5.4-10.9 12.4s4.8 12.4 10.8 12.4S1939 577 1939 570s-4.8-12.4-10.7-12.4m0 2.1c3.5 0 5.5 3.7 5.5 10.3q-.1 10-5.6 10.2-5.5-.2-5.5-10.2 0-10.2 5.6-10.3m22.5-1.4-9 .6v2.1h2.1c1.9 0 2.1.4 2.1 2.5V578q0 1-.2 1.3c-.4.5-1.3.7-3.5.7h-.2v1.8h12.6V580h-.2c-3.3 0-3.7-.3-3.7-2.2v-9.2c0-4.5 2.4-7.8 5.7-7.8q4.3 0 4.3 6.1V578q0 .9-.4 1.2-.3.7-3.5.7h-.2v1.8h12.7V580h-.2c-3.3 0-3.7-.3-3.7-2.1v-8.9c0-5 2.2-8.2 5.7-8.2q4.3 0 4.3 6.7v10.5q0 1-.4 1.3-.3.7-3.4.7h-.2v1.8h12.6V580h-.2c-3.3 0-3.7-.3-3.7-2.2v-11.3c0-3.1-.3-4.2-1.6-5.9a7 7 0 0 0-6-2.8q-4.7-.1-7.7 5a7 7 0 0 0-7-5q-4.3-.1-7.2 4.6zm57.7 12c0-7.4-4.2-12.7-10.3-12.7-6.4 0-11.2 5.5-11.2 13 0 7 4.5 11.8 11.3 11.8q7.1 0 10.2-7.1l-1.8-1c-2 3.9-4.1 5.4-7.5 5.4a6 6 0 0 1-5.7-3.3q-1.3-2.1-1.2-6zm-16.2-2.2c0-3.5 1.6-8.5 5.8-8.5 3 0 5 2.7 5 6.7 0 1.4-.4 1.8-2 1.8zM2396.4 558.4l-9 .6v2.1h2.1c2 0 2.2.4 2.2 2.5V578q0 1-.3 1.3-.4.7-3.5.7h-.2v1.8h12.6V580h-.2c-3.3 0-3.7-.3-3.7-2.2v-9.2c0-4.5 2.4-7.8 5.7-7.8q4.3 0 4.3 6.1V578q0 .9-.4 1.2-.3.7-3.4.7h-.2v1.8h12.6V580h-.2c-3.3 0-3.7-.3-3.7-2.1v-8.9c0-5 2.2-8.2 5.7-8.2q4.3 0 4.3 6.7v10.5q0 1-.4 1.3-.4.7-3.4.7h-.2v1.8h12.6V580h-.2c-3.3 0-3.7-.3-3.7-2.2v-11.3c0-3.1-.3-4.2-1.6-5.9a7 7 0 0 0-6-2.8q-4.7-.1-7.7 5a7 7 0 0 0-7-5q-4.4-.1-7.1 4.6zm57.6 12c0-7.4-4.2-12.7-10.3-12.7-6.4 0-11.2 5.5-11.2 13 0 7 4.6 11.8 11.3 11.8q7.2 0 10.2-7.1l-1.7-1c-2 3.9-4.2 5.4-7.5 5.4q-3.8 0-5.7-3.3-1.4-2.1-1.3-6zm-16.1-2.2c0-3.5 1.6-8.5 5.8-8.5 3 0 5 2.7 5 6.7q.1 2-2 1.8zm24.3 7.9a3.1 3.1 0 1 0 0 6.3 3.1 3.1 0 0 0 0-6.3M953 575.3l-5-12.9-.2-1q-.1-1.4 2.1-1.2h1.2v-1.8H940v1.8h.9q2.2-.1 2.6 1.9l.4 1.3-4.4 11.6-4.8-12.5-.2-1.1q-.1-1.3 2-1.2h1v-1.8h-11v1.8h.8q1.9-.1 2.6 2.5l7.5 19.8h1.8l6-15.8 6 15.8h1.6l7-18.5c1-3 1.8-3.7 3.7-3.8h.3v-1.8h-9.4v1.8h.8q2.6-.1 2.5 1.9 0 .8-.4 1.8zm33.2-9.7c0-3.1-.6-4.7-2-6q-2.5-2-7.3-2c-5.7 0-9.8 2.7-9.8 6.4q.2 2.8 3 3 2.4-.1 2.6-2.5 0-1-.7-2-.4-.5-.4-.8c0-1 2-1.9 4.4-1.9 1.6 0 3.4.5 4.2 1.3q1.4 1 1.3 4.2v2c-5.2.9-6.9 1.3-9.3 2.2q-6.5 2.4-6.4 7.1c0 3.6 2.8 5.9 7.2 5.9q5.4 0 8.7-4 1 3.8 4.4 3.6c2.3 0 4.6-1.5 4.6-3q0-.5-.5-.5l-.7.2q-1 .4-1.4.3-2 .2-2-3.4zm-4.6 6c0 3-.2 3.7-1 5a7 7 0 0 1-5.7 3.1c-2.3 0-4-1.6-4-3.9q0-3 3.3-4.6c1.5-.7 3.5-1.2 7.4-1.9zm19.9-13.3-8.7.6v2.1h1.8c2 0 2.2.4 2.2 2.5V578q0 1-.3 1.3c-.4.5-1.3.7-3.5.7h-.2v1.8h12.7V580h-.2c-3.4 0-3.8-.3-3.8-2.1v-7.4q0-4 .9-5.9c1-2.2 3.3-3.8 5.4-3.8 1.3 0 2.8.7 3.6 1.8q1 1.5 1 5v10.4q0 1-.2 1.3-.5.7-3.5.7h-.2v1.8h12.6V580h-.2c-3.3 0-3.7-.3-3.7-2.1v-10c0-3.7-.2-4.6-1-6.3a7 7 0 0 0-6.8-3.8q-4.7 0-8 4.8zm30.3 0v-10h-2q-.7 9.7-6.8 10.1v2h4.1v12.7c0 3.5.1 4.8.6 6q1.3 3.1 5.7 3.2c4.5 0 7.4-3.4 7.4-8.7v-1.2h-2.1q-.3 6.8-4 6.8-1.7-.1-2.4-1.4-.5-1-.5-3.8v-13.6h7.4v-2.2zM1482.7 1423l-8.9.5v2.2h2c2 0 2.2.3 2.2 2.5v14.2q0 1-.3 1.3-.3.7-3.4.7h-.2v1.8h12.6v-1.8h-.2c-3.3 0-3.8-.3-3.8-2.2v-9.2c0-4.5 2.5-7.8 5.7-7.8q4.3 0 4.3 6.1v11.2q0 1-.3 1.2-.3.7-3.5.7h-.2v1.8h12.7v-1.8h-.2c-3.3 0-3.8-.3-3.8-2.1v-8.9c0-5 2.3-8.2 5.8-8.2q4.2 0 4.2 6.7v10.5q0 1-.3 1.3-.3.7-3.5.7h-.2v1.8h12.7v-1.8h-.2c-3.3 0-3.8-.3-3.8-2.2V1431c0-3.1-.3-4.2-1.6-5.9a7 7 0 0 0-5.9-2.8q-4.7-.1-7.8 5a7 7 0 0 0-6.9-5q-4.4 0-7.2 4.6zm42.4-12.4a2.9 2.9 0 1 0 0 5.8 2.9 2.9 0 0 0 0-5.8m2.3 12.4-9.4.6v2.2h2.6c1.9 0 2.1.3 2.1 2.5v14.2q0 1-.3 1.3-.4.7-3.4.7h-.4v1.8h13v-1.8h-.4c-3.3 0-3.8-.3-3.8-2.1zm15.4 0-8.6.6v2.2h1.8c1.9 0 2.1.3 2.1 2.5v14.2q0 1-.2 1.3-.5.7-3.5.7h-.2v1.8h12.6v-1.8h-.2c-3.3 0-3.7-.3-3.7-2.1v-7.4q0-4 .8-5.9c1.1-2.2 3.3-3.8 5.5-3.8 1.3 0 2.8.7 3.5 1.8q1.1 1.5 1.1 5v10.4q0 1-.2 1.3-.5.7-3.5.7h-.2v1.8h12.6v-1.8h-.2c-3.3 0-3.7-.3-3.7-2.1v-10c0-3.6-.2-4.6-1.1-6.3a7 7 0 0 0-6.7-3.8q-4.7 0-8 4.8zm39.6 23.6 8.7-.4v-2.1h-1c-2.7-.2-3-.4-3-3.7v-31l-9.8.5v2.2h3c1.8 0 2 .3 2 2.5v11.3a8 8 0 0 0-6.8-3.7c-5.7 0-10 5.5-10 12.6s4.2 12.2 10 12.2q4.6.1 6.9-4.3zm-6-21.7q3.3.2 5 3.8 1 2.2 1 6c0 5.8-2.4 9.6-6 9.6-3.5 0-5.6-3.3-5.6-8.9q0-4.4 1-6.9 1.4-3.5 4.7-3.6m22 15.8a3.1 3.1 0 1 0 3.1 3.1c0-1.7-1.3-3.1-3-3.1M948.2 1446.6l9-.4v-2.1H956c-2.9-.1-3.1-.4-3.1-3.7V1423l-9.4.6v2.2h2.5c2 0 2.2.3 2.2 2.5v6c0 4.5-1 9.7-6.6 9.7q-2.3 0-3.5-1.5c-.6-1-.7-1.5-.7-4.2v-15.3l-8.8.6v2.2h2c1.8 0 2 .3 2 2.5v10.7c0 2.6.3 3.8 1 4.9q2.2 3.1 6.8 3.2c3.3 0 5.6-1.3 7.8-4.6zm20-23.7-8.7.6v2.2h1.8c2 0 2.2.3 2.2 2.5v24.4q0 1-.3 1.2c-.4.5-1.3.7-3.5.7h-.2v1.8h13v-1.8h-.5c-3.4 0-3.8-.3-3.8-2.1v-9.5c1.6 3 3.5 4 6.6 4 6.6 0 10-6.5 10-12.4 0-5.7-3.4-12.3-9.7-12.3q-4.5-.1-7 4.3zm6 2c3.5 0 5.5 3.4 5.5 9.3q-.1 9.9-5.6 10c-3.6 0-5.9-3.6-5.9-9.4 0-6.2 2.3-9.9 6-9.9" class="Lyrics"/><path fill="none" stroke="#000" stroke-linejoin="bevel" stroke-width="2.5" d="M523 2336.4h69.4M2149.2 580.5h103.3M1310.1 580.5h187.3M1046.5 580.5h35.8M2671 3197.7h9.9M990.6 1445h95.8M1607.6 1445h1229.1M2471.3 580.5h237.8" class="LyricsLineSegment"/><path d="M2740.2 3134a5 5 0 0 0 5 5 5 5 0 0 0 4.9-5 5 5 0 0 0-5-5 5 5 0 0 0-5 5M1880.4 3059.6a5 5 0 0 0 5 5 5 5 0 0 0 5-5 5 5 0 0 0-5-5 5 5 0 0 0-5 5M604.8 2226a5 5 0 0 0 5 5 5 5 0 0 0 5-5 5 5 0 0 0-5-5 5 5 0 0 0-5 5M604.8 663.6a5 5 0 0 0 5 5 5 5 0 0 0 5-5 5 5 0 0 0-5-5 5 5 0 0 0-5 5M604.8 2438a5 5 0 0 0 5 5 5 5 0 0 0 5-5 5 5 0 0 0-5-4.9 5 5 0 0 0-5 5M604.8 713.2a5 5 0 0 0 5 5 5 5 0 0 0 5-5 5 5 0 0 0-5-5 5 5 0 0 0-5 5M604.8 1569a5 5 0 0 0 5 5 5 5 0 0 0 5-5 5 5 0 0 0-5-5 5 5 0 0 0-5 5M604.8 1519.5a5 5 0 0 0 5 5 5 5 0 0 0 5-5 5 5 0 0 0-5-5 5 5 0 0 0-5 5M604.8 2512.5a5 5 0 0 0 5 5 5 5 0 0 0 5-5 5 5 0 0 0-5-5 5 5 0 0 0-5 5M604.8 2462.9a5 5 0 0 0 5 5 5 5 0 0 0 5-5 5 5 0 0 0-5-5 5 5 0 0 0-5 5M1733.5 688.4a5 5 0 0 0 5 5 5 5 0 0 0 4.9-5 5 5 0 0 0-5-5 5 5 0 0 0-5 5M1733.5 738a5 5 0 0 0 5 5 5 5 0 0 0 4.9-5 5 5 0 0 0-5-5 5 5 0 0 0-5 5M1880.4 3511.8a5 5 0 0 0 5 5 5 5 0 0 0 5-5 5 5 0 0 0-5-5 5 5 0 0 0-5 5M604.8 1849.4a5 5 0 0 0 5 5 5 5 0 0 0 5-5 5 5 0 0 0-5-5 5 5 0 0 0-5 5M1733.5 982.8a5 5 0 0 0 5 5 5 5 0 0 0 4.9-5 5 5 0 0 0-5-5 5 5 0 0 0-5 5M604.8 2707.8a5 5 0 0 0 5 5 5 5 0 0 0 5-5 5 5 0 0 0-5-5 5 5 0 0 0-5 5M604.8 3586.2a5 5 0 0 0 5 5 5 5 0 0 0 5-5 5 5 0 0 0-5-5 5 5 0 0 0-5 5M604.8 3536.6a5 5 0 0 0 5 5 5 5 0 0 0 5-5 5 5 0 0 0-5-5 5 5 0 0 0-5 5M604.8 3511.8a5 5 0 0 0 5 5 5 5 0 0 0 5-5 5 5 0 0 0-5-5 5 5 0 0 0-5 5M1612.4 3611a5 5 0 0 0 5 5 5 5 0 0 0 5-5 5 5 0 0 0-5-5 5 5 0 0 0-5 5M604.8 958a5 5 0 0 0 5 5 5 5 0 0 0 5-5 5 5 0 0 0-5-5 5 5 0 0 0-5 5M1612.4 3561.4a5 5 0 0 0 5 5 5 5 0 0 0 5-5 5 5 0 0 0-5-5 5 5 0 0 0-5 5M1612.4 3511.8a5 5 0 0 0 5 5 5 5 0 0 0 5-5 5 5 0 0 0-5-5 5 5 0 0 0-5 5M1880.4 3586.2a5 5 0 0 0 5 5 5 5 0 0 0 5-5 5 5 0 0 0-5-5 5 5 0 0 0-5 5M2740.2 3511.8a5 5 0 0 0 5 5 5 5 0 0 0 4.9-5 5 5 0 0 0-5-5 5 5 0 0 0-5 5M1880.4 3536.6a5 5 0 0 0 5 5 5 5 0 0 0 5-5 5 5 0 0 0-5-5 5 5 0 0 0-5 5M2740.2 3561.4a5 5 0 0 0 5 5 5 5 0 0 0 4.9-5 5 5 0 0 0-5-5 5 5 0 0 0-5 5M2740.2 3611a5 5 0 0 0 5 5 5 5 0 0 0 4.9-5 5 5 0 0 0-5-5 5 5 0 0 0-5 5" class="NoteDot"/><path d="M236.1 238v-17c0-.8.1-4.4.4-8.3h-3.8l-20 24.9v4h14.8v2c0 3.5 0 3.7-.4 4.3q-.5.7-4.2.7h-.6v3h18.8v-3h-.6q-3.6 0-4-.7c-.4-.6-.4-.8-.4-4.2v-2h5.5V238zm-8.6 0h-10.8l10.8-13.8z" class="Page"/><path d="M338.7 2560.5a54 54 0 0 0 19-41.5c0-29-14-58.5-14-76.6A73 73 0 0 1 357 2404v-.7q.1-.4-.4-1-.7-.2-1.4.7c-.4.3-19.8 17.5-19.8 43.7 0 28.1 12.6 48 12.6 84.6 0 7-3.3 18.2-12.3 28.2-.3 0-.3.6-.3 1q-.3.4.3.9c9 9.8 12.3 21 12.3 28 0 36.8-12.6 56.6-12.6 84.7a64 64 0 0 0 19.8 43.7q.6 1.1 1.4.7t.4-1v-.6a73 73 0 0 1-13.3-38.4c0-18.2 14-47.5 14-76.6a53 53 0 0 0-19-41.5M338.7 3414.2a54 54 0 0 0 19-41.6c0-29-14-58.4-14-76.6a73 73 0 0 1 13.3-38.3v-.6q.1-.6-.4-1-.7-.2-1.4.6c-.4.4-19.8 17.6-19.8 43.8 0 28 12.6 47.9 12.6 84.6 0 7-3.3 18.2-12.3 28.1q-.4.2-.3 1-.3.4.3.9c9 9.9 12.3 21 12.3 28 0 36.8-12.6 56.6-12.6 84.7a64 64 0 0 0 19.8 43.8q.6 1 1.4.6t.4-1v-.6a73 73 0 0 1-13.3-38.3c0-18.2 14-47.6 14-76.6a53 53 0 0 0-19-41.5M338.7 1684.4c6.4-6.7 19-20.5 19-46 0-32.4-14-65-14-85.2 0-21.7 12.5-42 13.3-42.6v-.7q.1-.6-.4-1-.7-.2-1.4.6c-.4.4-19.8 19.5-19.8 48.6 0 31.2 12.6 53.2 12.6 94 0 7.8-3.3 20.2-12.3 31.3q-.4.2-.3 1-.3.6.3 1c9 11 12.3 23.5 12.3 31.3 0 40.8-12.6 62.8-12.6 94a74 74 0 0 0 19.8 48.6q.6 1.1 1.4.7t.4-1v-.7c-.8-.7-13.3-21-13.3-42.6 0-20.2 14-52.9 14-85.1a62 62 0 0 0-19-46.2M338.7 810.8a54 54 0 0 0 19-41.5c0-29-14-58.5-14-76.6a73 73 0 0 1 13.3-38.3v-.7q.1-.4-.4-1-.7-.2-1.4.7c-.4.3-19.8 17.5-19.8 43.7 0 28 12.6 47.9 12.6 84.6 0 7-3.3 18.2-12.3 28.2-.3 0-.3.6-.3.9q-.3.4.3 1c9 9.8 12.3 21 12.3 28 0 36.8-12.6 56.6-12.6 84.6a64 64 0 0 0 19.8 43.8q.6 1 1.4.6t.4-.9v-.7a73 73 0 0 1-13.3-38.3c0-18.2 14-47.6 14-76.6a53 53 0 0 0-19-41.5" class="Bracket"/></svg>