<svg xmlns="http://www.w3.org/2000/svg" width="816" height="1056" baseProfile="full" viewBox="0 0 3060 3960"><title>general_29054120_690a831e247a0 (10)</title><desc>Generated by MuseScore Studio 4.6.3</desc><path fill="#fff" fill-rule="evenodd" d="M0 0h3060v3960H0z"/><path fill="none" stroke="#000" stroke-linejoin="bevel" stroke-width="2.7" d="M366.4 386.2h2481M366.4 411h2481M366.4 435.8h2481M366.4 460.6h2481M366.4 485.4h2481M366.4 641.2h2481M366.4 666h2481M366.4 690.8h2481M366.4 715.6h2481M366.4 740.4h2481M366.4 857.1h2481M366.4 881.9h2481M366.4 906.7h2481M366.4 931.5h2481M366.4 956.3h2481M366.4 1247.9h2481M366.4 1272.7h2481M366.4 1297.5h2481M366.4 1322.3h2481M366.4 1347.1h2481M366.4 1521.2h2481M366.4 1546h2481M366.4 1570.8h2481M366.4 1595.6h2481M366.4 1620.4h2481M366.4 1737.1h2481M366.4 1761.9h2481M366.4 1786.7h2481M366.4 1811.5h2481M366.4 1836.3h2481M366.4 2127.9h2481M366.4 2152.7h2481M366.4 2177.5h2481M366.4 2202.3h2481M366.4 2227.1h2481M366.4 2402.8h2481M366.4 2427.6h2481M366.4 2452.4h2481M366.4 2477.2h2481M366.4 2502h2481M366.4 2618.7h2481M366.4 2643.5h2481M366.4 2668.3h2481M366.4 2693.1h2481M366.4 2717.9h2481M366.4 3009.5h2481M366.4 3034.3h2481M366.4 3059.1h2481M366.4 3083.9h2481M366.4 3108.7h2481M366.4 3258.7h2481M366.4 3283.5h2481M366.4 3308.3h2481M366.4 3333.1h2481M366.4 3357.9h2481M366.4 3474.6h2481M366.4 3499.4h2481M366.4 3524.2h2481M366.4 3549h2481M366.4 3573.8h2481" class="StaffLines"/><path d="M371.8 323.2c.6-3.5 1.4-5.7 3-8.4q2.8-4.8 6.3-4.8 2 0 2 1.3 0 .3-.3 1-.6.8-.6 1.7.1 2 2.4 2.2 2.6-.2 2.7-3c0-2.8-2.5-4.8-6.1-4.8-9 0-14.3 11.7-14.3 19.4 0 5.8 2.9 9.4 7.8 9.4 6 0 10.4-5 10.4-10.8 0-4.1-2.7-7-6.7-7q-4.2 0-6.6 3.8m5.3-1.4q3.8 0 3.8 4.8c0 5-2.7 9-6.2 9-2.6 0-4.1-2-4.1-5.1 0-5 2.8-8.7 6.5-8.7m16.9 1.4c.7-3.5 1.5-5.7 3-8.4q2.8-4.8 6.3-4.8 2 0 2 1.3 0 .3-.3 1-.6.8-.5 1.7.2 2 2.3 2.2 2.6-.2 2.8-3c0-2.8-2.6-4.8-6.2-4.8-8.9 0-14.3 11.7-14.3 19.4 0 5.8 3 9.4 7.8 9.4 6 0 10.4-5 10.4-10.8 0-4.1-2.7-7-6.7-7q-4.2 0-6.6 3.8m5.3-1.4q3.8 0 3.9 4.8c0 5-2.7 9-6.3 9-2.6 0-4-2-4-5.1 0-5 2.7-8.7 6.4-8.7M386.9 2931.7a66 66 0 0 1-10.8.3l-4-.2h-1l-3.9 8.4 1.5.5 1-1.6c1.8-3.2 2.7-3.6 6.8-3.6h6.7l-4.3 6.3c-5.1 7.2-5.1 7.2-7.1 10.4q-2.6 4-2.5 6 .2 2.2 2.3 2.3t2.8-2.6c2-7.5 3.2-10.1 8.7-19.1l3.8-5.9zm17.2 20-1 1.8c-1.7 2.7-2 3-4 3h-9.3c1-1.3 2.7-2.8 6-5 5.2-3.6 5.5-3.9 6.7-4.8 3.2-2.4 4.5-4.8 4.5-8 0-4.2-3.1-7-7.7-7-5.1 0-9.6 3.8-9.6 8.2q.1 3.4 3.1 3.6 2.4-.1 2.6-2.5 0-1.4-1.8-2.5-1.3-.5-1.2-1.1c0-1.7 3-3.7 5.7-3.7s4.7 2 4.7 4.7c0 3-1.3 5.2-5 8.3-10.6 9.3-12.2 11-12.5 13.2h17.1l3.1-7.7zM386.9 2050.2a69 69 0 0 1-10.8.2l-4-.2h-1l-3.9 8.4 1.5.5 1-1.6c1.8-3.1 2.7-3.6 6.8-3.6h6.7l-4.3 6.3c-5.1 7.2-5.1 7.2-7.1 10.4q-2.6 4-2.5 6 .2 2.2 2.3 2.3t2.8-2.6c2-7.5 3.2-10.1 8.7-19.1l3.8-5.8zm13.8 0c-8.6 0-12.9 11.8-12.9 18.8 0 5.8 3 10 7 10 6.8 0 13-9 13-18.9 0-6-2.9-10-7-10m-.1 1.7q3.1 0 3.2 5.2c0 4-1 9-2.7 13.2-1.9 5-3.8 7.1-6.2 7.1q-3.3-.2-3.4-5.3c0-5.2 1.9-12.2 4.4-16.8q2-3.3 4.7-3.4M371.8 1185c.6-3.6 1.4-5.8 3-8.5q2.8-4.7 6.3-4.7 2 0 2 1.2 0 .3-.3 1-.6.8-.6 1.7.1 2 2.4 2.2 2.6-.2 2.7-3c0-2.7-2.5-4.7-6.1-4.7-9 0-14.3 11.6-14.3 19.3 0 5.9 2.9 9.4 7.8 9.4 6 0 10.4-5 10.4-10.8 0-4.1-2.7-7-6.7-7q-4.2 0-6.6 3.8m5.3-1.4q3.8 0 3.8 4.8c0 5-2.7 9-6.2 9-2.6 0-4.1-2-4.1-5.1 0-5 2.8-8.7 6.5-8.7m25.6 0c3.1-1.5 6-3.1 6-7.1 0-3.7-3-6.2-7.3-6.2-5.2 0-9.2 3.7-9.2 8.5 0 2.5.9 4 3 5.6q-7.1 2.8-7.2 8.3c0 4 3.2 6.3 8.3 6.3 6.2 0 10.6-3.7 10.6-9 0-3.1-1.7-4.8-4.2-6.4m-1.7-1c-4-1.9-5.6-3.4-5.6-5.7 0-2.8 2.5-5 5.7-5 2.7 0 4.7 1.8 4.7 4.4 0 3-2.1 5.3-4.8 6.4m-4.2 2.8c1.9.8 2.5 1.1 3.5 1.8q3 1.9 3 4.5c0 3.1-2.8 5.5-6.5 5.5-3.5 0-5.6-2-5.6-5q.1-4.6 5.6-6.8" class="MeasureNumber"/><path d="m288.3 445.5-9.2-23.2q-.4-1-.4-1.5-.1-1.4 3.1-1.3h2v-2.3h-15.6v2.3h1c2.3.1 3 .6 3.9 2.8l12.6 31.7h2l11.5-29.6c1.5-3.9 2.6-4.8 5.4-4.9h.5v-2.3h-13.5v2.3h1q3.9.1 4 2.6 0 1.2-.6 2.8zm18.4 2.3a3.1 3.1 0 1 0 0 6.3 3.1 3.1 0 0 0 0-6.3M288.3 1307.3 279 1284l-.4-1.6q-.1-1.3 3.1-1.2h2v-2.4h-15.6v2.4h1c2.3 0 3 .5 3.9 2.8l12.6 31.7h2l11.5-29.6c1.5-4 2.6-4.9 5.4-5h.5v-2.3h-13.5v2.4h1q3.9.1 4 2.5 0 1.3-.6 2.9zm18.4 2.2a3.1 3.1 0 1 0 3.1 3.1c0-1.7-1.4-3.1-3-3.1M288.3 3068.9l-9.2-23.2-.4-1.6q-.1-1.3 3.1-1.2h2v-2.4h-15.6v2.3h1c2.3.1 3 .6 3.9 2.8l12.6 31.8h2l11.5-29.7c1.5-3.8 2.6-4.8 5.4-4.8h.5v-2.4h-13.5v2.3h1q3.9.1 4 2.6 0 1.3-.6 2.8zm18.4 2.2a3.1 3.1 0 1 0 3.1 3.1c0-1.8-1.4-3.1-3-3.1M288.3 2187.3 279 2164l-.4-1.6q-.1-1.3 3.1-1.2h2v-2.4h-15.6v2.4h1c2.3 0 3 .6 3.9 2.8l12.6 31.7h2l11.5-29.7c1.5-3.8 2.6-4.7 5.4-4.8h.5v-2.4h-13.5v2.4h1q3.9.1 4 2.6 0 1.2-.6 2.8zm18.4 2.2a3.1 3.1 0 1 0 0 6.2 3.1 3.1 0 0 0 0-6.2M224 800.2h5.6c4.5 0 7-.4 9-1.3 3.5-1.7 5.5-5 5.5-8.9 0-8-7-9.9-13.6-9.9H213v2.4h.9c2.9 0 3.8.2 4.2.7.3.4.3.5.3 3v23.9c0 2.5 0 2.6-.3 3-.4.6-1.3.8-4.2.8h-.9v2.3h16.8V814h-1.3c-2.9 0-3.8-.2-4.2-.7-.3-.5-.3-.6-.3-3.1zm0-2.3V785c0-2.3.3-2.5 3-2.5h3.3q7.6-.1 7.6 7.7t-7.8 7.6zm30.8-4.9-8.6.6v2.1h1.8c1.9 0 2.1.4 2.1 2.5v14.3q0 1-.3 1.3-.4.7-3.4.7h-.2v1.8h12.6v-1.8h-.2c-3.3 0-3.8-.3-3.8-2.1v-7.4q0-4 1-5.9c1-2.2 3.2-3.8 5.4-3.8 1.3 0 2.8.7 3.5 1.8q1.1 1.4 1.1 5v10.4q0 1-.3 1.3-.3.7-3.5.7h-.2v1.8h12.7v-1.8h-.2c-3.3 0-3.8-.3-3.8-2.1v-10c0-3.7-.1-4.6-1-6.3a7 7 0 0 0-6.8-3.8q-4.7 0-7.9 4.8zm33.2-.8c-6.2 0-11 5.4-11 12.4S282 817 288 817s10.8-5.5 10.8-12.4-4.8-12.4-10.7-12.4m0 2.1q5.3.2 5.4 10.3-.1 10-5.5 10.2-5.5-.1-5.6-10.2t5.7-10.3m18.5 16.4a3.1 3.1 0 1 0 0 6.3 3.1 3.1 0 0 0 0-6.3M224 1680.2h5.6c4.5 0 7-.4 9-1.3 3.5-1.7 5.5-5 5.5-8.9 0-8-7-9.9-13.6-9.9H213v2.4h.9c2.9 0 3.8.2 4.2.7.3.4.3.5.3 3v23.9c0 2.5 0 2.6-.3 3-.4.6-1.3.8-4.2.8h-.9v2.3h16.8v-2.3h-1.3c-2.9 0-3.8-.2-4.2-.7-.3-.5-.3-.6-.3-3.1zm0-2.3V1665c0-2.3.3-2.5 3-2.5h3.3q7.6-.1 7.6 7.7t-7.8 7.6zm30.8-4.9-8.6.6v2.1h1.8c1.9 0 2.1.4 2.1 2.5v14.3q0 1-.3 1.3-.4.7-3.4.7h-.2v1.8h12.6v-1.8h-.2c-3.3 0-3.8-.3-3.8-2.1v-7.4q0-4 1-5.9c1-2.2 3.2-3.8 5.4-3.8 1.3 0 2.8.7 3.5 1.8q1.1 1.5 1.1 5v10.4q0 1-.3 1.3-.3.7-3.5.7h-.2v1.8h12.7v-1.8h-.2c-3.3 0-3.8-.3-3.8-2.1v-10c0-3.7-.1-4.6-1-6.3a7 7 0 0 0-6.8-3.8q-4.7 0-7.9 4.8zm33.2-.8c-6.2 0-11 5.4-11 12.4S282 1697 288 1697s10.8-5.5 10.8-12.4-4.8-12.4-10.7-12.4m0 2.1c3.5 0 5.4 3.7 5.4 10.3q-.1 10-5.5 10.2-5.5-.1-5.6-10.2t5.7-10.3m18.5 16.4a3.1 3.1 0 1 0 0 6.2 3.1 3.1 0 0 0 0-6.2M224 3417.7h5.6c4.5 0 7-.3 9-1.3q5.4-2.7 5.5-8.8c0-8-7-10-13.6-10H213v2.4h.9c2.9 0 3.8.2 4.2.7.3.5.3.6.3 3.1v23.8c0 2.6 0 2.7-.3 3.1-.4.5-1.3.7-4.2.7h-.9v2.4h16.8v-2.4h-1.3c-2.9 0-3.8-.2-4.2-.7-.3-.4-.3-.5-.3-3zm0-2.3v-12.8c0-2.3.3-2.6 3-2.6h3.3q7.6 0 7.6 7.8 0 7.6-7.8 7.6zm30.8-5-8.6.6v2.2h1.8c1.9 0 2.1.3 2.1 2.5v14.3q0 1-.3 1.3-.4.6-3.4.7h-.2v1.8h12.6v-1.8h-.2c-3.3-.1-3.8-.4-3.8-2.2v-7.4c0-2.4.4-4.7 1-5.8 1-2.3 3.2-3.8 5.4-3.8 1.3 0 2.8.7 3.5 1.7q1.1 1.5 1.1 5v10.5q0 1-.3 1.3-.3.6-3.5.7h-.2v1.8h12.7v-1.8h-.2c-3.3-.1-3.8-.4-3.8-2.2v-10c0-3.6-.1-4.5-1-6.2a7 7 0 0 0-6.8-3.9q-4.7 0-7.9 4.8zm33.2-.8c-6.2 0-11 5.5-11 12.5 0 6.8 4.9 12.3 10.9 12.3s10.8-5.5 10.8-12.4c0-6.8-4.8-12.4-10.7-12.4m0 2.2q5.3.2 5.4 10.2-.1 10.2-5.5 10.3-5.5-.1-5.6-10.2t5.7-10.3m18.5 16.3a3.1 3.1 0 1 0 3.1 3.1c0-1.7-1.4-3-3-3M224 2561.8h5.6c4.5 0 7-.4 9-1.3 3.5-1.7 5.5-5 5.5-8.9 0-8-7-9.9-13.6-9.9H213v2.4h.9c2.9 0 3.8.2 4.2.7.3.4.3.5.3 3v23.9c0 2.5 0 2.6-.3 3-.4.6-1.3.8-4.2.8h-.9v2.3h16.8v-2.3h-1.3c-2.9 0-3.8-.2-4.2-.7-.3-.5-.3-.6-.3-3.1zm0-2.3v-12.8c0-2.3.3-2.5 3-2.5h3.3q7.6-.1 7.6 7.7t-7.8 7.6zm30.8-4.9-8.6.6v2.1h1.8c1.9 0 2.1.4 2.1 2.5v14.3q0 1-.3 1.3-.4.7-3.4.7h-.2v1.8h12.6v-1.8h-.2c-3.3 0-3.8-.3-3.8-2.1v-7.4q0-4 1-5.9c1-2.2 3.2-3.8 5.4-3.8 1.3 0 2.8.7 3.5 1.8q1.1 1.5 1.1 5v10.4q0 1-.3 1.3-.3.7-3.5.7h-.2v1.8h12.7v-1.8h-.2c-3.3 0-3.8-.3-3.8-2.1v-10c0-3.7-.1-4.6-1-6.3a7 7 0 0 0-6.8-3.8q-4.7 0-7.9 4.8zm33.2-.8c-6.2 0-11 5.4-11 12.4s4.9 12.4 10.9 12.4 10.8-5.5 10.8-12.4-4.8-12.4-10.7-12.4m0 2.1q5.3.2 5.4 10.3-.1 10-5.5 10.2-5.5-.1-5.6-10.2 0-10.3 5.7-10.3m18.5 16.4a3.1 3.1 0 1 0 3.1 3.1c0-1.7-1.4-3.1-3-3.1" class="InstrumentName"/><path fill="none" stroke="#000" stroke-linejoin="bevel" stroke-width="4.5" d="M368.7 1246.5v274.7M1674.6 1246.5v102M2845.2 384.8v102M2845.2 1246.5v102M368.7 2126.6v276.2M1681.6 2126.6v101.9M1658.3 384.8v102M2845.2 2126.6v101.9M2831.5 3008.1v102M2845.2 3008.1v102M368.7 384.8v256.4M368.7 3008.1v250.6M1685.6 3008.1v102M1685.6 3257.4v217.2M2845.2 639.8v217.3M2831.5 3257.4v217.2M2845.2 3257.4v217.2M368.7 639.8v217.3M368.7 1519.8v217.3M1674.6 1519.8v217.3M2845.2 1519.8v217.3M368.7 3257.4v217.2M2845.2 2401.4v217.3M1681.6 2401.4v217.3M1658.3 639.8v217.3M368.7 2401.4v217.3M1685.6 3473.2v102M1674.6 1735.7v101.9M368.7 2617.3v101.9M368.7 1735.7v101.9M1658.3 855.7v101.9M2845.2 1735.7v101.9M1681.6 2617.3v101.9M2845.2 2617.3v101.9M2831.5 3473.2v102M2845.2 3473.2v102M368.7 855.7v101.9M2845.2 855.7v101.9M368.7 3473.2v102" class="BarLine"/><path fill-rule="evenodd" stroke="#000" stroke-linecap="round" stroke-linejoin="round" stroke-width="1.2" d="M1253.7 1357c38 30.6 118 36.8 160.2 12.4-42.8 32.3-122.9 26.1-160.2-12.4M523 3018.2c15.7-19.6 42.4-16.5 53.3 6.2a37.3 37.3 0 0 0-53.3-6.2M2722.6 2147c28.5-30.6 85.6-30.6 114.1 0-28.5-22.6-85.6-22.6-114.1 0M1532.1 2088c61-23.4 160.4 6 198.8 59-40.6-45.3-140-74.8-198.8-59M2165.4 3016.2c53.9-56.2 224-55.9 283.6.5-59.2-48.4-229.3-48.7-283.6-.5" class="SlurSegment"/><path fill-rule="evenodd" stroke="#000" stroke-linecap="round" stroke-linejoin="round" stroke-width="1.2" d="M1552.8 1365.3c33.5 21.3 134.2 21.3 167.8 0-33.6 29.3-134.2 29.3-167.8 0M981 2134.6c26.4-26.8 105.3-26.8 131.6 0-26.3-18.9-105.2-18.9-131.5 0M1537.3 417.6c34-29.4 135.8-29.4 169.8 0-34-21.5-135.8-21.5-169.8 0M1571.8 3003.8c36.1-30 144.4-30 180.5 0-36-22.1-144.4-22.1-180.5 0M2142.2 3089.6c25.5 11.8 101.8 11.8 127.2 0-25.4 19.8-101.7 19.8-127.2 0M1885.8 999.2c17.5 15.5 70.3 15.5 87.8 0-17.5 23-70.3 23-87.8 0M2117.9 999.2c26.8 19 107.4 19 134.3 0-26.9 27-107.5 27-134.3 0M2142.2 3567.1c25.5 18.6 101.8 18.6 127.2 0-25.4 26.5-101.7 26.5-127.2 0M996.3 3554.7c25.5 11.8 101.8 11.8 127.2 0-25.4 19.8-101.7 19.8-127.2 0M2128.4 1879.2c26.5 19 105.9 19 132.3 0-26.4 26.9-105.8 26.9-132.3 0M2132.9 2760.8c26.3 18.8 105.2 18.8 131.5 0-26.3 26.8-105.2 26.8-131.5 0" class="TieSegment"/><path d="M1538 3018c0 7.8-4 12-9.8 16.5l.3-19.3c.2-1 1.7-3.8 5.6-3.8 3.6 0 4 3.4 4 5.4zm-1.3-11.4c-5 0-7.8 3-8.3 3.7l.4-31.9q-.1-1.2-1.4-1.3h-1.2q-1.3.1-1.4 1.3l.5 59.7q.1 1.3 1.4 1.4l.8-.2c8.5-4.3 17.5-12.4 17.5-22.7 0-5.1-2.4-10-8.3-10M1071.2 1625.5l8.8-1.8v16.3l-8.8 2zm15.4-3.1q1-.3 1-1.4v-5.9q0-1.2-1.3-1.3h-.2l-3.3.6v-14.7h-2.8v15.3l-8.8 1.8v-14h-2.8v14.6l-3.8.8q-1 .3-1.1 1.4v5.8q.1 1.3 1.4 1.4h.3l3.2-.7v16.3l-3.8.8q-1 .3-1.1 1.4v5.8q.1 1.2 1.4 1.3h.3l3.2-.6v14.7h2.8v-15.3l8.8-1.8v14h2.8V1648l3.8-.7q1-.3 1-1.4v-5.9q0-1.2-1.3-1.3h-.2l-3.3.6v-16.3zM1711.7 3363l8.8-1.8v16.4l-8.8 1.9zm15.4-3q1-.4 1-1.5v-5.8q0-1.3-1.3-1.4h-.2l-3.3.7v-14.8h-2.8v15.4l-8.8 1.8v-14h-2.8v14.6l-3.8.8q-1 .2-1.1 1.3v5.8q.1 1.3 1.4 1.4h.3l3.2-.7v16.4l-3.8.8q-1 .2-1.1 1.4v5.7q.1 1.3 1.4 1.4h.3l3.2-.7v14.8h2.8V3388l8.8-1.8v14h2.8v-14.6l3.8-.7c.6 0 1-.8 1-1.4v-5.8q0-1.3-1.3-1.4h-.2l-3.3.7v-16.4z" class="Accidental"/><path fill="none" stroke="#000" stroke-linejoin="bevel" stroke-width="4" d="M2243.5 2551.6h48.6M2231.3 765.2h48.5M2231.3 790h48.5M2231.3 814.8h48.5M2561.9 2551.6h48.5M1102.6 3382.7h48.6M2243.5 2526.8h48.6M2556.2 790h48.6M2556.2 765.2h48.6M1699.7 1645.2h48.6M1970.6 2576.4h48.6M1970.6 2551.6h48.6M1970.6 2526.8h48.6M1092.1 1645.2h48.6M552 1645.2h48.6M1952.7 814.8h48.6M1952.7 790h48.6M1952.7 765.2h48.6M2243.5 2576.4h48.6M2561.9 2526.8h48.5M2334.4 2742.7h48.6M2243.5 2742.7h48.6M1099.9 981.1h48.6M1369.3 981.1h48.6M1699.7 1861.1h48.6M1970.6 2742.7h48.6M1706.6 2742.7h48.6M1879.6 2742.7h48.6M2561.9 2742.7h48.5M1489.2 2742.7h48.6M2698.3 2742.7h48.6M1352.8 2742.7h48.6M1261.8 2742.7h48.6M1088.8 2742.7h48.6M2425.4 2742.7h48.6M1873.7 1861.1h48.6M2107 2742.7h48.6M2697.5 1861.1h48.6M2560.2 1861.1h48.6M2422.9 1861.1h48.6M2331.3 1861.1h48.6M2239.8 1861.1h48.6M2102.5 1861.1h48.6M1965.2 1861.1h48.6M2324.1 981.1h48.6M1683.3 981.1h48.6M1859.9 981.1h48.6M1952.7 981.1h48.6M2556.2 981.1h48.6M2092 981.1h48.6M1508.6 981.1h48.6M2695.5 981.1h48.6M2231.3 981.1h48.5M2416.9 981.1h48.6M1276.5 981.1h48.6" class="LedgerLine"/><path fill="none" stroke="#000" stroke-linejoin="bevel" stroke-width="2.5" d="M2287.7 3067.5v-76.4M1738.8 1343.1v-82.8M1619.4 2185.9v-76.7M2434.1 3063.3v70.2M2734.7 456.6V374M2707.7 2181.7v76.3M1528.4 2173.5v-70.3M1131.3 1318.3v-70.4M1738 3026.1v82.6M1098.3 2156.9v82.6M1420.4 3050.9v63.9M561.4 427.6V504M1268.6 1330.7v-80.8M961.8 2156.9v82.5M1428.8 1343.1v-91M1566.1 1343.1v-89M561.4 3050.9v76.4M561.4 2169.3v76.4M1552.5 3026.1v76.5M2023.4 3055.1V2991M1716 2181.7v70.2M1692.7 440v70.2M591.2 1305.9v-76.6M1518 440v64M1378.7 440v64M2155.5 3067.5V2997M1141.8 3378.8v-151.1M991.6 2498v-138.4M2004.4 1616.4v-82.8M1450.1 3292v-64.3M999.8 736.4V598M591.2 736.4V610.2M2287.7 3304.4v-70.5M2595.4 798.4V628.8M1582.3 3329.2v-101.5M591.2 3292v-64.3M591.2 2498v-126.2M1139.1 724V604M1009.6 3329.2v-101.5M723.3 3329.2v-101.5M877.5 3292v-64.3M2282.7 2572.4v-169.6M2270.4 810.8V641.2M1738.8 1653.6v-144.8M1131.3 1653.6v-151M591.2 1641.2v-138.6M1318 3329.2v-101.5M2279 1604v-82.8M1767.8 3292v-64.3M2009.8 2584.8v-169.6M2601 2560v-169.6M1991.9 823.2V653.6M1745.8 2498v-120M2599.4 1591.6v-82.8M1128 2485.6v-120M1722.5 736.4v-120M2270.4 977.1v-70.4M1315.7 989.5v-76.6M860.6 939.9v-76.6M2373.6 2738.7v-70.4M767.7 939.9v-76.6M2370.5 1857.1v-70.4M591.2 2701.5v-76.6M1009.6 3532.6v-64.2M2462.1 1857.1v-70.4M2363.3 977.1v-70.4M1229.9 3532.6V3456M2463.9 3545v-70.4M2282.7 2738.7v-70.4M2599.4 1857.1v-70.4M2736.6 1857.1v-70.4M1141.8 3532.6V3456M991.6 2701.5v-76.6M1899.1 977.1v-70.4M1722.5 977.1v-70.4M1528.4 2751.1v-76.6M1745.8 2738.7v-70.4M2737.5 2738.7v-70.4M2728.2 3545v-70.4M1392 2751.1v-76.6M1918.8 2738.7v-70.4M1301 2751.1v-76.6M591.2 939.9v-76.6M1128 2751.1v-76.6M1991.9 977.1v-70.4M1547.8 989.5v-76.6M2596 3545v-70.4M855.1 2701.5v-76.6M2131.2 977.1v-70.4M764.1 2701.5v-76.6M2009.8 2738.7v-70.4M2464.6 2738.7v-70.4M2146.2 2738.7v-70.4M2601 2738.7v-70.4M591.2 3532.6V3456M1408.5 989.5v-76.6M789.4 3532.6V3456M877.5 3532.6v-64.2M856.7 1795.1v-64.2M999.8 939.9v-76.6M2595.4 977.1v-70.4M1738.8 1857.1v-70.4M1566.1 1807.5v-70.4M2375.8 3545v-70.4M1582.3 3532.6v-64.2M1428.8 1807.5v-70.4M1337.3 1807.5v-70.4M1450.1 3532.6v-64.2M1131.3 1807.5v-70.4M2287.7 3545v-70.4M1912.9 1857.1v-70.4M994 1795.1v-64.2M1318 3532.6V3456M2279 1857.1v-70.4M2155.5 3545v-70.4M2004.4 1857.1v-70.4M1767.8 3545v-70.4M591.2 1795.1v-76.6M1935.3 3545v-70.4M765.2 1795.1v-76.6M2023.4 3545v-70.4M2141.7 1857.1v-70.4M2456.1 977.1v-70.4M1139.1 989.5v-76.6M2734.7 977.1v-70.4" class="Stem"/><path d="M960.6 2239.4q0 1.2 1.2 1.3.9-.1 1.2-.8l1-3.9c.1-.4 1-4.1 4.6-10 3.9-6.4 9.8-11 14.8-18 4.8-7 7.8-13.5 7.8-22.3 0-9-2-16.5-7.3-26.2q-.6-1-1.5-1h-.5q-.7.5-.7 1.2 0 .5.3 1.2c4 9.3 5.5 14.5 5.5 21.7 0 8.2-2.8 12.5-4.6 15.5a42 42 0 0 1-21 17.8c-.8.3-.8.8-.8 1zM2733.4 396.3q-.1.6.8 1.1a40 40 0 0 1 19.3 17.8c1.8 3 4.6 7.3 4.6 15.5a65 65 0 0 1-4.4 21.7q-.4.8-.3 1.5 0 1 1 1t1.6-1.1c4.4-8 6.1-17.2 6.1-26.2a42 42 0 0 0-7.8-22.3c.3 0-9.2-12.2-11.8-16.3-3.7-5.7-5.4-11.3-5.6-11.7l-1-3.9q-.2-.7-1.2-.8-1.2.1-1.3 1.3zM2706.5 2258q.1 1.2 1.3 1.3.8-.1 1.2-.8l1-3.9c0-.4 1-4.1 4.5-10 3.9-6.4 9.8-11 14.8-18s7.8-13.5 7.8-22.3c0-9-2-16.5-7.3-26.2q-.5-1-1.5-1h-.5q-.7.4-.7 1.2l.3 1.2c4 9.3 5.6 14.5 5.6 21.7 0 8.2-2.9 12.5-4.7 15.5a42 42 0 0 1-21 17.8q-1 .6-.8 1zM2286.4 3013.4q-.1.5.8 1.1a40 40 0 0 1 19.3 17.8c1.8 3 4.6 7.3 4.6 15.5a65 65 0 0 1-4.4 21.7q-.4.8-.3 1.5 0 1 1 1t1.6-1.1c4.4-8 6.1-17.2 6.1-26.2-.5-12.8-7.8-22.3-7.8-22.3.3 0-9.2-12.2-11.8-16.3-3.7-5.7-5.4-11.3-5.6-11.7l-1-3.9q-.2-.7-1.2-.8-1.2.1-1.3 1.3zM998.6 620.3q-.2.5.8 1.1a40 40 0 0 1 19.2 17.8c1.8 3 4.7 7.3 4.7 15.5a65 65 0 0 1-4.5 21.7q-.4.8-.3 1.5 0 1 1 1t1.6-1.1c4.5-8 6.2-17.2 6.2-26.2-.5-12.8-7.9-22.3-7.9-22.3.3 0-9.1-12.2-11.8-16.3-3.6-5.7-5.3-11.3-5.5-11.7l-1-3.9q-.2-.7-1.2-.8-1.2.1-1.3 1.3zM990.3 2382q-.1.4.8 1a40 40 0 0 1 19.3 17.8c1.7 3 4.6 7.3 4.6 15.5a65 65 0 0 1-4.4 21.7q-.4.8-.4 1.4.1 1 1 1t1.6-1c4.5-8 6.2-17.2 6.2-26.2-.5-12.8-7.9-22.3-7.9-22.3.3 0-9-12.2-11.8-16.3-3.6-5.7-5.3-11.3-5.5-11.7l-1-4q-.2-.6-1.2-.7-1.2.1-1.3 1.3z" class="Hook"/><path d="M1722.2 2186c-3.2 0-4-2.6-4-3.5 0-4.9 16.7-13.4 21.4-13.4 2.4 0 4 1.4 4 3.5 0 5-16.8 13.4-21.4 13.4m13.7-21.6c-9.6 0-21.1 8-21.1 17.3 0 4.2 3 9 11.1 9 10.3 0 21.1-8.4 21.1-17.2 0-5.8-5-9-11-9M567.6 3055.2c-3.3 0-4-2.6-4-3.5 0-5 16.7-13.4 21.4-13.4 2.3 0 4 1.4 4 3.5 0 5-16.8 13.4-21.4 13.4m13.7-21.6c-9.6 0-21.1 8-21.1 17.3 0 4.2 3 9 11 9 10.4 0 21.2-8.4 21.2-17.2 0-5.8-5-9.1-11.1-9.1M567.6 1318.4c-3.3 0-4-2.6-4-3.5 0-4.9 16.7-13.4 21.4-13.4 2.3 0 4 1.4 4 3.5 0 5-16.8 13.4-21.4 13.4m13.7-21.6c-9.6 0-21.1 8-21.1 17.3 0 4.2 3 9 11 9 10.4 0 21.2-8.4 21.2-17.2 0-5.8-5-9-11.1-9M1535 1351.3c0 4.2 3.1 9 11.2 9 10.3 0 21.1-8.4 21.1-17.2 0-5.8-5-9-11-9-9.7 0-21.2 8-21.2 17.2M1419.1 3050.9c0 4.2 3 9 11.1 9 10.3 0 21.2-8.4 21.2-17.2 0-5.8-5-9.1-11.2-9.1-9.6 0-21 8.1-21 17.3M1397.8 1351.3c0 4.2 3 9 11.1 9 10.3 0 21.1-8.4 21.1-17.2 0-5.8-5-9-11-9-9.7 0-21.2 8-21.2 17.2M567.6 432c-3.3 0-4-2.7-4-3.6 0-5 16.7-13.4 21.4-13.4 2.3 0 4 1.4 4 3.5 0 5-16.8 13.4-21.4 13.4m13.7-21.6c-9.6 0-21.1 8-21.1 17.3 0 4.2 3 9 11 9 10.4 0 21.2-8.4 21.2-17.2 0-5.8-5-9.1-11.1-9.1M960.6 2156.9c0 4.2 3 9 11 9 10.4 0 21.2-8.4 21.2-17.2 0-5.8-5-9-11.1-9-9.6 0-21.1 8-21.1 17.2M1237.6 1338.9c0 4.2 3 9 11.1 9 10.3 0 21.2-8.4 21.2-17.2 0-5.8-5-9-11.2-9-9.6 0-21 8-21 17.2M2703.7 464.8c0 4.2 3 9 11 9 10.4 0 21.2-8.4 21.2-17.2 0-5.8-5-9.1-11.1-9.1-9.6 0-21.1 8.1-21.1 17.3M1097 2156.9c0 4.2 3 9 11.1 9 10.3 0 21.2-8.4 21.2-17.2 0-5.8-5-9-11.2-9-9.6 0-21 8-21 17.2M2432.9 3063.3c0 4.2 3 9 11 9 10.4 0 21.2-8.4 21.2-17.2 0-5.8-5-9.1-11.1-9.1-9.6 0-21.1 8.1-21.1 17.3M1588.4 2194c0 4.3 3 9.1 11 9.1 10.4 0 21.2-8.4 21.2-17.2 0-5.8-5-9-11.1-9-9.6 0-21.1 8-21.1 17.2M2706.5 2181.7c0 4.2 3 9 11.1 9 10.3 0 21.1-8.4 21.1-17.2 0-5.8-5-9-11-9-9.7 0-21.2 8-21.2 17.2M1497.4 2181.7c0 4.2 3 9 11.1 9 10.3 0 21.1-8.4 21.1-17.2 0-5.8-5-9-11-9-9.7 0-21.2 8-21.2 17.2M1100.3 1326.5c0 4.2 3 9 11.1 9 10.3 0 21.2-8.4 21.2-17.2 0-5.8-5-9-11.2-9-9.6 0-21 8-21 17.2M1736.8 3026c0 4.3 3 9 11 9 10.4 0 21.2-8.3 21.2-17 0-6-5-9.2-11.1-9.2-9.6 0-21.1 8.1-21.1 17.3M1992.4 3063.3c0 4.2 3 9 11 9 10.4 0 21.2-8.4 21.2-17.2 0-5.8-5-9.1-11-9.1-9.7 0-21.2 8.1-21.2 17.3M1699 444.3c-3.3 0-4-2.6-4-3.5 0-5 16.6-13.4 21.3-13.4q3.8.2 4 3.5c0 5-16.8 13.4-21.4 13.4m13.7-21.6c-9.6 0-21.1 8-21.1 17.3 0 4.2 3 9 11.1 9 10.3 0 21.1-8.4 21.1-17.2 0-5.8-5-9.1-11-9.1M2124.5 3075.7c0 4.2 3 9 11.1 9 10.3 0 21.2-8.4 21.2-17.2 0-5.8-5-9.1-11.2-9.1-9.6 0-21 8.1-21 17.3M1377.5 440c0 4.2 3 9 11.1 9 10.3 0 21.1-8.4 21.1-17.2 0-5.8-5-9.1-11-9.1-9.7 0-21.2 8.1-21.2 17.3M1715.3 1355.6c-3.3 0-4-2.6-4-3.5 0-4.9 16.7-13.4 21.3-13.4 2.4 0 4 1.4 4 3.5 0 5-16.8 13.4-21.3 13.4m13.7-21.6c-9.7 0-21.2 8-21.2 17.3 0 4.2 3.1 9 11.2 9 10.3 0 21-8.4 21-17.2 0-5.8-4.9-9-11-9M2256.7 3075.7c0 4.2 3 9 11 9 10.4 0 21.2-8.4 21.2-17.2 0-5.8-5-9.1-11.1-9.1-9.6 0-21.1 8.1-21.1 17.3M560.2 2169.3c0 4.2 3 9 11 9 10.4 0 21.2-8.4 21.2-17.2 0-5.8-5-9-11.1-9-9.6 0-21.1 8-21.1 17.2M1516.8 440c0 4.2 3 9 11 9 10.4 0 21.2-8.4 21.2-17.2 0-5.8-5-9.1-11.1-9.1-9.6 0-21.1 8.1-21.1 17.3M1551.3 3026c0 4.3 3 9 11 9 10.4 0 21.2-8.3 21.2-17 0-6-5-9.2-11.1-9.2-9.6 0-21.2 8.1-21.2 17.3M2264.1 3316.9c-3.3 0-4-2.7-4-3.6 0-4.9 16.7-13.4 21.4-13.4q3.8.2 4 3.6c0 5-16.8 13.4-21.4 13.4m13.7-21.7c-9.6 0-21.1 8-21.1 17.3 0 4.3 3 9 11 9 10.4 0 21.2-8.4 21.2-17.1 0-5.9-5-9.2-11.1-9.2M2251.7 2493.8c0 4.2 3 9 11 9 10.4 0 21.2-8.5 21.2-17.2 0-5.8-5-9.1-11.1-9.1-9.6 0-21.2 8.1-21.2 17.3M2570 2568.2c0 4.2 3.1 9 11.2 9 10.3 0 21-8.5 21-17.2 0-5.8-4.9-9.1-11-9.1-9.7 0-21.2 8.1-21.2 17.3M2570 2481.4c0 4.2 3.1 9 11.2 9 10.3 0 21-8.5 21-17.2 0-5.8-4.9-9.1-11-9.1-9.7 0-21.2 8.1-21.2 17.3M2248 1612.2c0 4.2 3 9 11.1 9 10.3 0 21.1-8.4 21.1-17.2 0-5.8-5-9.1-11-9.1-9.7 0-21.2 8.1-21.2 17.3M1973.4 1624.6c0 4.2 3 9 11.1 9 10.3 0 21.2-8.4 21.2-17.2 0-5.8-5-9.1-11.2-9.1-9.6 0-21 8.1-21 17.3M1110.8 3387c0 4.2 3 9 11 9 10.4 0 21.2-8.5 21.2-17.2 0-5.9-5-9.2-11.1-9.2-9.6 0-21.1 8.2-21.1 17.3M1744.2 3304.5c-3.3 0-4-2.7-4-3.6 0-4.9 16.7-13.4 21.4-13.4 2.3 0 4 1.4 4 3.6 0 5-16.8 13.4-21.4 13.4m13.7-21.7c-9.6 0-21.1 8-21.1 17.3 0 4.3 3 9 11 9 10.4 0 21.2-8.4 21.2-17.1 0-5.9-5-9.2-11.1-9.2M968.8 707.4c0 4.2 3.1 9 11.1 9 10.3 0 21.2-8.4 21.2-17.2 0-5.8-5-9.1-11.1-9.1-9.7 0-21.2 8.1-21.2 17.3M2251.7 2580.6c0 4.2 3 9 11 9 10.4 0 21.2-8.5 21.2-17.2 0-5.8-5-9.1-11.1-9.1-9.6 0-21.2 8.1-21.2 17.3M1691.5 744.6c0 4.2 3 9 11.1 9 10.3 0 21.1-8.4 21.1-17.2 0-5.8-5-9.1-11-9.1-9.7 0-21.2 8.1-21.2 17.3M597.4 1591.7c-3.3 0-4-2.6-4-3.5 0-5 16.7-13.4 21.3-13.4q3.8.2 4 3.5c0 5-16.8 13.4-21.3 13.4m13.6-21.6c-9.6 0-21 8-21 17.3 0 4.2 3 9 11 9 10.3 0 21.2-8.4 21.2-17.2 0-5.8-5-9.1-11.2-9.1" class="Note"/><path d="M567.6 1604.1c-3.3 0-4-2.6-4-3.5 0-5 16.7-13.4 21.4-13.4 2.3 0 4 1.4 4 3.5 0 5-16.8 13.4-21.4 13.4m13.7-21.6c-9.6 0-21.1 8-21.1 17.3 0 4.2 3 9 11 9 10.4 0 21.2-8.4 21.2-17.2 0-5.8-5-9.1-11.1-9.1M1115.5 674.5c-3.2 0-4-2.6-4-3.5 0-5 16.7-13.4 21.4-13.4q3.8.2 4 3.5c0 5-16.8 13.4-21.4 13.4m13.7-21.6c-9.6 0-21.1 8-21.1 17.3 0 4.2 3 9 11.1 9 10.3 0 21.1-8.4 21.1-17.2 0-5.8-5-9.1-11-9.1" class="Note"/><path d="M567.6 1629c-3.3 0-4-2.7-4-3.6 0-5 16.7-13.4 21.4-13.4 2.3 0 4 1.4 4 3.5 0 5-16.8 13.4-21.4 13.4m13.7-21.6c-9.6 0-21.1 8-21.1 17.3 0 4.2 3 9 11 9 10.4 0 21.2-8.4 21.2-17.2 0-5.8-5-9.1-11.1-9.1" class="Note"/><path d="M567.6 1653.7c-3.3 0-4-2.6-4-3.5 0-5 16.7-13.4 21.4-13.4 2.3 0 4 1.4 4 3.5 0 5-16.8 13.4-21.4 13.4m13.7-21.6c-9.6 0-21.1 8-21.1 17.3 0 4.2 3 9 11 9 10.4 0 21.2-8.4 21.2-17.2 0-5.8-5-9.1-11.1-9.1M1115.5 711.7c-3.2 0-4-2.6-4-3.5 0-5 16.7-13.4 21.4-13.4q3.8.2 4 3.5c0 5-16.8 13.4-21.4 13.4m13.7-21.6c-9.6 0-21.1 8-21.1 17.3 0 4.2 3 9 11.1 9 10.3 0 21.1-8.4 21.1-17.2 0-5.8-5-9.1-11-9.1M1714.8 2506.2c0 4.2 3 9 11.1 9 10.3 0 21.1-8.5 21.1-17.2 0-5.8-5-9.1-11-9.1-9.7 0-21.2 8.1-21.2 17.3" class="Note"/><path d="M1714.8 2481.4c0 4.2 3 9 11.1 9 10.3 0 21.1-8.5 21.1-17.2 0-5.8-5-9.1-11-9.1-9.7 0-21.2 8.1-21.2 17.3" class="Note"/><path d="M1714.8 2456.6c0 4.2 3 9 11.1 9 10.3 0 21.1-8.5 21.1-17.2 0-5.8-5-9.1-11-9.1-9.7 0-21.2 8.1-21.2 17.3M1287 3337.3c0 4.3 3 9 11 9 10.4 0 21.2-8.4 21.2-17.1 0-5.9-5-9.2-11.1-9.2-9.6 0-21.1 8.2-21.1 17.3M1978.8 2506.2c0 4.2 3 9 11 9 10.4 0 21.2-8.5 21.2-17.2 0-5.8-5-9.1-11.1-9.1-9.6 0-21.2 8.1-21.2 17.3M1691.5 695c0 4.2 3 9 11.1 9 10.3 0 21.1-8.4 21.1-17.2 0-5.8-5-9.1-11-9.1-9.7 0-21.2 8.1-21.2 17.3" class="Note"/><path d="M1691.5 719.8c0 4.2 3 9 11.1 9 10.3 0 21.1-8.4 21.1-17.2 0-5.8-5-9.1-11-9.1-9.7 0-21.2 8.1-21.2 17.3M1978.8 2593c0 4.2 3 9 11 9 10.4 0 21.2-8.5 21.2-17.2 0-5.8-5-9.1-11.1-9.1-9.6 0-21.2 8.1-21.2 17.3M2568.4 1599.8c0 4.2 3 9 11 9 10.4 0 21.2-8.4 21.2-17.2 0-5.8-5-9.1-11.1-9.1-9.6 0-21.2 8.1-21.2 17.3M692.3 3337.3c0 4.3 3 9 11.1 9 10.3 0 21.1-8.4 21.1-17.1 0-5.9-5-9.2-11-9.2-9.7 0-21.2 8.2-21.2 17.3M2564.4 806.6c0 4.2 3 9 11.1 9 10.3 0 21.1-8.4 21.1-17.2 0-5.8-5-9.1-11-9.1-9.7 0-21.2 8.1-21.2 17.3M960.6 2469c0 4.2 3 9 11 9 10.4 0 21.2-8.5 21.2-17.2 0-5.8-5-9.1-11.1-9.1-9.6 0-21.1 8.1-21.1 17.3M960.6 2506.2c0 4.2 3 9 11 9 10.4 0 21.2-8.5 21.2-17.2 0-5.8-5-9.1-11.1-9.1-9.6 0-21.1 8.1-21.1 17.3M2564.4 719.8c0 4.2 3 9 11.1 9 10.3 0 21.1-8.4 21.1-17.2 0-5.8-5-9.1-11-9.1-9.7 0-21.2 8.1-21.2 17.3M2239.4 732.2c0 4.2 3.1 9 11.1 9 10.4 0 21.2-8.4 21.2-17.2 0-5.8-5-9.1-11.1-9.1-9.7 0-21.2 8.1-21.2 17.3M560.2 744.6c0 4.2 3 9 11 9 10.4 0 21.2-8.4 21.2-17.2 0-5.8-5-9.1-11.1-9.1-9.6 0-21.1 8.1-21.1 17.3M1960.9 831.4c0 4.2 3 9 11.1 9 10.3 0 21.1-8.4 21.1-17.2 0-5.8-5-9.1-11-9.1-9.7 0-21.2 8.1-21.2 17.3M2239.4 819c0 4.2 3.1 9 11.1 9 10.4 0 21.2-8.4 21.2-17.2 0-5.8-5-9.1-11.1-9.1-9.7 0-21.2 8.1-21.2 17.3M1551.3 3337.3c0 4.3 3 9 11 9 10.4 0 21.2-8.4 21.2-17.1 0-5.9-5-9.2-11.1-9.2-9.6 0-21.2 8.2-21.2 17.3" class="Note"/><path d="M960.6 2444.2c0 4.2 3 9 11 9 10.4 0 21.2-8.5 21.2-17.2 0-5.8-5-9.1-11.1-9.1-9.6 0-21.1 8.1-21.1 17.3M978.6 3337.3c0 4.3 3 9 11.1 9 10.3 0 21.2-8.4 21.2-17.1 0-5.9-5-9.2-11.2-9.2-9.6 0-21 8.2-21 17.3M560.2 2444.2c0 4.2 3 9 11 9 10.4 0 21.2-8.5 21.2-17.2 0-5.8-5-9.1-11.1-9.1-9.6 0-21.1 8.1-21.1 17.3M1707.8 1599.8c0 4.2 3.1 9 11.2 9 10.3 0 21-8.4 21-17.2 0-5.8-4.9-9.1-11-9.1-9.7 0-21.2 8.1-21.2 17.3" class="Note"/><path d="M560.2 2469c0 4.2 3 9 11 9 10.4 0 21.2-8.5 21.2-17.2 0-5.8-5-9.1-11.1-9.1-9.6 0-21.1 8.1-21.1 17.3M560.2 3300.1c0 4.3 3 9 11 9 10.4 0 21.2-8.4 21.2-17.1 0-5.9-5-9.2-11.1-9.2-9.6 0-21.1 8.2-21.1 17.3M560.2 2506.2c0 4.2 3 9 11 9 10.4 0 21.2-8.5 21.2-17.2 0-5.8-5-9.1-11.1-9.1-9.6 0-21.1 8.1-21.1 17.3M1115.5 736.5c-3.2 0-4-2.6-4-3.5 0-5 16.7-13.4 21.4-13.4q3.8.2 4 3.5c0 5-16.8 13.4-21.4 13.4m13.7-21.6c-9.6 0-21.1 8-21.1 17.3 0 4.2 3 9 11.1 9 10.3 0 21.1-8.4 21.1-17.2 0-5.8-5-9.1-11-9.1M968.8 682.6c0 4.2 3.1 9 11.1 9 10.3 0 21.2-8.4 21.2-17.2 0-5.8-5-9.1-11.1-9.1-9.7 0-21.2 8.1-21.2 17.3M1707.8 1624.6c0 4.2 3.1 9 11.2 9 10.3 0 21-8.4 21-17.2 0-5.8-4.9-9.1-11-9.1-9.7 0-21.2 8.1-21.2 17.3M1107.8 1591.7c-3.3 0-4-2.6-4-3.5 0-5 16.7-13.4 21.3-13.4q3.8.2 4 3.5c0 5-16.8 13.4-21.3 13.4m13.6-21.6c-9.6 0-21 8-21 17.3 0 4.2 3 9 11 9 10.3 0 21.2-8.4 21.2-17.2 0-5.8-5-9.1-11.2-9.1M968.8 744.6c0 4.2 3.1 9 11.1 9 10.3 0 21.2-8.4 21.2-17.2 0-5.8-5-9.1-11.1-9.1-9.7 0-21.2 8.1-21.2 17.3" class="Note"/><path d="M1107.8 1616.5c-3.3 0-4-2.6-4-3.5 0-5 16.7-13.4 21.3-13.4q3.8.2 4 3.5c0 5-16.8 13.4-21.3 13.4m13.6-21.6c-9.6 0-21 8-21 17.3 0 4.2 3 9 11 9 10.3 0 21.2-8.4 21.2-17.2 0-5.8-5-9.1-11.2-9.1M1419.1 3300.1c0 4.3 3 9 11.1 9 10.3 0 21.2-8.4 21.2-17.1 0-5.9-5-9.2-11.2-9.2-9.6 0-21 8.2-21 17.3M1107.8 1666.1c-3.3 0-4-2.6-4-3.5 0-5 16.7-13.4 21.3-13.4q3.8.2 4 3.5c0 5-16.8 13.4-21.3 13.4m13.6-21.6c-9.6 0-21 8-21 17.3 0 4.2 3 9 11 9 10.3 0 21.2-8.4 21.2-17.2 0-5.8-5-9.1-11.2-9.1M1707.8 1661.8c0 4.2 3.1 9 11.2 9 10.3 0 21-8.4 21-17.2 0-5.8-4.9-9.1-11-9.1-9.7 0-21.2 8.1-21.2 17.3M560.2 682.6c0 4.2 3 9 11 9 10.4 0 21.2-8.4 21.2-17.2 0-5.8-5-9.1-11.1-9.1-9.6 0-21.1 8.1-21.1 17.3M1104.5 2498.1c-3.3 0-4-2.7-4-3.5 0-5 16.6-13.4 21.3-13.4 2.4 0 4 1.4 4 3.5 0 5-16.8 13.4-21.3 13.4m13.6-21.6c-9.6 0-21 8-21 17.3 0 4.2 3 9 11 9 10.3 0 21.2-8.5 21.2-17.2 0-5.8-5-9.1-11.2-9.1" class="Note"/><path d="M560.2 707.4c0 4.2 3 9 11 9 10.4 0 21.2-8.4 21.2-17.2 0-5.8-5-9.1-11.1-9.1-9.6 0-21.1 8.1-21.1 17.3M1104.5 2473.3c-3.3 0-4-2.7-4-3.5 0-5 16.6-13.4 21.3-13.4 2.4 0 4 1.4 4 3.5 0 5-16.8 13.4-21.3 13.4m13.6-21.6c-9.6 0-21 8-21 17.3 0 4.2 3 9 11 9 10.3 0 21.2-8.5 21.2-17.2 0-5.8-5-9.1-11.2-9.1M846.5 3300.1c0 4.3 3 9 11 9 10.4 0 21.2-8.4 21.2-17.1 0-5.9-5-9.2-11.1-9.2-9.6 0-21.1 8.2-21.1 17.3M1960.9 744.6c0 4.2 3 9 11.1 9 10.3 0 21.1-8.4 21.1-17.2 0-5.8-5-9.1-11-9.1-9.7 0-21.2 8.1-21.2 17.3M1104.5 2436.1c-3.3 0-4-2.7-4-3.5 0-5 16.6-13.4 21.3-13.4 2.4 0 4 1.4 4 3.5 0 5-16.8 13.4-21.3 13.4m13.6-21.6c-9.6 0-21 8-21 17.3 0 4.2 3 9 11 9 10.3 0 21.2-8.5 21.2-17.2 0-5.8-5-9.1-11.2-9.1M1107.8 1641.3c-3.3 0-4-2.6-4-3.5 0-5 16.7-13.4 21.3-13.4q3.8.2 4 3.5c0 5-16.8 13.4-21.3 13.4m13.6-21.6c-9.6 0-21 8-21 17.3 0 4.2 3 9 11 9 10.3 0 21.2-8.4 21.2-17.2 0-5.8-5-9.1-11.2-9.1M1753.7 3355.7c-2.8 0-4.6-.8-6-3.3-1.2-2.5-3-8.8-3.1-11.5q-.3-4 3.2-5a14 14 0 0 1 4.2-.7c2.8 0 4.6.6 6 3.3s3.2 9 3.2 11.5c0 4.9-3.4 5.7-7.5 5.7m-.8-23.6c-13.7 0-18.5 6.9-18.5 13.3s4.8 13.4 18.5 13.4 18.5-6.9 18.5-13.4-4.8-13.3-18.5-13.3" class="Note"/><path d="M1753.7 3380.5c-2.8 0-4.6-.8-6-3.3-1.2-2.5-3-8.8-3.1-11.5q-.3-4 3.2-5a14 14 0 0 1 4.2-.7c2.8 0 4.6.6 6 3.3s3.2 9 3.2 11.5c0 4.9-3.4 5.7-7.5 5.7m-.8-23.6c-13.7 0-18.5 6.9-18.5 13.3s4.8 13.4 18.5 13.4 18.5-6.9 18.5-13.4-4.8-13.3-18.5-13.3M1198.9 3540.8c0 4.2 3 9 11 9 10.4 0 21.2-8.4 21.2-17.2 0-5.8-5-9.1-11.1-9.1-9.6 0-21.1 8.1-21.1 17.3M1377.5 997.6c0 4.3 3 9 11.1 9 10.3 0 21.1-8.4 21.1-17.1 0-5.9-5-9.1-11-9.1-9.7 0-21.2 8.1-21.2 17.2M1287 3540.8c0 4.2 3 9 11 9 10.4 0 21.2-8.4 21.2-17.2 0-5.8-5-9.1-11.1-9.1-9.6 0-21.1 8.1-21.1 17.3M2124.5 3553.2c0 4.2 3 9 11.1 9 10.3 0 21.2-8.4 21.2-17.2 0-5.8-5-9.1-11.2-9.1-9.6 0-21 8.1-21 17.3M2342.6 2746.8c0 4.3 3 9 11.1 9 10.3 0 21.2-8.4 21.2-17.1 0-5.9-5-9.1-11.2-9.1-9.6 0-21 8-21 17.2M846.5 3540.8c0 4.2 3 9 11 9 10.4 0 21.2-8.4 21.2-17.2 0-5.8-5-9.1-11.1-9.1-9.6 0-21.1 8.1-21.1 17.3M758.4 3540.8c0 4.2 3 9 11 9 10.4 0 21.2-8.4 21.2-17.2 0-5.8-5-9.1-11.1-9.1-9.6 0-21.1 8.1-21.1 17.3M1551.3 3540.8c0 4.2 3 9 11 9 10.4 0 21.2-8.4 21.2-17.2 0-5.8-5-9.1-11.1-9.1-9.6 0-21.2 8.1-21.2 17.3M2432.9 3553.2c0 4.2 3 9 11 9 10.4 0 21.2-8.4 21.2-17.2 0-5.8-5-9.1-11.1-9.1-9.6 0-21.1 8.1-21.1 17.3M560.2 3540.8c0 4.2 3 9 11 9 10.4 0 21.2-8.4 21.2-17.2 0-5.8-5-9.1-11.1-9.1-9.6 0-21.1 8.1-21.1 17.3M1992.4 3553.2c0 4.2 3 9 11 9 10.4 0 21.2-8.4 21.2-17.2 0-5.8-5-9.1-11-9.1-9.7 0-21.2 8.1-21.2 17.3M1904.3 3553.2c0 4.2 3 9 11 9 10.4 0 21.2-8.4 21.2-17.2 0-5.8-5-9.1-11-9.1-9.7 0-21.2 8.1-21.2 17.3M2433.6 2746.8c0 4.3 3 9 11 9 10.4 0 21.2-8.4 21.2-17.1 0-5.9-5-9.1-11-9.1-9.7 0-21.2 8-21.2 17.2M978.6 3540.8c0 4.2 3 9 11.1 9 10.3 0 21.2-8.4 21.2-17.2 0-5.8-5-9.1-11.2-9.1-9.6 0-21 8.1-21 17.3M1419.1 3540.8c0 4.2 3 9 11.1 9 10.3 0 21.2-8.4 21.2-17.2 0-5.8-5-9.1-11.2-9.1-9.6 0-21 8.1-21 17.3M2565 3553.2c0 4.2 3 9 11.1 9 10.3 0 21.2-8.4 21.2-17.2 0-5.8-5-9.1-11.2-9.1-9.6 0-21 8.1-21 17.3M2256.7 3553.2c0 4.2 3 9 11 9 10.4 0 21.2-8.4 21.2-17.2 0-5.8-5-9.1-11.1-9.1-9.6 0-21.1 8.1-21.1 17.3M2697.2 3553.2c0 4.2 3 9 11 9 10.4 0 21.2-8.4 21.2-17.2 0-5.8-5-9.1-11.1-9.1-9.6 0-21.2 8.1-21.2 17.3M1736.8 3553.2c0 4.2 3 9 11 9 10.4 0 21.2-8.4 21.2-17.2 0-5.8-5-9.1-11.1-9.1-9.6 0-21.1 8.1-21.1 17.3M2570 2746.8c0 4.3 3.1 9 11.2 9 10.3 0 21-8.4 21-17.1 0-5.9-4.9-9.1-11-9.1-9.7 0-21.2 8-21.2 17.2M1110.8 3540.8c0 4.2 3 9 11 9 10.4 0 21.2-8.4 21.2-17.2 0-5.8-5-9.1-11.1-9.1-9.6 0-21.1 8.1-21.1 17.3M2344.8 3553.2c0 4.2 3 9 11 9 10.4 0 21.2-8.4 21.2-17.2 0-5.8-5-9.1-11.1-9.1-9.6 0-21.1 8.1-21.1 17.3M2706.5 2746.8c0 4.3 3 9 11.1 9 10.3 0 21.1-8.4 21.1-17.1 0-5.9-5-9.1-11-9.1-9.7 0-21.2 8-21.2 17.2M2339.5 1865.2c0 4.3 3.1 9 11.1 9 10.4 0 21.2-8.4 21.2-17.1 0-5.9-5-9.1-11.1-9.1-9.7 0-21.2 8.1-21.2 17.2M1397.8 1815.6c0 4.3 3 9 11.1 9 10.3 0 21.1-8.4 21.1-17.1 0-5.9-5-9.1-11-9.1-9.7 0-21.2 8.1-21.2 17.2M1535 1815.6c0 4.3 3.1 9 11.2 9 10.3 0 21.1-8.4 21.1-17.1 0-5.9-5-9.1-11-9.1-9.7 0-21.2 8.1-21.2 17.2M968.8 948c0 4.3 3.1 9 11.1 9 10.3 0 21.2-8.4 21.2-17.1 0-5.9-5-9.1-11.1-9.1-9.7 0-21.2 8.1-21.2 17.2M1707.8 1865.2c0 4.3 3.1 9 11.2 9 10.3 0 21-8.4 21-17.1 0-5.9-4.9-9.1-11-9.1-9.7 0-21.2 8.1-21.2 17.2M1881.9 1865.2c0 4.3 3 9 11 9 10.4 0 21.2-8.4 21.2-17.1 0-5.9-5-9.1-11-9.1-9.7 0-21.2 8.1-21.2 17.2M1973.4 1865.2c0 4.3 3 9 11.1 9 10.3 0 21.2-8.4 21.2-17.1 0-5.9-5-9.1-11.2-9.1-9.6 0-21 8.1-21 17.2M2110.7 1865.2c0 4.3 3 9 11.1 9 10.3 0 21.2-8.4 21.2-17.1 0-5.9-5-9.1-11.2-9.1-9.6 0-21 8.1-21 17.2M2248 1865.2c0 4.3 3 9 11.1 9 10.3 0 21.1-8.4 21.1-17.1 0-5.9-5-9.1-11-9.1-9.7 0-21.2 8.1-21.2 17.2M1306.3 1815.6c0 4.3 3 9 11 9 10.4 0 21.2-8.4 21.2-17.1 0-5.9-5-9.1-11.1-9.1-9.6 0-21.1 8.1-21.1 17.2M2431 1865.2c0 4.3 3.1 9 11.2 9 10.3 0 21.1-8.4 21.1-17.1 0-5.9-5-9.1-11.1-9.1-9.6 0-21.1 8.1-21.1 17.2M2568.4 1865.2c0 4.3 3 9 11 9 10.4 0 21.2-8.4 21.2-17.1 0-5.9-5-9.1-11.1-9.1-9.6 0-21.2 8.1-21.2 17.2M2705.6 1865.2c0 4.3 3.1 9 11.2 9 10.3 0 21-8.4 21-17.1 0-5.9-4.9-9.1-11-9.1-9.7 0-21.2 8.1-21.2 17.2M829.6 948c0 4.3 3 9 11 9 10.4 0 21.2-8.4 21.2-17.1 0-5.9-5-9.1-11.1-9.1-9.6 0-21.1 8.1-21.1 17.2M736.7 948c0 4.3 3 9 11.1 9 10.3 0 21.1-8.4 21.1-17.1 0-5.9-5-9.1-11-9.1-9.7 0-21.2 8.1-21.2 17.2M560.2 2709.6c0 4.3 3 9 11 9 10.4 0 21.2-8.4 21.2-17.1 0-5.9-5-9.1-11.1-9.1-9.6 0-21.1 8-21.1 17.2M733.1 2709.6c0 4.3 3.1 9 11.1 9 10.4 0 21.2-8.4 21.2-17.1 0-5.9-5-9.1-11.1-9.1-9.7 0-21.2 8-21.2 17.2M824.1 2709.6c0 4.3 3 9 11.1 9 10.3 0 21.1-8.4 21.1-17.1 0-5.9-5-9.1-11-9.1-9.7 0-21.2 8-21.2 17.2M2564.4 985.2c0 4.3 3 9 11.1 9 10.3 0 21.1-8.4 21.1-17.1 0-5.9-5-9.1-11-9.1-9.7 0-21.2 8.1-21.2 17.2M1516.8 997.6c0 4.3 3 9 11 9 10.4 0 21.2-8.4 21.2-17.1 0-5.9-5-9.1-11.1-9.1-9.6 0-21.1 8.1-21.1 17.2M1691.5 985.2c0 4.3 3 9 11.1 9 10.3 0 21.1-8.4 21.1-17.1 0-5.9-5-9.1-11-9.1-9.7 0-21.2 8.1-21.2 17.2M1868 985.2c0 4.3 3.1 9 11.2 9 10.3 0 21-8.4 21-17.1 0-5.9-4.9-9.1-11-9.1-9.6 0-21.2 8.1-21.2 17.2M1960.9 985.2c0 4.3 3 9 11.1 9 10.3 0 21.1-8.4 21.1-17.1 0-5.9-5-9.1-11-9.1-9.7 0-21.2 8.1-21.2 17.2M2100.2 985.2c0 4.3 3 9 11 9 10.4 0 21.2-8.4 21.2-17.1 0-5.9-5-9.1-11.1-9.1-9.6 0-21.1 8.1-21.1 17.2M2239.4 985.2c0 4.3 3.1 9 11.1 9 10.4 0 21.2-8.4 21.2-17.1 0-5.9-5-9.1-11.1-9.1-9.7 0-21.2 8.1-21.2 17.2M2332.3 985.2c0 4.3 3 9 11 9 10.4 0 21.2-8.4 21.2-17.1 0-5.9-5-9.1-11-9.1-9.7 0-21.2 8.1-21.2 17.2M2425.1 985.2c0 4.3 3.1 9 11.1 9 10.4 0 21.2-8.4 21.2-17.1 0-5.9-5-9.1-11.1-9.1-9.7 0-21.2 8.1-21.2 17.2M2251.7 2746.8c0 4.3 3 9 11 9 10.4 0 21.2-8.4 21.2-17.1 0-5.9-5-9.1-11.1-9.1-9.6 0-21.2 8-21.2 17.2M2703.7 985.2c0 4.3 3 9 11 9 10.4 0 21.2-8.4 21.2-17.1 0-5.9-5-9.1-11.1-9.1-9.6 0-21.1 8.1-21.1 17.2M1284.7 997.6c0 4.3 3 9 11 9 10.4 0 21.2-8.4 21.2-17.1 0-5.9-5-9.1-11.1-9.1-9.6 0-21.1 8.1-21.1 17.2M1108.1 997.6c0 4.3 3 9 11.1 9 10.3 0 21.1-8.4 21.1-17.1 0-5.9-5-9.1-11-9.1-9.7 0-21.2 8.1-21.2 17.2M560.2 1803.2c0 4.3 3 9 11 9 10.4 0 21.2-8.4 21.2-17.1 0-5.9-5-9.1-11.1-9.1-9.6 0-21.1 8.1-21.1 17.2M734.2 1803.2c0 4.3 3 9 11.1 9 10.3 0 21.1-8.4 21.1-17.1 0-5.9-5-9.1-11-9.1-9.7 0-21.2 8.1-21.2 17.2M825.7 1803.2c0 4.3 3.1 9 11.1 9 10.4 0 21.2-8.4 21.2-17.1 0-5.9-5-9.1-11.1-9.1-9.7 0-21.2 8.1-21.2 17.2M963 1803.2c0 4.3 3.1 9 11.1 9 10.3 0 21.2-8.4 21.2-17.1 0-5.9-5-9.1-11.1-9.1-9.7 0-21.2 8.1-21.2 17.2M1100.3 1815.6c0 4.3 3 9 11.1 9 10.3 0 21.2-8.4 21.2-17.1 0-5.9-5-9.1-11.2-9.1-9.6 0-21 8.1-21 17.2M1361 2759.2c0 4.3 3 9 11 9 10.4 0 21.2-8.4 21.2-17.1 0-5.9-5-9.1-11.1-9.1-9.6 0-21.1 8-21.1 17.2M1887.8 2746.8c0 4.3 3 9 11 9 10.4 0 21.2-8.4 21.2-17.1 0-5.9-5-9.1-11-9.1-9.7 0-21.2 8-21.2 17.2M1714.8 2746.8c0 4.3 3 9 11.1 9 10.3 0 21.1-8.4 21.1-17.1 0-5.9-5-9.1-11-9.1-9.7 0-21.2 8-21.2 17.2M560.2 948c0 4.3 3 9 11 9 10.4 0 21.2-8.4 21.2-17.1 0-5.9-5-9.1-11.1-9.1-9.6 0-21.1 8.1-21.1 17.2M1978.8 2746.8c0 4.3 3 9 11 9 10.4 0 21.2-8.4 21.2-17.1 0-5.9-5-9.1-11.1-9.1-9.6 0-21.2 8-21.2 17.2M1497.4 2759.2c0 4.3 3 9 11.1 9 10.3 0 21.1-8.4 21.1-17.1 0-5.9-5-9.1-11-9.1-9.7 0-21.2 8-21.2 17.2M1270 2759.2c0 4.3 3 9 11 9 10.4 0 21.2-8.4 21.2-17.1 0-5.9-5-9.1-11-9.1-9.7 0-21.2 8-21.2 17.2M2115.2 2746.8c0 4.3 3 9 11.1 9 10.3 0 21.1-8.4 21.1-17.1 0-5.9-5-9.1-11-9.1-9.7 0-21.2 8-21.2 17.2M1097 2759.2c0 4.3 3 9 11.1 9 10.3 0 21.2-8.4 21.2-17.1 0-5.9-5-9.1-11.2-9.1-9.6 0-21 8-21 17.2M960.6 2709.6c0 4.3 3 9 11 9 10.4 0 21.2-8.4 21.2-17.1 0-5.9-5-9.1-11.1-9.1-9.6 0-21.1 8-21.1 17.2" class="Note"/><path d="M431.2 481q-3 .6-5.8.6c-14.2 0-26.3-9.9-26.3-24.9 0-12 8.6-22.9 17.3-30.4l4.8-4.4 2.2 14.1c-9 2.7-15.1 12.2-15.1 21.5 0 7 5.4 16.5 13.4 16.5.7 0 1.6-.4 1.6-1.3s-1-1.4-2.1-2.2c-4-2.4-6.1-5-6.1-9.8 0-6 4.5-11 10.3-12.3zm-8.8-102c1-4 5.5-14.3 10.7-14.3 1.4 0 3.8 4.8 3.8 11.7 0 10.3-7.6 18-14.5 24.8q-.9-6-1-12 0-5.5 1-10.1m22.9 83.6c0 7-3 14.3-10 17.2l-5.4-32.1c9 0 15.4 6 15.4 14.9m-43.7 48.8c0 6.5 5 15.2 18.5 15.2a23 23 0 0 0 12.3-3.4c5.3-3.8 6.7-10.3 6.7-16.6q0-5.6-1.6-14L436 484c9.8-3.2 17-13.3 17-23.5a24 24 0 0 0-25.1-25.1l-2.9-17.4a56 56 0 0 0 17.8-39.1c0-9-2.8-16.4-4.4-20-2.4-5-5.2-8.5-7-8.5-.7 0-3.8 1.2-7 5-6.4 7.6-8.2 20.3-8.2 28.6 0 5.4.5 10.2 2.2 21.3-.1.1-5.3 5.4-7.4 7-9 8.5-21.5 20.5-21.5 40.4a34 34 0 0 0 34.6 33q4.4 0 7.9-.6 3 14 3 21.7-.1 15.7-15.3 15.8c-2.4 0-4.5-.5-4.7-.5l-.3-.3q0-.3.5-.4a11 11 0 0 0 9.3-11c0-5.4-4-11-11.5-11-7 0-11.4 5.6-11.4 12.2M431.2 1342.7q-3 .6-5.8.6c-14.2 0-26.3-9.9-26.3-24.9 0-12 8.6-22.9 17.3-30.4l4.8-4.4 2.2 14.1c-9 2.7-15.1 12.2-15.1 21.5 0 7 5.4 16.5 13.4 16.5.7 0 1.6-.4 1.6-1.3s-1-1.4-2.1-2.2c-4-2.4-6.1-5-6.1-9.8 0-6 4.5-11 10.3-12.3zm-8.8-102c1-3.9 5.5-14.3 10.7-14.3 1.4 0 3.8 4.8 3.8 11.7 0 10.3-7.6 18-14.5 24.8q-.9-5.8-1-12 0-5.5 1-10.1m22.9 83.6c0 7-3 14.3-10 17.2l-5.4-32c9 0 15.4 6 15.4 14.8m-43.7 48.8c0 6.6 5 15.2 18.5 15.2a23 23 0 0 0 12.3-3.4c5.3-3.8 6.7-10.3 6.7-16.6q0-5.6-1.6-14l-1.5-8.8c9.8-3.2 17-13.3 17-23.5a24 24 0 0 0-25.1-25l-2.9-17.4a56 56 0 0 0 17.8-39.2c0-9-2.8-16.4-4.4-20-2.4-5-5.2-8.5-7-8.5-.7 0-3.8 1.2-7 5-6.4 7.6-8.2 20.3-8.2 28.6 0 5.4.5 10.2 2.2 21.4-.1 0-5.3 5.3-7.4 7-9 8.4-21.5 20.4-21.5 40.3a34 34 0 0 0 34.6 33.1q4.4 0 7.9-.7 3 14 3 21.7-.1 15.7-15.3 15.8c-2.4 0-4.5-.5-4.7-.5l-.3-.3q0-.3.5-.4a11 11 0 0 0 9.3-11c0-5.3-4-11-11.5-11-7 0-11.4 5.7-11.4 12.2M431.2 3104.3q-3 .6-5.8.6c-14.2 0-26.3-9.9-26.3-24.9 0-12 8.6-22.9 17.3-30.4l4.8-4.4 2.2 14.1c-9 2.7-15.1 12.2-15.1 21.5 0 7 5.4 16.5 13.4 16.5.7 0 1.6-.4 1.6-1.3s-1-1.4-2.1-2.2c-4-2.4-6.1-5-6.1-9.8 0-6 4.5-11 10.3-12.3zm-8.8-102c1-4 5.5-14.3 10.7-14.3 1.4 0 3.8 4.8 3.8 11.7 0 10.3-7.6 18-14.5 24.8q-.9-6-1-12 0-5.5 1-10.1m22.9 83.6c0 7-3 14.3-10 17.2L430 3071c9 0 15.4 6 15.4 14.9m-43.7 48.8c0 6.5 5 15.2 18.5 15.2a23 23 0 0 0 12.3-3.4c5.3-3.8 6.7-10.3 6.7-16.6q0-5.6-1.6-14l-1.5-8.8c9.8-3.2 17-13.3 17-23.5a24 24 0 0 0-25.1-25.1l-2.9-17.4a56 56 0 0 0 17.8-39.1c0-9-2.8-16.4-4.4-20-2.4-5-5.2-8.5-7-8.5-.7 0-3.8 1.2-7 5-6.4 7.6-8.2 20.3-8.2 28.6 0 5.4.5 10.2 2.2 21.3-.1.1-5.3 5.4-7.4 7-9 8.5-21.5 20.5-21.5 40.4a34 34 0 0 0 34.6 33q4.4 0 7.9-.6 3 14 3 21.7-.1 15.7-15.3 15.8c-2.4 0-4.5-.5-4.7-.5l-.3-.3q0-.3.5-.4a11 11 0 0 0 9.3-11c0-5.4-4-11-11.5-11-7 0-11.4 5.6-11.4 12.2M431.2 2222.7q-3 .6-5.8.6c-14.2 0-26.3-9.9-26.3-24.9 0-12 8.6-22.9 17.3-30.4l4.8-4.4 2.2 14.1c-9 2.7-15.1 12.2-15.1 21.5 0 7 5.4 16.5 13.4 16.5.7 0 1.6-.4 1.6-1.3s-1-1.4-2.1-2.2c-4-2.4-6.1-5-6.1-9.8 0-6 4.5-11 10.3-12.3zm-8.8-102c1-3.9 5.5-14.3 10.7-14.3 1.4 0 3.8 4.8 3.8 11.7 0 10.3-7.6 18-14.5 24.8q-.9-5.9-1-12 0-5.5 1-10.1m22.9 83.6c0 7-3 14.3-10 17.2l-5.4-32c9 0 15.4 6 15.4 14.8m-43.7 48.8c0 6.6 5 15.2 18.5 15.2a23 23 0 0 0 12.3-3.4c5.3-3.8 6.7-10.3 6.7-16.6q0-5.6-1.6-14l-1.5-8.8c9.8-3.2 17-13.3 17-23.5a24 24 0 0 0-25.1-25l-2.9-17.4a56 56 0 0 0 17.8-39.2c0-9-2.8-16.4-4.4-20-2.4-5-5.2-8.5-7-8.5-.7 0-3.8 1.2-7 5-6.4 7.6-8.2 20.3-8.2 28.6 0 5.4.5 10.2 2.2 21.4-.1 0-5.3 5.3-7.4 7-9 8.4-21.5 20.4-21.5 40.3a34 34 0 0 0 34.6 33.1q4.4 0 7.9-.7 3 14 3 21.7-.1 15.7-15.3 15.8c-2.4 0-4.5-.5-4.7-.5l-.3-.3q0-.3.5-.4a11 11 0 0 0 9.3-11c0-5.3-4-11-11.5-11-7 0-11.4 5.7-11.4 12.2M431.2 3353.6q-3 .6-5.8.6c-14.2 0-26.3-10-26.3-25 0-12 8.6-22.8 17.3-30.4l4.8-4.3 2.2 14c-9 2.7-15.1 12.2-15.1 21.6 0 7 5.4 16.4 13.4 16.4.7 0 1.6-.4 1.6-1.3s-1-1.3-2.1-2.1c-4-2.4-6.1-5-6.1-9.9 0-6 4.5-10.9 10.3-12.3zm-8.8-102c1-4 5.5-14.4 10.7-14.4 1.4 0 3.8 4.9 3.8 11.7 0 10.3-7.6 18-14.5 24.8q-.9-5.8-1-12 0-5.5 1-10.1m22.9 83.6c0 7-3 14.3-10 17.2l-5.4-32c9 0 15.4 6 15.4 14.8m-43.7 48.8c0 6.6 5 15.2 18.5 15.2a23 23 0 0 0 12.3-3.4c5.3-3.7 6.7-10.3 6.7-16.5q0-5.7-1.6-14l-1.5-8.8c9.8-3.2 17-13.3 17-23.6a24 24 0 0 0-25.1-25l-2.9-17.4a56 56 0 0 0 17.8-39.2c0-9-2.8-16.4-4.4-20-2.4-5-5.2-8.5-7-8.5-.7 0-3.8 1.2-7 5-6.4 7.6-8.2 20.3-8.2 28.6 0 5.4.5 10.3 2.2 21.4-.1 0-5.3 5.3-7.4 7-9 8.5-21.5 20.5-21.5 40.3a34 34 0 0 0 34.6 33.1q4.4 0 7.9-.7c1.9 9.6 3 16.5 3 21.8q-.1 15.6-15.3 15.7c-2.4 0-4.5-.4-4.7-.4q-.1-.3-.3-.3 0-.3.5-.4a11 11 0 0 0 9.3-11c0-5.4-4-11-11.5-11-7 0-11.4 5.6-11.4 12.1M431.2 1616q-3 .6-5.8.6c-14.2 0-26.3-9.9-26.3-24.9 0-12 8.6-22.9 17.3-30.4l4.8-4.4 2.2 14.1c-9 2.7-15.1 12.2-15.1 21.5 0 7 5.4 16.5 13.4 16.5.7 0 1.6-.4 1.6-1.3s-1-1.4-2.1-2.2c-4-2.4-6.1-5-6.1-9.8 0-6 4.5-11 10.3-12.3zm-8.8-102c1-4 5.5-14.3 10.7-14.3 1.4 0 3.8 4.8 3.8 11.7 0 10.3-7.6 18-14.5 24.8q-.9-6-1-12 0-5.5 1-10.1m22.9 83.6c0 7-3 14.3-10 17.2l-5.4-32.1c9 0 15.4 6 15.4 14.9m-43.7 48.8c0 6.5 5 15.2 18.5 15.2a23 23 0 0 0 12.3-3.4c5.3-3.8 6.7-10.3 6.7-16.6q0-5.6-1.6-14l-1.5-8.8c9.8-3.2 17-13.3 17-23.5a24 24 0 0 0-25.1-25.1l-2.9-17.4a56 56 0 0 0 17.8-39.1c0-9-2.8-16.4-4.4-20-2.4-5-5.2-8.5-7-8.5-.7 0-3.8 1.2-7 5-6.4 7.6-8.2 20.3-8.2 28.6 0 5.4.5 10.2 2.2 21.3-.1.1-5.3 5.4-7.4 7-9 8.5-21.5 20.5-21.5 40.4a34 34 0 0 0 34.6 33q4.4 0 7.9-.6 3 14 3 21.7-.1 15.7-15.3 15.8c-2.4 0-4.5-.5-4.7-.5l-.3-.3q0-.3.5-.4a11 11 0 0 0 9.3-11c0-5.4-4-11-11.5-11-7 0-11.4 5.6-11.4 12.2M431.2 736q-3 .6-5.8.6c-14.2 0-26.3-9.9-26.3-24.9 0-12 8.6-22.9 17.3-30.4l4.8-4.4 2.2 14.1c-9 2.7-15.1 12.2-15.1 21.5 0 7 5.4 16.5 13.4 16.5.7 0 1.6-.4 1.6-1.3s-1-1.4-2.1-2.2c-4-2.4-6.1-5-6.1-9.8 0-6 4.5-11 10.3-12.3zm-8.8-102c1-4 5.5-14.3 10.7-14.3 1.4 0 3.8 4.8 3.8 11.7 0 10.3-7.6 18-14.5 24.8q-.9-6-1-12 0-5.5 1-10.1m22.9 83.6c0 7-3 14.3-10 17.2l-5.4-32.1c9 0 15.4 6 15.4 14.9m-43.7 48.8c0 6.5 5 15.2 18.5 15.2a23 23 0 0 0 12.3-3.4c5.3-3.8 6.7-10.3 6.7-16.6q0-5.6-1.6-14L436 739c9.8-3.2 17-13.3 17-23.5a24 24 0 0 0-25.1-25.1l-2.9-17.4a56 56 0 0 0 17.8-39.1c0-9-2.8-16.4-4.4-20-2.4-5-5.2-8.5-7-8.5-.7 0-3.8 1.2-7 5-6.4 7.6-8.2 20.3-8.2 28.6 0 5.4.5 10.2 2.2 21.3-.1.1-5.3 5.4-7.4 7-9 8.5-21.5 20.5-21.5 40.4a34 34 0 0 0 34.6 33q4.4 0 7.9-.6 3 14 3 21.7-.1 15.7-15.3 15.8c-2.4 0-4.5-.5-4.7-.5l-.3-.3q0-.3.5-.4a11 11 0 0 0 9.3-11c0-5.4-4-11-11.5-11-7 0-11.4 5.6-11.4 12.2M431.2 2497.6q-3 .6-5.8.6c-14.2 0-26.3-9.9-26.3-24.9 0-12 8.6-22.9 17.3-30.4l4.8-4.4 2.2 14c-9 2.8-15.1 12.3-15.1 21.6 0 7 5.4 16.5 13.4 16.5.7 0 1.6-.4 1.6-1.3s-1-1.4-2.1-2.2c-4-2.4-6.1-5-6.1-9.8 0-6 4.5-11 10.3-12.3zm-8.8-102c1-4 5.5-14.3 10.7-14.3 1.4 0 3.8 4.8 3.8 11.7 0 10.3-7.6 18-14.5 24.8q-.9-6-1-12 0-5.5 1-10.2m22.9 83.7c0 7-3 14.3-10 17.1l-5.4-32c9 0 15.4 6 15.4 14.9m-43.7 48.8c0 6.5 5 15.2 18.5 15.2a23 23 0 0 0 12.3-3.4c5.3-3.8 6.7-10.3 6.7-16.6q0-5.6-1.6-14l-1.5-8.8c9.8-3.2 17-13.3 17-23.5a24 24 0 0 0-25.1-25.1l-2.9-17.4a56 56 0 0 0 17.8-39.2c0-9-2.8-16.3-4.4-19.9-2.4-5-5.2-8.5-7-8.5-.7 0-3.8 1.2-7 5-6.4 7.6-8.2 20.3-8.2 28.6 0 5.4.5 10.2 2.2 21.3-.1.1-5.3 5.4-7.4 7-9 8.5-21.5 20.5-21.5 40.4a34 34 0 0 0 34.6 33q4.4 0 7.9-.6 3 14 3 21.7-.1 15.6-15.3 15.8c-2.4 0-4.5-.5-4.7-.5l-.3-.3q0-.3.5-.4a11 11 0 0 0 9.3-11c0-5.4-4-11-11.5-11-7 0-11.4 5.6-11.4 12.2M445.8 1749.6c0 2.7 2.2 5 4.8 5s4.8-2.3 4.8-5-2.2-5.1-4.8-5.1-4.8 2.3-4.8 5m-31-12.5c-7.6 0-13.7 4.3-13.8 4.3a23 23 0 0 0-9.6 18c0 7.3 4.2 12.7 11.5 12.7 6.4 0 11.3-4.3 11.3-10.8a10.6 10.6 0 0 0-13.7-9.8c-1 .3-2.7 1.3-3.5 2 .7-4.3 3.7-8.7 7.6-10.8a19 19 0 0 1 9.1-2q15.1 0 15.1 24.8c0 13-8.2 31.5-18 40.2a85 85 0 0 1-20.1 13.9s-1.2.7-1.2 1.9l.1.5c.3 1 1.2 1.2 1.8 1.2l.5-.1s11.4-4.7 20.4-11.7c14-10 29.6-27.7 29.6-46 0-17.2-9.3-28.3-27.2-28.3m31.1 37c0 2.8 2.2 5.1 4.8 5.1s4.8-2.3 4.8-5-2.2-5-4.8-5-4.8 2.2-4.8 5M445.8 3487c0 2.9 2.2 5 4.8 5s4.8-2.1 4.8-5c0-2.7-2.2-5-4.8-5s-4.8 2.3-4.8 5m-31-12.5c-7.6 0-13.7 4.4-13.8 4.4a23 23 0 0 0-9.6 18c0 7.3 4.2 12.6 11.5 12.6 6.4 0 11.3-4.2 11.3-10.8a10.6 10.6 0 0 0-13.7-9.8c-1 .4-2.7 1.4-3.5 2 .7-4.3 3.7-8.7 7.6-10.8a19 19 0 0 1 9.1-2q15.1 0 15.1 24.9c0 12.9-8.2 31.4-18 40.2a85 85 0 0 1-20.1 13.8s-1.2.7-1.2 2l.1.4c.3 1 1.2 1.2 1.8 1.2h.5s11.4-4.7 20.4-11.8c14-10 29.6-27.7 29.6-46 0-17.2-9.3-28.3-27.2-28.3m31.1 37.1c0 2.8 2.2 5 4.8 5s4.8-2.2 4.8-5-2.2-5-4.8-5-4.8 2.2-4.8 5M445.8 2631.1c0 2.8 2.2 5 4.8 5s4.8-2.2 4.8-5-2.2-5-4.8-5-4.8 2.3-4.8 5m-31-12.5c-7.6 0-13.7 4.3-13.8 4.3a23 23 0 0 0-9.6 18c0 7.3 4.2 12.7 11.5 12.7 6.4 0 11.3-4.3 11.3-10.8a10.6 10.6 0 0 0-13.7-9.9c-1 .4-2.7 1.4-3.5 2.1.7-4.4 3.7-8.7 7.6-10.8a19 19 0 0 1 9.1-2q15.1 0 15.1 24.8c0 13-8.2 31.5-18 40.2a85 85 0 0 1-20.1 13.9s-1.2.7-1.2 1.9l.1.5c.3 1 1.2 1.2 1.8 1.2l.5-.1s11.4-4.7 20.4-11.8c14-10 29.6-27.6 29.6-45.9 0-17.2-9.3-28.3-27.2-28.3m31.1 37c0 2.8 2.2 5.1 4.8 5.1s4.8-2.3 4.8-5-2.2-5.1-4.8-5.1-4.8 2.3-4.8 5M445.8 869.6c0 2.7 2.2 5 4.8 5s4.8-2.3 4.8-5-2.2-5.1-4.8-5.1-4.8 2.3-4.8 5m-31-12.5c-7.6 0-13.7 4.3-13.8 4.3a23 23 0 0 0-9.6 18c0 7.3 4.2 12.7 11.5 12.7 6.4 0 11.3-4.3 11.3-10.8a10.6 10.6 0 0 0-13.7-9.9c-1 .4-2.7 1.4-3.5 2.1.7-4.3 3.7-8.7 7.6-10.8a19 19 0 0 1 9.1-2q15.1 0 15.1 24.8c0 13-8.2 31.5-18 40.2a85 85 0 0 1-20.1 13.9s-1.2.7-1.2 1.9l.1.5c.3 1 1.2 1.2 1.8 1.2l.5-.1s11.4-4.7 20.4-11.7c14-10 29.6-27.7 29.6-46 0-17.2-9.3-28.3-27.2-28.3m31.1 37c0 2.8 2.2 5.1 4.8 5.1s4.8-2.3 4.8-5-2.2-5.1-4.8-5.1-4.8 2.3-4.8 5" class="Clef"/><path d="m481.7 3002.2 8.8-1.8v16.3l-8.8 2zm15.4-3.1q1-.3 1-1.4v-5.9q0-1.2-1.3-1.3h-.2l-3.3.6v-14.7h-2.8v15.3l-8.8 1.8v-14h-2.8v14.6l-3.8.8q-1 .3-1.1 1.4v5.8q.1 1.3 1.4 1.4h.3l3.2-.7v16.3l-3.8.8q-1 .3-1.1 1.4v5.8q.1 1.3 1.4 1.3h.3l3.2-.6v14.7h2.8v-15.3l8.8-1.8v14h2.8v-14.6l3.8-.7q1-.3 1-1.4v-5.9q0-1.3-1.3-1.3h-.2l-3.3.6v-16.3zM481.7 1240.6l8.8-1.8v16.3l-8.8 2zm15.4-3.1q1-.3 1-1.4v-5.8q0-1.3-1.3-1.4h-.2l-3.3.7v-14.8h-2.8v15.3l-8.8 1.8v-14h-2.8v14.6l-3.8.8q-1 .3-1.1 1.4v5.8q.1 1.3 1.4 1.4h.3l3.2-.7v16.3l-3.8.8q-1 .3-1.1 1.4v5.8q.1 1.3 1.4 1.4h.3l3.2-.7v14.7h2.8v-15.3l8.8-1.8v14h2.8v-14.6l3.8-.7q1-.3 1-1.4v-5.8q0-1.3-1.3-1.4h-.2l-3.3.7v-16.4zM481.7 2120.6l8.8-1.8v16.3l-8.8 2zm15.4-3.1q1-.3 1-1.4v-5.8q0-1.3-1.3-1.4h-.2l-3.3.7v-14.8h-2.8v15.3l-8.8 1.8v-14h-2.8v14.6l-3.8.8q-1 .3-1.1 1.4v5.8q.1 1.3 1.4 1.4h.3l3.2-.7v16.3l-3.8.8q-1 .3-1.1 1.4v5.8q.1 1.3 1.4 1.4h.3l3.2-.7v14.7h2.8v-15.3l8.8-1.8v14h2.8v-14.6l3.8-.7q1-.3 1-1.4v-5.8q0-1.3-1.3-1.4h-.2l-3.3.7v-16.4zM481.7 378.9l8.8-1.8v16.3l-8.8 2zm15.4-3.1q1-.3 1-1.4v-5.9q0-1.2-1.3-1.4h-.2l-3.3.7v-14.7h-2.8v15.3l-8.8 1.8v-14h-2.8v14.6l-3.8.8q-1 .3-1.1 1.4v5.8q.1 1.2 1.4 1.4h.3l3.2-.7v16.3l-3.8.8q-1 .3-1.1 1.4v5.8q.1 1.2 1.4 1.3h.3l3.2-.6v14.7h2.8V404l8.8-1.8v14h2.8v-14.6l3.8-.7q1-.3 1-1.4v-5.9q0-1.3-1.3-1.3h-.2l-3.3.6v-16.3zM481.7 3251.4l8.8-1.8v16.4l-8.8 1.9zm15.4-3q1-.4 1-1.5v-5.8q0-1.3-1.3-1.4h-.2l-3.3.7v-14.8h-2.8v15.4l-8.8 1.8v-14h-2.8v14.6l-3.8.8c-.6 0-1.1.7-1.1 1.3v5.8q.1 1.3 1.4 1.4h.3l3.2-.7v16.4l-3.8.8q-1 .2-1.1 1.4v5.7q.1 1.3 1.4 1.4h.3l3.2-.7v14.8h2.8v-15.4l8.8-1.8v14h2.8V3274l3.8-.7c.6 0 1-.8 1-1.4v-5.8q0-1.3-1.3-1.4h-.2l-3.3.7V3249zM481.7 2395.4l8.8-1.7v16.3l-8.8 2zm15.4-3q1-.3 1-1.4v-5.9q0-1.3-1.3-1.4h-.2l-3.3.7v-14.7h-2.8v15.3l-8.8 1.8v-14h-2.8v14.6l-3.8.8q-1 .3-1.1 1.4v5.7q.1 1.3 1.4 1.4h.3l3.2-.7v16.4l-3.8.8q-1 .3-1.1 1.4v5.8q.1 1.2 1.4 1.3h.3l3.2-.7v14.8h2.8v-15.4l8.8-1.7v14h2.8V2418l3.8-.7q1-.3 1-1.4v-5.9q0-1.3-1.3-1.4h-.2l-3.3.7v-16.3zM481.7 1513.9l8.8-1.8v16.3l-8.8 2zm15.4-3.1q1-.3 1-1.4v-5.9q0-1.2-1.3-1.3h-.2l-3.3.6v-14.7h-2.8v15.3l-8.8 1.8v-14h-2.8v14.6l-3.8.8q-1 .3-1.1 1.4v5.8q.1 1.3 1.4 1.4h.3l3.2-.7v16.3l-3.8.8q-1 .3-1.1 1.4v5.8q.1 1.3 1.4 1.3h.3l3.2-.6v14.7h2.8V1539l8.8-1.8v14h2.8v-14.6l3.8-.7q1-.3 1-1.4v-5.9q0-1.2-1.3-1.3h-.2l-3.3.6v-16.3zM481.7 633.9l8.8-1.8v16.3l-8.8 2zm15.4-3.1q1-.3 1-1.4v-5.9q0-1.2-1.3-1.4h-.2l-3.3.7v-14.7h-2.8v15.3l-8.8 1.8v-14h-2.8v14.6l-3.8.8q-1 .3-1.1 1.4v5.8q.1 1.2 1.4 1.4h.3l3.2-.7v16.3l-3.8.8q-1 .3-1.1 1.4v5.8q.1 1.3 1.4 1.3h.3l3.2-.6v14.7h2.8V659l8.8-1.8v14h2.8v-14.6l3.8-.7q1-.3 1-1.4v-5.9q0-1.2-1.3-1.3h-.2l-3.3.6v-16.3zM481.7 874.5l8.8-1.8v16.4l-8.8 1.9zm15.4-3q1-.4 1-1.5v-5.8q0-1.3-1.3-1.4h-.2l-3.3.7v-14.8h-2.8v15.4l-8.8 1.8v-14h-2.8v14.6l-3.8.8c-.6 0-1.1.8-1.1 1.4v5.7q.1 1.3 1.4 1.4h.3l3.2-.7v16.4l-3.8.8c-.6 0-1.1.8-1.1 1.4v5.7q.1 1.3 1.4 1.4h.3l3.2-.7V915h2.8v-15.4l8.8-1.8v14h2.8v-14.6l3.8-.7q1-.2 1-1.4v-5.8q0-1.3-1.3-1.4h-.2l-3.3.7v-16.4zM481.7 3492l8.8-1.7v16.3l-8.8 2zm15.4-3.1q1-.3 1-1.4v-5.9q0-1.2-1.3-1.3h-.2l-3.3.6v-14.7h-2.8v15.3l-8.8 1.8v-14h-2.8v14.6l-3.8.8q-1 .3-1.1 1.4v5.8q.1 1.3 1.4 1.4h.3l3.2-.7v16.3l-3.8.8q-1 .3-1.1 1.4v5.8q.1 1.3 1.4 1.3h.3l3.2-.6v14.7h2.8v-15.3l8.8-1.8v14h2.8v-14.6l3.8-.7q1-.3 1-1.4v-5.9q0-1.2-1.3-1.3h-.2l-3.3.6v-16.3zM481.7 1754.5l8.8-1.8v16.4l-8.8 1.9zm15.4-3q1-.3 1-1.5v-5.8q0-1.3-1.3-1.4h-.2l-3.3.7v-14.8h-2.8v15.4l-8.8 1.8v-14h-2.8v14.6l-3.8.8c-.6 0-1.1.8-1.1 1.4v5.7q.1 1.3 1.4 1.4h.3l3.2-.7v16.4l-3.8.8c-.6 0-1.1.8-1.1 1.4v5.7q.1 1.3 1.4 1.4h.3l3.2-.7v14.8h2.8v-15.4l8.8-1.8v14h2.8v-14.6l3.8-.7c.6 0 1-.7 1-1.3v-5.9q0-1.3-1.3-1.4h-.2l-3.3.7v-16.4zM481.7 2636.1l8.8-1.8v16.4l-8.8 1.9zm15.4-3q1-.4 1-1.5v-5.8q0-1.3-1.3-1.4h-.2l-3.3.7v-14.8h-2.8v15.4l-8.8 1.8v-14h-2.8v14.6l-3.8.8c-.6 0-1.1.8-1.1 1.4v5.7q.1 1.3 1.4 1.4h.3l3.2-.7v16.4l-3.8.8c-.6 0-1.1.8-1.1 1.4v5.7q.1 1.3 1.4 1.4h.3l3.2-.7v14.8h2.8V2661l8.8-1.8v14h2.8v-14.6l3.8-.7c.6 0 1-.8 1-1.4v-5.8q0-1.3-1.3-1.4h-.2l-3.3.7v-16.4z" class="KeySig"/><path d="m2590.9 415.7-.4-.1q-1 0-1.3.8c-.4.6-3.5 6.4-8 9.7q-1.9 1.5-4.4 2 1.7-2 1.8-4.8a7 7 0 0 0-14.2 0c0 5.4 5.3 7.8 10 7.8 5.2 0 8.6-2.4 12-6.1l-11.3 35.3 2.7.8 13.9-43.7v-.5q0-.8-.8-1.2M2596.5 2157.4l-.4-.1q-.9 0-1.3.8c-.4.6-3.4 6.4-7.9 9.7q-2 1.5-4.5 2 1.7-2 1.8-4.8a7 7 0 0 0-14.2 0c0 5.4 5.3 7.8 10 7.8 5.2 0 8.7-2.4 12-6.1l-11.2 35.3 2.6.8 14-43.7v-.5q0-.8-.9-1.2M2591.2 1314l-.6-.7-11.4-14.1-.2-.6q0-.5.2-.9l10-15.3q.3-.3.3-.7v-.9q0-.4-.3-.7l-16-21.8s-.5-.6-1-.6q-.5 0-.9.3-.6.5-.5 1 .2 1 .3 1.1l7.6 10.3q.3.5.3 1.2 0 .8-.3 1.2l-10 15.3-.3.8v.9q0 .5.4.8l11 13.8q-.5-.2-2.4-.3c-5 0-9 4.1-9 9.2q-.1 2.2 1 3.8c2.1 3.2 9.6 12.7 9.6 12.7s.5.6 1.2.6l.6-.2q.6-.6.6-1.2l-.2-1c-.4-.4-3.5-6.2-3.5-6.2s-.7-1.4-.7-3.2c0-3.1 2.4-5.7 5.5-5.7a6 6 0 0 1 3.2.9l3.9 2.5.8.2q.6 0 1-.5.3-.5.3-1l-.3-.7z" class="Rest"/><path fill-rule="evenodd" d="m2022.1 2984.7 134.7 6.2v12.4l-134.7-6.2zM1377.5 497.8h141.7v12.4h-141.7zM1419.1 3108.7l134.6-12.4v12.4l-134.6 12.4zM1527.2 2096.9l93.4 6.2v12.4l-93.4-6.2zM1527.2 2115.5l93.4 6.2v12.4l-93.4-6.2zM1130 1241.7l437.3 6.2v12.4l-437.2-6.2zM1140.5 3221.5h443v12.4h-443zM590 3221.5h420.9v12.4h-421zM1448.9 3462.2h134.6v12.4h-134.6zM1390.7 2668.3h139v12.3h-139zM1427.6 1730.9h139.7v12.4h-139.7zM855.5 1724.7h139.8v12.4H855.5zM2599.8 2662h139v12.4h-139zM1721.3 900.5h179v12.4h-179zM1900.3 919H1873v12.5h27.3zM590 857h179v12.5H590zM769 875.7h-27.3V888h27.2zM590 1712.3h176.4v12.4H590zM766.4 1730.9h-27.2v12.4h27.2zM1130 1730.9h208.5v12.4h-208.4zM1338.5 1749.5h-27.3v12.4h27.3zM1766.5 3468.4h170v12.4h-170zM1936.5 3487h-27.3v12.4h27.3zM2022.1 3468.4h134.7v12.4H2022zM853.9 2618.7h138.9v12.4h-139zM1744.6 2662H1920v12.4h-175.4zM1920 2680.7h-27.3v12.4h27.3zM2269.2 900.5h188.2v12.4h-188.2zM2269.2 919h95.3v12.5h-95.3zM1407.3 906.7H1549V919h-141.7zM1990.7 900.5h141.7v12.4h-141.7zM2286.4 3468.4h178.7v12.4h-178.7zM2286.4 3487h90.6v12.4h-90.6zM590 3449.8h200.6v12.4H590zM790.6 3468.4h-27.3v12.4h27.3zM2594.2 900.5h141.7v12.4h-141.7zM876.2 3462.2H1011v12.4H876.2zM590 2618.7h175.4v12.4H589.9zM765.4 2637.3H738v12.3h27.3zM1137.9 906.7h179V919h-179zM1316.9 925.3h-27.3v12.4h27.3zM859.3 857h141.8v12.5H859.3zM2281.4 2662h184.4v12.4h-184.4zM2281.4 2680.7h93.5v12.4h-93.5zM2594.8 3468.4h134.6v12.4h-134.6zM2598.1 1780.5H2738v12.4H2598zM1140.5 3449.8h178.7v12.4h-178.7zM1140.5 3468.4h90.6v12.4h-90.6zM2277.8 1780.5h185.5v12.4h-185.5zM2277.8 1799h94v12.5h-94zM2008.5 2662h139v12.4h-139zM2003.2 1780.5h139.7v12.4h-139.7zM1126.8 2668.3h175.4v12.3h-175.4zM1302.2 2686.9H1275v12.3h27.3zM1737.6 1780.5h176.5v12.4h-176.5zM1914.1 1799h-27.3v12.5h27.3z" class="Beam"/><path d="m2676.3 535.1-9.3.6v2.1h2.4c2 0 2.2.4 2.2 2.5v28q0 1-.3 1.2-.4.7-3.5.7h-.2v1.8h12.7v-1.8h-.2c-3.4-.1-3.8-.4-3.8-2.2v-7.3q0-4 .9-5.9c1-2.3 3.3-3.8 5.4-3.8 1.3 0 2.8.7 3.5 1.7q1.2 1.5 1.2 5.1v10.4q0 1-.3 1.3-.5.7-3.5.7h-.2v1.8h12.6v-1.8h-.2c-3.3-.1-3.7-.4-3.7-2.2v-10c0-3.6-.2-4.5-1-6.2a7 7 0 0 0-6.8-3.8c-3.3 0-5.7 1.4-8 4.7zm43.2 20.8c0-3.2-.5-4.7-2-6q-2.4-2-7.3-2c-5.6 0-9.7 2.7-9.7 6.3q.1 3 2.9 3.1 2.6-.1 2.7-2.6 0-1-.8-2-.4-.5-.3-.7c0-1 2-2 4.4-2 1.6 0 3.3.6 4.1 1.3 1 .9 1.3 2 1.3 4.3v2c-5.2.9-6.8 1.2-9.3 2.2q-6.4 2.3-6.4 7.1c0 3.6 2.8 5.8 7.3 5.8q5.3 0 8.7-3.9c.8 2.5 2 3.5 4.4 3.5 2.2 0 4.6-1.4 4.6-2.8q0-.7-.5-.7l-.8.2q-1 .4-1.4.4-2 .2-1.9-3.4zm-4.7 6.1c0 3-.1 3.7-1 5a7 7 0 0 1-5.7 3c-2.3 0-4-1.5-4-3.8q0-3.1 3.3-4.7c1.6-.7 3.5-1.2 7.4-1.8zm23.1 4-5.7-13.3-.2-1c0-.9.6-1.2 2.7-1.2h.7v-1.8h-11.8v1.8h.4c1.9 0 2.6.5 3.3 2.2l8.6 20h1.7l7.1-17.5c1.4-3.4 2.6-4.5 4.7-4.7h.2v-1.8h-10v1.8h.7q2.6 0 2.7 1.7 0 1-.5 2.1zm34.2-5.3c0-7.5-4.2-12.7-10.3-12.7-6.4 0-11.2 5.5-11.2 13 0 7 4.5 11.7 11.3 11.7q7.1 0 10.2-7l-1.8-1c-2 3.8-4.1 5.3-7.5 5.3q-3.7 0-5.7-3.3c-.9-1.5-1.3-3.2-1.2-6zm-16.2-2.1c0-3.5 1.6-8.5 5.8-8.5 3 0 5 2.6 5 6.7q.2 2-2 1.8zM502.8 1413.1l-8.6.6v2.1h1.7c2 0 2.2.4 2.2 2.5v19.5c0 7-.3 10.7-1 12.9h2l2.4-4q3 4.1 7.5 4c6.2 0 10.8-5.3 10.8-12.5s-4.2-12.3-10.2-12.3c-3 0-5 1-6.8 4zm5.9 15.4q5.7.1 5.8 10.2c0 6.3-2 9.9-5.7 9.9-4 0-6.3-3.7-6.3-9.8q.1-10.2 6.2-10.3m33.5 21.8 9-.3v-2.2H550c-2.9 0-3.1-.4-3.1-3.6v-17.5l-9.4.5v2.2h2.5c2 0 2.2.3 2.2 2.5v6.1c0 4.4-1 9.7-6.6 9.7q-2.3 0-3.5-1.6c-.6-1-.7-1.4-.7-4.2v-15.2l-8.8.5v2.2h2c1.8 0 2 .3 2 2.5v10.8c0 2.5.3 3.7 1 4.8q2.2 3.1 6.8 3.2c3.3 0 5.6-1.3 7.8-4.5zm19.8-23.6-8.8.5v2.2h2c2 0 2.2.3 2.2 2.5v14.3q0 1-.3 1.3-.5.6-3.5.7h-.2v1.8h13.3v-1.8h-.9c-3.3-.1-3.8-.4-3.8-2.2v-2.7c0-8.4 3-14.8 7-15-.7.8-1 1.3-1 2.3 0 1.6 1.2 2.7 2.8 2.7q3-.1 3-3.3-.1-3.9-4.3-4-4.8 0-7.5 6.9zm23 0-8.6.5v2.2h1.8c1.9 0 2.2.3 2.2 2.5v14.3q0 1-.3 1.3c-.4.4-1.3.6-3.5.7h-.2v1.8h12.7v-1.8h-.2c-3.4-.1-3.8-.4-3.8-2.2v-7.4c0-2.4.3-4.7.9-5.8 1-2.3 3.3-3.8 5.4-3.8 1.3 0 2.8.7 3.6 1.7q1 1.5 1 5v10.5q0 1-.2 1.3-.5.6-3.5.7h-.2v1.8h12.6v-1.8h-.2c-3.3-.1-3.7-.4-3.7-2.2v-10c0-3.6-.2-4.5-1-6.2a7 7 0 0 0-6.8-3.9q-4.7 0-8 4.8zm43.9 12c0-7.5-4.3-12.8-10.3-12.8-6.5 0-11.2 5.6-11.2 13 0 7.1 4.5 11.8 11.2 11.8q7.2 0 10.3-7l-1.8-1c-2 3.8-4.2 5.3-7.5 5.3q-3.7 0-5.7-3.3c-.9-1.5-1.3-3.2-1.3-6zm-16.2-2.1c0-3.5 1.6-8.5 5.8-8.5 3 0 5 2.6 5 6.7 0 1.4-.4 1.8-2 1.8zm36.9 13.7 8.7-.3v-2.2h-1c-2.8-.1-3-.4-3-3.6v-31l-9.8.5v2.1h3c1.8 0 2 .4 2 2.5v11.3a8 8 0 0 0-6.8-3.7c-5.7 0-10 5.5-10 12.7 0 7 4.2 12.1 10 12.1q4.6.1 6.9-4.3zm-6-21.8q3.3.2 5 3.8 1 2.3 1 6c0 5.9-2.4 9.6-6 9.6-3.5 0-5.6-3.3-5.6-8.8q0-4.5 1-7 1.4-3.4 4.7-3.6M2134.6 3159.8l-9 .5v2.2h2.1c2 0 2.2.3 2.2 2.5v14.3q0 1-.3 1.3-.4.7-3.5.7h-.2v1.8h12.6v-1.8h-.2c-3.3-.1-3.7-.4-3.7-2.2v-9.2c0-4.5 2.4-7.8 5.7-7.8q4.3 0 4.3 6v11.3q0 .9-.4 1.2-.4.7-3.4.7h-.2v1.8h12.6v-1.8h-.2c-3.3-.1-3.7-.4-3.7-2.2v-8.8c0-5 2.2-8.2 5.7-8.2q4.3 0 4.3 6.7v10.5q0 1-.4 1.3-.3.7-3.4.7h-.2v1.8h12.6v-1.8h-.2c-3.3-.1-3.7-.4-3.7-2.2v-11.3c0-3.2-.3-4.2-1.6-5.9a7 7 0 0 0-6-2.8q-4.7-.1-7.7 5a7 7 0 0 0-7-5q-4.4-.1-7.1 4.6zm42.3-12.5a3 3 0 0 0-2.9 3 2.9 2.9 0 1 0 5.8 0c0-1.7-1.3-3-2.9-3m2.4 12.5-9.4.5v2.2h2.5c1.9 0 2.2.3 2.2 2.5v14.3q0 1-.3 1.3c-.4.5-1.3.7-3.5.7h-.3v1.8h13v-1.8h-.4c-3.4-.1-3.8-.4-3.8-2.2zm15.4 0-8.7.5v2.2h1.8c2 0 2.2.3 2.2 2.5v14.3q0 1-.3 1.3-.3.7-3.5.7h-.2v1.8h12.7v-1.8h-.2c-3.3-.1-3.8-.4-3.8-2.2v-7.3q0-4 .9-5.9c1-2.2 3.3-3.8 5.4-3.8 1.3 0 2.8.7 3.6 1.8q1.1 1.4 1 5v10.4q0 1-.2 1.3-.5.7-3.5.7h-.2v1.8h12.7v-1.8h-.2c-3.3-.1-3.8-.4-3.8-2.2v-10c0-3.6-.2-4.5-1-6.2a7 7 0 0 0-6.8-3.8q-4.7 0-8 4.8zm43.9 12c0-7.5-4.2-12.7-10.3-12.7-6.4 0-11.2 5.5-11.2 13 0 7 4.5 11.8 11.3 11.8q7.1 0 10.2-7.1l-1.8-1c-2 3.8-4.1 5.3-7.5 5.3q-3.7 0-5.7-3.2c-.8-1.6-1.3-3.3-1.2-6zm-16.2-2.2c0-3.5 1.6-8.5 5.8-8.5 3 0 5 2.7 5 6.7q.2 2-2 1.8zm24.4 7.9a3.1 3.1 0 1 0 3.1 3.1c0-1.8-1.4-3.1-3.1-3.1M1986.7 3177l-5.7-13.2-.2-1c0-.9.6-1.2 2.7-1.2h.7v-1.8h-11.8v1.8h.4c1.9 0 2.6.5 3.3 2.2l8.6 20h1.7l7.1-17.5c1.4-3.4 2.7-4.5 4.7-4.7h.2v-1.8h-10v1.8h.7q2.6 0 2.7 1.8 0 .8-.5 2zm34.2-5.2c0-7.6-4.2-12.8-10.3-12.8-6.4 0-11.2 5.5-11.2 13 0 7 4.5 11.8 11.3 11.8q7.1 0 10.2-7.1l-1.8-1c-2 3.8-4.1 5.3-7.5 5.3a6 6 0 0 1-5.7-3.2c-.9-1.6-1.3-3.3-1.2-6zm-16.2-2.2c0-3.5 1.6-8.5 5.8-8.5 3 0 5 2.7 5 6.7 0 1.4-.4 1.8-2 1.8zm27.8-9.9-8.8.5v2.2h2c2 0 2.2.3 2.2 2.5v14.3q0 1-.3 1.3-.5.7-3.5.7h-.2v1.8h13.3v-1.8h-.9c-3.3-.1-3.8-.4-3.8-2.2v-2.7c0-8.3 3-14.7 7-15q-1 1.2-1 2.3.2 2.5 2.8 2.7 3-.2 3-3.3-.1-3.8-4.3-4-4.8.1-7.5 7zM1560.3 3159.8l-8.7.5v2.2h1.8c1.9 0 2.1.3 2.1 2.5v14.3q0 1-.2 1.3c-.4.5-1.3.7-3.5.7h-.2v1.8h12.7v-1.8h-.2c-3.4-.1-3.8-.4-3.8-2.2v-7.3q0-4 .9-5.9c1-2.2 3.3-3.8 5.4-3.8 1.3 0 2.8.7 3.6 1.8q1 1.4 1 5v10.4q0 1-.2 1.3-.5.7-3.5.7h-.2v1.8h12.6v-1.8h-.2c-3.3-.1-3.7-.4-3.7-2.2v-10c0-3.6-.2-4.5-1-6.2a7 7 0 0 0-6.8-3.8c-3.3 0-5.7 1.5-8 4.8zm43.8 12c0-7.5-4.2-12.7-10.2-12.7-6.5 0-11.2 5.5-11.2 13 0 7 4.5 11.8 11.2 11.8q7.2 0 10.3-7.1l-1.8-1c-2 3.8-4.2 5.3-7.5 5.3q-3.8 0-5.7-3.2c-.9-1.6-1.3-3.3-1.3-6zm-16.2-2.2c0-3.5 1.6-8.5 5.8-8.5 3 0 5 2.7 5 6.7q.1 2-2 1.8zM1258.2 1433.9c0-3.2-.5-4.8-2-6q-2.4-2-7.3-2c-5.6 0-9.7 2.7-9.7 6.3q.1 3 2.9 3 2.5-.1 2.7-2.5 0-1-.8-2-.4-.5-.3-.7c0-1 2-2 4.4-2 1.6 0 3.3.6 4.1 1.3q1.4 1 1.3 4.3v2c-5.2.8-6.8 1.2-9.3 2.2q-6.4 2.4-6.4 7c0 3.7 2.8 6 7.3 6q5.3-.1 8.7-4c.8 2.5 2 3.5 4.4 3.5 2.2 0 4.6-1.4 4.6-2.9q0-.5-.5-.6l-.8.2q-1 .4-1.4.4-2 .1-1.9-3.5zm-4.7 6c0 3-.1 3.8-1 5a7 7 0 0 1-5.7 3.2c-2.3 0-4-1.7-4-4q0-3 3.3-4.6c1.6-.7 3.5-1.2 7.4-1.8zM1499.3 2286.2h1c2.9 0 3.8.2 4.2.7.3.4.3.5.3 3v23.8c0 2.6 0 2.7-.3 3.2-.4.5-1.3.7-4.2.7h-1v2.3h16.6v-2.3h-1c-2.8 0-3.8-.2-4.2-.7-.3-.5-.3-.6-.3-3.2V2290c0-2.6 0-2.7.3-3.1.4-.5 1.3-.7 4.2-.7h1v-2.4h-16.6zm29.3 24.3c0-5 .5-6.3 3.7-9 4.9-4.3 6-6 6-9.6 0-5.2-3.8-8.7-9.5-8.7s-9.8 3.1-9.8 7.4c0 2.2 1.4 3.9 3.3 3.9 1.5 0 2.8-1.2 2.8-2.8q0-1.4-1.4-2.7-1-.6-.9-1c0-1.3 2.2-2.5 4.7-2.5q5.4.1 5.5 6.1 0 3.2-1.5 5.4c-3.7 5-3.7 5-4.4 6.8-.5 1.4-.7 2.7-.7 5v1.7zm-1.2 4a3.1 3.1 0 0 0 0 6.3c1.7 0 3.1-1.4 3.1-3.2 0-1.7-1.4-3.1-3.1-3.1M1554 1450.3l8.8-.3v-2.2h-1c-2.8-.1-3-.4-3-3.6v-31l-9.8.5v2.1h3c1.8 0 2 .4 2 2.5v11.3a8 8 0 0 0-6.8-3.7c-5.7 0-10 5.5-10 12.7 0 7 4.2 12.1 10 12.1q4.6.1 6.9-4.3zm-6-21.8q3.3.2 5 3.8 1 2.3 1 6c0 5.9-2.4 9.6-6 9.6-3.5 0-5.6-3.3-5.6-8.8q0-4.5 1-7 1.4-3.4 4.7-3.6m23.5-14.4a3 3 0 0 0-2.9 3 2.9 2.9 0 1 0 5.8 0c0-1.7-1.3-3-2.9-3m2.4 12.5-9.4.5v2.2h2.5c2 0 2.2.3 2.2 2.5v14.3q0 1-.3 1.3c-.4.4-1.3.6-3.5.7h-.3v1.8h13v-1.8h-.4c-3.4-.1-3.8-.4-3.8-2.2zm24.9-.6h-1.7l-1.5 1.8a9 9 0 0 0-6-2c-4.5 0-7.4 2.9-7.4 7.3 0 4.7 3 5.9 7 6.8l2.7.6c4 1 5.4 2 5.4 4 0 2.3-2 4-5 4q-6.4-.1-8.5-7.7h-2v9.4h1.8l1.8-2q3 2.4 6.8 2.4c4.9 0 8.1-3 8.1-7.7q0-3.3-2-5c-1.2-1-2.2-1.5-5.3-2.1l-2.5-.6c-2.7-.6-2.7-.6-3.7-1a3 3 0 0 1-1.7-2.7c0-2 2-3.5 4.7-3.5 4 0 6 3 7.3 6.4h1.7zm26.9 12.6c0-7.5-4.2-12.8-10.3-12.8-6.4 0-11.2 5.6-11.2 13 0 7.1 4.5 11.8 11.3 11.8q7.1 0 10.2-7l-1.7-1c-2.1 3.8-4.2 5.3-7.5 5.3q-3.9 0-5.8-3.3c-.9-1.5-1.2-3.2-1.2-6zm-16.2-2.1c0-3.5 1.6-8.5 5.8-8.5 3 0 5 2.6 5 6.7 0 1.4-.4 1.8-2 1.8zm26.6 3.8c0-4.9.5-6.2 3.7-9 4.9-4.3 6-6 6-9.5 0-5.2-3.9-8.7-9.6-8.7s-9.7 3-9.7 7.4c0 2.2 1.4 3.8 3.3 3.8 1.5 0 2.8-1.2 2.8-2.7q0-1.5-1.5-2.7-1-.7-.8-1c0-1.4 2.2-2.6 4.6-2.6q5.5.2 5.6 6.2 0 3.2-1.6 5.3c-3.7 5.1-3.7 5.1-4.3 6.9-.5 1.4-.7 2.6-.7 5v1.6zm-1.2 4a3.1 3.1 0 0 0 0 6.3c1.7 0 3-1.4 3-3.1s-1.3-3.1-3-3.1M2727 2302l-8.5-13.5q-.6-.8-.5-1.4 0-1 2-1h2.9v-2.3h-16v2.3h1c2.3.1 2.9.4 4 2.3l10.9 17.2v8.2c0 2.5 0 2.6-.3 3-.4.6-1.4.8-4.2.8h-1.3v2.3h17.1v-2.3h-1.3c-2.8-.1-3.7-.2-4.1-.7s-.3-.5-.3-3.2v-8.7l7.4-13.5c2.2-4 3.7-5.2 7-5.3h.3v-2.4H2729v2.3h1.2q4 0 3.8 2.3 0 1.3-.8 2.6zm24.2-6.1c-6.2 0-11 5.4-11 12.4 0 6.8 4.9 12.3 10.9 12.3s10.8-5.4 10.8-12.3-4.8-12.4-10.7-12.4m0 2.1q5.3.2 5.4 10.3-.1 10-5.5 10.2-5.5-.1-5.6-10.2 0-10.3 5.7-10.3m33 22.3 9-.4v-2.2h-1.2c-2.9 0-3.2-.3-3.2-3.6v-17.5l-9.3.6v2.1h2.5c1.9 0 2.2.3 2.2 2.5v6.1c0 4.4-1.1 9.7-6.6 9.7q-2.4 0-3.5-1.5c-.6-1-.7-1.5-.7-4.2v-15.3l-8.8.6v2.1h2c1.8 0 2 .3 2 2.5v10.8c0 2.6.3 3.7 1 4.8q2.2 3.2 6.8 3.3c3.3 0 5.6-1.4 7.8-4.6zM1086.5 1426.7l-8.7.5v2.2h1.8c2 0 2.2.3 2.2 2.5v24.4q0 1-.3 1.3c-.4.4-1.3.6-3.5.7h-.2v1.8h13v-1.8h-.5c-3.4-.1-3.8-.4-3.8-2.2v-9.4c1.6 2.9 3.5 4 6.6 4 6.6 0 10-6.5 10-12.5 0-5.6-3.4-12.3-9.7-12.3q-4.5-.1-7 4.3zm6 2c3.5 0 5.5 3.4 5.5 9.2q-.1 10-5.6 10.1c-3.6 0-5.9-3.7-5.9-9.4 0-6.3 2.3-10 6-10m35.3 5.3c0-3.2-.5-4.8-2-6q-2.4-2-7.3-2c-5.6 0-9.7 2.7-9.7 6.3q.1 3 2.9 3 2.5-.1 2.7-2.5 0-1-.8-2-.4-.5-.3-.7c0-1 2-2 4.4-2 1.6 0 3.3.6 4.1 1.3q1.4 1 1.3 4.3v2a43 43 0 0 0-9.3 2.2q-6.4 2.4-6.4 7c0 3.7 2.8 6 7.3 6q5.3-.1 8.7-4c.8 2.5 2 3.5 4.4 3.5 2.2 0 4.6-1.4 4.6-2.9q0-.5-.5-.6l-.8.2q-1 .4-1.4.4-2 .1-1.9-3.5zm-4.7 6c0 3-.1 3.8-1 5a7 7 0 0 1-5.7 3.2c-2.3 0-4-1.7-4-4q0-3 3.3-4.6c1.6-.7 3.5-1.2 7.4-1.8zm19.8-13.3-8.8.5v2.2h2c2 0 2.2.3 2.2 2.5v14.3q0 1-.3 1.3-.5.6-3.5.7h-.2v1.8h13.3v-1.8h-.9c-3.3-.1-3.8-.4-3.8-2.2v-2.7c0-8.4 3-14.8 7-15-.7.8-1 1.3-1 2.3 0 1.6 1.2 2.7 2.8 2.7q3-.1 3-3.3-.1-3.9-4.3-4-4.8 0-7.5 6.9zM978.9 2312.6q-2.2 5.2-5.9 5c-4 0-6.5-3.7-6.5-9.5 0-6.1 2.5-10.1 6.1-10.1 1.5 0 2.9.7 2.9 1.5q0 .2-.4.6-1 1.3-1 2.3c0 1.7 1.3 2.8 3 2.8q3-.2 3.1-3.4c0-3.4-3.3-6-7.8-6-6.5 0-11.1 5.3-11.1 12.8 0 7.2 4.2 12 10.4 12 4.4 0 7-2 9.2-7.3zm15.4-16.7c-6.2 0-10.9 5.4-10.9 12.4 0 6.8 4.8 12.3 10.8 12.3s10.8-5.4 10.8-12.3-4.8-12.4-10.7-12.4m0 2.1q5.3.2 5.4 10.3-.1 10-5.5 10.2-5.5-.1-5.6-10.2 0-10.3 5.7-10.3m33 22.3 9-.4v-2.2h-1.2c-2.9 0-3.1-.3-3.1-3.6v-17.5l-9.4.6v2.1h2.5c2 0 2.2.3 2.2 2.5v6.1c0 4.4-1 9.7-6.6 9.7q-2.4 0-3.5-1.5c-.6-1-.7-1.5-.7-4.2v-15.3l-8.8.6v2.1h2c1.8 0 2 .3 2 2.5v10.8c0 2.6.3 3.7 1 4.8q2.2 3.2 6.8 3.3c3.3 0 5.6-1.4 7.8-4.6zm20.1-37.2-9.2.5v2.2h2.4c1.9 0 2.1.3 2.1 2.4v28q0 1-.3 1.2-.3.7-3.4.7h-.4v1.8h13v-1.8h-.4c-3.3-.1-3.8-.3-3.8-2.2zm24.6 37.2 8.7-.4v-2.2h-1c-2.8 0-3-.4-3-3.6v-31l-9.8.5v2.2h3c1.8 0 2 .3 2 2.4v11.4a8 8 0 0 0-6.8-3.7c-5.7 0-10 5.4-10 12.6s4.2 12.2 10 12.2q4.6 0 6.9-4.4zm-6-21.7q3.3.2 5 3.8 1 2.2 1 6c0 5.8-2.4 9.5-6 9.5q-5.4-.2-5.6-8.8 0-4.4 1-6.9 1.4-3.4 4.7-3.6M552.5 554.7v11.1c0 2.6 0 2.7-.3 3.2-.4.5-1.4.7-4.2.7h-1v2.3h16.5v-2.3h-1c-2.8 0-3.7-.2-4.1-.7s-.3-.5-.3-3.2V542c0-2.5 0-2.6.3-3 .4-.6 1.3-.8 4.2-.8h.9V536h-16.2v2.3h.7c2.8 0 3.7.2 4.2.8.3.4.3.5.3 3v10h-16.8v-10c0-2.5 0-2.6.4-3 .4-.6 1.3-.8 4.1-.8h1V536h-16.5v2.3h1c2.8 0 3.7.2 4.1.8.3.4.3.5.3 3v23.8c0 2.5 0 2.7-.3 3.2-.4.5-1.3.7-4.2.7h-.9v2.3h16.5v-2.3h-1c-2.8-.1-3.7-.2-4.1-.7s-.4-.6-.4-3.2v-11.1zm25-6.7c-6.1 0-10.9 5.4-10.9 12.4 0 6.8 4.8 12.3 10.8 12.3s10.8-5.5 10.8-12.4c0-6.8-4.8-12.3-10.7-12.3m0 2q5.4.2 5.5 10.3-.1 10.2-5.6 10.3-5.5-.1-5.5-10.2t5.6-10.3m38.5 15.4-5-12.8-.1-1q-.2-1.4 2-1.2h1.2v-1.8H603v1.8h.9q2.3 0 2.6 1.8l.5 1.4-4.5 11.6-4.8-12.6-.2-1q-.1-1.3 2-1.2h1v-1.8h-11v1.8h.9q1.8-.1 2.6 2.5l7.5 19.7h1.7l6-15.7 6 15.7h1.6l7-18.4c1.1-3 1.9-3.8 3.7-3.8h.4v-1.8h-9.5v1.8h.8q2.6 0 2.5 1.8 0 .8-.4 1.9zM1408 3176.7l-4.8-12.9q-.3-.6-.2-1-.2-1.4 2-1.2h1.3v-1.8H1395v1.8h.8q2.2 0 2.7 1.8l.4 1.4-4.4 11.6-4.9-12.6-.2-1q0-1.3 2-1.2h1v-1.8h-11v1.8h.9q1.9-.1 2.6 2.5l7.5 19.8h1.7l6-15.8 6 15.8h1.6l7-18.5c1.1-3 1.9-3.7 3.7-3.8h.4v-1.8h-9.5v1.8h.9q2.5 0 2.4 1.8 0 .8-.4 1.9zm33.4-4.7c0-7.6-4.2-12.8-10.3-12.8-6.4 0-11.2 5.5-11.2 13 0 7 4.6 11.8 11.3 11.8q7.2 0 10.2-7.1l-1.7-1c-2 3.8-4.2 5.3-7.5 5.3q-3.8 0-5.7-3.2c-1-1.6-1.3-3.3-1.3-6zm-16.1-2.2c0-3.5 1.6-8.5 5.8-8.5 3 0 5 2.7 5 6.7q.1 2-2 1.8zm27.8-9.9-8.9.5v2.2h2c2 0 2.2.3 2.2 2.5v14.3q0 1-.3 1.3-.5.7-3.5.7h-.2v1.8h13.3v-1.8h-.8c-3.4-.1-3.8-.4-3.8-2.2v-2.7c0-8.3 3-14.7 6.9-15q-1 1.2-.9 2.3.1 2.5 2.8 2.7 2.9-.2 3-3.3c0-2.4-1.7-4-4.3-4q-5 .1-7.5 7zm35.2 12c0-7.5-4.2-12.7-10.3-12.7-6.4 0-11.2 5.5-11.2 13 0 7 4.5 11.8 11.3 11.8q7.1 0 10.2-7.1l-1.8-1c-2 3.8-4.1 5.3-7.5 5.3a6 6 0 0 1-5.7-3.2c-.9-1.6-1.3-3.3-1.2-6zm-16.2-2.2c0-3.5 1.6-8.5 5.8-8.5 3 0 5 2.7 5 6.7 0 1.4-.4 1.8-2 1.8zM552.5 2302.6v11.2c0 2.5 0 2.6-.3 3-.4.6-1.4.8-4.2.8h-1v2.3h16.5v-2.3h-1c-2.8 0-3.7-.2-4.1-.7s-.3-.5-.3-3.2V2290c0-2.6 0-2.7.3-3.1.4-.6 1.3-.7 4.2-.7h.9v-2.4h-16.2v2.3h.7c2.8 0 3.7.2 4.2.8.3.4.3.5.3 3v10h-16.8v-10c0-2.5 0-2.6.4-3 .4-.6 1.3-.7 4.1-.7h1v-2.4h-16.5v2.3h1c2.8 0 3.7.2 4.1.8.3.4.3.5.3 3v23.8c0 2.6 0 2.7-.3 3.2-.4.5-1.3.7-4.2.7h-.9v2.3h16.5v-2.3h-1c-2.8-.1-3.7-.2-4.1-.7s-.4-.6-.4-3.2v-11.1zm25-6.7c-6.1 0-10.9 5.4-10.9 12.4 0 6.8 4.8 12.3 10.8 12.3s10.8-5.4 10.8-12.3-4.8-12.4-10.7-12.4m0 2.1q5.4.2 5.5 10.3-.1 10-5.6 10.2-5.5-.1-5.5-10.2 0-10.3 5.6-10.3m38.5 15.4-5-12.8-.1-1q-.2-1.3 2-1.2h1.2v-1.8H603v1.8h.9q2.3 0 2.6 1.8l.5 1.4-4.5 11.6-4.8-12.5-.2-1.1q-.1-1.3 2-1.2h1v-1.8h-11v1.8h.9q1.8-.1 2.6 2.5l7.5 19.8h1.7l6-15.8 6 15.8h1.6l7-18.5c1.1-3 1.9-3.7 3.7-3.8h.4v-1.8h-9.5v1.8h.8q2.6 0 2.5 1.8 0 .9-.4 1.9zM1517.7 538.2h1c2.8.1 3.8.3 4.2.8.3.4.3.5.3 3v23.8c0 2.5 0 2.7-.3 3.2-.4.5-1.4.7-4.2.7h-1v2.3h16.5v-2.3h-1c-2.8 0-3.7-.2-4.1-.7s-.3-.6-.3-3.2V542c0-2.5 0-2.6.3-3 .4-.5 1.3-.7 4.1-.8h1V536h-16.5zM1351.5 564.7c-1.7 3.5-3.3 5-6 5-4 0-6.4-3.7-6.4-9.5 0-6.1 2.4-10.1 6.1-10.1 1.5 0 2.8.7 2.8 1.5q0 .1-.3.6-1.1 1.3-1 2.3c0 1.7 1.3 2.8 3 2.8 1.8 0 3-1.4 3-3.4 0-3.4-3.3-6-7.7-6-6.5 0-11.2 5.3-11.2 12.8 0 7.1 4.3 12 10.5 12 4.4 0 7-2 9.1-7.3zm15.4-16.7c-6.1 0-10.8 5.4-10.8 12.4 0 6.8 4.8 12.3 10.8 12.3s10.7-5.5 10.7-12.4c0-6.8-4.7-12.3-10.7-12.3m0 2q5.4.2 5.5 10.3-.1 10.2-5.5 10.3-5.5-.1-5.6-10.2t5.6-10.3m33 22.2 9.1-.3v-2.2h-1.2c-3 0-3.2-.3-3.2-3.6v-17.5l-9.4.5v2.2h2.6c1.9 0 2.1.3 2.1 2.5v6.1c0 4.4-1 9.7-6.5 9.7q-2.5 0-3.5-1.5c-.7-1-.8-1.5-.8-4.2v-15.3l-8.7.5v2.2h1.9c1.9 0 2.1.3 2.1 2.5v10.8c0 2.5.2 3.7 1 4.8q2 3.1 6.7 3.2c3.3 0 5.6-1.3 7.8-4.5zm20.2-37.2-9.3.6v2.1h2.5c1.8 0 2 .4 2 2.5v27.9q0 1-.2 1.3c-.4.5-1.3.7-3.5.7h-.3v1.8h13v-1.8h-.4c-3.4-.1-3.8-.4-3.8-2.2zm24.5 37.2 8.7-.3v-2.2h-.9c-2.8-.1-3-.4-3-3.6v-31l-9.9.5v2.1h3c1.9 0 2.1.4 2.1 2.5v11.4a8 8 0 0 0-6.9-3.7c-5.6 0-10 5.4-10 12.6s4.2 12.1 10 12.1q4.6.1 7-4.3zm-6-21.7c2 0 4 1.5 5 3.8q.9 2.3.9 6c0 5.8-2.3 9.5-6 9.5-3.5 0-5.6-3.3-5.6-8.8q0-4.4 1-6.9c.8-2.3 2.7-3.6 4.7-3.6" class="Lyrics"/><path fill="none" stroke="#000" stroke-linejoin="bevel" stroke-width="2.5" d="M1652 1448.7h88.1M1189.1 1438.6h14.9M1544.4 2318.7H1747M523 3181.9h69.4M1781.2 3171.7h14.9M2798.5 2318.7h38.2M1086.5 2318.7h42.7M1392.9 1438.6h14.9M1539.7 570.8h184M2255.5 3181.9h209.6" class="LyricsLineSegment"/><path d="M1759.4 2165.1a5 5 0 0 0 5 5 5 5 0 0 0 5-5 5 5 0 0 0-5-5 5 5 0 0 0-5 5M1141.6 2140.3a5 5 0 0 0 5 5 5 5 0 0 0 5-5 5 5 0 0 0-5-5 5 5 0 0 0-5 5M1736.1 423.4a5 5 0 0 0 5 5 5 5 0 0 0 5-5 5 5 0 0 0-5-5 5 5 0 0 0-5 5M604.8 2165.1a5 5 0 0 0 5 5 5 5 0 0 0 5-5 5 5 0 0 0-5-5 5 5 0 0 0-5 5M604.8 423.4a5 5 0 0 0 5 5 5 5 0 0 0 5-5 5 5 0 0 0-5-5 5 5 0 0 0-5 5M604.8 3046.7a5 5 0 0 0 5 5 5 5 0 0 0 5-5 5 5 0 0 0-5-5 5 5 0 0 0-5 5M2477.5 3046.7a5 5 0 0 0 5 5 5 5 0 0 0 5-5 5 5 0 0 0-5-5 5 5 0 0 0-5 5M1752.5 1334.7a5 5 0 0 0 5 5 5 5 0 0 0 4.9-5 5 5 0 0 0-5-5 5 5 0 0 0-5 5M604.8 728a5 5 0 0 0 5 5 5 5 0 0 0 5-5 5 5 0 0 0-5-5 5 5 0 0 0-5 5M604.8 2489.6a5 5 0 0 0 5 5 5 5 0 0 0 5-5 5 5 0 0 0-5-5 5 5 0 0 0-5 5M604.8 2464.8a5 5 0 0 0 5 5 5 5 0 0 0 5-5 5 5 0 0 0-5-5 5 5 0 0 0-5 5M604.8 703.2a5 5 0 0 0 5 5 5 5 0 0 0 5-5 5 5 0 0 0-5-5 5 5 0 0 0-5 5M604.8 2440a5 5 0 0 0 5 5 5 5 0 0 0 5-5 5 5 0 0 0-5-5 5 5 0 0 0-5 5M604.8 678.4a5 5 0 0 0 5 5 5 5 0 0 0 5-5 5 5 0 0 0-5-5 5 5 0 0 0-5 5M604.8 2705.5a5 5 0 0 0 5 5 5 5 0 0 0 5-5 5 5 0 0 0-5-5 5 5 0 0 0-5 5M604.8 3536.6a5 5 0 0 0 5 5 5 5 0 0 0 5-5 5 5 0 0 0-5-5 5 5 0 0 0-5 5M1141.6 2755a5 5 0 0 0 5 5 5 5 0 0 0 5-5 5 5 0 0 0-5-5 5 5 0 0 0-5 5M1736.1 968.7a5 5 0 0 0 5 5 5 5 0 0 0 5-5 5 5 0 0 0-5-5 5 5 0 0 0-5 5M1752.5 1848.7a5 5 0 0 0 5 5 5 5 0 0 0 4.9-5 5 5 0 0 0-5-5 5 5 0 0 0-5 5M1145 1799a5 5 0 0 0 4.9 5 5 5 0 0 0 5-5 5 5 0 0 0-5-4.9 5 5 0 0 0-5 5M604.8 1799a5 5 0 0 0 5 5 5 5 0 0 0 5-5 5 5 0 0 0-5-4.9 5 5 0 0 0-5 5M1781.4 3536.6a5 5 0 0 0 5 5 5 5 0 0 0 5-5 5 5 0 0 0-5-5 5 5 0 0 0-5 5M604.8 943.9a5 5 0 0 0 5 5 5 5 0 0 0 5-5 5 5 0 0 0-5-5 5 5 0 0 0-5 5M1152.7 993.5a5 5 0 0 0 5 5 5 5 0 0 0 5-5 5 5 0 0 0-5-5 5 5 0 0 0-5 5M1759.4 2730.3a5 5 0 0 0 5 5 5 5 0 0 0 5-5 5 5 0 0 0-5-5 5 5 0 0 0-5 5" class="NoteDot"/><path d="M229 212.7h-2c-3.4 2.6-7.3 3.6-13.8 3.8v3h2.3c4.9 0 5 .1 4.9 4.7v19.5c0 3.4 0 3.6-.4 4.1-.5.6-1.6.8-4.6.8h-1.7v3h21.9v-3h-1.8c-2.9 0-4-.2-4.4-.8-.4-.5-.4-.8-.4-4.1zm27 0c-8.3 0-14.4 8.4-14.4 19.8s6 19.9 14.3 19.9c8.1 0 14.3-8.4 14.3-19.6 0-6.5-1.5-11.3-4.7-15.4a12 12 0 0 0-9.6-4.7m0 2.8q2.5 0 3.6 2.8c.7 1.8 1.1 7.6 1.1 14.4 0 5.6-.4 11.6-1 13.5q-.9 3.2-3.7 3.3-2.6 0-3.7-2.7a59 59 0 0 1-1.1-14.3c0-5.8.4-11.7 1-13.6q.9-3.4 3.8-3.4" class="Page"/><path d="M338.7 1678.7c6.4-6 19-18.2 19-41 0-28.6-14-57.6-14-75.5a71 71 0 0 1 13.3-37.8v-.7q.1-.4-.4-1-.7-.2-1.4.7c-.4.3-19.8 17.3-19.8 43.1 0 27.8 12.6 47.3 12.6 83.5 0 7-3.3 18-12.3 27.8q-.4.2-.3 1-.3.4.3.9c9 9.7 12.3 20.7 12.3 27.7 0 36.2-12.6 55.8-12.6 83.5a63 63 0 0 0 19.8 43.1q.6 1.1 1.4.7t.4-1v-.6a72 72 0 0 1-13.3-37.8c0-18 14-47 14-75.6 0-23-12.6-35-19-41M338.7 2560.3c6.4-6 19-18.2 19-41 0-28.6-14-57.6-14-75.6A71 71 0 0 1 357 2406v-.6q.1-.4-.4-1-.7-.2-1.4.7c-.4.3-19.8 17.3-19.8 43.1 0 27.7 12.6 47.3 12.6 83.5 0 7-3.3 18-12.3 27.8q-.4.2-.3 1-.3.4.3.9c9 9.7 12.3 20.7 12.3 27.7 0 36.2-12.6 55.7-12.6 83.5a63 63 0 0 0 19.8 43.1q.6 1.1 1.4.7t.4-1v-.6a72 72 0 0 1-13.3-37.8c0-18 14-47 14-75.6 0-23-12.6-35-19-41M338.7 3416.3c6.4-6 19-18.3 19-41 0-28.7-14-57.7-14-75.6a71 71 0 0 1 13.3-37.8v-.6q.1-.6-.4-1-.7-.2-1.4.6c-.4.4-19.8 17.3-19.8 43.2 0 27.7 12.6 47.2 12.6 83.5 0 7-3.3 18-12.3 27.7-.3 0-.3.6-.3 1q-.3.4.3 1c9 9.7 12.3 20.7 12.3 27.6 0 36.3-12.6 55.8-12.6 83.5a63 63 0 0 0 19.8 43.2q.6 1 1.4.6t.4-1v-.6a72 72 0 0 1-13.3-37.8c0-18 14-47 14-75.6 0-23-12.6-35-19-41M338.7 798.7c6.4-6 19-18.2 19-41 0-28.6-14-57.6-14-75.5a71 71 0 0 1 13.3-37.9v-.6q.1-.4-.4-1-.7-.2-1.4.7c-.4.3-19.8 17.3-19.8 43.1 0 27.8 12.6 47.3 12.6 83.5 0 7-3.3 18-12.3 27.8q-.4.2-.3 1-.3.4.3.9c9 9.7 12.3 20.7 12.3 27.7 0 36.2-12.6 55.8-12.6 83.5a63 63 0 0 0 19.8 43.1q.6 1.1 1.4.7t.4-1v-.6a72 72 0 0 1-13.3-37.8c0-18 14-47 14-75.6 0-23-12.6-35-19-41" class="Bracket"/></svg>