<svg xmlns="http://www.w3.org/2000/svg" width="816" height="1056" baseProfile="full" viewBox="0 0 3060 3960"><title>general_29054120_690a831e247a0 (2)</title><desc>Generated by MuseScore Studio 4.6.3</desc><path fill="#fff" fill-rule="evenodd" d="M0 0h3060v3960H0z"/><path fill="none" stroke="#000" stroke-linejoin="bevel" stroke-width="2.7" d="M366.4 386.2h2481M366.4 411h2481M366.4 435.8h2481M366.4 460.6h2481M366.4 485.4h2481M366.4 612.6h2481M366.4 637.4h2481M366.4 662.2h2481M366.4 687h2481M366.4 711.8h2481M366.4 866.8h2481M366.4 891.6h2481M366.4 916.4h2481M366.4 941.2h2481M366.4 966h2481M366.4 1247h2481M366.4 1271.8h2481M366.4 1296.6h2481M366.4 1321.4h2481M366.4 1346.2h2481M366.4 1545.2h2481M366.4 1570h2481M366.4 1594.8h2481M366.4 1619.6h2481M366.4 1644.4h2481M366.4 1756.8h2481M366.4 1781.6h2481M366.4 1806.4h2481M366.4 1831.2h2481M366.4 1856h2481M366.4 2137h2481M366.4 2161.8h2481M366.4 2186.6h2481M366.4 2211.4h2481M366.4 2236.2h2481M366.4 2405.4h2481M366.4 2430.2h2481M366.4 2455h2481M366.4 2479.8h2481M366.4 2504.6h2481M366.4 2617h2481M366.4 2641.8h2481M366.4 2666.6h2481M366.4 2691.4h2481M366.4 2716.2h2481M366.4 2997.2h2481M366.4 3022h2481M366.4 3046.8h2481M366.4 3071.6h2481M366.4 3096.4h2481M366.4 3220.4h2481M366.4 3245.2h2481M366.4 3270h2481M366.4 3294.8h2481M366.4 3319.6h2481M366.4 3474.6h2481M366.4 3499.4h2481M366.4 3524.2h2481M366.4 3549h2481M366.4 3573.8h2481" class="StaffLines"/><path d="M383.8 2059h-1.2c-2.2 1.7-6.4 3.1-9.3 3.1l-.5 1.8h2.8c2.4 0 2.7 0 2.7.8l-.4 1.8-4.3 16c-.5 2-.5 2-.9 2.4s-1.2.6-3.3.6h-1.8l-.2 1.9h14.8l.3-1.9h-2.2c-2.6 0-3.1-.2-3.1-1l.3-2zm26.3.1a69 69 0 0 1-10.8.3l-4-.2h-1l-3.9 8.4 1.5.5 1-1.7c1.9-3 2.7-3.5 6.8-3.5h6.8l-4.4 6.3c-5.1 7.2-5.1 7.2-7 10.4q-2.7 4-2.6 6 .2 2.2 2.3 2.3t2.8-2.6c2-7.5 3.2-10.1 8.7-19.1l3.8-5.9zM383.8 308.3h-1.2c-2.2 1.6-6.4 3-9.3 3l-.5 1.8h2.8c2.4 0 2.7 0 2.7.8l-.4 1.8-4.3 16c-.5 2-.5 2.1-.9 2.5s-1.2.5-3.3.5h-1.8l-.2 1.9h14.8l.3-1.9h-2.2c-2.6 0-3.1-.2-3.1-1l.3-2zm17.5 13.7c1.9-.6 2.6-.9 3.6-1.5 1.9-1.3 3-3.5 3-5.7 0-3.8-3-6.4-7.5-6.4s-8 2.8-8 6q.1 2.7 2.5 2.8 2.1-.2 2.3-2.3 0-.9-.9-1.8-.6-.5-.5-.9c0-1 2-2 3.8-2q4.2.1 4.3 4c0 3.6-2.5 7-5.2 7l-.9-.2h-1.4q-1.4 0-1.4 1t1.2 1.1h.8l1.5-.2c1.9 0 3.2 1.7 3.2 4.1 0 4.4-2.1 8.5-7 8.5-2.2 0-4.1-1.1-4.1-2.4q-.1-.5.7-.9 1.7-.7 1.7-2.3c0-1.4-1.1-2.5-2.6-2.5q-2.7.2-2.8 3.5c0 3.9 3 6.3 7.7 6.3 6 0 10.7-4 10.7-9.4 0-3.1-2-4.9-4.7-5.8M383.8 2919.3h-1.2c-2.2 1.7-6.4 3-9.3 3l-.5 1.8h2.8c2.4 0 2.7.1 2.7.8l-.4 1.8-4.3 16c-.5 2-.5 2.1-.9 2.5s-1.2.5-3.3.6h-1.8l-.2 1.8h14.8l.3-1.8h-2.2c-2.6 0-3.1-.2-3.1-1.1l.3-2zm19.6 14.7c-1 4.6-3.7 12.6-9.4 12.6q-1.9 0-2-1.2 0-.3.5-1t.6-1.5q-.1-2.1-2.4-2.3-2.6.1-2.7 3c0 2.7 2.5 4.6 6 4.6 8.8 0 14.4-11.2 14.4-18.8 0-6.2-3-10-8-10-5.9 0-10.3 5.6-10.3 11.3 0 3.8 2.9 6.7 6.8 6.7q3.9 0 6.5-3.4m-3-12.8c2.6 0 4.2 2 4.2 5.2 0 5-2.7 8.6-6.4 8.6q-3.8-.1-3.9-4.7c0-3.6 1.7-9.1 6.1-9.1M383.8 1169h-1.2c-2.2 1.7-6.4 3-9.3 3l-.5 1.8h2.8c2.4 0 2.7.1 2.7.8l-.4 1.8-4.3 16c-.5 2-.5 2.2-.9 2.5-.4.4-1.2.5-3.3.6h-1.8l-.2 1.9h14.8l.3-2h-2.2c-2.6 0-3.1-.1-3.1-1l.3-2zm8.4 13q-1.8 1-1.6 2 .1 1.3 1.4 1.4 1.5 0 1.8-2.2 1.8-1.5 4.1-1.5 4.6.1 4.6 5.2c0 5.2-3.3 9.4-7.5 9.4-2.3 0-4.2-1-4.2-2.4q0-.3.2-.5c1.3-.6 2.3-1 2.3-2.7q-.2-2-2.4-2.2c-1.7 0-3 1.5-3 3.4 0 3.5 3 6 7.3 6 6.4 0 11.7-5.1 11.7-11.5 0-4-3.1-6.9-7.5-6.9-1.7 0-3 .4-5 1.3l2.2-7.5q3.2.6 5.3.6c2.6 0 5-.8 6.3-2.2q1-1.2 1-2 0-.5-.2-.5l-.4.2q-2.1 1-4.6 1-3.6 0-8.2-1.2z" class="MeasureNumber"/><path d="m288.3 2196.3-9.2-23.2-.4-1.5q-.1-1.4 3.1-1.3h2v-2.3h-15.6v2.3h1c2.3 0 3 .6 3.9 2.8l12.6 31.7h2l11.5-29.6c1.5-3.9 2.6-4.8 5.4-4.9h.5v-2.3h-13.5v2.3h1q3.9.1 4 2.6 0 1.2-.6 2.8zm18.4 2.2a3.1 3.1 0 1 0 0 6.2 3.1 3.1 0 0 0 0-6.2M288.3 445.5l-9.2-23.2q-.4-1-.4-1.5-.1-1.4 3.1-1.3h2v-2.3h-15.6v2.3h1c2.3.1 3 .6 3.9 2.8l12.6 31.7h2l11.5-29.6c1.5-3.9 2.6-4.8 5.4-4.9h.5v-2.3h-13.5v2.3h1q3.9.1 4 2.6 0 1.2-.6 2.8zm18.4 2.3a3.1 3.1 0 1 0 0 6.3 3.1 3.1 0 0 0 0-6.3M288.3 3056.6l-9.2-23.2q-.4-1.1-.4-1.6-.1-1.3 3.1-1.2h2v-2.4h-15.6v2.4h1c2.3 0 3 .6 3.9 2.8l12.6 31.7h2l11.5-29.6c1.5-4 2.6-4.8 5.4-5h.5v-2.3h-13.5v2.4h1q3.9.1 4 2.6 0 1.2-.6 2.8zm18.4 2.2a3.1 3.1 0 1 0 0 6.2 3.1 3.1 0 0 0 0-6.2M288.3 1306.3l-9.2-23.2-.4-1.5q-.1-1.4 3.1-1.3h2v-2.3h-15.6v2.3h1c2.3 0 3 .6 3.9 2.8l12.6 31.7h2l11.5-29.6c1.5-3.9 2.6-4.8 5.4-4.9h.5v-2.3h-13.5v2.3h1q3.9.1 4 2.6 0 1.2-.6 2.8zm18.4 2.2a3.1 3.1 0 1 0 0 6.2 3.1 3.1 0 0 0 0-6.2M224 2562.3h5.6c4.5 0 7-.4 9-1.3a10 10 0 0 0 5.5-8.9c0-8-7-9.9-13.6-9.9H213v2.4h.9c2.9 0 3.8.2 4.2.7.3.4.3.5.3 3v23.9c0 2.5 0 2.6-.3 3-.4.6-1.3.8-4.2.8h-.9v2.3h16.8v-2.3h-1.3c-2.9 0-3.8-.2-4.2-.7-.3-.5-.3-.6-.3-3.1zm0-2.3v-12.8c0-2.3.3-2.5 3-2.5h3.3q7.6-.1 7.6 7.7t-7.8 7.6zm30.8-4.9-8.6.6v2.1h1.8c1.9 0 2.1.4 2.1 2.5v14.3q0 1-.3 1.3-.4.7-3.4.7h-.2v1.8h12.6v-1.8h-.2c-3.3 0-3.8-.3-3.8-2.1v-7.4q0-4 1-5.9c1-2.2 3.2-3.8 5.4-3.8 1.3 0 2.8.7 3.5 1.8q1.1 1.4 1.1 5v10.4q0 1-.3 1.3-.3.7-3.5.7h-.2v1.8h12.7v-1.8h-.2c-3.3 0-3.8-.3-3.8-2.1v-10c0-3.7-.1-4.6-1-6.3a7 7 0 0 0-6.8-3.8q-4.7 0-7.9 4.8zm33.2-.8c-6.2 0-11 5.4-11 12.4s4.9 12.4 10.9 12.4 10.8-5.5 10.8-12.4-4.8-12.4-10.7-12.4m0 2.1q5.3.2 5.4 10.3-.1 10-5.5 10.2-5.5-.1-5.6-10.2 0-10.3 5.7-10.3m18.5 16.4a3.1 3.1 0 1 0 0 6.2 3.1 3.1 0 0 0 0-6.2M224 790.7h5.6c4.5 0 7-.4 9-1.3q5.4-2.7 5.5-8.8c0-8-7-10-13.6-10H213v2.4h.9c2.9 0 3.8.2 4.2.7.3.4.3.6.3 3.1v23.8c0 2.6 0 2.7-.3 3.1-.4.5-1.3.7-4.2.7h-.9v2.4h16.8v-2.4h-1.3c-2.9 0-3.8-.2-4.2-.7-.3-.4-.3-.5-.3-3.1zm0-2.4v-12.7c0-2.3.3-2.6 3-2.6h3.3q7.6 0 7.6 7.8 0 7.6-7.8 7.5zm30.8-4.8-8.6.5v2.2h1.8c1.9 0 2.1.3 2.1 2.5V803q0 1-.3 1.3-.4.6-3.4.7h-.2v1.8h12.6V805h-.2c-3.3-.2-3.8-.4-3.8-2.2v-7.4c0-2.4.4-4.7 1-5.8 1-2.3 3.2-3.8 5.4-3.8 1.3 0 2.8.7 3.5 1.7q1.1 1.5 1.1 5V803q0 1-.3 1.3-.3.6-3.5.7h-.2v1.8h12.7V805h-.2c-3.3-.2-3.8-.4-3.8-2.2v-10c0-3.6-.1-4.5-1-6.2a7 7 0 0 0-6.8-3.9q-4.7 0-7.9 4.8zm33.2-.8c-6.2 0-11 5.5-11 12.5 0 6.8 4.9 12.3 10.9 12.3s10.8-5.5 10.8-12.4c0-6.8-4.8-12.4-10.7-12.4m0 2.1c3.5 0 5.4 3.7 5.4 10.3q-.1 10.1-5.5 10.2-5.5-.1-5.6-10.1 0-10.4 5.7-10.4m18.5 16.4a3.1 3.1 0 1 0 0 6.3 3.1 3.1 0 0 0 0-6.3M224 3398.6h5.6c4.5 0 7-.4 9-1.3 3.5-1.7 5.5-5 5.5-8.9 0-8-7-10-13.6-10H213v2.4h.9c2.9.1 3.8.3 4.2.8.3.4.3.5.3 3v23.8c0 2.6 0 2.7-.3 3.2-.4.5-1.3.7-4.2.7h-.9v2.3h16.8v-2.3h-1.3c-2.9 0-3.8-.2-4.2-.7-.3-.5-.3-.6-.3-3.2zm0-2.4v-12.8c0-2.3.3-2.6 3-2.6h3.3q7.6 0 7.6 7.8t-7.8 7.6zm30.8-4.9-8.6.5v2.2h1.8c1.9 0 2.1.3 2.1 2.5v14.3q0 1-.3 1.3-.4.7-3.4.7h-.2v1.8h12.6v-1.8h-.2c-3.3-.1-3.8-.4-3.8-2.2v-7.3q0-4 1-5.9c1-2.2 3.2-3.8 5.4-3.8 1.3 0 2.8.7 3.5 1.8q1.1 1.4 1.1 5v10.4q0 1-.3 1.3-.3.7-3.5.7h-.2v1.8h12.7v-1.8h-.2c-3.3-.1-3.8-.4-3.8-2.2v-10c0-3.6-.1-4.5-1-6.2a7 7 0 0 0-6.8-3.8q-4.7 0-7.9 4.8zm33.2-.7c-6.2 0-11 5.4-11 12.4 0 6.8 4.9 12.3 10.9 12.3s10.8-5.5 10.8-12.4c0-6.8-4.8-12.3-10.7-12.3m0 2c3.5 0 5.4 3.8 5.4 10.3q-.1 10.2-5.5 10.3-5.5-.2-5.6-10.2 0-10.2 5.7-10.3m18.5 16.4a3.1 3.1 0 1 0 3.1 3.1c0-1.8-1.4-3.1-3-3.1M224 1702h5.6c4.5 0 7-.3 9-1.3 3.5-1.7 5.5-4.9 5.5-8.8 0-8-7-10-13.6-10H213v2.4h.9c2.9 0 3.8.2 4.2.7.3.5.3.6.3 3.1v23.8c0 2.6 0 2.7-.3 3.1-.4.5-1.3.7-4.2.7h-.9v2.4h16.8v-2.4h-1.3c-2.9 0-3.8-.2-4.2-.7-.3-.4-.3-.5-.3-3zm0-2.3v-12.8c0-2.3.3-2.6 3-2.6h3.3q7.6 0 7.6 7.8 0 7.6-7.8 7.6zm30.8-5-8.6.6v2.2h1.8c1.9 0 2.1.3 2.1 2.5v14.3q0 1-.3 1.3-.4.6-3.4.7h-.2v1.8h12.6v-1.8h-.2c-3.3-.1-3.8-.4-3.8-2.2v-7.4c0-2.4.4-4.7 1-5.8 1-2.3 3.2-3.8 5.4-3.8 1.3 0 2.8.7 3.5 1.7q1.1 1.5 1.1 5v10.5q0 1-.3 1.3-.3.6-3.5.7h-.2v1.8h12.7v-1.8h-.2c-3.3-.1-3.8-.4-3.8-2.2v-10c0-3.6-.1-4.5-1-6.2a7 7 0 0 0-6.8-3.9q-4.7 0-7.9 4.8zm33.2-.8c-6.2 0-11 5.5-11 12.5 0 6.8 4.9 12.3 10.9 12.3s10.8-5.5 10.8-12.4c0-6.8-4.8-12.4-10.7-12.4m0 2.2q5.3.1 5.4 10.2-.1 10.2-5.5 10.3-5.5-.1-5.6-10.2t5.7-10.3m18.5 16.3a3.1 3.1 0 1 0 0 6.2 3.1 3.1 0 0 0 0-6.2" class="InstrumentName"/><path fill="none" stroke="#000" stroke-linejoin="bevel" stroke-width="4.5" d="M368.7 1245.6v299.6M1679.8 2995.9v101.9M2845.2 2995.9v101.9M1686.1 1245.6v101.9M2845.2 1245.6v101.9M2845.2 384.8v102M1659.2 384.8v102M368.7 2135.6v269.8M2845.2 2135.6v102M368.7 384.8v227.8M368.7 2995.9v224.5M1686.1 2135.6v102M1679.8 3219v255.6M1659.2 611.2v255.6M2845.2 2404.1V2617M2845.2 611.2v255.6M368.7 611.2v255.6M368.7 1543.8v213M1686.1 2404.1V2617M1686.1 1543.8v213M2845.2 3219v255.6M2845.2 1543.8v213M368.7 3219v255.6M368.7 2404.1V2617M1686.1 2615.7v101.9M2845.2 3473.2v102M1679.8 3473.2v102M1659.2 865.4v101.9M368.7 2615.7v101.9M368.7 1755.4v101.9M368.7 865.4v101.9M2845.2 1755.4v101.9M1686.1 1755.4v101.9M368.7 3473.2v102M2845.2 2615.7v101.9M2845.2 865.4v101.9" class="BarLine"/><path fill-rule="evenodd" stroke="#000" stroke-linecap="round" stroke-linejoin="round" stroke-width="1.2" d="M2173.4 1262.4c64.7-59.3 277-85 354-43-76-34.2-288.4-8.4-354 43M1014.3 1355.6c67 44.7 272.7 52.4 342.8 12.9-70.4 47.5-276.1 39.7-342.8-13M1735.4 1679c22 15.1 60 8.9 76.2-12.3a48.6 48.6 0 0 1-76.2 12.4M576.3 1679c22 15.1 60 8.9 76.2-12.3a48.6 48.6 0 0 1-76.2 12.4M1735.4 2539.4c22 15 60 8.8 76.2-12.5a48.6 48.6 0 0 1-76.2 12.4M576.3 2539.4c22 15 60 8.8 76.2-12.5a48.6 48.6 0 0 1-76.2 12.4M822.3 3359.3c17.3-52.8 89.4-96.2 144.2-86.8-50.7-2.6-122.8 40.8-144.2 86.8M1027.4 3424.3c12.2-64.6 89.8-134.3 155.4-139.4-60.2 11-138 80.7-155.4 139.4M594.9 826.7c30.4-29.6 97.4-37.8 134-16.4-35.6-13.5-102.6-5.3-134 16.4M1243.7 3422.3c3-76 163.5-189.4 227.4-141.4-59.8-41.2-220.3 72.1-227.4 141.4M818.3 751.4c16.5-52.4 87.3-95.8 141.5-86.8-50-2.2-120.8 41.2-141.5 86.8M1019.5 816.5c11.3-64.3 87.6-134 152.6-139.5-59.6 11.4-136 81.1-152.6 139.5M1747.8 3434.5c31-29.8 99.5-38 136.7-16.3-36.3-13.7-104.7-5.6-136.7 16.3M1231.7 814.4c2-75.5 159.9-189 223.5-141.3-59.5-40.9-217.4 72.6-223.5 141.3M1727.2 826.7c30.4-29.6 97.4-37.8 134-16.4-35.6-13.5-102.7-5.3-134 16.4M1950.6 751.4c16.5-52.4 87.3-95.8 141.5-86.8-50-2.2-120.8 41.2-141.5 86.8M2151.7 816.5c11.4-64.3 87.7-134 152.7-139.5-59.6 11.4-136 81.1-152.7 139.5M2364 814.4c8.8-72.8 160.7-169 223.4-127.4-58.9-34.6-210.8 61.6-223.4 127.4M1975.2 3359.3c17.3-52.8 89.4-96.2 144.2-86.8-50.7-2.6-122.8 40.8-144.2 86.8M2180.3 3424.3c12.2-64.6 89.8-134.3 155.4-139.4-60.2 11-138 80.7-155.4 139.4M2396.6 3418c18.8-68.5 162.8-141.5 227.4-109.3-61.1-25-205.1 48-227.4 109.4M594.9 3434.5c31-29.8 99.5-38 136.7-16.3-36.3-13.7-104.7-5.6-136.7 16.3M576.3 1775.9a48 48 0 0 1 76.2-4.2c-20.1-17.2-58.2-15-76.2 4.2M576.3 2636.1a48 48 0 0 1 76.2-4.2c-20.1-17.2-58.2-15-76.2 4.2M1735.4 2636.1a48 48 0 0 1 76.2-4.2c-20-17.2-58.2-15-76.2 4.2M1735.4 1775.9a48 48 0 0 1 76.2-4.2c-20-17.2-58.2-15-76.2 4.2" class="SlurSegment"/><path fill-rule="evenodd" stroke="#000" stroke-linecap="round" stroke-linejoin="round" stroke-width="1.2" d="M1400.6 3089.7c13.5 15 53.7 15 67.2 0-13.5 21.7-53.7 21.7-67.2 0M787.4 2229.5c14.2 15 57 15 71.2 0-14.3 22-57 22-71.2 0M2177.9 1278.5c29.4-28 117.9-28 147.3 0-29.4-20-117.9-20-147.3 0M1966 1266c10.9-18.6 43.6-18.6 54.5 0-10.9-12.5-43.6-12.5-54.5 0M1358.7 2229.5c14.3 15 57 15 71.2 0-14.2 22-57 22-71.2 0M823.9 3089.7c13.4 15 53.7 15 67.1 0-13.4 21.7-53.7 21.7-67.1 0M1015.9 1339.5c29.5 20 118 20 147.4 0-29.5 28-118 28-147.4 0M1976.8 3089.7c13.4 15 53.7 15 67.1 0-13.4 21.7-53.7 21.7-67.1 0M787.4 1327c14.2 13 57 13 71.2 0-14.3 19.9-57 19.9-71.2 0M2553.5 3089.7c13.5 15 53.7 15 67.2 0-13.5 21.7-53.7 21.7-67.2 0M1946.5 2229.5c14.2 15 57 15 71.2 0-14.2 22-57 22-71.2 0M2521.1 706c13.2-20.2 52.7-20.2 65.8 0-13.2-13.6-52.6-13.6-65.8 0M1095 1775.9c14.2-19.9 56.9-19.9 71.1 0-14.2-13-57-13-71.2 0M1095 2636.1c14.2-19.8 56.9-19.8 71.1 0-14.2-13-57-13-71.2 0M2254 2636.1c14.3-19.8 57-19.8 71.3 0-14.3-13-57-13-71.3 0M2556.4 3326.3c13.4-20.5 53.7-20.5 67 0-13.3-13.8-53.6-13.8-67 0M2254 1775.9c14.3-19.9 57-19.9 71.3 0-14.3-13-57-13-71.3 0M1403.5 3301.5c13.4-20.5 53.7-20.5 67 0-13.3-13.8-53.6-13.8-67 0M1388.8 693.7c13.2-20.3 52.7-20.3 65.8 0-13.1-13.7-52.6-13.7-65.8 0" class="TieSegment"/><path fill="none" stroke="#000" stroke-linejoin="bevel" stroke-width="4" d="M2726.6 3369.2h48.6M2726.6 3394h48.6M2728.6 786.2h48.6M2728.6 761.4h48.6M1561.3 3344.4h48.6M864.8 736.6h48.6M794 736.6h48.6M1077.1 736.6h48.6M1077.1 761.4h48.6M1561.3 3369.2h48.6M1561.3 3394h48.6M1086.4 3369.2h48.6M1086.4 3344.4h48.6M794 761.4h48.6M870.1 3344.4h48.6M1289.3 761.4h48.6M798 3369.2h48.6M798 3344.4h48.6M1950.9 3344.4h48.6M1950.9 3369.2h48.6M1302.7 3344.4h48.5M1302.7 3369.2h48.5M2726.6 3344.4h48.6M2023 3344.4h48.6M1289.3 736.6h48.6M2654.5 3369.2h48.6M1489.2 3344.4h48.6M2455.6 3369.2h48.5M2421.6 761.4h48.6M2421.6 736.6h48.6M2654.5 3394h48.6M2527.6 3344.4h48.6M2209.3 761.4h48.6M2209.3 736.6h48.6M1926.3 736.6h48.6M1542.7 761.4h48.5M2654.5 3344.4h48.6M1489.2 3369.2h48.6M1489.2 3394h48.6M1997.1 736.6h48.5M1542.7 736.6h48.5M1926.3 761.4h48.6M2599.7 3344.4h48.6M2728.6 736.6h48.6M1471.9 736.6h48.6M2657.9 736.6h48.5M2657.9 761.4h48.5M2455.6 3344.4h48.5M1471.9 761.4h48.6M2239.3 3369.2h48.6M2239.3 3344.4h48.6M2657.9 786.2h48.5M1471.9 786.2h48.6M1542.7 786.2h48.5M2657.9 990.8h48.5M1471.9 990.8h48.6M552 3598.6h48.6M552 990.8h48.6M1704.9 3598.6h48.6M2728.6 990.8h48.6M1489.2 3598.6h48.6M1542.7 990.8h48.5M1684.3 990.8h48.6M2726.6 3598.6h48.6M1561.3 3598.6h48.6M2654.5 3598.6h48.6" class="LedgerLine"/><path fill="none" stroke="#000" stroke-linejoin="bevel" stroke-width="2.5" d="M1990.1 3067.7v-82.9M2036 2207.4V2137M800.7 1305v-76.5M876.8 2207.4V2137M800.7 2207.4v-82.8M876.8 1305v-64.2M2765.8 3055.3v-64.2M1029.2 1317.4v-70.5M909.3 3067.7v-70.4M1744.1 3042.9v-64.2M1600.5 3055.3v-64.2M1181.6 1317.4V1247M591.2 2182.6v-64.2M1023.7 3080.1v-76.7M1197.7 3055.3v-76.6M1372 1342.2v-89.1M2188.3 2219.8v-76.7M2340.7 2232.2v-82.8M2158.6 1300.7v64M1486 3067.7v-70.5M2566.8 3067.7v-82.9M2062.2 3067.7v-70.4M1413.9 3067.7v-82.9M591.2 1342.2v-95.3M1372 2207.4v-82.9M2638.9 3067.7v-70.5M2176.6 3080.1v-76.7M1448.2 2207.4v-70.5M2006.2 1288.3v70.3M2340.7 1292.6v-64.2M2602.3 481.4v-70.3M1750.3 2182.6v-64.2M2697 493.8v-76.7M1959.8 1280.2v-70.3M2531.1 1305v-70.5M2350.5 3055.3v-76.6M1600.6 2195v-64.2M1959.8 2207.4v-82.8M591.2 3042.9v-64.2M837.2 3067.7v-82.9M1750.3 1342.2v-107.8M1029.2 2219.8v-76.7M1181.6 2195v-76.6M1528.4 3390v-113.8M1600.5 3390v-113.8M1511.1 782.2V668.4M1524.4 1652.8v-157.2M2697 782.2V668.4M743.5 1640.4v-151M2683.5 1652.8v-157.2M1826.5 1640.4v-147.9M1902.6 1640.4v-151M1600.6 2513.1v-157.3M1600.6 1652.8v-157.2M1524.4 2513.1v-157.3M2683.5 2513.1v-157.3M2767.8 782.2V668.4M2765.8 3390v-113.8M1750.3 2513.1v-157.3M2759.7 2513.1v-157.3M2759.7 1652.8v-157.2M1750.3 1652.8v-157.3M743.5 2500.7v-151M667.3 1640.4v-147.9M1826.5 2500.7v-148M1581.8 782.2V668.4M667.3 2500.7v-148M1902.6 2500.7v-151M2693.7 3390v-113.8M591.2 1652.8v-157.3M591.2 2513.1v-157.3M2234.7 1798.1v76.5M1872.9 1798.1v76.5M1384.2 3323.8V3456M874.2 753.1V842M2310.9 1798.1v76.5M2729.9 1810.5v70.2M1167.9 3311.4V3456M2653.7 1810.5v67.2M1240 3507.8v-70.4M2577.6 1798.1v76.5M1312.1 3385.8v70.2M2387.1 1798.1v76.5M2501.4 1798.1v76.5M2006.2 2658.4v76.4M591.2 986.8v-145M1342.3 2658.4v76.4M1418.4 2658.4v76.5M1494.6 2670.8v67.1M1570.8 2670.8v70.2M1720.5 2670.8v70.2M1796.7 2658.4v79.5M1872.9 2658.4v76.5M2729.9 2670.8v70.2M1228 2658.4v76.4M2082.4 2658.4v76.4M2158.6 2658.4v76.4M2653.7 2670.8v67.1M2234.7 2658.4v76.4M2310.9 2658.4v76.4M2387.1 2658.4v76.4M2577.6 2658.4v76.5M2501.4 2658.4v76.4M807.4 3385.8v57.9M803.4 777.9v58M732.7 900v-74.5M661.9 937.2V833.6M1023.7 3507.8v-68.3M951.6 3299v155M879.5 3361v88.9M561.4 2670.8v70.2M637.6 2658.4v79.5M713.8 2658.4v76.5M1095.8 3385.8v76.3M847.1 2658.4v76.4M923.3 2658.4v76.4M735.3 3507.8v-74.5M999.4 2658.4v76.4M663.3 3545v-103.5M1075.6 2658.4v76.4M591.2 3594.6v-144.9M1151.8 2658.4v76.4M847.1 1798.1v76.5M1440.3 715.9v107.5M2765.8 3607v-182M1369.5 715.9v132.3M1298.8 777.9v70.3M2104.5 3299v155M2032.4 3361v88.9M561.4 1810.5v70.2M1960.3 3385.8v57.9M1456.3 3323.8v107.4M713.8 1798.1v76.5M1888.2 3507.8v-74.5M1816.2 3545v-103.5M2176.6 3507.8v-68.3M923.3 1798.1v76.5M1744.1 3594.6v-144.9M999.4 1798.1v76.5M1075.6 1798.1v76.5M1228 900v-70.4M1151.8 1798.1v76.5M1228 1798.1v76.5M1157.2 703.5v144.7M1342.3 1798.1v76.5M1418.4 1798.1v76.5M1600.5 3607v-194.4M2289.5 703.5v144.7M1511.1 999.2V804.8M1581.8 999.2V804.8M2693.7 3607v-182M1723.4 986.8v-145M1794.2 937.2V833.6M1865 900v-74.5M1935.7 777.9v58M2006.5 753.1V842M2609.2 3348.6v95M2077.2 691.1v155M2148 900v-68.4M2218.8 777.9v76.4M637.6 1798.1v79.6M2537.1 3348.6V3456M2360.3 900v-70.4M2431.1 777.9v70.3M2501.8 728.3v119.9M2465 3385.8v70.2M2572.6 728.3v101.3M2392.9 3507.8v-70.4M2320.8 3311.4V3456M2697 999.2V811M2767.8 999.2V811M2248.7 3385.8v76.3M2158.6 1798.1v76.5M2006.2 1798.1v76.5M2082.4 1798.1v76.5M945 691.1v155M1015.7 900v-68.4M1528.4 3607v-194.4M1086.5 777.9v76.4M1570.8 1810.5v70.2M1720.5 1810.5v70.2M1796.7 1798.1v79.6M1494.6 1810.5v67.2" class="Stem"/><path d="M769.7 2215.5c0 4.3 3 9 11 9 10.4 0 21.2-8.4 21.2-17 0-6-5-9.2-11.1-9.2-9.6 0-21.1 8.1-21.1 17.2M1569.5 3063.4c0 4.3 3 9 11 9 10.4 0 21.2-8.4 21.2-17.1 0-5.9-5-9.2-11.1-9.2-9.6 0-21.1 8.2-21.1 17.3M1150.6 2203.1c0 4.3 3 9 11 9 10.4 0 21.2-8.4 21.2-17 0-6-5-9.2-11.1-9.2-9.6 0-21.1 8.1-21.1 17.2M1341 2215.5c0 4.3 3 9 11.1 9 10.3 0 21.2-8.4 21.2-17 0-6-5-9.2-11.2-9.2-9.6 0-21 8.1-21 17.2M2608 3075.8c0 4.3 3 9 11 9 10.3 0 21.2-8.4 21.2-17.1 0-5.9-5-9.2-11.2-9.2-9.6 0-21 8.2-21 17.3M2005 1288.3c0 4.3 3 9 11 9 10.4 0 21.2-8.4 21.2-17.1 0-5.9-5-9.1-11.1-9.1-9.6 0-21.1 8.1-21.1 17.2M560.2 1350.3c0 4.3 3 9 11 9 10.4 0 21.2-8.4 21.2-17.1 0-5.9-5-9.1-11.1-9.1-9.6 0-21.1 8.1-21.1 17.2M1959 3075.8c0 4.3 3.1 9 11.2 9 10.3 0 21.1-8.4 21.1-17.1 0-5.9-5-9.2-11-9.2-9.7 0-21.2 8.2-21.2 17.3M2031.2 3075.8c0 4.3 3 9 11 9 10.4 0 21.2-8.4 21.2-17.1 0-5.9-5-9.2-11.1-9.2-9.6 0-21.1 8.2-21.1 17.3M2571.3 489.6c0 4.2 3.1 9 11.1 9 10.4 0 21.2-8.4 21.2-17.2 0-5.8-5-9.1-11.1-9.1-9.7 0-21.2 8.1-21.2 17.3M1719.3 2190.7c0 4.3 3 9 11 9 10.4 0 21.2-8.4 21.2-17 0-6-5-9.2-11-9.2-9.7 0-21.2 8.1-21.2 17.2M845.8 1313.1c0 4.3 3.1 9 11.1 9 10.4 0 21.2-8.4 21.2-17.1 0-5.9-5-9.1-11.1-9.1-9.7 0-21.2 8.1-21.2 17.2M1166.7 3063.4c0 4.3 3 9 11 9 10.4 0 21.2-8.4 21.2-17.1 0-5.9-5-9.2-11.1-9.2-9.6 0-21.1 8.2-21.1 17.3M769.7 1313.1c0 4.3 3 9 11 9 10.4 0 21.2-8.4 21.2-17.1 0-5.9-5-9.1-11.1-9.1-9.6 0-21.1 8.1-21.1 17.2M2666 502c0 4.2 3.1 9 11.1 9 10.4 0 21.2-8.4 21.2-17.2 0-5.8-5-9.1-11.1-9.1-9.7 0-21.2 8.1-21.2 17.3M845.8 2215.5c0 4.3 3.1 9 11.1 9 10.4 0 21.2-8.4 21.2-17 0-6-5-9.2-11.1-9.2-9.7 0-21.2 8.1-21.2 17.2M560.2 3051c0 4.3 3 9 11 9 10.4 0 21.2-8.4 21.2-17.1 0-5.9-5-9.2-11.1-9.2-9.6 0-21.1 8.2-21.1 17.3M2500.1 1313.1c0 4.3 3.1 9 11.1 9 10.4 0 21.2-8.4 21.2-17.1 0-5.9-5-9.1-11.1-9.1-9.7 0-21.2 8.1-21.2 17.2M806.2 3075.8c0 4.3 3 9 11.1 9 10.3 0 21.1-8.4 21.1-17.1 0-5.9-5-9.2-11-9.2-9.7 0-21.2 8.2-21.2 17.3M1928.8 1288.3c0 4.3 3 9 11 9 10.4 0 21.2-8.4 21.2-17.1 0-5.9-5-9.1-11-9.1-9.7 0-21.2 8.1-21.2 17.2M2535.8 3075.8c0 4.3 3 9 11.1 9 10.3 0 21.2-8.4 21.2-17.1 0-5.9-5-9.2-11.2-9.2-9.6 0-21 8.2-21 17.3M2319.5 3063.4c0 4.3 3.1 9 11.2 9 10.3 0 21-8.4 21-17.1 0-5.9-4.9-9.2-11-9.2-9.7 0-21.2 8.2-21.2 17.3M998.2 2228c0 4.2 3 9 11.1 9 10.3 0 21.1-8.5 21.1-17.2 0-5.8-5-9.1-11-9.1-9.7 0-21.2 8.1-21.2 17.2M1569.6 2203.1c0 4.3 3 9 11 9 10.4 0 21.2-8.4 21.2-17 0-6-5-9.2-11.1-9.2-9.6 0-21.2 8.1-21.2 17.2M1341 1350.3c0 4.3 3 9 11.1 9 10.3 0 21.2-8.4 21.2-17.1 0-5.9-5-9.1-11.2-9.1-9.6 0-21 8.1-21 17.2M2157.3 2228c0 4.2 3 9 11.1 9 10.3 0 21.2-8.5 21.2-17.2 0-5.8-5-9.1-11.2-9.1-9.6 0-21 8.1-21 17.2M2317.1 2244.7c-3.3 0-4-2.7-4-3.6 0-4.8 16.7-13.4 21.4-13.4 2.4 0 4 1.4 4 3.6 0 5-16.8 13.4-21.4 13.4m13.7-21.6c-9.6 0-21.1 8-21.1 17.2 0 4.3 3 9 11 9 10.4 0 21.2-8.4 21.2-17 0-6-5-9.2-11-9.2M2145.6 3088.2c0 4.3 3 9 11.1 9 10.3 0 21.2-8.4 21.2-17.1 0-5.9-5-9.2-11.2-9.2-9.6 0-21 8.2-21 17.3M2309.7 1300.7c0 4.3 3 9 11 9 10.4 0 21.2-8.4 21.2-17.1 0-5.9-5-9.1-11-9.1-9.7 0-21.2 8.1-21.2 17.2M2157.3 1300.7c0 4.3 3 9 11.1 9 10.3 0 21.2-8.4 21.2-17.1 0-5.9-5-9.1-11.2-9.1-9.6 0-21 8.1-21 17.2M992.7 3088.2c0 4.3 3 9 11.1 9 10.3 0 21.2-8.4 21.2-17.1 0-5.9-5-9.2-11.2-9.2-9.6 0-21 8.2-21 17.3M1417.2 2215.5c0 4.3 3 9 11.1 9 10.3 0 21.1-8.4 21.1-17 0-6-5-9.2-11-9.2-9.7 0-21.2 8.1-21.2 17.2M560.2 2190.7c0 4.3 3 9 11 9 10.4 0 21.2-8.4 21.2-17 0-6-5-9.2-11.1-9.2-9.6 0-21.1 8.1-21.1 17.2M1150.6 1325.5c0 4.3 3 9 11 9 10.4 0 21.2-8.4 21.2-17.1 0-5.9-5-9.1-11.1-9.1-9.6 0-21.1 8.1-21.1 17.2M1455 3075.8c0 4.3 3 9 11.1 9 10.3 0 21.2-8.4 21.2-17.1 0-5.9-5-9.2-11.2-9.2-9.6 0-21 8.2-21 17.3M2005 2215.5c0 4.3 3 9 11 9 10.4 0 21.2-8.4 21.2-17 0-6-5-9.2-11.1-9.2-9.6 0-21.1 8.1-21.1 17.2M1928.8 2215.5c0 4.3 3 9 11 9 10.4 0 21.2-8.4 21.2-17 0-6-5-9.2-11-9.2-9.7 0-21.2 8.1-21.2 17.2M878.3 3075.8c0 4.3 3 9 11 9 10.4 0 21.2-8.4 21.2-17.1 0-5.9-5-9.2-11.1-9.2-9.6 0-21.1 8.2-21.1 17.3M1713 3051c0 4.3 3.1 9 11.2 9 10.3 0 21.1-8.4 21.1-17.1 0-5.9-5-9.2-11.1-9.2-9.6 0-21.1 8.2-21.1 17.3M998.2 1325.5c0 4.3 3 9 11.1 9 10.3 0 21.1-8.4 21.1-17.1 0-5.9-5-9.1-11-9.1-9.7 0-21.2 8.1-21.2 17.2M1719.3 1350.3c0 4.3 3 9 11 9 10.4 0 21.2-8.4 21.2-17.1 0-5.9-5-9.1-11-9.1-9.7 0-21.2 8.1-21.2 17.2M2734.8 3063.4c0 4.3 3 9 11.1 9 10.3 0 21.1-8.4 21.1-17.1 0-5.9-5-9.2-11-9.2-9.7 0-21.2 8.2-21.2 17.3M1383 3075.8c0 4.3 3 9 11 9 10.3 0 21.2-8.4 21.2-17.1 0-5.9-5-9.2-11.2-9.2-9.6 0-21 8.2-21 17.3M1493.4 2521.2c0 4.3 3 9 11 9 10.4 0 21.2-8.4 21.2-17.1 0-5.9-5-9.2-11.1-9.2-9.6 0-21.1 8.2-21.1 17.3M1493.4 2471.6c0 4.3 3 9 11 9 10.4 0 21.2-8.4 21.2-17.1 0-5.9-5-9.2-11.1-9.2-9.6 0-21.1 8.2-21.1 17.3M1795.5 1648.5c0 4.3 3 9 11 9 10.4 0 21.2-8.4 21.2-17.1 0-5.9-5-9.1-11.1-9.1-9.6 0-21.1 8.1-21.1 17.2M1493.4 2434.4c0 4.3 3 9 11 9 10.4 0 21.2-8.4 21.2-17.1 0-5.9-5-9.2-11.1-9.2-9.6 0-21.1 8.2-21.1 17.3M2652.5 1611.3c0 4.3 3 9 11.1 9 10.3 0 21.1-8.4 21.1-17.1 0-5.9-5-9.1-11-9.1-9.7 0-21.2 8.1-21.2 17.2M2666 790.3c0 4.3 3.1 9 11.1 9 10.4 0 21.2-8.4 21.2-17.1 0-5.9-5-9.1-11.1-9.1-9.7 0-21.2 8-21.2 17.2M2652.5 1661c0 4.2 3 9 11.1 9 10.3 0 21.1-8.5 21.1-17.2 0-5.9-5-9.1-11-9.1-9.7 0-21.2 8.1-21.2 17.2M2736.8 790.3c0 4.3 3 9 11.1 9 10.3 0 21.1-8.4 21.1-17.1 0-5.9-5-9.1-11-9.1-9.7 0-21.2 8-21.2 17.2M1569.6 2434.4c0 4.3 3 9 11 9 10.4 0 21.2-8.4 21.2-17.1 0-5.9-5-9.2-11.1-9.2-9.6 0-21.2 8.2-21.2 17.3M1569.6 2471.6c0 4.3 3 9 11 9 10.4 0 21.2-8.4 21.2-17.1 0-5.9-5-9.2-11.1-9.2-9.6 0-21.2 8.2-21.2 17.3M1569.6 2521.2c0 4.3 3 9 11 9 10.4 0 21.2-8.4 21.2-17.1 0-5.9-5-9.2-11.1-9.2-9.6 0-21.2 8.2-21.2 17.3M1795.5 1561.7c0 4.3 3 9 11 9 10.4 0 21.2-8.4 21.2-17.1 0-5.9-5-9.1-11.1-9.1-9.6 0-21.1 8.1-21.1 17.2M1871.6 2459.2c0 4.3 3.1 9 11.2 9 10.3 0 21-8.4 21-17.1 0-5.9-4.9-9.2-11-9.2-9.7 0-21.2 8.2-21.2 17.3M1550.8 790.3c0 4.3 3.1 9 11.1 9 10.4 0 21.2-8.4 21.2-17.1 0-5.9-5-9.1-11.1-9.1-9.7 0-21.2 8-21.2 17.2M2652.5 2521.2c0 4.3 3 9 11.1 9 10.3 0 21.1-8.4 21.1-17.1 0-5.9-5-9.2-11-9.2-9.7 0-21.2 8.2-21.2 17.3M2652.5 2471.6c0 4.3 3 9 11.1 9 10.3 0 21.1-8.4 21.1-17.1 0-5.9-5-9.2-11-9.2-9.7 0-21.2 8.2-21.2 17.3M2652.5 2434.4c0 4.3 3 9 11.1 9 10.3 0 21.1-8.4 21.1-17.1 0-5.9-5-9.2-11-9.2-9.7 0-21.2 8.2-21.2 17.3M1480 790.3c0 4.3 3.1 9 11.2 9 10.3 0 21.1-8.4 21.1-17.1 0-5.9-5-9.1-11.1-9.1-9.6 0-21.1 8-21.1 17.2M2662.7 3398.2c0 4.2 3 9 11.1 9 10.3 0 21.2-8.4 21.2-17.2 0-5.8-5-9.1-11.2-9.1-9.6 0-21 8.1-21 17.3M2728.7 2521.2c0 4.3 3 9 11 9 10.4 0 21.2-8.4 21.2-17.1 0-5.9-5-9.2-11.1-9.2-9.6 0-21.1 8.2-21.1 17.3M2728.7 2471.6c0 4.3 3 9 11 9 10.4 0 21.2-8.4 21.2-17.1 0-5.9-5-9.2-11.1-9.2-9.6 0-21.1 8.2-21.1 17.3M2728.7 2434.4c0 4.3 3 9 11 9 10.4 0 21.2-8.4 21.2-17.1 0-5.9-5-9.2-11.1-9.2-9.6 0-21.1 8.2-21.1 17.3M1871.6 2422c0 4.3 3.1 9 11.2 9 10.3 0 21-8.4 21-17.1 0-5.9-4.9-9.2-11-9.2-9.7 0-21.2 8.2-21.2 17.3M1871.6 1648.5c0 4.3 3.1 9 11.2 9 10.3 0 21-8.4 21-17.1 0-5.9-4.9-9.1-11-9.1-9.7 0-21.2 8.1-21.2 17.2M1871.6 2508.8c0 4.3 3.1 9 11.2 9 10.3 0 21-8.4 21-17.1 0-5.9-4.9-9.2-11-9.2-9.7 0-21.2 8.2-21.2 17.3M1497.4 3398.2c0 4.2 3 9 11 9 10.4 0 21.2-8.4 21.2-17.2 0-5.8-5-9.1-11.1-9.1-9.6 0-21.1 8.1-21.1 17.3M1795.5 2422c0 4.3 3 9 11 9 10.4 0 21.2-8.4 21.2-17.1 0-5.9-5-9.2-11.1-9.2-9.6 0-21.1 8.2-21.1 17.3M1795.5 2459.2c0 4.3 3 9 11 9 10.4 0 21.2-8.4 21.2-17.1 0-5.9-5-9.2-11.1-9.2-9.6 0-21.1 8.2-21.1 17.3M1795.5 2508.8c0 4.3 3 9 11 9 10.4 0 21.2-8.4 21.2-17.1 0-5.9-5-9.2-11.1-9.2-9.6 0-21.1 8.2-21.1 17.3M1719.3 2434.4c0 4.3 3 9 11 9 10.4 0 21.2-8.4 21.2-17.1 0-5.9-5-9.2-11-9.2-9.7 0-21.2 8.2-21.2 17.3M1719.3 2471.6c0 4.3 3 9 11 9 10.4 0 21.2-8.4 21.2-17.1 0-5.9-5-9.2-11-9.2-9.7 0-21.2 8.2-21.2 17.3M1719.3 2521.2c0 4.3 3 9 11 9 10.4 0 21.2-8.4 21.2-17.1 0-5.9-5-9.2-11-9.2-9.7 0-21.2 8.2-21.2 17.3M1871.6 1561.7c0 4.3 3.1 9 11.2 9 10.3 0 21-8.4 21-17.1 0-5.9-4.9-9.1-11-9.1-9.7 0-21.2 8.1-21.2 17.2M1871.6 1599c0 4.2 3.1 9 11.2 9 10.3 0 21-8.5 21-17.2 0-5.9-4.9-9.1-11-9.1-9.7 0-21.2 8.1-21.2 17.2M636.3 2422c0 4.3 3.1 9 11.2 9 10.3 0 21-8.4 21-17.1 0-5.9-4.9-9.2-11-9.2-9.7 0-21.2 8.2-21.2 17.3M636.3 1599c0 4.2 3.1 9 11.2 9 10.3 0 21-8.5 21-17.2 0-5.9-4.9-9.1-11-9.1-9.7 0-21.2 8.1-21.2 17.2M636.3 1561.7c0 4.3 3.1 9 11.2 9 10.3 0 21-8.4 21-17.1 0-5.9-4.9-9.1-11-9.1-9.7 0-21.2 8.1-21.2 17.2M712.5 1648.5c0 4.3 3 9 11.1 9 10.3 0 21.2-8.4 21.2-17.1 0-5.9-5-9.1-11.2-9.1-9.6 0-21 8.1-21 17.2M712.5 1599c0 4.2 3 9 11.1 9 10.3 0 21.2-8.5 21.2-17.2 0-5.9-5-9.1-11.2-9.1-9.6 0-21 8.1-21 17.2M712.5 1561.7c0 4.3 3 9 11.1 9 10.3 0 21.2-8.4 21.2-17.1 0-5.9-5-9.1-11.2-9.1-9.6 0-21 8.1-21 17.2M1719.3 1574.1c0 4.3 3 9 11 9 10.4 0 21.2-8.4 21.2-17.1 0-5.9-5-9.1-11-9.1-9.7 0-21.2 8.1-21.2 17.2M1719.3 1611.3c0 4.3 3 9 11 9 10.4 0 21.2-8.4 21.2-17.1 0-5.9-5-9.1-11-9.1-9.7 0-21.2 8.1-21.2 17.2M2652.5 1574.1c0 4.3 3 9 11.1 9 10.3 0 21.1-8.4 21.1-17.1 0-5.9-5-9.1-11-9.1-9.7 0-21.2 8.1-21.2 17.2M712.5 2459.2c0 4.3 3 9 11.1 9 10.3 0 21.2-8.4 21.2-17.1 0-5.9-5-9.2-11.2-9.2-9.6 0-21 8.2-21 17.3M712.5 2508.8c0 4.3 3 9 11.1 9 10.3 0 21.2-8.4 21.2-17.1 0-5.9-5-9.2-11.2-9.2-9.6 0-21 8.2-21 17.3M1719.3 1661c0 4.2 3 9 11 9 10.4 0 21.2-8.5 21.2-17.2 0-5.9-5-9.1-11-9.1-9.7 0-21.2 8.1-21.2 17.2M712.5 2422c0 4.3 3 9 11.1 9 10.3 0 21.2-8.4 21.2-17.1 0-5.9-5-9.2-11.2-9.2-9.6 0-21 8.2-21 17.3M636.3 2459.2c0 4.3 3.1 9 11.2 9 10.3 0 21-8.4 21-17.1 0-5.9-4.9-9.2-11-9.2-9.7 0-21.2 8.2-21.2 17.3M636.3 2508.8c0 4.3 3.1 9 11.2 9 10.3 0 21-8.4 21-17.1 0-5.9-4.9-9.2-11-9.2-9.7 0-21.2 8.2-21.2 17.3M560.2 2434.4c0 4.3 3 9 11 9 10.4 0 21.2-8.4 21.2-17.1 0-5.9-5-9.2-11.1-9.2-9.6 0-21.1 8.2-21.1 17.3M560.2 2471.6c0 4.3 3 9 11 9 10.4 0 21.2-8.4 21.2-17.1 0-5.9-5-9.2-11.1-9.2-9.6 0-21.1 8.2-21.1 17.3M560.2 2521.2c0 4.3 3 9 11 9 10.4 0 21.2-8.4 21.2-17.1 0-5.9-5-9.2-11.1-9.2-9.6 0-21.1 8.2-21.1 17.3M1569.6 1574.1c0 4.3 3 9 11 9 10.4 0 21.2-8.4 21.2-17.1 0-5.9-5-9.1-11.1-9.1-9.6 0-21.2 8.1-21.2 17.2M1569.6 1611.3c0 4.3 3 9 11 9 10.4 0 21.2-8.4 21.2-17.1 0-5.9-5-9.1-11.1-9.1-9.6 0-21.2 8.1-21.2 17.2M1569.6 1661c0 4.2 3 9 11 9 10.4 0 21.2-8.5 21.2-17.2 0-5.9-5-9.1-11.1-9.1-9.6 0-21.2 8.1-21.2 17.2M1569.5 3398.2c0 4.2 3 9 11 9 10.4 0 21.2-8.4 21.2-17.2 0-5.8-5-9.1-11.1-9.1-9.6 0-21.1 8.1-21.1 17.3M1493.4 1661c0 4.2 3 9 11 9 10.4 0 21.2-8.5 21.2-17.2 0-5.9-5-9.1-11.1-9.1-9.6 0-21.1 8.1-21.1 17.2M1493.4 1611.3c0 4.3 3 9 11 9 10.4 0 21.2-8.4 21.2-17.1 0-5.9-5-9.1-11.1-9.1-9.6 0-21.1 8.1-21.1 17.2M2734.8 3398.2c0 4.2 3 9 11.1 9 10.3 0 21.1-8.4 21.1-17.2 0-5.8-5-9.1-11-9.1-9.7 0-21.2 8.1-21.2 17.3M560.2 1661c0 4.2 3 9 11 9 10.4 0 21.2-8.5 21.2-17.2 0-5.9-5-9.1-11.1-9.1-9.6 0-21.1 8.1-21.1 17.2M560.2 1611.3c0 4.3 3 9 11 9 10.4 0 21.2-8.4 21.2-17.1 0-5.9-5-9.1-11.1-9.1-9.6 0-21.1 8.1-21.1 17.2M636.3 1648.5c0 4.3 3.1 9 11.2 9 10.3 0 21-8.4 21-17.1 0-5.9-4.9-9.1-11-9.1-9.7 0-21.2 8.1-21.2 17.2M560.2 1574.1c0 4.3 3 9 11 9 10.4 0 21.2-8.4 21.2-17.1 0-5.9-5-9.1-11.1-9.1-9.6 0-21.1 8.1-21.1 17.2M2728.7 1661c0 4.2 3 9 11 9 10.4 0 21.2-8.5 21.2-17.2 0-5.9-5-9.1-11.1-9.1-9.6 0-21.1 8.1-21.1 17.2M2728.7 1574.1c0 4.3 3 9 11 9 10.4 0 21.2-8.4 21.2-17.1 0-5.9-5-9.1-11.1-9.1-9.6 0-21.1 8.1-21.1 17.2M1493.4 1574.1c0 4.3 3 9 11 9 10.4 0 21.2-8.4 21.2-17.1 0-5.9-5-9.1-11.1-9.1-9.6 0-21.1 8.1-21.1 17.2M2728.7 1611.3c0 4.3 3 9 11 9 10.4 0 21.2-8.4 21.2-17.1 0-5.9-5-9.1-11.1-9.1-9.6 0-21.1 8.1-21.1 17.2M1795.5 1599c0 4.2 3 9 11 9 10.4 0 21.2-8.5 21.2-17.2 0-5.9-5-9.1-11.1-9.1-9.6 0-21.1 8.1-21.1 17.2M2734.8 3528.4c0 4.2 3 9 11.1 9 10.3 0 21.1-8.4 21.1-17.2 0-5.8-5-9.1-11-9.1-9.7 0-21.2 8.1-21.2 17.3M2652.5 2670.8c0 4.3 3 9 11.1 9 10.3 0 21.1-8.4 21.1-17.1 0-5.9-5-9.2-11-9.2-9.7 0-21.2 8.2-21.2 17.3M1497.4 3565.6c0 4.2 3 9 11 9 10.4 0 21.2-8.4 21.2-17.2 0-5.8-5-9.1-11.1-9.1-9.6 0-21.1 8.1-21.1 17.3M1383 3323.8c0 4.2 3 9 11 9 10.3 0 21.2-8.4 21.2-17.2 0-5.8-5-9.1-11.2-9.1-9.6 0-21 8.1-21 17.3M992.7 3516c0 4.2 3 9 11.1 9 10.3 0 21.2-8.4 21.2-17.2 0-5.8-5-9.1-11.2-9.1-9.6 0-21 8.1-21 17.3M2734.8 3565.6c0 4.2 3 9 11.1 9 10.3 0 21.1-8.4 21.1-17.2 0-5.8-5-9.1-11-9.1-9.7 0-21.2 8.1-21.2 17.3M950.4 3299c0 4.2 3 9 11 9 10.4 0 21.2-8.4 21.2-17.2 0-5.8-5-9.1-11.1-9.1-9.6 0-21.1 8.1-21.1 17.3M2734.8 3615.2c0 4.2 3 9 11.1 9 10.3 0 21.1-8.4 21.1-17.2 0-5.8-5-9.1-11-9.1-9.7 0-21.2 8.1-21.2 17.3M2247.5 3385.8c0 4.2 3 9 11 9 10.4 0 21.2-8.4 21.2-17.2 0-5.8-5-9.1-11.1-9.1-9.6 0-21.2 8.1-21.2 17.3M1455 3323.8c0 4.2 3 9 11.1 9 10.3 0 21.2-8.4 21.2-17.2 0-5.8-5-9.1-11.2-9.1-9.6 0-21 8.1-21 17.3M2662.7 3615.2c0 4.2 3 9 11.1 9 10.3 0 21.2-8.4 21.2-17.2 0-5.8-5-9.1-11.2-9.1-9.6 0-21 8.1-21 17.3M2662.7 3565.6c0 4.2 3 9 11.1 9 10.3 0 21.2-8.4 21.2-17.2 0-5.8-5-9.1-11.2-9.1-9.6 0-21 8.1-21 17.3M1569.5 3528.4c0 4.2 3 9 11 9 10.4 0 21.2-8.4 21.2-17.2 0-5.8-5-9.1-11.1-9.1-9.6 0-21.1 8.1-21.1 17.3M1569.5 3565.6c0 4.2 3 9 11 9 10.4 0 21.2-8.4 21.2-17.2 0-5.8-5-9.1-11.1-9.1-9.6 0-21.1 8.1-21.1 17.3M1569.5 3615.2c0 4.2 3 9 11 9 10.4 0 21.2-8.4 21.2-17.2 0-5.8-5-9.1-11.1-9.1-9.6 0-21.1 8.1-21.1 17.3M2662.7 3528.4c0 4.2 3 9 11.1 9 10.3 0 21.2-8.4 21.2-17.2 0-5.8-5-9.1-11.2-9.1-9.6 0-21 8.1-21 17.3M2145.6 3516c0 4.2 3 9 11.1 9 10.3 0 21.2-8.4 21.2-17.2 0-5.8-5-9.1-11.2-9.1-9.6 0-21 8.1-21 17.3M2576.3 2658.4c0 4.3 3 9 11.1 9 10.3 0 21.2-8.4 21.2-17.1 0-5.9-5-9.2-11.2-9.2-9.6 0-21 8.2-21 17.3M1094.6 3385.8c0 4.2 3 9 11 9 10.4 0 21.2-8.4 21.2-17.2 0-5.8-5-9.1-11.1-9.1-9.6 0-21.2 8.1-21.2 17.3M1166.7 3311.4c0 4.2 3 9 11 9 10.4 0 21.2-8.4 21.2-17.2 0-5.8-5-9.1-11.1-9.1-9.6 0-21.1 8.1-21.1 17.3M2535.8 3348.6c0 4.2 3 9 11.1 9 10.3 0 21.2-8.4 21.2-17.2 0-5.8-5-9.1-11.2-9.1-9.6 0-21 8.1-21 17.3M2463.7 3385.8c0 4.2 3.1 9 11.1 9 10.4 0 21.2-8.4 21.2-17.2 0-5.8-5-9.1-11.1-9.1-9.7 0-21.2 8.1-21.2 17.3M560.2 3602.8c0 4.2 3 9 11 9 10.4 0 21.2-8.4 21.2-17.2 0-5.8-5-9.1-11.1-9.1-9.6 0-21.1 8.1-21.1 17.3M632.3 3553.2c0 4.2 3 9 11 9 10.4 0 21.2-8.4 21.2-17.2 0-5.8-5-9.1-11.1-9.1-9.6 0-21.1 8.1-21.1 17.3M1497.4 3528.4c0 4.2 3 9 11 9 10.4 0 21.2-8.4 21.2-17.2 0-5.8-5-9.1-11.1-9.1-9.6 0-21.1 8.1-21.1 17.3M2361.9 3516c0 4.2 3 9 11.1 9 10.3 0 21.1-8.4 21.1-17.2 0-5.8-5-9.1-11-9.1-9.7 0-21.2 8.1-21.2 17.3M704.3 3516c0 4.2 3.1 9 11.2 9 10.3 0 21-8.4 21-17.2 0-5.8-4.9-9.1-11-9.1-9.7 0-21.2 8.1-21.2 17.3M1497.4 3615.2c0 4.2 3 9 11 9 10.4 0 21.2-8.4 21.2-17.2 0-5.8-5-9.1-11.1-9.1-9.6 0-21.1 8.1-21.1 17.3M1857.2 3516c0 4.2 3.1 9 11.2 9 10.3 0 21-8.4 21-17.2 0-5.8-4.9-9.1-11-9.1-9.7 0-21.2 8.1-21.2 17.3M1209 3516c0 4.2 3 9 11.1 9 10.3 0 21.1-8.4 21.1-17.2 0-5.8-5-9.1-11-9.1-9.7 0-21.2 8.1-21.2 17.3M1310.8 3385.8c0 4.2 3.1 9 11.1 9 10.4 0 21.2-8.4 21.2-17.2 0-5.8-5-9.1-11.1-9.1-9.7 0-21.2 8.1-21.2 17.3M878.3 3361c0 4.2 3 9 11 9 10.4 0 21.2-8.4 21.2-17.2 0-5.8-5-9.1-11.1-9.1-9.6 0-21.1 8.1-21.1 17.3M1785.2 3553.2c0 4.2 3 9 11 9 10.4 0 21.2-8.4 21.2-17.2 0-5.8-5-9.1-11.1-9.1-9.6 0-21.1 8.1-21.1 17.3M2319.5 3311.4c0 4.2 3.1 9 11.2 9 10.3 0 21-8.4 21-17.2 0-5.8-4.9-9.1-11-9.1-9.7 0-21.2 8.1-21.2 17.3M1713 3602.8c0 4.2 3.1 9 11.2 9 10.3 0 21.1-8.4 21.1-17.2 0-5.8-5-9.1-11.1-9.1-9.6 0-21.1 8.1-21.1 17.3M1959 3385.8c0 4.2 3.1 9 11.2 9 10.3 0 21.1-8.4 21.1-17.2 0-5.8-5-9.1-11-9.1-9.7 0-21.2 8.1-21.2 17.3M2031.2 3361c0 4.2 3 9 11 9 10.4 0 21.2-8.4 21.2-17.2 0-5.8-5-9.1-11.1-9.1-9.6 0-21.1 8.1-21.1 17.3M636.3 2658.4c0 4.3 3.1 9 11.2 9 10.3 0 21-8.4 21-17.1 0-5.9-4.9-9.2-11-9.2-9.7 0-21.2 8.2-21.2 17.3M806.2 3385.8c0 4.2 3 9 11.1 9 10.3 0 21.1-8.4 21.1-17.2 0-5.8-5-9.1-11-9.1-9.7 0-21.2 8.1-21.2 17.3M2728.7 2670.8c0 4.3 3 9 11 9 10.4 0 21.2-8.4 21.2-17.1 0-5.9-5-9.2-11.1-9.2-9.6 0-21.1 8.2-21.1 17.3M2103.3 3299c0 4.2 3 9 11 9 10.4 0 21.2-8.4 21.2-17.2 0-5.8-5-9.1-11.1-9.1-9.6 0-21.1 8.1-21.1 17.3M2608 3348.6c0 4.2 3 9 11 9 10.3 0 21.2-8.4 21.2-17.2 0-5.8-5-9.1-11.2-9.1-9.6 0-21 8.1-21 17.3M1692.4 995c0 4.2 3.1 9 11.2 9 10.3 0 21-8.5 21-17.2 0-5.9-4.9-9.1-11-9.1-9.7 0-21.2 8-21.2 17.2M2288.3 703.5c0 4.3 3 9 11 9 10.4 0 21.2-8.4 21.2-17.1 0-5.9-5-9.1-11-9.1-9.7 0-21.2 8-21.2 17.2M2217.5 778c0 4.2 3 9 11.1 9 10.3 0 21.2-8.5 21.2-17.2 0-5.9-5-9.1-11.2-9.1-9.6 0-21 8-21 17.2M2117 908.1c0 4.3 3 9 11.1 9 10.3 0 21.2-8.4 21.2-17.1 0-5.9-5-9.1-11.2-9.1-9.6 0-21 8-21 17.2M2076 691.1c0 4.3 3 9 11.1 9 10.3 0 21.1-8.4 21.1-17.1 0-5.9-5-9.1-11-9.1-9.7 0-21.2 8-21.2 17.2M2500.1 2658.4c0 4.3 3.1 9 11.1 9 10.4 0 21.2-8.4 21.2-17.1 0-5.9-5-9.2-11.1-9.2-9.7 0-21.2 8.2-21.2 17.3M2005.2 753.1c0 4.3 3.1 9 11.1 9 10.4 0 21.2-8.4 21.2-17.1 0-5.9-5-9.1-11.1-9.1-9.7 0-21.2 8-21.2 17.2M1934.5 778c0 4.2 3 9 11 9 10.4 0 21.2-8.5 21.2-17.2 0-5.9-5-9.1-11.1-9.1-9.6 0-21.1 8-21.1 17.2M1417.2 1798.1c0 4.3 3 9 11.1 9 10.3 0 21.1-8.4 21.1-17 0-6-5-9.2-11-9.2-9.7 0-21.2 8.1-21.2 17.2M1834 908.1c0 4.3 3 9 11 9 10.4 0 21.2-8.4 21.2-17.1 0-5.9-5-9.1-11.1-9.1-9.6 0-21.1 8-21.1 17.2M560.2 2670.8c0 4.3 3 9 11 9 10.4 0 21.2-8.4 21.2-17.1 0-5.9-5-9.2-11.1-9.2-9.6 0-21.1 8.2-21.1 17.3M1763.2 945.3c0 4.3 3 9 11.1 9 10.3 0 21.1-8.4 21.1-17.1 0-5.9-5-9.1-11-9.1-9.7 0-21.2 8-21.2 17.2M712.5 2658.4c0 4.3 3 9 11.1 9 10.3 0 21.2-8.4 21.2-17.1 0-5.9-5-9.2-11.2-9.2-9.6 0-21 8.2-21 17.3M2329.3 908.1c0 4.3 3 9 11.1 9 10.3 0 21.1-8.4 21.1-17.1 0-5.9-5-9.1-11-9.1-9.7 0-21.2 8-21.2 17.2M845.8 2658.4c0 4.3 3.1 9 11.1 9 10.4 0 21.2-8.4 21.2-17.1 0-5.9-5-9.2-11.1-9.2-9.7 0-21.2 8.2-21.2 17.3M1341 1798.1c0 4.3 3 9 11.1 9 10.3 0 21.2-8.4 21.2-17 0-6-5-9.2-11.2-9.2-9.6 0-21 8.1-21 17.2M922 2658.4c0 4.3 3 9 11.1 9 10.3 0 21.2-8.4 21.2-17.1 0-5.9-5-9.2-11.2-9.2-9.6 0-21 8.2-21 17.3M998.2 2658.4c0 4.3 3 9 11.1 9 10.3 0 21.1-8.4 21.1-17.1 0-5.9-5-9.2-11-9.2-9.7 0-21.2 8.2-21.2 17.3M1074.4 2658.4c0 4.3 3 9 11 9 10.4 0 21.2-8.4 21.2-17.1 0-5.9-5-9.2-11-9.2-9.7 0-21.2 8.2-21.2 17.3M1550.8 957.7c0 4.3 3.1 9 11.1 9 10.4 0 21.2-8.4 21.2-17.1 0-5.9-5-9.1-11.1-9.1-9.7 0-21.2 8-21.2 17.2M1226.7 1798.1c0 4.3 3.1 9 11.2 9 10.3 0 21-8.4 21-17 0-6-4.9-9.2-11-9.2-9.7 0-21.2 8.1-21.2 17.2M1550.8 1007.3c0 4.3 3.1 9 11.1 9 10.4 0 21.2-8.4 21.2-17.1 0-5.9-5-9.1-11.1-9.1-9.7 0-21.2 8.1-21.2 17.2M1480 920.5c0 4.3 3.1 9 11.2 9 10.3 0 21.1-8.4 21.1-17.1 0-5.9-5-9.1-11.1-9.1-9.6 0-21.1 8-21.1 17.2M1150.6 1798.1c0 4.3 3 9 11 9 10.4 0 21.2-8.4 21.2-17 0-6-5-9.2-11.1-9.2-9.6 0-21.1 8.1-21.1 17.2M1480 957.7c0 4.3 3.1 9 11.2 9 10.3 0 21.1-8.4 21.1-17.1 0-5.9-5-9.1-11.1-9.1-9.6 0-21.1 8-21.1 17.2M1480 1007.3c0 4.3 3.1 9 11.2 9 10.3 0 21.1-8.4 21.1-17.1 0-5.9-5-9.1-11.1-9.1-9.6 0-21.1 8.1-21.1 17.2M1719.3 1810.5c0 4.3 3 9 11 9 10.4 0 21.2-8.4 21.2-17 0-6-5-9.2-11-9.2-9.7 0-21.2 8.1-21.2 17.2M2736.8 920.5c0 4.3 3 9 11.1 9 10.3 0 21.1-8.4 21.1-17.1 0-5.9-5-9.1-11-9.1-9.7 0-21.2 8-21.2 17.2M2736.8 957.7c0 4.3 3 9 11.1 9 10.3 0 21.1-8.4 21.1-17.1 0-5.9-5-9.1-11-9.1-9.7 0-21.2 8-21.2 17.2M1871.6 1798.1c0 4.3 3.1 9 11.2 9 10.3 0 21-8.4 21-17 0-6-4.9-9.2-11-9.2-9.7 0-21.2 8.1-21.2 17.2M1795.5 1798.1c0 4.3 3 9 11 9 10.4 0 21.2-8.4 21.2-17 0-6-5-9.2-11.1-9.2-9.6 0-21.1 8.1-21.1 17.2M2005 1798.1c0 4.3 3 9 11 9 10.4 0 21.2-8.4 21.2-17 0-6-5-9.2-11.1-9.2-9.6 0-21.1 8.1-21.1 17.2M2736.8 1007.3c0 4.3 3 9 11.1 9 10.3 0 21.1-8.4 21.1-17.1 0-5.9-5-9.1-11-9.1-9.7 0-21.2 8.1-21.2 17.2M2081.1 1798.1c0 4.3 3.1 9 11.2 9 10.3 0 21-8.4 21-17 0-6-4.9-9.2-11-9.2-9.7 0-21.2 8.1-21.2 17.2M2666 920.5c0 4.3 3.1 9 11.1 9 10.4 0 21.2-8.4 21.2-17.1 0-5.9-5-9.1-11.1-9.1-9.7 0-21.2 8-21.2 17.2M2666 957.7c0 4.3 3.1 9 11.1 9 10.4 0 21.2-8.4 21.2-17.1 0-5.9-5-9.1-11.1-9.1-9.7 0-21.2 8-21.2 17.2M2157.3 1798.1c0 4.3 3 9 11.1 9 10.3 0 21.2-8.4 21.2-17 0-6-5-9.2-11.2-9.2-9.6 0-21 8.1-21 17.2M2233.5 1798.1c0 4.3 3 9 11.1 9 10.3 0 21.1-8.4 21.1-17 0-6-5-9.2-11-9.2-9.7 0-21.2 8.1-21.2 17.2M2666 1007.3c0 4.3 3.1 9 11.1 9 10.4 0 21.2-8.4 21.2-17.1 0-5.9-5-9.1-11.1-9.1-9.7 0-21.2 8.1-21.2 17.2M1550.8 920.5c0 4.3 3.1 9 11.1 9 10.4 0 21.2-8.4 21.2-17.1 0-5.9-5-9.1-11.1-9.1-9.7 0-21.2 8-21.2 17.2M2309.7 1798.1c0 4.3 3 9 11 9 10.4 0 21.2-8.4 21.2-17 0-6-5-9.2-11-9.2-9.7 0-21.2 8.1-21.2 17.2M2385.9 1798.1c0 4.3 3 9 11 9 10.4 0 21.2-8.4 21.2-17 0-6-5-9.2-11.1-9.2-9.6 0-21.1 8.1-21.1 17.2M2500.1 1798.1c0 4.3 3.1 9 11.1 9 10.4 0 21.2-8.4 21.2-17 0-6-5-9.2-11.1-9.2-9.7 0-21.2 8.1-21.2 17.2M2576.3 1798.1c0 4.3 3 9 11.1 9 10.3 0 21.2-8.4 21.2-17 0-6-5-9.2-11.2-9.2-9.6 0-21 8.1-21 17.2M2571.3 728.3c0 4.3 3.1 9 11.1 9 10.4 0 21.2-8.4 21.2-17.1 0-5.9-5-9.1-11.1-9.1-9.7 0-21.2 8-21.2 17.2M1569.6 1810.5c0 4.3 3 9 11 9 10.4 0 21.2-8.4 21.2-17 0-6-5-9.2-11.1-9.2-9.6 0-21.2 8.1-21.2 17.2M2652.5 1810.5c0 4.3 3 9 11.1 9 10.3 0 21.1-8.4 21.1-17 0-6-5-9.2-11-9.2-9.7 0-21.2 8.1-21.2 17.2M2500.6 728.3c0 4.3 3 9 11 9 10.4 0 21.2-8.4 21.2-17.1 0-5.9-5-9.1-11.1-9.1-9.6 0-21.1 8-21.1 17.2M1493.4 1810.5c0 4.3 3 9 11 9 10.4 0 21.2-8.4 21.2-17 0-6-5-9.2-11.1-9.2-9.6 0-21.1 8.1-21.1 17.2M2429.8 778c0 4.2 3 9 11.1 9 10.3 0 21.2-8.5 21.2-17.2 0-5.9-5-9.1-11.2-9.1-9.6 0-21 8-21 17.2M2728.7 1810.5c0 4.3 3 9 11 9 10.4 0 21.2-8.4 21.2-17 0-6-5-9.2-11.1-9.2-9.6 0-21.1 8.1-21.1 17.2M560.2 995c0 4.2 3 9 11 9 10.4 0 21.2-8.5 21.2-17.2 0-5.9-5-9.1-11.1-9.1-9.6 0-21.1 8-21.1 17.2M1085.2 778c0 4.2 3.1 9 11.2 9 10.3 0 21-8.5 21-17.2 0-5.9-4.9-9.1-11-9.1-9.7 0-21.2 8-21.2 17.2M1417.2 2658.4c0 4.3 3 9 11.1 9 10.3 0 21.1-8.4 21.1-17.1 0-5.9-5-9.2-11-9.2-9.7 0-21.2 8.2-21.2 17.3M984.7 908.1c0 4.3 3.1 9 11.1 9 10.4 0 21.2-8.4 21.2-17.1 0-5.9-5-9.1-11.1-9.1-9.7 0-21.2 8-21.2 17.2M943.7 691.1c0 4.3 3 9 11.1 9 10.3 0 21.2-8.4 21.2-17.1 0-5.9-5-9.1-11.2-9.1-9.6 0-21 8-21 17.2M873 753.1c0 4.3 3 9 11 9 10.4 0 21.2-8.4 21.2-17.1 0-5.9-5-9.1-11.1-9.1-9.6 0-21.1 8-21.1 17.2M1569.6 2670.8c0 4.3 3 9 11 9 10.4 0 21.2-8.4 21.2-17.1 0-5.9-5-9.2-11.1-9.2-9.6 0-21.2 8.2-21.2 17.3M802.2 778c0 4.2 3 9 11.1 9 10.3 0 21.1-8.5 21.1-17.2 0-5.9-5-9.1-11-9.1-9.7 0-21.2 8-21.2 17.2M636.3 1798.1c0 4.3 3.1 9 11.2 9 10.3 0 21-8.4 21-17 0-6-4.9-9.2-11-9.2-9.7 0-21.2 8.1-21.2 17.2M701.7 908.1c0 4.3 3 9 11.1 9 10.3 0 21.1-8.4 21.1-17.1 0-5.9-5-9.1-11-9.1-9.7 0-21.2 8-21.2 17.2M631 945.3c0 4.3 3 9 11 9 10.3 0 21.2-8.4 21.2-17.1 0-5.9-5-9.1-11.2-9.1-9.6 0-21 8-21 17.2M1719.3 2670.8c0 4.3 3 9 11 9 10.4 0 21.2-8.4 21.2-17.1 0-5.9-5-9.2-11-9.2-9.7 0-21.2 8.2-21.2 17.3M1493.4 2670.8c0 4.3 3 9 11 9 10.4 0 21.2-8.4 21.2-17.1 0-5.9-5-9.2-11.1-9.2-9.6 0-21.1 8.2-21.1 17.3M1795.5 2658.4c0 4.3 3 9 11 9 10.4 0 21.2-8.4 21.2-17.1 0-5.9-5-9.2-11.1-9.2-9.6 0-21.1 8.2-21.1 17.3M1871.6 2658.4c0 4.3 3.1 9 11.2 9 10.3 0 21-8.4 21-17.1 0-5.9-4.9-9.2-11-9.2-9.7 0-21.2 8.2-21.2 17.3M922 1798.1c0 4.3 3 9 11.1 9 10.3 0 21.2-8.4 21.2-17 0-6-5-9.2-11.2-9.2-9.6 0-21 8.1-21 17.2M2005 2658.4c0 4.3 3 9 11 9 10.4 0 21.2-8.4 21.2-17.1 0-5.9-5-9.2-11.1-9.2-9.6 0-21.1 8.2-21.1 17.3M2081.1 2658.4c0 4.3 3.1 9 11.2 9 10.3 0 21-8.4 21-17.1 0-5.9-4.9-9.2-11-9.2-9.7 0-21.2 8.2-21.2 17.3M2157.3 2658.4c0 4.3 3 9 11.1 9 10.3 0 21.2-8.4 21.2-17.1 0-5.9-5-9.2-11.2-9.2-9.6 0-21 8.2-21 17.3M2233.5 2658.4c0 4.3 3 9 11.1 9 10.3 0 21.1-8.4 21.1-17.1 0-5.9-5-9.2-11-9.2-9.7 0-21.2 8.2-21.2 17.3M712.5 1798.1c0 4.3 3 9 11.1 9 10.3 0 21.2-8.4 21.2-17 0-6-5-9.2-11.2-9.2-9.6 0-21 8.1-21 17.2M2309.7 2658.4c0 4.3 3 9 11 9 10.4 0 21.2-8.4 21.2-17.1 0-5.9-5-9.2-11-9.2-9.7 0-21.2 8.2-21.2 17.3M2385.9 2658.4c0 4.3 3 9 11 9 10.4 0 21.2-8.4 21.2-17.1 0-5.9-5-9.2-11.1-9.2-9.6 0-21.1 8.2-21.1 17.3M845.8 1798.1c0 4.3 3.1 9 11.1 9 10.4 0 21.2-8.4 21.2-17 0-6-5-9.2-11.1-9.2-9.7 0-21.2 8.1-21.2 17.2M1197 908.1c0 4.3 3 9 11.1 9 10.3 0 21.2-8.4 21.2-17.1 0-5.9-5-9.1-11.2-9.1-9.6 0-21 8-21 17.2M1150.6 2658.4c0 4.3 3 9 11 9 10.4 0 21.2-8.4 21.2-17.1 0-5.9-5-9.2-11.1-9.2-9.6 0-21.1 8.2-21.1 17.3M1074.4 1798.1c0 4.3 3 9 11 9 10.4 0 21.2-8.4 21.2-17 0-6-5-9.2-11-9.2-9.7 0-21.2 8.1-21.2 17.2M1226.7 2658.4c0 4.3 3.1 9 11.2 9 10.3 0 21-8.4 21-17.1 0-5.9-4.9-9.2-11-9.2-9.7 0-21.2 8.2-21.2 17.3M1439 716c0 4.2 3.1 9 11.2 9 10.3 0 21-8.5 21-17.2 0-5.9-4.9-9.1-11-9.1-9.6 0-21.2 8-21.2 17.2M1341 2658.4c0 4.3 3 9 11.1 9 10.3 0 21.2-8.4 21.2-17.1 0-5.9-5-9.2-11.2-9.2-9.6 0-21 8.2-21 17.3M998.2 1798.1c0 4.3 3 9 11.1 9 10.3 0 21.1-8.4 21.1-17 0-6-5-9.2-11-9.2-9.7 0-21.2 8.1-21.2 17.2M560.2 1810.5c0 4.3 3 9 11 9 10.4 0 21.2-8.4 21.2-17 0-6-5-9.2-11.1-9.2-9.6 0-21.1 8.1-21.1 17.2M1156 703.5c0 4.3 3 9 11.1 9 10.3 0 21.1-8.4 21.1-17.1 0-5.9-5-9.1-11-9.1-9.7 0-21.2 8-21.2 17.2M1297.5 778c0 4.2 3.1 9 11.1 9 10.4 0 21.2-8.5 21.2-17.2 0-5.9-5-9.1-11.1-9.1-9.7 0-21.2 8-21.2 17.2M1368.3 716c0 4.2 3 9 11.1 9 10.3 0 21.1-8.5 21.1-17.2 0-5.9-5-9.1-11-9.1-9.7 0-21.2 8-21.2 17.2" class="Note"/><path d="M431.2 2231.8q-3 .6-5.8.6c-14.2 0-26.3-10-26.3-24.9 0-12 8.6-22.9 17.3-30.5q2.5-2 4.8-4.3l2.2 14c-9 2.8-15.1 12.3-15.1 21.6 0 7 5.4 16.5 13.4 16.5.7 0 1.6-.4 1.6-1.3s-1-1.4-2.1-2.2c-4-2.4-6.1-5-6.1-9.8 0-6 4.5-11 10.3-12.3zm-8.8-102c1-4 5.5-14.3 10.7-14.3 1.4 0 3.8 4.8 3.8 11.7 0 10.3-7.6 18-14.5 24.8q-.9-6-1-12 0-5.6 1-10.2m22.9 83.7c0 7-3 14.2-10 17.1l-5.4-32c9 0 15.4 6 15.4 14.9m-43.7 48.8c0 6.5 5 15.2 18.5 15.2a23 23 0 0 0 12.3-3.4c5.3-3.8 6.7-10.3 6.7-16.6q0-5.7-1.6-14l-1.5-8.8c9.8-3.2 17-13.3 17-23.5a24 24 0 0 0-25.1-25.1l-2.9-17.4a56 56 0 0 0 17.8-39.2c0-9-2.8-16.3-4.4-20-2.4-5-5.2-8.4-7-8.4-.7 0-3.8 1.2-7 5-6.4 7.6-8.2 20.3-8.2 28.6 0 5.3.5 10.2 2.2 21.3-.1.1-5.3 5.4-7.4 7-9 8.5-21.5 20.5-21.5 40.4a34 34 0 0 0 34.6 33q4.4 0 7.9-.6 3 14 3 21.7-.1 15.6-15.3 15.8c-2.4 0-4.5-.5-4.7-.5l-.3-.3q0-.3.5-.4a11 11 0 0 0 9.3-11c0-5.4-4-11-11.5-11-7 0-11.4 5.6-11.4 12.2M431.2 481q-3 .6-5.8.6c-14.2 0-26.3-9.9-26.3-24.9 0-12 8.6-22.9 17.3-30.4l4.8-4.4 2.2 14.1c-9 2.7-15.1 12.2-15.1 21.5 0 7 5.4 16.5 13.4 16.5.7 0 1.6-.4 1.6-1.3s-1-1.4-2.1-2.2c-4-2.4-6.1-5-6.1-9.8 0-6 4.5-11 10.3-12.3zm-8.8-102c1-4 5.5-14.3 10.7-14.3 1.4 0 3.8 4.8 3.8 11.7 0 10.3-7.6 18-14.5 24.8q-.9-6-1-12 0-5.5 1-10.1m22.9 83.6c0 7-3 14.3-10 17.2l-5.4-32.1c9 0 15.4 6 15.4 14.9m-43.7 48.8c0 6.5 5 15.2 18.5 15.2a23 23 0 0 0 12.3-3.4c5.3-3.8 6.7-10.3 6.7-16.6q0-5.6-1.6-14L436 484c9.8-3.2 17-13.3 17-23.5a24 24 0 0 0-25.1-25.1l-2.9-17.4a56 56 0 0 0 17.8-39.1c0-9-2.8-16.4-4.4-20-2.4-5-5.2-8.5-7-8.5-.7 0-3.8 1.2-7 5-6.4 7.6-8.2 20.3-8.2 28.6 0 5.4.5 10.2 2.2 21.3-.1.1-5.3 5.4-7.4 7-9 8.5-21.5 20.5-21.5 40.4a34 34 0 0 0 34.6 33q4.4 0 7.9-.6 3 14 3 21.7-.1 15.7-15.3 15.8c-2.4 0-4.5-.5-4.7-.5l-.3-.3q0-.3.5-.4a11 11 0 0 0 9.3-11c0-5.4-4-11-11.5-11-7 0-11.4 5.6-11.4 12.2M431.2 1341.8q-3 .6-5.8.6c-14.2 0-26.3-10-26.3-25 0-12 8.6-22.8 17.3-30.4q2.5-2.2 4.8-4.3l2.2 14c-9 2.7-15.1 12.3-15.1 21.6 0 7 5.4 16.5 13.4 16.5.7 0 1.6-.5 1.6-1.3 0-1-1-1.4-2.1-2.2-4-2.4-6.1-5-6.1-9.8 0-6 4.5-11 10.3-12.3zm-8.8-102c1-4 5.5-14.4 10.7-14.4 1.4 0 3.8 4.9 3.8 11.7 0 10.4-7.6 18-14.5 24.8q-.9-5.9-1-12 0-5.4 1-10m22.9 83.5c0 7-3 14.3-10 17.2l-5.4-32c9 0 15.4 6 15.4 14.8m-43.7 48.8c0 6.6 5 15.2 18.5 15.2a23 23 0 0 0 12.3-3.3c5.3-3.8 6.7-10.4 6.7-16.6 0-3.9-.6-8.3-1.6-14l-1.5-8.8c9.8-3.2 17-13.3 17-23.5a24 24 0 0 0-25.1-25.1l-2.9-17.4a56 56 0 0 0 17.8-39.2c0-9-2.8-16.3-4.4-20-2.4-5-5.2-8.5-7-8.5-.7 0-3.8 1.2-7 5.1-6.4 7.5-8.2 20.2-8.2 28.6 0 5.3.5 10.2 2.2 21.3-.1.1-5.3 5.4-7.4 7-9 8.5-21.5 20.5-21.5 40.3a34 34 0 0 0 34.6 33.2q4.4 0 7.9-.7c1.9 9.5 3 16.4 3 21.7q-.1 15.6-15.3 15.8c-2.4 0-4.5-.5-4.7-.5l-.3-.3q0-.3.5-.4a11 11 0 0 0 9.3-11c0-5.4-4-11-11.5-11-7 0-11.4 5.6-11.4 12.1M431.2 3092q-3 .7-5.8.7c-14.2 0-26.3-10-26.3-25 0-12 8.6-22.8 17.3-30.4l4.8-4.3 2.2 14c-9 2.7-15.1 12.2-15.1 21.6 0 7 5.4 16.4 13.4 16.4.7 0 1.6-.4 1.6-1.3s-1-1.3-2.1-2.1c-4-2.4-6.1-5-6.1-9.9 0-6 4.5-10.9 10.3-12.3zm-8.8-102c1-4 5.5-14.4 10.7-14.4 1.4 0 3.8 4.9 3.8 11.7 0 10.3-7.6 18-14.5 24.8q-.9-5.8-1-12 0-5.5 1-10.1m22.9 83.6c0 7-3 14.3-10 17.2l-5.4-32c9 0 15.4 6 15.4 14.8m-43.7 48.8c0 6.6 5 15.2 18.5 15.2a23 23 0 0 0 12.3-3.4c5.3-3.7 6.7-10.3 6.7-16.5q0-5.7-1.6-14l-1.5-8.8c9.8-3.2 17-13.3 17-23.6a24 24 0 0 0-25.1-25L425 3029a56 56 0 0 0 17.8-39.2c0-9-2.8-16.4-4.4-20-2.4-5-5.2-8.5-7-8.5-.7 0-3.8 1.2-7 5-6.4 7.6-8.2 20.3-8.2 28.6 0 5.4.5 10.3 2.2 21.4-.1 0-5.3 5.3-7.4 7-9 8.5-21.5 20.5-21.5 40.3a34 34 0 0 0 34.6 33.1q4.4 0 7.9-.7c1.9 9.6 3 16.5 3 21.8q-.1 15.6-15.3 15.7c-2.4 0-4.5-.4-4.7-.4q-.1-.3-.3-.3 0-.3.5-.4a11 11 0 0 0 9.3-11c0-5.4-4-11-11.5-11-7 0-11.4 5.6-11.4 12.1M431.2 1640q-3 .6-5.8.6c-14.2 0-26.3-10-26.3-25 0-12 8.6-22.8 17.3-30.4q2.5-2.2 4.8-4.3l2.2 14c-9 2.8-15.1 12.3-15.1 21.6 0 7 5.4 16.5 13.4 16.5.7 0 1.6-.4 1.6-1.3s-1-1.4-2.1-2.2c-4-2.4-6.1-5-6.1-9.8 0-6 4.5-11 10.3-12.3zm-8.8-102c1-4 5.5-14.4 10.7-14.4 1.4 0 3.8 4.9 3.8 11.7 0 10.4-7.6 18.1-14.5 24.8q-.9-5.9-1-12 0-5.4 1-10m22.9 83.5c0 7.1-3 14.3-10 17.2l-5.4-32c9 0 15.4 6 15.4 14.8m-43.7 48.9c0 6.5 5 15.1 18.5 15.1a23 23 0 0 0 12.3-3.3c5.3-3.8 6.7-10.4 6.7-16.6 0-3.9-.6-8.3-1.6-14l-1.5-8.8c9.8-3.2 17-13.3 17-23.5a24 24 0 0 0-25.1-25.1l-2.9-17.4a56 56 0 0 0 17.8-39.2c0-9-2.8-16.3-4.4-20-2.4-5-5.2-8.4-7-8.4-.7 0-3.8 1.1-7 5-6.4 7.6-8.2 20.3-8.2 28.6 0 5.3.5 10.2 2.2 21.3-.1.1-5.3 5.4-7.4 7-9 8.5-21.5 20.5-21.5 40.3a34 34 0 0 0 34.6 33.2q4.4 0 7.9-.7c1.9 9.5 3 16.4 3 21.7q-.1 15.6-15.3 15.8c-2.4 0-4.5-.5-4.7-.5l-.3-.3q0-.3.5-.4a11 11 0 0 0 9.3-11c0-5.4-4-11-11.5-11-7 0-11.4 5.6-11.4 12.2M431.2 2500.3q-3 .6-5.8.6c-14.2 0-26.3-10-26.3-25 0-12 8.6-22.9 17.3-30.4l4.8-4.4 2.2 14.1c-9 2.7-15.1 12.2-15.1 21.6 0 7 5.4 16.4 13.4 16.4.7 0 1.6-.4 1.6-1.3s-1-1.4-2.1-2.1c-4-2.4-6.1-5-6.1-9.9 0-6 4.5-10.9 10.3-12.3zm-8.8-102c1-4 5.5-14.4 10.7-14.4 1.4 0 3.8 4.9 3.8 11.7 0 10.3-7.6 18-14.5 24.8q-.9-5.9-1-12 0-5.5 1-10.1m22.9 83.6c0 7-3 14.3-10 17.2l-5.4-32c9 0 15.4 6 15.4 14.8m-43.7 48.8c0 6.6 5 15.2 18.5 15.2a23 23 0 0 0 12.3-3.4c5.3-3.7 6.7-10.3 6.7-16.5q0-5.7-1.6-14l-1.5-8.9c9.8-3.1 17-13.3 17-23.5a24 24 0 0 0-25.1-25l-2.9-17.4a56 56 0 0 0 17.8-39.2c0-9-2.8-16.4-4.4-20-2.4-5-5.2-8.5-7-8.5-.7 0-3.8 1.2-7 5-6.4 7.6-8.2 20.3-8.2 28.6 0 5.4.5 10.3 2.2 21.4-.1 0-5.3 5.3-7.4 7-9 8.4-21.5 20.4-21.5 40.3a34 34 0 0 0 34.6 33.1q4.4 0 7.9-.7c1.9 9.6 3 16.5 3 21.8q-.1 15.6-15.3 15.7c-2.4 0-4.5-.5-4.7-.5l-.3-.3q0-.3.5-.4a11 11 0 0 0 9.3-11c0-5.3-4-11-11.5-11-7 0-11.4 5.7-11.4 12.2M431.2 707.4q-3 .6-5.8.6c-14.2 0-26.3-10-26.3-25 0-12 8.6-22.8 17.3-30.4q2.5-2.1 4.8-4.3l2.2 14c-9 2.7-15.1 12.3-15.1 21.6 0 7 5.4 16.4 13.4 16.4.7 0 1.6-.4 1.6-1.2 0-1-1-1.4-2.1-2.2-4-2.4-6.1-5-6.1-9.9 0-6 4.5-10.9 10.3-12.2zm-8.8-102c1-4 5.5-14.4 10.7-14.4 1.4 0 3.8 4.9 3.8 11.7 0 10.4-7.6 18-14.5 24.8q-.9-5.8-1-12 0-5.5 1-10m22.9 83.5c0 7-3 14.3-10 17.2l-5.4-32c9 0 15.4 6 15.4 14.8m-43.7 48.8c0 6.6 5 15.2 18.5 15.2a23 23 0 0 0 12.3-3.3c5.3-3.8 6.7-10.4 6.7-16.6 0-3.9-.6-8.3-1.6-14l-1.5-8.8c9.8-3.2 17-13.3 17-23.5a24 24 0 0 0-25.1-25.1l-2.9-17.4a56 56 0 0 0 17.8-39.2c0-9-2.8-16.4-4.4-20-2.4-5-5.2-8.5-7-8.5-.7 0-3.8 1.2-7 5-6.4 7.6-8.2 20.3-8.2 28.7 0 5.3.5 10.2 2.2 21.3-.1.1-5.3 5.4-7.4 7-9 8.5-21.5 20.5-21.5 40.3a34 34 0 0 0 34.6 33.1q4.4 0 7.9-.6c1.9 9.5 3 16.4 3 21.7q-.1 15.6-15.3 15.8c-2.4 0-4.5-.5-4.7-.5l-.3-.3q0-.3.5-.4a11 11 0 0 0 9.3-11c0-5.4-4-11-11.5-11-7 0-11.4 5.6-11.4 12.1M431.2 3315.2q-3 .6-5.8.6c-14.2 0-26.3-9.9-26.3-24.9 0-12 8.6-22.9 17.3-30.4l4.8-4.4 2.2 14.1c-9 2.7-15.1 12.2-15.1 21.5 0 7 5.4 16.5 13.4 16.5.7 0 1.6-.4 1.6-1.3s-1-1.4-2.1-2.2c-4-2.4-6.1-5-6.1-9.8 0-6 4.5-11 10.3-12.3zm-8.8-102c1-4 5.5-14.3 10.7-14.3 1.4 0 3.8 4.8 3.8 11.7 0 10.3-7.6 18-14.5 24.8q-.9-6-1-12 0-5.5 1-10.1m22.9 83.6c0 7-3 14.3-10 17.2L430 3282c9 0 15.4 6 15.4 14.9m-43.7 48.8c0 6.5 5 15.2 18.5 15.2a23 23 0 0 0 12.3-3.4c5.3-3.8 6.7-10.3 6.7-16.6q0-5.6-1.6-14l-1.5-8.8c9.8-3.2 17-13.3 17-23.5a24 24 0 0 0-25.1-25.1l-2.9-17.4a56 56 0 0 0 17.8-39.1c0-9-2.8-16.4-4.4-20-2.4-5-5.2-8.5-7-8.5-.7 0-3.8 1.2-7 5-6.4 7.6-8.2 20.3-8.2 28.6 0 5.4.5 10.2 2.2 21.3-.1.1-5.3 5.4-7.4 7-9 8.5-21.5 20.5-21.5 40.4a34 34 0 0 0 34.6 33q4.4 0 7.9-.6 3 14 3 21.7-.1 15.7-15.3 15.8c-2.4 0-4.5-.5-4.7-.5l-.3-.3q0-.3.5-.4a11 11 0 0 0 9.3-11c0-5.4-4-11-11.5-11-7 0-11.4 5.6-11.4 12.2M445.8 2629.5c0 2.8 2.2 5 4.8 5s4.8-2.2 4.8-5-2.2-5-4.8-5-4.8 2.2-4.8 5m-31-12.6c-7.6 0-13.7 4.4-13.8 4.4a23 23 0 0 0-9.6 18c0 7.3 4.2 12.7 11.5 12.7 6.4 0 11.3-4.3 11.3-10.9a10.6 10.6 0 0 0-13.7-9.8c-1 .4-2.7 1.4-3.5 2.1.7-4.4 3.7-8.7 7.6-10.8a19 19 0 0 1 9.1-2q15.1-.1 15.1 24.8c0 12.9-8.2 31.4-18 40.2a85 85 0 0 1-20.1 13.9s-1.2.7-1.2 1.9l.1.4c.3 1 1.2 1.2 1.8 1.2h.5s11.4-4.7 20.4-11.8c14-10 29.6-27.6 29.6-45.9 0-17.3-9.3-28.4-27.2-28.4m31.1 37.1c0 2.8 2.2 5.1 4.8 5.1s4.8-2.3 4.8-5-2.2-5.1-4.8-5.1-4.8 2.3-4.8 5M445.8 1769.3c0 2.8 2.2 5 4.8 5s4.8-2.2 4.8-5-2.2-5-4.8-5-4.8 2.2-4.8 5m-31-12.6c-7.6 0-13.7 4.3-13.8 4.3a23 23 0 0 0-9.6 18.1c0 7.2 4.2 12.6 11.5 12.6 6.4 0 11.3-4.3 11.3-10.8a10.6 10.6 0 0 0-13.7-9.8c-1 .4-2.7 1.4-3.5 2 .7-4.3 3.7-8.7 7.6-10.8a19 19 0 0 1 9.1-2q15.1 0 15.1 24.8c0 13-8.2 31.5-18 40.2a85 85 0 0 1-20.1 14s-1.2.6-1.2 1.8l.1.5c.3 1 1.2 1.2 1.8 1.2l.5-.1s11.4-4.7 20.4-11.7c14-10 29.6-27.7 29.6-46 0-17.2-9.3-28.3-27.2-28.3m31.1 37c0 2.9 2.2 5.1 4.8 5.1s4.8-2.2 4.8-5-2.2-5-4.8-5-4.8 2.2-4.8 5M445.8 879.2c0 2.8 2.2 5 4.8 5s4.8-2.2 4.8-5-2.2-5-4.8-5-4.8 2.3-4.8 5m-31-12.5c-7.6 0-13.7 4.3-13.8 4.3a23 23 0 0 0-9.6 18c0 7.3 4.2 12.7 11.5 12.7 6.4 0 11.3-4.3 11.3-10.8a10.6 10.6 0 0 0-13.7-9.9c-1 .4-2.7 1.4-3.5 2.1.7-4.3 3.7-8.7 7.6-10.8a19 19 0 0 1 9.1-2q15.1 0 15.1 24.8c0 13-8.2 31.5-18 40.2a85 85 0 0 1-20.1 13.9s-1.2.7-1.2 1.9l.1.5c.3 1 1.2 1.2 1.8 1.2l.5-.1s11.4-4.7 20.4-11.7c14-10 29.6-27.7 29.6-46 0-17.2-9.3-28.3-27.2-28.3m31.1 37c0 2.8 2.2 5.1 4.8 5.1s4.8-2.3 4.8-5-2.2-5.1-4.8-5.1-4.8 2.3-4.8 5M445.8 3487c0 2.9 2.2 5 4.8 5s4.8-2.1 4.8-5c0-2.7-2.2-5-4.8-5s-4.8 2.3-4.8 5m-31-12.5c-7.6 0-13.7 4.4-13.8 4.4a23 23 0 0 0-9.6 18c0 7.3 4.2 12.6 11.5 12.6 6.4 0 11.3-4.2 11.3-10.8a10.6 10.6 0 0 0-13.7-9.8c-1 .4-2.7 1.4-3.5 2 .7-4.3 3.7-8.7 7.6-10.8a19 19 0 0 1 9.1-2q15.1 0 15.1 24.9c0 12.9-8.2 31.4-18 40.2a85 85 0 0 1-20.1 13.8s-1.2.7-1.2 2l.1.4c.3 1 1.2 1.2 1.8 1.2h.5s11.4-4.7 20.4-11.8c14-10 29.6-27.7 29.6-46 0-17.2-9.3-28.3-27.2-28.3m31.1 37.1c0 2.8 2.2 5 4.8 5s4.8-2.2 4.8-5-2.2-5-4.8-5-4.8 2.2-4.8 5" class="Clef"/><path d="m481.7 378.9 8.8-1.8v16.3l-8.8 2zm15.4-3.1q1-.3 1-1.4v-5.9q0-1.2-1.3-1.4h-.2l-3.3.7v-14.7h-2.8v15.3l-8.8 1.8v-14h-2.8v14.6l-3.8.8q-1 .3-1.1 1.4v5.8q.1 1.2 1.4 1.4h.3l3.2-.7v16.3l-3.8.8q-1 .3-1.1 1.4v5.8q.1 1.2 1.4 1.3h.3l3.2-.6v14.7h2.8V404l8.8-1.8v14h2.8v-14.6l3.8-.7q1-.3 1-1.4v-5.9q0-1.3-1.3-1.3h-.2l-3.3.6v-16.3zM481.7 2129.6l8.8-1.7v16.3l-8.8 2zm15.4-3q1-.3 1-1.4v-5.9q0-1.3-1.3-1.4h-.2l-3.3.7v-14.8h-2.8v15.4l-8.8 1.8v-14h-2.8v14.6l-3.8.8q-1 .3-1.1 1.4v5.7q.1 1.3 1.4 1.4h.3l3.2-.7v16.4l-3.8.8c-.6 0-1.1.8-1.1 1.4v5.7q.1 1.3 1.4 1.4h.3l3.2-.7v14.8h2.8v-15.4l8.8-1.7v14h2.8v-14.6l3.8-.7q1-.3 1-1.4v-5.9q0-1.3-1.3-1.4h-.2l-3.3.7v-16.3zM481.7 2989.9l8.8-1.8v16.4l-8.8 1.9zm15.4-3q1-.4 1-1.5v-5.8q0-1.3-1.3-1.4h-.2l-3.3.7V2964h-2.8v15.4l-8.8 1.8v-14h-2.8v14.6l-3.8.8c-.6 0-1.1.7-1.1 1.3v5.8q.1 1.3 1.4 1.4h.3l3.2-.7v16.4l-3.8.8q-1 .2-1.1 1.4v5.7q.1 1.3 1.4 1.4h.3l3.2-.7v14.8h2.8v-15.4l8.8-1.8v14h2.8v-14.6l3.8-.7c.6 0 1-.8 1-1.4v-5.8q0-1.3-1.3-1.4h-.2l-3.3.7v-16.4zM481.7 1239.6l8.8-1.8v16.4l-8.8 1.9zm15.4-3q1-.3 1-1.5v-5.8q0-1.3-1.3-1.4h-.2l-3.3.7v-14.8h-2.8v15.4l-8.8 1.8v-14h-2.8v14.6l-3.8.8c-.6 0-1.1.8-1.1 1.4v5.7q.1 1.3 1.4 1.4h.3l3.2-.7v16.4l-3.8.8c-.6 0-1.1.8-1.1 1.4v5.7q.1 1.3 1.4 1.4h.3l3.2-.7v14.8h2.8v-15.4l8.8-1.8v14h2.8v-14.6l3.8-.7c.6 0 1-.7 1-1.3v-5.9q0-1.3-1.3-1.4h-.2l-3.3.7v-16.4zM481.7 1537.8l8.8-1.8v16.4l-8.8 1.9zm15.4-3q1-.3 1-1.4v-5.9q0-1.3-1.3-1.4h-.2l-3.3.7V1512h-2.8v15.4l-8.8 1.8v-14h-2.8v14.6l-3.8.8c-.6 0-1.1.8-1.1 1.4v5.7q.1 1.3 1.4 1.4h.3l3.2-.7v16.4l-3.8.8c-.6 0-1.1.8-1.1 1.4v5.7q.1 1.3 1.4 1.4h.3l3.2-.7v14.8h2.8v-15.4l8.8-1.8v14h2.8v-14.5l3.8-.7q1-.4 1-1.4v-5.9q0-1.3-1.3-1.4h-.2l-3.3.7v-16.3zM481.7 2398l8.8-1.7v16.4l-8.8 1.9zm15.4-3q1-.4 1-1.5v-5.8q0-1.3-1.3-1.4h-.2l-3.3.7v-14.8h-2.8v15.4l-8.8 1.8v-14h-2.8v14.6l-3.8.7q-1 .4-1.1 1.4v5.8q.1 1.3 1.4 1.4h.3l3.2-.7v16.4l-3.8.7q-1 .3-1.1 1.4v5.8q.1 1.3 1.4 1.4h.3l3.2-.7v14.8h2.8V2423l8.8-1.8v14h2.8v-14.6l3.8-.7c.6 0 1-.8 1-1.4v-5.8q0-1.3-1.3-1.4h-.2l-3.3.7v-16.4zM481.7 3213l8.8-1.7v16.3l-8.8 2zm15.4-3.1q1-.3 1-1.4v-5.9q0-1.2-1.3-1.3h-.2l-3.3.6v-14.7h-2.8v15.3l-8.8 1.8v-14h-2.8v14.6l-3.8.8q-1 .3-1.1 1.4v5.8q.1 1.3 1.4 1.4h.3l3.2-.7v16.3l-3.8.8q-1 .3-1.1 1.4v5.8q.1 1.3 1.4 1.3h.3l3.2-.6v14.7h2.8v-15.3l8.8-1.8v14h2.8v-14.6l3.8-.7q1-.3 1-1.4v-5.9q0-1.2-1.3-1.3h-.2l-3.3.6v-16.3zM481.7 605.2l8.8-1.8v16.4l-8.8 1.9zm15.4-3q1-.5 1-1.5V595q0-1.3-1.3-1.4h-.2l-3.3.7v-14.8h-2.8v15.4l-8.8 1.8v-14h-2.8v14.6l-3.8.8c-.6 0-1.1.8-1.1 1.4v5.7q.1 1.3 1.4 1.4h.3l3.2-.7v16.4l-3.8.8c-.6 0-1.1.8-1.1 1.4v5.7q.1 1.3 1.4 1.4h.3l3.2-.7v14.8h2.8v-15.4l8.8-1.8v14h2.8v-14.6l3.8-.7q1-.2 1-1.4V620q0-1.3-1.3-1.4h-.2l-3.3.7v-16.4zM481.7 2634.5l8.8-1.8v16.4l-8.8 1.9zm15.4-3q1-.4 1-1.5v-5.8q0-1.3-1.3-1.4h-.2l-3.3.7v-14.8h-2.8v15.4l-8.8 1.8v-14h-2.8v14.6l-3.8.7q-1 .4-1.1 1.4v5.8q.1 1.3 1.4 1.4h.3l3.2-.7v16.4l-3.8.7q-1 .3-1.1 1.4v5.8q.1 1.3 1.4 1.4h.3l3.2-.7v14.8h2.8v-15.4l8.8-1.8v14h2.8v-14.6l3.8-.7c.6 0 1-.8 1-1.4v-5.8q0-1.3-1.3-1.4h-.2l-3.3.7V2632zM481.7 1774.2l8.8-1.7v16.3l-8.8 2zm15.4-3q1-.3 1-1.4v-5.9q0-1.3-1.3-1.4h-.2l-3.3.7v-14.8h-2.8v15.4l-8.8 1.8v-14h-2.8v14.6l-3.8.8q-1 .3-1.1 1.4v5.7q.1 1.3 1.4 1.4h.3l3.2-.7v16.4l-3.8.8c-.6 0-1.1.8-1.1 1.4v5.7q.1 1.3 1.4 1.4h.3l3.2-.7v14.8h2.8v-15.4l8.8-1.7v14h2.8v-14.6l3.8-.7q1-.3 1-1.4v-5.9q0-1.3-1.3-1.4h-.2l-3.3.7V1772zM481.7 3492l8.8-1.7v16.3l-8.8 2zm15.4-3.1q1-.3 1-1.4v-5.9q0-1.2-1.3-1.3h-.2l-3.3.6v-14.7h-2.8v15.3l-8.8 1.8v-14h-2.8v14.6l-3.8.8q-1 .3-1.1 1.4v5.8q.1 1.3 1.4 1.4h.3l3.2-.7v16.3l-3.8.8q-1 .3-1.1 1.4v5.8q.1 1.3 1.4 1.3h.3l3.2-.6v14.7h2.8v-15.3l8.8-1.8v14h2.8v-14.6l3.8-.7q1-.3 1-1.4v-5.9q0-1.2-1.3-1.3h-.2l-3.3.6v-16.3zM481.7 884.2l8.8-1.8v16.4l-8.8 1.9zm15.4-3q1-.5 1-1.5V874q0-1.3-1.3-1.4h-.2l-3.3.7v-14.8h-2.8v15.4l-8.8 1.8v-14h-2.8v14.6l-3.8.8c-.6 0-1.1.8-1.1 1.4v5.7q.1 1.3 1.4 1.4h.3l3.2-.7v16.4l-3.8.8c-.6 0-1.1.8-1.1 1.4v5.7q.1 1.3 1.4 1.4h.3l3.2-.7v14.8h2.8v-15.4l8.8-1.8v14h2.8v-14.6l3.8-.7q1-.2 1-1.4V899q0-1.3-1.3-1.4h-.2l-3.3.7v-16.4z" class="KeySig"/><path d="m2599.1 1313-.6-.7-11.4-14-.2-.7.2-.8 10.1-15.3.2-.7v-.9q0-.5-.3-.8l-16-21.7s-.4-.6-1-.6q-.4 0-.8.3-.6.5-.5 1 .2 1 .3 1l7.5 10.4q.3.5.3 1.2t-.3 1.2l-10 15.2-.2.8v1q0 .4.3.7l11.1 13.8q-.7-.2-2.5-.3c-5 0-9 4.2-9 9.2q0 2.2 1.1 3.9c2 3.2 9.5 12.6 9.5 12.6s.5.6 1.2.6q.3 0 .6-.2.7-.6.7-1.2t-.3-.9l-3.5-6.2s-.7-1.4-.7-3.2c0-3.2 2.4-5.8 5.6-5.8a6 6 0 0 1 3.2 1l3.8 2.4.8.2q.6.1 1-.5l.3-.9q0-.4-.3-.8zM1062.9 410.5q-1.4.1-1.4 1.4v10.7q0 1.3 1.4 1.4h29.4q1.3-.1 1.4-1.4V412q-.1-1.3-1.4-1.4zM1692.4 434.8c0 1.4 0 1.4 1.4 1.4h29.5c1.4 0 1.4 0 1.4-1.4v-10.7c0-1.4 0-1.4-1.4-1.4h-29.5c-1.4 0-1.4 0-1.4 1.4zM1440 1313l-.6-.7-11.4-14-.2-.7.2-.8 10.1-15.3.2-.7v-.9q0-.5-.3-.8l-16-21.7s-.4-.6-1-.6q-.4 0-.8.3-.6.5-.5 1 .1 1 .3 1l7.5 10.4q.3.5.3 1.2t-.3 1.2l-10 15.2-.2.8v1q0 .4.3.7l11 13.8q-.5-.2-2.4-.3c-5 0-9 4.2-9 9.2q0 2.2 1 3.9c2.2 3.2 9.6 12.6 9.6 12.6s.5.6 1.2.6q.3 0 .6-.2.7-.6.7-1.2t-.3-.9l-3.5-6.2s-.7-1.4-.7-3.2c0-3.2 2.4-5.8 5.6-5.8a6 6 0 0 1 3.2 1l3.8 2.4.8.2q.6.1 1-.5l.3-.9q0-.4-.3-.8zM868.7 1611.2l-.6-.7-11.4-14-.2-.6q0-.5.2-1l10-15.2q.3-.4.3-.7v-.9q0-.5-.3-.8l-16.1-21.7s-.4-.6-1-.6q-.4 0-.8.3-.5.5-.5 1 .2 1 .3 1l7.6 10.4q.2.5.3 1.2l-.3 1.2-10 15.2q-.3.4-.3.8v1q0 .4.3.7l11.1 13.8q-.6-.1-2.4-.3c-5.1 0-9 4.2-9 9.2q-.1 2.2 1 4c2.1 3 9.6 12.5 9.6 12.5s.4.6 1.1.6q.3 0 .6-.2.7-.6.7-1.2t-.3-.9l-3.4-6.2s-.7-1.4-.7-3.2c0-3.2 2.3-5.8 5.5-5.8a6 6 0 0 1 3.2 1l3.9 2.4.8.2q.5.1 1-.5.3-.5.2-.9t-.2-.8zM1451.2 1576.3l.1-.5q0-.8-.9-1.2h-.5q-.9 0-1.3.7c-2.3 4.8-6.3 10.1-11.8 11.5a7 7 0 0 0 1.7-4.7c0-3.9-3.5-6.9-7.3-6.9-4 .2-6.9 3.5-6.9 7.4.2 5.5 5.6 7.4 10.3 7.4 5-.2 8.8-2.7 11.8-6.5l-4.5 15.7c-1.4 4.7-7 11.1-12.1 12.4q1.6-2.1 1.7-4.7c0-4-3.4-6.9-7.3-6.9-4 0-7 3.4-7 7.4 0 3 2.2 5.4 4.7 6.3 2 .8 3.6 1 5.6 1 5-.2 8.8-2.7 11.8-6.5l-10.1 36.2 2.7.7zM1173.4 1611.2l-.6-.7-11.4-14-.2-.6q0-.5.2-1l10-15.2q.3-.4.3-.7v-.9q0-.5-.3-.8l-16-21.7s-.5-.6-1-.6q-.5 0-.9.3-.6.5-.5 1 .1 1 .3 1l7.6 10.4q.3.5.3 1.2t-.3 1.2l-10 15.2-.2.8v1q0 .4.3.7l11 13.8q-.5-.1-2.4-.3c-5 0-9 4.2-9 9.2q0 2.2 1 4c2.1 3 9.6 12.5 9.6 12.5s.5.6 1.2.6q.3 0 .6-.2.7-.6.7-1.2t-.3-.9l-3.5-6.2s-.7-1.4-.7-3.2c0-3.2 2.4-5.8 5.5-5.8a6 6 0 0 1 3.2 1l3.9 2.4.8.2q.6.1 1-.5l.3-.9q0-.4-.3-.8zM2027.8 1611.2l-.6-.7-11.4-14-.2-.6q0-.5.2-1l10-15.2q.3-.4.3-.7v-.9q0-.5-.3-.8l-16-21.7s-.5-.6-1-.6q-.5 0-.9.3-.5.5-.5 1 .2 1 .3 1l7.6 10.4q.3.5.3 1.2t-.3 1.2l-10 15.2-.2.8v1q0 .4.3.7l11 13.8q-.5-.1-2.4-.3c-5 0-9 4.2-9 9.2q0 2.2 1 4c2.1 3 9.6 12.5 9.6 12.5s.5.6 1.2.6q.3 0 .6-.2.7-.6.7-1.2t-.3-.9l-3.5-6.2s-.7-1.4-.7-3.2c0-3.2 2.4-5.8 5.5-5.8a6 6 0 0 1 3.2 1l3.9 2.4.8.2q.6.1 1-.5l.3-.9q0-.4-.3-.8zM2610.3 2436.6l.1-.5q0-.8-.9-1.2l-.5-.1q-.8 0-1.2.8c-2.4 4.8-6.4 10.1-11.9 11.5a7 7 0 0 0 1.7-4.8c0-3.8-3.4-6.8-7.3-6.8-4 .2-6.8 3.5-6.8 7.3.2 5.6 5.5 7.5 10.2 7.5 5-.2 8.8-2.7 11.8-6.6l-4.5 15.8c-1.4 4.7-7 11.1-12 12.4q1.5-2.1 1.6-4.8c0-4-3.4-6.8-7.3-6.8-4 0-6.9 3.4-6.9 7.3 0 3 2.1 5.5 4.7 6.4q2.7 1.1 5.5 1c5-.2 8.9-2.7 11.8-6.6l-10 36.2 2.6.7zM2332.5 1611.2l-.6-.7-11.4-14-.2-.6q0-.5.2-1l10.1-15.2.2-.7v-.9q0-.5-.3-.8l-16-21.7s-.4-.6-1-.6q-.4 0-.8.3-.6.5-.5 1 .2 1 .3 1l7.5 10.4q.3.5.3 1.2t-.3 1.2l-10 15.2-.2.8v1q0 .4.3.7l11 13.8q-.5-.1-2.4-.3c-5 0-9 4.2-9 9.2q0 2.2 1 4l9.6 12.5s.5.6 1.2.6q.3 0 .6-.2.7-.6.7-1.2t-.3-.9l-3.5-6.2s-.7-1.4-.7-3.2c0-3.2 2.4-5.8 5.6-5.8a6 6 0 0 1 3.1 1l4 2.4q0 .1.7.2t1-.5l.3-.9q0-.4-.3-.8zM2332.5 2471.5l-.6-.7-11.4-14-.2-.7q0-.5.2-.9l10.1-15.3.2-.6v-1q0-.3-.3-.7l-16-21.8s-.4-.6-1-.6q-.4 0-.8.4-.6.3-.5 1 .2.9.3 1l7.5 10.4q.3.3.3 1.1t-.3 1.2l-10 15.3-.2.8v.9q0 .5.3.8l11 13.8q-.5-.2-2.4-.3c-5 0-9 4.1-9 9.2q0 2.2 1 3.9c2.2 3.1 9.6 12.6 9.6 12.6s.5.6 1.2.6q.3 0 .6-.2.7-.6.7-1.2t-.3-1l-3.5-6.2s-.7-1.4-.7-3.1c0-3.2 2.4-5.8 5.6-5.8a6 6 0 0 1 3.1 1l4 2.4q0 .1.7.2.6 0 1-.5.3-.5.3-1l-.3-.7zM2027.8 2471.5l-.6-.7-11.4-14-.2-.7q0-.5.2-.9l10-15.3.3-.6v-1q0-.3-.3-.7l-16-21.8s-.5-.6-1-.6q-.5 0-.9.4-.5.3-.5 1 .2.9.3 1l7.6 10.4q.3.3.3 1.1t-.3 1.2l-10 15.3-.2.8v.9q0 .5.3.8l11 13.8q-.5-.2-2.4-.3c-5 0-9 4.1-9 9.2q0 2.2 1 3.9c2.1 3.1 9.6 12.6 9.6 12.6s.5.6 1.2.6q.3 0 .6-.2.7-.6.7-1.2t-.3-1l-3.5-6.2s-.7-1.4-.7-3.1c0-3.2 2.4-5.8 5.5-5.8a6 6 0 0 1 3.2 1l3.9 2.4.8.2q.6 0 1-.5.3-.5.3-1l-.3-.7zM1173.4 2471.5l-.6-.7-11.4-14-.2-.7q0-.5.2-.9l10-15.3.3-.6v-1q0-.3-.3-.7l-16-21.8s-.5-.6-1-.6q-.5 0-.9.4-.6.3-.5 1 .1.9.3 1l7.6 10.4q.3.3.3 1.1t-.3 1.2l-10 15.3-.2.8v.9q0 .5.3.8l11 13.8q-.5-.2-2.4-.3c-5 0-9 4.1-9 9.2q0 2.2 1 3.9c2.1 3.1 9.6 12.6 9.6 12.6s.5.6 1.2.6q.3 0 .6-.2.7-.6.7-1.2t-.3-1l-3.5-6.2s-.7-1.4-.7-3.1c0-3.2 2.4-5.8 5.5-5.8a6 6 0 0 1 3.2 1l3.9 2.4.8.2q.6 0 1-.5.3-.5.3-1l-.3-.7zM2610.3 1576.3l.1-.5q0-.8-.9-1.2h-.5q-.8 0-1.2.7c-2.4 4.8-6.4 10.1-11.9 11.5a7 7 0 0 0 1.7-4.7c0-3.9-3.4-6.9-7.3-6.9-4 .2-6.8 3.5-6.8 7.4.2 5.5 5.5 7.4 10.2 7.4 5-.2 8.8-2.7 11.8-6.5l-4.5 15.7c-1.4 4.7-7 11.1-12 12.4q1.5-2.1 1.6-4.7c0-4-3.4-6.9-7.3-6.9-4 0-6.9 3.4-6.9 7.4 0 3 2.1 5.4 4.7 6.3q2.7 1.1 5.5 1c5-.2 8.9-2.7 11.8-6.5l-10 36.2 2.6.7zM868.7 2471.5l-.6-.7-11.4-14-.2-.7q0-.5.2-.9l10-15.3.3-.6v-1q0-.3-.3-.7l-16.1-21.8s-.4-.6-1-.6q-.4 0-.8.4-.5.3-.5 1 .2.9.3 1l7.6 10.4q.2.3.3 1.1l-.3 1.2-10 15.3q-.3.4-.3.8v.9q0 .5.3.8l11.1 13.8q-.6-.2-2.4-.3c-5.1 0-9 4.1-9 9.2q-.1 2.2 1 3.9c2.1 3.1 9.6 12.6 9.6 12.6s.4.6 1.1.6q.3 0 .6-.2.7-.6.7-1.2t-.3-1l-3.4-6.2s-.7-1.4-.7-3.1c0-3.2 2.3-5.8 5.5-5.8a6 6 0 0 1 3.2 1l3.9 2.4.8.2q.5 0 1-.5.3-.5.2-1 0-.3-.2-.7zM1451.2 2436.6l.1-.5q0-.8-.9-1.2l-.5-.1q-.9 0-1.3.8c-2.3 4.8-6.3 10.1-11.8 11.5a7 7 0 0 0 1.7-4.8c0-3.8-3.5-6.8-7.3-6.8-4 .2-6.9 3.5-6.9 7.3.2 5.6 5.6 7.5 10.3 7.5 5-.2 8.8-2.7 11.8-6.6l-4.5 15.8c-1.4 4.7-7 11.1-12.1 12.4q1.6-2.1 1.7-4.8c0-4-3.4-6.8-7.3-6.8-4 0-7 3.4-7 7.3 0 3 2.2 5.5 4.7 6.4 2 .8 3.6 1 5.6 1 5-.2 8.8-2.7 11.8-6.6l-10.1 36.2 2.7.7z" class="Rest"/><path fill-rule="evenodd" d="m590 2972.4 248.4 6.2v12.4l-248.5-6.2zM838.4 2997.2l-27.3-.6v12.4l27.3.6zM2061 2991l116.8 6.2v12.5l-116.9-6.2zM1180.3 1240.8l193 6.2v12.4l-193-6.2zM1373.3 1265.6l-27.3-1v12.5l27.3.9zM590 1240.7l211.9-18.6v12.5l-212 18.6zM801.9 1240.7l-27.3 2.4v12.5l27.3-2.4zM1447 2130.8l154.8-6.2v12.4l-154.8 6.2zM1742.8 2972.4l248.5 6.2v12.4l-248.5-6.2zM1991.3 2997.2l-27.3-.6v12.4l27.3.6zM1749 2112.2l212 6.2v12.4l-212-6.2zM1961 2137l-27.3-.8v12.4l27.3.8zM2034.7 2130.8l154.9 6.2v12.4l-154.9-6.2zM875.6 1234.6l154.8 6.2v12.4l-154.8-6.2zM1180.3 2112.2l193 6.2v12.4l-193-6.2zM1373.3 2137l-27.3-.9v12.4l27.3.9zM1484.8 2991l116.9-6.2v12.4l-117 6.3zM2339.4 1222.2l193 6.2v12.4l-193-6.2zM2532.4 1247l-27.3-1v12.5l27.3.9zM2349.3 2972.4l218.8 6.2v12.4l-218.8-6.2zM2568 2997.2l-27.2-.7v12.4l27.3.7zM1749 1228.3l212-24.8v12.5l-212 24.8zM1961 1222.1l-27.3 3.2v12.5l27.3-3.2zM2601 404.8l97.3 6.2v12.4l-97.2-6.2zM2601 423.4l27.4 1.7v12.5l-27.3-1.8zM1196.4 2972.4l218.8 6.2v12.4l-218.8-6.2zM1415.2 2997.2l-27.3-.7v12.4l27.3.7zM2637.7 2991l129.3-6.2v12.4l-129.3 6.2zM590 2112.2l211.9 6.2v12.4l-212-6.2zM801.9 2137l-27.3-.8v12.4l27.3.8zM908 2991l117 6.2v12.5l-117-6.2zM875.6 2130.8l154.8 6.2v12.4l-154.8-6.2zM2005 1352.4l154.8 6.2v12.4l-154.8-6.2zM590 1489.4l154.8-6.2v12.4l-154.9 6.2zM590 1508l78.6-3.2v12.4l-78.7 3.2zM1509.8 662.2h73.3v12.4h-73.3zM1509.8 680.8h27.3v12.4h-27.3zM2695.8 662.2h73.2v12.4h-73.2zM2695.8 680.8h27.3v12.4h-27.3zM2692.5 3270h74.5v12.4h-74.5zM2692.5 3288.6h27.3v12.4h-27.3zM1523.1 1489.4h78.7v12.4H1523zM1523.1 1508h27.3v12.4h-27.3zM590 2349.6l154.8-6.2v12.4l-154.9 6.2zM590 2368.2l78.6-3.1v12.4l-78.7 3.1zM1527.1 3270h74.6v12.4h-74.6zM1527.1 3288.6h27.3v12.4h-27.3zM1523.1 2349.6h78.7v12.4H1523zM1523.1 2368.2h27.3v12.4h-27.3zM2682.3 2349.6h78.6v12.4h-78.7zM2682.3 2368.2h27.2v12.4h-27.2zM1749 1489.4l154.9-6.2v12.4l-154.9 6.2zM1749 1508l78.7-3.2v12.4l-78.7 3.2zM2682.3 1489.4h78.6v12.4h-78.7zM2682.3 1508h27.2v12.4h-27.2zM1749 2349.6l154.9-6.2v12.4L1749 2362zM1749 2368.2l78.7-3.1v12.4l-78.7 3.1zM1166.7 3449.8h218.7v12.4h-218.7zM1166.7 3431.2h218.7v12.4h-218.7zM1417.2 2728.6l154.8 6.2v12.4l-154.8-6.2zM1417.2 2710l78.6 3.2v12.4l-78.6-3.2zM1156 842h214.8v12.4H1156zM1156 823.4h214.8v12.4H1156zM1439 798.6h144V811h-144zM1439 817.2h73.3v12.4h-73.2zM1150.6 2728.6h192.9v12.4h-193zM1150.6 2710h27.2v12.4h-27.2zM1343.5 2710h-27.3v12.4h27.3zM2309.7 1868.4h193v12.4h-193zM2309.7 1849.8h27.3v12.4h-27.3zM2502.6 1849.8h-27.3v12.4h27.3zM2571.3 804.8H2769v12.4h-197.7zM2571.3 823.4h127v12.4h-127zM2319.5 3449.8h218.8v12.4h-218.8zM2319.5 3431.2h218.8v12.4h-218.8zM2576.3 1868.4l154.8 6.2v12.4l-154.8-6.2zM2576.3 1849.8l78.7 3.1v12.4l-78.7-3.1zM1742.8 3443.6l218.8-24.8v12.4l-218.8 24.8zM1742.8 3462.2l218.8-24.8v12.4l-218.8 24.8zM590 3443.6l218.7-24.8v12.4L589.9 3456zM590 3462.2l218.7-24.8v12.4l-218.8 24.8zM845.8 2728.6h231v12.4h-231zM845.8 2710h231v12.4h-231zM2288.3 842H2503v12.4h-214.8zM2288.3 823.4H2503v12.4h-214.8zM1722.2 835.7 1937 811v12.5l-214.8 24.8zM1722.2 854.3l214.8-24.8V842l-214.8 24.8zM560.2 2734.8l154.8-6.2v12.4l-154.8 6.2zM560.2 2716.2l78.6-3.1v12.4l-78.6 3.1zM2608 3418.8h159v12.4h-159zM2608 3437.4h87v12.4h-87zM2005.2 835.7l214.8 12.4v12.5l-214.8-12.4zM2005.2 817.1l214.8 12.4V842l-214.8-12.4zM878.3 3443.6 1097 3456v12.4L878.3 3456zM878.3 3425l218.7 12.4v12.4l-218.7-12.4zM2005 1868.4h231v12.4h-231zM2005 1849.8h231v12.4h-231zM845.8 1868.4h231v12.4h-231zM845.8 1849.8h231v12.4h-231zM2309.7 2728.6h193v12.4h-193zM2309.7 2710h27.3v12.4h-27.3zM2502.6 2710h-27.3v12.4h27.3zM2576.3 2728.6l154.8 6.2v12.4l-154.8-6.2zM2576.3 2710l78.7 3.2v12.4l-78.7-3.2zM560.2 1874.6l154.8-6.2v12.4l-154.8 6.2zM560.2 1856l78.6-3.2v12.4l-78.6 3.2zM2005 2728.6h231v12.4h-231zM2005 2710h231v12.4h-231zM1719.3 2734.8l154.8-6.2v12.4l-154.8 6.2zM1719.3 2716.2l78.6-3.1v12.4l-78.6 3.1zM1150.6 1868.4h192.9v12.4h-193zM1150.6 1849.8h27.2v12.4h-27.2zM1343.5 1849.8h-27.3v12.4h27.3zM1417.2 1868.4l154.8 6.2v12.4l-154.8-6.2zM1417.2 1849.8l78.6 3.1v12.4l-78.6-3.1zM590 835.7 804.6 811v12.5l-214.8 24.8zM590 854.3l214.7-24.8V842l-214.8 24.8zM1455 3406.4h146.7v12.4H1455zM1455 3425h74.6v12.4H1455zM873 835.7l214.7 12.4v12.5L873 848.2zM873 817.1l214.7 12.4V842L873 829.6zM1719.3 1874.6l154.8-6.2v12.4l-154.8 6.2zM1719.3 1856l78.6-3.2v12.4l-78.6 3.2zM2031.2 3443.6l218.7 12.4v12.4l-218.7-12.4zM2031.2 3425l218.7 12.4v12.4l-218.7-12.4z" class="Beam"/><path d="M816.1 3158.7V3134l-9.2.5v2.2h2.4c1.9 0 2.1.3 2.1 2.5v27.9q0 1-.3 1.2-.4.7-3.4.7h-.2v1.8H820v-1.8h-.2c-3.3 0-3.8-.3-3.8-2.1v-5l3-3 6 8.4.4.8q.1 1-2.2 1h-1v1.7h13.2v-1.8c-2.8-.2-3.8-.8-5.8-3.4l-7.1-9.7 2.2-2.2c3-2.9 5-4 8.5-4.4v-1.8H820v1.8h1.6q2.3 0 2.3 1 0 .7-1.1 2zm42 .9c.1-7.5-4.1-12.8-10.2-12.8-6.4 0-11.2 5.5-11.2 13 0 7 4.5 11.8 11.3 11.8q7.1 0 10.2-7.1l-1.8-1c-2 3.9-4.1 5.4-7.5 5.4q-3.7 0-5.7-3.3-1.4-2.1-1.2-6zm-16.2-2.2c0-3.5 1.6-8.5 5.8-8.5 3 0 5 2.7 5 6.7 0 1.4-.4 1.8-2 1.8zm41.2 2.2c0-7.5-4.3-12.8-10.3-12.8-6.5 0-11.2 5.5-11.2 13 0 7 4.5 11.8 11.2 11.8q7.2 0 10.3-7.1l-1.8-1c-2 3.9-4.2 5.4-7.5 5.4q-3.7 0-5.7-3.3-1.3-2.1-1.3-6zm-16.2-2.2c0-3.5 1.6-8.5 5.8-8.5 3 0 5 2.7 5 6.7 0 1.4-.4 1.8-2 1.8zm28-9.9-8.7.6v2.1h1.8c1.9 0 2.1.4 2.1 2.5v24.5q0 1-.3 1.2-.3.7-3.4.7h-.2v1.8h13v-1.8h-.6c-3.3 0-3.8-.3-3.8-2.1v-9.5c1.7 3 3.5 4 6.6 4 6.7 0 10.1-6.5 10.1-12.4 0-5.7-3.4-12.3-9.8-12.3q-4.4-.1-6.9 4.3zm6 2c3.5 0 5.5 3.4 5.5 9.3q-.1 9.8-5.6 10c-3.6 0-6-3.6-6-9.4 0-6.2 2.3-10 6.1-10M574.6 2275h-1.9l-2 3a13 13 0 0 0-9-3.5c-6.7 0-11 4.2-11 10.5 0 5.4 2.7 8.1 10 10l4.8 1.2c3.7 1 4 1 5 1.9a6 6 0 0 1 2.4 4.7q0 3-2.3 5c-1.6 1.5-3.3 2-6 2-7.6 0-11.3-5.5-12.6-12.3h-2.2l.2 14.3h2l2.2-3.4c3.4 2.7 6.1 3.7 10.5 3.7 7.4 0 12-4.3 12-11q0-4.7-3-7.6c-1.3-1.3-3.2-2.2-7.2-3.2l-5.4-1.3q-6.5-1.7-6.5-6.2c0-3.5 2.8-5.9 7-5.9 6.5 0 10 5.4 11.4 11h2.2zm17.3 12.4c-6.2 0-11 5.5-11 12.5 0 6.8 4.9 12.3 10.9 12.3s10.8-5.5 10.8-12.4c0-6.8-4.8-12.4-10.7-12.4m0 2.2q5.3.2 5.4 10.2-.1 10.2-5.5 10.3-5.5-.1-5.6-10.2t5.7-10.3M784.7 1443.8l-5.5-12.9-.3-1q-.1-1.4 2.3-1.3h1v-1.8h-11.9v1.8h.6c1.7 0 2.3.6 3.3 2.7l8.2 18.5-.8 1.8c-1.9 3.7-4.2 6.4-5.8 6.4q-.7 0-.8-.5l.1-.5.3-1.3q-.1-2-2.6-2.2c-1.7 0-3 1.3-3 3 0 2.3 1.9 4 4.6 4q3.9 0 6.8-4c1.6-2.1 2.6-4.2 4.8-9.7l5.7-14.1c1.2-2.9 2.3-4 4.2-4h.3v-1.9h-10v1.8h.8q2.9 0 2.7 1.9a5 5 0 0 1-.5 2zm23-17.7c-6.2 0-11 5.5-11 12.5 0 6.8 4.8 12.3 10.8 12.3s10.8-5.5 10.8-12.4-4.8-12.4-10.7-12.4m0 2.1q5.4.2 5.5 10.3-.1 10-5.6 10.2-5.4-.1-5.5-10.2t5.6-10.3m33 22.3 9.1-.4v-2.1h-1.2c-3-.1-3.2-.4-3.2-3.7v-17.5l-9.4.6v2.1h2.6c1.9 0 2.1.4 2.1 2.5v6.2c0 4.3-1 9.6-6.5 9.6q-2.5 0-3.5-1.5c-.7-1-.8-1.5-.8-4.2v-15.3l-8.7.6v2.1h1.9c1.9 0 2.1.4 2.1 2.5v10.8c0 2.6.2 3.8 1 4.9q2 3.1 6.7 3.2c3.3 0 5.6-1.4 7.8-4.6zM1359.4 2304c-1.6 3.6-3.4 5-6 5-4 0-6.4-3.6-6.4-9.4 0-6.1 2.4-10.1 6.1-10.1 1.5 0 2.8.7 2.8 1.5q0 .2-.3.6c-.8 1-1 1.4-1 2.3 0 1.6 1.3 2.8 3 2.8 1.8 0 3-1.4 3-3.4 0-3.4-3.3-6-7.7-6-6.6 0-11.2 5.3-11.2 12.8 0 7.1 4.3 12 10.5 12 4.4 0 7-2 9.1-7.3zm25.5-8.7c0-3.2-.5-4.8-2-6q-2.4-2-7.3-2c-5.6 0-9.7 2.7-9.7 6.3q.1 3 2.9 3 2.5-.1 2.7-2.5 0-1-.7-2-.5-.5-.4-.7c0-1 2-2 4.4-2 1.6 0 3.3.6 4.1 1.3q1.5 1 1.4 4.3v2a43 43 0 0 0-9.4 2.2q-6.4 2.4-6.4 7c0 3.7 2.8 6 7.3 6q5.3-.1 8.7-4 1 3.6 4.4 3.5c2.2 0 4.6-1.4 4.6-2.9q0-.5-.5-.6l-.7.2c-.8.3-1 .4-1.5.4q-2 .1-1.9-3.5zm-4.6 6c0 3-.2 3.8-1 5a7 7 0 0 1-5.8 3.2c-2.2 0-4-1.7-4-4q0-3 3.3-4.6c1.6-.7 3.5-1.2 7.5-1.8zm19.8-13.3-8.6.5v2.2h1.8c1.9 0 2.1.3 2.1 2.5v14.3q0 1-.3 1.3-.3.6-3.4.7h-.2v1.8h12.6v-1.8h-.2c-3.3-.1-3.8-.4-3.8-2.2v-7.4c0-2.4.4-4.7 1-5.8 1-2.3 3.2-3.8 5.4-3.8 1.3 0 2.8.7 3.5 1.7q1.2 1.5 1.1 5v10.5q0 1-.3 1.3-.3.6-3.5.7h-.2v1.8h12.7v-1.8h-.2c-3.3-.1-3.8-.4-3.8-2.2v-10c0-3.6-.1-4.5-1-6.2a7 7 0 0 0-6.8-3.9q-4.7 0-7.9 4.8zM2305.6 2287.5h-1.7l-1.5 1.8a9 9 0 0 0-6-2c-4.5 0-7.3 2.9-7.3 7.3 0 4.7 3 5.9 7 6.8l2.6.6c4 1 5.4 2 5.4 4 0 2.3-2 4-5 4q-6.4-.1-8.4-7.7h-2v9.4h1.7l1.8-2q3 2.4 6.9 2.4c4.8 0 8-3 8-7.7q0-3.3-2-5c-1.2-1-2.2-1.5-5.3-2.1l-2.5-.6c-2.7-.6-2.7-.6-3.6-1a3 3 0 0 1-1.8-2.7c0-2 2-3.5 4.7-3.5 4 0 6 3 7.3 6.4h1.7zm27 12.6c0-7.5-4.3-12.8-10.4-12.8-6.4 0-11.2 5.6-11.2 13 0 7.1 4.6 11.8 11.3 11.8q7.2 0 10.2-7l-1.7-1c-2 3.8-4.2 5.3-7.5 5.3a6 6 0 0 1-5.7-3.3c-1-1.5-1.3-3.2-1.3-6zm-16.1-2.1c0-3.5 1.6-8.5 5.8-8.5 3 0 5 2.6 5 6.7q.1 2-2 1.8zm26.9-23.5-9.3.6v2.1h2.5c1.8 0 2 .4 2 2.5v27.9q0 1-.2 1.3-.4.6-3.5.7h-.3v1.8h13v-1.8h-.4c-3.4-.1-3.8-.4-3.8-2.2zm15.5 13.6v-2.9q0-3.7.6-5.1 1.4-3.4 4.5-3.6 1.7 0 1.7.9l-.3.6q-.4.7-.4 1.6c0 1.5 1.2 2.7 2.7 2.7 1.7 0 2.8-1.3 2.8-3 0-3-2.5-4.8-6.5-4.8q-5.2 0-7.8 3.7c-1.5 2.1-2 4.3-2 8.3v1.6h-4.3v2.1h4.3v17.4q0 1-.3 1.3-.3.6-3.4.7h-.2v1.8h13.4v-1.8h-1c-3.3-.1-3.8-.4-3.8-2.2v-17.2h5.5v-2.1zm12.6 17.7a3.1 3.1 0 1 0 0 6.2 3.1 3.1 0 0 0 0-6.2M1572 2288l-8.8.6v2.2h2c2 0 2.2.3 2.2 2.5v14.3q0 1-.3 1.3-.3.6-3.5.7h-.2v1.8h13.3v-1.8h-.8c-3.4-.1-3.8-.4-3.8-2.2v-2.7c0-8.4 3-14.8 6.9-15-.7.8-.9 1.3-.9 2.3 0 1.6 1.2 2.7 2.8 2.7q2.9-.2 3-3.3c0-2.5-1.7-4-4.3-4q-5 0-7.5 6.9zm35.2 12c0-7.5-4.2-12.8-10.3-12.8-6.4 0-11.2 5.6-11.2 13 0 7.1 4.5 11.8 11.3 11.8q7.2 0 10.2-7l-1.7-1c-2.1 3.8-4.2 5.3-7.5 5.3a6 6 0 0 1-5.7-3.3c-1-1.5-1.4-3.2-1.3-6zm-16.2-2.1c0-3.5 1.7-8.5 5.9-8.5 3 0 5 2.6 5 6.7q.2 2-2.1 1.8zM778.7 2288l-8.9.6v2.2h2c2 0 2.2.3 2.2 2.5v14.3q0 1-.3 1.3-.3.6-3.5.7h-.1v1.8h12.6v-1.8h-.2c-3.3-.1-3.8-.4-3.8-2.2v-9.3c0-4.4 2.5-7.7 5.7-7.7q4.2 0 4.3 6v11.2q0 1-.3 1.3-.3.6-3.5.7h-.2v1.8h12.7v-1.8h-.2c-3.3-.1-3.8-.4-3.8-2.2v-8.8c0-5 2.3-8.2 5.8-8.2q4.2 0 4.2 6.6v10.6q0 1-.3 1.3-.3.6-3.5.7h-.2v1.8h12.7v-1.8h-.2c-3.3-.1-3.8-.4-3.8-2.2V2296c0-3-.3-4.1-1.6-5.8a7 7 0 0 0-5.9-2.9q-4.7 0-7.8 5a7 7 0 0 0-6.9-5q-4.4 0-7.2 4.6zm57 7.2c0-3.2-.6-4.8-2-6q-2.5-2-7.3-2c-5.7 0-9.8 2.7-9.8 6.3q.2 3 3 3 2.4-.1 2.6-2.5 0-1-.7-2l-.4-.7c0-1 2-2 4.4-2 1.6 0 3.4.6 4.2 1.3q1.4 1 1.3 4.3v2c-5.2.8-6.9 1.2-9.3 2.2q-6.5 2.4-6.4 7c0 3.7 2.8 6 7.2 6q5.4-.1 8.7-4 1 3.6 4.4 3.5c2.3 0 4.6-1.4 4.6-2.9q0-.5-.5-.6l-.7.2q-1 .4-1.4.4-2 .1-2-3.5zm-4.6 6c0 3-.2 3.8-1 5a7 7 0 0 1-5.7 3.2c-2.3 0-4-1.7-4-4q0-3 3.3-4.6c1.5-.7 3.5-1.2 7.4-1.8zm22.9 3.6-5.5-12.8-.3-1q-.1-1.4 2.3-1.3h1v-1.8h-11.9v1.8h.6c1.7 0 2.3.5 3.4 2.7l8.1 18.4-.8 1.8c-1.8 3.8-4.2 6.4-5.8 6.4q-.7 0-.8-.5l.1-.4.3-1.3q-.1-2.1-2.6-2.3c-1.7 0-3 1.3-3 3.1 0 2.3 2 3.9 4.6 3.9q3.9 0 6.9-4a38 38 0 0 0 4.7-9.6l5.7-14.2c1.2-2.9 2.3-4 4.2-4h.3v-1.8h-10v1.8h.8q2.9 0 2.7 1.8a5 5 0 0 1-.5 2zM2137 2305l-5.6-12.8-.3-1q-.1-1.4 2.3-1.3h1v-1.8h-11.8v1.8h.5c1.7 0 2.4.5 3.4 2.7l8.2 18.4-.9 1.8c-1.8 3.8-4.1 6.4-5.7 6.4q-.8 0-.8-.5v-.4l.3-1.3q-.1-2.1-2.5-2.3-2.9.2-3 3.1c0 2.3 1.9 3.9 4.5 3.9q4 0 7-4c1.5-2 2.5-4.2 4.7-9.6l5.7-14.2c1.1-2.9 2.2-4 4.2-4h.3v-1.8h-10v1.8h.8q2.8 0 2.7 1.8a5 5 0 0 1-.5 2zm23-17.7c-6.1 0-10.9 5.5-10.9 12.5 0 6.8 4.8 12.3 10.8 12.3s10.8-5.5 10.8-12.4c0-6.8-4.8-12.4-10.7-12.4m0 2.2q5.4.2 5.5 10.2-.1 10.2-5.6 10.3-5.4-.1-5.5-10.2t5.6-10.3m33 22.2 9.1-.3v-2.2h-1.2c-3 0-3.2-.4-3.2-3.6V2288l-9.4.5v2.2h2.6c1.8 0 2.1.3 2.1 2.5v6.1c0 4.4-1 9.7-6.6 9.7q-2.4 0-3.5-1.6c-.6-1-.7-1.4-.7-4.2v-15.2l-8.7.5v2.2h1.9c1.8 0 2.1.3 2.1 2.5v10.8c0 2.5.2 3.7 1 4.8q2 3.1 6.7 3.2c3.3 0 5.6-1.3 7.8-4.5zm19.9-23.6-8.9.5v2.2h2c2 0 2.2.3 2.2 2.5v14.3q0 1-.3 1.3-.5.6-3.5.7h-.2v1.8h13.3v-1.8h-.8c-3.4-.1-3.8-.4-3.8-2.2v-2.7c0-8.4 3-14.8 6.9-15-.7.8-.9 1.3-.9 2.3q.1 2.5 2.8 2.7 2.9-.2 3-3.3-.2-3.9-4.3-4-5 0-7.5 6.9zM997.3 2274.5l-8.6.6v2.1h1.8c1.9 0 2.1.4 2.1 2.5v19.5c0 7-.3 10.7-.9 12.9h1.9l2.5-4q3 4.1 7.5 4c6.2 0 10.7-5.3 10.7-12.5s-4.2-12.3-10.2-12.3c-3 0-4.9 1-6.8 4zm6 15.4q5.7.2 5.8 10.2c0 6.3-2 9.9-5.7 9.9-4 0-6.3-3.7-6.3-9.8q0-10.2 6.1-10.3m36.2 10.2c0-7.5-4.2-12.8-10.3-12.8-6.4 0-11.2 5.6-11.2 13 0 7.1 4.5 11.8 11.3 11.8q7.1 0 10.2-7l-1.8-1c-2 3.8-4.1 5.3-7.5 5.3q-3.7 0-5.7-3.3c-.9-1.5-1.3-3.2-1.3-6zm-16.2-2.1c0-3.5 1.6-8.5 5.8-8.5 3 0 5 2.6 5 6.7 0 1.4-.4 1.8-2 1.8zM1937.8 2274.5l-8.6.6v2.1h1.7c2 0 2.2.4 2.2 2.5v19.5c0 7-.3 10.7-1 12.9h2l2.4-4q3 4.1 7.5 4c6.2 0 10.8-5.3 10.8-12.5s-4.2-12.3-10.2-12.3c-3 0-5 1-6.8 4zm5.9 15.4q5.7.2 5.8 10.2c0 6.3-2 9.9-5.7 9.9-4 0-6.3-3.7-6.3-9.8q.1-10.2 6.2-10.3m36.1 10.2c0-7.5-4.2-12.8-10.3-12.8-6.4 0-11.2 5.6-11.2 13 0 7.1 4.6 11.8 11.3 11.8q7.2 0 10.2-7l-1.7-1c-2 3.8-4.2 5.3-7.5 5.3q-3.8 0-5.7-3.3c-1-1.5-1.3-3.2-1.3-6zm-16.1-2.1c0-3.5 1.6-8.5 5.8-8.5 3 0 5 2.6 5 6.7q.1 2-2 1.8zm27.8-10-8.9.6v2.2h2c2 0 2.2.3 2.2 2.5v14.3q0 1-.3 1.3-.3.6-3.5.7h-.2v1.8h13.4v-1.8h-1c-3.3-.1-3.7-.4-3.7-2.2v-2.7c0-8.4 3-14.8 6.9-15-.7.8-.9 1.3-.9 2.3 0 1.6 1.2 2.7 2.8 2.7q2.8-.2 3-3.3c0-2.5-1.7-4-4.3-4q-5 0-7.5 6.9zM1688 2288l-9 .6v2.2h2.1c1.9 0 2.1.3 2.1 2.5v14.3q0 1-.3 1.3-.3.6-3.4.7h-.2v1.8h12.6v-1.8h-.2c-3.3-.1-3.8-.4-3.8-2.2v-9.3c0-4.4 2.5-7.7 5.7-7.7q4.3 0 4.3 6v11.2q0 1-.3 1.3-.3.6-3.5.7h-.2v1.8h12.7v-1.8h-.2c-3.3-.1-3.8-.4-3.8-2.2v-8.8c0-5 2.3-8.2 5.8-8.2q4.2 0 4.2 6.6v10.6q0 1-.3 1.3-.3.6-3.5.7h-.2v1.8h12.7v-1.8h-.2c-3.3-.1-3.7-.4-3.7-2.2V2296c0-3-.4-4.1-1.7-5.8a7 7 0 0 0-5.9-2.9q-4.7 0-7.7 5a7 7 0 0 0-7-5q-4.4 0-7.2 4.6zm57.7 12c0-7.5-4.2-12.8-10.3-12.8-6.4 0-11.2 5.6-11.2 13 0 7.1 4.5 11.8 11.3 11.8q7.1 0 10.2-7l-1.8-1c-2 3.8-4.1 5.3-7.5 5.3a6 6 0 0 1-5.7-3.3c-.9-1.5-1.3-3.2-1.2-6zm-16.2-2.1c0-3.5 1.6-8.5 5.8-8.5 3 0 5 2.6 5 6.7q.2 2-2 1.8zm28-10-9 .6v2.2h2.1c2 0 2.2.3 2.2 2.5v14.3q0 1-.3 1.3c-.4.4-1.3.6-3.5.7h-.2v1.8h12.6v-1.8h-.2c-3.3-.1-3.7-.4-3.7-2.2v-9.3c0-4.4 2.4-7.7 5.7-7.7q4.3 0 4.3 6v11.2q0 1-.4 1.3-.3.6-3.4.7h-.2v1.8h12.6v-1.8h-.2c-3.3-.1-3.7-.4-3.7-2.2v-8.8c0-5 2.2-8.2 5.7-8.2q4.3 0 4.3 6.6v10.6q0 1-.4 1.3-.3.6-3.4.7h-.2v1.8h12.6v-1.8h-.2c-3.3-.1-3.7-.4-3.7-2.2V2296c0-3-.3-4.1-1.6-5.8a7 7 0 0 0-6-2.9q-4.7 0-7.7 5a7 7 0 0 0-7-5q-4.4 0-7.1 4.6zM545.7 3134.4h-1.9l-2 3c-3.6-2.7-5.5-3.4-9-3.4q-7 0-12 6-4.9 5.6-4.8 13.1c0 10.8 7 18.5 17 18.5 8 0 13-4.7 14.2-13.1l-2.4-.4q-2 11.1-11.3 11.1c-7.4 0-10.9-5-10.9-15.9 0-5.7.8-9.4 2.5-12.4a9 9 0 0 1 7.8-4.6c3.5 0 6.6 1.9 8.5 5 1 1.7 1.7 3.6 2.9 7.5h2.2zm26 20.3c0-3.1-.6-4.7-2-6q-2.6-2-7.4-2c-5.6 0-9.7 2.7-9.7 6.4q.1 2.9 2.9 3 2.6-.1 2.7-2.5 0-1-.8-2-.4-.5-.3-.8c0-1 2-1.9 4.4-1.9 1.6 0 3.3.5 4.1 1.3q1.4 1 1.3 4.2v2c-5.2.9-6.8 1.3-9.3 2.2q-6.4 2.4-6.4 7.1c0 3.6 2.8 5.9 7.3 5.9q5.3 0 8.7-4 1 3.8 4.4 3.6c2.2 0 4.6-1.5 4.6-3q0-.5-.5-.5l-.8.2q-1 .4-1.4.3-2 .2-1.9-3.4zm-4.7 6c0 3-.1 3.7-1 5a7 7 0 0 1-5.7 3.1c-2.3 0-4-1.6-4-3.9q0-3 3.3-4.6c1.6-.7 3.5-1.2 7.4-1.9zm20-13.3-8.7.6v2.1h1.8c1.9 0 2.1.4 2.1 2.5v14.3q0 1-.3 1.3-.3.7-3.4.7h-.2v1.8h12.6v-1.8h-.2c-3.3 0-3.8-.3-3.8-2.1v-7.4q0-4 1-5.9c1-2.2 3.2-3.8 5.4-3.8 1.3 0 2.8.7 3.5 1.8q1.1 1.4 1.1 5v10.4q0 1-.3 1.3-.3.7-3.5.7h-.2v1.8h12.7v-1.8h-.2c-3.3 0-3.8-.3-3.8-2.1v-10c0-3.7-.1-4.6-1-6.3a7 7 0 0 0-6.8-3.8q-4.7 0-7.9 4.8zm25.1-1.7h1.1l1.6-9v-.7a2 2 0 0 0-2.1-2.2 2 2 0 0 0-2.2 2.2v.8zm15.4 1.5v-9.9h-2q-.9 9.7-6.8 10.1v2h4v12.7c0 3.5.1 4.8.6 6q1.4 3.1 5.8 3.2c4.5 0 7.4-3.4 7.4-8.7v-1.2H634q-.2 6.8-3.9 6.8-1.8-.1-2.5-1.4-.4-1-.4-3.8v-13.6h7.3v-2.2zM1141.2 2305l-5.5-12.8-.3-1q-.1-1.4 2.3-1.3h1v-1.8h-11.9v1.8h.6c1.7 0 2.3.5 3.4 2.7l8.1 18.4-.8 1.8c-1.8 3.8-4.2 6.4-5.8 6.4q-.7 0-.8-.5l.1-.4.3-1.3q-.1-2.1-2.6-2.3c-1.7 0-3 1.3-3 3.1 0 2.3 2 3.9 4.6 3.9q3.9 0 6.9-4c1.5-2 2.5-4.2 4.7-9.6l5.7-14.2c1.2-2.9 2.3-4 4.2-4h.3v-1.8h-10v1.8h.8q2.8 0 2.7 1.8 0 .8-.5 2zm23-17.7c-6.2 0-11 5.5-11 12.5 0 6.8 4.9 12.3 10.9 12.3s10.8-5.5 10.8-12.4c0-6.8-4.8-12.4-10.7-12.4m0 2.2q5.3.2 5.4 10.2-.1 10.2-5.5 10.3-5.5-.1-5.6-10.2t5.7-10.3m33 22.2 9-.3v-2.2h-1.2c-3 0-3.2-.4-3.2-3.6V2288l-9.3.5v2.2h2.5c1.9 0 2.1.3 2.1 2.5v6.1c0 4.4-1 9.7-6.5 9.7q-2.4 0-3.5-1.6c-.6-1-.8-1.4-.8-4.2v-15.2l-8.7.5v2.2h1.9c1.9 0 2.1.3 2.1 2.5v10.8c0 2.5.2 3.7 1 4.8q2.2 3.1 6.7 3.2 4.8.1 7.8-4.5zM2724 3146.8c-6.1 0-10.9 5.4-10.9 12.4s4.8 12.4 10.8 12.4 10.8-5.5 10.8-12.4-4.8-12.4-10.7-12.4m0 2.1c3.5 0 5.5 3.7 5.5 10.3q-.1 10-5.6 10.2-5.4-.2-5.5-10.2 0-10.2 5.6-10.3m33 22.3 9.1-.4v-2.1h-1.2c-3-.1-3.2-.4-3.2-3.7v-17.5l-9.4.6v2.1h2.5c2 0 2.2.4 2.2 2.5v6.2c0 4.3-1 9.6-6.6 9.6q-2.4 0-3.5-1.5c-.6-1-.7-1.5-.7-4.2v-15.3l-8.8.6v2.1h2c1.8 0 2 .4 2 2.5v10.8c0 2.6.3 3.7 1 4.9q2.2 3.1 6.8 3.2c3.3 0 5.6-1.4 7.8-4.6zm19.8-23.7-8.8.6v2.1h2c2 0 2.2.4 2.2 2.5v14.3q0 1-.3 1.3-.5.7-3.5.7h-.2v1.8h13.3v-1.8h-.8c-3.4 0-3.8-.3-3.8-2.1v-2.7c0-8.4 3-14.8 6.9-15q-1 1-.9 2.2c0 1.6 1.1 2.8 2.8 2.8q2.9-.2 3-3.4-.2-3.8-4.3-4c-3.2 0-6 2.5-7.6 7zM991.8 3134l-8.6.5v2.2h1.8c1.9 0 2.1.3 2.1 2.5v19.4c0 7-.3 10.8-.9 13h2l2.4-4q3 4 7.5 4c6.2 0 10.7-5.3 10.7-12.6s-4.2-12.2-10.2-12.2c-3 0-4.9 1-6.8 3.9zm6 15.3c3.7 0 5.8 3.7 5.8 10.2q0 9.8-5.7 10c-4 0-6.3-3.7-6.3-9.9q0-10.2 6.1-10.3m36.2 10.3c0-7.5-4.2-12.8-10.3-12.8-6.4 0-11.2 5.5-11.2 13 0 7 4.5 11.8 11.3 11.8q7.1 0 10.2-7.1l-1.8-1c-2 3.9-4.1 5.4-7.5 5.4q-3.7 0-5.7-3.3-1.3-2.1-1.2-6zm-16.2-2.2c0-3.5 1.6-8.5 5.8-8.5 3 0 5 2.7 5 6.7q.2 2-2 1.8zM1713.8 3146.8c-6.2 0-11 5.4-11 12.4s4.9 12.4 10.9 12.4 10.8-5.5 10.8-12.4-4.8-12.4-10.7-12.4m0 2.1c3.5 0 5.4 3.7 5.4 10.3q-.1 10-5.5 10.2-5.5-.2-5.6-10.2 0-10.2 5.7-10.3m22.4-1.4-8.7.6v2.1h1.8c1.9 0 2.2.4 2.2 2.5v14.3q0 1-.3 1.3c-.4.5-1.3.7-3.5.7h-.2v1.8h12.7v-1.8h-.2c-3.4 0-3.8-.3-3.8-2.1v-7.4q0-4 .9-5.9c1-2.2 3.3-3.8 5.4-3.8 1.3 0 2.8.7 3.6 1.8q1 1.4 1 5v10.4q0 1-.2 1.3-.5.7-3.5.7h-.2v1.8h12.6v-1.8h-.2c-3.3 0-3.7-.3-3.7-2.1v-10c0-3.7-.2-4.6-1-6.3a7 7 0 0 0-6.8-3.8c-3.3 0-5.7 1.5-8 4.8zM1969.3 3134l-9.3.5v2.2h2.5c1.8 0 2 .3 2 2.5v27.8q0 1-.2 1.3c-.4.5-1.3.7-3.5.7h-.3v1.8h13v-1.8h-.4c-3.4 0-3.8-.3-3.8-2.1zm19.1 30.6-5.5-12.9-.3-1q-.1-1.4 2.3-1.3h1v-1.8h-11.8v1.8h.5c1.7 0 2.4.6 3.4 2.7l8.2 18.5-.9 1.7c-1.8 3.8-4.1 6.5-5.7 6.5q-.8 0-.8-.5v-.5q.3-.7.3-1.3-.1-2-2.5-2.2c-1.8 0-3 1.3-3 3 0 2.3 1.9 4 4.5 4q4 0 6.9-4c1.6-2.1 2.6-4.2 4.8-9.7l5.7-14.1c1.1-3 2.2-4 4.2-4h.3v-1.9h-10v1.8h.8q2.8 0 2.7 1.9a5 5 0 0 1-.5 2zM1008.2 1426.8v-2.8q0-3.7.6-5.2c.8-2.2 2.6-3.5 4.6-3.5q1.6 0 1.6.8 0 .2-.3.7-.4.7-.4 1.6c0 1.5 1.2 2.6 2.7 2.6q2.7-.1 2.9-3c0-3-2.5-4.7-6.6-4.7q-5.1 0-7.8 3.7c-1.5 2-2 4.2-2 8.3v1.5h-4.4v2.2h4.4v17.3q0 1-.3 1.3-.3.7-3.4.7h-.2v1.8h13.4v-1.8h-1c-3.3 0-3.8-.3-3.8-2.1V1429h5.5v-2.2zm28.6 7.3c0-3.2-.6-4.8-2-6q-2.5-2-7.3-2c-5.7 0-9.8 2.6-9.8 6.3q.1 2.8 3 3 2.4-.1 2.6-2.5 0-1-.7-2-.4-.5-.4-.8c0-1 2-1.9 4.4-1.9 1.6 0 3.4.5 4.2 1.3q1.4 1 1.3 4.2v2c-5.2.9-6.9 1.3-9.3 2.2q-6.5 2.4-6.4 7.1c0 3.6 2.8 5.9 7.2 5.9q5.4 0 8.7-4c.8 2.6 2 3.6 4.4 3.6 2.3 0 4.6-1.5 4.6-3q0-.5-.5-.5l-.7.2q-1 .4-1.4.3-2 .2-2-3.4zm-4.6 6c0 3-.2 3.7-1 5a7 7 0 0 1-5.7 3.1c-2.3 0-4-1.6-4-3.9q0-3 3.3-4.6a29 29 0 0 1 7.4-1.9zm20-26.8-9.2.5v2.2h2.5c1.8 0 2 .3 2 2.5v27.8q0 1-.2 1.3c-.4.5-1.3.7-3.5.7h-.3v1.8h13v-1.8h-.4c-3.4 0-3.8-.3-3.8-2.1zm15.7 0-9.2.6v2.2h2.4c1.9 0 2.1.3 2.1 2.5v27.8q0 1-.3 1.3-.3.7-3.4.7h-.4v1.8h13v-1.8h-.4c-3.3 0-3.8-.3-3.8-2.1zm16.4 27.4c0-5 .5-6.3 3.7-9 4.9-4.3 6-6 6-9.6 0-5.2-3.8-8.7-9.5-8.7s-9.8 3.1-9.8 7.4c0 2.2 1.4 3.9 3.3 3.9 1.5 0 2.8-1.2 2.8-2.8q0-1.5-1.5-2.6-1-.7-.8-1.1c0-1.3 2.2-2.5 4.7-2.5q5.4.1 5.5 6.1 0 3.2-1.5 5.4c-3.7 5-3.7 5-4.4 6.8-.5 1.4-.7 2.7-.7 5v1.7zm-1.2 4a3.1 3.1 0 0 0 0 6.3c1.7 0 3.1-1.4 3.1-3.2 0-1.7-1.4-3-3.1-3M557 1413.3l-9.3.5v2.2h2.5c1.8 0 2 .3 2 2.5v27.8q0 1-.2 1.3c-.4.5-1.3.7-3.5.7h-.3v1.8h13v-1.8h-.4c-3.4 0-3.8-.3-3.8-2.1zm28.8 25.7c0-7.5-4.2-12.8-10.3-12.8-6.4 0-11.2 5.5-11.2 13 0 7 4.5 11.8 11.3 11.8q7.1 0 10.2-7.1l-1.8-1c-2 3.9-4.1 5.4-7.5 5.4q-3.7 0-5.7-3.3-1.3-2.1-1.2-6zm-16.2-2.2c0-3.5 1.6-8.5 5.8-8.5 3 0 5 2.7 5 6.7 0 1.4-.4 1.8-2 1.8zm26.6-9.9v-9.9h-2q-.8 9.7-6.8 10.1v2h4v12.7c0 3.5.2 4.8.7 6q1.3 3.1 5.7 3.2c4.5 0 7.4-3.4 7.4-8.7v-1.2H603q-.1 6.8-3.9 6.8-1.8-.1-2.5-1.4-.4-1-.4-3.8V1429h7.3v-2.2zM1553.4 3164.4l-4.9-12.9-.2-1q-.1-1.4 2.1-1.2h1.2v-1.8h-11.2v1.8h.9q2.2-.1 2.6 1.9l.4 1.3-4.4 11.6-4.8-12.5-.2-1.1q-.1-1.3 2-1.2h1v-1.8h-11v1.8h.8c1.4 0 2 .7 2.6 2.5l7.5 19.8h1.8l6-15.8 6 15.8h1.6l7-18.5c1-3 1.8-3.7 3.7-3.8h.3v-1.8h-9.4v1.8h.8q2.6-.1 2.5 1.9 0 .8-.4 1.8zm33.5-4.8c0-7.5-4.2-12.8-10.3-12.8-6.4 0-11.2 5.5-11.2 13 0 7 4.5 11.8 11.3 11.8q7.1 0 10.2-7.1l-1.8-1c-2 3.9-4.1 5.4-7.5 5.4q-3.7 0-5.7-3.3-1.4-2.1-1.2-6zm-16.2-2.2c0-3.5 1.6-8.5 5.8-8.5 3 0 5 2.7 5 6.7 0 1.4-.4 1.8-2 1.8zm22.5-11.5h1l1.6-9v-.7a2 2 0 0 0-2.1-2.2 2 2 0 0 0-2.2 2.2l.1.8zm15.5 1.5-8.9.6v2.1h2c2 0 2.2.4 2.2 2.5v14.3q0 1-.3 1.3-.3.7-3.5.7h-.2v1.8h13.4v-1.8h-1c-3.3 0-3.7-.3-3.7-2.1v-2.7c0-8.4 3-14.8 7-15q-1.1 1-1 2.2c0 1.6 1.2 2.8 2.8 2.8q2.9-.2 3-3.4c0-2.4-1.7-4-4.3-4q-5 .1-7.5 7zm35.2 12c0-7.4-4.2-12.7-10.3-12.7-6.4 0-11.2 5.5-11.2 13 0 7 4.6 11.8 11.3 11.8q7.2 0 10.2-7.1l-1.7-1c-2 3.9-4.2 5.4-7.5 5.4q-3.8 0-5.7-3.3-1.4-2.1-1.3-6zm-16.1-2.2c0-3.5 1.6-8.5 5.8-8.5 3 0 5 2.7 5 6.7q.1 2-2 1.8zM1713.7 1436.4h-2.2c-1.7 9-3.9 11.2-11.7 11.4h-2c-3-.1-3.8-.6-3.7-2.4v-25.2c0-2.5 0-2.7.3-3.1.4-.5 1.4-.7 4.2-.7h1v-2.4H1683v2.4h1c2.8 0 3.8.2 4.1.7s.3.5.3 3v23.9c0 2.5 0 2.6-.3 3-.4.6-1.3.8-4.2.8h-.9v2.3h29.5zm14.5-10.3c-6.1 0-10.9 5.5-10.9 12.5 0 6.8 4.8 12.3 10.8 12.3s10.8-5.5 10.8-12.4-4.8-12.4-10.7-12.4m0 2.1q5.4.2 5.5 10.3-.1 10-5.6 10.2-5.4-.1-5.5-10.2t5.6-10.3m32-1.9h-1.8l-1.5 1.8a9 9 0 0 0-6-2c-4.5 0-7.4 2.8-7.4 7.2 0 4.8 3 6 7 6.9l2.7.6c4 1 5.4 2 5.4 4 0 2.3-2 4-5 4q-6.4-.1-8.4-7.7h-2v9.4h1.7l1.8-2q3 2.4 6.8 2.4c5 0 8.2-3 8.2-7.7q0-3.3-2.1-5c-1.2-1.1-2.2-1.5-5.3-2.2l-2.5-.5c-2.7-.6-2.7-.6-3.6-1.1a3 3 0 0 1-1.8-2.7c0-2 2-3.4 4.7-3.4 4 0 6 2.9 7.3 6.4h1.7zm27 12.6c0-7.5-4.3-12.8-10.4-12.8-6.4 0-11.2 5.5-11.2 13 0 7 4.6 11.8 11.3 11.8q7.2 0 10.2-7.1l-1.7-1c-2 3.9-4.2 5.4-7.5 5.4a6 6 0 0 1-5.7-3.3q-1.4-2.1-1.3-6zm-16.2-2.2c0-3.5 1.7-8.5 5.9-8.5 3 0 5 2.7 5 6.7q.2 2-2.1 1.8zM2153.2 3171.2l8.7-.4v-2.1h-.9c-2.8-.2-3-.5-3-3.7v-31l-9.9.5v2.2h3c1.9 0 2.1.3 2.1 2.5v11.3a8 8 0 0 0-6.9-3.7c-5.6 0-10 5.4-10 12.6s4.2 12.2 10 12.2q4.6 0 7-4.4zm-6-21.7c2 0 4 1.5 5 3.8q.9 2.2.9 6c0 5.8-2.3 9.6-6 9.6-3.5 0-5.6-3.3-5.6-8.9q0-4.4 1-6.9c.8-2.2 2.7-3.6 4.7-3.6m38.9 10c0-7.4-4.2-12.7-10.3-12.7-6.4 0-11.2 5.5-11.2 13 0 7 4.5 11.8 11.3 11.8q7.1 0 10.2-7.1l-1.8-1c-2 3.9-4.1 5.4-7.5 5.4q-3.7 0-5.7-3.3-1.4-2.1-1.2-6zm-16.2-2.2c0-3.5 1.6-8.5 5.8-8.5 3 0 5 2.7 5 6.7q.2 2-2 1.8zM1936.7 1414.4a2.9 2.9 0 1 0 0 5.8 2.9 2.9 0 0 0 0-5.8m2.4 12.4-9.4.6v2.1h2.5c2 0 2.2.4 2.2 2.5v14.3q0 1-.3 1.3c-.4.5-1.3.7-3.5.7h-.3v1.8h13v-1.8h-.4c-3.4 0-3.8-.3-3.8-2.1zm15.1 0v-9.9h-2q-.7 9.7-6.8 10.1v2h4.1v12.7c0 3.5.1 4.8.6 6q1.3 3.1 5.7 3.2c4.5 0 7.4-3.4 7.4-8.7v-1.2h-2.1q-.3 6.8-4 6.8-1.7-.1-2.4-1.4-.6-1-.5-3.8V1429h7.4v-2.2zM2180 1434c0-3.1-.6-4.7-2-6q-2.6-2-7.4-2c-5.6 0-9.7 2.7-9.7 6.4q.1 2.8 2.9 3 2.6-.1 2.7-2.5 0-1-.8-2-.4-.5-.3-.8c0-1 2-1.9 4.4-1.9 1.6 0 3.3.5 4.1 1.3q1.4 1 1.3 4.2v2c-5.2.9-6.8 1.3-9.3 2.2q-6.4 2.4-6.4 7.1c0 3.6 2.8 5.9 7.3 5.9q5.3 0 8.7-4c.8 2.6 2 3.6 4.4 3.6 2.2 0 4.6-1.5 4.6-3q0-.5-.5-.5l-.8.2q-1 .4-1.4.3-2 .2-1.9-3.4zm-4.7 6c0 3-.1 3.7-1 5a7 7 0 0 1-5.7 3.1c-2.3 0-4-1.6-4-3.9q0-3 3.3-4.6a29 29 0 0 1 7.4-1.9zm20.1-26.8-9.2.5v2.2h2.4c1.9 0 2.1.3 2.1 2.5v27.8q0 1-.3 1.3-.4.7-3.4.7h-.4v1.8h13v-1.8h-.4c-3.3 0-3.8-.3-3.8-2.1zm15.8 0-9.3.6v2.2h2.4c1.9 0 2.2.3 2.2 2.5v27.8l-.3 1.3q-.4.7-3.5.7h-.3v1.8h12.9v-1.8h-.3c-3.4 0-3.8-.3-3.8-2.1zm16.3 27.4c0-5 .5-6.3 3.7-9 5-4.3 6-6 6-9.6 0-5.2-3.8-8.7-9.5-8.7s-9.8 3.1-9.8 7.4c0 2.2 1.4 3.9 3.3 3.9 1.6 0 2.8-1.2 2.8-2.8q0-1.5-1.4-2.6c-.8-.6-.8-.7-.8-1.1 0-1.3 2.1-2.5 4.6-2.5q5.4.1 5.6 6.1 0 3.2-1.6 5.4c-3.7 5-3.7 5-4.4 6.8-.5 1.4-.7 2.7-.7 5v1.7zm-1.2 4a3 3 0 0 0-3.1 3.1c0 1.8 1.4 3.2 3 3.2 1.8 0 3.2-1.4 3.2-3.2 0-1.7-1.4-3-3-3M1390.9 3135a2.9 2.9 0 1 0 0 5.9 2.9 2.9 0 0 0 0-5.8m2.3 12.4-9.4.6v2.1h2.6c1.9 0 2.1.4 2.1 2.5v14.3q0 1-.3 1.3-.3.7-3.4.7h-.4v1.8h13v-1.8h-.4c-3.3 0-3.8-.3-3.8-2.1zm15.5 0-8.7.6v2.1h1.8c1.9 0 2.2.4 2.2 2.5v14.3q0 1-.3 1.3c-.4.5-1.3.7-3.5.7h-.2v1.8h12.7v-1.8h-.2c-3.4 0-3.8-.3-3.8-2.1v-7.4q0-4 .9-5.9c1-2.2 3.3-3.8 5.4-3.8 1.3 0 2.8.7 3.6 1.8q1 1.4 1 5v10.4q0 1-.2 1.3-.5.7-3.5.7h-.2v1.8h12.6v-1.8h-.2c-3.3 0-3.7-.3-3.7-2.1v-10c0-3.7-.2-4.6-1-6.3a7 7 0 0 0-6.8-3.8c-3.3 0-5.7 1.5-8 4.8zm30.2 19.5c-2.7 0-2.8 0-3.5-.4q-.5-.4-.5-1.3c0-1.5 1.3-2.2 4.7-2.3 4.6 0 5.4-.2 7-1q4.6-2.1 4.8-7.2c0-2-.5-3.2-1.8-4.9q1.2-1.3 1.6-1.2.5 0 .5.7.3 1.8 2.3 1.9 2.1-.2 2.3-2.4c0-1.7-1.4-3-3.4-3-1.5 0-2.5.6-4.7 2.7a10 10 0 0 0-6.3-2c-6 0-9.8 3.4-9.8 8.4q.1 4.6 4.2 6.7c-3.4.7-4.7 2.2-4.7 5q0 3.2 3.3 4.3-4.6 1.7-4.6 4.7.1 2.4 2.6 3.8c2 1 4.3 1.4 8 1.4q12.5 0 12.5-8c0-2.4-1.2-4.4-3-5.2a18 18 0 0 0-6.3-.7zm3-18.2q4.6.1 4.8 6-.1 6.1-5 6.3c-3.1 0-5-2.3-5-6q.1-6.2 5.2-6.3m-.5 22.5 5.2.1q3.1.4 3.3 3c0 2.8-3.3 4.4-8.8 4.4q-6.6 0-6.7-3.5 0-2.2 3.3-4zm17.5 8.6q6.7-4.4 6.6-9.6c0-3-1.7-5-4.1-5-1.9 0-3.3 1.3-3.3 3q.2 2.8 3.5 3h.9q.3-.1.3.4 0 3.1-5 6.8zM2674 539.2h1c2.9 0 3.8.2 4.2.7s.4.6.4 3.1v23.8c0 2.5 0 2.7-.4 3.1-.3.5-1.3.7-4.1.7h-1v2.4h16.5v-2.4h-1c-2.8 0-3.7-.1-4.2-.7-.3-.4-.3-.5-.3-3V543c0-2.5 0-2.6.3-3 .4-.6 1.3-.7 4.2-.8h1V537h-16.5zM2310 3163.5q-2.2 5.2-5.9 5c-4 0-6.5-3.6-6.5-9.5s2.5-10 6.2-10c1.4 0 2.8.6 2.8 1.4l-.3.6c-.9 1-1 1.5-1 2.3q.1 2.7 3 2.8 2.9-.2 3-3.4c0-3.4-3.4-6-7.8-6-6.5 0-11.1 5.4-11.1 12.9 0 7 4.2 12 10.4 12 4.4 0 7-2 9.1-7.4zm26-4c.1-7.4-4.1-12.7-10.2-12.7-6.4 0-11.2 5.5-11.2 13 0 7 4.5 11.8 11.3 11.8q7.2 0 10.2-7.1l-1.8-1c-2 3.9-4.1 5.4-7.5 5.4q-3.7 0-5.7-3.3-1.3-2.1-1.2-6zm-16.2-2.2c0-3.5 1.7-8.5 5.8-8.5 3 0 5 2.7 5 6.7q.2 2-2 1.8zm25.9-22.3a3 3 0 0 0-3 2.9c0 1.6 1.4 2.9 3 2.9a2.9 2.9 0 1 0 0-5.8m2.3 12.4-9.4.6v2.1h2.6c1.9 0 2.1.4 2.1 2.5v14.3q0 1-.3 1.3-.4.7-3.4.7h-.4v1.8h13v-1.8h-.4c-3.3 0-3.8-.3-3.8-2.1zm19 17.3-5.7-13.2-.3-1.1q-.2-1.3 2.7-1.2h.7v-1.8h-11.8v1.8h.4c2 0 2.6.5 3.3 2.2l8.6 20h1.8l7-17.5c1.5-3.4 2.7-4.5 4.7-4.7h.2v-1.8h-10v1.8h.7q2.7 0 2.7 1.8 0 1-.4 2zM2533.2 536.6h-1.8l-2 3a13 13 0 0 0-9.1-3.5c-6.6 0-11 4.2-11 10.5 0 5.4 2.7 8.1 10.1 10l4.8 1.2c3.7 1 4 1.1 5 1.9a6 6 0 0 1 2.4 4.7q0 3-2.3 5c-1.7 1.5-3.3 2-6 2-7.6 0-11.4-5.5-12.7-12.3h-2.1l.2 14.3h2l2.2-3.4c3.3 2.7 6 3.7 10.5 3.7 7.3 0 12-4.3 12-11q0-4.7-3-7.6c-1.3-1.3-3.2-2.2-7.2-3.2l-5.4-1.3q-6.7-1.7-6.6-6.2c0-3.5 2.9-5.9 7.2-5.9 6.4 0 10 5.4 11.3 11h2.2zm13.8-.4-9.3.6v2.1h2.4c2 0 2.2.4 2.2 2.5v28q0 .9-.3 1.2-.4.6-3.5.7h-.2v1.8h12.7v-1.8h-.2c-3.4-.1-3.8-.4-3.8-2.2v-7.4c0-2.4.3-4.7.9-5.8 1-2.3 3.3-3.8 5.4-3.8 1.3 0 2.8.7 3.5 1.7q1.2 1.5 1.2 5v10.5q0 1-.3 1.3-.5.6-3.5.7h-.2v1.8h12.6v-1.8h-.2c-3.3-.1-3.7-.4-3.7-2.2v-10c0-3.6-.2-4.5-1-6.2a7 7 0 0 0-6.8-3.9c-3.3 0-5.7 1.5-8 4.8zm33.2 12.8c-6.1 0-10.9 5.5-10.9 12.5 0 6.8 4.8 12.3 10.8 12.3s10.8-5.5 10.8-12.4c0-6.8-4.8-12.4-10.7-12.4m0 2.2q5.4.2 5.5 10.2-.1 10.2-5.6 10.3-5.5-.2-5.5-10.2 0-10.2 5.6-10.3m33 22.2 9.1-.3v-2.2h-1.2c-3 0-3.2-.4-3.2-3.6v-17.5l-9.4.5v2.2h2.6c1.8 0 2.1.3 2.1 2.5v6.1c0 4.4-1 9.7-6.5 9.7q-2.5 0-3.5-1.6c-.7-1-.8-1.4-.8-4.2v-15.2l-8.7.5v2.2h1.9c1.8 0 2.1.3 2.1 2.5v10.8c0 2.5.2 3.7 1 4.8q2 3.1 6.7 3.2c3.3 0 5.6-1.3 7.8-4.5zm20.2-37.2-9.3.6v2.1h2.5c1.8 0 2 .4 2 2.5v27.9q0 1-.2 1.3c-.4.4-1.3.6-3.5.7h-.3v1.8h12.9v-1.8h-.3c-3.4-.1-3.8-.4-3.8-2.2zm24.5 37.2 8.7-.3v-2.2h-1c-2.8-.1-3-.4-3-3.6v-31l-9.8.5v2.1h3c1.8 0 2 .4 2 2.5v11.3a8 8 0 0 0-6.8-3.7c-5.7 0-10 5.5-10 12.7 0 7 4.2 12.1 10 12.1q4.6.1 6.9-4.3zm-6-21.8q3.3.2 5 3.8 1 2.3 1 6c0 5.9-2.4 9.6-6 9.6-3.5 0-5.6-3.3-5.6-8.8q0-4.5 1-7 1.4-3.5 4.7-3.6M2543.8 3135a2.9 2.9 0 1 0 0 5.9 2.9 2.9 0 0 0 0-5.8m2.3 12.4-9.4.6v2.1h2.6c1.9 0 2.1.4 2.1 2.5v14.3q0 1-.3 1.3-.4.7-3.4.7h-.4v1.8h13v-1.8h-.4c-3.3 0-3.8-.3-3.8-2.1zm15.5 0-8.7.6v2.1h1.8c1.9 0 2.2.4 2.2 2.5v14.3q0 1-.3 1.3-.4.7-3.5.7h-.2v1.8h12.7v-1.8h-.2c-3.4 0-3.8-.3-3.8-2.1v-7.4q0-4 .9-5.9c1-2.2 3.3-3.8 5.4-3.8 1.3 0 2.8.7 3.6 1.8q1 1.4 1 5v10.4q0 1-.2 1.3-.5.7-3.5.7h-.2v1.8h12.6v-1.8h-.2c-3.3 0-3.7-.3-3.7-2.1v-10c0-3.7-.2-4.6-1-6.3a7 7 0 0 0-6.8-3.8c-3.3 0-5.7 1.5-8 4.8zm30.2 19.5c-2.7 0-2.8 0-3.5-.4q-.5-.4-.5-1.3c0-1.5 1.3-2.2 4.7-2.3 4.6 0 5.4-.2 7-1q4.7-2.1 4.8-7.2c0-2-.5-3.2-1.8-4.9q1.2-1.3 1.6-1.2.4 0 .5.7.3 1.8 2.3 1.9 2.1-.2 2.3-2.4c0-1.7-1.4-3-3.4-3-1.5 0-2.5.6-4.7 2.7a10 10 0 0 0-6.3-2c-6 0-9.8 3.4-9.8 8.4q.2 4.6 4.2 6.7c-3.4.7-4.7 2.2-4.7 5q0 3.2 3.3 4.3-4.6 1.7-4.6 4.7.1 2.4 2.6 3.8c2 1 4.3 1.4 8 1.4q12.5 0 12.5-8c0-2.4-1.2-4.4-3-5.2a18 18 0 0 0-6.3-.7zm3-18.2q4.7.1 4.8 6-.1 6.1-5 6.3c-3.1 0-5-2.3-5-6q0-6.2 5.2-6.3m-.5 22.5 5.2.1q3.2.4 3.3 3c0 2.8-3.3 4.4-8.8 4.4q-6.6 0-6.7-3.5 0-2.2 3.3-4zM1151.5 3134l-9.3.5v2.2h2.5c1.8 0 2 .3 2 2.5v27.8q0 1-.2 1.3c-.4.5-1.3.7-3.5.7h-.3v1.8h12.9v-1.8h-.3c-3.4 0-3.8-.3-3.8-2.1zm13.5 1.2a2.9 2.9 0 1 0 0 5.8 2.9 2.9 0 0 0 0-5.8m2.3 12.4-9.4.6v2.1h2.5c2 0 2.2.4 2.2 2.5v14.3q0 1-.3 1.3-.3.7-3.5.7h-.3v1.8h13v-1.8h-.4c-3.4 0-3.8-.3-3.8-2.1zm28.7 12c0-7.4-4.2-12.7-10.3-12.7-6.4 0-11.2 5.5-11.2 13 0 7 4.5 11.8 11.3 11.8q7.1 0 10.2-7.1l-1.8-1c-2 3.9-4.1 5.4-7.5 5.4q-3.7 0-5.7-3.3-1.3-2.1-1.2-6zm-16.2-2.2c0-3.5 1.6-8.5 5.8-8.5 3 0 5 2.7 5 6.7q.2 2-2 1.8zm31.7 7.4-5.7-13.2-.2-1.1c0-.9.6-1.2 2.7-1.2h.7v-1.8h-11.8v1.8h.3c2 0 2.7.5 3.3 2.2l8.7 20h1.7l7.1-17.5c1.4-3.4 2.6-4.5 4.7-4.7h.2v-1.8h-10v1.8h.6q2.8 0 2.8 1.8 0 1-.5 2z" class="Lyrics"/><path fill="none" stroke="#000" stroke-linejoin="bevel" stroke-width="2.5" d="M1968.7 1448.9h68.5M2450.3 3159.4h14.9M2615.8 3169.6h24.3M2806.3 3159.4h14.8M2232 3159.4h14.9M2006 3169.6h57.4M1100.2 1448.9h273M920 2300h14.9M1636.1 2300h14.9M1852.9 2300h14.9M2008.7 2310.1h28.5M2249.1 2300h14.9M1080.6 3159.4h14.9M2243.3 1448.9h289.1M1296.2 3159.4h14.8M1850.2 3159.4h14.9" class="LyricsLineSegment"/><path d="M1195.2 1309a5 5 0 0 0 5 5 5 5 0 0 0 4.9-5 5 5 0 0 0-5-5 5 5 0 0 0-5 5M1757.7 3034.4a5 5 0 0 0 5 5 5 5 0 0 0 4.9-5 5 5 0 0 0-5-5 5 5 0 0 0-5 5M604.8 2174.2a5 5 0 0 0 5 5 5 5 0 0 0 5-5 5 5 0 0 0-5-5 5 5 0 0 0-5 5M604.8 3034.4a5 5 0 0 0 5 5 5 5 0 0 0 5-5 5 5 0 0 0-5-5 5 5 0 0 0-5 5M604.8 1333.8a5 5 0 0 0 5 5 5 5 0 0 0 5-5 5 5 0 0 0-5-5 5 5 0 0 0-5 5M1764 1333.8a5 5 0 0 0 4.9 5 5 5 0 0 0 5-5 5 5 0 0 0-5-5 5 5 0 0 0-5 5M1764 2174.2a5 5 0 0 0 4.9 5 5 5 0 0 0 5-5 5 5 0 0 0-5-5 5 5 0 0 0-5 5M1211.3 3059.2a5 5 0 0 0 5 5 5 5 0 0 0 4.9-5 5 5 0 0 0-5-5 5 5 0 0 0-5 5M2354.3 1284.2a5 5 0 0 0 5 5 5 5 0 0 0 5-5 5 5 0 0 0-5-5 5 5 0 0 0-5 5M1737 423.4a5 5 0 0 0 5 5 5 5 0 0 0 5-5 5 5 0 0 0-5-5 5 5 0 0 0-5 5M2364.2 3059.2a5 5 0 0 0 5 5 5 5 0 0 0 4.9-5 5 5 0 0 0-5-5 5 5 0 0 0-5 5M1195.2 2199a5 5 0 0 0 5 5 5 5 0 0 0 4.9-5 5 5 0 0 0-5-5 5 5 0 0 0-5 5M2710.7 497.8a5 5 0 0 0 5 5 5 5 0 0 0 4.9-5 5 5 0 0 0-5-5 5 5 0 0 0-5 5" class="NoteDot"/><path d="m237.8 238-.6 2.7q-.7 3.1-1.2 3.2c-.6.4-.7.4-4.2.4h-10.6c2-1.6 3.4-2.6 5.5-4 7.8-5 9.4-6.3 11-8.3q2.9-4 3-8c0-5.9-5.8-10.3-13.6-10.3-7.5 0-13.3 4.8-13.3 11 0 4 2.2 6.4 5.5 6.4q4.5-.2 4.7-4.7c0-2.3-1-3.7-3.6-5q-.9-.3-.9-1c0-1.7 3-3.6 5.7-3.6q6 .2 6 6.4c0 4.6-1.7 7.8-7.5 14-6.2 6.6-8.3 9-11 13v2.6l2.8-.2h20.7c1 0 1.7 0 3.3.2l1.3-14.8z" class="Page"/><path d="M338.7 2560.8c6.4-5.9 19-18 19-40.4 0-28.3-14-56.9-14-74.6 0-19 12.5-36.7 13.3-37.3v-.6q.1-.4-.4-1-.7-.2-1.4.7c-.4.3-19.8 17-19.8 42.6 0 27.3 12.6 46.6 12.6 82.3 0 6.9-3.3 17.7-12.3 27.4-.3 0-.3.6-.3 1q-.3.4.3.9c9 9.6 12.3 20.4 12.3 27.3 0 35.7-12.6 55-12.6 82.4a62 62 0 0 0 19.8 42.5q.6 1.1 1.4.7t.4-1v-.6a70 70 0 0 1-13.3-37.3c0-17.7 14-46.3 14-74.6a52 52 0 0 0-19-40.4M338.7 789.3c6.4-6.8 19-20.5 19-46 0-32.2-14-64.7-14-84.8a86 86 0 0 1 13.3-42.4v-.7q.1-.6-.4-1-.7-.1-1.4.6c-.4.4-19.8 19.4-19.8 48.4 0 31.1 12.6 53 12.6 93.7 0 7.7-3.3 20.1-12.3 31.1-.3 0-.3.7-.3 1q-.3.6.3 1.1a52 52 0 0 1 12.3 31c0 40.7-12.6 62.7-12.6 93.7a74 74 0 0 0 19.8 48.5q.6 1.1 1.4.7t.4-1v-.8a86 86 0 0 1-13.3-42.4c0-20.1 14-52.7 14-84.8a62 62 0 0 0-19-46M338.7 3397.1c6.4-6.7 19-20.5 19-46 0-32.1-14-64.7-14-84.8A86 86 0 0 1 357 3224v-.7q.1-.6-.4-1-.7-.2-1.4.6c-.4.4-19.8 19.5-19.8 48.5 0 31 12.6 53 12.6 93.6 0 7.8-3.3 20.2-12.3 31.2q-.4.2-.3 1-.3.5.3 1a52 52 0 0 1 12.3 31.1c0 40.7-12.6 62.6-12.6 93.7a74 74 0 0 0 19.8 48.4q.6 1.1 1.4.7t.4-1v-.7a86 86 0 0 1-13.3-42.4c0-20.2 14-52.7 14-84.9a62 62 0 0 0-19-45.9M338.7 1700.6c6.4-6 19-18 19-40.4 0-28.3-14-57-14-74.6 0-19 12.5-36.7 13.3-37.3v-.6q.1-.6-.4-1-.7-.2-1.4.6c-.4.4-19.8 17.1-19.8 42.6 0 27.3 12.6 46.6 12.6 82.4 0 6.8-3.3 17.7-12.3 27.4q-.4.2-.3.9-.3.4.3.9c9 9.6 12.3 20.5 12.3 27.3 0 35.8-12.6 55-12.6 82.4a62 62 0 0 0 19.8 42.6q.6 1 1.4.6t.4-.9v-.6a70 70 0 0 1-13.3-37.3c0-17.7 14-46.4 14-74.6a52 52 0 0 0-19-40.4" class="Bracket"/></svg>