<svg xmlns="http://www.w3.org/2000/svg" width="816" height="1056" baseProfile="full" viewBox="0 0 3060 3960"><title>general_29054120_690a831e247a0 (7)</title><desc>Generated by MuseScore Studio 4.6.3</desc><path fill="#fff" fill-rule="evenodd" d="M0 0h3060v3960H0z"/><path fill="none" stroke="#000" stroke-linejoin="bevel" stroke-width="2.7" d="M366.4 386.2h2481M366.4 411h2481M366.4 435.8h2481M366.4 460.6h2481M366.4 485.4h2481M366.4 717.3h2481M366.4 742.1h2481M366.4 766.9h2481M366.4 791.7h2481M366.4 816.5h2481M366.4 977.7h2481M366.4 1002.5h2481M366.4 1027.3h2481M366.4 1052.1h2481M366.4 1076.9h2481M366.4 1604.1h2481M366.4 1628.9h2481M366.4 1653.7h2481M366.4 1678.5h2481M366.4 1703.3h2481M366.4 1935.2h2481M366.4 1960h2481M366.4 1984.8h2481M366.4 2009.6h2481M366.4 2034.4h2481M366.4 2195.6h2481M366.4 2220.4h2481M366.4 2245.2h2481M366.4 2270h2481M366.4 2294.8h2481M366.4 2821.9h2481M366.4 2846.7h2481M366.4 2871.5h2481M366.4 2896.3h2481M366.4 2921.1h2481M366.4 3214.2h2481M366.4 3239h2481M366.4 3263.8h2481M366.4 3288.6h2481M366.4 3313.4h2481M366.4 3474.6h2481M366.4 3499.4h2481M366.4 3524.2h2481M366.4 3549h2481M366.4 3573.8h2481" class="StaffLines"/><path d="M371 321.3q-1.8 1-1.7 2 .1 1.3 1.5 1.3 1.5 0 1.7-2.2 1.9-1.4 4.2-1.4 4.6 0 4.6 5.1c0 5.2-3.4 9.5-7.5 9.5-2.4 0-4.3-1.2-4.3-2.5q0-.3.3-.4c1.2-.6 2.3-1 2.3-2.7q-.1-2.1-2.4-2.3c-1.8 0-3.1 1.5-3.1 3.4 0 3.5 3 6 7.3 6 6.5 0 11.7-5 11.7-11.5 0-4-3-6.8-7.4-6.8q-2.4-.1-5 1.3l2.2-7.6q3.1.7 5.2.7 4.2-.1 6.4-2.3 1-1.2 1-2 0-.4-.2-.5l-.5.2q-2.1 1-4.5 1-3.7 0-8.2-1.2zm31.8-12.9c-8.6 0-12.9 11.9-12.9 19 0 5.7 3 9.8 7 9.8 6.8 0 13-8.9 13-18.8 0-6-2.9-10-7-10m-.1 1.6q3.1.1 3.2 5.3c0 4-1 9-2.7 13.1q-2.7 7.3-6.2 7.2-3.3-.2-3.4-5.3c0-5.2 1.9-12.2 4.4-16.8q2-3.5 4.7-3.5M371 1539.1q-1.8 1-1.7 2 .1 1.3 1.5 1.4 1.5 0 1.7-2.2 1.9-1.5 4.2-1.5 4.6.1 4.6 5.2c0 5.2-3.4 9.4-7.5 9.4-2.4 0-4.3-1.1-4.3-2.4q0-.3.3-.5c1.2-.6 2.3-1 2.3-2.7q-.1-2-2.4-2.2c-1.8 0-3.1 1.4-3.1 3.4 0 3.5 3 6 7.3 6 6.5 0 11.7-5.1 11.7-11.5 0-4-3-6.9-7.4-6.9q-2.4 0-5 1.3l2.2-7.5q3.1.6 5.2.6 4.2 0 6.4-2.2 1-1.2 1-2 0-.5-.2-.5l-.5.2q-2.1 1-4.5 1-3.7 0-8.2-1.2zm35.2 7-1 2c-1.7 2.7-2 3-4 3h-9.3c1-1.3 2.7-2.8 6-5l6.7-4.8c3.2-2.5 4.5-4.8 4.5-8 0-4.2-3.1-7-7.7-7-5.1 0-9.6 3.8-9.6 8.1q.1 3.6 3.1 3.7 2.4-.1 2.6-2.6 0-1.4-1.8-2.4-1.3-.6-1.2-1.2c0-1.7 3-3.6 5.7-3.6s4.7 1.9 4.7 4.7c0 3-1.3 5.2-5 8.3-10.6 9.2-12.2 11-12.5 13.2h17.1l3.1-7.8zM371 2757q-1.8 1-1.7 2 .1 1.3 1.5 1.3 1.5 0 1.7-2.2 1.9-1.5 4.2-1.4 4.6 0 4.6 5.1c0 5.2-3.4 9.4-7.5 9.4-2.4 0-4.3-1-4.3-2.4q0-.3.3-.4c1.2-.6 2.3-1 2.3-2.7q-.1-2.1-2.4-2.3c-1.8 0-3.1 1.5-3.1 3.4 0 3.5 3 6 7.3 6 6.5 0 11.7-5 11.7-11.5 0-4-3-6.8-7.4-6.8q-2.4-.1-5 1.3l2.2-7.6q3.1.7 5.2.7 4.2-.1 6.4-2.3 1-1.2 1-2 0-.4-.2-.5l-.5.2q-2.1 1-4.5 1-3.7 0-8.2-1.2zm38.3-13H407l-18.6 19.3v1.6h11.2l-.6 2.5c-.8 3-.8 3-4.3 3h-.7l-.2 1.9h12.4l.2-1.9h-.7c-2.7 0-3.2-.2-3.2-1 0-.4 0-.8.4-2l.7-2.5h4.5l.6-2.1h-4.6zm-8.9 18.8h-9l12.4-12.7z" class="MeasureNumber"/><path d="m288.3 445.5-9.2-23.2q-.4-1-.4-1.5-.1-1.4 3.1-1.3h2v-2.3h-15.6v2.3h1c2.3.1 3 .6 3.9 2.8l12.6 31.7h2l11.5-29.6c1.5-3.9 2.6-4.8 5.4-4.9h.5v-2.3h-13.5v2.3h1q3.9.1 4 2.6 0 1.2-.6 2.8zm18.4 2.3a3.1 3.1 0 1 0 0 6.3 3.1 3.1 0 0 0 0-6.3M288.3 1663.4l-9.2-23.2-.4-1.5q-.1-1.4 3.1-1.3h2v-2.4h-15.6v2.4h1c2.3 0 3 .6 3.9 2.8l12.6 31.7h2l11.5-29.6c1.5-3.9 2.6-4.8 5.4-4.9h.5v-2.4h-13.5v2.4h1q3.9.1 4 2.6 0 1.2-.6 2.8zm18.4 2.2a3.1 3.1 0 1 0 3.1 3.1c0-1.7-1.4-3.1-3-3.1M288.3 2881.3 279 2858l-.4-1.6q-.1-1.3 3.1-1.2h2v-2.4h-15.6v2.3h1c2.3.1 3 .6 3.9 2.9l12.6 31.7h2l11.5-29.7c1.5-3.8 2.6-4.8 5.4-4.8h.5v-2.4h-13.5v2.3h1q3.9.1 4 2.6 0 1.3-.6 2.8zm18.4 2.1a3.1 3.1 0 1 0 3.1 3.1c0-1.7-1.4-3-3-3M224 2116.4h5.6c4.5 0 7-.3 9-1.3 3.5-1.7 5.5-4.9 5.5-8.8 0-8-7-10-13.6-10H213v2.4h.9c2.9 0 3.8.2 4.2.7.3.5.3.6.3 3.1v23.8c0 2.6 0 2.7-.3 3.1-.4.5-1.3.7-4.2.7h-.9v2.4h16.8v-2.4h-1.3c-2.9 0-3.8-.2-4.2-.7-.3-.4-.3-.5-.3-3zm0-2.3v-12.8c0-2.3.3-2.6 3-2.6h3.3q7.6 0 7.6 7.8 0 7.6-7.8 7.6zm30.8-5-8.6.6v2.2h1.8c1.9 0 2.1.3 2.1 2.5v14.3q0 1-.3 1.3-.4.6-3.4.7h-.2v1.8h12.6v-1.8h-.2c-3.3-.1-3.8-.4-3.8-2.2v-7.4c0-2.4.4-4.7 1-5.8 1-2.3 3.2-3.8 5.4-3.8 1.3 0 2.8.7 3.5 1.7q1.1 1.5 1.1 5v10.5q0 1-.3 1.3-.3.6-3.5.7h-.2v1.8h12.7v-1.8h-.2c-3.3-.1-3.8-.4-3.8-2.2v-10c0-3.6-.1-4.5-1-6.2a7 7 0 0 0-6.8-3.9q-4.7 0-7.9 4.8zm33.2-.8c-6.2 0-11 5.5-11 12.5 0 6.8 4.9 12.3 10.9 12.3s10.8-5.5 10.8-12.4c0-6.8-4.8-12.4-10.7-12.4m0 2.2q5.3.2 5.4 10.2-.1 10.2-5.5 10.3-5.5-.1-5.6-10.2 0-10.3 5.7-10.3m18.5 16.3a3.1 3.1 0 1 0 3.1 3.1c0-1.7-1.4-3-3-3M224 898.6h5.6c4.5 0 7-.4 9-1.3 3.5-1.7 5.5-5 5.5-8.9 0-8-7-9.9-13.6-9.9H213v2.4h.9c2.9 0 3.8.2 4.2.7.3.4.3.5.3 3v23.9c0 2.5 0 2.6-.3 3-.4.6-1.3.8-4.2.8h-.9v2.3h16.8v-2.3h-1.3c-2.9 0-3.8-.2-4.2-.7-.3-.5-.3-.6-.3-3.1zm0-2.3v-12.8c0-2.3.3-2.5 3-2.5h3.3q7.6-.1 7.6 7.7t-7.8 7.6zm30.8-4.9-8.6.6v2.1h1.8c1.9 0 2.1.4 2.1 2.5v14.3q0 1-.3 1.3-.4.7-3.4.7h-.2v1.8h12.6v-1.8h-.2c-3.3 0-3.8-.3-3.8-2.1v-7.4q0-4 1-5.9c1-2.2 3.2-3.8 5.4-3.8 1.3 0 2.8.7 3.5 1.8q1.1 1.5 1.1 5v10.4q0 1-.3 1.3-.3.7-3.5.7h-.2v1.8h12.7v-1.8h-.2c-3.3 0-3.8-.3-3.8-2.1v-10c0-3.7-.1-4.6-1-6.3a7 7 0 0 0-6.8-3.8q-4.7 0-7.9 4.8zm33.2-.8c-6.2 0-11 5.4-11 12.4s4.9 12.4 10.9 12.4 10.8-5.5 10.8-12.4-4.8-12.4-10.7-12.4m0 2.1q5.3.2 5.4 10.3-.1 10-5.5 10.2-5.5-.1-5.6-10.2t5.7-10.3m18.5 16.4a3.1 3.1 0 1 0 0 6.3 3.1 3.1 0 0 0 0-6.3M224 3395.5h5.6c4.5 0 7-.4 9-1.3 3.5-1.7 5.5-5 5.5-8.9 0-8-7-10-13.6-10H213v2.4h.9c2.9.1 3.8.3 4.2.8.3.4.3.5.3 3v23.8c0 2.6 0 2.7-.3 3.1-.4.5-1.3.8-4.2.8h-.9v2.3h16.8v-2.3h-1.3c-2.9 0-3.8-.2-4.2-.7-.3-.5-.3-.6-.3-3.2zm0-2.3v-12.8c0-2.3.3-2.6 3-2.6h3.3q7.6 0 7.6 7.8t-7.8 7.6zm30.8-4.9-8.6.6v2.1h1.8c1.9 0 2.1.3 2.1 2.5v14.3q0 1-.3 1.3-.4.6-3.4.7h-.2v1.8h12.6v-1.8h-.2c-3.3-.1-3.8-.4-3.8-2.1v-7.4q0-4 1-5.9c1-2.2 3.2-3.8 5.4-3.8 1.3 0 2.8.7 3.5 1.8q1.1 1.4 1.1 5v10.4q0 1-.3 1.3-.3.6-3.5.7h-.2v1.8h12.7v-1.8h-.2c-3.3-.1-3.8-.4-3.8-2.1v-10.1c0-3.6-.1-4.5-1-6.2a7 7 0 0 0-6.8-3.9q-4.7 0-7.9 4.8zm33.2-.7c-6.2 0-11 5.4-11 12.4 0 6.8 4.9 12.3 10.9 12.3s10.8-5.4 10.8-12.4c0-6.8-4.8-12.4-10.7-12.4m0 2.2c3.5 0 5.4 3.7 5.4 10.2q-.1 10.2-5.5 10.3-5.5-.1-5.6-10.2 0-10.3 5.7-10.3m18.5 16.3a3.1 3.1 0 1 0 3.1 3.1c0-1.7-1.4-3-3-3" class="InstrumentName"/><path fill="none" stroke="#000" stroke-linejoin="bevel" stroke-width="4.5" d="M368.7 1602.7v332.5M368.7 2820.5v393.7M2845.2 384.8v102M1752 2820.5v102M1560.5 1602.7v101.9M2845.2 1602.7v101.9M2845.2 2820.5v102M368.7 384.8v332.5M1653.8 384.8v102M368.7 3212.8v261.8M1752 3212.8v261.8M1560.5 1933.8v261.8M2845.2 1933.8v261.8M2845.2 716v261.7M1653.8 716v261.7M368.7 1933.8v261.8M2845.2 3212.8v261.8M368.7 716v261.7M2845.2 976.4v101.9M2845.2 3473.2v102M1560.5 2194.2v102M368.7 3473.2v102M1752 3473.2v102M368.7 2194.2v102M368.7 976.4v101.9M2845.2 2194.2v102M1653.8 976.4v101.9" class="BarLine"/><path fill-rule="evenodd" stroke="#000" stroke-linecap="round" stroke-linejoin="round" stroke-width="1.2" d="M1244.7 491.1c50.8 35.7 203 35.7 253.8 0-50.7 43.6-203 43.6-253.8 0M2097.7 470.5c38.8 33.5 123.4 43.8 169.2 20.6-46.7 31-131.3 20.8-169.2-20.6M948.6 470.5c27.9 29.1 91.3 39.4 127 20.6-37 26.6-100.4 16.3-127-20.6M691.4 3258.1a60.7 60.7 0 0 1 76.7-49.6c-30-4.4-68.4 20.4-76.7 49.6M2240.2 1925.3c62.4-35.6 178.5-23.2 232 24.8-54.4-40.1-170.4-52.5-232-24.8M1930.7 1925.3c62.5-35.6 178.5-23.2 232.1 24.8-54.4-40.1-170.4-52.5-232-24.8M1621.3 1925.3c62.5-35.6 178.5-23.2 232 24.8-54.3-40.1-170.4-52.5-232-24.8M2549.6 1925.3c62.5-35.6 178.5-23.2 232 24.8-54.3-40.1-170.3-52.5-232-24.8M833.7 3378.1c55.7 24 167.1 24 222.8 0-55.6 31.9-167 31.9-222.8 0M1792.6 3378.1c55.7 24 167.1 24 222.8 0-55.7 31.9-167.1 31.9-222.8 0M2099.6 3378.1c55.7 24 167.1 24 222.8 0-55.7 31.9-167.1 31.9-222.8 0M2406.6 3347.3c34.2 23.1 107.2 32.3 146 18.3-39.8 21.8-112.8 12.7-146-18.3M1447.7 3378.1c55.7 24 167.1 24 222.8 0-55.7 31.9-167 31.9-222.8 0M1140.7 3378.1c55.7 24 167.1 24 222.8 0-55.7 31.9-167 31.9-222.8 0" class="SlurSegment"/><path fill-rule="evenodd" stroke="#000" stroke-linecap="round" stroke-linejoin="round" stroke-width="1.2" d="M1424 1623.2c39.4-39 157.4-39 196.7 0-39.3-31-157.3-31-196.7 0M2087 1696.6c30 20.1 119.8 20.1 149.8 0-30 28-119.8 28-149.8 0M2706 1684.2c26 11.9 104.6 11.9 130.7 0-26.1 19.8-104.6 19.8-130.8 0M1614 2914.7c37.5 22.6 149.8 22.6 187.3 0-37.5 30.5-149.8 30.5-187.3 0M523 2902.1c9.5 11.6 38 11.6 47.4 0-9.5 17.5-38 17.5-47.4 0M918.4 1684.2c22.2 11.5 88.8 11.5 111 0-22.2 19.5-88.8 19.5-111 0M580.3 2902.1c175 45.6 700.2 45.6 875.2 0-175 53.6-700.1 53.6-875.2 0M1246.3 466.3c24.4 12 97.6 12 122 0-24.4 19.9-97.6 19.9-122 0M921.2 1941.9c22.2-25.3 88.9-25.3 111 0-22.1-17.4-88.8-17.4-111 0M918.4 2027.7c18.6 16.9 74.7 16.9 93.4 0-18.7 24.6-74.8 24.6-93.4 0M950.2 809.8c20.9 17.4 83.4 17.4 104.3 0-20.9 25.3-83.4 25.3-104.3 0M953 724c24.4-26.1 97.6-26.1 122 0-24.4-18.2-97.6-18.2-122 0M2099.3 834.6c32.8 21.1 131.3 21.1 164.2 0-32.8 29-131.4 29-164.2 0M2118.8 748.8c29.5-28 118-28 147.5 0-29.5-20-118-20-147.6 0M2572.8 3306.7c18.5 16.9 74 16.9 92.5 0-18.5 24.6-74 24.6-92.5 0M578.8 3468.6c244.9-53.6 979.5-53.6 1224.4 0-244.9-45.7-979.5-45.7-1224.4 0M918.4 2312.9c22.2 17.3 88.8 17.3 111 0-22.2 25.3-88.8 25.3-111 0M2183.9 1119.8c15.9 15 63.7 15 79.6 0-16 22.1-63.7 22.1-79.6 0M578.8 3592.3c244.3 45.6 977.3 45.6 1221.6 0-244.3 53.5-977.3 53.5-1221.6 0" class="TieSegment"/><path fill-rule="evenodd" stroke="#000" stroke-linecap="round" stroke-linejoin="round" stroke-width="1.2" d="M587.5 3542.7c240.8 48.7 963.4 48.7 1204.2 0-240.8 56.6-963.4 56.6-1204.2 0M950.2 1095c24.4 18.2 97.6 18.2 122 0-24.4 26.2-97.6 26.2-122 0" class="TieSegment"/><path d="M771.4 1649.7c0 7.8-4 12-9.8 16.6l.3-19.4c.2-.9 1.6-3.8 5.6-3.8 3.6 0 3.9 3.4 3.9 5.5zm-1.2-11.3c-5 0-7.8 3-8.3 3.6l.4-31.8q-.1-1.3-1.4-1.4h-1.2q-1.3.1-1.4 1.4l.5 59.6q.1 1.3 1.4 1.4.4 0 .8-.2c8.5-4.3 17.4-12.4 17.4-22.6 0-5.2-2.3-10-8.2-10M1941.4 431.8c0 7.9-4 12-9.8 16.6l.3-19.3c.2-1 1.7-3.8 5.6-3.8 3.6 0 4 3.4 4 5.4zm-1.3-11.4c-5 0-7.8 3-8.3 3.7l.4-31.9q-.1-1.2-1.4-1.3h-1.2q-1.3.1-1.4 1.3l.5 59.7q.1 1.3 1.4 1.4l.8-.2c8.5-4.3 17.5-12.4 17.5-22.7 0-5.1-2.4-10-8.3-10M1901.4 1649.7c0 7.8-4.1 12-9.9 16.6l.3-19.4c.2-.9 1.7-3.8 5.7-3.8 3.6 0 3.9 3.4 3.9 5.5zm-1.2-11.3c-5 0-7.9 3-8.4 3.6l.4-31.8q-.1-1.3-1.4-1.4h-1.1q-1.3.1-1.4 1.4l.5 59.6q.1 1.3 1.4 1.4.3 0 .8-.2c8.5-4.3 17.4-12.4 17.4-22.6 0-5.2-2.4-10-8.2-10M792.4 431.8c0 7.9-4 12-9.8 16.6l.3-19.3c.2-1 1.6-3.8 5.6-3.8 3.6 0 3.9 3.4 3.9 5.4zm-1.2-11.4c-5 0-7.8 3-8.3 3.7l.4-31.9q-.1-1.2-1.4-1.3h-1.2q-1.3.1-1.4 1.3l.5 59.7q.1 1.3 1.4 1.4l.8-.2c8.5-4.3 17.4-12.4 17.4-22.7 0-5.1-2.3-10-8.2-10M1592 1943.6c0 7.9-4.2 12-10 16.6l.4-19.4c.2-.9 1.7-3.7 5.6-3.7 3.6 0 4 3.3 4 5.4zm-1.3-11.4c-5 0-7.8 3-8.3 3.7l.4-31.9q-.1-1.3-1.4-1.4h-1.2q-1.3.1-1.4 1.4l.5 59.7q.1 1.2 1.4 1.3.4 0 .8-.2c8.5-4.2 17.5-12.4 17.5-22.6 0-5.1-2.4-10-8.3-10M1696 763c0 7.8-4.1 12-9.9 16.5l.3-19.3c.2-1 1.7-3.8 5.7-3.8 3.6 0 3.9 3.4 3.9 5.5zm-1.2-11.3c-5 0-7.9 3-8.4 3.6l.4-31.8q-.1-1.3-1.4-1.4h-1.1q-1.4.1-1.4 1.4l.5 59.6q0 1.3 1.4 1.4l.7-.2c8.6-4.3 17.5-12.4 17.5-22.6 0-5.2-2.4-10-8.2-10M1685.3 812.6c0 7.8-4 12-9.8 16.5l.3-19.3c.2-1 1.6-3.8 5.6-3.8 3.6 0 3.9 3.4 3.9 5.5zm-1.2-11.3c-5 0-7.8 3-8.3 3.6l.4-31.8q-.1-1.3-1.4-1.4h-1.2q-1.3.1-1.4 1.4l.5 59.6q.1 1.3 1.4 1.4l.8-.2c8.5-4.3 17.4-12.4 17.4-22.6 0-5.2-2.3-10-8.2-10M1689.5 1097.8c0 7.8-4 12-9.8 16.5l.3-19.3c.2-1 1.7-3.8 5.6-3.8 3.6 0 4 3.4 4 5.5zm-1.3-11.3c-5 0-7.8 3-8.3 3.6l.4-31.8q-.1-1.3-1.4-1.4h-1.2q-1.3.1-1.4 1.4l.5 59.6q.1 1.3 1.4 1.4l.8-.2c8.5-4.3 17.4-12.4 17.4-22.6 0-5.2-2.3-10-8.2-10" class="Accidental"/><path fill="none" stroke="#000" stroke-linejoin="bevel" stroke-width="4" d="M1127.6 3189.4h48.6M2393.4 3164.6h48.6M1127.6 3139.8h48.6M1127.6 3164.6h48.6M820.6 3115h48.6M2393.4 3189.4h48.6M1779.5 3115h48.5M1779.5 3139.8h48.5M1779.5 3164.6h48.5M1779.5 3189.4h48.5M820.6 3189.4h48.6M1434.6 3139.8h48.6M2393.4 3115h48.6M1434.6 3115h48.6M1434.6 3164.6h48.6M1434.6 3189.4h48.6M2393.4 3139.8h48.6M2086.5 3189.4h48.5M2086.5 3164.6h48.5M2086.5 3115h48.5M820.6 3164.6h48.6M2086.5 3139.8h48.5M820.6 3139.8h48.6M1127.6 3115h48.6M2665.6 1101.7h48.6M2073.4 1101.7h48.6M1946.5 1101.7h48.6M2158 1101.7h48.6M2327.2 1101.7h48.6M2242.6 1101.7h48.6M1701 1101.7h48.6M2411.8 1101.7h48.6M1594.6 2344.4h53.4M1861.9 1101.7h48.6M2538.7 1101.7h48.6M1594.6 2319.6h53.4M2750.2 1101.7h48.6" class="LedgerLine"/><path fill="none" stroke="#000" stroke-linejoin="bevel" stroke-width="2.5" d="M2564.5 1649.7v-64.2M1202.4 1674.5v-82.8M2255.1 1674.5v-82.8M815.6 1649.7v-64.2M2100.3 1674.5v-82.9M1606.4 1645.4v76.5M2451 456.6v-82.8M836.6 431.8v-64.1M1945.6 1649.7v-70.3M2023 1662.1v-76.6M931.7 1662.1v-70.5M1047.7 1662.1v-76.4M1404.8 1645.4v76.4M2719.2 1662.1v-70.5M1985.7 431.8v-64.1M963.5 444.2v-70.5M1259.6 444.2V380M591.2 2879.9v-76.6M2112.6 444.2v-70.5M1473.8 2879.9v-64.1M1513.4 456.6V380M1386.5 444.2V380M2281.8 456.6V374M1627.3 2892.3v-70.4M1090.4 456.6V380M1095.3 1964.2V2084M2789.3 812.6V692.5M2125.6 3148.2V3053M722.3 746.3v119.8M1740.2 812.6V692.5M1145.3 746.3v119.8M1473.8 3148.2V3053M1018 1964.2V2084M901.9 1964.2v107.4M708.5 1964.2V2084M1060.7 746.3v119.8M676.5 3292.8v70.1M753.3 3243.2v113.7M859.8 3148.2V3053M1568.3 746.3v119.8M1483.7 746.3v119.8M1356.8 746.3v119.8M1166.8 3148.2V3053M561.4 1964.2V2084M1172.7 1964.2V2084M561.4 746.3v119.8M1288.7 1964.2V2084M2432.6 3148.2V3053M1482.1 1964.2V2084M1404.8 1964.2V2084M1915.8 1951.8V2084M2281.8 812.6V692.5M2457.4 1976.6V2084M2380 2013.8v70.2M2612.1 1976.6V2084M2302.7 1976.6V2084M2225.3 1951.8V2084M2366.4 812.6V692.5M2147.9 1976.6V2084M2070.6 2013.8v70.2M2689.5 2013.8v70.2M2766.8 1976.6V2084M1993.2 1976.6V2084M2112.6 812.6V698.7M1818.6 3148.2V3053M2451 812.6V692.5M785.9 1964.2v107.4M2577.8 812.6V692.5M1838.5 1976.6V2084M1761.1 2013.8v70.2M1683.8 1976.6V2084M2534.7 1951.8V2084M933.8 746.3v107.4M1229.9 746.3v119.8M1985.7 812.6V698.7M1901.1 812.6V692.5M2704.7 812.6V692.5M1606.4 1951.8V2084M806.9 746.3v107.4M1137 3206v157M1290.5 3292.8v70.2M2671.5 3292.8v57.8M1060.3 3243.2V3363M1213.8 3243.2V3363M1367.3 3243.2V3363M1942.4 3292.8v70.2M2402.9 3206v126.2M2556.4 3292.8v57.7M1674.3 3243.2V3363M1788.9 3206v157M1597.5 3292.8v70.2M2479.6 3243.2v98.1M1520.8 3243.2V3363M1865.6 3243.2V3363M983.5 3292.8v70.2M2019.1 3243.2V3363M1444 3206v157M830 3206v157M2095.9 3206v157M906.8 3243.2V3363M2172.6 3243.2V3363M2249.4 3292.8v70.2M2326.1 3243.2V3363M2789.3 1097.8v-70.5M836.6 1073v-70.5M1047.7 2290.8v-70.4M963.5 1073v-70.5M1125.1 2290.8v-70.4M1090.4 1073v-70.5M1202.4 2290.8v-70.4M1175 1073v-70.5M1318.5 2290.8v-70.4M1259.6 1073v-70.5M1434.5 2290.8v-70.4M1386.5 1073v-70.5M1511.9 2290.8v-70.4M738.3 2290.8v-70.4M1513.4 1073v-70.5M2704.7 1097.8v-70.5M1598 1073v-70.5M2577.8 1097.8v-70.5M1740.2 1097.8v-70.5M1901.1 1097.8v-70.5M1985.7 1097.8v-70.5M2451 1097.8v-70.5M2112.6 1097.8v-70.5M2197.2 1097.8v-70.5M2366.4 1097.8v-70.5M2281.8 1097.8v-70.5M591.2 2290.8v-70.4M1818.6 3569.8V3425M815.6 2290.8v-70.4M931.7 2290.8v-70.4M591.2 1073v-70.5M752 1073v-70.5M2701.3 3569.8V3487" class="Stem"/><path d="M2280.5 396.3q-.1.6.8 1.1a40 40 0 0 1 19.3 17.8c1.7 3 4.6 7.3 4.6 15.5a65 65 0 0 1-4.4 21.7q-.3.8-.4 1.5 0 1 1 1t1.6-1.1c4.5-8 6.2-17.2 6.2-26.2a42 42 0 0 0-7.9-22.3c.3 0-9-12.2-11.8-16.3-3.6-5.7-5.3-11.3-5.5-11.7l-1-3.9q-.2-.7-1.2-.8-1.2.1-1.3 1.3zM1403.5 1721.8q.1 1 1.3 1.2.9-.1 1.2-.7l1-4c0-.3 1-4 4.5-10 4-6.4 9.9-11 14.8-18s7.9-13.5 7.9-22.2c0-9-2.1-16.6-7.4-26.2q-.5-1-1.5-1.1h-.5q-.6.4-.6 1.3 0 .5.2 1.2c4 9.2 5.6 14.5 5.6 21.6 0 8.2-2.9 12.5-4.7 15.6a42 42 0 0 1-21 17.7q-1 .5-.8 1.1zM1046.5 1608q-.2.6.8 1a40 40 0 0 1 19.2 17.8c1.8 3 4.7 7.4 4.7 15.6a65 65 0 0 1-4.5 21.6q-.4.9-.3 1.5 0 1 1 1t1.6-1c4.5-8 6.1-17.3 6.1-26.3-.5-12.8-7.8-22.2-7.8-22.2.3 0-9.1-12.2-11.8-16.4-3.7-5.6-5.4-11.3-5.6-11.7l-1-3.9q-.1-.6-1.1-.7-1.2.1-1.3 1.2z" class="Hook"/><path d="M900.7 1670.2c0 4.3 3 9 11 9 10.4 0 21.2-8.4 21.2-17.1 0-5.9-5-9.1-11.1-9.1-9.6 0-21.1 8-21.1 17.2M1482.4 464.8c0 4.2 3 9 11.1 9 10.3 0 21.2-8.4 21.2-17.2 0-5.8-5-9.1-11.2-9.1-9.6 0-21 8.1-21 17.3M1914.6 1657.8c0 4.3 3 9 11.1 9 10.3 0 21.1-8.4 21.1-17.1 0-5.9-5-9.1-11-9.1-9.7 0-21.2 8-21.2 17.2M2081.6 452.4c0 4.2 3 9 11 9 10.4 0 21.2-8.4 21.2-17.2 0-5.8-5-9.1-11.1-9.1-9.6 0-21.1 8.1-21.1 17.3M805.6 440c0 4.2 3 9 11.1 9 10.3 0 21.2-8.4 21.2-17.2 0-5.8-5-9.1-11.2-9.1-9.6 0-21 8.1-21 17.3M2688.2 1670.2c0 4.3 3 9 11.1 9 10.3 0 21.2-8.4 21.2-17.1 0-5.9-5-9.1-11.2-9.1-9.6 0-21 8-21 17.2M1355.5 452.4c0 4.2 3 9 11.1 9 10.3 0 21.2-8.4 21.2-17.2 0-5.8-5-9.1-11.2-9.1-9.6 0-21 8.1-21 17.3M1992 1670.2c0 4.3 3 9 11 9 10.4 0 21.2-8.4 21.2-17.1 0-5.9-5-9.1-11.1-9.1-9.6 0-21.1 8-21.1 17.2M2420 464.8c0 4.2 3 9 11 9 10.4 0 21.2-8.4 21.2-17.2 0-5.8-5-9.1-11.1-9.1-9.6 0-21.2 8.1-21.2 17.3M1605.2 1645.4c0 4.3 3 9 11 9 10.4 0 21.2-8.4 21.2-17.1 0-5.9-5-9.1-11.1-9.1-9.6 0-21.1 8-21.1 17.2M1403.5 1645.4c0 4.3 3 9 11.1 9 10.3 0 21.2-8.4 21.2-17.1 0-5.9-5-9.1-11.2-9.1-9.6 0-21 8-21 17.2M567.6 2892.4c-3.3 0-4-2.6-4-3.5 0-5 16.7-13.4 21.4-13.4 2.3 0 4 1.4 4 3.5 0 5-16.8 13.4-21.4 13.4m13.7-21.6c-9.6 0-21.1 8-21.1 17.3 0 4.2 3 9 11 9 10.4 0 21.2-8.4 21.2-17.2 0-5.8-5-9.1-11.1-9.1M1954.7 440c0 4.2 3 9 11 9 10.4 0 21.2-8.4 21.2-17.2 0-5.8-5-9.1-11.1-9.1-9.6 0-21.1 8.1-21.1 17.3M1804.6 2906.4q-4.1.2-6-3.2c-1.3-2.5-3-8.9-3.1-11.6q-.4-3.8 3.1-5a14 14 0 0 1 4.3-.6c2.8 0 4.6.6 6 3.3 1.3 2.6 3.1 9 3.1 11.5 0 4.8-3.4 5.6-7.4 5.6m-.8-23.6c-13.7 0-18.6 7-18.6 13.4s5 13.4 18.6 13.4 18.4-7 18.4-13.4-4.7-13.4-18.4-13.4M2224 1682.6c0 4.3 3.1 9 11.2 9 10.3 0 21-8.4 21-17.1 0-5.9-4.9-9.1-11-9.1-9.6 0-21.1 8-21.1 17.2M1059.4 464.8c0 4.2 3 9 11.1 9 10.3 0 21.2-8.4 21.2-17.2 0-5.8-5-9.1-11.2-9.1-9.6 0-21 8.1-21 17.3M1016.7 1670.2c0 4.3 3 9 11.1 9 10.3 0 21.2-8.4 21.2-17.1 0-5.9-5-9.1-11.2-9.1-9.6 0-21 8-21 17.2M932.5 452.4c0 4.2 3 9 11.1 9 10.3 0 21.2-8.4 21.2-17.2 0-5.8-5-9.1-11.2-9.1-9.6 0-21 8.1-21 17.3M1596.3 2900.5c0 4.2 3 9 11 9 10.4 0 21.2-8.4 21.2-17.2 0-5.8-5-9.1-11-9.1-9.7 0-21.2 8.1-21.2 17.3M1171.4 1682.6c0 4.3 3.1 9 11.1 9 10.4 0 21.2-8.4 21.2-17.1 0-5.9-5-9.1-11.1-9.1-9.7 0-21.2 8-21.2 17.2M2533.5 1657.8c0 4.3 3 9 11.1 9 10.3 0 21.1-8.4 21.1-17.1 0-5.9-5-9.1-11-9.1-9.7 0-21.2 8-21.2 17.2M2250.8 464.8c0 4.2 3 9 11 9 10.4 0 21.2-8.4 21.2-17.2 0-5.8-5-9.1-11.1-9.1-9.6 0-21.2 8.1-21.2 17.3M784.6 1657.8c0 4.3 3 9 11.1 9 10.3 0 21.2-8.4 21.2-17.1 0-5.9-5-9.1-11.1-9.1-9.7 0-21.2 8-21.2 17.2M1442.8 2888c0 4.3 3 9 11 9 10.4 0 21.2-8.3 21.2-17 0-6-5-9.2-11-9.2-9.7 0-21.2 8.1-21.2 17.3M1228.6 452.4c0 4.2 3 9 11.1 9 10.3 0 21.2-8.4 21.2-17.2 0-5.8-5-9.1-11.2-9.1-9.6 0-21 8.1-21 17.3M2069.3 1682.6c0 4.3 3 9 11.1 9 10.3 0 21.2-8.4 21.2-17.1 0-5.9-5-9.1-11.2-9.1-9.6 0-21 8-21 17.2M1870 771.1c0 4.3 3.1 9 11.2 9 10.3 0 21.1-8.4 21.1-17.1 0-5.9-5-9.2-11.1-9.2-9.6 0-21.1 8.2-21.1 17.3M2610.9 1976.5c0 4.3 3 9 11 9 10.4 0 21.2-8.4 21.2-17 0-6-5-9.2-11.1-9.2-9.6 0-21.2 8.1-21.2 17.2M560.2 746.3c0 4.3 3 9 11 9 10.4 0 21.2-8.4 21.2-17.1 0-5.9-5-9.2-11.1-9.2-9.6 0-21.1 8.2-21.1 17.3M1870 820.7c0 4.3 3.1 9 11.2 9 10.3 0 21.1-8.4 21.1-17.1 0-5.9-5-9.2-11.1-9.2-9.6 0-21.1 8.2-21.1 17.3M1954.7 771.1c0 4.3 3 9 11 9 10.4 0 21.2-8.4 21.2-17.1 0-5.9-5-9.2-11.1-9.2-9.6 0-21.1 8.2-21.1 17.3M805.6 746.3c0 4.3 3 9 11.1 9 10.3 0 21.2-8.4 21.2-17.1 0-5.9-5-9.2-11.2-9.2-9.6 0-21 8.2-21 17.3M1954.7 820.7c0 4.3 3 9 11 9 10.4 0 21.2-8.4 21.2-17.1 0-5.9-5-9.2-11.1-9.2-9.6 0-21.1 8.2-21.1 17.3M2378.8 2013.7c0 4.3 3 9 11 9 10.4 0 21.2-8.4 21.2-17 0-6-5-9.2-11.1-9.2-9.6 0-21.1 8.1-21.1 17.2M560.2 795.9c0 4.3 3 9 11 9 10.4 0 21.2-8.4 21.2-17.1 0-5.9-5-9.2-11.1-9.2-9.6 0-21.1 8.2-21.1 17.3M2081.6 820.7c0 4.3 3 9 11 9 10.4 0 21.2-8.4 21.2-17.1 0-5.9-5-9.2-11.1-9.2-9.6 0-21.1 8.2-21.1 17.3M2081.6 771.1c0 4.3 3 9 11 9 10.4 0 21.2-8.4 21.2-17.1 0-5.9-5-9.2-11.1-9.2-9.6 0-21.1 8.2-21.1 17.3M2456.1 1976.5c0 4.3 3.1 9 11.1 9 10.4 0 21.2-8.4 21.2-17 0-6-5-9.2-11.1-9.2-9.7 0-21.2 8.1-21.2 17.2M2250.8 771.1c0 4.3 3 9 11 9 10.4 0 21.2-8.4 21.2-17.1 0-5.9-5-9.2-11.1-9.2-9.6 0-21.2 8.2-21.2 17.3M2401.6 3156.4c0 4.2 3.1 9 11.1 9 10.4 0 21.2-8.4 21.2-17.2 0-5.8-5-9.1-11.1-9.1-9.7 0-21.2 8.1-21.2 17.3M2765.6 1976.5c0 4.3 3 9 11 9 10.4 0 21.2-8.4 21.2-17 0-6-5-9.2-11-9.2-9.7 0-21.2 8.1-21.2 17.2M2401.6 3119.2c0 4.2 3.1 9 11.1 9 10.4 0 21.2-8.4 21.2-17.2 0-5.8-5-9.1-11.1-9.1-9.7 0-21.2 8.1-21.2 17.3M2688.2 2013.7c0 4.3 3 9 11.1 9 10.3 0 21.2-8.4 21.2-17 0-6-5-9.2-11.2-9.2-9.6 0-21 8.1-21 17.2M2250.8 820.7c0 4.3 3 9 11 9 10.4 0 21.2-8.4 21.2-17.1 0-5.9-5-9.2-11.1-9.2-9.6 0-21.2 8.2-21.2 17.3M2533.5 1951.7c0 4.3 3 9 11.1 9 10.3 0 21.1-8.4 21.1-17 0-6-5-9.2-11-9.2-9.7 0-21.2 8.1-21.2 17.2M1355.5 795.9c0 4.3 3 9 11.1 9 10.3 0 21.2-8.4 21.2-17.1 0-5.9-5-9.2-11.2-9.2-9.6 0-21 8.2-21 17.3M932.5 795.9c0 4.3 3 9 11.1 9 10.3 0 21.2-8.4 21.2-17.1 0-5.9-5-9.2-11.2-9.2-9.6 0-21 8.2-21 17.3M932.5 746.3c0 4.3 3 9 11.1 9 10.3 0 21.2-8.4 21.2-17.1 0-5.9-5-9.2-11.2-9.2-9.6 0-21 8.2-21 17.3M805.6 795.9c0 4.3 3 9 11.1 9 10.3 0 21.2-8.4 21.2-17.1 0-5.9-5-9.2-11.2-9.2-9.6 0-21 8.2-21 17.3M1059.4 795.9c0 4.3 3 9 11.1 9 10.3 0 21.2-8.4 21.2-17.1 0-5.9-5-9.2-11.2-9.2-9.6 0-21 8.2-21 17.3M1059.4 746.3c0 4.3 3 9 11.1 9 10.3 0 21.2-8.4 21.2-17.1 0-5.9-5-9.2-11.2-9.2-9.6 0-21 8.2-21 17.3M1442.8 3119.2c0 4.2 3 9 11 9 10.4 0 21.2-8.4 21.2-17.2 0-5.8-5-9.1-11-9.1-9.7 0-21.2 8.1-21.2 17.3M1442.8 3156.4c0 4.2 3 9 11 9 10.4 0 21.2-8.4 21.2-17.2 0-5.8-5-9.1-11-9.1-9.7 0-21.2 8.1-21.2 17.3M1787.6 3156.4c0 4.2 3.1 9 11.1 9 10.4 0 21.2-8.4 21.2-17.2 0-5.8-5-9.1-11.1-9.1-9.7 0-21.2 8.1-21.2 17.3M1144 795.9c0 4.3 3 9 11.1 9 10.3 0 21.2-8.4 21.2-17.1 0-5.9-5-9.2-11.2-9.2-9.6 0-21 8.2-21 17.3M1144 746.3c0 4.3 3 9 11.1 9 10.3 0 21.2-8.4 21.2-17.1 0-5.9-5-9.2-11.2-9.2-9.6 0-21 8.2-21 17.3M1787.6 3119.2c0 4.2 3.1 9 11.1 9 10.4 0 21.2-8.4 21.2-17.2 0-5.8-5-9.1-11.1-9.1-9.7 0-21.2 8.1-21.2 17.3M1228.6 795.9c0 4.3 3 9 11.1 9 10.3 0 21.2-8.4 21.2-17.1 0-5.9-5-9.2-11.2-9.2-9.6 0-21 8.2-21 17.3M1228.6 746.3c0 4.3 3 9 11.1 9 10.3 0 21.2-8.4 21.2-17.1 0-5.9-5-9.2-11.2-9.2-9.6 0-21 8.2-21 17.3M1135.8 3119.2c0 4.2 3 9 11 9 10.4 0 21.2-8.4 21.2-17.2 0-5.8-5-9.1-11-9.1-9.7 0-21.2 8.1-21.2 17.3M1135.8 3156.4c0 4.2 3 9 11 9 10.4 0 21.2-8.4 21.2-17.2 0-5.8-5-9.1-11-9.1-9.7 0-21.2 8.1-21.2 17.3M2094.6 3119.2c0 4.2 3.1 9 11.1 9 10.4 0 21.2-8.4 21.2-17.2 0-5.8-5-9.1-11.1-9.1-9.7 0-21.2 8.1-21.2 17.3M1355.5 746.3c0 4.3 3 9 11.1 9 10.3 0 21.2-8.4 21.2-17.1 0-5.9-5-9.2-11.2-9.2-9.6 0-21 8.2-21 17.3M828.8 3119.2c0 4.2 3 9 11.1 9 10.3 0 21.1-8.4 21.1-17.2 0-5.8-5-9.1-11-9.1-9.7 0-21.2 8.1-21.2 17.3M828.8 3156.4c0 4.2 3 9 11.1 9 10.3 0 21.1-8.4 21.1-17.2 0-5.8-5-9.1-11-9.1-9.7 0-21.2 8.1-21.2 17.3M1482.4 795.9c0 4.3 3 9 11.1 9 10.3 0 21.2-8.4 21.2-17.1 0-5.9-5-9.2-11.2-9.2-9.6 0-21 8.2-21 17.3M1482.4 746.3c0 4.3 3 9 11.1 9 10.3 0 21.2-8.4 21.2-17.1 0-5.9-5-9.2-11.2-9.2-9.6 0-21 8.2-21 17.3M721 746.3c0 4.3 3 9 11.1 9 10.3 0 21.2-8.4 21.2-17.1 0-5.9-5-9.2-11.1-9.2-9.7 0-21.2 8.2-21.2 17.3M721 795.9c0 4.3 3 9 11.1 9 10.3 0 21.2-8.4 21.2-17.1 0-5.9-5-9.2-11.1-9.2-9.7 0-21.2 8.2-21.2 17.3M1567 795.9c0 4.3 3 9 11.1 9 10.3 0 21.2-8.4 21.2-17.1 0-5.9-5-9.2-11.2-9.2-9.6 0-21 8.2-21 17.3M752 3243.2c0 4.2 3.1 9 11.1 9 10.4 0 21.2-8.4 21.2-17.2 0-5.8-5-9.1-11.1-9.1-9.7 0-21.2 8.1-21.2 17.3M1567 746.3c0 4.3 3 9 11.1 9 10.3 0 21.2-8.4 21.2-17.1 0-5.9-5-9.2-11.2-9.2-9.6 0-21 8.2-21 17.3M675.3 3292.8c0 4.2 3 9 11.1 9 10.3 0 21.1-8.4 21.1-17.2 0-5.8-5-9.1-11-9.1-9.7 0-21.2 8.1-21.2 17.3M1709.2 820.7c0 4.3 3 9 11.1 9 10.3 0 21.1-8.4 21.1-17.1 0-5.9-5-9.2-11-9.2-9.7 0-21.2 8.2-21.2 17.3M1709.2 771.1c0 4.3 3 9 11.1 9 10.3 0 21.1-8.4 21.1-17.1 0-5.9-5-9.2-11-9.2-9.7 0-21.2 8.2-21.2 17.3M2094.6 3156.4c0 4.2 3.1 9 11.1 9 10.4 0 21.2-8.4 21.2-17.2 0-5.8-5-9.1-11.1-9.1-9.7 0-21.2 8.1-21.2 17.3M2301.4 1976.5c0 4.3 3 9 11.1 9 10.3 0 21.2-8.4 21.2-17 0-6-5-9.2-11.2-9.2-9.6 0-21 8.1-21 17.2M1016.7 2013.7c0 4.3 3 9 11.1 9 10.3 0 21.2-8.4 21.2-17 0-6-5-9.2-11.2-9.2-9.6 0-21 8.1-21 17.2M1837.2 1976.5c0 4.3 3.1 9 11.2 9 10.3 0 21-8.4 21-17 0-6-4.9-9.2-11-9.2-9.7 0-21.2 8.1-21.2 17.2M2546.8 820.7c0 4.3 3.1 9 11.2 9 10.3 0 21-8.4 21-17.1 0-5.9-4.9-9.2-11-9.2-9.7 0-21.2 8.2-21.2 17.3M707.3 2013.7c0 4.3 3 9 11 9 10.4 0 21.2-8.4 21.2-17 0-6-5-9.2-11.1-9.2-9.6 0-21.1 8.1-21.1 17.2M1759.9 2013.7c0 4.3 3 9 11 9 10.4 0 21.2-8.4 21.2-17 0-6-5-9.2-11-9.2-9.7 0-21.2 8.1-21.2 17.2M2546.8 771.1c0 4.3 3.1 9 11.2 9 10.3 0 21-8.4 21-17.1 0-5.9-4.9-9.2-11-9.2-9.7 0-21.2 8.2-21.2 17.3M784.6 2013.7c0 4.3 3 9 11.1 9 10.3 0 21.2-8.4 21.2-17 0-6-5-9.2-11.1-9.2-9.7 0-21.2 8.1-21.2 17.2M1682.5 1976.5c0 4.3 3 9 11.1 9 10.3 0 21.2-8.4 21.2-17 0-6-5-9.2-11.2-9.2-9.6 0-21 8.1-21 17.2M784.6 1964.1c0 4.3 3 9 11.1 9 10.3 0 21.2-8.4 21.2-17 0-6-5-9.2-11.1-9.2-9.7 0-21.2 8.1-21.2 17.2M900.7 1964.1c0 4.3 3 9 11 9 10.4 0 21.2-8.4 21.2-17 0-6-5-9.2-11.1-9.2-9.6 0-21.1 8.1-21.1 17.2M1287.5 1964.1c0 4.3 3 9 11 9 10.4 0 21.2-8.4 21.2-17 0-6-5-9.2-11.1-9.2-9.6 0-21.1 8.1-21.1 17.2M1403.5 2013.7c0 4.3 3 9 11.1 9 10.3 0 21.2-8.4 21.2-17 0-6-5-9.2-11.2-9.2-9.6 0-21 8.1-21 17.2M1403.5 1964.1c0 4.3 3 9 11.1 9 10.3 0 21.2-8.4 21.2-17 0-6-5-9.2-11.2-9.2-9.6 0-21 8.1-21 17.2M900.7 2013.7c0 4.3 3 9 11 9 10.4 0 21.2-8.4 21.2-17 0-6-5-9.2-11.1-9.2-9.6 0-21.1 8.1-21.1 17.2M1480.9 2013.7c0 4.3 3 9 11 9 10.4 0 21.2-8.4 21.2-17 0-6-5-9.2-11-9.2-9.7 0-21.2 8.1-21.2 17.2M1480.9 1964.1c0 4.3 3 9 11 9 10.4 0 21.2-8.4 21.2-17 0-6-5-9.2-11-9.2-9.7 0-21.2 8.1-21.2 17.2M2758.3 771.1c0 4.3 3.1 9 11.2 9 10.3 0 21-8.4 21-17.1 0-5.9-4.9-9.2-11-9.2-9.7 0-21.2 8.2-21.2 17.3M2758.3 820.7c0 4.3 3.1 9 11.2 9 10.3 0 21-8.4 21-17.1 0-5.9-4.9-9.2-11-9.2-9.7 0-21.2 8.2-21.2 17.3M2673.7 771.1c0 4.3 3.1 9 11.2 9 10.3 0 21-8.4 21-17.1 0-5.9-4.9-9.2-11-9.2-9.7 0-21.2 8.2-21.2 17.3M2673.7 820.7c0 4.3 3.1 9 11.2 9 10.3 0 21-8.4 21-17.1 0-5.9-4.9-9.2-11-9.2-9.7 0-21.2 8.2-21.2 17.3M1605.2 1951.7c0 4.3 3 9 11 9 10.4 0 21.2-8.4 21.2-17 0-6-5-9.2-11.1-9.2-9.6 0-21.1 8.1-21.1 17.2M1016.7 1964.1c0 4.3 3 9 11.1 9 10.3 0 21.2-8.4 21.2-17 0-6-5-9.2-11.2-9.2-9.6 0-21 8.1-21 17.2M1094 1964.1c0 4.3 3.1 9 11.2 9 10.3 0 21.1-8.4 21.1-17 0-6-5-9.2-11.1-9.2-9.6 0-21.1 8.1-21.1 17.2M707.3 1964.1c0 4.3 3 9 11 9 10.4 0 21.2-8.4 21.2-17 0-6-5-9.2-11.1-9.2-9.6 0-21.1 8.1-21.1 17.2M2224 1951.7c0 4.3 3.1 9 11.2 9 10.3 0 21-8.4 21-17 0-6-4.9-9.2-11-9.2-9.6 0-21.1 8.1-21.1 17.2M560.2 1964.1c0 4.3 3 9 11 9 10.4 0 21.2-8.4 21.2-17 0-6-5-9.2-11.1-9.2-9.6 0-21.1 8.1-21.1 17.2M2335.4 820.7c0 4.3 3 9 11 9 10.4 0 21.2-8.4 21.2-17.1 0-5.9-5-9.2-11.1-9.2-9.6 0-21.2 8.2-21.2 17.3M560.2 2013.7c0 4.3 3 9 11 9 10.4 0 21.2-8.4 21.2-17 0-6-5-9.2-11.1-9.2-9.6 0-21.1 8.1-21.1 17.2M2146.7 1976.5c0 4.3 3 9 11.1 9 10.3 0 21.1-8.4 21.1-17 0-6-5-9.2-11-9.2-9.7 0-21.2 8.1-21.2 17.2M2335.4 771.1c0 4.3 3 9 11 9 10.4 0 21.2-8.4 21.2-17.1 0-5.9-5-9.2-11.1-9.2-9.6 0-21.2 8.2-21.2 17.3M2069.3 2013.7c0 4.3 3 9 11.1 9 10.3 0 21.2-8.4 21.2-17 0-6-5-9.2-11.2-9.2-9.6 0-21 8.1-21 17.2M1094 2013.7c0 4.3 3.1 9 11.2 9 10.3 0 21.1-8.4 21.1-17 0-6-5-9.2-11.1-9.2-9.6 0-21.1 8.1-21.1 17.2M1992 1976.5c0 4.3 3 9 11 9 10.4 0 21.2-8.4 21.2-17 0-6-5-9.2-11.1-9.2-9.6 0-21.1 8.1-21.1 17.2M2420 820.7c0 4.3 3 9 11 9 10.4 0 21.2-8.4 21.2-17.1 0-5.9-5-9.2-11.1-9.2-9.6 0-21.2 8.2-21.2 17.3M1287.5 2013.7c0 4.3 3 9 11 9 10.4 0 21.2-8.4 21.2-17 0-6-5-9.2-11.1-9.2-9.6 0-21.1 8.1-21.1 17.2M1171.4 1964.1c0 4.3 3.1 9 11.1 9 10.4 0 21.2-8.4 21.2-17 0-6-5-9.2-11.1-9.2-9.7 0-21.2 8.1-21.2 17.2M2420 771.1c0 4.3 3 9 11 9 10.4 0 21.2-8.4 21.2-17.1 0-5.9-5-9.2-11.1-9.2-9.6 0-21.2 8.2-21.2 17.3M1914.6 1951.7c0 4.3 3 9 11.1 9 10.3 0 21.1-8.4 21.1-17 0-6-5-9.2-11-9.2-9.7 0-21.2 8.1-21.2 17.2M1171.4 2013.7c0 4.3 3.1 9 11.1 9 10.4 0 21.2-8.4 21.2-17 0-6-5-9.2-11.1-9.2-9.7 0-21.2 8.1-21.2 17.2M1519.5 3243.2c0 4.2 3.1 9 11.1 9 10.4 0 21.2-8.4 21.2-17.2 0-5.8-5-9.1-11.1-9.1-9.7 0-21.2 8.1-21.2 17.3M1289.3 3292.8c0 4.2 3 9 11 9 10.4 0 21.2-8.4 21.2-17.2 0-5.8-5-9.1-11-9.1-9.7 0-21.2 8.1-21.2 17.3M1059 3243.2c0 4.2 3.1 9 11.1 9 10.4 0 21.2-8.4 21.2-17.2 0-5.8-5-9.1-11.1-9.1-9.7 0-21.2 8.1-21.2 17.3M982.3 3292.8c0 4.2 3 9 11.1 9 10.3 0 21.1-8.4 21.1-17.2 0-5.8-5-9.1-11-9.1-9.7 0-21.2 8.1-21.2 17.3M905.5 3243.2c0 4.2 3.1 9 11.1 9 10.4 0 21.2-8.4 21.2-17.2 0-5.8-5-9.1-11.1-9.1-9.7 0-21.2 8.1-21.2 17.3M828.8 3206c0 4.2 3 9 11.1 9 10.3 0 21.1-8.4 21.1-17.2 0-5.8-5-9.1-11-9.1-9.7 0-21.2 8.1-21.2 17.3M1366 3243.2c0 4.2 3.1 9 11.1 9 10.4 0 21.2-8.4 21.2-17.2 0-5.8-5-9.1-11.1-9.1-9.7 0-21.2 8.1-21.2 17.3M1442.8 3206c0 4.2 3 9 11 9 10.4 0 21.2-8.4 21.2-17.2 0-5.8-5-9.1-11-9.1-9.7 0-21.2 8.1-21.2 17.3M1673 3243.2c0 4.2 3.1 9 11.1 9 10.4 0 21.2-8.4 21.2-17.2 0-5.8-5-9.1-11.1-9.1-9.7 0-21.2 8.1-21.2 17.3M1787.6 3206c0 4.2 3.1 9 11.1 9 10.4 0 21.2-8.4 21.2-17.2 0-5.8-5-9.1-11.1-9.1-9.7 0-21.2 8.1-21.2 17.3M1596.3 3292.8c0 4.2 3 9 11 9 10.4 0 21.2-8.4 21.2-17.2 0-5.8-5-9.1-11-9.1-9.7 0-21.2 8.1-21.2 17.3M1135.8 3206c0 4.2 3 9 11 9 10.4 0 21.2-8.4 21.2-17.2 0-5.8-5-9.1-11-9.1-9.7 0-21.2 8.1-21.2 17.3M1212.5 3243.2c0 4.2 3.1 9 11.1 9 10.4 0 21.2-8.4 21.2-17.2 0-5.8-5-9.1-11.1-9.1-9.7 0-21.2 8.1-21.2 17.3M2171.4 3243.2c0 4.2 3 9 11 9 10.4 0 21.2-8.4 21.2-17.2 0-5.8-5-9.1-11-9.1-9.7 0-21.2 8.1-21.2 17.3M2478.4 3243.2c0 4.2 3 9 11 9 10.4 0 21.2-8.4 21.2-17.2 0-5.8-5-9.1-11-9.1-9.7 0-21.2 8.1-21.2 17.3M2555.1 3292.8c0 4.2 3.1 9 11.1 9 10.4 0 21.2-8.4 21.2-17.2 0-5.8-5-9.1-11.1-9.1-9.7 0-21.2 8.1-21.2 17.3M2017.9 3243.2c0 4.2 3 9 11 9 10.4 0 21.2-8.4 21.2-17.2 0-5.8-5-9.1-11-9.1-9.7 0-21.2 8.1-21.2 17.3M1941.1 3292.8c0 4.2 3.1 9 11.1 9 10.4 0 21.2-8.4 21.2-17.2 0-5.8-5-9.1-11.1-9.1-9.7 0-21.2 8.1-21.2 17.3M2094.6 3206c0 4.2 3.1 9 11.1 9 10.4 0 21.2-8.4 21.2-17.2 0-5.8-5-9.1-11.1-9.1-9.7 0-21.2 8.1-21.2 17.3M2248.1 3292.8c0 4.2 3.1 9 11.1 9 10.4 0 21.2-8.4 21.2-17.2 0-5.8-5-9.1-11.1-9.1-9.7 0-21.2 8.1-21.2 17.3M2670.3 3292.8c0 4.2 3 9 11 9 10.4 0 21.2-8.4 21.2-17.2 0-5.8-5-9.1-11.1-9.1-9.6 0-21.2 8.1-21.2 17.3M1864.4 3243.2c0 4.2 3 9 11 9 10.4 0 21.2-8.4 21.2-17.2 0-5.8-5-9.1-11-9.1-9.7 0-21.2 8.1-21.2 17.3M2324.9 3243.2c0 4.2 3 9 11 9 10.4 0 21.2-8.4 21.2-17.2 0-5.8-5-9.1-11-9.1-9.7 0-21.2 8.1-21.2 17.3M2401.6 3206c0 4.2 3.1 9 11.1 9 10.4 0 21.2-8.4 21.2-17.2 0-5.8-5-9.1-11.1-9.1-9.7 0-21.2 8.1-21.2 17.3M560.2 2299c0 4.2 3 9 11 9 10.4 0 21.2-8.5 21.2-17.2 0-5.8-5-9.1-11.1-9.1-9.6 0-21.1 8.1-21.1 17.2M1094 2299c0 4.2 3.1 9 11.2 9 10.3 0 21.1-8.5 21.1-17.2 0-5.8-5-9.1-11.1-9.1-9.6 0-21.1 8.1-21.1 17.2M784.6 2299c0 4.2 3 9 11.1 9 10.3 0 21.2-8.5 21.2-17.2 0-5.8-5-9.1-11.1-9.1-9.7 0-21.2 8.1-21.2 17.2M1622.1 2304.9c-2.8 0-4.7-.8-6-3.3-1.2-2.4-3-8.8-3.1-11.5q-.4-4 3.2-5a14 14 0 0 1 4.2-.6c2.8 0 4.6.6 6 3.2 1.4 2.7 3.2 9 3.2 11.5 0 5-3.4 5.7-7.5 5.7m-.8-23.6c-13.7 0-18.5 7-18.5 13.4s4.8 13.4 18.5 13.4 18.5-7 18.5-13.4-4.8-13.4-18.5-13.4M932.5 1081.1c0 4.3 3 9 11.1 9 10.3 0 21.2-8.4 21.2-17.1 0-5.9-5-9.2-11.2-9.2-9.6 0-21 8.2-21 17.3M1622.1 2267.7c-2.8 0-4.7-.8-6-3.3-1.2-2.4-3-8.8-3.1-11.5q-.4-4 3.2-5a14 14 0 0 1 4.2-.6c2.8 0 4.6.6 6 3.2 1.4 2.7 3.2 9 3.2 11.5 0 5-3.4 5.7-7.5 5.7m-.8-23.6c-13.7 0-18.5 7-18.5 13.4s4.8 13.4 18.5 13.4 18.5-7 18.5-13.4-4.8-13.4-18.5-13.4M900.7 2299c0 4.2 3 9 11 9 10.4 0 21.2-8.5 21.2-17.2 0-5.8-5-9.1-11.1-9.1-9.6 0-21.1 8.1-21.1 17.2M1870 1105.9c0 4.3 3.1 9 11.2 9 10.3 0 21.1-8.4 21.1-17.1 0-5.9-5-9.2-11.1-9.2-9.6 0-21.1 8.2-21.1 17.3M1287.5 2299c0 4.2 3 9 11 9 10.4 0 21.2-8.5 21.2-17.2 0-5.8-5-9.1-11.1-9.1-9.6 0-21.1 8.1-21.1 17.2M2335.4 1105.9c0 4.3 3 9 11 9 10.4 0 21.2-8.4 21.2-17.1 0-5.9-5-9.2-11.1-9.2-9.6 0-21.2 8.2-21.2 17.3M707.3 2299c0 4.2 3 9 11 9 10.4 0 21.2-8.5 21.2-17.2 0-5.8-5-9.1-11.1-9.1-9.6 0-21.1 8.1-21.1 17.2M2166.2 1105.9c0 4.3 3 9 11 9 10.4 0 21.2-8.4 21.2-17.1 0-5.9-5-9.2-11.1-9.2-9.6 0-21.2 8.2-21.2 17.3M1059.4 1081.1c0 4.3 3 9 11.1 9 10.3 0 21.2-8.4 21.2-17.1 0-5.9-5-9.2-11.2-9.2-9.6 0-21 8.2-21 17.3M1144 1081.1c0 4.3 3 9 11.1 9 10.3 0 21.2-8.4 21.2-17.1 0-5.9-5-9.2-11.2-9.2-9.6 0-21 8.2-21 17.3M1954.7 1105.9c0 4.3 3 9 11 9 10.4 0 21.2-8.4 21.2-17.1 0-5.9-5-9.2-11.1-9.2-9.6 0-21.1 8.2-21.1 17.3M1795 3495.5c-3.2 0-3.9-2.6-3.9-3.5 0-5 16.7-13.4 21.3-13.4 2.4 0 4 1.4 4 3.5 0 5-16.8 13.4-21.3 13.4m13.7-21.6c-9.7 0-21.2 8-21.2 17.3 0 4.2 3.1 9 11.1 9 10.4 0 21.2-8.4 21.2-17.2 0-5.8-5-9.1-11.1-9.1M2420 1105.9c0 4.3 3 9 11 9 10.4 0 21.2-8.4 21.2-17.1 0-5.9-5-9.2-11.1-9.2-9.6 0-21.2 8.2-21.2 17.3M1016.7 2299c0 4.2 3 9 11.1 9 10.3 0 21.2-8.5 21.2-17.2 0-5.8-5-9.1-11.2-9.1-9.6 0-21 8.1-21 17.2M1171.4 2299c0 4.2 3.1 9 11.1 9 10.4 0 21.2-8.5 21.2-17.2 0-5.8-5-9.1-11.1-9.1-9.7 0-21.2 8.1-21.2 17.2M805.6 1081.1c0 4.3 3 9 11.1 9 10.3 0 21.2-8.4 21.2-17.1 0-5.9-5-9.2-11.2-9.2-9.6 0-21 8.2-21 17.3M2081.6 1105.9c0 4.3 3 9 11 9 10.4 0 21.2-8.4 21.2-17.1 0-5.9-5-9.2-11.1-9.2-9.6 0-21.1 8.2-21.1 17.3M1709.2 1105.9c0 4.3 3 9 11.1 9 10.3 0 21.1-8.4 21.1-17.1 0-5.9-5-9.2-11-9.2-9.7 0-21.2 8.2-21.2 17.3M577.1 3584q-4 .2-6-3.3c-1.2-2.5-3-8.9-3.1-11.6q-.4-3.8 3.2-5a14 14 0 0 1 4.2-.6c2.8 0 4.6.6 6 3.3s3.2 9 3.2 11.5c0 4.8-3.4 5.6-7.5 5.6m-.8-23.6c-13.7 0-18.5 7-18.5 13.4s4.8 13.4 18.5 13.4 18.5-7 18.5-13.4-4.8-13.4-18.5-13.4M577.1 3534.3q-4 .2-6-3.2c-1.2-2.5-3-8.9-3.1-11.6q-.4-3.8 3.2-5a14 14 0 0 1 4.2-.6c2.8 0 4.6.6 6 3.3s3.2 9 3.2 11.5c0 4.8-3.4 5.6-7.5 5.6m-.8-23.6c-13.7 0-18.5 7-18.5 13.4s4.8 13.4 18.5 13.4 18.5-7 18.5-13.4-4.8-13.4-18.5-13.4M577.1 3497.1c-2.8 0-4.6-.8-6-3.2-1.2-2.5-3-8.9-3.1-11.6q-.4-3.8 3.2-5a14 14 0 0 1 4.2-.6c2.8 0 4.6.6 6 3.3s3.2 9 3.2 11.5c0 4.8-3.4 5.6-7.5 5.6m-.8-23.6c-13.7 0-18.5 7-18.5 13.4s4.8 13.4 18.5 13.4 18.5-7 18.5-13.4-4.8-13.4-18.5-13.4M1567 1081.1c0 4.3 3 9 11.1 9 10.3 0 21.2-8.4 21.2-17.1 0-5.9-5-9.2-11.2-9.2-9.6 0-21 8.2-21 17.3M1795 3532.7c-3.2 0-3.9-2.6-3.9-3.5 0-5 16.7-13.4 21.3-13.4 2.4 0 4 1.4 4 3.5 0 5-16.8 13.4-21.3 13.4m13.7-21.6c-9.7 0-21.2 8-21.2 17.3 0 4.2 3.1 9 11.1 9 10.4 0 21.2-8.4 21.2-17.2 0-5.8-5-9.1-11.1-9.1M721 1081.1c0 4.3 3 9 11.1 9 10.3 0 21.2-8.4 21.2-17.1 0-5.9-5-9.2-11.1-9.2-9.7 0-21.2 8.2-21.2 17.3M2673.7 1105.9c0 4.3 3.1 9 11.2 9 10.3 0 21-8.4 21-17.1 0-5.9-4.9-9.2-11-9.2-9.7 0-21.2 8.2-21.2 17.3M1482.4 1081.1c0 4.3 3 9 11.1 9 10.3 0 21.2-8.4 21.2-17.1 0-5.9-5-9.2-11.2-9.2-9.6 0-21 8.2-21 17.3M2758.3 1105.9c0 4.3 3.1 9 11.2 9 10.3 0 21-8.4 21-17.1 0-5.9-4.9-9.2-11-9.2-9.7 0-21.2 8.2-21.2 17.3M1480.9 2299c0 4.2 3 9 11 9 10.4 0 21.2-8.5 21.2-17.2 0-5.8-5-9.1-11-9.1-9.7 0-21.2 8.1-21.2 17.2M2250.8 1105.9c0 4.3 3 9 11 9 10.4 0 21.2-8.4 21.2-17.1 0-5.9-5-9.2-11.1-9.2-9.6 0-21.2 8.2-21.2 17.3M2670.3 3578c0 4.2 3 9 11 9 10.4 0 21.2-8.4 21.2-17.2 0-5.8-5-9.1-11.1-9.1-9.6 0-21.2 8.1-21.2 17.3M1795 3582.3c-3.2 0-3.9-2.6-3.9-3.5 0-5 16.7-13.4 21.3-13.4 2.4 0 4 1.4 4 3.5 0 5-16.8 13.4-21.3 13.4m13.7-21.6c-9.7 0-21.2 8-21.2 17.3 0 4.2 3.1 9 11.1 9 10.4 0 21.2-8.4 21.2-17.2 0-5.8-5-9.1-11.1-9.1M1355.5 1081.1c0 4.3 3 9 11.1 9 10.3 0 21.2-8.4 21.2-17.1 0-5.9-5-9.2-11.2-9.2-9.6 0-21 8.2-21 17.3M2546.8 1105.9c0 4.3 3.1 9 11.2 9 10.3 0 21-8.4 21-17.1 0-5.9-4.9-9.2-11-9.2-9.7 0-21.2 8.2-21.2 17.3M560.2 1081.1c0 4.3 3 9 11 9 10.4 0 21.2-8.4 21.2-17.1 0-5.9-5-9.2-11.1-9.2-9.6 0-21.1 8.2-21.1 17.3M1403.5 2299c0 4.2 3 9 11.1 9 10.3 0 21.2-8.5 21.2-17.2 0-5.8-5-9.1-11.2-9.1-9.6 0-21 8.1-21 17.2M1622.1 2354.5c-2.8 0-4.7-.8-6-3.3-1.2-2.4-3-8.8-3.1-11.5q-.4-4 3.2-5a14 14 0 0 1 4.2-.6c2.8 0 4.6.6 6 3.2 1.4 2.7 3.2 9 3.2 11.5 0 5-3.4 5.7-7.5 5.7m-.8-23.6c-13.7 0-18.5 7-18.5 13.4s4.8 13.4 18.5 13.4 18.5-7 18.5-13.4-4.8-13.4-18.5-13.4M1228.6 1081.1c0 4.3 3 9 11.1 9 10.3 0 21.2-8.4 21.2-17.1 0-5.9-5-9.2-11.2-9.2-9.6 0-21 8.2-21 17.3" class="Note"/><path d="M431.2 2916.7q-3 .6-5.8.6c-14.2 0-26.3-9.9-26.3-24.9 0-12 8.6-22.9 17.3-30.4l4.8-4.4 2.2 14.1c-9 2.7-15.1 12.2-15.1 21.5 0 7 5.4 16.5 13.4 16.5.7 0 1.6-.4 1.6-1.3s-1-1.4-2.1-2.2c-4-2.4-6.1-5-6.1-9.8 0-6 4.5-11 10.3-12.3zm-8.8-102c1-4 5.5-14.3 10.7-14.3 1.4 0 3.8 4.8 3.8 11.7 0 10.3-7.6 18-14.5 24.8q-.9-6-1-12 0-5.5 1-10.1m22.9 83.6c0 7-3 14.3-10 17.2l-5.4-32.1c9 0 15.4 6 15.4 14.9m-43.7 48.8c0 6.5 5 15.2 18.5 15.2a23 23 0 0 0 12.3-3.4c5.3-3.8 6.7-10.3 6.7-16.6q0-5.6-1.6-14l-1.5-8.8c9.8-3.2 17-13.3 17-23.5a24 24 0 0 0-25.1-25.1l-2.9-17.4a56 56 0 0 0 17.8-39.1c0-9-2.8-16.4-4.4-20-2.4-5-5.2-8.5-7-8.5-.7 0-3.8 1.2-7 5-6.4 7.6-8.2 20.3-8.2 28.6 0 5.4.5 10.2 2.2 21.3-.1.1-5.3 5.4-7.4 7-9 8.5-21.5 20.5-21.5 40.4a34 34 0 0 0 34.6 33q4.4 0 7.9-.6 3 14 3 21.7-.1 15.7-15.3 15.8c-2.4 0-4.5-.5-4.7-.5l-.3-.3q0-.3.5-.4a11 11 0 0 0 9.3-11c0-5.4-4-11-11.5-11-7 0-11.4 5.6-11.4 12.2M431.2 1698.9q-3 .6-5.8.6c-14.2 0-26.3-10-26.3-25 0-12 8.6-22.8 17.3-30.4l4.8-4.3 2.2 14c-9 2.7-15.1 12.2-15.1 21.6 0 7 5.4 16.4 13.4 16.4.7 0 1.6-.4 1.6-1.2 0-1-1-1.4-2.1-2.2-4-2.4-6.1-5-6.1-9.9 0-6 4.5-10.9 10.3-12.2zm-8.8-102c1-4 5.5-14.4 10.7-14.4 1.4 0 3.8 4.9 3.8 11.7 0 10.3-7.6 18-14.5 24.8q-.9-5.9-1-12 0-5.4 1-10.1m22.9 83.6c0 7-3 14.3-10 17.2l-5.4-32c9 0 15.4 6 15.4 14.8m-43.7 48.8c0 6.6 5 15.2 18.5 15.2a23 23 0 0 0 12.3-3.4c5.3-3.7 6.7-10.3 6.7-16.5 0-3.9-.6-8.3-1.6-14l-1.5-8.8c9.8-3.2 17-13.3 17-23.6a24 24 0 0 0-25.1-25l-2.9-17.4a56 56 0 0 0 17.8-39.2c0-9-2.8-16.4-4.4-20-2.4-5-5.2-8.5-7-8.5-.7 0-3.8 1.2-7 5-6.4 7.6-8.2 20.3-8.2 28.7 0 5.3.5 10.2 2.2 21.3-.1 0-5.3 5.3-7.4 7-9 8.5-21.5 20.5-21.5 40.3a34 34 0 0 0 34.6 33.1q4.4 0 7.9-.7c1.9 9.6 3 16.5 3 21.8q-.1 15.6-15.3 15.8c-2.4 0-4.5-.5-4.7-.5l-.3-.3q0-.3.5-.4a11 11 0 0 0 9.3-11c0-5.4-4-11-11.5-11-7 0-11.4 5.6-11.4 12.1M431.2 481q-3 .6-5.8.6c-14.2 0-26.3-9.9-26.3-24.9 0-12 8.6-22.9 17.3-30.4l4.8-4.4 2.2 14.1c-9 2.7-15.1 12.2-15.1 21.5 0 7 5.4 16.5 13.4 16.5.7 0 1.6-.4 1.6-1.3s-1-1.4-2.1-2.2c-4-2.4-6.1-5-6.1-9.8 0-6 4.5-11 10.3-12.3zm-8.8-102c1-4 5.5-14.3 10.7-14.3 1.4 0 3.8 4.8 3.8 11.7 0 10.3-7.6 18-14.5 24.8q-.9-6-1-12 0-5.5 1-10.1m22.9 83.6c0 7-3 14.3-10 17.2l-5.4-32.1c9 0 15.4 6 15.4 14.9m-43.7 48.8c0 6.5 5 15.2 18.5 15.2a23 23 0 0 0 12.3-3.4c5.3-3.8 6.7-10.3 6.7-16.6q0-5.6-1.6-14L436 484c9.8-3.2 17-13.3 17-23.5a24 24 0 0 0-25.1-25.1l-2.9-17.4a56 56 0 0 0 17.8-39.1c0-9-2.8-16.4-4.4-20-2.4-5-5.2-8.5-7-8.5-.7 0-3.8 1.2-7 5-6.4 7.6-8.2 20.3-8.2 28.6 0 5.4.5 10.2 2.2 21.3-.1.1-5.3 5.4-7.4 7-9 8.5-21.5 20.5-21.5 40.4a34 34 0 0 0 34.6 33q4.4 0 7.9-.6 3 14 3 21.7-.1 15.7-15.3 15.8c-2.4 0-4.5-.5-4.7-.5l-.3-.3q0-.3.5-.4a11 11 0 0 0 9.3-11c0-5.4-4-11-11.5-11-7 0-11.4 5.6-11.4 12.2M431.2 3309q-3 .6-5.8.6c-14.2 0-26.3-9.9-26.3-24.9 0-12 8.6-22.9 17.3-30.4l4.8-4.4 2.2 14.1c-9 2.7-15.1 12.2-15.1 21.5 0 7 5.4 16.5 13.4 16.5.7 0 1.6-.4 1.6-1.3s-1-1.4-2.1-2.2c-4-2.4-6.1-5-6.1-9.8 0-6 4.5-11 10.3-12.3zm-8.8-102c1-4 5.5-14.3 10.7-14.3 1.4 0 3.8 4.8 3.8 11.7 0 10.3-7.6 18-14.5 24.8q-.9-6-1-12 0-5.5 1-10.1m22.9 83.6c0 7-3 14.3-10 17.2l-5.4-32.1c9 0 15.4 6 15.4 14.9m-43.7 48.8c0 6.5 5 15.2 18.5 15.2a23 23 0 0 0 12.3-3.4c5.3-3.8 6.7-10.3 6.7-16.6q0-5.6-1.6-14l-1.5-8.8c9.8-3.2 17-13.3 17-23.5a24 24 0 0 0-25.1-25.1l-2.9-17.4a56 56 0 0 0 17.8-39.1c0-9-2.8-16.4-4.4-20-2.4-5-5.2-8.5-7-8.5-.7 0-3.8 1.2-7 5-6.4 7.6-8.2 20.3-8.2 28.6 0 5.4.5 10.2 2.2 21.3-.1.1-5.3 5.4-7.4 7-9 8.5-21.5 20.5-21.5 40.4a34 34 0 0 0 34.6 33q4.4 0 7.9-.6 3 14 3 21.7-.1 15.7-15.3 15.8c-2.4 0-4.5-.5-4.7-.5l-.3-.3q0-.3.5-.4a11 11 0 0 0 9.3-11c0-5.4-4-11-11.5-11-7 0-11.4 5.6-11.4 12.2M431.2 2030q-3 .6-5.8.6c-14.2 0-26.3-10-26.3-24.9 0-12 8.6-22.9 17.3-30.5q2.5-2 4.8-4.3l2.2 14c-9 2.8-15.1 12.3-15.1 21.6 0 7 5.4 16.5 13.4 16.5.7 0 1.6-.4 1.6-1.3s-1-1.4-2.1-2.2c-4-2.4-6.1-5-6.1-9.8 0-6 4.5-11 10.3-12.3zm-8.8-102c1-4 5.5-14.3 10.7-14.3 1.4 0 3.8 4.8 3.8 11.7 0 10.3-7.6 18-14.5 24.8q-.9-6-1-12 0-5.5 1-10.2m22.9 83.7c0 7-3 14.2-10 17.1l-5.4-32c9 0 15.4 6 15.4 14.9m-43.7 48.8c0 6.5 5 15.2 18.5 15.2a23 23 0 0 0 12.3-3.4c5.3-3.8 6.7-10.3 6.7-16.6 0-3.9-.6-8.3-1.6-14l-1.5-8.8c9.8-3.2 17-13.3 17-23.5a24 24 0 0 0-25.1-25.1l-2.9-17.4a56 56 0 0 0 17.8-39.2c0-9-2.8-16.3-4.4-20-2.4-5-5.2-8.4-7-8.4-.7 0-3.8 1.2-7 5-6.4 7.6-8.2 20.3-8.2 28.6 0 5.3.5 10.2 2.2 21.3-.1.1-5.3 5.4-7.4 7-9 8.5-21.5 20.5-21.5 40.4a34 34 0 0 0 34.6 33q4.4 0 7.9-.6 3 14 3 21.7-.1 15.6-15.3 15.8c-2.4 0-4.5-.5-4.7-.5l-.3-.3q0-.3.5-.4a11 11 0 0 0 9.3-11c0-5.4-4-11-11.5-11-7 0-11.4 5.6-11.4 12.2M431.2 812.2q-3 .6-5.8.6c-14.2 0-26.3-10-26.3-25 0-12 8.6-22.9 17.3-30.4l4.8-4.4 2.2 14.1c-9 2.7-15.1 12.2-15.1 21.6 0 7 5.4 16.4 13.4 16.4.7 0 1.6-.4 1.6-1.3s-1-1.4-2.1-2.1c-4-2.4-6.1-5-6.1-9.9 0-6 4.5-10.9 10.3-12.3zm-8.8-102c1-4 5.5-14.4 10.7-14.4 1.4 0 3.8 4.9 3.8 11.7 0 10.3-7.6 18-14.5 24.8q-.9-5.9-1-12 0-5.5 1-10.1m22.9 83.6c0 7-3 14.3-10 17.2l-5.4-32c9 0 15.4 6 15.4 14.8m-43.7 48.8c0 6.6 5 15.2 18.5 15.2a23 23 0 0 0 12.3-3.4c5.3-3.7 6.7-10.3 6.7-16.5q0-5.7-1.6-14L436 815c9.8-3.1 17-13.3 17-23.5a24 24 0 0 0-25.1-25L425 749a56 56 0 0 0 17.8-39.2c0-9-2.8-16.4-4.4-20-2.4-5-5.2-8.5-7-8.5-.7 0-3.8 1.2-7 5-6.4 7.6-8.2 20.3-8.2 28.6 0 5.4.5 10.3 2.2 21.4-.1 0-5.3 5.3-7.4 7-9 8.4-21.5 20.4-21.5 40.3a34 34 0 0 0 34.6 33.1q4.4 0 7.9-.7c1.9 9.6 3 16.5 3 21.8q-.1 15.6-15.3 15.7c-2.4 0-4.5-.5-4.7-.5l-.3-.3q0-.3.5-.4a11 11 0 0 0 9.3-11c0-5.3-4-11-11.5-11-7 0-11.4 5.7-11.4 12.2M445.8 2208c0 2.9 2.2 5 4.8 5s4.8-2.1 4.8-5c0-2.7-2.2-5-4.8-5s-4.8 2.3-4.8 5m-31-12.5c-7.6 0-13.7 4.3-13.8 4.3a23 23 0 0 0-9.6 18.1c0 7.2 4.2 12.6 11.5 12.6 6.4 0 11.3-4.3 11.3-10.8a10.6 10.6 0 0 0-13.7-9.8c-1 .4-2.7 1.4-3.5 2 .7-4.3 3.7-8.7 7.6-10.8a19 19 0 0 1 9.1-2q15.1 0 15.1 24.8c0 13-8.2 31.5-18 40.2a85 85 0 0 1-20.1 14s-1.2.6-1.2 1.8l.1.5c.3 1 1.2 1.2 1.8 1.2l.5-.1s11.4-4.7 20.4-11.7c14-10 29.6-27.7 29.6-46 0-17.2-9.3-28.3-27.2-28.3m31.1 37c0 2.9 2.2 5.1 4.8 5.1s4.8-2.2 4.8-5-2.2-5-4.8-5-4.8 2.2-4.8 5M445.8 990.2c0 2.8 2.2 5 4.8 5s4.8-2.2 4.8-5-2.2-5-4.8-5-4.8 2.2-4.8 5m-31-12.6c-7.6 0-13.7 4.4-13.8 4.4a23 23 0 0 0-9.6 18c0 7.3 4.2 12.7 11.5 12.7 6.4 0 11.3-4.3 11.3-10.9a10.6 10.6 0 0 0-13.7-9.8c-1 .4-2.7 1.4-3.5 2.1.7-4.4 3.7-8.7 7.6-10.8a19 19 0 0 1 9.1-2q15.1-.1 15.1 24.8c0 12.9-8.2 31.4-18 40.2a85 85 0 0 1-20.1 13.9s-1.2.7-1.2 1.9l.1.4c.3 1 1.2 1.2 1.8 1.2h.5s11.4-4.7 20.4-11.8c14-10 29.6-27.6 29.6-45.9 0-17.3-9.3-28.4-27.2-28.4m31.1 37.1c0 2.8 2.2 5.1 4.8 5.1s4.8-2.3 4.8-5-2.2-5.1-4.8-5.1-4.8 2.3-4.8 5M445.8 3487c0 2.9 2.2 5 4.8 5s4.8-2.1 4.8-5c0-2.7-2.2-5-4.8-5s-4.8 2.3-4.8 5m-31-12.5c-7.6 0-13.7 4.4-13.8 4.4a23 23 0 0 0-9.6 18c0 7.3 4.2 12.6 11.5 12.6 6.4 0 11.3-4.2 11.3-10.8a10.6 10.6 0 0 0-13.7-9.8c-1 .4-2.7 1.4-3.5 2 .7-4.3 3.7-8.7 7.6-10.8a19 19 0 0 1 9.1-2q15.1 0 15.1 24.9c0 12.9-8.2 31.4-18 40.2a85 85 0 0 1-20.1 13.8s-1.2.7-1.2 2l.1.4c.3 1 1.2 1.2 1.8 1.2h.5s11.4-4.7 20.4-11.8c14-10 29.6-27.7 29.6-46 0-17.2-9.3-28.3-27.2-28.3m31.1 37.1c0 2.8 2.2 5 4.8 5s4.8-2.2 4.8-5-2.2-5-4.8-5-4.8 2.2-4.8 5" class="Clef"/><path d="m481.7 378.9 8.8-1.8v16.3l-8.8 2zm15.4-3.1q1-.3 1-1.4v-5.9q0-1.2-1.3-1.4h-.2l-3.3.7v-14.7h-2.8v15.3l-8.8 1.8v-14h-2.8v14.6l-3.8.8q-1 .3-1.1 1.4v5.8q.1 1.2 1.4 1.4h.3l3.2-.7v16.3l-3.8.8q-1 .3-1.1 1.4v5.8q.1 1.2 1.4 1.3h.3l3.2-.6v14.7h2.8V404l8.8-1.8v14h2.8v-14.6l3.8-.7q1-.3 1-1.4v-5.9q0-1.3-1.3-1.3h-.2l-3.3.6v-16.3zM481.7 1596.7l8.8-1.8v16.4l-8.8 1.9zm15.4-3q1-.5 1-1.5v-5.8q0-1.3-1.3-1.4h-.2l-3.3.7v-14.8h-2.8v15.4l-8.8 1.8v-14h-2.8v14.6l-3.8.8c-.6 0-1.1.8-1.1 1.4v5.7q.1 1.3 1.4 1.4h.3l3.2-.7v16.4l-3.8.8c-.6 0-1.1.8-1.1 1.4v5.7q.1 1.3 1.4 1.4h.3l3.2-.7v14.8h2.8v-15.4l8.8-1.8v14h2.8v-14.6l3.8-.7c.6 0 1-.8 1-1.4v-5.8q0-1.3-1.3-1.4h-.2l-3.3.7v-16.4zM481.7 2814.6l8.8-1.8v16.3l-8.8 2zm15.4-3.1q1-.3 1-1.4v-5.9q0-1.2-1.3-1.3h-.2l-3.3.6v-14.7h-2.8v15.3l-8.8 1.8v-14h-2.8v14.6l-3.8.8q-1 .3-1.1 1.4v5.8q.1 1.3 1.4 1.4h.3l3.2-.7v16.3l-3.8.8q-1 .3-1.1 1.4v5.8q.1 1.3 1.4 1.3h.3l3.2-.6v14.7h2.8v-15.3l8.8-1.8v14h2.8v-14.6l3.8-.7q1-.3 1-1.4v-5.9q0-1.2-1.3-1.3h-.2l-3.3.6v-16.3zM481.7 3206.9l8.8-1.8v16.3l-8.8 2zm15.4-3.1q1-.3 1-1.4v-5.9q0-1.2-1.3-1.3h-.2l-3.3.6v-14.7h-2.8v15.3l-8.8 1.8v-14h-2.8v14.6l-3.8.8q-1 .3-1.1 1.4v5.8q.1 1.3 1.4 1.4h.3l3.2-.7v16.3l-3.8.8q-1 .3-1.1 1.4v5.8q.1 1.3 1.4 1.3h.3l3.2-.6v14.7h2.8V3232l8.8-1.8v14h2.8v-14.6l3.8-.7q1-.3 1-1.4v-5.9q0-1.2-1.3-1.3h-.2l-3.3.6v-16.3zM481.7 710l8.8-1.8v16.4l-8.8 1.9zm15.4-3q1-.5 1-1.5v-5.8q0-1.3-1.3-1.4h-.2l-3.3.7v-14.8h-2.8v15.4l-8.8 1.8v-14h-2.8V702l-3.8.7q-1 .4-1.1 1.4v5.8q.1 1.3 1.4 1.4h.3l3.2-.7V727l-3.8.7q-1 .3-1.1 1.4v5.8q.1 1.3 1.4 1.4h.3l3.2-.7v14.8h2.8V735l8.8-1.8v14h2.8v-14.6l3.8-.7c.6 0 1-.8 1-1.4v-5.8q0-1.3-1.3-1.4h-.2l-3.3.7v-16.4zM481.7 1927.8l8.8-1.7v16.3l-8.8 2zm15.4-3q1-.3 1-1.4v-5.9q0-1.3-1.3-1.4h-.2l-3.3.7V1902h-2.8v15.4l-8.8 1.8v-14h-2.8v14.6l-3.8.8q-1 .3-1.1 1.4v5.7q.1 1.3 1.4 1.4h.3l3.2-.7v16.4l-3.8.8c-.6 0-1.1.8-1.1 1.4v5.7q.1 1.3 1.4 1.4h.3l3.2-.7v14.8h2.8v-15.4l8.8-1.7v14h2.8v-14.6l3.8-.7q1-.3 1-1.4v-5.9q0-1.3-1.3-1.4h-.2l-3.3.7v-16.3zM481.7 3492l8.8-1.7v16.3l-8.8 2zm15.4-3.1q1-.3 1-1.4v-5.9q0-1.2-1.3-1.3h-.2l-3.3.6v-14.7h-2.8v15.3l-8.8 1.8v-14h-2.8v14.6l-3.8.8q-1 .3-1.1 1.4v5.8q.1 1.3 1.4 1.4h.3l3.2-.7v16.3l-3.8.8q-1 .3-1.1 1.4v5.8q.1 1.3 1.4 1.3h.3l3.2-.6v14.7h2.8v-15.3l8.8-1.8v14h2.8v-14.6l3.8-.7q1-.3 1-1.4v-5.9q0-1.2-1.3-1.3h-.2l-3.3.6v-16.3zM481.7 2213l8.8-1.7v16.3l-8.8 2zm15.4-3q1-.3 1-1.4v-5.9q0-1.3-1.3-1.4h-.2l-3.3.7v-14.8h-2.8v15.4l-8.8 1.8v-14h-2.8v14.6l-3.8.8q-1 .3-1.1 1.4v5.7q.1 1.3 1.4 1.4h.3l3.2-.7v16.4l-3.8.8c-.6 0-1.1.8-1.1 1.4v5.7q.1 1.3 1.4 1.4h.3l3.2-.7v14.8h2.8V2238l8.8-1.7v14h2.8v-14.6l3.8-.7q1-.3 1-1.4v-5.9q0-1.3-1.3-1.4h-.2l-3.3.7v-16.3zM481.7 995.2l8.8-1.8v16.4l-8.8 1.9zm15.4-3q1-.5 1-1.5V985q0-1.3-1.3-1.4h-.2l-3.3.7v-14.8h-2.8v15.4l-8.8 1.8v-14h-2.8v14.6l-3.8.7q-1 .4-1.1 1.4v5.8q.1 1.3 1.4 1.4h.3l3.2-.7v16.4l-3.8.7q-1 .3-1.1 1.4v5.8q.1 1.3 1.4 1.4h.3l3.2-.7v14.8h2.8v-15.4l8.8-1.8v14h2.8v-14.6l3.8-.7c.6 0 1-.8 1-1.4v-5.8q0-1.3-1.3-1.4h-.2l-3.3.7v-16.4z" class="KeySig"/><path d="m1732 452.3-.6-.7-11.4-14.1-.2-.6.2-.9 10.1-15.3.2-.7v-.9q0-.5-.3-.8l-16-21.7s-.4-.6-1-.6q-.4 0-.8.3-.6.5-.5 1 .1 1 .3 1.1l7.5 10.3q.3.4.3 1.2t-.3 1.2l-10 15.3-.2.8v.9q0 .5.3.8l11 13.8q-.5-.4-2.4-.4c-5 0-9 4.2-9 9.3q0 2.2 1 3.8c2.2 3.2 9.6 12.6 9.6 12.6s.5.6 1.2.6q.3 0 .6-.2.7-.5.7-1.2 0-.5-.3-.9l-3.5-6.2s-.7-1.4-.7-3.2c0-3.2 2.4-5.7 5.6-5.7a6 6 0 0 1 3.2.9l3.8 2.5.8.1q.6.1 1-.5.3-.4.3-.8t-.3-.8zM583 1670.1l-.6-.7-11.4-14-.2-.7q0-.5.2-.8l10-15.3q.3-.4.3-.7v-1q0-.4-.3-.7l-16-21.7s-.5-.6-1-.6q-.5 0-.9.3-.6.5-.5 1 .1 1 .3 1l7.6 10.4q.3.5.3 1.1 0 .8-.3 1.2l-10 15.3-.2.8v1q0 .4.3.7l11 13.8q-.5-.2-2.4-.3c-5 0-9 4.2-9 9.2q0 2.2 1 3.9c2.1 3.2 9.6 12.6 9.6 12.6s.5.6 1.2.6q.3 0 .6-.2.7-.6.7-1.2t-.3-.9l-3.5-6.2s-.7-1.4-.7-3.2c0-3.2 2.4-5.8 5.5-5.8a6 6 0 0 1 3.2 1l3.9 2.4.8.2q.6 0 1-.5l.3-.9q0-.4-.3-.8zM583 452.3l-.6-.7-11.4-14.1-.2-.6q0-.5.2-.9l10-15.3q.3-.4.3-.7v-.9q0-.5-.3-.8l-16-21.7s-.5-.6-1-.6q-.5 0-.9.3-.6.5-.5 1 .1 1 .3 1.1l7.6 10.3q.3.4.3 1.2t-.3 1.2l-10 15.3-.2.8v.9q0 .5.3.8l11 13.8q-.5-.4-2.4-.4c-5 0-9 4.2-9 9.3q0 2.2 1 3.8c2.1 3.2 9.6 12.6 9.6 12.6s.5.6 1.2.6q.3 0 .6-.2.7-.5.7-1.2 0-.5-.3-.9l-3.5-6.2s-.7-1.4-.7-3.2c0-3.2 2.4-5.7 5.5-5.7a6 6 0 0 1 3.2.9l3.9 2.5.8.1q.6.1 1-.5.3-.4.3-.8t-.3-.8zM586.6 3243.7l-.4-.1q-.8 0-1.2.8c-.4.6-3.5 6.4-8 9.7q-2 1.5-4.4 2 1.6-2 1.7-4.8a7 7 0 0 0-14.1 0c0 5.4 5.2 7.8 9.9 7.8 5.2 0 8.7-2.4 12-6.1l-11.2 35.3 2.7.8 13.8-43.7.1-.5q0-.8-.9-1.2M2693 3181l-.5-.6-11.4-14.1-.2-.6q0-.5.2-.9l10-15.3q.3-.3.3-.7v-.9q0-.5-.3-.8l-16-21.7s-.5-.6-1-.6q-.5 0-.9.3-.5.5-.5 1 .2 1 .3 1.1l7.6 10.3q.3.4.3 1.2t-.3 1.2l-10 15.3-.3.8v.9q0 .5.4.8l11 13.8q-.5-.3-2.4-.4c-5 0-9 4.2-9 9.3q-.1 2.2 1 3.8c2.1 3.2 9.6 12.6 9.6 12.6s.5.6 1.2.6l.6-.2q.6-.5.6-1.2l-.2-.8c-.4-.5-3.5-6.3-3.5-6.3s-.7-1.4-.7-3.2c0-3.2 2.4-5.7 5.5-5.7a6 6 0 0 1 3.2.9l3.9 2.5.8.1q.6.1 1-.5.3-.4.3-.8t-.3-.8z" class="Rest"/><path fill-rule="evenodd" d="M1089.2 373.8h425.5v12.4h-425.5zM1984.4 361.4l129.4 6.2V380l-129.4-6.2zM835.4 361.4l129.4 6.2V380l-129.4-6.2zM1944.4 1573l157.2 12.4v12.5l-157.2-12.4zM1944.4 1591.6l79.8 6.3v12.5l-79.8-6.3zM1472.5 2809.5l156 6.2v12.4l-156-6.2zM2563.3 1579.2l157.2 6.2v12.4l-157.2-6.1zM814.4 1579.2l118.5 6.2v12.5l-118.5-6.2zM1914.6 2077.8h234.6v12.4h-234.6zM1914.6 2059.2h234.6v12.4h-234.6zM1984.4 692.5h129.4V705h-129.4zM2533.5 2077.8H2768v12.4h-234.6zM2533.5 2059.2H2768v12.4h-234.6zM2576.6 686.3h214v12.4h-214zM2703.5 705h87v12.3h-87zM784.6 2065.4h118.5v12.4H784.6zM560.2 860h163.3v12.3H560.2zM723.5 841.3h-27.3v12.4h27.3zM1739 686.3h163.3v12.4H1739zM1902.3 705H1875v12.3h27.3zM2280.5 686.3h171.7v12.4h-171.7zM2280.5 705h87v12.3h-87zM2224 2077.8h234.6v12.4h-234.5zM2224 2059.2h234.6v12.4h-234.5zM1059.4 860h171.7v12.3h-171.7zM1059.4 841.3h87.1v12.4h-87zM1605.2 2077.8h234.5v12.4h-234.5zM1605.2 2059.2h234.5v12.4h-234.5zM805.6 847.5H935V860H805.6zM560.2 2077.8h149.5v12.4H560.2zM709.7 2059.2h-27.2v12.4h27.2zM1287.5 2077.8h195.9v12.4h-196zM1403.5 2059.2h79.9v12.4h-79.9zM675.3 3356.8l79.2-6.2v12.4l-79.2 6.2zM675.3 3338.2l79.2-6.2v12.4l-79.2 6.2zM1016.7 2077.8H1174v12.4h-157.2zM1016.7 2059.2h79.8v12.4h-79.8zM1355.5 860h214v12.3h-214zM1482.4 841.3h87v12.4h-87zM1442.8 3356.8h232.7v12.4h-232.7zM1442.8 3338.2h232.7v12.4h-232.7zM1135.8 3356.8h232.7v12.4h-232.7zM1135.8 3338.2h232.7v12.4h-232.7zM1787.6 3356.8h232.8v12.4h-232.8zM1787.6 3338.2h232.8v12.4h-232.8zM2094.6 3356.8h232.8v12.4h-232.8zM2094.6 3338.2h232.8v12.4h-232.8zM828.8 3356.8h232.7v12.4H828.8zM828.8 3338.2h232.7v12.4H828.8zM2401.6 3325.8l156 18.6v12.4l-156-18.6zM2401.6 3307.2l79.3 9.4v12.5l-79.3-9.4zM835.4 996.3h129.4v12.4H835.4zM2280.5 1021.1h171.7v12.4h-171.7zM2280.5 1039.7h87v12.4h-87zM1089.2 996.3h171.7v12.4h-171.7zM1089.2 1015h87v12.3h-87zM1046.5 2214.2h157.2v12.4h-157.2zM1046.5 2232.8h79.8v12.4h-79.8zM814.4 2214.2h118.5v12.4H814.4zM1317.2 2214.2h196v12.4h-196zM1433.3 2232.8h79.8v12.4h-79.8zM1984.4 1021.1h214v12.4h-214zM2111.3 1039.7h87v12.4h-87zM1385.3 996.3h214v12.4h-214zM1512.2 1015h87v12.3h-87zM1739 1021.1h163.3v12.4H1739zM1902.3 1039.7H1875v12.4h27.3zM2576.6 1021.1h214v12.4h-214zM2703.5 1039.7h87v12.4h-87zM590 996.3h163.3v12.4H589.9zM753.3 1015H726v12.3h27.3zM590 2214.2h149.5v12.4H589.9zM739.5 2232.8h-27.3v12.4h27.3z" class="Beam"/><path d="m1151 1771.3-5.5-12.8-.2-1q-.2-1.4 2.2-1.3h1v-1.9h-11.8v1.9h.5c1.8 0 2.4.5 3.4 2.6l8.2 18.5-.8 1.8c-1.9 3.8-4.2 6.4-5.8 6.4q-.8 0-.8-.5l.1-.4.3-1.4c0-1.2-1.1-2.2-2.6-2.2-1.7 0-3 1.3-3 3.1 0 2.3 1.9 3.9 4.5 3.9q4 0 7-4c1.5-2.1 2.5-4.2 4.7-9.7l5.7-14.1c1.2-2.9 2.2-4 4.2-4h.3v-1.9h-10v1.9h.8q2.8 0 2.7 1.8a5 5 0 0 1-.5 2zm23-17.7c-6.1 0-10.9 5.5-10.9 12.5 0 6.8 4.8 12.3 10.8 12.3s10.8-5.5 10.8-12.4c0-6.8-4.8-12.4-10.7-12.4m0 2.1q5.4.2 5.5 10.3-.1 10.1-5.6 10.2-5.5-.1-5.5-10.1 0-10.4 5.6-10.4m33 22.3 9.1-.3v-2.2h-1.2c-3-.1-3.2-.4-3.2-3.7v-17.5l-9.4.6v2.2h2.6c1.9 0 2.1.3 2.1 2.5v6.1c0 4.4-1 9.6-6.5 9.6q-2.5 0-3.5-1.5c-.7-1-.8-1.5-.8-4.2v-15.2l-8.7.5v2.2h1.9c1.9 0 2.1.3 2.1 2.5v10.8c0 2.5.2 3.7 1 4.8q2 3.1 6.7 3.2c3.3 0 5.6-1.3 7.8-4.6zm19.9-23.7-8.9.6v2.2h2c2 0 2.2.3 2.2 2.5v14.3q0 1-.3 1.3-.3.6-3.5.6h-.2v1.9h13.4v-1.9h-1c-3.3 0-3.7-.3-3.7-2.1v-2.7c0-8.4 3-14.8 7-15q-1.1 1-1 2.2c0 1.6 1.2 2.8 2.8 2.8q2.8-.1 3-3.3-.2-4-4.3-4.1-5 .1-7.5 7zM750.6 1741.5h-13v2.4h1c2.9 0 3.8.2 4.2.7.3.4.3.5.3 3.1v19.1c0 6.9-1 8.3-5.8 8.5v2.4h14.3v-2.4c-4.8-.2-5.8-1.6-5.8-8.5v-22l12 32.9h2l11-33v26.8c0 2.6 0 2.7-.2 3.2-.4.5-1.4.6-4.2.6h-1v2.4H782v-2.4h-1c-2.8 0-3.7-.1-4.1-.6s-.3-.6-.3-3.2v-23.8c0-2.5 0-2.7.3-3.1.4-.5 1.3-.6 4.2-.7h.9v-2.4h-12.6l-9.1 26.7zm55.4 20c0-3.1-.5-4.7-2-5.9q-2.4-2-7.3-2c-5.6 0-9.7 2.6-9.7 6.3q.1 2.9 2.9 3 2.6-.1 2.7-2.5 0-1-.8-2-.4-.5-.3-.7c0-1 2-2 4.4-2 1.6 0 3.3.5 4.1 1.3q1.4 1 1.3 4.2v2c-5.2.9-6.8 1.3-9.3 2.3q-6.4 2.3-6.4 7c0 3.7 2.8 5.9 7.3 5.9q5.2 0 8.7-4 1 3.7 4.4 3.6c2.2 0 4.6-1.4 4.6-2.9q0-.6-.5-.6l-.8.2q-1 .4-1.4.4-2 .1-1.9-3.5zm-4.7 6c0 3-.1 3.8-1 5a7 7 0 0 1-5.7 3.1c-2.3 0-4-1.6-4-3.9q0-3 3.3-4.6a29 29 0 0 1 7.4-1.9zm19.9-2.1v-24.8l-9.3.5v2.2h2.4c2 0 2.2.3 2.2 2.5v27.9q0 1-.3 1.3c-.4.4-1.3.6-3.5.6h-.2v1.9h12.7v-1.9h-.2c-3.4 0-3.8-.3-3.8-2.1v-5l3-3 6 8.4.3.9q.2 1-2.2.8h-1v1.9h13.3v-1.9c-2.8-.2-3.8-.8-5.9-3.4l-7-9.7 2.2-2.2c3-2.8 5-4 8.4-4.3v-1.9h-13.1v1.9h1.5q2.4 0 2.4.9t-1.2 2zm42 .8c0-7.5-4.2-12.8-10.3-12.8-6.4 0-11.2 5.6-11.2 13 0 7.1 4.6 11.8 11.3 11.8q7.2 0 10.2-7l-1.7-1c-2 3.8-4.2 5.3-7.5 5.3q-3.9 0-5.7-3.3c-1-1.5-1.3-3.2-1.3-6zm-16.2-2.2c0-3.5 1.7-8.5 5.9-8.5 3 0 5 2.7 5 6.8q.1 1.8-2.1 1.7zM2411.4 558.7l-8.9.5v2.2h2c2 0 2.2.3 2.2 2.5v14.3q0 1-.3 1.3-.3.6-3.5.7h-.2v1.8h12.7v-1.8h-.3c-3.2-.1-3.7-.4-3.7-2.2v-9.3c0-4.4 2.4-7.7 5.7-7.7q4.3 0 4.3 6v11.2q0 1-.3 1.3-.3.6-3.5.7h-.2v1.8h12.7v-1.8h-.2c-3.3-.1-3.8-.4-3.8-2.2v-8.8c0-5 2.3-8.2 5.8-8.2q4.2 0 4.2 6.6v10.6q0 1-.3 1.3-.3.6-3.5.7h-.2v1.8h12.7v-1.8h-.2c-3.3-.1-3.8-.4-3.8-2.2v-11.4c0-3-.3-4.1-1.6-5.8a7 7 0 0 0-5.9-2.9q-4.7 0-7.8 5a7 7 0 0 0-6.9-5q-4.3 0-7.2 4.6zm57.6 12c0-7.5-4.2-12.8-10.3-12.8-6.4 0-11.2 5.6-11.2 13 0 7.1 4.6 11.8 11.3 11.8q7.2 0 10.2-7l-1.7-1c-2 3.8-4.2 5.3-7.5 5.3q-3.8 0-5.7-3.3c-1-1.5-1.3-3.2-1.3-6zm-16.1-2.1c0-3.5 1.6-8.5 5.8-8.5 3 0 5 2.6 5 6.7q.1 2-2 1.8zm24.3 7.8a3.1 3.1 0 1 0 0 6.3 3.1 3.1 0 0 0 0-6.3M959.9 575.5l-5-12.8-.1-1c0-1 .4-1.2 2-1.2h1.3v-1.8h-11.2v1.8h.8q2.3-.1 2.7 1.8l.4 1.3-4.4 11.7-4.9-12.6-.2-1q0-1.4 2-1.2h1v-1.8h-11v1.8h.9q1.9-.1 2.6 2.4l7.5 19.8h1.7l6-15.8 6 15.8h1.6l7-18.4c1.1-3 1.9-3.8 3.7-3.8h.4v-1.8h-9.5v1.8h.9q2.5 0 2.4 1.8 0 .8-.4 1.8zM993 566c0-3.2-.5-4.8-2-6q-2.4-2-7.3-2c-5.6 0-9.7 2.7-9.7 6.3q.1 3 2.9 3 2.5-.1 2.7-2.5 0-1-.8-2-.4-.5-.3-.7c0-1 2-2 4.4-2 1.6 0 3.3.6 4.1 1.3q1.4 1 1.3 4.3v2c-5.2.8-6.8 1.2-9.3 2.2q-6.4 2.4-6.4 7c0 3.7 2.8 6 7.3 6q5.3-.1 8.7-4 1 3.6 4.4 3.5c2.2 0 4.6-1.4 4.6-2.9q0-.5-.5-.6l-.8.2q-1 .4-1.4.4-2 .1-1.9-3.5zm-4.7 6c0 3-.1 3.8-1 5a7 7 0 0 1-5.7 3.2c-2.3 0-4-1.7-4-4q0-3 3.3-4.6c1.6-.7 3.5-1.2 7.4-1.8zm20-13.3-8.7.5v2.2h1.8c1.9 0 2.1.3 2.1 2.5v14.3q0 1-.3 1.3-.3.6-3.4.7h-.2v1.8h12.6v-1.8h-.2c-3.3-.1-3.8-.4-3.8-2.2v-7.4c0-2.4.3-4.7 1-5.8 1-2.3 3.2-3.8 5.3-3.8 1.4 0 2.9.7 3.6 1.7q1.1 1.5 1.1 5v10.5q0 1-.3 1.3-.5.6-3.5.7h-.2v1.8h12.7v-1.8h-.2c-3.3-.1-3.8-.4-3.8-2.2v-10c0-3.6-.1-4.5-1-6.2a7 7 0 0 0-6.8-3.9q-4.7 0-7.9 4.8zm30.3 0v-10h-2q-.8 9.8-6.8 10.2v1.9h4v12.8c0 3.5.1 4.7.6 5.9q1.4 3.1 5.8 3.2c4.5 0 7.4-3.4 7.4-8.7V573h-2.2q-.2 6.8-3.9 6.8-1.8 0-2.5-1.5-.4-1.1-.4-3.7v-13.7h7.3v-2.1zM798.7 564.1l-8.4-13.5q-.6-.9-.6-1.4 0-1 2-1h3v-2.4h-16.1v2.4h1c2.3 0 3 .4 4.1 2.3l10.8 17.1v8.2c0 2.6 0 2.7-.3 3.1-.4.5-1.3.7-4.2.7h-1.3v2.4H806v-2.4h-1.3c-2.9 0-3.8-.2-4.2-.7-.3-.4-.3-.5-.3-3.1V567l7.5-13.4c2.1-4 3.7-5.2 6.9-5.4h.4v-2.4h-14.2v2.4h1.1q4-.1 3.9 2.3 0 1.1-.8 2.6zm24.1-6.2c-6.1 0-10.9 5.5-10.9 12.5 0 6.8 4.8 12.3 10.8 12.3s10.8-5.5 10.8-12.4c0-6.8-4.8-12.4-10.7-12.4m0 2.2q5.4.2 5.5 10.2-.1 10.2-5.6 10.3-5.5-.1-5.5-10.2t5.6-10.3m33 22.2 9.1-.3v-2.2h-1.2c-3 0-3.2-.4-3.2-3.6v-17.5l-9.4.5v2.2h2.6c1.8 0 2.1.3 2.1 2.5v6.1c0 4.4-1 9.7-6.5 9.7q-2.5 0-3.5-1.6c-.7-1-.8-1.4-.8-4.2v-15.2l-8.7.5v2.2h1.9c1.8 0 2.1.3 2.1 2.5v10.8c0 2.5.2 3.7 1 4.8q2 3.1 6.7 3.2c3.3 0 5.6-1.3 7.8-4.5zM2087.1 558.7h-4.7v2.1h4.7v17.4q0 1-.3 1.3-.3.6-3.5.7h-.2v1.8h12.7v-1.8h-.2c-3.3-.1-3.8-.4-3.8-2.2v-17.2h8.3c2.1 0 2.3.3 2.2 3.5v14q0 .8-.3 1.2-.3.6-3.5.7h-.2v1.8h12.7v-1.8h-.2c-3.3-.1-3.8-.4-3.8-2.2v-19.7c-3.7.3-5 .4-7.7.4h-7.5v-1c0-5 1.3-10.5 7.3-10.5q2.4 0 2.4.8l-.3.6q-.6.8-.6 1.8c0 1.5 1.4 2.6 3.1 2.6q3.1 0 3.2-3c0-3-2.9-4.8-7.4-4.8q-5.7-.1-9.2 3.4c-2.3 2.3-3.2 5-3.2 9.6zm35 0-8.7.5v2.2h1.9c1.8 0 2.1.3 2.1 2.5v14.3q0 1-.3 1.3-.3.6-3.4.7h-.3v1.8h12.7v-1.8h-.2c-3.3-.1-3.8-.4-3.8-2.2v-7.4c0-2.4.3-4.7 1-5.8 1-2.3 3.2-3.8 5.3-3.8 1.4 0 2.9.7 3.6 1.7q1.1 1.5 1.1 5v10.5q0 1-.3 1.3-.5.6-3.5.7h-.2v1.8h12.7v-1.8h-.2c-3.3-.1-3.8-.4-3.8-2.2v-10c0-3.6-.2-4.5-1-6.2a7 7 0 0 0-6.8-3.9q-4.7 0-7.9 4.8zm39.6 23.6 8.7-.3v-2.2h-1c-2.8-.1-3-.4-3-3.6V545l-9.8.6v2.1h2.9c1.9 0 2.2.4 2.2 2.5v11.3a8 8 0 0 0-7-3.7c-5.6 0-9.9 5.5-9.9 12.7 0 7 4.1 12.1 10 12.1q4.6.1 6.8-4.3zm-5.9-21.7q3.3.2 5 3.8.9 2.3.9 6c0 5.9-2.3 9.6-6 9.6-3.4 0-5.5-3.3-5.5-8.8q0-4.5.9-7c.8-2.2 2.7-3.6 4.7-3.6M1936.7 545.5h-1.9l-2 3c-3.6-2.7-5.5-3.4-9-3.4q-7 0-12 6-4.9 5.5-4.8 13.2c0 10.8 7 18.4 17 18.4 8 0 13-4.7 14.2-13l-2.4-.5q-2 11.2-11.3 11.2-11 .2-10.9-16c0-5.6.8-9.4 2.5-12.4a9 9 0 0 1 7.8-4.5q5.4.1 8.5 5c1 1.7 1.7 3.5 2.9 7.5h2.2zm16.5 12.4c-6 0-10.8 5.5-10.8 12.5 0 6.8 4.8 12.3 10.8 12.3s10.8-5.5 10.8-12.4c0-6.8-4.8-12.4-10.7-12.4m0 2.2q5.3.2 5.4 10.2-.1 10.2-5.5 10.3-5.5-.1-5.6-10.2t5.7-10.3m22.4-1.4-8.9.5v2.2h2c2 0 2.2.3 2.2 2.5v14.3q0 1-.3 1.3c-.4.4-1.3.6-3.5.7h-.2v1.8h12.6v-1.8h-.2c-3.3-.1-3.7-.4-3.7-2.2v-9.3c0-4.4 2.4-7.7 5.7-7.7q4.2 0 4.3 6v11.2q0 1-.4 1.3-.2.6-3.4.7h-.2v1.8h12.6v-1.8h-.2c-3.3-.1-3.7-.4-3.7-2.2v-8.8c0-5 2.2-8.2 5.7-8.2q4.3 0 4.3 6.6v10.6q0 1-.4 1.3-.2.6-3.4.7h-.2v1.8h12.6v-1.8h-.2c-3.2-.1-3.7-.4-3.7-2.2v-11.4c0-3-.3-4.1-1.6-5.8a7 7 0 0 0-6-2.9q-4.7 0-7.7 5a7 7 0 0 0-7-5q-4.4 0-7.1 4.6zm57.6 12c0-7.5-4.2-12.8-10.3-12.8-6.4 0-11.2 5.6-11.2 13 0 7.1 4.6 11.8 11.3 11.8q7.2 0 10.2-7l-1.7-1c-2 3.8-4.2 5.3-7.5 5.3a6 6 0 0 1-5.7-3.3c-1-1.5-1.3-3.2-1.3-6zm-16.1-2.1c0-3.5 1.6-8.5 5.8-8.5 3 0 5 2.6 5 6.7q.1 2-2 1.8zM920.3 1778l9-.3v-2.2h-1.2c-2.9-.1-3.1-.4-3.1-3.7v-17.5l-9.4.6v2.2h2.5c2 0 2.2.3 2.2 2.5v6.1c0 4.4-1 9.6-6.6 9.6q-2.3 0-3.5-1.5c-.6-1-.7-1.5-.7-4.2v-15.2l-8.8.5v2.2h2c1.8 0 2 .3 2 2.5v10.8c0 2.5.3 3.7 1 4.8q2.2 3.1 6.8 3.2c3.3 0 5.6-1.3 7.8-4.6zm20-23.7-8.7.6v2.2h1.8c2 0 2.2.3 2.2 2.5v24.4q0 1-.3 1.2-.4.7-3.5.8h-.2v1.7h13v-1.7h-.5c-3.4-.2-3.8-.4-3.8-2.2v-9.5c1.6 3 3.5 4.1 6.6 4.1 6.6 0 10-6.6 10-12.5 0-5.7-3.4-12.3-9.7-12.3q-4.5-.1-7 4.3zm6 2c3.5 0 5.5 3.4 5.5 9.3q-.1 10-5.6 10.1c-3.6 0-5.9-3.7-5.9-9.5 0-6.2 2.3-9.9 6-9.9M1413.6 1754.4l-9 .5v2.2h2.1c2 0 2.2.3 2.2 2.5v14.3q0 1-.3 1.3c-.4.4-1.3.6-3.5.6h-.2v1.9h12.6v-1.9h-.2c-3.3 0-3.7-.3-3.7-2.1v-9.3c0-4.5 2.4-7.7 5.7-7.7q4.3 0 4.3 6v11.2q0 1-.4 1.3-.3.6-3.4.6h-.2v1.9h12.6v-1.9h-.2c-3.3 0-3.7-.3-3.7-2.1v-8.9c0-5 2.2-8.1 5.7-8.1q4.3 0 4.3 6.6v10.5q0 1-.4 1.4-.3.6-3.4.6h-.2v1.9h12.6v-1.9h-.2c-3.3 0-3.7-.3-3.7-2.1v-11.4c0-3.1-.3-4.1-1.6-5.8a7 7 0 0 0-6-2.9q-4.7 0-7.7 5a7 7 0 0 0-7-5q-4.4 0-7.1 4.6zm42.3-12.4a2.9 2.9 0 1 0 0 5.8 2.9 2.9 0 0 0 0-5.8m2.3 12.4-9.3.6v2.2h2.5c1.9 0 2.1.3 2.1 2.5v14.3q0 1-.2 1.3c-.4.4-1.3.6-3.5.6h-.3v1.9h13v-1.9h-.5c-3.3 0-3.7-.3-3.7-2.1zm15.4 0-8.7.6v2.2h1.8c2 0 2.2.3 2.2 2.5v14.3q0 1-.3 1.3c-.4.4-1.3.6-3.5.6h-.2v1.9h12.7v-1.9h-.2c-3.4 0-3.8-.3-3.8-2.1v-7.4c0-2.5.3-4.7.9-5.8 1-2.3 3.3-3.8 5.4-3.8 1.3 0 2.8.6 3.6 1.7q1 1.5 1 5v10.4q0 1-.2 1.4-.5.6-3.5.6h-.2v1.9h12.6v-1.9h-.2c-3.3 0-3.7-.3-3.7-2.1v-10c0-3.6-.2-4.5-1-6.2a7 7 0 0 0-6.8-3.9c-3.3 0-5.7 1.5-8 4.8zm39.6 23.6 8.7-.3v-2.2h-.9c-2.8-.2-3-.4-3-3.7v-31l-9.9.5v2.2h3c1.9 0 2.1.3 2.1 2.5v11.3a8 8 0 0 0-6.9-3.7c-5.6 0-10 5.5-10 12.6s4.2 12.2 10 12.2q4.6.1 7-4.3zm-6-21.7c2 0 4 1.5 5 3.8q.9 2.3.9 6c0 5.9-2.3 9.6-6 9.6-3.5 0-5.6-3.3-5.6-8.9q0-4.5 1-6.8c.8-2.3 2.7-3.7 4.7-3.7m22.1 15.8a3.1 3.1 0 1 0 3.1 3.1c0-1.7-1.4-3.1-3-3.1M1238.7 558.7l-9 .5v2.2h2.1c2 0 2.2.3 2.2 2.5v14.3q0 1-.3 1.3c-.4.4-1.3.6-3.5.7h-.2v1.8h12.6v-1.8h-.2c-3.3-.1-3.7-.4-3.7-2.2v-9.3c0-4.4 2.4-7.7 5.7-7.7q4.2 0 4.3 6v11.2q0 1-.4 1.3-.3.6-3.4.7h-.2v1.8h12.6v-1.8h-.2c-3.3-.1-3.7-.4-3.7-2.2v-8.8c0-5 2.2-8.2 5.7-8.2q4.3 0 4.3 6.6v10.6q0 1-.4 1.3-.3.6-3.4.7h-.2v1.8h12.6v-1.8h-.2c-3.3-.1-3.7-.4-3.7-2.2v-11.4c0-3-.3-4.1-1.6-5.8a7 7 0 0 0-6-2.9q-4.7 0-7.7 5a7 7 0 0 0-7-5q-4.4 0-7.1 4.6zm57.6 12c0-7.5-4.2-12.8-10.3-12.8-6.4 0-11.2 5.6-11.2 13 0 7.1 4.5 11.8 11.3 11.8q7.2 0 10.2-7l-1.7-1c-2 3.8-4.2 5.3-7.5 5.3q-3.8 0-5.7-3.3c-1-1.5-1.4-3.2-1.3-6zm-16.1-2.1c0-3.5 1.6-8.5 5.8-8.5 3 0 5 2.6 5 6.7q.2 2-2.1 1.8zm26.5 3.8c0-4.9.5-6.2 3.7-9 4.9-4.3 6-6 6-9.5 0-5.2-3.9-8.7-9.6-8.7s-9.7 3-9.7 7.4c0 2.2 1.4 3.8 3.3 3.8 1.5 0 2.8-1.2 2.8-2.7q0-1.5-1.5-2.7-1-.7-.8-1c0-1.4 2.2-2.6 4.6-2.6q5.5.2 5.6 6.2 0 3.2-1.6 5.3c-3.7 5.1-3.7 5.1-4.3 6.9-.5 1.4-.7 2.6-.7 5v1.6zm-1.2 4a3 3 0 0 0-3.2 3.2c0 1.7 1.4 3.1 3.1 3.1s3.2-1.4 3.2-3.1-1.4-3.1-3.1-3.1" class="Lyrics"/><path fill="none" stroke="#000" stroke-linejoin="bevel" stroke-width="2.5" d="M962.6 1776.4h86.3M1538.5 1776.4h1298.2M2176.5 580.7H2283M1322.6 580.7h192M1053.5 580.7h38.1M523 2994.3h1299.2" class="LyricsLineSegment"/><path d="M2464.6 448.2a5 5 0 0 0 5 5 5 5 0 0 0 4.9-5 5 5 0 0 0-5-5 5 5 0 0 0-5 5M604.8 2883.9a5 5 0 0 0 5 5 5 5 0 0 0 5-5 5 5 0 0 0-5-5 5 5 0 0 0-5 5M1753.8 804.1a5 5 0 0 0 5 5 5 5 0 0 0 5-5 5 5 0 0 0-5-5 5 5 0 0 0-5 5M1753.8 754.5a5 5 0 0 0 5 5 5 5 0 0 0 5-5 5 5 0 0 0-5-5 5 5 0 0 0-5 5M604.8 1997.2a5 5 0 0 0 5 5 5 5 0 0 0 5-5 5 5 0 0 0-5-5 5 5 0 0 0-5 5M604.8 1947.6a5 5 0 0 0 5 5 5 5 0 0 0 5-5 5 5 0 0 0-5-5 5 5 0 0 0-5 5M604.8 729.7a5 5 0 0 0 5 5 5 5 0 0 0 5-5 5 5 0 0 0-5-5 5 5 0 0 0-5 5M604.8 779.3a5 5 0 0 0 5 5 5 5 0 0 0 5-5 5 5 0 0 0-5-5 5 5 0 0 0-5 5M604.8 1064.5a5 5 0 0 0 5 5 5 5 0 0 0 5-5 5 5 0 0 0-5-5 5 5 0 0 0-5 5M1832.3 3511.8a5 5 0 0 0 5 5 5 5 0 0 0 4.9-5 5 5 0 0 0-5-5 5 5 0 0 0-5 5M1753.8 1089.3a5 5 0 0 0 5 5 5 5 0 0 0 5-5 5 5 0 0 0-5-5 5 5 0 0 0-5 5M604.8 2282.4a5 5 0 0 0 5 5 5 5 0 0 0 5-5 5 5 0 0 0-5-5 5 5 0 0 0-5 5M1832.3 3561.4a5 5 0 0 0 5 5 5 5 0 0 0 4.9-5 5 5 0 0 0-5-5 5 5 0 0 0-5 5M1832.3 3487a5 5 0 0 0 5 5 5 5 0 0 0 4.9-5 5 5 0 0 0-5-5 5 5 0 0 0-5 5" class="NoteDot"/><path d="M2846.4 212.7c-3.7.6-6.7.7-12.5.7a95 95 0 0 1-13.2-.7L2819 229l3 .3.5-2.4c1-4.9 1.5-5.6 3.4-5.6h1l6.3.2h5l2.2-.1-3.7 5.5-2.8 4.3c-4.3 6.7-4.3 6.7-5.6 9.7a14 14 0 0 0-1.5 6c0 3.3 2 5.4 5 5.4q5.4-.2 5.5-6c0-10.3 1-14 9.2-31.4z" class="Page"/><path d="M338.7 897.1a64 64 0 0 0 19-46.7c0-32.8-14-65.9-14-86.3 0-22 12.5-42.5 13.3-43.2v-.7q.1-.6-.4-1-.7-.2-1.4.6c-.4.4-19.8 19.8-19.8 49.3 0 31.6 12.6 54 12.6 95.3 0 7.9-3.3 20.5-12.3 31.7-.3 0-.3.6-.3 1q-.3.6.3 1.1a54 54 0 0 1 12.3 31.6c0 41.4-12.6 63.7-12.6 95.3 0 29.2 19.4 49 19.8 49.3q.6 1.1 1.4.7t.4-1v-.8a89 89 0 0 1-13.3-43.1c0-20.5 14-53.6 14-86.3 0-26.3-12.6-40-19-46.8M338.7 3394a64 64 0 0 0 19-46.7c0-32.8-14-65.9-14-86.4 0-22 12.5-42.4 13.3-43.1v-.7q.1-.6-.4-1.1-.7-.2-1.4.7c-.4.4-19.8 19.8-19.8 49.2 0 31.7 12.6 54 12.6 95.3 0 8-3.3 20.6-12.3 31.7-.3 0-.3.7-.3 1.1q-.3.5.3 1a54 54 0 0 1 12.3 31.7c0 41.4-12.6 63.7-12.6 95.3 0 29.2 19.4 49 19.8 49.3q.6 1.1 1.4.7t.4-1v-.8a89 89 0 0 1-13.3-43.1c0-20.6 14-53.7 14-86.4 0-26.2-12.6-39.9-19-46.7M338.7 2115a64 64 0 0 0 19-46.8c0-32.7-14-65.8-14-86.3 0-22 12.5-42.4 13.3-43.1v-.8q.1-.5-.4-1-.7-.2-1.4.7c-.4.3-19.8 19.7-19.8 49.2 0 31.7 12.6 54 12.6 95.3 0 8-3.3 20.5-12.3 31.7-.3 0-.3.7-.3 1q-.3.6.3 1.1a54 54 0 0 1 12.3 31.7c0 41.3-12.6 63.6-12.6 95.3 0 29.1 19.4 49 19.8 49.3q.6 1.1 1.4.7.7-.6.4-1v-.8a89 89 0 0 1-13.3-43.2c0-20.5 14-53.6 14-86.3 0-26.2-12.6-40-19-46.7" class="Bracket"/></svg>