<svg xmlns="http://www.w3.org/2000/svg" width="816" height="1056" baseProfile="full" viewBox="0 0 3060 3960"><title>general_29054120_690a831e247a0 (3)</title><desc>Generated by MuseScore Studio 4.6.3</desc><path fill="#fff" fill-rule="evenodd" d="M0 0h3060v3960H0z"/><path fill="none" stroke="#000" stroke-linejoin="bevel" stroke-width="2.7" d="M366.4 386.2h2481M366.4 411h2481M366.4 435.8h2481M366.4 460.6h2481M366.4 485.4h2481M366.4 700.1h2481M366.4 724.9h2481M366.4 749.7h2481M366.4 774.5h2481M366.4 799.3h2481M366.4 954.3h2481M366.4 979.1h2481M366.4 1003.9h2481M366.4 1028.7h2481M366.4 1053.5h2481M366.4 1322.2h2481M366.4 1347h2481M366.4 1371.8h2481M366.4 1396.6h2481M366.4 1421.4h2481M366.4 1602.8h2481M366.4 1627.6h2481M366.4 1652.4h2481M366.4 1677.2h2481M366.4 1702h2481M366.4 1809.5h2481M366.4 1834.3h2481M366.4 1859.1h2481M366.4 1883.9h2481M366.4 1908.7h2481M366.4 2177.4h2481M366.4 2202.2h2481M366.4 2227h2481M366.4 2251.8h2481M366.4 2276.6h2481M366.4 2440.4h2481M366.4 2465.2h2481M366.4 2490h2481M366.4 2514.8h2481M366.4 2539.6h2481M366.4 2647.1h2481M366.4 2671.9h2481M366.4 2696.7h2481M366.4 2721.5h2481M366.4 2746.3h2481M366.4 3015h2481M366.4 3039.8h2481M366.4 3064.6h2481M366.4 3089.4h2481M366.4 3114.2h2481M366.4 3267.9h2481M366.4 3292.7h2481M366.4 3317.5h2481M366.4 3342.3h2481M366.4 3367.1h2481M366.4 3474.6h2481M366.4 3499.4h2481M366.4 3524.2h2481M366.4 3549h2481M366.4 3573.8h2481" class="StaffLines"/><path d="m385.8 328.3-1 1.9c-1.6 2.7-2 3-4 3h-9.2q1.3-1.8 5.9-5c5.3-3.6 5.6-3.9 6.7-4.8q4.7-3.4 4.6-8c0-4.2-3.2-7-7.8-7-5 0-9.5 3.8-9.5 8.2q.1 3.4 3.1 3.6c1.4 0 2.6-1 2.6-2.5q0-1.4-1.9-2.5c-1-.4-1-.6-1-1.1 0-1.7 2.9-3.7 5.6-3.7 2.8 0 4.7 2 4.7 4.7 0 3-1.4 5.2-5 8.3-10.6 9.3-12.2 11-12.6 13.2h17.2l3-7.7zm23.2-20H408c-2.2 1.6-6.5 3-9.3 3l-.5 1.8h2.7c2.5 0 2.8 0 2.8.8l-.4 1.8-4.3 16c-.6 2-.6 2.1-1 2.5q-.3.5-3.3.5h-1.7l-.2 1.9h14.8l.2-1.9h-2.1c-2.6 0-3.2-.2-3.2-1l.4-2zM385.8 2957l-1 2c-1.6 2.7-2 3-4 3h-9.2q1.3-1.8 5.9-5l6.7-4.8c3.2-2.5 4.6-4.8 4.6-8 0-4.2-3.2-7-7.8-7-5 0-9.5 3.8-9.5 8.1q.1 3.6 3.1 3.7c1.4 0 2.6-1 2.6-2.6q0-1.4-1.9-2.4c-1-.5-1-.7-1-1.2 0-1.7 2.9-3.6 5.6-3.6 2.8 0 4.7 1.9 4.7 4.7 0 3-1.4 5.2-5 8.3-10.6 9.2-12.2 11-12.6 13.2h17.2l3-7.8zm27.3-19.9a66 66 0 0 1-10.8.3l-4-.2-1-.1-3.9 8.4 1.5.5 1-1.6c1.9-3.1 2.7-3.5 6.8-3.5h6.8l-4.4 6.3c-5.1 7.1-5.1 7.1-7 10.3-1.8 2.9-2.6 4.6-2.6 6q.2 2.3 2.3 2.3 2.1.1 2.8-2.5c2-7.6 3.2-10.2 8.7-19.2l3.8-5.8zM385.8 2119.5l-1 1.8c-1.6 2.8-2 3-4 3h-9.2q1.3-1.7 5.9-5c5.3-3.6 5.6-3.8 6.7-4.7 3.2-2.5 4.6-4.8 4.6-8 0-4.2-3.2-7-7.8-7-5 0-9.5 3.8-9.5 8.1q.1 3.6 3.1 3.7c1.4 0 2.6-1 2.6-2.6q0-1.4-1.9-2.4c-1-.5-1-.7-1-1.2 0-1.7 2.9-3.6 5.6-3.6 2.8 0 4.7 1.9 4.7 4.7 0 3-1.4 5.2-5 8.3-10.6 9.2-12.2 11-12.6 13.2h17.2l3-7.7zm9.4-7q-1.8 1-1.6 2 .1 1.3 1.4 1.3 1.5 0 1.8-2.2 1.8-1.5 4.1-1.5 4.6.1 4.6 5.2c0 5.2-3.3 9.4-7.5 9.4-2.3 0-4.2-1-4.2-2.4q0-.2.2-.5c1.3-.6 2.3-1 2.3-2.7q-.2-2-2.4-2.2c-1.7 0-3 1.5-3 3.4 0 3.5 3 6 7.3 6 6.4 0 11.7-5.1 11.7-11.5 0-4-3.1-6.9-7.5-6.9-1.7 0-3 .4-5 1.3l2.2-7.5q3.2.6 5.3.6c2.6 0 5-.8 6.3-2.2q1-1.2 1-2 0-.5-.2-.5l-.4.2q-2.1 1-4.6 1-3.6 0-8.2-1.2zM385.8 1264.3l-1 1.9c-1.6 2.7-2 3-4 3h-9.2c1-1.3 2.7-2.7 5.9-5l6.7-4.7q4.7-3.5 4.6-8c0-4.3-3.2-7-7.8-7-5 0-9.5 3.7-9.5 8q.1 3.6 3.1 3.7c1.4 0 2.6-1 2.6-2.5q0-1.4-1.9-2.5c-1-.4-1-.6-1-1.1 0-1.7 2.9-3.6 5.6-3.6 2.8 0 4.7 1.8 4.7 4.6 0 3-1.4 5.2-5 8.4-10.6 9.2-12.2 10.9-12.6 13.1h17.2l3-7.7zm18.5-6.3c1.9-.5 2.6-.9 3.6-1.5 1.9-1.3 3-3.5 3-5.7 0-3.8-3-6.3-7.5-6.3s-8 2.7-8 6q.1 2.5 2.5 2.7 2.1-.2 2.3-2.3 0-.9-.9-1.8-.6-.4-.5-.9c0-1 2-2 3.8-2q4.2.1 4.3 4c0 3.6-2.5 7-5.2 7l-.9-.2h-1.4q-1.4 0-1.4 1t1.2 1.1h.8q1-.3 1.5-.2c1.9 0 3.2 1.7 3.2 4.1 0 4.4-2.1 8.5-7 8.5-2.2 0-4.1-1.1-4.1-2.4q-.1-.5.7-.9 1.7-.7 1.7-2.3c0-1.4-1.1-2.5-2.6-2.5q-2.7.2-2.8 3.5c0 3.9 3 6.3 7.7 6.3 6 0 10.7-4 10.7-9.4 0-3.1-2-4.9-4.7-5.8" class="MeasureNumber"/><path d="m288.3 445.5-9.2-23.2q-.4-1-.4-1.5-.1-1.4 3.1-1.3h2v-2.3h-15.6v2.3h1c2.3.1 3 .6 3.9 2.8l12.6 31.7h2l11.5-29.6c1.5-3.9 2.6-4.8 5.4-4.9h.5v-2.3h-13.5v2.3h1q3.9.1 4 2.6 0 1.2-.6 2.8zm18.4 2.3a3.1 3.1 0 1 0 0 6.3 3.1 3.1 0 0 0 0-6.3M288.3 1381.6l-9.2-23.2-.4-1.6q-.1-1.3 3.1-1.2h2v-2.4h-15.6v2.3h1c2.3.1 3 .7 3.9 2.8l12.6 31.8h2l11.5-29.7c1.5-3.9 2.6-4.7 5.4-4.9h.5v-2.3h-13.5v2.3h1q3.9 0 4 2.7 0 1-.6 2.7zm18.4 2.3a3.1 3.1 0 1 0 0 6.2 3.1 3.1 0 0 0 0-6.2M288.3 3074.3l-9.2-23.2q-.4-1.1-.4-1.5-.1-1.4 3.1-1.3h2v-2.4h-15.6v2.4h1c2.3 0 3 .6 3.9 2.8l12.6 31.7h2l11.5-29.6c1.5-3.9 2.6-4.8 5.4-4.9h.5v-2.4h-13.5v2.4h1q3.9.1 4 2.6 0 1.2-.6 2.8zm18.4 2.2a3.1 3.1 0 1 0 0 6.2 3.1 3.1 0 0 0 0-6.2M288.3 2236.7l-9.2-23.2-.4-1.5q-.1-1.4 3.1-1.3h2v-2.3h-15.6v2.3h1c2.3 0 3 .6 3.9 2.8l12.6 31.7h2l11.5-29.6c1.5-3.9 2.6-4.8 5.4-4.9h.5v-2.3h-13.5v2.3h1q3.9.1 4 2.6 0 1.2-.6 2.8zm18.4 2.2a3.1 3.1 0 1 0 0 6.2 3.1 3.1 0 0 0 0-6.2M224 878.3h5.6c4.5 0 7-.4 9-1.3 3.5-1.7 5.5-5 5.5-8.9 0-8-7-9.9-13.6-9.9H213v2.4h.9c2.9 0 3.8.2 4.2.7.3.4.3.5.3 3v23.9c0 2.5 0 2.6-.3 3-.4.6-1.3.8-4.2.8h-.9v2.3h16.8V892h-1.3c-2.9 0-3.8-.2-4.2-.7-.3-.5-.3-.6-.3-3.1zm0-2.3v-12.8c0-2.3.3-2.5 3-2.5h3.3q7.6-.1 7.6 7.7T230 876zm30.8-4.9-8.6.6v2.1h1.8c1.9 0 2.1.4 2.1 2.5v14.3q0 1-.3 1.3-.4.7-3.4.7h-.2v1.8h12.6v-1.8h-.2c-3.3-.1-3.8-.3-3.8-2.1V883q0-4 1-5.9c1-2.2 3.2-3.8 5.4-3.8 1.3 0 2.8.7 3.5 1.8q1.1 1.5 1.1 5v10.4q0 1-.3 1.3-.3.7-3.5.7h-.2v1.8h12.7v-1.8h-.2c-3.3-.1-3.8-.3-3.8-2.1v-10c0-3.7-.1-4.6-1-6.3a7 7 0 0 0-6.8-3.8q-4.7 0-7.9 4.8zm33.2-.8c-6.2 0-11 5.4-11 12.4s4.9 12.4 10.9 12.4 10.8-5.5 10.8-12.4-4.8-12.4-10.7-12.4m0 2.1q5.3.2 5.4 10.3-.1 10-5.5 10.2-5.5-.1-5.6-10.2t5.7-10.3m18.5 16.4a3.1 3.1 0 1 0 0 6.3 3.1 3.1 0 0 0 0-6.3M224 1757.2h5.6c4.5 0 7-.4 9-1.3 3.5-1.7 5.5-5 5.5-8.9 0-8-7-9.9-13.6-9.9H213v2.4h.9c2.9 0 3.8.2 4.2.7.3.4.3.5.3 3v23.9c0 2.5 0 2.6-.3 3-.4.6-1.3.8-4.2.8h-.9v2.3h16.8v-2.3h-1.3c-2.9 0-3.8-.2-4.2-.7-.3-.5-.3-.6-.3-3.1zm0-2.3V1742c0-2.3.3-2.5 3-2.5h3.3q7.6-.1 7.6 7.7t-7.8 7.6zm30.8-4.9-8.6.6v2.1h1.8c1.9 0 2.1.4 2.1 2.5v14.3q0 1-.3 1.3-.4.7-3.4.7h-.2v1.8h12.6v-1.8h-.2c-3.3 0-3.8-.3-3.8-2.1v-7.4q0-4 1-5.9c1-2.2 3.2-3.8 5.4-3.8 1.3 0 2.8.7 3.5 1.8q1.1 1.5 1.1 5v10.4q0 1-.3 1.3-.3.7-3.5.7h-.2v1.8h12.7v-1.8h-.2c-3.3 0-3.8-.3-3.8-2.1v-10c0-3.7-.1-4.6-1-6.3a7 7 0 0 0-6.8-3.8q-4.7 0-7.9 4.8zm33.2-.8c-6.2 0-11 5.4-11 12.4S282 1774 288 1774s10.8-5.5 10.8-12.4-4.8-12.4-10.7-12.4m0 2.1c3.5 0 5.4 3.7 5.4 10.3q-.1 10-5.5 10.2-5.5-.1-5.6-10.2t5.7-10.3m18.5 16.4a3.1 3.1 0 1 0 0 6.2 3.1 3.1 0 0 0 0-6.2M224 3422.3h5.6c4.5 0 7-.3 9-1.3q5.4-2.7 5.5-8.8c0-8-7-10-13.6-10H213v2.4h.9c2.9 0 3.8.2 4.2.7.3.4.3.6.3 3.1v23.8c0 2.6 0 2.7-.3 3.1-.4.5-1.3.7-4.2.7h-.9v2.4h16.8v-2.4h-1.3c-2.9 0-3.8-.2-4.2-.7-.3-.4-.3-.5-.3-3zm0-2.3v-12.8c0-2.3.3-2.6 3-2.6h3.3q7.6 0 7.6 7.8 0 7.6-7.8 7.6zm30.8-5-8.6.6v2.2h1.8c1.9 0 2.1.3 2.1 2.5v14.3q0 1-.3 1.3-.4.6-3.4.7h-.2v1.8h12.6v-1.8h-.2c-3.3-.1-3.8-.4-3.8-2.2v-7.4c0-2.4.4-4.7 1-5.8 1-2.3 3.2-3.8 5.4-3.8 1.3 0 2.8.7 3.5 1.7q1.1 1.5 1.1 5v10.5q0 1-.3 1.3-.3.6-3.5.7h-.2v1.8h12.7v-1.8h-.2c-3.3-.1-3.8-.4-3.8-2.2v-10c0-3.6-.1-4.5-1-6.2a7 7 0 0 0-6.8-3.9q-4.7 0-7.9 4.8zm33.2-.8c-6.2 0-11 5.5-11 12.5 0 6.8 4.9 12.3 10.9 12.3s10.8-5.5 10.8-12.4c0-6.8-4.8-12.4-10.7-12.4m0 2.2q5.3.2 5.4 10.2-.1 10.2-5.5 10.3-5.5-.1-5.6-10.2t5.7-10.3m18.5 16.3a3.1 3.1 0 1 0 0 6.2 3.1 3.1 0 0 0 0-6.2M224 2594.8h5.6c4.5 0 7-.4 9-1.3a10 10 0 0 0 5.5-8.9c0-8-7-9.9-13.6-9.9H213v2.4h.9c2.9 0 3.8.2 4.2.7.3.4.3.5.3 3v23.9c0 2.5 0 2.6-.3 3-.4.6-1.3.8-4.2.8h-.9v2.3h16.8v-2.3h-1.3c-2.9 0-3.8-.2-4.2-.7-.3-.5-.3-.6-.3-3.1zm0-2.3v-12.8c0-2.3.3-2.5 3-2.5h3.3q7.6-.1 7.6 7.7t-7.8 7.6zm30.8-4.9-8.6.6v2.1h1.8c1.9 0 2.1.4 2.1 2.5v14.3q0 1-.3 1.3-.4.7-3.4.7h-.2v1.8h12.6v-1.8h-.2c-3.3 0-3.8-.3-3.8-2.1v-7.4q0-4 1-5.9c1-2.2 3.2-3.8 5.4-3.8 1.3 0 2.8.7 3.5 1.8q1.1 1.4 1.1 5v10.4q0 1-.3 1.3-.3.7-3.5.7h-.2v1.8h12.7v-1.8h-.2c-3.3 0-3.8-.3-3.8-2.1v-10c0-3.7-.1-4.6-1-6.3a7 7 0 0 0-6.8-3.8q-4.7 0-7.9 4.8zm33.2-.8c-6.2 0-11 5.4-11 12.4s4.9 12.4 10.9 12.4 10.8-5.5 10.8-12.4-4.8-12.4-10.7-12.4m0 2.1q5.3.2 5.4 10.3-.1 10-5.5 10.2-5.5-.1-5.6-10.2 0-10.3 5.7-10.3m18.5 16.4a3.1 3.1 0 1 0 0 6.2 3.1 3.1 0 0 0 0-6.2" class="InstrumentName"/><path fill="none" stroke="#000" stroke-linejoin="bevel" stroke-width="4.5" d="M368.7 1320.8v282M1810.4 1320.8v102M2845.2 384.8v102M2831.5 1320.8v102M2845.2 1320.8v102M368.7 2176v264.4M1650.3 2176v101.9M1686.1 384.8v102M2845.2 2176v101.9M2845.2 3013.6v101.9M368.7 384.8v315.3M1675 3013.6v101.9M368.7 3013.6v254.3M2845.2 698.7v255.6M368.7 2439v208.1M1686.1 698.7v255.6M1650.3 2439v208.1M368.7 3266.6v208M368.7 1601.4v208.1M1810.4 1601.4v208.1M2831.5 1601.4v208.1M2845.2 1601.4v208.1M2845.2 3266.6v208M2845.2 2439v208.1M1675 3266.6v208M368.7 698.7v255.6M368.7 1808.1V1910M1810.4 1808.1V1910M2845.2 3473.2v102M368.7 952.9v102M2845.2 952.9v102M1675 3473.2v102M2845.2 2645.7v101.9M1650.3 2645.7v101.9M2831.5 1808.1V1910M2845.2 1808.1V1910M368.7 3473.2v102M1686.1 952.9v102M368.7 2645.7v101.9" class="BarLine"/><path fill-rule="evenodd" stroke="#000" stroke-linecap="round" stroke-linejoin="round" stroke-width="1.2" d="M2126 3095c31.6 25.5 96.3 27.6 129.4 4.3-33.4 31.2-98 29-129.4-4.2M523 1341a34.8 34.8 0 0 1 59.5.3 43 43 0 0 0-59.5-.3M2437.4 2282.3c48.3 38.9 200 48.9 253 16.6-53.5 40.2-205.2 30.2-253-16.6M1735.4 405.3c163.2-90.4 934.1-108.2 1101.3-25.4-167-74.8-938-57-1101.3 25.4M1516.4 3119.9c72 50.6 408.2 50.6 480.3 0-72 58.5-408.3 58.5-480.3 0M2187.7 904c12.3-64.6 90.1-134.3 155.7-139.4-60.3 11-138.2 80.7-155.7 139.4M2404.5 902c-1.9-81.2 178.1-222.4 228-135.7-46.1-79.7-226 61.4-228 135.7M1982 839c17.4-52.8 89.7-96.2 144.6-86.8-50.8-2.6-123 40.8-144.6 86.8M594.9 914.2c31.2-29.8 99.8-38 137.1-16.3-36.4-13.8-105-5.6-137.1 16.3M1245.4 902c-2-81.7 173.2-232.4 228-148-50.7-77.6-226 73-228 148M822.9 839c17.4-52.8 89.7-96.2 144.5-86.8-50.7-2.6-123 40.8-144.5 86.8M1028.6 904c12.2-64.6 90-134.3 155.7-139.4-60.3 11-138.2 80.7-155.7 139.4M1754 914.2c31.2-29.8 99.8-38 137.1-16.3-36.4-13.8-105-5.6-137.1 16.3" class="SlurSegment"/><path fill-rule="evenodd" stroke="#000" stroke-linecap="round" stroke-linejoin="round" stroke-width="1.2" d="M1518 3095c45 31.6 180 31.6 225 0-45 39.5-180 39.5-225 0M957.4 3095c25 12 99.6 12 124.4 0-24.8 20-99.5 20-124.4 0M2290.7 1427.2c25.2 18.5 101 18.5 126.4 0-25.3 26.5-101.2 26.5-126.4 0M1653.6 1353.7c41.1-31.5 164.5-31.5 205.6 0-41-23.6-164.5-23.6-205.6 0M827.3 405.3c13.5-19.7 53.8-19.7 67.3 0-13.5-13-53.8-13-67.3 0M1405.6 405.3c13.4-19.7 53.8-19.7 67.3 0-13.5-13-53.9-13-67.4 0M2144 2257.5c24.2 11.9 97.1 11.9 121.4 0-24.3 19.8-97.2 19.8-121.5 0M1057.2 1695.3c19.6 17 78.6 17 98.2 0-19.6 25-78.6 25-98.2 0M2310.2 1634.3c21.9-25.2 87.8-25.2 109.7 0-22-17.2-87.8-17.2-109.7 0M1037.7 1744.9c25.3 18.5 101.1 18.5 126.4 0-25.3 26.5-101.1 26.5-126.4 0M1057.2 1621.9c22-19.5 87.8-19.5 109.7 0-22-11.6-87.8-11.6-109.7 0M2310.2 1707.7c19.6 16.3 78.6 16.3 98.2 0-19.7 24.2-78.6 24.2-98.2 0M957.4 3385.2c25 18.4 99.6 18.4 124.4 0-24.8 26.3-99.5 26.3-124.4 0M977 3299.4c21.5-25.1 86.1-25.1 107.7 0-21.6-17.2-86.2-17.2-107.8 0M2163.4 2459.5c21-19.6 83.9-19.6 104.9 0-21-11.7-84-11.7-104.9 0M2290.7 1757.3c25.2 18.5 101 18.5 126.4 0-25.3 26.5-101.2 26.5-126.4 0M949 2557.7c24.3 18.2 97.2 18.2 121.5 0-24.3 26-97.2 26-121.5 0M2163.4 2532.9c18.7 17 74.7 17 93.3 0-18.6 24.6-74.6 24.6-93.3 0M2127.6 3385.2c24.9 18.4 99.5 18.4 124.4 0-24.9 26.3-99.5 26.3-124.4 0M968.5 2471.9c21-25.3 83.9-25.3 104.9 0-21-17.4-84-17.4-104.9 0M2144 2582.5c24.2 18.2 97.1 18.2 121.4 0-24.3 26-97.2 26-121.5 0M2147.1 3299.4c21.6-25.1 86.2-25.1 107.8 0-21.6-17.2-86.2-17.2-107.8 0M2144 2814c24.2 18.1 97.1 18.1 121.4 0-24.3 26-97.2 26-121.5 0M1405.6 781.2c13.4-20.5 53.8-20.5 67.3 0-13.5-13.8-53.9-13.8-67.4 0M2564.7 793.6c13.4-20.5 53.8-20.5 67.3 0-13.5-13.8-53.9-13.8-67.3 0M2127.6 3616.7c24.9 18.4 99.5 18.4 124.4 0-24.9 26.3-99.5 26.3-124.4 0M949 2789.2c24.3 18.1 97.2 18.1 121.5 0-24.3 26-97.2 26-121.5 0M1037.7 1976.4c25.3 18.5 101.1 18.5 126.4 0-25.3 26.4-101.1 26.4-126.4 0M957.4 3616.7c25 18.4 99.6 18.4 124.4 0-24.8 26.3-99.5 26.3-124.4 0" class="TieSegment"/><path d="M2096.7 3060.6c0 7.8-4.1 12-9.8 16.6l.2-19.4c.2-.9 1.7-3.7 5.7-3.7 3.6 0 3.9 3.3 3.9 5.4zm-1.2-11.3c-5 0-7.9 3-8.4 3.7l.4-31.9q0-1.3-1.3-1.4h-1.2q-1.3.1-1.4 1.4l.5 59.6q.1 1.3 1.4 1.4.4 0 .8-.2c8.5-4.3 17.4-12.4 17.4-22.6 0-5.1-2.4-10-8.2-10M1944.3 2223c0 7.8-4 12-9.8 16.6l.3-19.4c.2-.9 1.7-3.7 5.6-3.7 3.6 0 4 3.3 4 5.4zm-1.3-11.3c-5 0-7.8 3-8.3 3.7l.4-31.9q-.1-1.3-1.4-1.4h-1.2q-1.3.1-1.4 1.4l.5 59.6q.1 1.3 1.4 1.4.4 0 .8-.2c8.5-4.3 17.5-12.4 17.5-22.6 0-5.1-2.4-10-8.3-10M791.6 2223c0 7.8-4 12-9.8 16.6l.3-19.4c.2-.9 1.6-3.7 5.6-3.7 3.6 0 3.9 3.3 3.9 5.4zm-1.2-11.3c-5 0-7.9 3-8.3 3.7l.4-31.9q-.1-1.3-1.4-1.4h-1.2q-1.3.1-1.4 1.4l.5 59.6q.1 1.3 1.4 1.4.4 0 .8-.2c8.5-4.3 17.4-12.4 17.4-22.6 0-5.1-2.3-10-8.2-10M797.1 3060.6c0 7.8-4 12-9.8 16.6l.3-19.4c.2-.9 1.7-3.7 5.7-3.7 3.5 0 3.8 3.3 3.8 5.4zm-1.2-11.3c-5 0-7.8 3-8.3 3.7l.4-31.9q-.1-1.3-1.4-1.4h-1.2q-1.3.1-1.4 1.4l.5 59.6q.1 1.3 1.4 1.4.4 0 .8-.2c8.6-4.3 17.5-12.4 17.5-22.6 0-5.1-2.4-10-8.3-10M1717.1 3313.6c0 7.8-4 12-9.8 16.5l.3-19.3c.2-1 1.7-3.8 5.6-3.8 3.6 0 4 3.4 4 5.5zm-1.3-11.4c-5 0-7.8 3.1-8.3 3.7l.4-31.8q-.1-1.3-1.4-1.4h-1.2q-1.3.1-1.4 1.4l.5 59.6q.1 1.3 1.4 1.4l.8-.2c8.5-4.3 17.4-12.4 17.4-22.6 0-5.2-2.3-10-8.2-10M1706.4 3363.2c0 7.8-4 12-9.8 16.5l.3-19.3c.2-1 1.7-3.8 5.7-3.8 3.5 0 3.8 3.4 3.8 5.5zm-1.2-11.4c-5 0-7.8 3.1-8.3 3.7l.4-31.8q-.1-1.3-1.4-1.4h-1.2q-1.3.1-1.4 1.4l.5 59.6q.1 1.3 1.4 1.4l.8-.2c8.5-4.3 17.5-12.4 17.5-22.6 0-5.2-2.4-10-8.3-10M1710.7 3594.6c0 7.9-4.1 12-9.9 16.6l.3-19.3c.2-1 1.7-3.8 5.7-3.8 3.6 0 3.9 3.4 3.9 5.4zm-1.2-11.4c-5 0-7.9 3-8.4 3.7l.4-31.9q-.1-1.2-1.4-1.3h-1.1q-1.4.1-1.4 1.3l.5 59.7q0 1.3 1.4 1.4l.7-.2c8.6-4.3 17.5-12.4 17.5-22.7 0-5.1-2.4-10-8.2-10" class="Accidental"/><path fill="none" stroke="#000" stroke-linejoin="bevel" stroke-width="4" d="M2750.4 2564.4h48.6M2680.5 824.1h48.6M2680.5 848.9h48.6M1865.1 2564.4h48.5M2680.5 873.7h48.6M2118 2564.4h48.6M2539.6 2564.4h48.6M1712.4 1726.8h48.6M1087.7 848.9h48.6M1624.9 1726.8h48.6M749 1726.8h48.6M1318.3 1726.8h48.6M798.6 848.9h48.6M1011.8 1726.8h48.6M1143.2 1726.8h48.6M924.2 1726.8h48.6M798.6 824.1h48.6M836.6 1726.8h48.6M2733.5 1726.8h48.6M1087.7 824.1h48.6M1405.9 1726.8h48.6M2666.1 2564.4h48.6M1949.4 2564.4h48.6M1493.5 1726.8h48.6M552 1726.8h48.6M870.9 824.1h48.5M1230.7 1726.8h48.6M2246.8 824.1h48.6M1957.7 824.1h48.6M2463.7 824.1h48.6M1957.7 848.9h48.6M1835.5 1726.8h48.6M2413.1 2564.4h48.6M2089.6 1726.8h48.6M2177.2 1726.8h48.6M2246.8 848.9h48.6M1675.3 2564.4h48.6M2328.8 2564.4h48.6M2244.5 2564.4h48.6M1521.4 824.1h48.6M2030 824.1h48.6M1521.4 848.9h48.6M2396.1 1726.8h48.6M1521.4 873.7h48.6M2264.8 1726.8h48.6M2002 1726.8h48.6M1304.6 824.1h48.5M1304.6 848.9h48.5M2463.7 848.9h48.6M2646 1726.8h48.5M1711.1 1078.3h48.6M1218.3 2771.1h48.5M1318.3 1958.3h48.6M1344.7 2771.1h48.6M2264.8 1958.3h48.6M1521.4 1078.3h48.6M1060.9 3598.6h48.6M836.6 1958.3h48.6M1949.4 2771.1h48.6M1949.4 2795.9h48.6M836.6 1933.5h48.6M749 1933.5h48.6M2403.6 3598.6h48.6M749 1958.3h48.6M2264.8 1933.5h48.6M1318.3 1933.5h48.6M2002 1958.3h48.6M1147.2 3598.6h48.5M2002 1933.5h48.6M1492.1 3598.6h48.6M2033.7 2771.1h48.6M2177.2 1958.3h48.6M2177.2 1933.5h48.6M1230.7 1933.5h48.6M1555.5 2771.1h48.6M1143.2 1958.3h48.6M1143.2 1933.5h48.6M1230.7 1958.3h48.6M2033.7 2795.9h48.6M1972.4 3598.6h48.6M2750.4 2771.1h48.6M2750.4 2795.9h48.6M2666.1 2795.9h48.6M2089.6 1933.5h48.6M1471.2 2771.1h48.6M2666.1 2771.1h48.6M2244.5 2771.1h48.6M1011.8 1958.3h48.6M1011.8 1933.5h48.6M2244.5 2795.9h48.6M552 1078.3h48.6M1578.3 3598.6h48.6M2089.6 1958.3h48.6M2328.8 2795.9h48.6M924.2 1958.3h48.6M924.2 1933.5h48.6M1624.9 1933.5h48.6M1049.6 2771.1h48.6M931.6 3598.6h48.5M2328.8 2771.1h48.6M1675.3 2771.1h48.6M2231.1 3598.6h48.6M2532.9 3598.6h48.6M2733.5 1933.5h48.6M716 3598.6h48.6M2118 2795.9h48.6M2748.5 3598.6h48.6M1675.3 2795.9h48.6M1233.4 3598.6h48.6M923.1 2771.1h48.6M2101.7 3598.6h48.6M1886.1 3598.6h48.6M1624.9 1958.3h48.6M2662.3 3598.6h48.6M2118 2771.1h48.6M802.2 3598.6h48.6M2413.1 2795.9h48.6M2680.5 1078.3h48.6M2646 1958.3h48.5M1712.4 1933.5h48.6M796.6 2771.1h48.6M2646 1933.5h48.5M2413.1 2771.1h48.6M1835.5 1933.5h48.6M1722.2 3598.6h48.6M552 1958.3h48.6M552 1933.5h48.6M1712.4 1958.3h48.6M1405.9 1933.5h48.6M1405.9 1958.3h48.6M1133.9 2771.1h48.6M1835.5 1958.3h48.6M2539.6 2795.9h48.6M552 2771.1h48.6M2317.3 3598.6h48.6M1493.5 1933.5h48.6M1362.7 3598.6h48.6M712.3 2771.1h48.6M2733.5 1958.3h48.6M2539.6 2771.1h48.6M1865.1 2771.1h48.5M1493.5 1958.3h48.6M1865.1 2795.9h48.5M552 3598.6h48.6" class="LedgerLine"/><path fill="none" stroke="#000" stroke-linejoin="bevel" stroke-width="2.5" d="M1634.3 1376v76.3M2452.3 2247.8V2165M2270.3 3073v-76.6M2705.3 2272.6V2190M1844.9 1376v70.2M1357.5 1392.6v-82.8M2304 1405v-82.6M880.3 427.6v76.5M2157.2 2235.4v-76.6M2435.3 1405v-82.8M995.1 452.4v63.9M2283.7 2235.4V2159M561.4 440v70.2M1088.8 2247.8v-82.6M1531.3 3073v-76.4M1257.4 2235.4v-76.6M841.4 3060.6v-64.2M835.8 2223v-64.2M1720.5 440v70.2M1169.4 440v70.2M591.2 1417.4v-82.6M2572.1 3085.4v-82.8M1761.3 3073v-76.6M1576.6 452.4v63.9M970.7 3073v-70.5M2647.4 444.2v-64.1M2765.5 456.6v-70.5M1988.6 2223v-64.2M1272.6 3085.4v-82.8M2011.6 3085.4v-82.9M1841 2247.8v-89M1458.5 427.6v76.5M808 427.6V504M1182.3 1380.2v-76.4M1386.3 427.6V504M962.3 2235.4v-70.5M2140.9 3060.6v-64.2M1100.1 3073v-76.4M2452.3 2560.4v-157.2M1925.3 3363.2v-120.1M2270.3 3363.2v-120.1M970.7 3363.2v-113.9M1874.7 1735.2V1578M2356.5 3363.2v-120.1M2685.1 1735.2V1578M962.3 2535.6v-113.8M1401.9 3363.2v-120.1M2719.7 869.7V749.9M2128.8 1735.2V1578M1272.6 3363.2v-120.1M1594.7 2535.6v-120M2304 1735.2V1578M2216.4 1735.2V1578M1510.4 2535.6v-120M1560.6 869.7V749.9M2283.7 2560.4v-157.2M2368 2560.4v-157.2M1186.3 3363.2v-120.1M1088.8 2535.6v-120M1714.5 2560.4v-157.2M1383.9 2535.6v-120M1257.4 2535.6v-120M2435.3 1735.2V1578M2041.2 1735.2V1578M1269.9 1722.8v-157.2M1100.1 3363.2v-120.1M1173.1 2535.6v-120M1761.3 3363.2v-120.1M591.2 2535.6v-120M2705.3 2560.4v-157.2M751.5 2535.6v-120M1357.5 1722.8v-157.2M1617.5 3363.2v-120.1M1051 1722.8v-157.2M963.4 1722.8v-157.2M755.1 3363.2v-120.1M591.2 1722.8v-157.2M2701.5 3363.2v-120.1M1988.6 2560.4v-151M788.2 1722.8v-157.2M1532.7 1722.8v-157.2M2011.6 3363.2v-113.9M875.8 1722.8v-157.2M591.2 3363.2v-120.1M2572.1 3363.2v-120.1M1531.3 3363.2v-120.1M841.4 3363.2v-113.9M2578.8 2560.4v-157.2M2787.7 3363.2v-120.1M2789.6 2560.4v-157.2M2442.8 3363.2v-120.1M1904.2 2560.4v-157.2M1751.6 1722.8v-157.2M835.8 2535.6v-113.8M1182.3 1722.8v-157.2M2140.9 3363.2v-113.9M1445.1 1722.8v-157.2M2772.7 1735.2V1578M2157.2 2560.4v-151M1664 1722.8v-157.2M1988.6 2791.9v-89M1594.7 2767.1v-70.4M1383.9 2767.1v-70.4M808 865.5v58M735.7 987.5V913M2072.9 2791.9v-89M1510.4 2767.1v-70.4M2011.6 3594.6v-70.4M835.8 2767.1v-70.4M1714.5 2791.9v-89M1925.3 3594.6v-70.4M2685.1 1966.7v-101.4M2157.2 2791.9v-89M1241.7 987.5v-70.4M962.3 2767.1v-70.4M2772.7 1966.7v-101.4M751.5 2767.1v-70.4M2140.9 3594.6v-70.4M2304 1966.7v-107.6M1088.8 2767.1v-70.4M1904.2 2791.9v-89M1173.1 2767.1v-70.4M880.3 840.7v88.9M591.2 2767.1v-70.4M1761.3 3594.6v-70.4M1257.4 2767.1v-70.4M2789.6 2791.9v-89M591.2 1954.3v-89M1894.9 987.5V913M1822.6 1024.7V921.2M788.2 1954.3v-89M1531.3 3594.6v-70.4M875.8 1954.3v-89M2442.8 3594.6v-70.4M963.4 1954.3v-89M591.2 1074.3V929.4M1051 1954.3v-89M591.2 3594.6v-70.4M1182.3 1954.3v-89M1750.3 1074.3V929.4M1272.6 3594.6v-70.4M1269.9 1954.3v-89M2705.3 2785.4v-82.5M1100.1 3594.6v-70.4M1357.5 1954.3v-89M1445.1 1954.3v-89M1169.4 791.1v144.6M1532.7 1954.3v-89M2719.7 1086.7V916.8M2256.2 865.5v76.3M2328.5 791.1v144.6M2400.8 987.5v-70.4M2473.1 865.5v70.2M2545.4 815.9v119.8M2787.7 3594.6v-70.4M2617.7 815.9v89.2M841.4 3594.6v-70.4M2184 987.5v-68.3M970.7 3594.6v-70.4M663.4 1024.7V921.2M2111.7 778.7v155M2701.5 3594.6v-70.4M755.1 3594.6v-70.4M1097.1 865.5v76.3M2039.4 840.7v88.9M1967.1 865.5v58M1024.9 987.5v-68.3M2572.1 3594.6v-70.4M1401.9 3594.6v-70.4M2128.8 1966.7v-101.4M2452.3 2791.9v-89M1751.6 1954.3v-89M1560.6 1086.7V910.6M2041.2 1966.7v-101.4M1386.3 803.5v132.2M1186.3 3594.6v-70.4M952.6 778.7v155M1664 1954.3v-89M1458.5 803.5v95.4M2368 2791.9v-89M2283.7 2791.9v-89M2356.5 3594.6v-70.4M2578.8 2791.9v-89M2216.4 1966.7v-101.4M1314 865.5v70.2M1874.7 1966.7v-101.4M1617.5 3594.6v-70.4M2270.3 3594.6v-70.4" class="Stem"/><path d="M2282.4 2181.3q-.1.6.8 1a40 40 0 0 1 19.3 17.8c1.8 3.1 4.6 7.4 4.6 15.6a65 65 0 0 1-4.4 21.6q-.4.9-.3 1.5 0 1 1 1t1.6-1c4.4-8 6.1-17.2 6.1-26.3-.5-12.8-7.8-22.2-7.8-22.2.3 0-9.2-12.2-11.8-16.4-3.7-5.6-5.4-11.3-5.6-11.7l-1-3.8q-.2-.7-1.2-.8-1.2.1-1.3 1.3zM2302.7 1344.7q-.1.6.8 1.1a40 40 0 0 1 19.3 17.8c1.7 3 4.6 7.3 4.6 15.5a65 65 0 0 1-4.4 21.7q-.3.8-.4 1.5 0 1 1 1t1.6-1.1c4.5-8 6.2-17.2 6.2-26.2-.5-12.8-7.9-22.3-7.9-22.3.3 0-9-12.2-11.8-16.3-3.6-5.7-5.3-11.3-5.5-11.7l-1-3.9q-.2-.7-1.2-.8-1.2.1-1.3 1.3zM1098.9 3018.9q-.2.6.7 1a40 40 0 0 1 19.3 17.8c1.8 3.1 4.7 7.4 4.7 15.6a65 65 0 0 1-4.5 21.6q-.4.9-.3 1.5 0 1 1 1t1.6-1c4.4-8 6.1-17.2 6.1-26.3-.5-12.8-7.8-22.2-7.8-22.2.3 0-9.1-12.2-11.8-16.4-3.7-5.6-5.4-11.3-5.6-11.7l-1-3.8q-.1-.7-1.2-.8-1.1.1-1.2 1.3zM1530 3018.9q-.1.6.8 1a40 40 0 0 1 19.3 17.8c1.8 3.1 4.6 7.4 4.6 15.6a65 65 0 0 1-4.4 21.6q-.4.9-.3 1.5 0 1 1 1t1.6-1c4.4-8 6.1-17.2 6.1-26.3-.5-12.8-7.8-22.2-7.8-22.2.3 0-9.2-12.2-11.8-16.4-3.7-5.6-5.4-11.3-5.6-11.7l-1-3.8q-.1-.7-1.2-.8-1.2.1-1.3 1.3zM590 1357.1q-.2.5.7 1.1A40 40 0 0 1 610 1376c1.7 3 4.6 7.3 4.6 15.5a65 65 0 0 1-4.4 21.7q-.4.8-.3 1.5 0 1 1 1t1.5-1.1c4.5-8 6.2-17.2 6.2-26.2a42 42 0 0 0-7.8-22.3c.2 0-9.2-12.2-11.9-16.3-3.6-5.7-5.3-11.3-5.5-11.7l-1-3.9q-.2-.7-1.2-.8-1.2.1-1.3 1.3zM1181.1 1326.1c0 .3 0 .8.8 1.1a40 40 0 0 1 19.2 17.8c1.8 3 4.7 7.3 4.7 15.5a65 65 0 0 1-4.5 21.7q-.4.8-.3 1.5 0 1 1 1t1.6-1.1c4.5-8 6.2-17.2 6.2-26.2-.5-12.8-7.9-22.3-7.9-22.3.3 0-9.1-12.2-11.8-16.3-3.6-5.7-5.3-11.3-5.5-11.7l-1-3.9q-.2-.7-1.2-.8-1.2.1-1.3 1.3zM1633 1452.3q.1 1.2 1.3 1.3.9-.1 1.2-.8l1-3.9c.1-.4 1-4.1 4.6-10 3.8-6.4 9.8-11.1 14.8-18 4.8-7 7.8-13.5 7.8-22.3 0-9-2-16.5-7.3-26.2q-.6-1-1.5-1h-.5q-.7.3-.7 1.2 0 .5.3 1.2c4 9.3 5.5 14.5 5.5 21.7 0 8.2-2.9 12.5-4.6 15.5a42 42 0 0 1-21 17.8q-1 .6-.9 1zM2704 2212.3q-.1.6.8 1a40 40 0 0 1 19.3 17.8c1.8 3.1 4.7 7.4 4.7 15.6a65 65 0 0 1-4.5 21.6q-.4.9-.3 1.5 0 1 1 1t1.6-1c4.4-8 6.1-17.2 6.1-26.3-.5-12.8-7.8-22.2-7.8-22.2.3 0-9.1-12.2-11.8-16.4-3.7-5.6-5.4-11.3-5.6-11.7l-1-3.8q-.1-.7-1.2-.8-1.1.1-1.2 1.3zM1087.6 2187.5q-.2.6.7 1a40 40 0 0 1 19.3 17.8c1.8 3.1 4.7 7.4 4.7 15.6a65 65 0 0 1-4.5 21.6q-.4.9-.3 1.5 0 1 1 1t1.6-1c4.4-8 6.1-17.2 6.1-26.3-.5-12.8-7.8-22.2-7.8-22.2.3 0-9.1-12.2-11.8-16.4-3.7-5.6-5.4-11.3-5.6-11.7l-1-3.8q-.1-.7-1.2-.8-1.1.1-1.2 1.3zM1559.3 772.2q-.1.5.8 1.1a40 40 0 0 1 19.3 17.8c1.8 3 4.6 7.3 4.6 15.6a65 65 0 0 1-4.4 21.6q-.4.8-.3 1.5 0 1 1 1t1.6-1.1c4.4-8 6.1-17.2 6.1-26.2-.5-12.8-7.8-22.2-7.8-22.2.3 0-9.2-12.2-11.8-16.4-3.7-5.7-5.4-11.3-5.6-11.7l-1-3.9q-.1-.7-1.2-.8-1.2.1-1.3 1.3zM2718.5 772.2c0 .3 0 .8.8 1.1a40 40 0 0 1 19.2 17.8c1.8 3 4.7 7.3 4.7 15.6a65 65 0 0 1-4.5 21.6q-.4.8-.3 1.5 0 1 1 1t1.6-1.1c4.4-8 6.1-17.2 6.1-26.2a42 42 0 0 0-7.8-22.2c.3 0-9.1-12.2-11.8-16.4-3.7-5.7-5.4-11.3-5.6-11.7l-1-3.9q0-.7-1.2-.8-1.1.1-1.2 1.3z" class="Hook"/><path d="M1980.6 3093.5c0 4.3 3 9 11 9 10.4 0 21.2-8.4 21.2-17.1 0-5.9-5-9.1-11.1-9.1-9.6 0-21.1 8.1-21.1 17.2M2252.7 2243.5c0 4.3 3 9 11 9 10.4 0 21.2-8.4 21.2-17.1 0-5.9-5-9.1-11-9.1-9.7 0-21.2 8.1-21.2 17.2M2421.3 2256c0 4.2 3.1 9 11.1 9 10.4 0 21.2-8.5 21.2-17.2 0-5.9-5-9.1-11.1-9.1-9.7 0-21.2 8.1-21.2 17.2M1057.8 2256c0 4.2 3 9 11.1 9 10.3 0 21.1-8.5 21.1-17.2 0-5.9-5-9.1-11-9.1-9.7 0-21.2 8.1-21.2 17.2M2273 1413.2c0 4.2 3 9 11 9 10.4 0 21.2-8.4 21.2-17.2 0-5.8-5-9.1-11.1-9.1-9.6 0-21.2 8.1-21.2 17.3M939.7 3081.1c0 4.3 3.1 9 11.2 9 10.3 0 21-8.4 21-17.1 0-5.9-4.9-9.1-11-9.1-9.7 0-21.2 8.1-21.2 17.2M2616.4 452.4c0 4.2 3 9 11.1 9 10.3 0 21.2-8.4 21.2-17.2 0-5.8-5-9.1-11.2-9.1-9.6 0-21 8.1-21 17.3M931.3 2243.5c0 4.3 3 9 11.1 9 10.3 0 21.1-8.4 21.1-17.1 0-5.9-5-9.1-11-9.1-9.7 0-21.2 8.1-21.2 17.2M1730.3 3081.1c0 4.3 3.1 9 11.2 9 10.3 0 21-8.4 21-17.1 0-5.9-4.9-9.1-11-9.1-9.7 0-21.2 8.1-21.2 17.2M2411.8 1417.5c-3.3 0-4-2.6-4-3.5 0-5 16.7-13.4 21.3-13.4q3.8.2 4 3.5c0 5-16.8 13.4-21.3 13.4m13.7-21.6c-9.7 0-21.2 8-21.2 17.3 0 4.2 3.1 9 11.1 9 10.4 0 21.2-8.4 21.2-17.2 0-5.8-5-9.1-11.1-9.1M804.8 2231.1c0 4.3 3 9 11.1 9 10.3 0 21.2-8.4 21.2-17.1 0-5.9-5-9.1-11.2-9.1-9.6 0-21 8.1-21 17.2M810.4 3068.7c0 4.3 3 9 11 9 10.4 0 21.2-8.4 21.2-17.1 0-5.9-5-9.1-11-9.1-9.7 0-21.2 8.1-21.2 17.2M1168.2 440c0 4.2 3 9 11 9 10.4 0 21.2-8.4 21.2-17.2 0-5.8-5-9.1-11.1-9.1-9.6 0-21.1 8.1-21.1 17.3M806.8 427.6c0 4.2 3 9 11 9 10.4 0 21.2-8.4 21.2-17.2 0-5.8-5-9.1-11.1-9.1-9.6 0-21.1 8.1-21.1 17.3M2239.3 3081.1c0 4.3 3 9 11 9 10.4 0 21.2-8.4 21.2-17.1 0-5.9-5-9.1-11.1-9.1-9.6 0-21.1 8.1-21.1 17.2M2734.5 464.8c0 4.2 3 9 11.1 9 10.3 0 21.2-8.4 21.2-17.2 0-5.8-5-9.1-11.2-9.1-9.6 0-21 8.1-21 17.3M1810 2256c0 4.2 3 9 11.1 9 10.3 0 21.1-8.5 21.1-17.2 0-5.9-5-9.1-11-9.1-9.7 0-21.2 8.1-21.2 17.2M1385 427.6c0 4.2 3 9 11.1 9 10.3 0 21.2-8.4 21.2-17.2 0-5.8-5-9.1-11.2-9.1-9.6 0-21 8.1-21 17.3M2110 3068.7c0 4.3 3 9 11 9 10.3 0 21.2-8.4 21.2-17.1 0-5.9-5-9.1-11.2-9.1-9.6 0-21 8.1-21 17.2M560.2 440c0 4.2 3 9 11 9 10.4 0 21.2-8.4 21.2-17.2 0-5.8-5-9.1-11.1-9.1-9.6 0-21.1 8.1-21.1 17.3M1326.5 1400.8c0 4.2 3 9 11.1 9 10.3 0 21.1-8.4 21.1-17.2 0-5.8-5-9.1-11-9.1-9.7 0-21.2 8.1-21.2 17.3M2126.2 2243.5c0 4.3 3 9 11.1 9 10.3 0 21.1-8.4 21.1-17.1 0-5.9-5-9.1-11-9.1-9.7 0-21.2 8.1-21.2 17.2M1575.4 452.4c0 4.2 3 9 11.1 9 10.3 0 21.1-8.4 21.1-17.2 0-5.8-5-9.1-11-9.1-9.7 0-21.2 8.1-21.2 17.3M1726.7 444.3c-3.3 0-4-2.6-4-3.5 0-5 16.7-13.4 21.4-13.4q3.8.2 4 3.5c0 5-16.8 13.4-21.4 13.4m13.7-21.6c-9.6 0-21.1 8-21.1 17.3 0 4.2 3 9 11 9 10.4 0 21.2-8.4 21.2-17.2 0-5.8-5-9.1-11-9.1M2674.3 2280.7c0 4.3 3 9 11.1 9 10.3 0 21.1-8.4 21.1-17.1 0-5.9-5-9.1-11-9.1-9.7 0-21.2 8.1-21.2 17.2M1633 1376c0 4.2 3.1 9 11.2 9 10.3 0 21-8.4 21-17.2 0-5.8-4.9-9.1-11-9.1-9.7 0-21.2 8.1-21.2 17.3M879 427.6c0 4.2 3.1 9 11.1 9 10.4 0 21.2-8.4 21.2-17.2 0-5.8-5-9.1-11.1-9.1-9.7 0-21.2 8.1-21.2 17.3M1151.3 1388.4c0 4.2 3.1 9 11.2 9 10.3 0 21-8.4 21-17.2 0-5.8-4.9-9.1-11-9.1-9.7 0-21.2 8.1-21.2 17.3M993.9 452.4c0 4.2 3 9 11 9 10.4 0 21.2-8.4 21.2-17.2 0-5.8-5-9.1-11.1-9.1-9.6 0-21.1 8.1-21.1 17.3M1226.4 2243.5c0 4.3 3.1 9 11.1 9 10.4 0 21.2-8.4 21.2-17.1 0-5.9-5-9.1-11.1-9.1-9.7 0-21.2 8.1-21.2 17.2M1457.3 427.6c0 4.2 3 9 11.1 9 10.3 0 21.1-8.4 21.1-17.2 0-5.8-5-9.1-11-9.1-9.7 0-21.2 8.1-21.2 17.3M1500.3 3081.1c0 4.3 3 9 11 9 10.4 0 21.2-8.4 21.2-17.1 0-5.9-5-9.1-11-9.1-9.7 0-21.2 8.1-21.2 17.2M1843.7 1376c0 4.2 3 9 11 9 10.4 0 21.2-8.4 21.2-17.2 0-5.8-5-9.1-11.1-9.1-9.6 0-21.1 8.1-21.1 17.3M2541.1 3093.5c0 4.3 3 9 11.1 9 10.3 0 21.2-8.4 21.2-17.1 0-5.9-5-9.1-11.2-9.1-9.6 0-21 8.1-21 17.2M1069 3081.1c0 4.3 3.2 9 11.2 9 10.3 0 21.1-8.4 21.1-17.1 0-5.9-5-9.1-11-9.1-9.7 0-21.2 8.1-21.2 17.2M1957.6 2231.1c0 4.3 3 9 11 9 10.4 0 21.2-8.4 21.2-17.1 0-5.9-5-9.1-11.1-9.1-9.6 0-21.1 8.1-21.1 17.2M560.2 1425.6c0 4.2 3 9 11 9 10.4 0 21.2-8.4 21.2-17.2 0-5.8-5-9.1-11.1-9.1-9.6 0-21.1 8.1-21.1 17.3M1241.6 3093.5c0 4.3 3 9 11 9 10.4 0 21.2-8.4 21.2-17.1 0-5.9-5-9.1-11.1-9.1-9.6 0-21.1 8.1-21.1 17.2M1155.3 3321.7c0 4.3 3.1 9 11.1 9 10.4 0 21.2-8.4 21.2-17.1 0-6-5-9.2-11.1-9.2-9.7 0-21.2 8.2-21.2 17.3M939.7 3321.7c0 4.3 3.1 9 11.2 9 10.3 0 21-8.4 21-17.1 0-6-4.9-9.2-11-9.2-9.7 0-21.2 8.2-21.2 17.3M1683.5 2568.6c0 4.2 3 9 11.1 9 10.3 0 21.2-8.5 21.2-17.2 0-5.8-5-9.1-11.2-9.1-9.6 0-21 8.1-21 17.3M2110 3371.3c0 4.3 3 9 11 9 10.3 0 21.2-8.4 21.2-17.1 0-6-5-9.2-11.2-9.2-9.6 0-21 8.2-21 17.3M1241.6 3371.3c0 4.3 3 9 11 9 10.4 0 21.2-8.4 21.2-17.1 0-6-5-9.2-11.1-9.2-9.6 0-21.1 8.2-21.1 17.3M1241.6 3321.7c0 4.3 3 9 11 9 10.4 0 21.2-8.4 21.2-17.1 0-6-5-9.2-11.1-9.2-9.6 0-21.1 8.2-21.1 17.3M1155.3 3371.3c0 4.3 3.1 9 11.1 9 10.4 0 21.2-8.4 21.2-17.1 0-6-5-9.2-11.1-9.2-9.7 0-21.2 8.2-21.2 17.3M1069 3321.7c0 4.3 3.2 9 11.2 9 10.3 0 21.1-8.4 21.1-17.1 0-6-5-9.2-11-9.2-9.7 0-21.2 8.2-21.2 17.3M1730.3 3371.3c0 4.3 3.1 9 11.2 9 10.3 0 21-8.4 21-17.1 0-6-4.9-9.2-11-9.2-9.7 0-21.2 8.2-21.2 17.3M560.2 3321.7c0 4.3 3 9 11 9 10.4 0 21.2-8.4 21.2-17.1 0-6-5-9.2-11.1-9.2-9.6 0-21.1 8.2-21.1 17.3M1069 3371.3c0 4.3 3.2 9 11.2 9 10.3 0 21.1-8.4 21.1-17.1 0-6-5-9.2-11-9.2-9.7 0-21.2 8.2-21.2 17.3M1683.5 2519c0 4.2 3 9 11.1 9 10.3 0 21.2-8.5 21.2-17.2 0-5.8-5-9.1-11.2-9.1-9.6 0-21 8.1-21 17.3M1683.5 2481.8c0 4.2 3 9 11.1 9 10.3 0 21.2-8.5 21.2-17.2 0-5.8-5-9.1-11.2-9.1-9.6 0-21 8.1-21 17.3M2126.2 2481.8c0 4.2 3 9 11.1 9 10.3 0 21.1-8.5 21.1-17.2 0-5.8-5-9.1-11-9.1-9.7 0-21.2 8.1-21.2 17.3M2674.3 2519c0 4.2 3 9 11.1 9 10.3 0 21.1-8.5 21.1-17.2 0-5.8-5-9.1-11-9.1-9.7 0-21.2 8.1-21.2 17.3M2674.3 2568.6c0 4.2 3 9 11.1 9 10.3 0 21.1-8.5 21.1-17.2 0-5.8-5-9.1-11-9.1-9.7 0-21.2 8.1-21.2 17.3M1586.5 3371.3c0 4.3 3 9 11.1 9 10.3 0 21.2-8.4 21.2-17.1 0-6-5-9.2-11.2-9.2-9.6 0-21 8.2-21 17.3M1586.5 3321.7c0 4.3 3 9 11.1 9 10.3 0 21.2-8.4 21.2-17.1 0-6-5-9.2-11.2-9.2-9.6 0-21 8.2-21 17.3M2547.8 2481.8c0 4.2 3 9 11.1 9 10.3 0 21.2-8.5 21.2-17.2 0-5.8-5-9.1-11.2-9.1-9.6 0-21 8.1-21 17.3M2547.8 2519c0 4.2 3 9 11.1 9 10.3 0 21.2-8.5 21.2-17.2 0-5.8-5-9.1-11.2-9.1-9.6 0-21 8.1-21 17.3M2547.8 2568.6c0 4.2 3 9 11.1 9 10.3 0 21.2-8.5 21.2-17.2 0-5.8-5-9.1-11.2-9.1-9.6 0-21 8.1-21 17.3M2126.2 2568.6c0 4.2 3 9 11.1 9 10.3 0 21.1-8.5 21.1-17.2 0-5.8-5-9.1-11-9.1-9.7 0-21.2 8.1-21.2 17.3M2126.2 2519c0 4.2 3 9 11.1 9 10.3 0 21.1-8.5 21.1-17.2 0-5.8-5-9.1-11-9.1-9.7 0-21.2 8.1-21.2 17.3M2674.3 2481.8c0 4.2 3 9 11.1 9 10.3 0 21.1-8.5 21.1-17.2 0-5.8-5-9.1-11-9.1-9.7 0-21.2 8.1-21.2 17.3M2421.3 2481.8c0 4.2 3.1 9 11.1 9 10.4 0 21.2-8.5 21.2-17.2 0-5.8-5-9.1-11.1-9.1-9.7 0-21.2 8.1-21.2 17.3M2421.3 2519c0 4.2 3.1 9 11.1 9 10.4 0 21.2-8.5 21.2-17.2 0-5.8-5-9.1-11.1-9.1-9.7 0-21.2 8.1-21.2 17.3M2421.3 2568.6c0 4.2 3.1 9 11.1 9 10.4 0 21.2-8.5 21.2-17.2 0-5.8-5-9.1-11.1-9.1-9.7 0-21.2 8.1-21.2 17.3M2337 2481.8c0 4.2 3 9 11.1 9 10.3 0 21.2-8.5 21.2-17.2 0-5.8-5-9.1-11.2-9.1-9.6 0-21 8.1-21 17.3M2337 2519c0 4.2 3 9 11.1 9 10.3 0 21.2-8.5 21.2-17.2 0-5.8-5-9.1-11.2-9.1-9.6 0-21 8.1-21 17.3M2337 2568.6c0 4.2 3 9 11.1 9 10.3 0 21.2-8.5 21.2-17.2 0-5.8-5-9.1-11.2-9.1-9.6 0-21 8.1-21 17.3M2252.7 2568.6c0 4.2 3 9 11 9 10.4 0 21.2-8.5 21.2-17.2 0-5.8-5-9.1-11-9.1-9.7 0-21.2 8.1-21.2 17.3M2252.7 2519c0 4.2 3 9 11 9 10.4 0 21.2-8.5 21.2-17.2 0-5.8-5-9.1-11-9.1-9.7 0-21.2 8.1-21.2 17.3M2252.7 2481.8c0 4.2 3 9 11 9 10.4 0 21.2-8.5 21.2-17.2 0-5.8-5-9.1-11-9.1-9.7 0-21.2 8.1-21.2 17.3M560.2 3371.3c0 4.3 3 9 11 9 10.4 0 21.2-8.4 21.2-17.1 0-6-5-9.2-11.1-9.2-9.6 0-21.1 8.2-21.1 17.3M810.4 3321.7c0 4.3 3 9 11 9 10.4 0 21.2-8.4 21.2-17.1 0-6-5-9.2-11-9.2-9.7 0-21.2 8.2-21.2 17.3M810.4 3371.3c0 4.3 3 9 11 9 10.4 0 21.2-8.4 21.2-17.1 0-6-5-9.2-11-9.2-9.7 0-21.2 8.2-21.2 17.3M1371 3371.3c0 4.3 3 9 11 9 10.4 0 21.2-8.4 21.2-17.1 0-6-5-9.2-11.1-9.2-9.7 0-21.2 8.2-21.2 17.3M1371 3321.7c0 4.3 3 9 11 9 10.4 0 21.2-8.4 21.2-17.1 0-6-5-9.2-11.1-9.2-9.7 0-21.2 8.2-21.2 17.3M1873.2 2568.6c0 4.2 3.1 9 11.1 9 10.4 0 21.2-8.5 21.2-17.2 0-5.8-5-9.1-11.1-9.1-9.7 0-21.2 8.1-21.2 17.3M724.1 3321.7c0 4.3 3.1 9 11.2 9 10.3 0 21-8.4 21-17.1 0-6-4.9-9.2-11-9.2-9.7 0-21.2 8.2-21.2 17.3M1873.2 2519c0 4.2 3.1 9 11.1 9 10.4 0 21.2-8.5 21.2-17.2 0-5.8-5-9.1-11.1-9.1-9.7 0-21.2 8.1-21.2 17.3M1873.2 2481.8c0 4.2 3.1 9 11.1 9 10.4 0 21.2-8.5 21.2-17.2 0-5.8-5-9.1-11.1-9.1-9.7 0-21.2 8.1-21.2 17.3M724.1 3371.3c0 4.3 3.1 9 11.2 9 10.3 0 21-8.4 21-17.1 0-6-4.9-9.2-11-9.2-9.7 0-21.2 8.2-21.2 17.3M939.7 3371.3c0 4.3 3.1 9 11.2 9 10.3 0 21-8.4 21-17.1 0-6-4.9-9.2-11-9.2-9.7 0-21.2 8.2-21.2 17.3M1957.6 2568.6c0 4.2 3 9 11 9 10.4 0 21.2-8.5 21.2-17.2 0-5.8-5-9.1-11.1-9.1-9.6 0-21.1 8.1-21.1 17.3M1957.6 2519c0 4.2 3 9 11 9 10.4 0 21.2-8.5 21.2-17.2 0-5.8-5-9.1-11.1-9.1-9.6 0-21.1 8.1-21.1 17.3M1957.6 2481.8c0 4.2 3 9 11 9 10.4 0 21.2-8.5 21.2-17.2 0-5.8-5-9.1-11.1-9.1-9.6 0-21.1 8.1-21.1 17.3M1500.3 3371.3c0 4.3 3 9 11 9 10.4 0 21.2-8.4 21.2-17.1 0-6-5-9.2-11-9.2-9.7 0-21.2 8.2-21.2 17.3M1500.3 3321.7c0 4.3 3 9 11 9 10.4 0 21.2-8.4 21.2-17.1 0-6-5-9.2-11-9.2-9.7 0-21.2 8.2-21.2 17.3M2758.6 2481.8c0 4.2 3 9 11.1 9 10.3 0 21.2-8.5 21.2-17.2 0-5.8-5-9.1-11.2-9.1-9.6 0-21 8.1-21 17.3M2758.6 2519c0 4.2 3 9 11.1 9 10.3 0 21.2-8.5 21.2-17.2 0-5.8-5-9.1-11.2-9.1-9.6 0-21 8.1-21 17.3M2758.6 2568.6c0 4.2 3 9 11.1 9 10.3 0 21.2-8.5 21.2-17.2 0-5.8-5-9.1-11.2-9.1-9.6 0-21 8.1-21 17.3M1633 1681.4c0 4.2 3.1 9 11.2 9 10.3 0 21-8.4 21-17.2 0-5.8-4.9-9.1-11-9.1-9.7 0-21.2 8.1-21.2 17.3M1843.7 1656.6c0 4.2 3 9 11 9 10.4 0 21.2-8.4 21.2-17.2 0-5.8-5-9.1-11.1-9.1-9.6 0-21.1 8.1-21.1 17.3M1843.7 1693.8c0 4.2 3 9 11 9 10.4 0 21.2-8.4 21.2-17.2 0-5.8-5-9.1-11.1-9.1-9.6 0-21.1 8.1-21.1 17.3M1843.7 1743.4c0 4.2 3 9 11 9 10.4 0 21.2-8.4 21.2-17.2 0-5.8-5-9.1-11.1-9.1-9.6 0-21.1 8.1-21.1 17.3M2325.5 3371.3c0 4.3 3 9 11.1 9 10.3 0 21.2-8.4 21.2-17.1 0-6-5-9.2-11.2-9.2-9.6 0-21 8.2-21 17.3M1720.6 1644.2c0 4.2 3 9 11.1 9 10.3 0 21.2-8.4 21.2-17.2 0-5.8-5-9.1-11.2-9.1-9.6 0-21 8.1-21 17.3M1720.6 1681.4c0 4.2 3 9 11.1 9 10.3 0 21.2-8.4 21.2-17.2 0-5.8-5-9.1-11.2-9.1-9.6 0-21 8.1-21 17.3M1720.6 1731c0 4.2 3 9 11.1 9 10.3 0 21.2-8.4 21.2-17.2 0-5.8-5-9.1-11.2-9.1-9.6 0-21 8.1-21 17.3M1633 1644.2c0 4.2 3.1 9 11.2 9 10.3 0 21-8.4 21-17.2 0-5.8-4.9-9.1-11-9.1-9.7 0-21.2 8.1-21.2 17.3M2239.3 3321.7c0 4.3 3 9 11 9 10.4 0 21.2-8.4 21.2-17.1 0-6-5-9.2-11.1-9.2-9.6 0-21.1 8.2-21.1 17.3M1633 1731c0 4.2 3.1 9 11.2 9 10.3 0 21-8.4 21-17.2 0-5.8-4.9-9.1-11-9.1-9.7 0-21.2 8.1-21.2 17.3M2325.5 3321.7c0 4.3 3 9 11.1 9 10.3 0 21.2-8.4 21.2-17.1 0-6-5-9.2-11.2-9.2-9.6 0-21 8.2-21 17.3M1501.7 1644.2c0 4.2 3 9 11 9 10.4 0 21.2-8.4 21.2-17.2 0-5.8-5-9.1-11.1-9.1-9.6 0-21.1 8.1-21.1 17.3M1501.7 1681.4c0 4.2 3 9 11 9 10.4 0 21.2-8.4 21.2-17.2 0-5.8-5-9.1-11.1-9.1-9.6 0-21.1 8.1-21.1 17.3M1501.7 1731c0 4.2 3 9 11 9 10.4 0 21.2-8.4 21.2-17.2 0-5.8-5-9.1-11.1-9.1-9.6 0-21.1 8.1-21.1 17.3M1414 1644.2c0 4.2 3.2 9 11.2 9 10.3 0 21.1-8.4 21.1-17.2 0-5.8-5-9.1-11-9.1-9.7 0-21.2 8.1-21.2 17.3M1414 1681.4c0 4.2 3.2 9 11.2 9 10.3 0 21.1-8.4 21.1-17.2 0-5.8-5-9.1-11-9.1-9.7 0-21.2 8.1-21.2 17.3M1414 1731c0 4.2 3.2 9 11.2 9 10.3 0 21.1-8.4 21.1-17.2 0-5.8-5-9.1-11-9.1-9.7 0-21.2 8.1-21.2 17.3M2185.4 1743.4c0 4.2 3 9 11 9 10.4 0 21.2-8.4 21.2-17.2 0-5.8-5-9.1-11.1-9.1-9.6 0-21.1 8.1-21.1 17.3M2404.3 1656.6c0 4.2 3.1 9 11.1 9 10.4 0 21.2-8.4 21.2-17.2 0-5.8-5-9.1-11.1-9.1-9.7 0-21.2 8.1-21.2 17.3M2404.3 1693.8c0 4.2 3.1 9 11.1 9 10.4 0 21.2-8.4 21.2-17.2 0-5.8-5-9.1-11.1-9.1-9.7 0-21.2 8.1-21.2 17.3M2404.3 1743.4c0 4.2 3.1 9 11.1 9 10.4 0 21.2-8.4 21.2-17.2 0-5.8-5-9.1-11.1-9.1-9.7 0-21.2 8.1-21.2 17.3M2273 1656.6c0 4.2 3 9 11 9 10.4 0 21.2-8.4 21.2-17.2 0-5.8-5-9.1-11.1-9.1-9.6 0-21.2 8.1-21.2 17.3M2273 1693.8c0 4.2 3 9 11 9 10.4 0 21.2-8.4 21.2-17.2 0-5.8-5-9.1-11.1-9.1-9.6 0-21.2 8.1-21.2 17.3M2273 1743.4c0 4.2 3 9 11 9 10.4 0 21.2-8.4 21.2-17.2 0-5.8-5-9.1-11.1-9.1-9.6 0-21.2 8.1-21.2 17.3M2185.4 1656.6c0 4.2 3 9 11 9 10.4 0 21.2-8.4 21.2-17.2 0-5.8-5-9.1-11.1-9.1-9.6 0-21.1 8.1-21.1 17.3M2185.4 1693.8c0 4.2 3 9 11 9 10.4 0 21.2-8.4 21.2-17.2 0-5.8-5-9.1-11.1-9.1-9.6 0-21.1 8.1-21.1 17.3M1326.5 1644.2c0 4.2 3 9 11.1 9 10.3 0 21.1-8.4 21.1-17.2 0-5.8-5-9.1-11-9.1-9.7 0-21.2 8.1-21.2 17.3M2097.8 1656.6c0 4.2 3 9 11.1 9 10.3 0 21.1-8.4 21.1-17.2 0-5.8-5-9.1-11-9.1-9.7 0-21.2 8.1-21.2 17.3M2097.8 1693.8c0 4.2 3 9 11.1 9 10.3 0 21.1-8.4 21.1-17.2 0-5.8-5-9.1-11-9.1-9.7 0-21.2 8.1-21.2 17.3M2097.8 1743.4c0 4.2 3 9 11.1 9 10.3 0 21.1-8.4 21.1-17.2 0-5.8-5-9.1-11-9.1-9.7 0-21.2 8.1-21.2 17.3M2010.2 1656.6c0 4.2 3 9 11.1 9 10.3 0 21.2-8.4 21.2-17.2 0-5.8-5-9.1-11.2-9.1-9.6 0-21 8.1-21 17.3M2010.2 1693.8c0 4.2 3 9 11.1 9 10.3 0 21.2-8.4 21.2-17.2 0-5.8-5-9.1-11.2-9.1-9.6 0-21 8.1-21 17.3M2010.2 1743.4c0 4.2 3 9 11.1 9 10.3 0 21.2-8.4 21.2-17.2 0-5.8-5-9.1-11.2-9.1-9.6 0-21 8.1-21 17.3M2239.3 3371.3c0 4.3 3 9 11 9 10.4 0 21.2-8.4 21.2-17.1 0-6-5-9.2-11.1-9.2-9.6 0-21.1 8.2-21.1 17.3M2541.1 3321.7c0 4.3 3 9 11.1 9 10.3 0 21.2-8.4 21.2-17.1 0-6-5-9.2-11.2-9.2-9.6 0-21 8.2-21 17.3M844.8 1681.4c0 4.2 3 9 11.1 9 10.3 0 21.1-8.4 21.1-17.2 0-5.8-5-9.1-11-9.1-9.7 0-21.2 8.1-21.2 17.3M844.8 1731c0 4.2 3 9 11.1 9 10.3 0 21.1-8.4 21.1-17.2 0-5.8-5-9.1-11-9.1-9.7 0-21.2 8.1-21.2 17.3M757.2 1644.2c0 4.2 3 9 11.1 9 10.3 0 21.2-8.4 21.2-17.2 0-5.8-5-9.1-11.2-9.1-9.6 0-21 8.1-21 17.3M757.2 1681.4c0 4.2 3 9 11.1 9 10.3 0 21.2-8.4 21.2-17.2 0-5.8-5-9.1-11.2-9.1-9.6 0-21 8.1-21 17.3M757.2 1731c0 4.2 3 9 11.1 9 10.3 0 21.2-8.4 21.2-17.2 0-5.8-5-9.1-11.2-9.1-9.6 0-21 8.1-21 17.3M560.2 1644.2c0 4.2 3 9 11 9 10.4 0 21.2-8.4 21.2-17.2 0-5.8-5-9.1-11.1-9.1-9.6 0-21.1 8.1-21.1 17.3M2541.1 3371.3c0 4.3 3 9 11.1 9 10.3 0 21.2-8.4 21.2-17.1 0-6-5-9.2-11.2-9.2-9.6 0-21 8.2-21 17.3M560.2 1681.4c0 4.2 3 9 11 9 10.4 0 21.2-8.4 21.2-17.2 0-5.8-5-9.1-11.1-9.1-9.6 0-21.1 8.1-21.1 17.3M844.8 1644.2c0 4.2 3 9 11.1 9 10.3 0 21.1-8.4 21.1-17.2 0-5.8-5-9.1-11-9.1-9.7 0-21.2 8.1-21.2 17.3M560.2 1731c0 4.2 3 9 11 9 10.4 0 21.2-8.4 21.2-17.2 0-5.8-5-9.1-11.1-9.1-9.6 0-21.1 8.1-21.1 17.3M2670.5 3371.3c0 4.3 3 9 11 9 10.4 0 21.2-8.4 21.2-17.1 0-6-5-9.2-11.1-9.2-9.6 0-21.1 8.2-21.1 17.3M2670.5 3321.7c0 4.3 3 9 11 9 10.4 0 21.2-8.4 21.2-17.1 0-6-5-9.2-11.1-9.2-9.6 0-21.1 8.2-21.1 17.3M2756.7 3371.3c0 4.3 3 9 11.1 9 10.3 0 21.1-8.4 21.1-17.1 0-6-5-9.2-11-9.2-9.7 0-21.2 8.2-21.2 17.3M2688.7 877.9c0 4.2 3 9 11.1 9 10.3 0 21.1-8.4 21.1-17.2 0-5.8-5-9-11-9-9.7 0-21.2 8-21.2 17.2M2756.7 3321.7c0 4.3 3 9 11.1 9 10.3 0 21.1-8.4 21.1-17.1 0-6-5-9.2-11-9.2-9.7 0-21.2 8.2-21.2 17.3M1529.6 877.9c0 4.2 3 9 11 9 10.4 0 21.2-8.4 21.2-17.2 0-5.8-5-9-11-9-9.7 0-21.2 8-21.2 17.2M1151.3 1731c0 4.2 3.1 9 11.2 9 10.3 0 21-8.4 21-17.2 0-5.8-4.9-9.1-11-9.1-9.7 0-21.2 8.1-21.2 17.3M1326.5 1681.4c0 4.2 3 9 11.1 9 10.3 0 21.1-8.4 21.1-17.2 0-5.8-5-9.1-11-9.1-9.7 0-21.2 8.1-21.2 17.3M1326.5 1731c0 4.2 3 9 11.1 9 10.3 0 21.1-8.4 21.1-17.2 0-5.8-5-9.1-11-9.1-9.7 0-21.2 8.1-21.2 17.3M1239 1644.2c0 4.2 3 9 11 9 10.3 0 21.2-8.4 21.2-17.2 0-5.8-5-9.1-11.2-9.1-9.6 0-21 8.1-21 17.3M1239 1681.4c0 4.2 3 9 11 9 10.3 0 21.2-8.4 21.2-17.2 0-5.8-5-9.1-11.2-9.1-9.6 0-21 8.1-21 17.3M1239 1731c0 4.2 3 9 11 9 10.3 0 21.2-8.4 21.2-17.2 0-5.8-5-9.1-11.2-9.1-9.6 0-21 8.1-21 17.3M2411.8 3371.3c0 4.3 3 9 11 9 10.4 0 21.2-8.4 21.2-17.1 0-6-5-9.2-11.1-9.2-9.6 0-21.2 8.2-21.2 17.3M1151.3 1644.2c0 4.2 3.1 9 11.2 9 10.3 0 21-8.4 21-17.2 0-5.8-4.9-9.1-11-9.1-9.7 0-21.2 8.1-21.2 17.3M1151.3 1681.4c0 4.2 3.1 9 11.2 9 10.3 0 21-8.4 21-17.2 0-5.8-4.9-9.1-11-9.1-9.7 0-21.2 8.1-21.2 17.3M1563.7 2543.8c0 4.2 3 9 11.1 9 10.3 0 21.2-8.5 21.2-17.2 0-5.8-5-9.1-11.2-9.1-9.6 0-21 8.1-21 17.3M2411.8 3321.7c0 4.3 3 9 11 9 10.4 0 21.2-8.4 21.2-17.1 0-6-5-9.2-11.1-9.2-9.6 0-21.2 8.2-21.2 17.3M1020 1644.2c0 4.2 3 9 11 9 10.4 0 21.2-8.4 21.2-17.2 0-5.8-5-9.1-11.1-9.1-9.6 0-21.1 8.1-21.1 17.3M1020 1681.4c0 4.2 3 9 11 9 10.4 0 21.2-8.4 21.2-17.2 0-5.8-5-9.1-11.1-9.1-9.6 0-21.1 8.1-21.1 17.3M1020 1731c0 4.2 3 9 11 9 10.4 0 21.2-8.4 21.2-17.2 0-5.8-5-9.1-11.1-9.1-9.6 0-21.1 8.1-21.1 17.3M932.4 1644.2c0 4.2 3 9 11.1 9 10.3 0 21.1-8.4 21.1-17.2 0-5.8-5-9.1-11-9.1-9.7 0-21.2 8.1-21.2 17.3M932.4 1681.4c0 4.2 3 9 11.1 9 10.3 0 21.1-8.4 21.1-17.2 0-5.8-5-9.1-11-9.1-9.7 0-21.2 8.1-21.2 17.3M932.4 1731c0 4.2 3 9 11.1 9 10.3 0 21.1-8.4 21.1-17.2 0-5.8-5-9.1-11-9.1-9.7 0-21.2 8.1-21.2 17.3M1894.3 3371.3c0 4.3 3 9 11.1 9 10.3 0 21.2-8.4 21.2-17.1 0-6-5-9.2-11.2-9.2-9.6 0-21 8.2-21 17.3M560.2 2543.8c0 4.2 3 9 11 9 10.4 0 21.2-8.5 21.2-17.2 0-5.8-5-9.1-11.1-9.1-9.6 0-21.1 8.1-21.1 17.3M560.2 2494.2c0 4.2 3 9 11 9 10.4 0 21.2-8.5 21.2-17.2 0-5.8-5-9.1-11.1-9.1-9.6 0-21.1 8.1-21.1 17.3M1479.4 2543.8c0 4.2 3 9 11.1 9 10.3 0 21.1-8.5 21.1-17.2 0-5.8-5-9.1-11-9.1-9.7 0-21.2 8.1-21.2 17.3M720.5 2543.8c0 4.2 3 9 11.1 9 10.3 0 21.1-8.5 21.1-17.2 0-5.8-5-9.1-11-9.1-9.7 0-21.2 8.1-21.2 17.3M720.5 2494.2c0 4.2 3 9 11.1 9 10.3 0 21.1-8.5 21.1-17.2 0-5.8-5-9.1-11-9.1-9.7 0-21.2 8.1-21.2 17.3M804.8 2543.8c0 4.2 3 9 11.1 9 10.3 0 21.2-8.5 21.2-17.2 0-5.8-5-9.1-11.2-9.1-9.6 0-21 8.1-21 17.3M1730.3 3321.7c0 4.3 3.1 9 11.2 9 10.3 0 21-8.4 21-17.1 0-6-4.9-9.2-11-9.2-9.7 0-21.2 8.2-21.2 17.3M804.8 2494.2c0 4.2 3 9 11.1 9 10.3 0 21.2-8.5 21.2-17.2 0-5.8-5-9.1-11.2-9.1-9.6 0-21 8.1-21 17.3M1353 2494.2c0 4.2 3 9 11 9 10.3 0 21.2-8.5 21.2-17.2 0-5.8-5-9.1-11.2-9.1-9.6 0-21 8.1-21 17.3M1894.3 3321.7c0 4.3 3 9 11.1 9 10.3 0 21.2-8.4 21.2-17.1 0-6-5-9.2-11.2-9.2-9.6 0-21 8.2-21 17.3M1479.4 2494.2c0 4.2 3 9 11.1 9 10.3 0 21.1-8.5 21.1-17.2 0-5.8-5-9.1-11-9.1-9.7 0-21.2 8.1-21.2 17.3M931.3 2543.8c0 4.2 3 9 11.1 9 10.3 0 21.1-8.5 21.1-17.2 0-5.8-5-9.1-11-9.1-9.7 0-21.2 8.1-21.2 17.3M931.3 2494.2c0 4.2 3 9 11.1 9 10.3 0 21.1-8.5 21.1-17.2 0-5.8-5-9.1-11-9.1-9.7 0-21.2 8.1-21.2 17.3M1353 2543.8c0 4.2 3 9 11 9 10.3 0 21.2-8.5 21.2-17.2 0-5.8-5-9.1-11.2-9.1-9.6 0-21 8.1-21 17.3M1226.4 2494.2c0 4.2 3.1 9 11.1 9 10.4 0 21.2-8.5 21.2-17.2 0-5.8-5-9.1-11.1-9.1-9.7 0-21.2 8.1-21.2 17.3M1226.4 2543.8c0 4.2 3.1 9 11.1 9 10.4 0 21.2-8.5 21.2-17.2 0-5.8-5-9.1-11.1-9.1-9.7 0-21.2 8.1-21.2 17.3M1057.8 2543.8c0 4.2 3 9 11.1 9 10.3 0 21.1-8.5 21.1-17.2 0-5.8-5-9.1-11-9.1-9.7 0-21.2 8.1-21.2 17.3M1057.8 2494.2c0 4.2 3 9 11.1 9 10.3 0 21.1-8.5 21.1-17.2 0-5.8-5-9.1-11-9.1-9.7 0-21.2 8.1-21.2 17.3M1142.1 2494.2c0 4.2 3 9 11.1 9 10.3 0 21.2-8.5 21.2-17.2 0-5.8-5-9.1-11.2-9.1-9.6 0-21 8.1-21 17.3M2110 3321.7c0 4.3 3 9 11 9 10.3 0 21.2-8.4 21.2-17.1 0-6-5-9.2-11.2-9.2-9.6 0-21 8.2-21 17.3M1142.1 2543.8c0 4.2 3 9 11.1 9 10.3 0 21.2-8.5 21.2-17.2 0-5.8-5-9.1-11.2-9.1-9.6 0-21 8.1-21 17.3M2741.7 1656.6c0 4.2 3 9 11.1 9 10.3 0 21.2-8.4 21.2-17.2 0-5.8-5-9.1-11.2-9.1-9.6 0-21 8.1-21 17.3M2654.1 1743.4c0 4.2 3.1 9 11.1 9 10.4 0 21.2-8.4 21.2-17.2 0-5.8-5-9.1-11.1-9.1-9.7 0-21.2 8.1-21.2 17.3M2654.1 1693.8c0 4.2 3.1 9 11.1 9 10.4 0 21.2-8.4 21.2-17.2 0-5.8-5-9.1-11.1-9.1-9.7 0-21.2 8.1-21.2 17.3M1980.6 3371.3c0 4.3 3 9 11 9 10.4 0 21.2-8.4 21.2-17.1 0-6-5-9.2-11.1-9.2-9.6 0-21.1 8.2-21.1 17.3M2654.1 1656.6c0 4.2 3.1 9 11.1 9 10.4 0 21.2-8.4 21.2-17.2 0-5.8-5-9.1-11.1-9.1-9.7 0-21.2 8.1-21.2 17.3M1980.6 3321.7c0 4.3 3 9 11 9 10.4 0 21.2-8.4 21.2-17.1 0-6-5-9.2-11.1-9.2-9.6 0-21.1 8.2-21.1 17.3M2741.7 1693.8c0 4.2 3 9 11.1 9 10.3 0 21.2-8.4 21.2-17.2 0-5.8-5-9.1-11.2-9.1-9.6 0-21 8.1-21 17.3M2741.7 1743.4c0 4.2 3 9 11.1 9 10.3 0 21.2-8.4 21.2-17.2 0-5.8-5-9.1-11.2-9.1-9.6 0-21 8.1-21 17.3M1563.7 2494.2c0 4.2 3 9 11.1 9 10.3 0 21.2-8.5 21.2-17.2 0-5.8-5-9.1-11.2-9.1-9.6 0-21 8.1-21 17.3M1168.2 791c0 4.3 3 9.1 11 9.1 10.4 0 21.2-8.4 21.2-17.2 0-5.8-5-9-11.1-9-9.6 0-21.1 8-21.1 17.2M1529.6 1045.3c0 4.2 3 9 11 9 10.4 0 21.2-8.4 21.2-17.2 0-5.8-5-9-11-9-9.7 0-21.2 8-21.2 17.2M1353 2775.2c0 4.3 3 9 11 9 10.3 0 21.2-8.4 21.2-17.1 0-5.9-5-9.1-11.2-9.1-9.6 0-21 8.1-21 17.2M632.4 1032.9c0 4.2 3.1 9 11.2 9 10.3 0 21-8.4 21-17.2 0-5.8-4.9-9-11-9-9.7 0-21.2 8-21.2 17.2M1529.6 1008c0 4.3 3 9.1 11 9.1 10.4 0 21.2-8.4 21.2-17.2 0-5.8-5-9-11-9-9.7 0-21.2 8-21.2 17.2M1719.3 1082.5c0 4.2 3 9 11 9 10.4 0 21.2-8.4 21.2-17.2 0-5.8-5-9-11-9-9.7 0-21.2 8-21.2 17.2M1371 3602.8c0 4.2 3 9 11 9 10.4 0 21.2-8.4 21.2-17.2 0-5.8-5-9.1-11.1-9.1-9.7 0-21.2 8.1-21.2 17.3M1069 3602.8c0 4.2 3.2 9 11.2 9 10.3 0 21.1-8.4 21.1-17.2 0-5.8-5-9.1-11-9.1-9.7 0-21.2 8.1-21.2 17.3M560.2 3602.8c0 4.2 3 9 11 9 10.4 0 21.2-8.4 21.2-17.2 0-5.8-5-9.1-11.1-9.1-9.6 0-21.1 8.1-21.1 17.3M2541.1 3602.8c0 4.2 3 9 11.1 9 10.3 0 21.2-8.4 21.2-17.2 0-5.8-5-9.1-11.2-9.1-9.6 0-21 8.1-21 17.3M560.2 1962.4c0 4.3 3 9 11 9 10.4 0 21.2-8.4 21.2-17.1 0-5.9-5-9.1-11.1-9.1-9.6 0-21.1 8.1-21.1 17.2M2411.8 3602.8c0 4.2 3 9 11 9 10.4 0 21.2-8.4 21.2-17.2 0-5.8-5-9.1-11.1-9.1-9.6 0-21.2 8.1-21.2 17.3M1529.6 1094.9c0 4.2 3 9 11 9 10.4 0 21.2-8.4 21.2-17.2 0-5.8-5-9-11-9-9.7 0-21.2 8-21.2 17.2M1457.3 803.5c0 4.2 3 9 11.1 9 10.3 0 21.1-8.4 21.1-17.2 0-5.8-5-9-11-9-9.7 0-21.2 8-21.2 17.2M1226.4 2775.2c0 4.3 3.1 9 11.1 9 10.4 0 21.2-8.4 21.2-17.1 0-5.9-5-9.1-11.1-9.1-9.7 0-21.2 8.1-21.2 17.2M1155.3 3602.8c0 4.2 3.1 9 11.1 9 10.4 0 21.2-8.4 21.2-17.2 0-5.8-5-9.1-11.1-9.1-9.7 0-21.2 8.1-21.2 17.3M757.2 1962.4c0 4.3 3 9 11.1 9 10.3 0 21.2-8.4 21.2-17.1 0-5.9-5-9.1-11.2-9.1-9.6 0-21 8.1-21 17.2M1385 803.5c0 4.2 3 9 11.1 9 10.3 0 21.2-8.4 21.2-17.2 0-5.8-5-9-11.2-9-9.6 0-21 8-21 17.2M1142.1 2775.2c0 4.3 3 9 11.1 9 10.3 0 21.2-8.4 21.2-17.1 0-5.9-5-9.1-11.2-9.1-9.6 0-21 8.1-21 17.2M1312.7 865.5c0 4.2 3.1 9 11.1 9 10.4 0 21.2-8.4 21.2-17.2 0-5.8-5-9-11.1-9-9.7 0-21.2 8-21.2 17.2M1210.7 995.7c0 4.2 3 9 11.1 9 10.3 0 21.1-8.4 21.1-17.2 0-5.8-5-9-11-9-9.7 0-21.2 8-21.2 17.2M2616.4 815.9c0 4.2 3 9 11.1 9 10.3 0 21.2-8.4 21.2-17.2 0-5.8-5-9-11.2-9-9.6 0-21 8-21 17.2M1965.9 865.5c0 4.2 3 9 11 9 10.4 0 21.2-8.4 21.2-17.2 0-5.8-5-9-11.1-9-9.6 0-21.1 8-21.1 17.2M2038.2 840.7c0 4.2 3 9 11 9 10.4 0 21.2-8.4 21.2-17.2 0-5.8-5-9-11.1-9-9.6 0-21.1 8-21.1 17.2M939.7 3602.8c0 4.2 3.1 9 11.2 9 10.3 0 21-8.4 21-17.2 0-5.8-4.9-9.1-11-9.1-9.7 0-21.2 8.1-21.2 17.3M2756.7 3602.8c0 4.2 3 9 11.1 9 10.3 0 21.1-8.4 21.1-17.2 0-5.8-5-9.1-11-9.1-9.7 0-21.2 8.1-21.2 17.3M2110.4 778.7c0 4.2 3.1 9 11.2 9 10.3 0 21-8.4 21-17.2 0-5.8-4.9-9-11-9-9.7 0-21.2 8-21.2 17.2M2153 995.7c0 4.2 3 9 11 9 10.4 0 21.2-8.4 21.2-17.2 0-5.8-5-9-11-9-9.7 0-21.2 8-21.2 17.2M2255 865.5c0 4.2 3 9 11.1 9 10.3 0 21.1-8.4 21.1-17.2 0-5.8-5-9-11-9-9.7 0-21.2 8-21.2 17.2M2327.3 791c0 4.3 3 9.1 11.1 9.1 10.3 0 21.1-8.4 21.1-17.2 0-5.8-5-9-11-9-9.7 0-21.2 8-21.2 17.2M2369.8 995.7c0 4.2 3 9 11.1 9 10.3 0 21.2-8.4 21.2-17.2 0-5.8-5-9-11.2-9-9.6 0-21 8-21 17.2M2471.9 865.5c0 4.2 3 9 11 9 10.4 0 21.2-8.4 21.2-17.2 0-5.8-5-9-11.1-9-9.6 0-21.2 8-21.2 17.2M2544.1 815.9c0 4.2 3.1 9 11.1 9 10.4 0 21.2-8.4 21.2-17.2 0-5.8-5-9-11.1-9-9.7 0-21.2 8-21.2 17.2M1241.6 3602.8c0 4.2 3 9 11 9 10.4 0 21.2-8.4 21.2-17.2 0-5.8-5-9.1-11.1-9.1-9.6 0-21.1 8.1-21.1 17.3M810.4 3602.8c0 4.2 3 9 11 9 10.4 0 21.2-8.4 21.2-17.2 0-5.8-5-9.1-11-9.1-9.7 0-21.2 8.1-21.2 17.3M993.9 995.7c0 4.2 3 9 11 9 10.4 0 21.2-8.4 21.2-17.2 0-5.8-5-9-11.1-9-9.6 0-21.1 8-21.1 17.2M1479.4 2775.2c0 4.3 3 9 11.1 9 10.3 0 21.1-8.4 21.1-17.1 0-5.9-5-9.1-11-9.1-9.7 0-21.2 8.1-21.2 17.2M1563.7 2775.2c0 4.3 3 9 11.1 9 10.3 0 21.2-8.4 21.2-17.1 0-5.9-5-9.1-11.2-9.1-9.6 0-21 8.1-21 17.2M844.8 1962.4c0 4.3 3 9 11.1 9 10.3 0 21.1-8.4 21.1-17.1 0-5.9-5-9.1-11-9.1-9.7 0-21.2 8.1-21.2 17.2M1863.9 995.7c0 4.2 3 9 11 9 10.4 0 21.2-8.4 21.2-17.2 0-5.8-5-9-11.1-9-9.6 0-21.2 8-21.2 17.2M2688.7 1094.9c0 4.2 3 9 11.1 9 10.3 0 21.1-8.4 21.1-17.2 0-5.8-5-9-11-9-9.7 0-21.2 8-21.2 17.2M2688.7 1045.3c0 4.2 3 9 11.1 9 10.3 0 21.1-8.4 21.1-17.2 0-5.8-5-9-11-9-9.7 0-21.2 8-21.2 17.2M2670.5 3602.8c0 4.2 3 9 11 9 10.4 0 21.2-8.4 21.2-17.2 0-5.8-5-9.1-11.1-9.1-9.6 0-21.1 8.1-21.1 17.3M2688.7 1008c0 4.3 3 9.1 11.1 9.1 10.3 0 21.1-8.4 21.1-17.2 0-5.8-5-9-11-9-9.7 0-21.2 8-21.2 17.2M1791.6 1032.9c0 4.2 3 9 11 9 10.4 0 21.2-8.4 21.2-17.2 0-5.8-5-9-11.1-9-9.6 0-21.1 8-21.1 17.2M1095.9 865.5c0 4.2 3 9 11 9 10.4 0 21.2-8.4 21.2-17.2 0-5.8-5-9-11-9-9.7 0-21.2 8-21.2 17.2M724.1 3602.8c0 4.2 3.1 9 11.2 9 10.3 0 21-8.4 21-17.2 0-5.8-4.9-9.1-11-9.1-9.7 0-21.2 8.1-21.2 17.3M704.7 995.7c0 4.2 3 9 11.1 9 10.3 0 21.2-8.4 21.2-17.2 0-5.8-5-9-11.1-9-9.7 0-21.2 8-21.2 17.2M1957.6 2800c0 4.3 3 9 11 9 10.4 0 21.2-8.4 21.2-17.1 0-5.9-5-9.1-11.1-9.1-9.6 0-21.1 8.1-21.1 17.2M1414 1962.4c0 4.3 3.2 9 11.2 9 10.3 0 21.1-8.4 21.1-17.1 0-5.9-5-9.1-11-9.1-9.7 0-21.2 8.1-21.2 17.2M1894.3 3602.8c0 4.2 3 9 11.1 9 10.3 0 21.2-8.4 21.2-17.2 0-5.8-5-9.1-11.2-9.1-9.6 0-21 8.1-21 17.3M1873.2 2800c0 4.3 3.1 9 11.1 9 10.4 0 21.2-8.4 21.2-17.1 0-5.9-5-9.1-11.1-9.1-9.7 0-21.2 8.1-21.2 17.2M2547.8 2800c0 4.3 3 9 11.1 9 10.3 0 21.2-8.4 21.2-17.1 0-5.9-5-9.1-11.2-9.1-9.6 0-21 8.1-21 17.2M1730.3 3602.8c0 4.2 3.1 9 11.2 9 10.3 0 21-8.4 21-17.2 0-5.8-4.9-9.1-11-9.1-9.7 0-21.2 8.1-21.2 17.3M1501.7 1962.4c0 4.3 3 9 11 9 10.4 0 21.2-8.4 21.2-17.1 0-5.9-5-9.1-11.1-9.1-9.6 0-21.1 8.1-21.1 17.2M1633 1962.4c0 4.3 3.1 9 11.2 9 10.3 0 21-8.4 21-17.1 0-5.9-4.9-9.1-11-9.1-9.7 0-21.2 8.1-21.2 17.2M2421.3 2800c0 4.3 3.1 9 11.1 9 10.4 0 21.2-8.4 21.2-17.1 0-5.9-5-9.1-11.1-9.1-9.7 0-21.2 8.1-21.2 17.2M1720.6 1962.4c0 4.3 3 9 11.1 9 10.3 0 21.2-8.4 21.2-17.1 0-5.9-5-9.1-11.2-9.1-9.6 0-21 8.1-21 17.2M951.3 778.7c0 4.2 3 9 11.1 9 10.3 0 21.2-8.4 21.2-17.2 0-5.8-5-9-11.2-9-9.6 0-21 8-21 17.2M879 840.7c0 4.2 3.1 9 11.1 9 10.4 0 21.2-8.4 21.2-17.2 0-5.8-5-9-11.1-9-9.7 0-21.2 8-21.2 17.2M2239.3 3602.8c0 4.2 3 9 11 9 10.4 0 21.2-8.4 21.2-17.2 0-5.8-5-9.1-11.1-9.1-9.6 0-21.1 8.1-21.1 17.3M1843.7 1974.8c0 4.3 3 9 11 9 10.4 0 21.2-8.4 21.2-17.1 0-5.9-5-9.1-11.1-9.1-9.6 0-21.1 8.1-21.1 17.2M2337 2800c0 4.3 3 9 11.1 9 10.3 0 21.2-8.4 21.2-17.1 0-5.9-5-9.1-11.2-9.1-9.6 0-21 8.1-21 17.2M560.2 2775.2c0 4.3 3 9 11 9 10.4 0 21.2-8.4 21.2-17.1 0-5.9-5-9.1-11.1-9.1-9.6 0-21.1 8.1-21.1 17.2M806.8 865.5c0 4.2 3 9 11 9 10.4 0 21.2-8.4 21.2-17.2 0-5.8-5-9-11.1-9-9.6 0-21.1 8-21.1 17.2M2010.2 1974.8c0 4.3 3 9 11.1 9 10.3 0 21.2-8.4 21.2-17.1 0-5.9-5-9.1-11.2-9.1-9.6 0-21 8.1-21 17.2M1980.6 3602.8c0 4.2 3 9 11 9 10.4 0 21.2-8.4 21.2-17.2 0-5.8-5-9.1-11.1-9.1-9.6 0-21.1 8.1-21.1 17.3M2041.9 2800c0 4.3 3 9 11 9 10.4 0 21.2-8.4 21.2-17.1 0-5.9-5-9.1-11-9.1-9.7 0-21.2 8.1-21.2 17.2M2741.7 1974.8c0 4.3 3 9 11.1 9 10.3 0 21.2-8.4 21.2-17.1 0-5.9-5-9.1-11.2-9.1-9.6 0-21 8.1-21 17.2M2097.8 1974.8c0 4.3 3 9 11.1 9 10.3 0 21.1-8.4 21.1-17.1 0-5.9-5-9.1-11-9.1-9.7 0-21.2 8.1-21.2 17.2M2252.7 2800c0 4.3 3 9 11 9 10.4 0 21.2-8.4 21.2-17.1 0-5.9-5-9.1-11-9.1-9.7 0-21.2 8.1-21.2 17.2M1586.5 3602.8c0 4.2 3 9 11.1 9 10.3 0 21.2-8.4 21.2-17.2 0-5.8-5-9.1-11.2-9.1-9.6 0-21 8.1-21 17.3M2185.4 1974.8c0 4.3 3 9 11 9 10.4 0 21.2-8.4 21.2-17.1 0-5.9-5-9.1-11.1-9.1-9.6 0-21.1 8.1-21.1 17.2M2110 3602.8c0 4.2 3 9 11 9 10.3 0 21.2-8.4 21.2-17.2 0-5.8-5-9.1-11.2-9.1-9.6 0-21 8.1-21 17.3M2654.1 1974.8c0 4.3 3.1 9 11.1 9 10.4 0 21.2-8.4 21.2-17.1 0-5.9-5-9.1-11.1-9.1-9.7 0-21.2 8.1-21.2 17.2M2280.4 1979.2c-3.3 0-4-2.7-4-3.6 0-4.8 16.7-13.4 21.4-13.4 2.3 0 4 1.4 4 3.6 0 5-16.9 13.4-21.4 13.4m13.7-21.6c-9.6 0-21.2 8-21.2 17.2 0 4.3 3.1 9 11.2 9 10.3 0 21-8.4 21-17.1 0-5.9-4.9-9.1-11-9.1M2126.2 2800c0 4.3 3 9 11.1 9 10.3 0 21.1-8.4 21.1-17.1 0-5.9-5-9.1-11-9.1-9.7 0-21.2 8.1-21.2 17.2M1057.8 2775.2c0 4.3 3 9 11.1 9 10.3 0 21.1-8.4 21.1-17.1 0-5.9-5-9.1-11-9.1-9.7 0-21.2 8.1-21.2 17.2M1326.5 1962.4c0 4.3 3 9 11.1 9 10.3 0 21.1-8.4 21.1-17.1 0-5.9-5-9.1-11-9.1-9.7 0-21.2 8.1-21.2 17.2M804.8 2775.2c0 4.3 3 9 11.1 9 10.3 0 21.2-8.4 21.2-17.1 0-5.9-5-9.1-11.2-9.1-9.6 0-21 8.1-21 17.2M1151.3 1962.4c0 4.3 3.1 9 11.2 9 10.3 0 21-8.4 21-17.1 0-5.9-4.9-9.1-11-9.1-9.7 0-21.2 8.1-21.2 17.2M2758.6 2800c0 4.3 3 9 11.1 9 10.3 0 21.2-8.4 21.2-17.1 0-5.9-5-9.1-11.2-9.1-9.6 0-21 8.1-21 17.2M1683.5 2800c0 4.3 3 9 11.1 9 10.3 0 21.2-8.4 21.2-17.1 0-5.9-5-9.1-11.2-9.1-9.6 0-21 8.1-21 17.2M1020 1962.4c0 4.3 3 9 11 9 10.4 0 21.2-8.4 21.2-17.1 0-5.9-5-9.1-11.1-9.1-9.6 0-21.1 8.1-21.1 17.2M2706 2786.4q.5-.4.5-1v-.1q0-.6-.4-1l-1.2-1.1q-.3-.4-1-.4-.4 0-.8.3l-12.6 10-12.7-10q-.3-.3-1-.3-.4 0-.8.4l-1.3 1.2q-.3.3-.4 1 0 .6.5 1l12 9.5-12 9.5q-.5.3-.5 1 0 .5.4.9l1.2 1.3q.3.4 1 .4.5 0 .9-.3l12.7-10 12.6 10q.4.3.9.3t1-.4l1.1-1.3q.3-.3.4-1 0-.5-.5-1l-12-9.4zM1239 1962.4c0 4.3 3 9 11 9 10.3 0 21.2-8.4 21.2-17.1 0-5.9-5-9.1-11.2-9.1-9.6 0-21 8.1-21 17.2M2325.5 3602.8c0 4.2 3 9 11.1 9 10.3 0 21.2-8.4 21.2-17.2 0-5.8-5-9.1-11.2-9.1-9.6 0-21 8.1-21 17.3M560.2 1082.5c0 4.2 3 9 11 9 10.4 0 21.2-8.4 21.2-17.2 0-5.8-5-9-11.1-9-9.6 0-21.1 8-21.1 17.2M1500.3 3602.8c0 4.2 3 9 11 9 10.4 0 21.2-8.4 21.2-17.2 0-5.8-5-9.1-11-9.1-9.7 0-21.2 8.1-21.2 17.3M931.3 2775.2c0 4.3 3 9 11.1 9 10.3 0 21.1-8.4 21.1-17.1 0-5.9-5-9.1-11-9.1-9.7 0-21.2 8.1-21.2 17.2M932.4 1962.4c0 4.3 3 9 11.1 9 10.3 0 21.1-8.4 21.1-17.1 0-5.9-5-9.1-11-9.1-9.7 0-21.2 8.1-21.2 17.2M720.5 2775.2c0 4.3 3 9 11.1 9 10.3 0 21.1-8.4 21.1-17.1 0-5.9-5-9.1-11-9.1-9.7 0-21.2 8.1-21.2 17.2" class="Note"/><path d="M431.2 1417q-3 .6-5.8.6c-14.2 0-26.3-9.9-26.3-24.9 0-12 8.6-22.9 17.3-30.4l4.8-4.4 2.2 14.1c-9 2.7-15.1 12.2-15.1 21.5 0 7 5.4 16.5 13.4 16.5.7 0 1.6-.4 1.6-1.3s-1-1.4-2.1-2.2c-4-2.4-6.1-5-6.1-9.8 0-6 4.5-11 10.3-12.3zm-8.8-102c1-4 5.5-14.3 10.7-14.3 1.4 0 3.8 4.8 3.8 11.7 0 10.3-7.6 18-14.5 24.8q-.9-6-1-12 0-5.5 1-10.1m22.9 83.6c0 7-3 14.3-10 17.2l-5.4-32.1c9 0 15.4 6 15.4 14.9m-43.7 48.8c0 6.5 5 15.2 18.5 15.2a23 23 0 0 0 12.3-3.4c5.3-3.8 6.7-10.3 6.7-16.6q0-5.6-1.6-14l-1.5-8.8c9.8-3.2 17-13.3 17-23.5a24 24 0 0 0-25.1-25.1l-2.9-17.4a56 56 0 0 0 17.8-39.1c0-9-2.8-16.4-4.4-20-2.4-5-5.2-8.5-7-8.5-.7 0-3.8 1.2-7 5-6.4 7.6-8.2 20.3-8.2 28.6 0 5.4.5 10.2 2.2 21.3-.1.1-5.3 5.4-7.4 7-9 8.5-21.5 20.5-21.5 40.4a34 34 0 0 0 34.6 33q4.4 0 7.9-.6 3 14 3 21.7-.1 15.7-15.3 15.8c-2.4 0-4.5-.5-4.7-.5l-.3-.3q0-.3.5-.4a11 11 0 0 0 9.3-11c0-5.4-4-11-11.5-11-7 0-11.4 5.6-11.4 12.2M431.2 481q-3 .6-5.8.6c-14.2 0-26.3-9.9-26.3-24.9 0-12 8.6-22.9 17.3-30.4l4.8-4.4 2.2 14.1c-9 2.7-15.1 12.2-15.1 21.5 0 7 5.4 16.5 13.4 16.5.7 0 1.6-.4 1.6-1.3s-1-1.4-2.1-2.2c-4-2.4-6.1-5-6.1-9.8 0-6 4.5-11 10.3-12.3zm-8.8-102c1-4 5.5-14.3 10.7-14.3 1.4 0 3.8 4.8 3.8 11.7 0 10.3-7.6 18-14.5 24.8q-.9-6-1-12 0-5.5 1-10.1m22.9 83.6c0 7-3 14.3-10 17.2l-5.4-32.1c9 0 15.4 6 15.4 14.9m-43.7 48.8c0 6.5 5 15.2 18.5 15.2a23 23 0 0 0 12.3-3.4c5.3-3.8 6.7-10.3 6.7-16.6q0-5.6-1.6-14L436 484c9.8-3.2 17-13.3 17-23.5a24 24 0 0 0-25.1-25.1l-2.9-17.4a56 56 0 0 0 17.8-39.1c0-9-2.8-16.4-4.4-20-2.4-5-5.2-8.5-7-8.5-.7 0-3.8 1.2-7 5-6.4 7.6-8.2 20.3-8.2 28.6 0 5.4.5 10.2 2.2 21.3-.1.1-5.3 5.4-7.4 7-9 8.5-21.5 20.5-21.5 40.4a34 34 0 0 0 34.6 33q4.4 0 7.9-.6 3 14 3 21.7-.1 15.7-15.3 15.8c-2.4 0-4.5-.5-4.7-.5l-.3-.3q0-.3.5-.4a11 11 0 0 0 9.3-11c0-5.4-4-11-11.5-11-7 0-11.4 5.6-11.4 12.2M431.2 2272.2q-3 .6-5.8.6c-14.2 0-26.3-10-26.3-25 0-12 8.6-22.8 17.3-30.4q2.5-2.2 4.8-4.3l2.2 14c-9 2.7-15.1 12.3-15.1 21.6 0 7 5.4 16.5 13.4 16.5.7 0 1.6-.5 1.6-1.3 0-1-1-1.4-2.1-2.2-4-2.4-6.1-5-6.1-9.8 0-6 4.5-11 10.3-12.3zm-8.8-102c1-4 5.5-14.4 10.7-14.4 1.4 0 3.8 4.9 3.8 11.7 0 10.4-7.6 18-14.5 24.8q-.9-5.9-1-12 0-5.4 1-10m22.9 83.5c0 7-3 14.3-10 17.2l-5.4-32c9 0 15.4 6 15.4 14.8m-43.7 48.8c0 6.6 5 15.2 18.5 15.2a23 23 0 0 0 12.3-3.3c5.3-3.8 6.7-10.4 6.7-16.6 0-3.9-.6-8.3-1.6-14l-1.5-8.8c9.8-3.2 17-13.3 17-23.5a24 24 0 0 0-25.1-25.1L425 2209a56 56 0 0 0 17.8-39.2c0-9-2.8-16.3-4.4-20-2.4-5-5.2-8.5-7-8.5-.7 0-3.8 1.2-7 5.1-6.4 7.5-8.2 20.2-8.2 28.6 0 5.3.5 10.2 2.2 21.3-.1.1-5.3 5.4-7.4 7-9 8.5-21.5 20.5-21.5 40.3a34 34 0 0 0 34.6 33.2q4.4 0 7.9-.7c1.9 9.5 3 16.4 3 21.7q-.1 15.6-15.3 15.8c-2.4 0-4.5-.5-4.7-.5l-.3-.3q0-.3.5-.4a11 11 0 0 0 9.3-11c0-5.4-4-11-11.5-11-7 0-11.4 5.6-11.4 12.1M431.2 3109.8q-3 .6-5.8.6c-14.2 0-26.3-10-26.3-25 0-12 8.6-22.8 17.3-30.4q2.5-2.1 4.8-4.3l2.2 14c-9 2.7-15.1 12.3-15.1 21.6 0 7 5.4 16.5 13.4 16.5.7 0 1.6-.5 1.6-1.3 0-1-1-1.4-2.1-2.2-4-2.4-6.1-5-6.1-9.8 0-6 4.5-11 10.3-12.3zm-8.8-102c1-4 5.5-14.4 10.7-14.4 1.4 0 3.8 4.9 3.8 11.7 0 10.4-7.6 18-14.5 24.8q-.9-5.8-1-12 0-5.5 1-10m22.9 83.5c0 7-3 14.3-10 17.2l-5.4-32c9 0 15.4 6 15.4 14.8m-43.7 48.8c0 6.6 5 15.2 18.5 15.2a23 23 0 0 0 12.3-3.3c5.3-3.8 6.7-10.4 6.7-16.6 0-3.9-.6-8.3-1.6-14l-1.5-8.8c9.8-3.2 17-13.3 17-23.5a24 24 0 0 0-25.1-25.1l-2.9-17.4a56 56 0 0 0 17.8-39.2c0-9-2.8-16.3-4.4-20-2.4-5-5.2-8.5-7-8.5-.7 0-3.8 1.2-7 5.1-6.4 7.5-8.2 20.2-8.2 28.6 0 5.3.5 10.2 2.2 21.3-.1.1-5.3 5.4-7.4 7-9 8.5-21.5 20.5-21.5 40.3a34 34 0 0 0 34.6 33.2q4.4 0 7.9-.7c1.9 9.5 3 16.4 3 21.7q-.1 15.6-15.3 15.8c-2.4 0-4.5-.5-4.7-.5l-.3-.3q0-.3.5-.4a11 11 0 0 0 9.3-11c0-5.4-4-11-11.5-11-7 0-11.4 5.6-11.4 12.1M431.2 1697.6q-3 .6-5.8.6c-14.2 0-26.3-9.9-26.3-24.9 0-12 8.6-22.9 17.3-30.4l4.8-4.4 2.2 14.1c-9 2.7-15.1 12.2-15.1 21.5 0 7 5.4 16.5 13.4 16.5.7 0 1.6-.4 1.6-1.3s-1-1.4-2.1-2.2c-4-2.4-6.1-5-6.1-9.8 0-6 4.5-11 10.3-12.3zm-8.8-102c1-4 5.5-14.3 10.7-14.3 1.4 0 3.8 4.8 3.8 11.7 0 10.3-7.6 18-14.5 24.8q-.9-6-1-12 0-5.5 1-10.1m22.9 83.6c0 7-3 14.3-10 17.2l-5.4-32.1c9 0 15.4 6 15.4 14.9m-43.7 48.8c0 6.5 5 15.2 18.5 15.2a23 23 0 0 0 12.3-3.4c5.3-3.8 6.7-10.3 6.7-16.6q0-5.6-1.6-14l-1.5-8.8c9.8-3.2 17-13.3 17-23.5a24 24 0 0 0-25.1-25.1l-2.9-17.4a56 56 0 0 0 17.8-39.1c0-9-2.8-16.4-4.4-20-2.4-5-5.2-8.5-7-8.5-.7 0-3.8 1.2-7 5-6.4 7.6-8.2 20.3-8.2 28.6 0 5.4.5 10.2 2.2 21.3-.1.1-5.3 5.4-7.4 7-9 8.5-21.5 20.5-21.5 40.4a34 34 0 0 0 34.6 33q4.4 0 7.9-.6 3 14 3 21.7-.1 15.7-15.3 15.8c-2.4 0-4.5-.5-4.7-.5l-.3-.3q0-.3.5-.4a11 11 0 0 0 9.3-11c0-5.4-4-11-11.5-11-7 0-11.4 5.6-11.4 12.2M431.2 2535.2q-3 .6-5.8.6c-14.2 0-26.3-9.9-26.3-24.9 0-12 8.6-22.9 17.3-30.4l4.8-4.4 2.2 14c-9 2.8-15.1 12.3-15.1 21.6 0 7 5.4 16.5 13.4 16.5.7 0 1.6-.4 1.6-1.3s-1-1.4-2.1-2.2c-4-2.4-6.1-5-6.1-9.8 0-6 4.5-11 10.3-12.3zm-8.8-102c1-4 5.5-14.3 10.7-14.3 1.4 0 3.8 4.8 3.8 11.7 0 10.3-7.6 18-14.5 24.8q-.9-6-1-12 0-5.5 1-10.2m22.9 83.7c0 7-3 14.3-10 17.1l-5.4-32c9 0 15.4 6 15.4 14.9m-43.7 48.8c0 6.5 5 15.2 18.5 15.2a23 23 0 0 0 12.3-3.4c5.3-3.8 6.7-10.3 6.7-16.6q0-5.6-1.6-14l-1.5-8.8c9.8-3.2 17-13.3 17-23.5a24 24 0 0 0-25.1-25.1L425 2472a56 56 0 0 0 17.8-39.2c0-9-2.8-16.3-4.4-19.9-2.4-5-5.2-8.5-7-8.5-.7 0-3.8 1.2-7 5-6.4 7.6-8.2 20.3-8.2 28.6 0 5.4.5 10.2 2.2 21.3-.1.1-5.3 5.4-7.4 7-9 8.5-21.5 20.5-21.5 40.4a34 34 0 0 0 34.6 33q4.4 0 7.9-.6 3 14 3 21.7-.1 15.6-15.3 15.8c-2.4 0-4.5-.5-4.7-.5l-.3-.3q0-.3.5-.4a11 11 0 0 0 9.3-11c0-5.4-4-11-11.5-11-7 0-11.4 5.6-11.4 12.2M431.2 3362.7q-3 .7-5.8.7c-14.2 0-26.3-10-26.3-25 0-12 8.6-22.9 17.3-30.4l4.8-4.4 2.2 14.1c-9 2.7-15.1 12.2-15.1 21.6 0 6.9 5.4 16.4 13.4 16.4.7 0 1.6-.4 1.6-1.3s-1-1.4-2.1-2.2c-4-2.3-6.1-5-6.1-9.8 0-6 4.5-10.9 10.3-12.3zm-8.8-102c1-3.9 5.5-14.3 10.7-14.3 1.4 0 3.8 4.8 3.8 11.7 0 10.3-7.6 18-14.5 24.8q-.9-5.8-1-12 0-5.5 1-10.1m22.9 83.6c0 7-3 14.3-10 17.2l-5.4-32c9 0 15.4 6 15.4 14.8m-43.7 48.8c0 6.6 5 15.2 18.5 15.2a23 23 0 0 0 12.3-3.4c5.3-3.7 6.7-10.3 6.7-16.6q0-5.6-1.6-14l-1.5-8.8c9.8-3.1 17-13.3 17-23.5a24 24 0 0 0-25.1-25l-2.9-17.4a56 56 0 0 0 17.8-39.2c0-9-2.8-16.4-4.4-20-2.4-5-5.2-8.5-7-8.5-.7 0-3.8 1.2-7 5-6.4 7.6-8.2 20.3-8.2 28.6 0 5.4.5 10.3 2.2 21.4-.1 0-5.3 5.3-7.4 7-9 8.4-21.5 20.4-21.5 40.3a34 34 0 0 0 34.6 33.1q4.4 0 7.9-.7 3 14 3 21.7-.1 15.7-15.3 15.8c-2.4 0-4.5-.5-4.7-.5l-.3-.3q0-.3.5-.4a11 11 0 0 0 9.3-11c0-5.3-4-11-11.5-11-7 0-11.4 5.7-11.4 12.2M431.2 795q-3 .5-5.8.5c-14.2 0-26.3-9.9-26.3-24.9 0-12 8.6-22.9 17.3-30.4l4.8-4.4 2.2 14.1c-9 2.7-15.1 12.2-15.1 21.5 0 7 5.4 16.5 13.4 16.5.7 0 1.6-.4 1.6-1.3s-1-1.4-2.1-2.2c-4-2.4-6.1-5-6.1-9.8 0-6 4.5-11 10.3-12.3zm-8.8-102c1-3.9 5.5-14.3 10.7-14.3 1.4 0 3.8 4.8 3.8 11.7 0 10.3-7.6 18-14.5 24.8q-.9-5.9-1-12 0-5.5 1-10.1m22.9 83.6c0 7-3 14.3-10 17.2l-5.4-32c9 0 15.4 6 15.4 14.8m-43.7 48.8c0 6.6 5 15.2 18.5 15.2a23 23 0 0 0 12.3-3.4c5.3-3.8 6.7-10.3 6.7-16.6q0-5.6-1.6-14l-1.5-8.8c9.8-3.2 17-13.3 17-23.5a24 24 0 0 0-25.1-25l-2.9-17.4a56 56 0 0 0 17.8-39.2c0-9-2.8-16.4-4.4-20-2.4-5-5.2-8.5-7-8.5-.7 0-3.8 1.2-7 5-6.4 7.6-8.2 20.3-8.2 28.6 0 5.4.5 10.2 2.2 21.4-.1 0-5.3 5.3-7.4 7-9 8.4-21.5 20.4-21.5 40.3a34 34 0 0 0 34.6 33.1q4.4 0 7.9-.7 3 14 3 21.7-.1 15.7-15.3 15.8c-2.4 0-4.5-.5-4.7-.5l-.3-.3q0-.3.5-.4a11 11 0 0 0 9.3-11c0-5.3-4-11-11.5-11-7 0-11.4 5.7-11.4 12.2M445.8 1822c0 2.8 2.2 5 4.8 5s4.8-2.2 4.8-5-2.2-5-4.8-5-4.8 2.2-4.8 5m-31-12.6c-7.6 0-13.7 4.3-13.8 4.3a23 23 0 0 0-9.6 18c0 7.3 4.2 12.7 11.5 12.7 6.4 0 11.3-4.3 11.3-10.8a10.6 10.6 0 0 0-13.7-9.8c-1 .3-2.7 1.3-3.5 2 .7-4.3 3.7-8.7 7.6-10.8a19 19 0 0 1 9.1-2q15.1 0 15.1 24.8c0 13-8.2 31.5-18 40.2a85 85 0 0 1-20.1 14s-1.2.6-1.2 1.8l.1.5c.3 1 1.2 1.2 1.8 1.2l.5-.1s11.4-4.7 20.4-11.7c14-10 29.6-27.7 29.6-46 0-17.2-9.3-28.3-27.2-28.3m31.1 37c0 2.8 2.2 5.1 4.8 5.1s4.8-2.3 4.8-5-2.2-5-4.8-5-4.8 2.2-4.8 5M445.8 3487c0 2.9 2.2 5 4.8 5s4.8-2.1 4.8-5c0-2.7-2.2-5-4.8-5s-4.8 2.3-4.8 5m-31-12.5c-7.6 0-13.7 4.4-13.8 4.4a23 23 0 0 0-9.6 18c0 7.3 4.2 12.6 11.5 12.6 6.4 0 11.3-4.2 11.3-10.8a10.6 10.6 0 0 0-13.7-9.8c-1 .4-2.7 1.4-3.5 2 .7-4.3 3.7-8.7 7.6-10.8a19 19 0 0 1 9.1-2q15.1 0 15.1 24.9c0 12.9-8.2 31.4-18 40.2a85 85 0 0 1-20.1 13.8s-1.2.7-1.2 2l.1.4c.3 1 1.2 1.2 1.8 1.2h.5s11.4-4.7 20.4-11.8c14-10 29.6-27.7 29.6-46 0-17.2-9.3-28.3-27.2-28.3m31.1 37.1c0 2.8 2.2 5 4.8 5s4.8-2.2 4.8-5-2.2-5-4.8-5-4.8 2.2-4.8 5M445.8 966.8c0 2.8 2.2 5 4.8 5s4.8-2.2 4.8-5-2.2-5-4.8-5-4.8 2.2-4.8 5m-31-12.6c-7.6 0-13.7 4.4-13.8 4.4a23 23 0 0 0-9.6 18c0 7.3 4.2 12.6 11.5 12.6 6.4 0 11.3-4.2 11.3-10.8a10.6 10.6 0 0 0-13.7-9.8c-1 .4-2.7 1.4-3.5 2 .7-4.3 3.7-8.6 7.6-10.7a19 19 0 0 1 9.1-2q15.1-.1 15.1 24.8c0 12.9-8.2 31.4-18 40.2a85 85 0 0 1-20.1 13.9s-1.2.6-1.2 1.8l.1.5c.3 1 1.2 1.2 1.8 1.2h.5s11.4-4.7 20.4-11.8c14-10 29.6-27.7 29.6-46 0-17.2-9.3-28.3-27.2-28.3m31.1 37.1c0 2.8 2.2 5 4.8 5s4.8-2.2 4.8-5-2.2-5-4.8-5-4.8 2.2-4.8 5M445.8 2659.6c0 2.8 2.2 5 4.8 5s4.8-2.2 4.8-5-2.2-5-4.8-5-4.8 2.2-4.8 5m-31-12.6c-7.6 0-13.7 4.3-13.8 4.3a23 23 0 0 0-9.6 18c0 7.3 4.2 12.7 11.5 12.7 6.4 0 11.3-4.3 11.3-10.8a10.6 10.6 0 0 0-13.7-9.8c-1 .3-2.7 1.3-3.5 2 .7-4.3 3.7-8.7 7.6-10.8a19 19 0 0 1 9.1-2q15.1 0 15.1 24.8c0 13-8.2 31.5-18 40.2a85 85 0 0 1-20.1 14s-1.2.6-1.2 1.8l.1.5c.3 1 1.2 1.2 1.8 1.2l.5-.1s11.4-4.7 20.4-11.7c14-10 29.6-27.7 29.6-46 0-17.2-9.3-28.3-27.2-28.3m31.1 37c0 2.8 2.2 5.1 4.8 5.1s4.8-2.3 4.8-5-2.2-5-4.8-5-4.8 2.2-4.8 5" class="Clef"/><path d="m481.7 3007.6 8.8-1.8v16.4l-8.8 1.9zm15.4-3q1-.3 1-1.5v-5.8q0-1.3-1.3-1.4h-.2l-3.3.7v-14.8h-2.8v15.4l-8.8 1.8v-14h-2.8v14.6l-3.8.8c-.6 0-1.1.8-1.1 1.4v5.7q.1 1.3 1.4 1.4h.3l3.2-.7v16.4l-3.8.8c-.6 0-1.1.8-1.1 1.4v5.7q.1 1.3 1.4 1.4h.3l3.2-.7v14.8h2.8v-15.4l8.8-1.8v14h2.8v-14.6l3.8-.7c.6 0 1-.7 1-1.3v-5.9q0-1.3-1.3-1.4h-.2l-3.3.7v-16.4zM481.7 378.9l8.8-1.8v16.3l-8.8 2zm15.4-3.1q1-.3 1-1.4v-5.9q0-1.2-1.3-1.4h-.2l-3.3.7v-14.7h-2.8v15.3l-8.8 1.8v-14h-2.8v14.6l-3.8.8q-1 .3-1.1 1.4v5.8q.1 1.2 1.4 1.4h.3l3.2-.7v16.3l-3.8.8q-1 .3-1.1 1.4v5.8q.1 1.2 1.4 1.3h.3l3.2-.6v14.7h2.8V404l8.8-1.8v14h2.8v-14.6l3.8-.7q1-.3 1-1.4v-5.9q0-1.3-1.3-1.3h-.2l-3.3.6v-16.3zM481.7 1314.9l8.8-1.8v16.3l-8.8 2zm15.4-3.1q1-.3 1-1.4v-5.9q0-1.2-1.3-1.3h-.2l-3.3.6v-14.7h-2.8v15.3l-8.8 1.8v-14h-2.8v14.6l-3.8.8q-1 .3-1.1 1.4v5.8q.1 1.3 1.4 1.4h.3l3.2-.7v16.3l-3.8.8q-1 .3-1.1 1.4v5.8q.1 1.3 1.4 1.3h.3l3.2-.6v14.7h2.8V1340l8.8-1.8v14h2.8v-14.6l3.8-.7q1-.3 1-1.4v-5.9q0-1.2-1.3-1.3h-.2l-3.3.6v-16.3zM481.7 2170l8.8-1.8v16.4l-8.8 1.9zm15.4-3q1-.3 1-1.5v-5.8q0-1.3-1.3-1.4h-.2l-3.3.7v-14.8h-2.8v15.4l-8.8 1.8v-14h-2.8v14.6l-3.8.8c-.6 0-1.1.8-1.1 1.4v5.7q.1 1.3 1.4 1.4h.3l3.2-.7v16.4l-3.8.8c-.6 0-1.1.8-1.1 1.4v5.7q.1 1.3 1.4 1.4h.3l3.2-.7v14.8h2.8V2195l8.8-1.8v14h2.8v-14.6l3.8-.7q1-.2 1-1.3v-5.9q0-1.3-1.3-1.4h-.2l-3.3.7v-16.4zM481.7 692.8l8.8-1.8v16.3l-8.8 2zm15.4-3.1q1-.3 1-1.4v-5.8q0-1.3-1.3-1.4h-.2l-3.3.7V667h-2.8v15.3l-8.8 1.8v-14h-2.8v14.6l-3.8.8q-1 .3-1.1 1.4v5.8q.1 1.3 1.4 1.4h.3l3.2-.7v16.3l-3.8.8q-1 .3-1.1 1.4v5.8q.1 1.3 1.4 1.4h.3l3.2-.7V733h2.8v-15.3l8.8-1.8v14h2.8v-14.6l3.8-.7q1-.3 1-1.4v-5.8q0-1.3-1.3-1.4h-.2l-3.3.7v-16.4zM481.7 3260.6l8.8-1.8v16.4l-8.8 1.8zm15.4-3.1c.6 0 1-.8 1-1.4v-5.8q0-1.3-1.3-1.4h-.2l-3.3.7v-14.8h-2.8v15.4l-8.8 1.8v-14h-2.8v14.5l-3.8.8q-1 .3-1.1 1.4v5.8q.1 1.3 1.4 1.4h.3l3.2-.7v16.3l-3.8.8q-1 .3-1.1 1.4v5.8q.1 1.3 1.4 1.4h.3l3.2-.7v14.8h2.8v-15.4l8.8-1.8v14h2.8v-14.6l3.8-.7q1-.3 1-1.4v-5.8q0-1.3-1.3-1.4h-.2l-3.3.7v-16.4zM481.7 1595.5l8.8-1.8v16.3l-8.8 2zm15.4-3.1q1-.3 1-1.4v-5.9q0-1.2-1.3-1.3h-.2l-3.3.6v-14.7h-2.8v15.3l-8.8 1.8v-14h-2.8v14.6l-3.8.8q-1 .3-1.1 1.4v5.8q.1 1.3 1.4 1.4h.3l3.2-.7v16.3l-3.8.8q-1 .3-1.1 1.4v5.8q.1 1.2 1.4 1.3h.3l3.2-.6v14.7h2.8v-15.3l8.8-1.8v14h2.8V1618l3.8-.7q1-.3 1-1.4v-5.9q0-1.2-1.3-1.3h-.2l-3.3.6v-16.3zM481.7 2433l8.8-1.7v16.3l-8.8 2zm15.4-3q1-.3 1-1.4v-5.9q0-1.3-1.3-1.4h-.2l-3.3.7v-14.7h-2.8v15.3l-8.8 1.8v-14h-2.8v14.6l-3.8.8q-1 .3-1.1 1.4v5.7q.1 1.3 1.4 1.4h.3l3.2-.7v16.4l-3.8.8q-1 .3-1.1 1.4v5.8q.1 1.2 1.4 1.3h.3l3.2-.7v14.8h2.8V2458l8.8-1.7v14h2.8v-14.6l3.8-.7q1-.3 1-1.4v-5.9q0-1.3-1.3-1.4h-.2l-3.3.7v-16.3zM481.7 3492l8.8-1.7v16.3l-8.8 2zm15.4-3.1q1-.3 1-1.4v-5.9q0-1.2-1.3-1.3h-.2l-3.3.6v-14.7h-2.8v15.3l-8.8 1.8v-14h-2.8v14.6l-3.8.8q-1 .3-1.1 1.4v5.8q.1 1.3 1.4 1.4h.3l3.2-.7v16.3l-3.8.8q-1 .3-1.1 1.4v5.8q.1 1.3 1.4 1.3h.3l3.2-.6v14.7h2.8v-15.3l8.8-1.8v14h2.8v-14.6l3.8-.7q1-.3 1-1.4v-5.9q0-1.2-1.3-1.3h-.2l-3.3.6v-16.3zM481.7 1827l8.8-1.9v16.4l-8.8 1.9zm15.4-3q1-.3 1-1.4v-5.9q0-1.3-1.3-1.4h-.2l-3.3.7v-14.8h-2.8v15.4l-8.8 1.8v-14h-2.8v14.6l-3.8.8c-.6 0-1.1.8-1.1 1.4v5.7q.1 1.3 1.4 1.4h.3l3.2-.7v16.4l-3.8.8c-.6 0-1.1.8-1.1 1.4v5.7q.1 1.3 1.4 1.4h.3l3.2-.7v14.8h2.8v-15.4l8.8-1.8v14h2.8v-14.5l3.8-.7q1-.4 1-1.4v-5.9q0-1.3-1.3-1.4h-.2l-3.3.7v-16.3zM481.7 2664.5l8.8-1.8v16.4l-8.8 1.9zm15.4-3q1-.3 1-1.4v-5.9q0-1.3-1.3-1.4h-.2l-3.3.7v-14.8h-2.8v15.4l-8.8 1.8v-14h-2.8v14.6l-3.8.8c-.6 0-1.1.8-1.1 1.4v5.7q.1 1.3 1.4 1.4h.3l3.2-.7v16.4l-3.8.8c-.6 0-1.1.8-1.1 1.4v5.7q.1 1.3 1.4 1.4h.3l3.2-.7v14.8h2.8v-15.4l8.8-1.8v14h2.8v-14.5l3.8-.7q1-.4 1-1.4v-5.9q0-1.3-1.3-1.4h-.2l-3.3.7v-16.3zM481.7 971.8l8.8-1.8v16.4l-8.8 1.8zm15.4-3.1q1-.3 1-1.4v-5.8q0-1.3-1.3-1.4h-.2l-3.3.7V946h-2.8v15.3l-8.8 1.8v-14h-2.8v14.6l-3.8.8q-1 .3-1.1 1.4v5.8q.1 1.3 1.4 1.4h.3l3.2-.7v16.3l-3.8.8q-1 .3-1.1 1.4v5.8q.1 1.3 1.4 1.4h.3l3.2-.7v14.7h2.8v-15.3l8.8-1.8v14h2.8v-14.6l3.8-.7q1-.3 1-1.4v-5.8q0-1.3-1.3-1.4h-.2l-3.3.7v-16.4z" class="KeySig"/><path d="m583 2243.4-.6-.7-11.4-14-.2-.7q0-.4.2-.8l10-15.3q.3-.3.3-.7v-.9q0-.5-.3-.8l-16-21.7s-.5-.6-1-.6q-.5 0-.9.3-.6.5-.5 1 .1 1 .3 1l7.6 10.4q.3.5.3 1.2t-.3 1.2l-10 15.2-.2.8v1q0 .3.3.7l11 13.8q-.5-.2-2.4-.3c-5 0-9 4.2-9 9.2q0 2.2 1 3.9c2.1 3.2 9.6 12.6 9.6 12.6s.5.6 1.2.6q.3 0 .6-.2.7-.6.7-1.2t-.3-.9l-3.5-6.2s-.7-1.4-.7-3.2c0-3.2 2.4-5.8 5.5-5.8a6 6 0 0 1 3.2 1l3.9 2.4.8.2q.6.1 1-.5l.3-.9q0-.4-.3-.8zM867.6 1388.3l-.6-.7-11.4-14.1-.2-.6.2-.9 10.1-15.3.2-.7v-.9q0-.5-.3-.8l-16-21.7s-.4-.6-1-.6q-.4 0-.8.3-.5.5-.5 1 .1 1 .3 1.1l7.5 10.3q.3.5.3 1.2t-.3 1.2l-10 15.3-.2.8v.9q0 .5.3.8l11.1 13.8q-.6-.4-2.5-.4c-5 0-9 4.2-9 9.3q0 2.2 1 3.8c2.2 3.2 9.6 12.6 9.6 12.6s.5.6 1.2.6q.3 0 .6-.2.7-.5.7-1.2 0-.5-.3-.8l-3.5-6.3s-.7-1.4-.7-3.2c0-3.2 2.4-5.7 5.6-5.7a6 6 0 0 1 3.2.9l3.8 2.5.8.1q.6.1 1-.5.3-.4.3-.8t-.3-.8zM583 3081l-.6-.7-11.4-14-.2-.7q0-.4.2-.8l10-15.3q.3-.4.3-.7v-.9q0-.5-.3-.8l-16-21.7s-.5-.6-1-.6q-.5 0-.9.3-.6.5-.5 1 .1 1 .3 1l7.6 10.4q.3.4.3 1.2t-.3 1.2l-10 15.2-.2.8v1q0 .3.3.7l11 13.8q-.5-.2-2.4-.3c-5 0-9 4.2-9 9.2q0 2.2 1 3.9c2.1 3.2 9.6 12.6 9.6 12.6s.5.6 1.2.6q.3 0 .6-.2.7-.6.7-1.2t-.3-.9l-3.5-6.2s-.7-1.4-.7-3.2c0-3.2 2.4-5.8 5.5-5.8a6 6 0 0 1 3.2 1l3.9 2.4.8.2q.6.1 1-.5l.3-.9q0-.4-.3-.8zM718 1351.7l-.4-.1q-.9 0-1.3.8c-.4.6-3.4 6.4-7.9 9.7q-2 1.5-4.5 2 1.7-2 1.8-4.8a7 7 0 0 0-14.2 0c0 5.4 5.3 7.8 10 7.8 5.2 0 8.7-2.4 12-6.1l-11.3 35.3 2.7.8 14-43.7v-.5q0-.8-.9-1.2M1710 2206.8h-.4q-.9 0-1.3.7c-.4.6-3.5 6.5-8 9.7q-1.9 1.5-4.4 2 1.7-2 1.8-4.7a7 7 0 0 0-14.2 0c0 5.3 5.3 7.8 10 7.8 5.2 0 8.7-2.5 12-6.2l-11.3 35.4 2.7.8 13.9-43.8.1-.5q0-.7-.9-1.2" class="Rest"/><path fill-rule="evenodd" d="m2010.3 2996.4 131.9-6.2v12.4l-131.9 6.2zM834.6 2152.6l129 6.2v12.4l-129-6.2zM879 497.8l117.3 12.4v12.4L879 510.2zM2646.2 373.8l120.6 6.2v12.4l-120.6-6.2zM560.2 504l249-6.2v12.4l-249 6.2zM809.2 479.2l-27.2.7v12.4l27.2-.7zM1168.2 504l219.3-6.2v12.4l-219.3 6.2zM1387.5 479.2l-27.3.8v12.4l27.3-.8zM1839.8 2152.6h318.6v12.4h-318.7zM840.1 2990.2l131.9 6.2v12.4l-131.9-6.2zM1457.3 497.8l120.6 12.4v12.4l-120.6-12.4zM590 1559.4h199.5v12.4H589.9zM789.5 1578h-27.3v12.4h27.3zM1713.3 2397h192.2v12.4h-192.2zM1905.5 2415.6h-27.3v12.4h27.3zM1181.1 1559.4h265.2v12.4h-265.2zM1181.1 1578h265.2v12.4h-265.2zM2570.9 3237h218v12.3h-218zM2700.2 3255.5h88.7v12.4h-88.7zM1087.6 2409.4h171v12.4h-171zM1087.6 2428h86.8v12.4h-86.9zM1987.3 2403.2h171.1v12.4h-171zM1531.4 1559.4H1753v12.4h-221.5zM1662.8 1578h90v12.4h-90zM2282.4 2397h171.2v12.4h-171.2zM2282.4 2415.6h86.8v12.4h-86.8zM2577.6 2397h213.3v12.4h-213.3zM2704 2415.6h86.9v12.4H2704zM874.6 1559.4h177.6v12.4H874.6zM874.6 1578h90v12.4h-90zM1760.1 3237h166.5v12.3H1760zM1926.6 3255.5h-27.3v12.4h27.3zM834.6 2415.6h129v12.4h-129zM1382.7 2409.4H1596v12.4h-213.3zM1509.2 2428h86.8v12.4h-86.8zM590 2409.4h162.7v12.4H590zM752.7 2428h-27.2v12.4h27.2zM1098.9 3237h175v12.3h-175zM1098.9 3255.5h88.7v12.4h-88.7zM2269 3237h175v12.3h-175zM2269 3255.5h88.8v12.4H2269zM1873.4 1571.8h169v12.4h-169zM2042.5 1590.4h-27.3v12.4h27.3zM2683.9 1571.8h90v12.4h-90zM2683.9 1590.4h90v12.4h-90zM840.1 3243.1H972v12.4H840zM1400.7 3237h218v12.3h-218zM1530 3255.5h88.8v12.4H1530zM2010.3 3243.1h131.9v12.4h-131.9zM2127.6 1571.8h177.6v12.4h-177.6zM2127.6 1590.4h90v12.4h-90zM590 3237h166.4v12.3H589.9zM756.4 3255.5H729v12.4h27.3zM1098.9 3518h175v12.4h-175zM1098.9 3536.6h88.7v12.4h-88.7zM2683.9 1859h90v12.5h-90zM2683.9 1877.7h90v12.4h-90zM1181.1 1859h265.2v12.5h-265.2zM1181.1 1877.7h265.2v12.4h-265.2zM1087.6 2690.5h171v12.4h-171zM1087.6 2709h86.8v12.5h-86.9zM2010.3 3518h131.9v12.4h-131.9zM2127.6 1859h90v12.5h-90zM2127.6 1877.7h90v12.4h-90zM1760.1 3518h166.5v12.4H1760zM1926.6 3536.6h-27.3v12.4h27.3zM1873.4 1859h169v12.5h-169zM2042.5 1877.7h-27.3v12.4h27.3zM1531.4 1859H1753v12.5h-221.5zM1662.8 1877.7h90v12.4h-90zM834.6 2690.5h129v12.4h-129zM590 2690.5h162.7v12.4H590zM752.7 2709h-27.2v12.5h27.2zM2269 3518h175v12.4h-175zM2269 3536.6h88.8v12.4H2269zM879 923.3l219.4 12.4v12.4L879 935.7zM879 904.7l219.4 12.4v12.4L879 917.1zM2282.4 2696.7h171.2v12.4h-171.2zM2282.4 2715.3h86.8v12.4h-86.8zM1168.2 929.5h219.3V942h-219.3zM1168.2 911h219.3v12.3h-219.3zM1400.7 3518h218v12.4h-218zM1530 3536.6h88.8v12.4H1530zM1457.3 892.5l104.5 12V917l-104.5-12zM1457.3 873.9l27.3 3.1v12.5l-27.3-3.1zM1749 923.3l219.3-24.8V911L1749 935.8zM1749 941.9l219.3-24.8v12.5L1749 954.4zM2038.2 923.3l219.3 12.4v12.4l-219.3-12.4zM2038.2 904.7l219.3 12.4v12.4l-219.3-12.4zM2327.3 929.5h219.3V942h-219.3zM2327.3 911h219.3v12.3h-219.3zM590 923.3l219.2-24.8V911L590 935.8zM590 941.9 809.1 917v12.5L590 954.4zM2577.6 2696.7h213.3v12.4h-213.3zM2704 2715.3h86.9v12.4H2704zM2616.4 898.7l104.5 12v12.5l-104.5-12zM2616.4 880l27.3 3.2v12.5l-27.3-3.1zM2570.9 3518h218v12.4h-218zM2700.2 3536.6h88.7v12.4h-88.7zM1987.3 2696.7h171.1v12.4h-171zM1987.3 2715.3h86.8v12.4h-86.8zM590 3518h166.4v12.4H589.9zM756.4 3536.6H729v12.4h27.3zM840.1 3518H972v12.4H840zM1713.3 2696.7h192.2v12.4h-192.2zM1905.5 2715.3h-27.3v12.4h27.3zM590 1859h199.5v12.5H589.9zM789.5 1877.7h-27.3v12.4h27.3zM874.6 1859h177.6v12.5H874.6zM874.6 1877.7h90v12.4h-90zM1382.7 2690.5H1596v12.4h-213.3zM1509.2 2709h86.8v12.5h-86.8z" class="Beam"/><path d="m2137.3 3192-5-12.8-.1-1q-.2-1.3 2-1.2h1.3v-1.8h-11.2v1.8h.8q2.3-.2 2.7 1.8l.4 1.3-4.4 11.7-4.9-12.6-.2-1q0-1.3 2-1.2h1v-1.8h-11v1.8h.9q1.9-.2 2.6 2.4l7.5 19.8h1.7l6-15.8 6 15.8h1.6l7-18.4c1.1-3 1.9-3.8 3.7-3.8h.4v-1.8h-9.5v1.8h.9q2.5 0 2.4 1.8 0 .8-.4 1.8zm20.3-29.3a2.9 2.9 0 1 0 0 5.8 2.9 2.9 0 0 0 0-5.8m2.3 12.5-9.3.5v2.2h2.5c1.9 0 2.2.3 2.2 2.5v14.3q-.1 1-.4 1.3-.3.6-3.4.7h-.3v1.8h12.9v-1.8h-.3c-3.4-.1-3.9-.4-3.9-2.2zm15.2 0v-10h-2q-.9 9.8-6.8 10.2v2h4v12.7c0 3.5.2 4.7.7 5.9q1.3 3.1 5.7 3.2c4.5 0 7.4-3.4 7.4-8.7v-1.1h-2.2q-.2 6.8-3.9 6.8-1.8 0-2.5-1.5-.4-1.1-.4-3.7v-13.7h7.3v-2.1zm19.7-13.6-9.3.6v2.1h2.4c2 0 2.2.4 2.2 2.5v28q0 .9-.3 1.2-.4.6-3.5.7h-.2v1.8h12.7v-1.8h-.2c-3.4-.1-3.8-.4-3.8-2.2v-7.4c0-2.4.3-4.7.9-5.8 1-2.3 3.3-3.8 5.4-3.8 1.3 0 2.8.7 3.5 1.7q1.2 1.5 1.2 5v10.5q0 1-.3 1.3-.5.6-3.5.7h-.2v1.8h12.6v-1.8h-.2c-3.3-.1-3.7-.4-3.7-2.2v-10c0-3.6-.2-4.5-1-6.2a7 7 0 0 0-6.8-3.9c-3.3 0-5.7 1.5-8 4.8zM2283.2 1474.3l-9.3.6v2.1h2.5c1.8 0 2 .4 2 2.5v27.9q0 1-.2 1.3c-.4.5-1.3.6-3.5.7h-.3v1.8h12.9v-1.8h-.4c-3.3-.1-3.7-.4-3.7-2.2zm28 20.8c0-3.1-.5-4.7-2-6q-2.4-2-7.2-2c-5.7 0-9.8 2.7-9.8 6.4q.1 2.9 3 3 2.4-.1 2.6-2.5 0-1-.7-2.1l-.4-.7c0-1 2-2 4.4-2 1.6 0 3.4.6 4.2 1.3q1.4 1 1.3 4.3v2a43 43 0 0 0-9.3 2.2q-6.5 2.3-6.4 7.1c0 3.6 2.8 5.9 7.2 5.9q5.4-.1 8.7-4c.8 2.5 2 3.5 4.4 3.5 2.3 0 4.6-1.4 4.6-2.8q0-.7-.5-.7l-.7.2q-1 .4-1.4.4-2 .2-2-3.4zm-4.6 6.1c0 3-.2 3.7-1 5a7 7 0 0 1-5.7 3c-2.3 0-4-1.5-4-3.8q0-3.1 3.3-4.7c1.5-.7 3.5-1.2 7.4-1.8zm18.3-13.3v-10h-2q-.8 9.8-6.8 10.2v2h4v12.7c0 3.5.2 4.7.7 5.9q1.3 3.2 5.7 3.3c4.5 0 7.4-3.5 7.4-8.8v-1.1h-2.2q-.2 6.8-3.9 6.8-1.8 0-2.5-1.5-.4-1.1-.4-3.7V1490h7.3v-2.1zm33.3 12c0-7.5-4.2-12.7-10.3-12.7-6.4 0-11.2 5.5-11.2 13 0 7 4.6 11.8 11.3 11.8q7.2 0 10.2-7.2l-1.7-.9c-2 3.8-4.2 5.3-7.5 5.3a6 6 0 0 1-5.7-3.2q-1.4-2.1-1.3-6zm-16.1-2.2c0-3.5 1.6-8.5 5.8-8.5 3 0 5 2.7 5 6.7q.1 2-2 1.8zM1396.6 560.2c-6.1 0-10.9 5.5-10.9 12.5 0 6.8 4.8 12.3 10.8 12.3s10.8-5.5 10.8-12.4c0-6.8-4.8-12.4-10.7-12.4m0 2.2q5.4.1 5.5 10.2-.1 10.2-5.6 10.3-5.5-.1-5.5-10.2t5.6-10.3m22.4-1.4V558q0-3.7.6-5.1c.8-2.2 2.6-3.6 4.6-3.6q1.6 0 1.6.9l-.3.6q-.3.7-.4 1.6c0 1.5 1.2 2.7 2.7 2.7 1.7 0 2.9-1.3 2.9-3 0-3-2.5-4.8-6.6-4.8q-5.1 0-7.8 3.7c-1.5 2.1-2 4.3-2 8.3v1.6h-4.3v2.1h4.3v17.4q0 1-.3 1.3-.3.6-3.4.7h-.2v1.8h13.3v-1.8h-.9c-3.3-.1-3.8-.4-3.8-2.2v-17.2h5.5V561zM1564.2 561v-10h-2q-.7 9.8-6.8 10.2v2h4.1v12.7c0 3.5.1 4.7.6 5.9q1.3 3.1 5.7 3.2c4.5 0 7.4-3.4 7.4-8.7v-1.1h-2.2q-.1 6.8-3.8 6.8-2 0-2.5-1.5-.5-1.1-.5-3.7V563h7.3V561zm19.7-13.6-9.2.6v2.1h2.3c2 0 2.2.4 2.2 2.5v28q0 .9-.3 1.2c-.4.4-1.3.6-3.5.7h-.2v1.8h12.7v-1.8h-.2c-3.4-.1-3.8-.4-3.8-2.2V573c0-2.4.3-4.7.9-5.8 1.1-2.3 3.3-3.8 5.4-3.8 1.3 0 2.8.7 3.5 1.7q1.2 1.5 1.2 5v10.5q0 1-.3 1.3-.5.6-3.5.7h-.2v1.8h12.6v-1.8h-.2c-3.2-.1-3.7-.4-3.7-2.2v-10c0-3.6-.2-4.5-1-6.2a7 7 0 0 0-6.8-3.9q-4.6 0-7.9 4.8zm43.8 25.6c0-7.5-4.2-12.8-10.3-12.8-6.4 0-11.2 5.6-11.2 13 0 7.1 4.5 11.8 11.3 11.8q7.2 0 10.2-7l-1.8-1c-2 3.8-4.1 5.3-7.5 5.3q-3.7 0-5.7-3.3c-.9-1.5-1.3-3.2-1.2-6zm-16.2-2.1c0-3.5 1.7-8.5 5.8-8.5 3 0 5 2.6 5 6.7 0 1.4-.4 1.8-2 1.8zM1157.3 560.4h-1.8l-1.4 1.8a9 9 0 0 0-6.1-2c-4.4 0-7.3 2.9-7.3 7.3 0 4.7 3 5.9 7 6.8l2.7.6c4 1 5.3 2 5.3 4 0 2.3-2 4-5 4q-6.5-.1-8.4-7.7h-2v9.4h1.8l1.7-2q3 2.4 6.9 2.4c4.9 0 8.1-3 8.1-7.7q0-3.3-2-5c-1.3-1-2.3-1.5-5.3-2.1l-2.5-.6c-2.8-.6-2.8-.6-3.7-1a3 3 0 0 1-1.7-2.7c0-2 1.9-3.5 4.6-3.5 4.1 0 6.1 3 7.3 6.4h1.8zm11.6-11.9a3 3 0 0 0-3 3c0 1.5 1.4 2.8 3 2.8a2.9 2.9 0 1 0 0-5.8m2.3 12.5-9.4.5v2.2h2.6c1.9 0 2.1.3 2.1 2.5v14.3q0 1-.3 1.3-.3.6-3.4.7h-.4v1.8h13v-1.8h-.4c-3.3-.1-3.8-.4-3.8-2.2zm24.8 16c-1.6 3.5-3.3 5-5.9 5-4 0-6.5-3.7-6.5-9.5 0-6.1 2.5-10.1 6.2-10.1 1.5 0 2.8.7 2.8 1.5l-.3.6c-.8 1-1 1.4-1 2.3q.2 2.6 3 2.8c1.8 0 3-1.4 3-3.4 0-3.4-3.3-6-7.8-6-6.5 0-11.1 5.3-11.1 12.8 0 7.1 4.2 12 10.4 12 4.5 0 7-2 9.2-7.3zm12.2-4.7v-24.8l-9.2.6v2.1h2.3c2 0 2.2.4 2.2 2.5v28q0 .9-.3 1.2c-.4.4-1.3.6-3.5.7h-.2v1.8h12.7v-1.8h-.2c-3.3-.1-3.8-.4-3.8-2.2v-5l3-3 6 8.4q.4.6.3.9.2 1-2.2.9h-.9v1.8h13.2v-1.8c-2.8-.3-3.8-.9-5.8-3.5l-7.1-9.7 2.2-2.2c3-2.8 5-4 8.5-4.3V561h-13.2v1.8h1.5q2.4 0 2.4 1 0 .6-1.1 1.9zM1729.5 547.4l-9.3.6v2.1h2.5c1.8 0 2 .4 2 2.5v27.9q0 1-.2 1.3c-.4.4-1.3.6-3.5.7h-.3v1.8h13v-1.8h-.4c-3.4-.1-3.8-.4-3.8-2.2zm13.5 1.1a2.9 2.9 0 1 0 0 5.8 2.9 2.9 0 0 0 0-5.8m2.3 12.5-9.4.5v2.2h2.6c1.9 0 2.1.3 2.1 2.5v14.3q0 1-.3 1.3-.3.6-3.4.7h-.4v1.8h13v-1.8h-.4c-3.3-.1-3.8-.4-3.8-2.2zm28.7 12c0-7.5-4.2-12.8-10.3-12.8-6.4 0-11.2 5.6-11.2 13 0 7.1 4.5 11.8 11.3 11.8q7.2 0 10.2-7l-1.7-1c-2.1 3.8-4.2 5.3-7.5 5.3a6 6 0 0 1-5.7-3.3c-1-1.5-1.3-3.2-1.3-6zm-16.2-2.1c0-3.5 1.7-8.5 5.9-8.5 3 0 5 2.6 5 6.7q.2 2-2.1 1.8zm24.4 7.8a3.1 3.1 0 1 0 0 6.2 3.1 3.1 0 0 0 0-6.2M1642.7 1487.9v-10h-2q-.7 9.8-6.7 10.2v2h4v12.7c0 3.5.1 4.7.6 5.9q1.4 3.2 5.7 3.3c4.5 0 7.4-3.5 7.4-8.8v-1.1h-2.1q-.2 6.8-3.9 6.8-2 0-2.5-1.5-.5-1.1-.5-3.7V1490h7.4v-2.1zm22.7-.7c-6.2 0-11 5.4-11 12.4s4.9 12.4 10.9 12.4 10.8-5.5 10.8-12.5c0-6.8-4.8-12.3-10.7-12.3m0 2c3.5 0 5.4 3.8 5.4 10.3q-.1 10.2-5.5 10.3-5.5-.2-5.6-10.2 0-10.2 5.7-10.3m25-2.1c-6.2 0-11 5.4-11 12.4s4.9 12.4 10.9 12.4 10.8-5.5 10.8-12.5c0-6.8-4.8-12.3-10.7-12.3m0 2c3.4 0 5.4 3.8 5.4 10.3q-.1 10.2-5.5 10.3-5.5-.2-5.6-10.2 0-10.2 5.6-10.3M1289.1 1504.9l-5.5-13-.3-1q-.1-1.3 2.3-1.2h1v-1.8h-11.8v1.8h.5c1.7 0 2.4.5 3.4 2.7l8.2 18.4-.9 1.8c-1.8 3.8-4.1 6.4-5.7 6.4q-.8 0-.8-.5v-.4q.3-.7.3-1.3-.1-2.1-2.5-2.3-2.8.2-3 3.2c0 2.2 1.9 3.8 4.5 3.8q4 0 7-4c1.5-2 2.5-4.2 4.7-9.6l5.7-14.2c1.1-2.9 2.2-4 4.2-4h.3v-1.8h-10v1.8h.8q2.8 0 2.7 1.8a5 5 0 0 1-.5 2zm23-17.6c-6.1 0-10.9 5.4-10.9 12.4s4.8 12.4 10.8 12.4 10.8-5.5 10.8-12.5c0-6.8-4.8-12.3-10.7-12.3m0 2c3.5 0 5.5 3.8 5.5 10.3q-.1 10.2-5.6 10.3-5.5-.2-5.5-10.2 0-10.2 5.6-10.3m33 22.2 9-.3v-2.2h-1.2c-2.9 0-3.1-.3-3.1-3.6v-17.5l-9.4.5v2.2h2.5c2 0 2.2.4 2.2 2.5v6.1c0 4.4-1 9.7-6.6 9.7q-2.3 0-3.5-1.6c-.6-.9-.7-1.4-.7-4.1v-15.3l-8.8.5v2.2h2c1.8 0 2 .4 2 2.5v10.8c0 2.5.3 3.7 1 4.8q2.2 3.2 6.8 3.3c3.3 0 5.6-1.4 7.8-4.6zm14.5-25.2h1l1.6-9v-.8a2 2 0 0 0-2-2.1 2 2 0 0 0-2.2 2.1v.8zm15.5 1.6-8.8.5v2.2h2c2 0 2.2.4 2.2 2.5v14.3q0 1-.3 1.3-.5.6-3.5.7h-.2v1.8h13.3v-1.8h-.9c-3.3-.1-3.8-.4-3.8-2.2v-2.7c0-8.3 3-14.8 7-15-.7.8-1 1.3-1 2.3 0 1.6 1.2 2.7 2.8 2.7q3-.1 3-3.3-.1-3.9-4.3-4-4.8.2-7.5 6.9zm35.3 12c0-7.5-4.2-12.7-10.3-12.7-6.4 0-11.2 5.5-11.2 13 0 7 4.5 11.8 11.3 11.8q7.1 0 10.2-7.2l-1.8-.9c-2 3.8-4.1 5.3-7.5 5.3q-3.7 0-5.7-3.2-1.4-2.1-1.2-6zm-16.2-2.2c0-3.5 1.6-8.5 5.8-8.5 3 0 5 2.7 5 6.7 0 1.4-.4 1.8-2 1.8zM973.9 550.5h1c2.8 0 3.8.2 4.2.7.3.5.3.6.3 3.1v23.8c0 2.5 0 2.7-.3 3.1-.4.5-1.4.7-4.2.7h-1v2.4h16.5v-2.4h-1c-2.8 0-3.7-.1-4.1-.7-.3-.4-.3-.5-.3-3v-23.9c0-2.5 0-2.6.3-3 .4-.6 1.3-.7 4.1-.8h1v-2.3H974zm23 8.9h1l1.6-9v-.8a2 2 0 0 0-2.1-2.1 2 2 0 0 0-2.1 2.1v.8zm15.6 1.6-8.8.5v2.2h2c1.9 0 2.1.3 2.1 2.5v14.3q0 1-.2 1.3-.5.6-3.5.7h-.2v1.8h12.6v-1.8h-.2c-3.3-.1-3.7-.4-3.7-2.2V571c0-4.4 2.4-7.7 5.6-7.7q4.3 0 4.3 6v11.2q0 1-.3 1.3-.3.6-3.5.7h-.2v1.8h12.7v-1.8h-.2c-3.3-.1-3.7-.4-3.7-2.2v-8.8c0-5 2.2-8.2 5.7-8.2q4.3 0 4.3 6.6v10.6q0 1-.4 1.3-.3.6-3.5.7h-.2v1.8h12.7v-1.8h-.2c-3.3-.1-3.7-.4-3.7-2.2v-11.4c0-3-.3-4.1-1.6-5.8a7 7 0 0 0-6-2.9q-4.7 0-7.7 5a7 7 0 0 0-7-5q-4.4 0-7.2 4.6zM2532.6 3175.2l-9 .5v2.2h2.1c1.9 0 2.2.3 2.2 2.5v14.3q0 1-.3 1.3-.4.6-3.5.7h-.2v1.8h12.6v-1.8h-.2c-3.3-.1-3.7-.4-3.7-2.2v-9.3c0-4.4 2.4-7.7 5.7-7.7q4.3 0 4.3 6v11.2q0 1-.4 1.3-.4.6-3.4.7h-.2v1.8h12.6v-1.8h-.2c-3.3-.1-3.7-.4-3.7-2.2v-8.8c0-5 2.2-8.2 5.7-8.2q4.3 0 4.3 6.6v10.6q0 1-.4 1.3-.4.6-3.4.7h-.2v1.8h12.6v-1.8h-.2c-3.3-.1-3.7-.4-3.7-2.2V3183c0-3-.3-4.1-1.6-5.8a7 7 0 0 0-6-2.9q-4.7 0-7.7 5a7 7 0 0 0-7-5q-4.4 0-7.1 4.6zm57.6 12c0-7.5-4.2-12.8-10.3-12.8-6.4 0-11.2 5.6-11.2 13 0 7.1 4.5 11.8 11.3 11.8q7.2 0 10.2-7l-1.8-1c-2 3.8-4.1 5.3-7.5 5.3q-3.8 0-5.7-3.3c-.8-1.5-1.3-3.2-1.2-6zm-16.2-2.1c0-3.5 1.7-8.5 5.8-8.5 3 0 5 2.6 5 6.7 0 1.4-.4 1.8-2 1.8zm24.4 7.8a3.1 3.1 0 1 0 0 6.2 3.1 3.1 0 0 0 0-6.2M1139.4 1474.4h-2.2l-11.5 29.1c-1.3 4-2.6 5.2-5.5 5.3h-.2v2.4h13.3v-2.4h-1q-4 0-4-2.8 0-1 .4-2.1l1.7-4.4h13.2l2.7 6.7.4 1.3q-.1 1.2-3 1.3h-2.2v2.4h15.5v-2.4h-.7c-2.6 0-3-.3-4.2-3.1zm-2.5 8.2 5.6 14.2h-11.1zm29.6 5.3-8.6.5v2.2h1.8c1.9 0 2.1.4 2.1 2.5v14.3q0 1-.2 1.3c-.4.5-1.3.6-3.5.7h-.2v1.8h12.6v-1.8h-.2c-3.3-.1-3.7-.4-3.7-2.2v-7.4q0-3.8.9-5.8c1-2.3 3.3-3.8 5.4-3.8 1.3 0 2.8.7 3.5 1.8q1.1 1.4 1.1 5v10.4q0 1-.2 1.3-.5.6-3.5.7h-.2v1.8h12.6v-1.8h-.2c-3.3-.1-3.7-.4-3.7-2.2v-10c0-3.6-.2-4.5-1.1-6.2a7 7 0 0 0-6.7-3.8c-3.3 0-5.7 1.5-8 4.8zm39.6 23.6 8.7-.3v-2.2h-1c-2.7-.1-3-.4-3-3.6v-31l-9.8.5v2.1h3c1.8 0 2 .4 2 2.5v11.3a8 8 0 0 0-6.8-3.6c-5.7 0-10 5.4-10 12.6s4.2 12.2 10 12.2q4.6 0 6.9-4.4zm-6-21.7q3.4.1 5 3.8 1 2.3 1 6c0 5.8-2.3 9.5-6 9.5-3.5 0-5.6-3.2-5.6-8.8q0-4.4 1-7 1.4-3.5 4.7-3.6M1240.7 3161.6l-8.6.6v2.1h1.7c2 0 2.2.4 2.2 2.5v19.5c0 7-.3 10.7-1 12.9h2l2.4-4q3 4.1 7.5 4c6.2 0 10.8-5.3 10.8-12.5s-4.2-12.3-10.2-12.3c-3 0-5 1-6.8 4zm5.9 15.4q5.7.2 5.8 10.2c0 6.3-2 9.9-5.7 9.9-4 0-6.3-3.7-6.3-9.8q.1-10.2 6.2-10.3m36.1 10.2c0-7.5-4.2-12.8-10.3-12.8-6.4 0-11.2 5.6-11.2 13 0 7.1 4.6 11.8 11.3 11.8q7.2 0 10.2-7l-1.7-1c-2 3.8-4.2 5.3-7.5 5.3a6 6 0 0 1-5.7-3.3c-1-1.5-1.3-3.2-1.3-6zm-16.1-2.1c0-3.5 1.6-8.5 5.8-8.5 3 0 5 2.6 5 6.7q.1 2-2 1.8zM967.1 3192l-5-12.8-.1-1q-.2-1.3 2-1.2h1.3v-1.8H954v1.8h.8q2.3-.2 2.7 1.8l.4 1.3-4.4 11.7-4.9-12.6-.2-1q0-1.3 2-1.2h1v-1.8h-11v1.8h.9q1.9-.2 2.6 2.4l7.5 19.8h1.7l6-15.8 6 15.8h1.6l7-18.4c1.1-3 1.9-3.8 3.7-3.8h.4v-1.8h-9.5v1.8h.9q2.5 0 2.4 1.8 0 .8-.4 1.8zm22.8-17.6c-6.1 0-10.9 5.5-10.9 12.5 0 6.8 4.8 12.3 10.8 12.3s10.8-5.5 10.8-12.4c0-6.8-4.8-12.4-10.7-12.4m0 2.2q5.4.1 5.5 10.2-.1 10.2-5.6 10.3-5.4-.1-5.5-10.2 0-10.3 5.6-10.3m33 22.2 9.1-.3v-2.2h-1.2c-3 0-3.2-.4-3.2-3.6v-17.5l-9.4.5v2.2h2.6c1.9 0 2.1.3 2.1 2.5v6.1c0 4.4-1 9.7-6.5 9.7q-2.5 0-3.5-1.6c-.7-1-.8-1.4-.8-4.2v-15.2l-8.7.5v2.2h1.9c1.9 0 2.1.3 2.1 2.5v10.8c0 2.5.2 3.7 1 4.8q2 3.1 6.7 3.2c3.3 0 5.6-1.3 7.8-4.5zm20.2-37.2-9.3.6v2.1h2.5c1.8 0 2 .4 2 2.5v27.9q0 1-.2 1.3c-.4.4-1.3.6-3.5.7h-.3v1.8h13v-1.8h-.4c-3.4-.1-3.8-.4-3.8-2.2zm24.5 37.2 8.7-.3v-2.2h-1c-2.7-.1-3-.4-3-3.6v-31l-9.8.5v2.1h3c1.8 0 2.1.4 2.1 2.5v11.3a8 8 0 0 0-7-3.7c-5.5 0-9.8 5.5-9.8 12.7 0 7 4 12.1 9.9 12.1q4.6.1 6.9-4.3zm-6-21.8q3.4.2 5 3.8 1 2.3 1 6c0 5.9-2.3 9.6-6 9.6-3.5 0-5.6-3.3-5.6-8.8q0-4.5 1-7 1.4-3.4 4.7-3.6M801 3192.1l-5.5-12.8-.3-1q-.1-1.4 2.3-1.3h1v-1.8h-11.9v1.8h.6c1.7 0 2.3.5 3.4 2.7l8.1 18.4-.8 1.8c-1.8 3.8-4.2 6.4-5.8 6.4q-.7 0-.8-.5l.1-.4.3-1.3q-.1-2.1-2.6-2.3c-1.7 0-3 1.3-3 3.1 0 2.3 2 3.9 4.6 3.9q3.9 0 6.9-4c1.5-2 2.5-4.2 4.7-9.6l5.7-14.2c1.2-2.9 2.3-4 4.2-4h.3v-1.8h-10v1.8h.8q2.8 0 2.7 1.8a5 5 0 0 1-.5 2zm23-17.7c-6.2 0-11 5.5-11 12.5 0 6.8 4.9 12.3 10.9 12.3s10.8-5.5 10.8-12.4c0-6.8-4.8-12.4-10.7-12.4m0 2.2q5.3.1 5.4 10.2-.1 10.2-5.5 10.3-5.5-.1-5.6-10.2 0-10.3 5.7-10.3m33 22.2 9-.3v-2.2h-1.2c-2.9 0-3.1-.4-3.1-3.6v-17.5l-9.4.5v2.2h2.5c2 0 2.2.3 2.2 2.5v6.1c0 4.4-1 9.7-6.6 9.7q-2.3 0-3.5-1.6c-.6-1-.7-1.4-.7-4.2v-15.2l-8.8.5v2.2h2c1.8 0 2 .3 2 2.5v10.8c0 2.5.3 3.7 1 4.8q2.2 3.1 6.8 3.2c3.3 0 5.6-1.3 7.8-4.5zM1510.3 3161.6l-9.3.6v2.1h2.4c2 0 2.2.4 2.2 2.5v28q0 .9-.3 1.2c-.4.4-1.3.6-3.5.7h-.2v1.8h12.7v-1.8h-.2c-3.4-.1-3.8-.4-3.8-2.2v-7.4c0-2.4.3-4.7.9-5.8 1-2.3 3.3-3.8 5.4-3.8 1.3 0 2.8.7 3.5 1.7q1.2 1.5 1.2 5v10.5q0 1-.3 1.3-.5.6-3.5.7h-.2v1.8h12.6v-1.8h-.2c-3.3-.1-3.7-.4-3.7-2.2v-10c0-3.6-.2-4.5-1-6.2a7 7 0 0 0-6.8-3.9c-3.3 0-5.7 1.5-8 4.8zm43.9 25.6c0-7.5-4.2-12.8-10.3-12.8-6.4 0-11.2 5.6-11.2 13 0 7.1 4.5 11.8 11.3 11.8q7.1 0 10.2-7l-1.8-1c-2 3.8-4.1 5.3-7.5 5.3a6 6 0 0 1-5.7-3.3c-.9-1.5-1.3-3.2-1.2-6zm-16.2-2.1c0-3.5 1.6-8.5 5.8-8.5 3 0 5 2.6 5 6.7q.2 2-2 1.8zm27.8-10-8.8.6v2.2h2c2 0 2.2.3 2.2 2.5v14.3q0 1-.3 1.3-.5.6-3.5.7h-.2v1.8h13.3v-1.8h-.9c-3.3-.1-3.8-.4-3.8-2.2v-2.7c0-8.4 3-14.8 7-15-.7.8-1 1.3-1 2.3 0 1.6 1.2 2.7 2.8 2.7q3-.1 3-3.3-.1-3.9-4.3-4-4.8 0-7.5 6.9zm35.3 12c0-7.5-4.2-12.8-10.3-12.8-6.5 0-11.2 5.6-11.2 13 0 7.1 4.5 11.8 11.3 11.8q7.1 0 10.2-7l-1.8-1c-2 3.8-4.2 5.3-7.5 5.3q-3.7 0-5.7-3.3c-.9-1.5-1.3-3.2-1.2-6zm-16.2-2.1c0-3.5 1.6-8.5 5.8-8.5 3 0 5 2.6 5 6.7q.2 2-2 1.8zM527.8 560.4H526l-1.4 1.8a9 9 0 0 0-6.1-2c-4.4 0-7.3 2.9-7.3 7.3 0 4.7 3 5.9 7 6.8l2.7.6c4 1 5.3 2 5.3 4 0 2.3-2 4-5 4q-6.5-.1-8.4-7.7h-2v9.4h1.8l1.7-2q3 2.4 6.9 2.4c4.9 0 8.1-3 8.1-7.7q0-3.3-2-5c-1.3-1-2.3-1.5-5.3-2.1l-2.5-.6c-2.8-.6-2.8-.6-3.7-1a3 3 0 0 1-1.7-2.7c0-2 1.9-3.5 4.6-3.5 4.1 0 6.1 3 7.3 6.4h1.8zm26.9 12.6c0-7.5-4.2-12.8-10.3-12.8-6.4 0-11.2 5.6-11.2 13 0 7.1 4.5 11.8 11.3 11.8q7.1 0 10.2-7l-1.8-1c-2 3.8-4.1 5.3-7.5 5.3q-3.7 0-5.7-3.3c-.9-1.5-1.3-3.2-1.2-6zm-16.2-2.1c0-3.5 1.6-8.5 5.8-8.5 3 0 5 2.6 5 6.7 0 1.4-.4 1.8-2 1.8zm26.9-23.5-9.3.6v2.1h2.5c1.8 0 2 .4 2 2.5v27.9q0 1-.2 1.3c-.4.4-1.3.6-3.5.7h-.3v1.8h13v-1.8h-.4c-3.3-.1-3.8-.4-3.8-2.2zm19 30.8-5.7-13.2-.3-1q-.1-1.4 2.7-1.2h.7V561H570v1.8h.4c2 0 2.6.5 3.3 2.1l8.6 20.1h1.8l7-17.5c1.5-3.4 2.7-4.6 4.7-4.7h.2V561h-10v1.8h.7q2.7 0 2.7 1.7 0 1-.4 2.1zm34.1-5.2c0-7.5-4.2-12.8-10.3-12.8-6.4 0-11.2 5.6-11.2 13 0 7.1 4.6 11.8 11.3 11.8q7.2 0 10.2-7l-1.7-1c-2 3.8-4.2 5.3-7.5 5.3q-3.8 0-5.7-3.3c-1-1.5-1.3-3.2-1.3-6zm-16.1-2.1c0-3.5 1.6-8.5 5.8-8.5 3 0 5 2.6 5 6.7q.1 2-2 1.8zm37.2-10.5h-1.8l-1.4 1.8a9 9 0 0 0-6.1-2c-4.4 0-7.3 2.9-7.3 7.3 0 4.7 3 5.9 7 6.8l2.6.6c4 1 5.4 2 5.4 4 0 2.3-2 4-5 4q-6.5-.1-8.4-7.7h-2v9.4h1.8l1.7-2q3 2.4 6.9 2.4c4.9 0 8.1-3 8.1-7.7q0-3.3-2-5c-1.3-1-2.3-1.5-5.3-2.1l-2.5-.6c-2.8-.6-2.8-.6-3.7-1a3 3 0 0 1-1.7-2.7c0-2 1.9-3.5 4.6-3.5 4.1 0 6.1 3 7.3 6.4h1.8zM2430.4 2335.3l-9 .5v2.1h2.1c2 .1 2.2.4 2.2 2.5v14.3q0 1-.3 1.4-.4.6-3.5.7h-.2v1.8h12.6v-1.8h-.2c-3.3-.2-3.7-.4-3.7-2.2v-9.3c0-4.5 2.4-7.7 5.7-7.7q4.3 0 4.3 6v11.2q0 .9-.4 1.3-.3.6-3.4.7h-.2v1.8h12.6v-1.8h-.2c-3.3-.2-3.7-.4-3.7-2.2v-8.8c0-5 2.2-8.2 5.7-8.2q4.3 0 4.3 6.6v10.6q0 .9-.4 1.3-.4.6-3.4.7h-.2v1.8h12.6v-1.8h-.2c-3.3-.2-3.7-.4-3.7-2.2v-11.4c0-3.1-.3-4.1-1.6-5.8a7 7 0 0 0-6-2.9q-4.7 0-7.7 5a7 7 0 0 0-7-5q-4.4-.1-7.1 4.6zm57.6 12c0-7.5-4.2-12.8-10.3-12.8-6.4 0-11.2 5.6-11.2 13 0 7.1 4.6 11.8 11.3 11.8q7.2 0 10.2-7.1l-1.7-1c-2 3.9-4.2 5.4-7.5 5.4q-3.8 0-5.7-3.3c-1-1.5-1.3-3.2-1.3-6zm-16.1-2.2c0-3.5 1.6-8.5 5.8-8.5 3 0 5 2.7 5 6.8q.1 1.8-2 1.7zM2136.4 2321.7l-9.2.6v2h2.4c1.8.1 2.1.4 2.1 2.6v27.8q0 1-.3 1.4-.4.6-3.5.7h-.3v1.8h13v-1.8h-.4c-3.3-.2-3.8-.4-3.8-2.2zm18.1 12.9c-6.1 0-10.9 5.4-10.9 12.4s4.8 12.4 10.8 12.4 10.8-5.5 10.8-12.4c0-6.8-4.8-12.4-10.7-12.4m0 2.1q5.4.2 5.5 10.3-.1 10.1-5.6 10.2t-5.5-10.2q0-10.2 5.6-10.3m26 15.9-5.6-13.2-.3-1.1q-.2-1.2 2.7-1.1h.7v-1.8h-11.8v1.8h.4c2 0 2.6.5 3.3 2.1l8.6 20.1h1.8l7-17.6c1.5-3.3 2.7-4.5 4.7-4.6h.2v-1.8h-10v1.8h.7q2.7 0 2.7 1.7 0 1-.4 2zm34.1-5.2c0-7.5-4.2-12.8-10.3-12.8-6.4 0-11.2 5.6-11.2 13 0 7.1 4.6 11.8 11.3 11.8q7.2 0 10.2-7.1l-1.7-1c-2 3.9-4.2 5.4-7.5 5.4q-3.8 0-5.7-3.3c-1-1.5-1.3-3.2-1.3-6zm-16.1-2.2c0-3.5 1.6-8.5 5.8-8.5 3 0 5 2.7 5 6.8q.1 1.8-2 1.7zm36.8 13.8 8.8-.3v-2.2h-1c-2.8-.2-3-.5-3-3.7v-31l-9.8.6v2h2.9c1.9.1 2.1.4 2.1 2.6v11.3a8 8 0 0 0-6.9-3.7c-5.6 0-9.9 5.4-9.9 12.6s4.2 12.2 10 12.2q4.6 0 6.8-4.4zm-5.9-21.7q3.3.2 5 3.8.9 2.3.9 6c0 5.8-2.3 9.6-5.9 9.6s-5.6-3.3-5.6-8.8q0-4.5.9-7c.8-2.2 2.7-3.6 4.7-3.6M1948.2 2352.2l-5.5-12.8-.3-1q-.1-1.4 2.3-1.3h1v-1.8h-11.9v1.8h.6c1.7 0 2.3.5 3.4 2.7l8.1 18.4-.8 1.8c-1.8 3.8-4.2 6.4-5.8 6.4q-.7 0-.8-.5l.1-.5q.3-.6.3-1.3c0-1.2-1-2.2-2.6-2.2s-3 1.3-3 3.1c0 2.3 2 3.8 4.6 3.8q3.9.1 6.9-4c1.5-2 2.5-4.1 4.7-9.6l5.7-14.1c1.2-2.9 2.3-4 4.2-4h.3v-1.8h-10v1.8h.8q2.8 0 2.7 1.8a5 5 0 0 1-.5 2zm23-17.7c-6.2 0-11 5.4-11 12.4s4.9 12.4 10.9 12.4 10.8-5.5 10.8-12.4c0-6.8-4.8-12.4-10.7-12.4m0 2.1q5.3.2 5.4 10.3-.1 10.1-5.5 10.2t-5.6-10.2q0-10.2 5.7-10.3m33 22.3 9-.3v-2.2h-1.2c-3-.1-3.2-.4-3.2-3.7v-17.4l-9.3.5v2.1h2.5c1.9.1 2.1.4 2.1 2.5v6.2c0 4.3-1 9.7-6.5 9.7q-2.4 0-3.5-1.6c-.6-1-.8-1.4-.8-4.2v-15.2l-8.7.5v2.1h1.9c1.9.1 2.1.4 2.1 2.5v10.8c0 2.6.2 3.8 1 4.9q2.2 3.1 6.7 3.2 4.8.1 7.8-4.6zM1806 2324.8h1c2.8 0 3.8.2 4.2.7.3.4.3.6.3 3.1v23.8c0 2.5 0 2.7-.3 3.1-.4.5-1.4.7-4.2.7h-1v2.4h16.6v-2.4h-1c-2.8 0-3.8-.1-4.2-.7-.3-.4-.3-.6-.3-3.1v-23.8c0-2.5 0-2.7.3-3.1.4-.5 1.3-.7 4.2-.7h1v-2.4H1806zm28.5 10.4v-2.8q0-3.7.5-5.2c.8-2.1 2.6-3.5 4.6-3.5q1.6 0 1.7.9l-.3.6q-.5.7-.5 1.6c0 1.5 1.2 2.6 2.8 2.6q2.7-.2 2.8-3c0-2.9-2.5-4.7-6.6-4.7q-5.1 0-7.7 3.7c-1.5 2.1-2 4.2-2 8.3v1.6h-4.4v2h4.4v17.4c0 .8-.1 1-.3 1.4q-.3.6-3.5.7h-.2v1.8h13.4v-1.8h-1c-3.2-.2-3.7-.4-3.7-2.2v-17.2h5.5v-2.2zM1217.9 2335.3l-9 .5v2.1h2.1c2 .1 2.2.4 2.2 2.5v14.3q0 1-.3 1.4c-.4.4-1.3.6-3.5.7h-.2v1.8h12.6v-1.8h-.2c-3.3-.2-3.7-.4-3.7-2.2v-9.3c0-4.5 2.4-7.7 5.7-7.7q4.2 0 4.3 6v11.2q0 .9-.4 1.3-.3.6-3.4.7h-.2v1.8h12.6v-1.8h-.2c-3.3-.2-3.7-.4-3.7-2.2v-8.8c0-5 2.2-8.2 5.7-8.2q4.3 0 4.3 6.6v10.6q0 .9-.4 1.3-.3.6-3.4.7h-.2v1.8h12.6v-1.8h-.2c-3.3-.2-3.7-.4-3.7-2.2v-11.4c0-3.1-.3-4.1-1.6-5.8a7 7 0 0 0-6-2.9q-4.7 0-7.7 5a7 7 0 0 0-7-5q-4.4-.1-7.1 4.6zm57.6 12c0-7.5-4.2-12.8-10.3-12.8-6.4 0-11.2 5.6-11.2 13 0 7.1 4.6 11.8 11.3 11.8q7.2 0 10.2-7.1l-1.7-1c-2 3.9-4.2 5.4-7.5 5.4q-3.8 0-5.7-3.3c-1-1.5-1.3-3.2-1.3-6zm-16.1-2.2c0-3.5 1.6-8.5 5.8-8.5 3 0 5 2.7 5 6.8q.1 1.8-2 1.7zm24.3 7.9a3.1 3.1 0 1 0 3.1 3.1c0-1.7-1.4-3.1-3.1-3.1M1061.6 2335.3v-10h-2q-.7 9.7-6.8 10.1v2h4.1v12.7c0 3.5 0 4.8.6 6q1.3 3.1 5.7 3.2c4.5 0 7.4-3.4 7.4-8.7v-1.2h-2.1q-.3 6.8-4 6.8-1.8-.1-2.4-1.4-.6-1.1-.5-3.7v-13.7h7.4v-2.2zm22.6-.7c-6.1 0-10.9 5.4-10.9 12.4s4.8 12.4 10.8 12.4 10.8-5.5 10.8-12.4c0-6.8-4.8-12.4-10.7-12.4m0 2.1q5.4.2 5.5 10.3-.1 10.1-5.6 10.2t-5.5-10.2q0-10.2 5.6-10.3M929.8 2351.2c-1.6 3.6-3.3 5-6 5-4 0-6.4-3.6-6.4-9.4 0-6.2 2.4-10.2 6.1-10.2 1.5 0 2.8.8 2.8 1.5q0 .2-.3.7c-.8.9-1 1.4-1 2.3 0 1.6 1.3 2.8 3 2.8 1.8 0 3-1.5 3-3.5 0-3.3-3.3-5.9-7.7-5.9-6.5 0-11.2 5.3-11.2 12.8 0 7 4.3 12 10.5 12 4.4 0 7-2 9.1-7.4zm12.8-16-8.8.6v2.1h2c1.9.1 2.2.4 2.2 2.5v14.3q0 1-.3 1.4-.5.6-3.5.7h-.2v1.8h13.3v-1.8h-.9c-3.4-.2-3.8-.4-3.8-2.2v-2.7c0-8.4 3-14.8 7-15q-1 1-1 2.2c0 1.7 1.2 2.8 2.8 2.8q3-.2 3-3.3-.1-4-4.3-4.1-4.8.1-7.5 7zm28.2 16.9-5.5-12.8-.3-1q-.1-1.4 2.3-1.3h1v-1.8h-11.8v1.8h.5c1.8 0 2.4.5 3.4 2.7l8.2 18.4-.8 1.8c-1.9 3.8-4.2 6.4-5.8 6.4q-.8 0-.8-.5l.1-.5.2-1.3c0-1.2-1-2.2-2.5-2.2-1.7 0-3 1.3-3 3.1 0 2.3 1.9 3.8 4.5 3.8q4 .1 7-4c1.5-2 2.5-4.1 4.7-9.6l5.7-14.1c1.1-2.9 2.2-4 4.2-4h.3v-1.8h-10v1.8h.8q2.8 0 2.7 1.8a5 5 0 0 1-.5 2zM759.9 2358.6h16.8a21 21 0 0 0 10.5-2.2c5-2.9 7.8-8.6 7.8-16.1q-.1-10.7-7-15.3a22 22 0 0 0-12.2-2.6h-16v2.4h1c2.8 0 3.8.2 4.2.7.3.4.3.6.3 3.1v23.8c0 2.5 0 2.7-.3 3.1-.4.5-1.4.6-4.2.7h-1zm14-2.4c-2.6 0-3-.3-3-2.7v-25.9c0-2.5.4-2.8 3-2.8h2.5c8.6 0 12.1 4.6 12.1 15.7s-3.2 15.7-11.3 15.7zm36.3-21.7c-6.1 0-10.9 5.4-10.9 12.4s4.8 12.4 10.8 12.4 10.8-5.5 10.8-12.4c0-6.8-4.8-12.4-10.7-12.4m0 2.1q5.4.2 5.5 10.3-.1 10.1-5.6 10.2t-5.5-10.2q0-10.2 5.6-10.3m22.4-1.3-8.7.5v2.1h1.9c1.9.1 2.1.4 2.1 2.5v14.3q0 1-.3 1.4-.3.6-3.4.7h-.3v1.8h12.7v-1.8h-.2c-3.3-.2-3.8-.4-3.8-2.2v-7.4c0-2.4.3-4.7 1-5.8 1-2.3 3.2-3.8 5.3-3.8 1.4 0 2.9.7 3.6 1.7q1.1 1.4 1.1 5v10.4q0 1-.3 1.4-.5.6-3.5.7h-.2v1.8h12.7v-1.8h-.2c-3.3-.2-3.8-.4-3.8-2.2v-10c0-3.7-.1-4.5-1-6.2a7 7 0 0 0-6.8-3.9q-4.7 0-7.9 4.8zm25.1-1.7h1.1l1.6-9v-.7a2 2 0 0 0-2.2-2.2 2 2 0 0 0-2.1 2.2v.8zm15.3 1.6v-10h-2q-.7 9.7-6.8 10.1v2h4.1v12.7c0 3.5.1 4.8.6 6q1.3 3.1 5.7 3.2c4.5 0 7.4-3.4 7.4-8.7v-1.2h-2.1q-.3 6.8-4 6.8-1.7-.1-2.4-1.4-.5-1.1-.5-3.7v-13.7h7.4v-2.2zM827.3 568.2c0-3.2-.5-4.8-2-6q-2.4-2-7.3-2c-5.6 0-9.7 2.7-9.7 6.3q.2 3 3 3 2.4-.1 2.6-2.5 0-1-.7-2-.5-.5-.4-.7c0-1 2-2 4.4-2 1.6 0 3.3.6 4.1 1.3q1.4 1 1.4 4.3v2c-5.2.8-6.9 1.2-9.4 2.2q-6.4 2.4-6.3 7c0 3.7 2.8 6 7.2 6q5.4-.1 8.7-4 1 3.6 4.4 3.5c2.2 0 4.6-1.4 4.6-2.9q0-.5-.5-.6l-.7.2q-1 .4-1.4.4-2.1.1-2-3.5zm-4.6 6c0 3-.2 3.8-1 5a7 7 0 0 1-5.7 3.2c-2.3 0-4-1.7-4-4q0-3 3.3-4.6c1.5-.7 3.5-1.2 7.4-1.8zm19.8-13.3-8.6.5v2.2h1.8c1.9 0 2.1.3 2.1 2.5v14.3q0 1-.3 1.3-.3.6-3.4.7h-.2v1.8h12.6v-1.8h-.2c-3.3-.1-3.8-.4-3.8-2.2V573c0-2.4.4-4.7 1-5.8 1-2.3 3.3-3.8 5.4-3.8 1.3 0 2.8.7 3.6 1.7q1 1.5 1 5v10.5q0 1-.2 1.3-.5.6-3.5.7h-.3v1.8h12.7v-1.8h-.2c-3.3-.1-3.7-.4-3.7-2.2v-10c0-3.6-.2-4.5-1-6.2a7 7 0 0 0-6.8-3.9q-4.7 0-8 4.8zm39.6 23.6 8.7-.3V582h-1c-2.8-.1-3-.4-3-3.6v-31l-9.8.5v2.1h3c1.8 0 2.1.4 2.1 2.5V564a8 8 0 0 0-7-3.7c-5.6 0-9.8 5.5-9.8 12.7 0 7 4 12.1 9.9 12.1q4.6.1 6.9-4.3zm-6-21.8q3.4.2 5 3.8 1 2.3 1 6c0 5.9-2.3 9.6-6 9.6-3.5 0-5.6-3.3-5.6-8.8q0-4.5 1-7 1.4-3.5 4.7-3.6" class="Lyrics"/><path fill="none" stroke="#000" stroke-linejoin="bevel" stroke-width="2.5" d="M2219.9 3197.2h51.6M499.1 572.9h9.9M1436 583h53.5M1791.2 583h1045.5M523 1510h69.4M1707 1510h168.9M1607.2 3197.2h405.6M2250.2 2357.3h34.7M2494.3 2357.3h212.2M2364.9 1510h71.7" class="LyricsLineSegment"/><path d="M1212.8 423.4a5 5 0 0 0 5 5 5 5 0 0 0 5-5 5 5 0 0 0-5-5 5 5 0 0 0-5 5M1888.3 1359.4a5 5 0 0 0 5 5 5 5 0 0 0 5-5 5 5 0 0 0-5-5 5 5 0 0 0-5 5M604.8 423.4a5 5 0 0 0 5 5 5 5 0 0 0 5-5 5 5 0 0 0-5-5 5 5 0 0 0-5 5M1764 423.4a5 5 0 0 0 4.9 5 5 5 0 0 0 5-5 5 5 0 0 0-5-5 5 5 0 0 0-5 5M1271 2239.4a5 5 0 0 0 5 5 5 5 0 0 0 5-5 5 5 0 0 0-5-5 5 5 0 0 0-5 5M2449 1689.6a5 5 0 0 0 5 5 5 5 0 0 0 4.9-5 5 5 0 0 0-5-5 5 5 0 0 0-5 5M2733.3 861.3a5 5 0 0 0 5 5 5 5 0 0 0 5-5 5 5 0 0 0-5-5 5 5 0 0 0-5 5M2449 1640a5 5 0 0 0 5 5 5 5 0 0 0 4.9-5 5 5 0 0 0-5-5 5 5 0 0 0-5 5M2449 1739.2a5 5 0 0 0 5 5 5 5 0 0 0 4.9-5 5 5 0 0 0-5-5 5 5 0 0 0-5 5M604.8 3354.7a5 5 0 0 0 5 5 5 5 0 0 0 5-5 5 5 0 0 0-5-5 5 5 0 0 0-5 5M604.8 3305.1a5 5 0 0 0 5 5 5 5 0 0 0 5-5 5 5 0 0 0-5-5 5 5 0 0 0-5 5M1574.2 861.3a5 5 0 0 0 5 5 5 5 0 0 0 5-5 5 5 0 0 0-5-5 5 5 0 0 0-5 5M1888.3 1689.6a5 5 0 0 0 5 5 5 5 0 0 0 5-5 5 5 0 0 0-5-5 5 5 0 0 0-5 5M604.8 1714.4a5 5 0 0 0 5 5 5 5 0 0 0 5-5 5 5 0 0 0-5-5 5 5 0 0 0-5 5M604.8 2477.6a5 5 0 0 0 5 5 5 5 0 0 0 5-5 5 5 0 0 0-5-5 5 5 0 0 0-5 5M604.8 2527.2a5 5 0 0 0 5 5 5 5 0 0 0 5-5 5 5 0 0 0-5-5 5 5 0 0 0-5 5M1775 3305.1a5 5 0 0 0 5 5 5 5 0 0 0 4.9-5 5 5 0 0 0-5-5 5 5 0 0 0-5 5M1775 3354.7a5 5 0 0 0 5 5 5 5 0 0 0 4.9-5 5 5 0 0 0-5-5 5 5 0 0 0-5 5M1728.1 2552a5 5 0 0 0 5 5 5 5 0 0 0 5-5 5 5 0 0 0-5-5 5 5 0 0 0-5 5M1728.1 2502.4a5 5 0 0 0 5 5 5 5 0 0 0 5-5 5 5 0 0 0-5-5 5 5 0 0 0-5 5M1728.1 2477.6a5 5 0 0 0 5 5 5 5 0 0 0 5-5 5 5 0 0 0-5-5 5 5 0 0 0-5 5M1888.3 1739.2a5 5 0 0 0 5 5 5 5 0 0 0 5-5 5 5 0 0 0-5-5 5 5 0 0 0-5 5M604.8 1640a5 5 0 0 0 5 5 5 5 0 0 0 5-5 5 5 0 0 0-5-5 5 5 0 0 0-5 5M604.8 1664.8a5 5 0 0 0 5 5 5 5 0 0 0 5-5 5 5 0 0 0-5-5 5 5 0 0 0-5 5M1888.3 1640a5 5 0 0 0 5 5 5 5 0 0 0 5-5 5 5 0 0 0-5-5 5 5 0 0 0-5 5M1574.2 1090.7a5 5 0 0 0 5 5 5 5 0 0 0 5-5 5 5 0 0 0-5-5 5 5 0 0 0-5 5M604.8 3586.2a5 5 0 0 0 5 5 5 5 0 0 0 5-5 5 5 0 0 0-5-5 5 5 0 0 0-5 5M1574.2 1041.1a5 5 0 0 0 5 5 5 5 0 0 0 5-5 5 5 0 0 0-5-5 5 5 0 0 0-5 5M1574.2 991.5a5 5 0 0 0 5 5 5 5 0 0 0 5-5 5 5 0 0 0-5-5 5 5 0 0 0-5 5M2733.3 991.5a5 5 0 0 0 5 5 5 5 0 0 0 5-5 5 5 0 0 0-5-5 5 5 0 0 0-5 5M604.8 2758.7a5 5 0 0 0 5 5 5 5 0 0 0 5-5 5 5 0 0 0-5-5 5 5 0 0 0-5 5M1888.3 1970.7a5 5 0 0 0 5 5 5 5 0 0 0 5-5 5 5 0 0 0-5-5 5 5 0 0 0-5 5M1775 3586.2a5 5 0 0 0 5 5 5 5 0 0 0 4.9-5 5 5 0 0 0-5-5 5 5 0 0 0-5 5M604.8 1945.9a5 5 0 0 0 5 5 5 5 0 0 0 5-5 5 5 0 0 0-5-5 5 5 0 0 0-5 5M1728.1 2783.5a5 5 0 0 0 5 5 5 5 0 0 0 5-5 5 5 0 0 0-5-5 5 5 0 0 0-5 5M2733.3 1090.7a5 5 0 0 0 5 5 5 5 0 0 0 5-5 5 5 0 0 0-5-5 5 5 0 0 0-5 5M2733.3 1041.1a5 5 0 0 0 5 5 5 5 0 0 0 5-5 5 5 0 0 0-5-5 5 5 0 0 0-5 5" class="NoteDot"/><path d="M2836.7 231.4c4.7-1.3 8.9-3.3 8.9-9s-5.2-9.7-13-9.7q-6 0-9.6 3c-1.8 1.6-3 4-3 6 0 2.9 2.2 5 5 5s4.5-1.7 4.5-4.3q.1-2-2.2-4.1l-.4-.7c0-1 2.1-2 4.2-2q5.4.2 5.5 6.7c0 4.8-1.5 7.7-4.3 7.7q-.6 0-1.8-.2l-2.2-.4q-2 0-2 1.9.1 1.9 2 2l1.6-.1 2-.2q5 0 5 7.8 0 8.5-6.3 8.7c-2.3 0-4.7-1.2-4.7-2.3q0-.5.5-1c1.6-1.5 2-2.2 2-3.8 0-2.6-2-4.6-4.7-4.6-3 0-5 2.1-5 5.2 0 5.6 5.4 9.4 13.3 9.4 7.3 0 14.5-3 14.5-11.4 0-3.5-1.5-6.5-4-8-1.6-.9-2.9-1.3-5.8-1.6" class="Page"/><path d="M338.7 3420.9a51 51 0 0 0 19-39.8c0-27.9-14-56-14-73.4A68 68 0 0 1 357 3271v-.6q.1-.6-.4-1-.7-.2-1.4.6c-.4.4-19.8 16.8-19.8 42 0 26.8 12.6 45.8 12.6 81 0 6.7-3.3 17.4-12.3 27q-.4.2-.3.9-.3.4.3.9c9 9.4 12.3 20.1 12.3 26.9 0 35.2-12.6 54.1-12.6 81a61 61 0 0 0 19.8 42q.6 1 1.4.6t.4-1v-.6c-.8-.6-13.3-18-13.3-36.7 0-17.4 14-45.6 14-73.4 0-22.3-12.6-34-19-39.7M338.7 2593.3a51 51 0 0 0 19-39.7c0-27.9-14-56-14-73.4a68 68 0 0 1 13.3-36.7v-.7q.1-.5-.4-.9-.7-.2-1.4.6c-.4.3-19.8 16.8-19.8 42 0 26.8 12.6 45.8 12.6 81 0 6.7-3.3 17.4-12.3 27q-.4.2-.3.8-.3.5.3 1c9 9.4 12.3 20.1 12.3 26.8 0 35.2-12.6 54.2-12.6 81.1a61 61 0 0 0 19.8 42q.6.8 1.4.5t.4-.9v-.6c-.8-.6-13.3-18-13.3-36.7 0-17.4 14-45.6 14-73.4 0-22.3-12.6-34-19-39.8M338.7 876.8c6.4-6.7 19-20.5 19-46 0-32.1-14-64.6-14-84.7a86 86 0 0 1 13.3-42.5v-.7q.1-.6-.4-1-.7-.1-1.4.6c-.4.4-19.8 19.5-19.8 48.5 0 31 12.6 53 12.6 93.6 0 7.8-3.3 20.2-12.3 31.2-.3 0-.3.6-.3 1q-.3.5.3 1A52 52 0 0 1 348 909c0 40.7-12.6 62.6-12.6 93.7a74 74 0 0 0 19.8 48.4q.6 1.1 1.4.7t.4-1v-.7a86 86 0 0 1-13.3-42.4c0-20.2 14-52.7 14-84.8a62 62 0 0 0-19-46M338.7 1755.7a51 51 0 0 0 19-39.7c0-27.9-14-56-14-73.4a68 68 0 0 1 13.3-36.7v-.7q.1-.4-.4-.9-.7-.1-1.4.6c-.4.3-19.8 16.8-19.8 42 0 26.8 12.6 45.8 12.6 81 0 6.7-3.3 17.4-12.3 27q-.4.2-.3.8-.3.5.3 1c9 9.4 12.3 20.1 12.3 26.8 0 35.2-12.6 54.2-12.6 81.1a61 61 0 0 0 19.8 42q.6.9 1.4.5t.4-.9v-.6c-.8-.6-13.3-18-13.3-36.7 0-17.4 14-45.6 14-73.4 0-22.3-12.6-34-19-39.8" class="Bracket"/></svg>