<svg xmlns="http://www.w3.org/2000/svg" width="816" height="1056" baseProfile="full" viewBox="0 0 3060 3960"><title>general_29054120_690a831e247a0 (9)</title><desc>Generated by MuseScore Studio 4.6.3</desc><path fill="#fff" fill-rule="evenodd" d="M0 0h3060v3960H0z"/><path fill="none" stroke="#000" stroke-linejoin="bevel" stroke-width="2.7" d="M366.4 386.2h2481M366.4 411h2481M366.4 435.8h2481M366.4 460.6h2481M366.4 485.4h2481M366.4 764.1h2481M366.4 788.9h2481M366.4 813.7h2481M366.4 838.5h2481M366.4 863.3h2481M366.4 1024.5h2481M366.4 1049.3h2481M366.4 1074.1h2481M366.4 1098.9h2481M366.4 1123.7h2481" class="StaffLines"/><path d="M371.8 323.2c.6-3.5 1.4-5.7 3-8.4q2.8-4.8 6.3-4.8 2 0 2 1.3 0 .3-.3 1-.6.8-.6 1.7.1 2 2.4 2.2 2.6-.2 2.7-3c0-2.8-2.5-4.8-6.1-4.8-9 0-14.3 11.7-14.3 19.4 0 5.8 2.9 9.4 7.8 9.4 6 0 10.4-5 10.4-10.8 0-4.1-2.7-7-6.7-7q-4.2 0-6.6 3.8m5.3-1.4q3.8 0 3.8 4.8c0 5-2.7 9-6.2 9-2.6 0-4.1-2-4.1-5.1 0-5 2.8-8.7 6.5-8.7m31-13.5H406l-18.6 19.3v1.6h11.2l-.6 2.5c-.8 3-.8 3-4.3 3h-.7l-.2 1.9h12.4l.2-1.9h-.7c-2.7 0-3.2-.2-3.2-1q-.1-.4.4-2l.7-2.5h4.5l.6-2.1h-4.6zm-8.9 18.8h-9l12.4-12.7z" class="MeasureNumber"/><path d="m288.3 445.5-9.2-23.2q-.4-1-.4-1.5-.1-1.4 3.1-1.3h2v-2.3h-15.6v2.3h1c2.3.1 3 .6 3.9 2.8l12.6 31.7h2l11.5-29.6c1.5-3.9 2.6-4.8 5.4-4.9h.5v-2.3h-13.5v2.3h1q3.9.1 4 2.6 0 1.2-.6 2.8zm18.4 2.3a3.1 3.1 0 1 0 0 6.3 3.1 3.1 0 0 0 0-6.3M224 945.4h5.6c4.5 0 7-.4 9-1.3 3.5-1.7 5.5-5 5.5-8.9 0-8-7-9.9-13.6-9.9H213v2.4h.9c2.9 0 3.8.2 4.2.7.3.4.3.5.3 3v23.9c0 2.5 0 2.6-.3 3.1-.4.5-1.3.7-4.2.7h-.9v2.3h16.8v-2.3h-1.3c-2.9 0-3.8-.2-4.2-.7-.3-.5-.3-.6-.3-3.1zm0-2.4v-12.8c0-2.3.3-2.5 3-2.5h3.3q7.6-.1 7.6 7.7T230 943zm30.8-4.9-8.6.6v2.1h1.8c1.9.1 2.1.4 2.1 2.5v14.3q0 1-.3 1.3-.4.7-3.4.7h-.2v1.8h12.6v-1.8h-.2c-3.3 0-3.8-.3-3.8-2.1V950q0-4 1-5.9c1-2.2 3.2-3.8 5.4-3.8 1.3 0 2.8.7 3.5 1.8q1.1 1.5 1.1 5v10.4q0 1-.3 1.3-.3.7-3.5.7h-.2v1.8h12.7v-1.8h-.2c-3.3 0-3.8-.3-3.8-2.1v-10c0-3.7-.1-4.6-1-6.3a7 7 0 0 0-6.8-3.8q-4.7 0-7.9 4.8zm33.2-.8c-6.2 0-11 5.4-11 12.4s4.9 12.4 10.9 12.4 10.8-5.5 10.8-12.4-4.8-12.4-10.7-12.4m0 2.1c3.5 0 5.4 3.7 5.4 10.3q-.1 10-5.5 10.2-5.5-.1-5.6-10.2t5.7-10.3m18.5 16.4a3.1 3.1 0 1 0 0 6.3 3.1 3.1 0 0 0 0-6.3" class="InstrumentName"/><path fill="none" stroke="#000" stroke-linejoin="bevel" stroke-width="4.5" d="M368.7 384.8v379.3M1788.2 384.8v102M2845.2 384.8v102M368.7 762.8v261.7M1788.2 762.8v261.7M2845.2 762.8v261.7M1788.2 1023.2v101.9M368.7 1023.2v101.9M2845.2 1023.2v101.9" class="BarLine"/><path fill-rule="evenodd" stroke="#000" stroke-linecap="round" stroke-linejoin="round" stroke-width="1.2" d="M741.9 393.2c169.5-96.7 959.2-101.4 1123.5-12.7-164.5-80.7-954.1-76-1123.5 12.7" class="SlurSegment"/><path fill-rule="evenodd" stroke="#000" stroke-linecap="round" stroke-linejoin="round" stroke-width="1.2" d="M523 466.3c10 12 40 12 50 0-10 18-40 18-50 0M746.3 417.7c69.7-35 278.8-35 348.4 0-69.7-27.1-278.7-27.1-348.4 0M1638 478.8c44.8 24.6 179.2 24.6 224 0-44.8 32.5-179.2 32.5-224 0" class="TieSegment"/><path d="M1379.1 860.6v-16.3l11.5-3.3v16.4zm13.7-27.8-.8-.3h-.4l-12.5 3.6v-17.4h-2.7v49.1q0 1.2 1.3 1.3h.4l12.5-3.5V883h2.7v-49.1q0-.8-.5-1.1M1819.6 896.6c0 7.8-4 12-9.8 16.5l.3-19.3c.2-.9 1.7-3.8 5.6-3.8 3.6 0 4 3.4 4 5.5zm-1.3-11.3c-5 0-7.8 3-8.3 3.6l.4-31.8q-.1-1.3-1.4-1.4h-1.2q-1.3.1-1.4 1.4l.5 59.6q.1 1.3 1.4 1.4l.8-.2c8.5-4.3 17.5-12.4 17.5-22.6 0-5.2-2.4-10-8.3-10M1836 859.4c0 7.8-4 12-9.8 16.5l.3-19.3c.2-.9 1.7-3.8 5.7-3.8 3.5 0 3.8 3.4 3.8 5.5zm-1.2-11.3c-5 0-7.8 3-8.3 3.6l.4-31.8q-.1-1.3-1.4-1.4h-1.2q-1.3.1-1.4 1.4l.5 59.6q.1 1.3 1.4 1.4l.8-.2c8.5-4.3 17.5-12.4 17.5-22.6 0-5.2-2.4-10-8.3-10M1827.2 1144.6c0 7.8-4 12-9.8 16.5l.3-19.3c.2-.9 1.7-3.8 5.6-3.8 3.6 0 3.9 3.4 3.9 5.5zm-1.2-11.3c-5 0-7.8 3-8.3 3.6l.4-31.8q-.1-1.3-1.4-1.4h-1.2q-1.3.1-1.4 1.4l.5 59.6q.1 1.3 1.4 1.4l.8-.2c8.5-4.3 17.4-12.4 17.4-22.6 0-5.2-2.3-10-8.2-10" class="Accidental"/><path fill="none" stroke="#000" stroke-linejoin="bevel" stroke-width="4" d="M1841.1 912.9h48.6M1841.1 888.1h48.6M822.6 888.1h48.6M2089.5 888.1h48.6M2089.5 912.9h48.6M2337.9 888.1h48.6M552 888.1h48.6M2337.9 912.9h48.6M1838.7 1148.5h53.4" class="LedgerLine"/><path fill="none" stroke="#000" stroke-linejoin="bevel" stroke-width="2.5" d="M1880.3 456.6v-82.8M1540.9 444.2v-76.6M1651.3 456.6v-89M591.2 444.2v-76.4M1430.5 456.6v-89M727 440v70.2M1320.1 444.2v-70.4M1110.2 431.8v-64.2M1430.5 847v-82.9M591.2 896.6V751.7M2377.1 909v-95.3M2128.7 921.4V813.7M861.7 896.6v-82.9M1880.3 921.4V776.5M1110.2 871.8v-82.9" class="Stem"/><path d="M590 390.1q-.2.5.7 1.1A40 40 0 0 1 610 409c1.7 3 4.6 7.3 4.6 15.5a65 65 0 0 1-4.4 21.7q-.4.8-.3 1.5 0 1 1 1t1.5-1.1c4.5-8 6.2-17.2 6.2-26.2-.5-12.8-7.8-22.3-7.8-22.3.2 0-9.2-12.2-11.9-16.3-3.6-5.7-5.3-11.3-5.5-11.7l-1-3.9q-.2-.7-1.2-.8-1.2.1-1.3 1.3z" class="Hook"/><path d="M1079.2 440c0 4.2 3 9 11 9 10.4 0 21.2-8.4 21.2-17.2 0-5.8-5-9.1-11.1-9.1-9.6 0-21.1 8.1-21.1 17.3M1856.7 469.1c-3.3 0-4-2.6-4-3.5 0-5 16.7-13.4 21.4-13.4 2.4 0 4 1.4 4 3.5 0 5-16.8 13.4-21.4 13.4m13.7-21.6c-9.6 0-21.1 8-21.1 17.3 0 4.2 3 9 11 9 10.4 0 21.2-8.4 21.2-17.2 0-5.8-5-9.1-11.1-9.1M1399.5 464.8c0 4.2 3 9 11.1 9 10.3 0 21.2-8.4 21.2-17.2 0-5.8-5-9.1-11.2-9.1-9.6 0-21 8.1-21 17.3M1620.3 464.8c0 4.2 3 9 11.1 9 10.3 0 21.2-8.4 21.2-17.2 0-5.8-5-9.1-11.2-9.1-9.6 0-21 8.1-21 17.3M560.2 452.4c0 4.2 3 9 11 9 10.4 0 21.2-8.4 21.2-17.2 0-5.8-5-9.1-11.1-9.1-9.6 0-21.1 8.1-21.1 17.3M1510 452.4c0 4.2 3 9 11 9 10.3 0 21.2-8.4 21.2-17.2 0-5.8-5-9.1-11.2-9.1-9.6 0-21 8.1-21 17.3M725.8 440c0 4.2 3 9 11 9 10.4 0 21.2-8.4 21.2-17.2 0-5.8-5-9.1-11.1-9.1-9.6 0-21.1 8.1-21.1 17.3M1289.1 452.4c0 4.2 3 9 11.1 9 10.3 0 21.1-8.4 21.1-17.2 0-5.8-5-9.1-11-9.1-9.7 0-21.2 8.1-21.2 17.3M2346.1 917.1c0 4.3 3 9 11.1 9 10.3 0 21.1-8.4 21.1-17.1 0-5.9-5-9.2-11-9.2-9.7 0-21.2 8.2-21.2 17.3M1399.5 855.1c0 4.3 3 9 11.1 9 10.3 0 21.2-8.4 21.2-17.1 0-5.9-5-9.2-11.2-9.2-9.6 0-21 8.2-21 17.3M560.2 904.7c0 4.3 3 9 11 9 10.4 0 21.2-8.4 21.2-17.1 0-5.9-5-9.2-11.1-9.2-9.6 0-21.1 8.2-21.1 17.3M2097.7 929.5c0 4.3 3 9 11.1 9 10.3 0 21.1-8.4 21.1-17.1 0-5.9-5-9.2-11-9.2-9.7 0-21.2 8.2-21.2 17.3" class="Note"/><path d="M560.2 880c0 4.2 3 9 11 9 10.4 0 21.2-8.5 21.2-17.2 0-5.9-5-9.2-11.1-9.2-9.6 0-21.1 8.2-21.1 17.3M560.2 842.7c0 4.3 3 9 11 9 10.4 0 21.2-8.4 21.2-17.1 0-5.9-5-9.2-11.1-9.2-9.6 0-21.1 8.2-21.1 17.3M1849.3 867.5c0 4.3 3 9 11 9 10.4 0 21.2-8.4 21.2-17.1 0-5.9-5-9.2-11.1-9.2-9.6 0-21.1 8.2-21.1 17.3M1849.3 904.7c0 4.3 3 9 11 9 10.4 0 21.2-8.4 21.2-17.1 0-5.9-5-9.2-11.1-9.2-9.6 0-21.1 8.2-21.1 17.3" class="Note"/><path d="M1849.3 929.5c0 4.3 3 9 11 9 10.4 0 21.2-8.4 21.2-17.1 0-5.9-5-9.2-11.1-9.2-9.6 0-21.1 8.2-21.1 17.3M1079.2 880c0 4.2 3 9 11 9 10.4 0 21.2-8.5 21.2-17.2 0-5.9-5-9.2-11.1-9.2-9.6 0-21.1 8.2-21.1 17.3M830.7 904.7c0 4.3 3.1 9 11.2 9 10.3 0 21-8.4 21-17.1 0-5.9-4.9-9.2-11-9.2-9.7 0-21.2 8.2-21.2 17.3M1866.2 1158.7c-2.8 0-4.6-.8-6-3.3-1.2-2.5-3-8.8-3.1-11.5q-.3-4 3.2-5a14 14 0 0 1 4.2-.7c2.8 0 4.6.6 6 3.3s3.2 9 3.2 11.5c0 4.9-3.4 5.7-7.5 5.7m-.8-23.6c-13.7 0-18.5 6.9-18.5 13.3s4.8 13.4 18.5 13.4 18.5-6.9 18.5-13.4-4.8-13.3-18.5-13.3M577.1 1133.9c-2.8 0-4.6-.8-6-3.3-1.2-2.5-3-8.8-3.1-11.5q-.4-4 3.2-5a14 14 0 0 1 4.2-.7c2.8 0 4.6.6 6 3.3s3.2 9 3.2 11.5c0 4.9-3.4 5.7-7.5 5.7m-.8-23.6c-13.7 0-18.5 6.9-18.5 13.3s4.8 13.4 18.5 13.4 18.5-6.9 18.5-13.4-4.8-13.3-18.5-13.3" class="Note"/><path d="M431.2 481q-3 .6-5.8.6c-14.2 0-26.3-9.9-26.3-24.9 0-12 8.6-22.9 17.3-30.4l4.8-4.4 2.2 14.1c-9 2.7-15.1 12.2-15.1 21.5 0 7 5.4 16.5 13.4 16.5.7 0 1.6-.4 1.6-1.3s-1-1.4-2.1-2.2c-4-2.4-6.1-5-6.1-9.8 0-6 4.5-11 10.3-12.3zm-8.8-102c1-4 5.5-14.3 10.7-14.3 1.4 0 3.8 4.8 3.8 11.7 0 10.3-7.6 18-14.5 24.8q-.9-6-1-12 0-5.5 1-10.1m22.9 83.6c0 7-3 14.3-10 17.2l-5.4-32.1c9 0 15.4 6 15.4 14.9m-43.7 48.8c0 6.5 5 15.2 18.5 15.2a23 23 0 0 0 12.3-3.4c5.3-3.8 6.7-10.3 6.7-16.6q0-5.6-1.6-14L436 484c9.8-3.2 17-13.3 17-23.5a24 24 0 0 0-25.1-25.1l-2.9-17.4a56 56 0 0 0 17.8-39.1c0-9-2.8-16.4-4.4-20-2.4-5-5.2-8.5-7-8.5-.7 0-3.8 1.2-7 5-6.4 7.6-8.2 20.3-8.2 28.6 0 5.4.5 10.2 2.2 21.3-.1.1-5.3 5.4-7.4 7-9 8.5-21.5 20.5-21.5 40.4a34 34 0 0 0 34.6 33q4.4 0 7.9-.6 3 14 3 21.7-.1 15.7-15.3 15.8c-2.4 0-4.5-.5-4.7-.5l-.3-.3q0-.3.5-.4a11 11 0 0 0 9.3-11c0-5.4-4-11-11.5-11-7 0-11.4 5.6-11.4 12.2M431.2 859q-3 .6-5.8.6c-14.2 0-26.3-10-26.3-25 0-12 8.6-22.8 17.3-30.4l4.8-4.3 2.2 14c-9 2.7-15.1 12.2-15.1 21.6 0 7 5.4 16.4 13.4 16.4.7 0 1.6-.4 1.6-1.3s-1-1.3-2.1-2.1c-4-2.4-6.1-5-6.1-9.9 0-6 4.5-10.9 10.3-12.3zm-8.8-102c1-4 5.5-14.4 10.7-14.4 1.4 0 3.8 4.9 3.8 11.7 0 10.3-7.6 18-14.5 24.8q-.9-5.8-1-12 0-5.5 1-10.1m22.9 83.6c0 7-3 14.3-10 17.2l-5.4-32c9 0 15.4 6 15.4 14.8m-43.7 48.8c0 6.6 5 15.2 18.5 15.2a23 23 0 0 0 12.3-3.4c5.3-3.7 6.7-10.3 6.7-16.5q0-5.7-1.6-14l-1.5-8.8c9.8-3.2 17-13.3 17-23.6a24 24 0 0 0-25.1-25l-2.9-17.4a56 56 0 0 0 17.8-39.2c0-9-2.8-16.4-4.4-20-2.4-5-5.2-8.5-7-8.5-.7 0-3.8 1.2-7 5-6.4 7.6-8.2 20.3-8.2 28.6 0 5.4.5 10.3 2.2 21.4-.1 0-5.3 5.3-7.4 7-9 8.5-21.5 20.5-21.5 40.3a34 34 0 0 0 34.6 33.1q4.4 0 7.9-.7c1.9 9.6 3 16.5 3 21.8q-.1 15.6-15.3 15.7c-2.4 0-4.5-.4-4.7-.4q-.1-.2-.3-.3 0-.4.5-.4a11 11 0 0 0 9.3-11c0-5.4-4-11-11.5-11-7 0-11.4 5.6-11.4 12.1M445.8 1037c0 2.8 2.2 5 4.8 5s4.8-2.2 4.8-5-2.2-5-4.8-5-4.8 2.3-4.8 5m-31-12.6c-7.6 0-13.7 4.4-13.8 4.4a23 23 0 0 0-9.6 18c0 7.3 4.2 12.7 11.5 12.7 6.4 0 11.3-4.3 11.3-10.9a10.6 10.6 0 0 0-13.7-9.8c-1 .4-2.7 1.4-3.5 2.1.7-4.4 3.7-8.7 7.6-10.8a19 19 0 0 1 9.1-2q15.1-.1 15.1 24.8c0 12.9-8.2 31.5-18 40.2a85 85 0 0 1-20.1 13.9s-1.2.7-1.2 1.9l.1.5c.3 1 1.2 1.1 1.8 1.1h.5s11.4-4.7 20.4-11.8c14-10 29.6-27.6 29.6-45.9 0-17.3-9.3-28.4-27.2-28.4m31.1 37.1c0 2.8 2.2 5.1 4.8 5.1s4.8-2.3 4.8-5-2.2-5.1-4.8-5.1-4.8 2.3-4.8 5" class="Clef"/><path d="m481.7 378.9 8.8-1.8v16.3l-8.8 2zm15.4-3.1q1-.3 1-1.4v-5.9q0-1.2-1.3-1.4h-.2l-3.3.7v-14.7h-2.8v15.3l-8.8 1.8v-14h-2.8v14.6l-3.8.8q-1 .3-1.1 1.4v5.8q.1 1.2 1.4 1.4h.3l3.2-.7v16.3l-3.8.8q-1 .3-1.1 1.4v5.8q.1 1.2 1.4 1.3h.3l3.2-.6v14.7h2.8V404l8.8-1.8v14h2.8v-14.6l3.8-.7q1-.3 1-1.4v-5.9q0-1.3-1.3-1.3h-.2l-3.3.6v-16.3zM481.7 756.8l8.8-1.8v16.4l-8.8 1.9zm15.4-3q1-.5 1-1.5v-5.8q0-1.3-1.3-1.4h-.2l-3.3.7V731h-2.8v15.4l-8.8 1.8v-14h-2.8v14.6l-3.8.8q-1 .2-1.1 1.4v5.7q.1 1.3 1.4 1.4h.3l3.2-.7v16.4l-3.8.8q-1 .2-1.1 1.4v5.7q.1 1.3 1.4 1.4h.3l3.2-.7v14.8h2.8v-15.4l8.8-1.8v14h2.8v-14.6l3.8-.7c.6 0 1-.8 1-1.4v-5.8q0-1.3-1.3-1.4h-.2l-3.3.7v-16.4zM481.7 1042l8.8-1.8v16.4l-8.8 1.9zm15.4-3q1-.5 1-1.5v-5.8q0-1.3-1.3-1.4h-.2l-3.3.7v-14.8h-2.8v15.4l-8.8 1.8v-14h-2.8v14.6l-3.8.8c-.6 0-1.1.7-1.1 1.3v5.8q.1 1.3 1.4 1.4h.3l3.2-.7v16.4l-3.8.8q-1 .2-1.1 1.4v5.7q.1 1.3 1.4 1.4h.3l3.2-.7v14.8h2.8V1067l8.8-1.8v14h2.8v-14.6l3.8-.7c.6 0 1-.8 1-1.4v-5.8q0-1.3-1.3-1.4h-.2l-3.3.7v-16.4z" class="KeySig"/><path d="m2617.3 452.3-.6-.7-11.4-14.1-.2-.6.2-.9 10.1-15.3q.3-.4.2-.7v-.9q0-.5-.2-.8l-16.1-21.7s-.4-.6-1-.6q-.4 0-.8.3-.6.5-.5 1 .2 1 .3 1.1l7.5 10.3q.3.4.3 1.2t-.3 1.2l-10 15.3-.2.8v.9q0 .5.3.8l11.1 13.8q-.7-.4-2.5-.4c-5 0-9 4.2-9 9.3q0 2.2 1.1 3.8c2.1 3.2 9.5 12.6 9.5 12.6s.5.6 1.2.6q.3 0 .6-.2.7-.5.7-1.2 0-.5-.3-.9l-3.4-6.2s-.7-1.4-.7-3.2c0-3.2 2.3-5.7 5.5-5.7a6 6 0 0 1 3.2.9l3.9 2.5.7.1q.6.1 1-.5.3-.4.3-.8t-.3-.8zM2617.3 830.2l-.6-.7-11.4-14-.2-.7.2-.9 10.1-15.2q.3-.4.2-.7v-1q0-.4-.2-.7l-16.1-21.7s-.4-.6-1-.6q-.4 0-.8.3-.6.4-.5 1 .2.9.3 1l7.5 10.4q.3.4.3 1.1t-.3 1.2l-10 15.3-.2.8v1q0 .4.3.7l11.1 13.8q-.7-.2-2.5-.3c-5 0-9 4.2-9 9.2q0 2.2 1.1 3.9c2.1 3.2 9.5 12.6 9.5 12.6s.5.6 1.2.6q.3 0 .6-.2.7-.6.7-1.2t-.3-1l-3.4-6.2s-.7-1.3-.7-3.1c0-3.2 2.3-5.8 5.5-5.8a6 6 0 0 1 3.2 1l3.9 2.4q0 .1.7.2.6 0 1-.5l.3-.9q0-.4-.3-.8z" class="Rest"/><path fill-rule="evenodd" d="M1429.3 361.4h223.3v12.4h-223.3zM1429.3 380h112.9v12.4h-113zM1109 361.4l212.3 6.2V380l-212.4-6.2zM1321.3 386.2l-27.2-.8v12.4l27.2.8z" class="Beam"/><path d="m740.5 553.8-5.7-13.3-.2-1c0-.9.6-1.2 2.7-1.2h.7v-1.8h-11.8v1.8h.4c1.9 0 2.6.5 3.3 2.2l8.6 20h1.7l7.1-17.5c1.4-3.4 2.6-4.5 4.7-4.7h.2v-1.8h-10v1.8h.7q2.6 0 2.7 1.7 0 1-.5 2.1zm34.2-5.3c0-7.5-4.2-12.7-10.3-12.7-6.4 0-11.2 5.5-11.2 13 0 7 4.5 11.7 11.3 11.7q7.1 0 10.2-7l-1.8-1c-2 3.8-4.1 5.3-7.5 5.3q-3.7 0-5.7-3.3c-.9-1.5-1.3-3.2-1.2-6zm-16.2-2.1c0-3.5 1.6-8.5 5.8-8.5 3 0 5 2.6 5 6.7 0 1.4-.4 1.8-2 1.8zm27.8-9.9-8.9.5v2.2h2c2 0 2.2.3 2.2 2.5V556q0 1-.2 1.3-.5.7-3.5.7h-.3v1.8H791V558h-.9c-3.4-.1-3.8-.4-3.8-2.2v-2.7c0-8.3 3-14.8 7-15q-1 1.1-1 2.3.2 2.6 2.8 2.7 2.9-.1 3-3.3c0-2.5-1.7-4-4.3-4q-5 .1-7.5 7zm15.4 17.8a3.1 3.1 0 1 0 0 6.3 3.1 3.1 0 0 0 0-6.3" class="Lyrics"/><path fill="none" stroke="#000" stroke-linejoin="bevel" stroke-width="2.5" d="M616.3 548.4h14.9M810.7 558.6h1070.8" class="LyricsLineSegment"/><path d="M1123.8 423.4a5 5 0 0 0 5 5 5 5 0 0 0 4.9-5 5 5 0 0 0-5-5 5 5 0 0 0-5 5M770.4 423.4a5 5 0 0 0 5 5 5 5 0 0 0 5-5 5 5 0 0 0-5-5 5 5 0 0 0-5 5M1893.9 448.2a5 5 0 0 0 5 5 5 5 0 0 0 5-5 5 5 0 0 0-5-5 5 5 0 0 0-5 5" class="NoteDot"/><path d="M2837.7 233.5c0 5.2-.2 16-7.6 16q-1.8 0-1.8-1 0-.6.3-1c1-1.7 1.1-2 1.1-3.2 0-2.7-1.9-4.5-4.6-4.5-3 0-5.2 2.3-5.2 5.5 0 4.3 4 7 10.2 7 12.5 0 17.3-11 17.3-22 0-5-1.1-8.7-3.5-11.9a14 14 0 0 0-11.4-5.7c-8 0-13.7 5.5-13.7 13.2 0 6.4 4.6 11.2 10.9 11.2 3.4 0 5.7-1 8-3.6m-4.7-18c4 0 4.5 6.8 4.5 9.6 0 4.8-1.8 8-4.6 8-4.3 0-4.6-5.4-4.6-8.5q0-9 4.6-9" class="Page"/><path d="M338.7 944a64 64 0 0 0 19-46.8c0-32.8-14-65.9-14-86.3 0-22 12.5-42.5 13.3-43.2v-.7q.1-.6-.4-1-.7-.2-1.4.6c-.4.4-19.8 19.8-19.8 49.3 0 31.6 12.6 54 12.6 95.3 0 7.9-3.3 20.5-12.3 31.7-.3 0-.3.6-.3 1q-.3.6.3 1.1a54 54 0 0 1 12.3 31.6c0 41.4-12.6 63.7-12.6 95.3 0 29.2 19.4 49 19.8 49.3q.6 1.1 1.4.7t.4-1v-.8a89 89 0 0 1-13.3-43.1c0-20.5 14-53.6 14-86.3 0-26.3-12.6-40-19-46.8" class="Bracket"/></svg>