<?xml version="1.0" encoding="UTF-8" standalone="no"?>
<!-- Created with Inkscape (http://www.inkscape.org/) -->
<svg
   xmlns:svg="http://www.w3.org/2000/svg"
   xmlns="http://www.w3.org/2000/svg"
   version="1.0"
   width="557.77802"
   height="233.73599"
   id="svg2444">
  <defs
     id="defs2446" />
  <g
     transform="translate(-1.111,-446.92275)"
     id="layer1">
    <g
       transform="translate(-25.877,421.91175)"
       id="g2433">
      <path
         d="M 101.584,82.392 C 123.621,65.659 141.163,46 156.672,25.011 L 131.04,82.008 L 133.612,88.216 L 157.818,67.088 L 157.818,127.532 L 131.04,152.398 L 138.311,101.519 L 128.362,113.762 L 122.625,101.138 C 108.6,131.487 94.573,161.836 80.545,192.185 C 79.026,195.526 82.504,198.058 85.516,195.625 L 105.03,179.561 L 26.988,258.747 L 108.854,100.754 L 123.005,73.213 C 123.327,72.624 123.008,70.863 121.093,71.449 L 101.584,82.392 L 101.584,82.392 z"
         id="path7"
         style="fill-rule:evenodd" />
      <path
         d="M 293.471,66.976 L 312.027,66.976 L 312.027,110.237 L 335.164,110.237 L 335.164,127.134 C 321.267,127.134 307.369,127.134 293.471,127.134 L 293.471,66.976 L 293.471,66.976 z"
         id="path9"
         style="fill-rule:evenodd" />
      <path
         d="M 338.257,66.976 L 356.813,66.976 L 356.813,110.237 L 378.421,110.237 L 378.421,127.134 C 364.524,127.134 352.154,127.134 338.257,127.134 L 338.257,66.976 L 338.257,66.976 z"
         id="path11"
         style="fill-rule:evenodd" />
      <polygon
         points="382.097,66.976 400.87,66.976 400.87,127.134 382.097,127.134 382.097,66.976 "
         id="polygon13"
         style="fill-rule:evenodd" />
      <polygon
         points="238.681,83.387 238.681,127.134 218.817,127.134 218.817,83.387 208.813,83.387 208.813,66.976 261.418,66.976 254.435,83.387 238.681,83.387 "
         id="polygon15"
         style="fill-rule:evenodd" />
      <path
         d="M 162.499,66.976 C 176.542,66.976 190.585,66.976 204.628,66.976 L 204.628,83.387 L 181.271,83.387 L 181.271,89.425 L 204.628,89.425 L 204.628,105.836 L 181.271,105.836 L 181.271,110.724 L 204.628,110.724 L 204.628,127.135 C 190.585,127.135 176.542,127.135 162.499,127.135 L 162.499,66.976 L 162.499,66.976 z"
         id="path17"
         style="fill-rule:evenodd" />
      <path
         d="M 288.537,66.976 L 288.766,127.134 L 270.957,127.134 L 270.957,110.267 L 269.568,110.267 L 261.24,127.134 L 242.039,127.134 L 268.408,66.976 L 288.537,66.976 L 288.537,66.976 z M 268.552,97.889 L 273.152,98.056 L 273.152,89.542 L 268.552,97.889 L 268.552,97.889 z"
         id="path19"
         style="fill-rule:evenodd" />
      <path
         d="M 436.354,63.437 C 444.508,63.437 451.959,66.496 457.622,71.52 L 443.907,85.802 C 441.768,84.063 439.019,83.016 436.025,83.016 C 429.241,83.016 423.709,88.399 423.709,95.004 C 423.709,101.608 429.241,106.992 436.025,106.992 C 441.012,106.992 445.324,104.082 447.257,99.916 L 464.257,110.856 C 458.759,120.557 448.308,127.134 436.354,127.134 C 418.728,127.134 404.35,112.827 404.35,95.285 C 404.351,77.743 418.729,63.437 436.354,63.437 L 436.354,63.437 z"
         id="path21"
         style="fill-rule:evenodd" />
      <path
         d="M 448.879,25.844 C 467.45,42.37 486.391,58.527 505.987,74.03 C 499.444,70.205 492.898,66.381 486.356,62.556 C 484.183,61.468 480.988,62.556 483.296,66.976 C 517.135,130.481 551.647,193.721 584.766,257.595 C 555.886,230.618 528.128,204.206 501.397,178.304 L 529.443,195.642 C 532.787,197.049 534.947,194.309 531.482,188.755 L 497.576,118.391 L 491.712,106.663 L 483.806,106.409 L 491.201,153.575 L 468.402,127.135 L 464.504,53.91 L 448.879,25.844 L 448.879,25.844 z M 480.867,90.128 L 485.361,90.128 L 478.828,79.494 L 480.867,90.128 L 480.867,90.128 z"
         id="path23"
         style="fill-rule:evenodd" />
    </g>
  </g>
</svg>
